<svg width="14" height="14" viewBox="0 0 14 14" fill="none" xmlns="http://www.w3.org/2000/svg">
<path d="M7.31514 0.628161C7.1139 0.541915 6.88611 0.541915 6.68487 0.628161L1.08487 3.02816C0.790724 3.15422 0.600006 3.44345 0.600006 3.76348C0.600006 4.0835 0.790724 4.37273 1.08487 4.49879L3.2003 5.40541C3.27723 5.31825 3.37366 5.24726 3.48487 5.1996L6.68487 3.82817C7.09097 3.65413 7.56128 3.84225 7.73532 4.24835C7.90937 4.65445 7.72124 5.12476 7.31514 5.2988L5.13335 6.23386L6.68487 6.89879C6.88611 6.98504 7.1139 6.98504 7.31514 6.89879L12.9151 4.49879C13.2093 4.37273 13.4 4.0835 13.4 3.76348C13.4 3.44345 13.2093 3.15422 12.9151 3.02816L7.31514 0.628161Z" fill="#1EB21C"/>
<path d="M1.64804 6.48086L3.00001 7.06027V10.3416C2.72579 10.2794 2.44565 10.2329 2.16057 10.203C1.78476 10.1636 1.48776 9.86657 1.44836 9.49076C1.41638 9.18574 1.40001 8.87632 1.40001 8.56334C1.40001 7.84612 1.48593 7.14867 1.64804 6.48086Z" fill="#1EB21C"/>
<path d="M6.43997 12.2215C5.90167 11.6938 5.28134 11.2502 4.60001 10.9116V7.74599L6.0546 8.36938C6.65832 8.62812 7.3417 8.62812 7.94541 8.36938L12.352 6.48086C12.5141 7.14867 12.6 7.84612 12.6 8.56334C12.6 8.87632 12.5836 9.18574 12.5517 9.49076C12.5122 9.86657 12.2153 10.1636 11.8394 10.203C10.1812 10.3768 8.68991 11.1138 7.56004 12.2215C7.24896 12.5264 6.75105 12.5264 6.43997 12.2215Z" fill="#1EB21C"/>
<path d="M3.80001 13.3635C4.24183 13.3635 4.60001 13.0053 4.60001 12.5635V10.9116C4.09709 10.6616 3.56094 10.4688 3.00001 10.3416V12.5635C3.00001 13.0053 3.35818 13.3635 3.80001 13.3635Z" fill="#1EB21C"/>
</svg>
