<svg width="16" height="17" viewBox="0 0 16 17" fill="none" xmlns="http://www.w3.org/2000/svg">
<path fill-rule="evenodd" clip-rule="evenodd" d="M8 16.8164C3.58172 16.8164 0 13.2347 0 8.81641C0 4.39813 3.58172 0.816406 8 0.816406C12.4183 0.816406 16 4.39813 16 8.81641C16 13.2347 12.4183 16.8164 8 16.8164ZM11.6496 5.95968L6.90909 10.6156L4.35035 8.10254C4.15334 7.90904 3.83677 7.9119 3.64328 8.10891C3.44978 8.30592 3.45263 8.62249 3.64965 8.81599L6.55874 11.6731C6.75324 11.8642 7.06494 11.8642 7.25944 11.6731L12.3504 6.67313C12.5474 6.47964 12.5502 6.16307 12.3567 5.96605C12.1632 5.76904 11.8467 5.76619 11.6496 5.95968Z" fill="#1EB21C"/>
</svg>
