<svg width="80" height="80" viewBox="0 0 80 80" fill="none" xmlns="http://www.w3.org/2000/svg">
<path d="M68.2796 11.7111C52.6563 -3.9075 27.3296 -3.90375 11.711 11.7197C-3.90762 27.3431 -3.90387 52.6697 11.7196 68.2883C27.343 83.9069 52.6696 83.9031 68.2882 68.2797C75.7891 60.7764 80.0019 50.6006 79.9996 39.9911C79.9974 29.3833 75.7816 19.2108 68.2796 11.7111ZM60.5782 55.7192C60.5764 55.7209 60.5747 55.7228 60.5729 55.7245V55.7112L58.5461 57.7245C55.925 60.3787 52.1077 61.4708 48.4794 60.6045C44.8239 59.6261 41.3489 58.0686 38.1861 55.9912C35.2477 54.1133 32.5246 51.918 30.0661 49.4445C27.8041 47.1991 25.7719 44.7334 23.9994 42.0845C22.0607 39.2342 20.5261 36.1292 19.4394 32.8578C18.1936 29.0147 19.226 24.7977 22.1061 21.9645L24.4794 19.5912C25.1393 18.9284 26.2114 18.9261 26.8741 19.5859C26.8758 19.5877 26.8777 19.5894 26.8794 19.5912L34.3727 27.0845C35.0355 27.7444 35.0379 28.8166 34.378 29.4792C34.3763 29.4809 34.3746 29.4827 34.3727 29.4845L29.9727 33.8845C28.7102 35.1333 28.5514 37.1177 29.5994 38.5512C31.1908 40.7353 32.9519 42.7905 34.8661 44.698C37.0004 46.8414 39.3205 48.7912 41.7994 50.5247C43.2318 51.5237 45.1736 51.3553 46.4127 50.1247L50.666 45.8047C51.3258 45.1419 52.398 45.1395 53.0607 45.7994C53.0624 45.8011 53.0641 45.8028 53.066 45.8047L60.5727 53.3247C61.2357 53.9844 61.238 55.0564 60.5782 55.7192Z" fill="#00C081"/>
</svg>
