<svg width="21" height="17" viewBox="0 0 21 17" fill="none" xmlns="http://www.w3.org/2000/svg">
<mask id="mask0" mask-type="alpha" maskUnits="userSpaceOnUse" x="0" y="0" width="16" height="17">
<path fill-rule="evenodd" clip-rule="evenodd" d="M0.000244141 0.529541H15.5005V16.0196H0.000244141V0.529541Z" fill="white"/>
</mask>
<g mask="url(#mask0)">
<path fill-rule="evenodd" clip-rule="evenodd" d="M4.84735 2.02998C4.40835 2.02998 4.12535 2.02998 4.07635 2.03198C3.33835 2.06296 2.65735 2.37573 2.16635 2.91134C1.70835 3.41197 1.47235 4.0515 1.50335 4.71502C1.50335 7.60591 1.50435 11.9447 1.51135 12.1826C1.62535 13.5666 2.92335 14.6248 4.40935 14.5109C7.15935 14.5149 11.2334 14.5239 11.4244 14.5169C12.1594 14.4869 12.8414 14.1751 13.3324 13.6405C13.7914 13.1419 14.0274 12.5023 13.9984 11.8418C13.9974 11.8308 13.9974 11.8198 13.9974 11.8088C13.9984 8.95092 13.9984 4.61509 13.9914 4.38226C13.8784 2.99128 12.5744 1.92006 11.0804 2.03698C9.01435 2.03398 6.19535 2.02998 4.84735 2.02998ZM4.14635 16.0196C2.03235 16.0206 0.188351 14.4018 0.0143512 12.2783C0.0113512 12.2373 0.00135115 12.1124 0.00435115 4.74881C-0.0436489 3.71856 0.330351 2.69531 1.06035 1.89889C1.82235 1.06749 2.87335 0.582848 4.02035 0.533884C4.15935 0.523891 8.96735 0.535883 11.0264 0.53988C13.2764 0.381995 15.3074 2.05078 15.4884 4.29014C15.4964 4.39906 15.4994 6.92222 15.4974 11.7937C15.5394 12.8489 15.1634 13.8651 14.4374 14.6546C13.6744 15.485 12.6224 15.9676 11.4764 16.0146C11.3364 16.0246 6.52635 16.0116 4.46435 16.0076C4.35835 16.0156 4.25235 16.0196 4.14635 16.0196Z" fill="white"/>
</g>
<path fill-rule="evenodd" clip-rule="evenodd" d="M18.8186 13.8691C18.3676 13.8691 17.9226 13.7142 17.5556 13.4134L14.2746 10.7194C13.9546 10.4566 13.9086 9.98394 14.1716 9.66417C14.4336 9.34541 14.9066 9.29744 15.2266 9.56125L18.5066 12.2553C18.7276 12.4351 18.9496 12.3612 19.0356 12.3192C19.1216 12.2793 19.3206 12.1544 19.3206 11.8706L19.3326 4.52693C19.3336 4.24313 19.1336 4.11822 19.0476 4.07725C18.9626 4.03728 18.7376 3.96234 18.5186 4.14221L15.2256 6.83524C14.9036 7.09805 14.4326 7.05108 14.1706 6.72932C13.9076 6.40955 13.9556 5.9379 14.2756 5.67609L17.5686 2.98205C18.1726 2.48742 18.9856 2.39049 19.6906 2.72324C20.3956 3.058 20.8336 3.74949 20.8326 4.52892L20.8206 11.8726C20.8196 12.652 20.3806 13.3435 19.6766 13.6752C19.4006 13.8061 19.1086 13.8691 18.8186 13.8691Z" fill="white"/>
</svg>
