<svg width="12" height="12" viewBox="0 0 12 12" fill="none" xmlns="http://www.w3.org/2000/svg">
<path fill-rule="evenodd" clip-rule="evenodd" d="M5.99922 10.8C8.65018 10.8 10.7992 8.65098 10.7992 6.00001C10.7992 3.34905 8.65018 1.20001 5.99922 1.20001C3.34825 1.20001 1.19922 3.34905 1.19922 6.00001C1.19922 8.65098 3.34825 10.8 5.99922 10.8ZM6.99922 3.60001C6.99922 3.04773 6.5515 2.60001 5.99922 2.60001C5.44693 2.60001 4.99922 3.04773 4.99922 3.60001V6.00001C4.99922 6.26523 5.10458 6.51958 5.29211 6.70712L6.98917 8.40418C7.37969 8.7947 8.01286 8.7947 8.40338 8.40418C8.79391 8.01365 8.79391 7.38049 8.40338 6.98996L6.99922 5.5858V3.60001Z" fill="#008F60"/>
</svg>
