<svg width="13" height="13" viewBox="0 0 13 13" fill="none" xmlns="http://www.w3.org/2000/svg">
<path fill-rule="evenodd" clip-rule="evenodd" d="M6.5 12C3.467 12 1 9.533 1 6.5C1 3.467 3.467 1 6.5 1C9.533 1 12 3.467 12 6.5C12 9.533 9.533 12 6.5 12ZM6.5 0C2.91 0 0 2.91 0 6.5C0 10.09 2.91 13 6.5 13C10.09 13 13 10.09 13 6.5C13 2.91 10.09 0 6.5 0ZM9.5 6H7V2.5C7 2.224 6.776 2 6.5 2C6.224 2 6 2.224 6 2.5V6.5C6 6.776 6.224 7 6.5 7H9.5C9.776 7 10 6.776 10 6.5C10 6.224 9.776 6 9.5 6Z" fill="#343741"/>
</svg>
