<svg width="20" height="20" viewBox="0 0 20 20" fill="none"
  xmlns="http://www.w3.org/2000/svg">
  <path d="M19.45 8.50001L19.3516 8.08282H10.2812V11.9219H15.7C15.1375 14.5938 12.5266 16 10.3937 16C8.84219 16 7.20625 15.3484 6.12344 14.2984C5.0125 13.2203 4.30469 11.6313 4.30469 9.99532C4.30469 8.37813 5.03125 6.76095 6.09063 5.69689C7.14531 4.63751 8.74375 4.03751 10.3328 4.03751C12.1516 4.03751 13.4547 5.00314 13.9422 5.44376L16.6703 2.7297C15.8687 2.02657 13.6703 0.2547 10.2438 0.2547C7.6 0.2547 5.06406 1.2672 3.2125 3.11407C1.38437 4.93282 0.4375 7.56251 0.4375 10C0.4375 12.4375 1.33281 14.9406 3.10469 16.7734C4.99844 18.7281 7.67969 19.75 10.4406 19.75C12.9531 19.75 15.3344 18.7656 17.0312 16.9797C18.7 15.2219 19.5625 12.7891 19.5625 10.2391C19.5625 9.16563 19.4547 8.52813 19.45 8.50001Z" fill="#DD4B39"/>
</svg>
