<svg width="19" height="15" viewBox="0 0 19 15" fill="none" xmlns="http://www.w3.org/2000/svg">
<path d="M7.34375 4.36625V10.6338C7.34375 10.9931 7.73763 11.2131 8.04381 11.0262L12.7286 8.16269C12.8422 8.09338 12.9361 7.99603 13.0013 7.87998C13.0664 7.76393 13.1006 7.63308 13.1006 7.5C13.1006 7.36692 13.0664 7.23607 13.0013 7.12002C12.9361 7.00397 12.8422 6.90662 12.7286 6.83731L8.04238 3.97525C7.97268 3.93296 7.89299 3.90995 7.81147 3.90858C7.72996 3.90721 7.64954 3.92753 7.57846 3.96746C7.50738 4.00739 7.44819 4.06549 7.40695 4.13581C7.36571 4.20614 7.3439 4.28616 7.34375 4.36769V4.36625ZM4.46875 0.3125C3.51563 0.3125 2.60154 0.691126 1.92759 1.36509C1.25363 2.03904 0.875 2.95313 0.875 3.90625V11.0938C0.875 12.0469 1.25363 12.961 1.92759 13.6349C2.60154 14.3089 3.51563 14.6875 4.46875 14.6875H14.5312C15.4844 14.6875 16.3985 14.3089 17.0724 13.6349C17.7464 12.961 18.125 12.0469 18.125 11.0938V3.90625C18.125 2.95313 17.7464 2.03904 17.0724 1.36509C16.3985 0.691126 15.4844 0.3125 14.5312 0.3125H4.46875ZM2.3125 3.90625C2.3125 3.33438 2.53968 2.78593 2.94405 2.38155C3.34843 1.97718 3.89688 1.75 4.46875 1.75H14.5312C15.1031 1.75 15.6516 1.97718 16.0559 2.38155C16.4603 2.78593 16.6875 3.33438 16.6875 3.90625V11.0938C16.6875 11.6656 16.4603 12.2141 16.0559 12.6184C15.6516 13.0228 15.1031 13.25 14.5312 13.25H4.46875C3.89688 13.25 3.34843 13.0228 2.94405 12.6184C2.53968 12.2141 2.3125 11.6656 2.3125 11.0938V3.90625Z" fill="#999999"/>
</svg>
