<svg width="25" height="25" viewBox="0 0 25 25" fill="none" xmlns="http://www.w3.org/2000/svg">
<path fill-rule="evenodd" clip-rule="evenodd" d="M16.2159 17.495H8.99585C8.58185 17.495 8.24585 17.1592 8.24585 16.7455C8.24585 16.3318 8.58185 15.9961 8.99585 15.9961H16.2159C16.6299 15.9961 16.9659 16.3318 16.9659 16.7455C16.9659 17.1592 16.6299 17.495 16.2159 17.495Z" fill="#999999"/>
<path fill-rule="evenodd" clip-rule="evenodd" d="M16.2159 13.3114H8.99585C8.58185 13.3114 8.24585 12.9757 8.24585 12.562C8.24585 12.1483 8.58185 11.8125 8.99585 11.8125H16.2159C16.6299 11.8125 16.9659 12.1483 16.9659 12.562C16.9659 12.9757 16.6299 13.3114 16.2159 13.3114Z" fill="#999999"/>
<path fill-rule="evenodd" clip-rule="evenodd" d="M11.7505 9.13758H8.99548C8.58148 9.13758 8.24548 8.80182 8.24548 8.38812C8.24548 7.97443 8.58148 7.63867 8.99548 7.63867H11.7505C12.1645 7.63867 12.5005 7.97443 12.5005 8.38812C12.5005 8.80182 12.1645 9.13758 11.7505 9.13758Z" fill="#999999"/>
<mask id="mask0" mask-type="alpha" maskUnits="userSpaceOnUse" x="3" y="2" width="19" height="21">
<path fill-rule="evenodd" clip-rule="evenodd" d="M3.5 2.53223H21.6647V22.4275H3.5V2.53223Z" fill="white"/>
</mask>
<g mask="url(#mask0)">
<path fill-rule="evenodd" clip-rule="evenodd" d="M16.4088 4.03097L8.71976 4.03497C6.39176 4.04896 4.99976 5.48791 4.99976 7.88516V17.0744C4.99976 19.4877 6.40476 20.9286 8.75576 20.9286L16.4448 20.9256C18.7728 20.9116 20.1648 19.4707 20.1648 17.0744V7.88516C20.1648 5.47192 18.7608 4.03097 16.4088 4.03097ZM8.75676 22.4277C5.61276 22.4277 3.49976 20.2763 3.49976 17.0746V7.88532C3.49976 4.65468 5.54676 2.55521 8.71476 2.53622L16.4078 2.53223H16.4088C19.5528 2.53223 21.6648 4.68366 21.6648 7.88532V17.0746C21.6648 20.3042 19.6178 22.4047 16.4498 22.4247L8.75676 22.4277Z" fill="#999999"/>
</g>
</svg>
