<svg width="24" height="25" viewBox="0 0 24 25" fill="none" xmlns="http://www.w3.org/2000/svg">
<path fill-rule="evenodd" clip-rule="evenodd" d="M15.7159 17.495H8.49585C8.08185 17.495 7.74585 17.1592 7.74585 16.7455C7.74585 16.3318 8.08185 15.9961 8.49585 15.9961H15.7159C16.1299 15.9961 16.4659 16.3318 16.4659 16.7455C16.4659 17.1592 16.1299 17.495 15.7159 17.495Z" fill="white"/>
<path fill-rule="evenodd" clip-rule="evenodd" d="M15.7159 13.3114H8.49585C8.08185 13.3114 7.74585 12.9757 7.74585 12.562C7.74585 12.1483 8.08185 11.8125 8.49585 11.8125H15.7159C16.1299 11.8125 16.4659 12.1483 16.4659 12.562C16.4659 12.9757 16.1299 13.3114 15.7159 13.3114Z" fill="white"/>
<path fill-rule="evenodd" clip-rule="evenodd" d="M11.2505 9.13758H8.49548C8.08148 9.13758 7.74548 8.80182 7.74548 8.38812C7.74548 7.97443 8.08148 7.63867 8.49548 7.63867H11.2505C11.6645 7.63867 12.0005 7.97443 12.0005 8.38812C12.0005 8.80182 11.6645 9.13758 11.2505 9.13758Z" fill="white"/>
<mask id="mask0" mask-type="alpha" maskUnits="userSpaceOnUse" x="3" y="2" width="19" height="21">
<path fill-rule="evenodd" clip-rule="evenodd" d="M3 2.53223H21.1647V22.4275H3V2.53223Z" fill="white"/>
</mask>
<g mask="url(#mask0)">
<path fill-rule="evenodd" clip-rule="evenodd" d="M15.9088 4.03097L8.21976 4.03497C5.89176 4.04896 4.49976 5.48791 4.49976 7.88516V17.0744C4.49976 19.4877 5.90476 20.9286 8.25576 20.9286L15.9448 20.9256C18.2728 20.9116 19.6648 19.4707 19.6648 17.0744V7.88516C19.6648 5.47192 18.2608 4.03097 15.9088 4.03097ZM8.25676 22.4277C5.11276 22.4277 2.99976 20.2763 2.99976 17.0746V7.88532C2.99976 4.65468 5.04676 2.55521 8.21476 2.53622L15.9078 2.53223H15.9088C19.0528 2.53223 21.1648 4.68366 21.1648 7.88532V17.0746C21.1648 20.3042 19.1178 22.4047 15.9498 22.4247L8.25676 22.4277Z" fill="white"/>
</g>
</svg>
