<svg width="238" height="146" viewBox="0 0 238 146" fill="none" xmlns="http://www.w3.org/2000/svg">
<path opacity="0.3" d="M222.37 114.928H194.297C197.303 112.168 199.221 107.976 199.221 103.296V99.8561C199.221 89.8801 206.463 81.8001 215.4 81.8001C224.56 81.8001 231.986 73.5121 231.986 63.288C231.986 53.064 224.56 44.776 215.4 44.776H212.682C203.745 44.776 196.503 36.688 196.503 26.72C196.503 18.4 190.46 11.648 183.003 11.648H77.4973C69.2002 11.648 62.4697 19.16 62.4697 28.416C62.4697 34.752 65.6111 40.264 70.2553 43.112H51.7186C43.9889 43.112 37.7221 49.584 37.7221 57.568C37.7221 67.1361 30.2162 74.8881 20.9519 74.8881H18.1382C8.642 74.8881 0.944336 82.84 0.944336 92.6481C0.944336 102.456 8.642 110.408 18.1382 110.408C27.4026 110.408 34.9084 118.16 34.9084 127.728V131.032C34.9084 139.016 41.1752 145.488 48.9049 145.488H114.027C114.515 145.536 115.018 145.56 115.522 145.56H222.378C230.827 145.56 237.678 138.704 237.678 130.248C237.67 121.784 230.819 114.928 222.37 114.928Z" fill="#D4EDE5"/>
<path d="M68.5766 96.552C68.153 96.552 67.8013 97.04 67.8013 97.648C67.8013 98.256 68.145 98.752 68.5686 98.752C68.9923 98.752 69.344 98.264 69.344 97.656C69.344 97.048 69.0003 96.552 68.5766 96.552ZM68.5766 96.864C68.8084 96.864 68.9923 96.976 68.9923 97.12C68.9923 97.264 68.8084 97.376 68.5766 97.376C68.3448 97.376 68.161 97.264 68.161 97.12C68.161 96.976 68.3448 96.864 68.5766 96.864ZM68.5686 98.336C68.2489 98.336 67.9851 98.16 67.9851 97.944C67.9851 97.728 68.2489 97.552 68.5686 97.552C68.8884 97.552 69.1522 97.728 69.1522 97.944C69.1601 98.168 68.8964 98.344 68.5686 98.336Z" fill="#466EB6"/>
<path d="M66.8258 98.984C66.6659 99.336 66.578 99.712 66.578 100.096L66.562 108.152C66.562 108.64 66.9617 109.032 67.4493 109.032L72.0535 109.04C72.5411 109.04 72.9408 108.648 72.9408 108.16L72.9567 100.104C72.9567 99.72 72.8768 99.336 72.7169 98.984H66.8258Z" fill="#7F1CA0"/>
<path d="M66.8258 98.984C66.6659 99.336 66.578 99.712 66.578 100.096L66.562 108.152C66.562 108.64 66.9617 109.032 67.4493 109.032L72.0535 109.04C72.5411 109.04 72.9408 108.648 72.9408 108.16L72.9567 100.104C72.9567 99.72 72.8768 99.336 72.7169 98.984H66.8258Z" fill="#7F1CA0"/>
<path d="M72.9569 100.112L72.9409 108.168C72.9409 108.656 72.5413 109.048 72.0457 109.048L67.4415 109.04C66.9459 109.04 66.5542 108.64 66.5542 108.16L66.5702 100.104C66.5702 99.72 66.6581 99.336 66.818 98.992L72.7091 99.008C72.877 99.344 72.9569 99.728 72.9569 100.112Z" fill="#F47458"/>
<path d="M67.7772 108.152L67.7932 100.096C67.7932 99.712 67.8811 99.328 68.041 98.984H66.818C66.6581 99.336 66.5702 99.712 66.5702 100.096L66.5542 108.152C66.5542 108.64 66.9539 109.032 67.4415 109.032H68.6645C68.1769 109.04 67.7772 108.64 67.7772 108.152Z" fill="#F48C7F"/>
<path d="M72.9572 100.112L72.9412 108.168C72.9412 108.656 72.5415 109.048 72.0459 109.048L70.1675 109.04C70.6631 109.04 71.0707 108.648 71.0707 108.16L71.0867 100.104C71.0867 99.72 71.0068 99.336 70.8389 98.992L72.7094 99C72.8773 99.344 72.9572 99.728 72.9572 100.112Z" fill="#B75742"/>
<path d="M72.7173 99L66.8262 98.984C66.8262 98.728 67.042 98.52 67.2978 98.52L72.2457 98.536C72.5095 98.528 72.7173 98.736 72.7173 99Z" fill="#13375B"/>
<path d="M66.565 106.565L66.5625 107.565L72.9413 107.581L72.9437 106.581L66.565 106.565Z" fill="#355389"/>
<path d="M61.031 96.392H61.7344C61.6225 96.312 61.4786 96.264 61.3188 96.264H43.6853C42.766 96.264 42.0146 96.928 42.0146 97.744V98.688C42.0146 99.504 42.766 100.168 43.6853 100.168L61.1189 100.16L61.031 96.392Z" fill="#86B1F2"/>
<path d="M51.0152 96.264C50.1359 96.264 49.4165 96.896 49.4165 97.68V98.744C49.4165 99.528 50.1279 100.16 51.0152 100.16H61.9902V99.92H61.9422L59.1525 99.688L58.585 97.728C58.585 97.728 59.6721 96.64 59.744 96.616C59.8159 96.592 61.9422 96.504 61.9422 96.504H61.9902V96.264H51.0152Z" fill="#466EB6"/>
<path d="M61.2789 98.208C61.2789 97.064 61.9504 96.504 61.9504 96.504H51.2472C50.4398 96.504 49.7764 97.088 49.7764 97.808V98.624C49.7764 99.344 50.4318 99.928 51.2472 99.928H61.9504C61.9504 99.928 61.2789 99.656 61.2789 98.208Z" fill="#FAE0B2"/>
<path d="M49.7764 97.808V98.624C49.7764 98.728 49.7924 98.84 49.8163 98.936C50.176 98.152 50.8715 97.4 52.1904 97.152C55.2679 96.584 61.9504 96.504 61.9504 96.504H51.2472C50.4318 96.504 49.7764 97.088 49.7764 97.808Z" fill="#DAEEF7"/>
<path d="M60.7354 104.192H61.5347C61.4068 104.096 61.239 104.032 61.0631 104.032H41.1115C40.0644 104.032 39.2251 104.864 39.2251 105.888V107.064C39.2251 108.088 40.0724 108.92 41.1115 108.92L60.8393 108.912L60.7354 104.192Z" fill="#50BFA5"/>
<path d="M49.4086 104.04C48.4094 104.04 47.6021 104.832 47.6021 105.816V107.144C47.6021 108.12 48.4094 108.92 49.4086 108.92H61.8303V108.624H61.7824L58.625 108.328L57.9855 105.872C57.9855 105.872 59.2165 104.512 59.2964 104.48C59.3764 104.448 61.7824 104.336 61.7824 104.336H61.8303V104.04H49.4086Z" fill="#3C8F7C"/>
<path d="M61.0227 106.472C61.0227 105.032 61.7821 104.336 61.7821 104.336H49.6641C48.7449 104.336 48.0015 105.064 48.0015 105.968V106.992C48.0015 107.888 48.7449 108.624 49.6641 108.624H61.7821C61.7821 108.616 61.0227 108.28 61.0227 106.472Z" fill="#FAE0B2"/>
<path d="M48.0015 105.968V106.992C48.0015 107.128 48.0175 107.256 48.0494 107.384C48.4571 106.4 49.2404 105.456 50.7352 105.152C54.2203 104.44 61.7821 104.336 61.7821 104.336H49.6641C48.7449 104.336 48.0015 105.064 48.0015 105.968Z" fill="#DAEEF7"/>
<path d="M38.5615 100.28H37.7622C37.8901 100.2 38.058 100.152 38.2338 100.152H58.1934C59.2405 100.152 60.0878 100.808 60.0878 101.624V102.56C60.0878 103.376 59.2405 104.032 58.1934 104.032L38.4576 104.024L38.5615 100.28Z" fill="#F47458"/>
<path d="M49.8961 100.16C50.8953 100.16 51.7026 100.792 51.7026 101.568V102.624C51.7026 103.4 50.8953 104.032 49.8961 104.032H37.4663V103.792H37.5143L40.6717 103.56L41.3111 101.608C41.3111 101.608 40.0802 100.528 40.0002 100.504C39.9203 100.48 37.5143 100.392 37.5143 100.392H37.4663V100.16H49.8961Z" fill="#B75742"/>
<path d="M38.2735 102.088C38.2735 100.952 37.5142 100.392 37.5142 100.392H49.6402C50.5594 100.392 51.3028 100.968 51.3028 101.688V102.504C51.3028 103.216 50.5594 103.8 49.6402 103.8H37.5142C37.5142 103.792 38.2735 103.52 38.2735 102.088Z" fill="#FAE0B2"/>
<path d="M51.3028 101.688V102.504C51.3028 102.608 51.2868 102.712 51.2548 102.816C50.8472 102.04 50.0638 101.288 48.5691 101.048C45.0839 100.488 37.5142 100.4 37.5142 100.4H49.6402C50.5594 100.4 51.3028 100.976 51.3028 101.688Z" fill="#DAEEF7"/>
<path d="M111.834 102.356L109.965 102.002L101.838 144.917L103.707 145.272L111.834 102.356Z" fill="#2C4251"/>
<path d="M165.793 145.48H168.047L159.654 102L157.783 102.36L165.793 145.48Z" fill="#2C4251"/>
<path d="M124.579 145.48H126.833L118.44 102L116.569 102.36L124.579 145.48Z" fill="#2C4251"/>
<path d="M145.282 145.48L143.451 145.504L151.501 102.2L153.371 102.552L145.282 145.48Z" fill="#2C4251"/>
<path d="M137.12 43.448C144.53 44.24 154.122 45.08 163.746 61.432C174.266 79.304 168.726 106 160.421 113.416C152.116 120.832 124.994 129.992 102.189 116.28C102.189 116.28 88.4245 107.968 95.4907 94.176C106.362 72.952 104.827 68.528 109.687 60.208C114.547 51.888 121.389 41.76 137.12 43.448Z" fill="#FAE0B2"/>
<path d="M163.746 61.432C157.176 50.272 150.621 46.336 144.77 44.712C147.032 47.056 149.334 50.072 151.628 53.976C162.147 71.848 156.608 98.544 148.303 105.96C140.941 112.536 118.775 120.488 97.9443 112.632C100.087 115 102.189 116.272 102.189 116.272C124.994 129.984 152.116 120.824 160.421 113.408C168.726 106 174.266 79.304 163.746 61.432Z" fill="#F7CC7F"/>
<path d="M34.3008 56.12C34.093 57.776 35.8195 59.096 37.3463 58.992C39.0409 58.88 40.4797 57.488 40.7275 55.816C40.9993 54.008 39.9122 52.568 38.2335 52.432C36.6029 52.304 35.5558 53.76 36.0274 55.224C36.3631 56.28 37.3223 56.672 37.8099 56.376C38.1856 56.152 38.1616 55.576 37.706 55.48C37.5221 55.44 37.3383 55.544 37.2344 55.68C36.8347 55.52 36.459 54.792 36.7148 54.008C37.0425 53.008 38.3135 52.944 39.0968 53.416C40.096 54.008 40.2559 55.296 39.8882 56.32C39.5045 57.392 38.4494 58.24 37.3063 58.32C36.0114 58.416 34.8683 57.416 34.7644 56.12C34.7484 55.816 34.3408 55.824 34.3008 56.12Z" fill="#F48C7F"/>
<path d="M148.495 0.776024C140.821 0.728024 134.586 4.52002 134.554 9.23202C134.538 11.592 136.081 13.736 138.583 15.296L135.426 22.232L142.012 16.864C143.923 17.488 146.089 17.84 148.391 17.856C156.065 17.904 162.299 14.112 162.331 9.40003C162.355 4.68002 156.16 0.824024 148.495 0.776024Z" fill="#FAE0B2"/>
<path d="M143.179 10.128C143.859 12.712 146.505 14.256 149.095 13.576C151.676 12.896 153.219 10.24 152.54 7.65602C151.86 5.07202 149.214 3.52802 146.625 4.20802C144.043 4.88802 142.5 7.54402 143.179 10.128Z" fill="#F7CC7F"/>
<path d="M150.557 8.97601C150.925 10.36 150.094 11.776 148.711 12.144C147.328 12.512 145.913 11.68 145.545 10.296L150.557 8.97601Z" fill="#EFEFEF"/>
<path d="M69.3201 67.7281L90.4947 67.5681C90.9743 67.5681 91.366 67.1681 91.366 66.6881L91.2621 52.5201C91.2621 52.0401 90.8624 51.6481 90.3828 51.6481L69.2082 51.8081C68.7286 51.8081 68.3369 52.2081 68.3369 52.6881L68.4408 66.8561C68.4408 67.3441 68.8405 67.7281 69.3201 67.7281Z" fill="#F47458"/>
<path d="M90.6148 59.5281L97.4492 66.5041L89.0161 64.9281L90.6148 59.5281Z" fill="#F47458"/>
<path d="M84.4438 58.5441L82.3895 58.5041C82.3895 58.5041 79.7996 56.5681 79.7197 55.8801C79.6398 55.1921 80.0634 53.7441 79.6638 53.5601C79.2641 53.3761 78.4088 53.2321 77.8732 54.1441C77.4816 54.8001 77.8093 57.2081 77.5695 57.3681C77.4176 57.4721 76.2346 57.4801 75.3713 57.4721C74.8038 57.4721 74.2842 57.7841 74.0124 58.2881C73.8286 58.6241 73.9165 59.0481 74.2123 59.2961L74.6679 59.6801L74.3082 60.1601C74.0364 60.5201 74.1083 61.0241 74.468 61.2961L74.8277 61.5761L74.5799 61.8561C74.2602 62.2241 74.3242 62.7841 74.7238 63.0561L75.0436 63.2801L74.9956 63.3681C74.7958 63.7361 74.9077 64.2001 75.2594 64.4321L75.5791 64.6481L81.0626 64.7441C81.5742 64.7521 82.0858 64.6561 82.5574 64.4641L84.4918 64.1761C84.6996 64.1441 84.8515 63.9681 84.8515 63.7601L84.8675 58.9601C84.8595 58.7361 84.6756 58.5521 84.4438 58.5441Z" fill="white"/>
<path d="M113.324 70.616L111.421 76.336L117.225 74.048L113.324 70.616Z" fill="#F79C8D"/>
<path d="M119.311 53.592C118.927 53.608 117.864 53.96 116.313 56.888C114.331 60.624 111.438 71.896 111.438 71.896L120.078 75.104L121.189 72.752L123.02 54.632C123.012 54.632 119.415 53.592 119.311 53.592Z" fill="#042A44"/>
<path d="M130.733 51.968C128.263 51.968 122.148 52.6881 119.311 53.5921C119.311 53.5921 117.224 71.4561 121.189 85.0401C122.076 88.0801 120.454 97.6401 120.454 97.6401L146.057 97.3041C146.057 97.3041 143.027 74.1921 144.17 70.4641C145.313 66.7281 145.337 53.7201 145.337 53.7201C145.337 53.7201 145.161 53.696 139.582 52.728C136.976 52.28 133.363 51.968 130.733 51.968Z" fill="#2C4251"/>
<path d="M133.715 130.8C133.715 130.8 133.148 137.32 132.109 139.128C131.069 140.936 132.164 144 132.22 144.424C132.276 144.848 134.411 145.448 137.808 145.088C141.205 144.728 141.149 143.944 140.877 142.68C140.606 141.416 138.791 139.792 138.687 138.584C138.575 137.384 139.726 133.048 139.726 133.048L133.715 130.8Z" fill="#F7A491"/>
<path d="M123.34 92.256C123.34 92.256 105.666 91.28 101.726 93.664C97.7768 96.048 102.437 100.944 102.437 100.944C102.437 100.944 116.825 107.184 140.909 108.568C146.617 108.896 147.104 93.736 146.041 92.48C144.97 91.224 123.34 92.256 123.34 92.256Z" fill="#327F6B"/>
<path d="M138.231 145.592C141.733 145.224 141.301 143.504 141.013 142.208C140.837 141.392 139.83 140.432 139.231 139.52C138.919 139.768 138.407 140.208 136.889 140.656C135.314 141.12 133.148 140.2 131.773 139.624C131.285 141.448 131.261 143.776 131.301 144.128C131.365 144.56 134.73 145.96 138.231 145.592Z" fill="#355389"/>
<path d="M136.297 104.864C135.593 110.192 132.092 136.72 132.092 136.72L140.206 137.72C140.206 137.72 150.181 103.096 149.67 97.8C149.158 92.504 145.425 92.056 145.425 92.056C145.425 92.056 138.167 90.76 136.297 104.864Z" fill="#3C8F7C"/>
<path d="M128.527 29.424C128.527 29.424 131.221 26.584 133.387 30.04C133.387 30.04 135.058 29.104 136.225 30.776C136.225 30.776 139.239 29.864 139.974 34.384C139.974 34.384 141.525 34.088 141.733 35.936C141.94 37.784 140.997 39.016 140.997 39.016C140.997 39.016 141.868 39.672 141.477 41.368C141.141 42.808 139.95 43.032 139.95 43.032C139.95 43.032 139.63 45.464 138.575 46.2C137.52 46.936 136.089 46.584 136.089 46.584C136.089 46.584 135.706 47.904 134.475 47.784C133.244 47.664 131.725 46.496 130.342 47.024C128.967 47.552 125.394 46.992 125.394 46.992C125.394 46.992 121.381 45.2 122.58 41.096C122.58 41.096 120.47 39.192 122.317 36.904C122.317 36.904 120.966 33.328 123.635 31.216C126.297 29.104 128.527 29.424 128.527 29.424Z" fill="#2C4251"/>
<path d="M128.983 48.736L128.495 52.36C128.495 52.36 127.4 57.576 128.807 58.584C130.214 59.592 134.786 52.208 134.786 52.208L134.307 43.032L128.983 48.736Z" fill="#F7A491"/>
<path d="M134.459 46C133.3 49.128 130.534 51.056 128.567 51.8L128.983 48.728L134.307 43.024L134.459 46Z" fill="#F47458"/>
<path d="M131.053 33.384C128.2 32.4 125.162 34.296 124.722 37.24C124.531 38.52 124.363 40.128 124.331 41.888C124.251 46.12 126.441 50.232 128.359 50.232C130.278 50.232 135.586 47.496 135.777 41.488C135.897 37.784 134.051 34.416 131.053 33.384Z" fill="#F7A491"/>
<path d="M134.363 41.968C134.363 42.904 134.978 43.656 135.746 43.656C136.505 43.656 137.129 42.896 137.129 41.968C137.129 41.032 136.513 40.28 135.746 40.28C134.986 40.28 134.363 41.032 134.363 41.968Z" fill="#F7A491"/>
<path d="M122.74 31.28C120.758 32.848 120.062 35.24 121.189 36.616C122.316 37.992 124.834 37.832 126.817 36.256C128.799 34.688 129.494 32.296 128.367 30.92C127.24 29.552 124.722 29.712 122.74 31.28Z" fill="#2C4251"/>
<path d="M145.609 55.704C143.219 54.808 142.044 76.32 141.725 85.176C137.488 85.584 130.094 85.176 128.256 85.04C127.392 84.976 125.394 84.248 124.539 84.136C123.66 84.024 122.86 83.96 122.421 84.04C122.261 84.064 117.84 85.872 117.465 86.264C116.993 86.752 115.73 87.992 115.946 88.528C116.162 89.064 118.384 87.04 118.384 87.04L119.471 86.432C118.12 87.752 115.538 89.488 115.914 90.12C116.274 90.736 118.6 88.976 120.262 87.776C118.839 89.056 117.073 91.352 117.481 91.712C117.848 92.032 119.855 89.376 122.005 88.616C122.804 88.336 123.596 89.12 124.219 89.216C124.683 89.288 125.386 89.432 125.842 89.304L128.168 88.648C128.959 88.72 128.983 89.184 129.782 89.36C130.71 89.56 132.236 89.768 133.419 90.056C140.23 91.72 142.508 92.488 144.594 92.488C150.901 92.448 151.269 57.816 145.609 55.704Z" fill="#F7A491"/>
<path d="M150.15 75.8961C150.597 66.8241 150.533 55.6481 145.433 53.7441C143.419 52.9921 139.878 57.5201 140.518 76.0801C143.243 76.3041 147.232 76.4881 150.15 75.8961Z" fill="#2C4251"/>
<path d="M121.637 72H122.156L129.966 91.144L129.43 91.064L121.637 72Z" fill="#F79C8D"/>
<path d="M109.991 136.376C109.991 136.376 110.702 138.64 109.431 140.136C108.16 141.632 102.901 143.104 102.205 143.912C101.518 144.72 101.566 145.416 101.566 145.416L116.346 145.008L116.186 140.552L115.506 137.352L109.991 136.376Z" fill="#F7A491"/>
<path d="M108.512 140.888C108.512 140.888 112.309 142.424 114.147 141.512C115.978 140.608 115.93 140.352 116.457 140.688C116.985 141.024 117.177 145.2 117.177 145.2L100.559 145.688C99.3995 145.664 98.816 144.808 99.7592 144.088C100.407 143.592 101.15 143.256 101.574 143.016C102.869 142.264 108.512 140.888 108.512 140.888Z" fill="#355389"/>
<path d="M110.558 96.432C109.415 94.032 106.817 90.912 102.245 92.792C97.8883 94.584 96.7133 98.992 98.0881 103.504C99.463 108.016 108.52 134.544 108.831 138.192L116.065 138.24C116.065 138.24 114.754 117.232 114.427 112.152C114.123 107.28 112.532 100.584 110.558 96.432Z" fill="#3C8F7C"/>
<path d="M98.8156 72H122.988C123.627 72 124.203 72.384 124.443 72.976L131.884 91.144H145.209C145.585 91.144 145.881 91.448 145.881 91.816C145.881 92.192 145.577 92.488 145.209 92.488H107.289C106.25 92.488 105.298 91.872 104.875 90.92L97.3848 74.216C96.9132 73.176 97.6726 72 98.8156 72Z" fill="#F47458"/>
<path d="M111.829 82.576C111.989 83.3921 112.7 83.9361 113.42 83.7921C114.131 83.6481 114.579 82.872 114.419 82.056C114.259 81.24 113.548 80.696 112.828 80.84C112.109 80.984 111.669 81.76 111.829 82.576Z" fill="white"/>
<path opacity="0.3" d="M179.781 46.304C186.372 46.304 191.716 40.9458 191.716 34.336C191.716 27.7263 186.372 22.368 179.781 22.368C173.19 22.368 167.847 27.7263 167.847 34.336C167.847 40.9458 173.19 46.304 179.781 46.304Z" fill="#9BC1F9"/>
<path d="M171.34 34.0961H166.944V34.4321H171.34V34.0961Z" fill="#2C4251"/>
<path d="M192.642 34.0961H188.246V34.4321H192.642V34.0961Z" fill="#2C4251"/>
<path d="M179.933 21.552H179.598V25.968H179.933V21.552Z" fill="#2C4251"/>
<path d="M179.933 42.8241H179.598V47.2401H179.933V42.8241Z" fill="#2C4251"/>
<path d="M180.149 34.336C180.149 34.536 179.989 34.704 179.781 34.704C179.581 34.704 179.414 34.544 179.414 34.336C179.414 34.136 179.573 33.968 179.781 33.968C179.981 33.968 180.149 34.136 180.149 34.336Z" fill="#2C4251"/>
<path d="M179.781 34.496C179.741 34.496 179.701 34.48 179.669 34.448L173.123 27.888C173.059 27.824 173.059 27.72 173.123 27.656C173.187 27.592 173.291 27.592 173.354 27.656L179.901 34.216C179.965 34.28 179.965 34.384 179.901 34.448C179.861 34.48 179.821 34.496 179.781 34.496Z" fill="#2C4251"/>
<path d="M181.883 40.968C181.859 40.952 181.836 40.928 181.828 40.896L179.709 34.488C179.685 34.424 179.725 34.36 179.781 34.336C179.845 34.312 179.909 34.352 179.933 34.408L182.051 40.816C182.075 40.88 182.035 40.944 181.979 40.968C181.947 40.984 181.915 40.984 181.883 40.968Z" fill="#2C4251"/>
<path d="M198.805 61.328L199.868 59.6L199.013 59.256C198.829 59.184 198.733 58.968 198.813 58.776C198.885 58.592 199.101 58.496 199.293 58.576L200.276 58.976L201.227 57.424L200.316 57.056C200.132 56.984 200.036 56.768 200.116 56.576C200.188 56.392 200.404 56.296 200.596 56.376L201.643 56.8L202.746 55.016C202.842 54.864 203.026 54.8 203.194 54.872L203.354 54.936C203.561 55.024 203.649 55.272 203.529 55.464L202.498 57.144L204.017 57.76L205.12 55.976C205.216 55.824 205.4 55.76 205.568 55.832L205.744 55.904C205.951 55.992 206.039 56.24 205.919 56.432L204.888 58.112L205.744 58.456C205.927 58.528 206.023 58.744 205.943 58.936C205.872 59.12 205.656 59.216 205.464 59.136L204.481 58.736L203.545 60.296L204.457 60.664C204.641 60.736 204.736 60.952 204.657 61.144C204.585 61.328 204.369 61.424 204.177 61.344L203.13 60.92L202.003 62.76C201.907 62.912 201.723 62.976 201.555 62.904L201.371 62.832C201.163 62.744 201.075 62.496 201.195 62.304L202.258 60.576L200.74 59.96L199.613 61.8C199.517 61.952 199.333 62.016 199.165 61.944L198.981 61.872C198.765 61.776 198.685 61.528 198.805 61.328ZM202.658 59.944L203.609 58.392L202.091 57.776L201.139 59.328L202.658 59.944Z" fill="#2C4251"/>
<path d="M105.355 14.232L106.442 11.768L105.035 9.472C104.875 9.208 105.083 8.88 105.387 8.912L108.064 9.192L109.807 7.14401C110.007 6.91201 110.382 7.00801 110.446 7.30401L111.014 9.93601L113.5 10.96C113.78 11.08 113.812 11.464 113.548 11.624L111.222 12.976L111.014 15.656C110.99 15.96 110.63 16.104 110.398 15.904L108.4 14.104L105.786 14.736C105.482 14.808 105.227 14.512 105.355 14.232Z" fill="#F48C7F"/>
<path d="M184.25 14.2241L185.065 12.3761L184.01 10.6561C183.89 10.4641 184.05 10.2081 184.274 10.2321L186.28 10.4401L187.591 8.90405C187.743 8.72805 188.022 8.80005 188.07 9.02405L188.494 11.0001L190.357 11.7681C190.572 11.8561 190.588 12.1521 190.388 12.2641L188.646 13.2801L188.494 15.2961C188.478 15.5281 188.206 15.6321 188.03 15.4801L186.528 14.1361L184.569 14.6081C184.345 14.6641 184.154 14.4401 184.25 14.2241Z" fill="#F7CC7F"/>
<path d="M176.144 66.9521L176.016 65.4241L174.681 64.6641C174.529 64.5761 174.545 64.3521 174.705 64.2881L176.12 63.6961L176.432 62.1921C176.464 62.0241 176.679 61.9681 176.799 62.0961L177.799 63.2561L179.325 63.0881C179.501 63.0721 179.621 63.2561 179.525 63.4081L178.734 64.7201L179.365 66.1201C179.437 66.2801 179.293 66.4481 179.125 66.4161L177.631 66.0641L176.496 67.0961C176.36 67.2081 176.152 67.1281 176.144 66.9521Z" fill="#F48C7F"/>
<path d="M53.9488 44.4801L54.5483 43.1281L53.773 41.8641C53.685 41.7201 53.7969 41.5361 53.9648 41.5521L55.4356 41.7041L56.3948 40.5761C56.5067 40.4481 56.7145 40.5041 56.7465 40.6641L57.0582 42.1121L58.4251 42.6801C58.577 42.7441 58.593 42.9601 58.4491 43.0401L57.1702 43.7841L57.0582 45.2561C57.0423 45.4241 56.8424 45.5041 56.7225 45.3921L55.6194 44.4001L54.1806 44.7441C54.0128 44.8001 53.8769 44.6321 53.9488 44.4801Z" fill="#F7CC7F"/>
<path d="M100.318 42.032L100.918 40.68L100.143 39.416C100.055 39.272 100.167 39.088 100.334 39.104L101.805 39.256L102.764 38.128C102.876 38 103.084 38.056 103.116 38.216L103.428 39.664L104.795 40.232C104.947 40.296 104.963 40.512 104.819 40.592L103.54 41.336L103.428 42.808C103.412 42.976 103.212 43.056 103.092 42.944L101.989 41.952L100.55 42.296C100.382 42.352 100.247 42.184 100.318 42.032Z" fill="#50BFA5"/>
<path d="M77.2256 20.112L79.5997 19.76L80.5749 23.528L84.116 23.448L85.299 26.144L86.6659 25.544L85.0752 21.936L81.7259 22.008L80.7108 18.096L77.1377 18.616L77.2256 20.112Z" fill="#50BFA5"/>
<path d="M72.1418 83.12L73.9324 81.528L76.81 84.136L79.7276 82.136L82.1976 83.736L83.0049 82.488L79.7036 80.344L76.9379 82.24L73.9484 79.528L71.2466 81.92L72.1418 83.12Z" fill="#2C4251"/>
<path d="M43.9248 85.088L45.4355 82.64L44.2285 82.152C43.9647 82.048 43.8368 81.744 43.9408 81.48C44.0447 81.216 44.3484 81.088 44.6122 81.192L46.0111 81.76L47.3619 79.56L46.067 79.032C45.8032 78.928 45.6753 78.624 45.7792 78.36C45.8832 78.096 46.1869 77.968 46.4507 78.072L47.9295 78.672L49.4962 76.152C49.6321 75.936 49.8959 75.848 50.1277 75.944L50.3515 76.032C50.6472 76.152 50.7671 76.512 50.5993 76.784L49.1445 79.16L51.2867 80.032L52.8534 77.512C52.9893 77.296 53.2531 77.208 53.4849 77.304L53.7327 77.408C54.0284 77.528 54.1483 77.888 53.9805 78.16L52.5257 80.536L53.7327 81.024C53.9965 81.128 54.1244 81.432 54.0205 81.696C53.9165 81.96 53.6128 82.088 53.349 81.984L51.9502 81.416L50.6233 83.624L51.9182 84.152C52.182 84.256 52.3099 84.56 52.2059 84.824C52.102 85.088 51.7983 85.216 51.5345 85.112L50.0557 84.512L48.457 87.112C48.3211 87.328 48.0574 87.416 47.8256 87.32L47.5618 87.216C47.266 87.096 47.1461 86.736 47.314 86.464L48.8247 84.016L46.6825 83.144L45.0838 85.744C44.9479 85.96 44.6841 86.048 44.4523 85.952L44.1886 85.848C43.8688 85.72 43.7569 85.36 43.9248 85.088ZM49.3843 83.128L50.7352 80.928L48.5929 80.056L47.242 82.256L49.3843 83.128Z" fill="#50BFA5"/>
<path d="M180.876 116.096C180.724 114.744 180.541 113.352 179.909 112.144C179.142 110.672 177.799 109.616 176.632 108.44C174.442 106.256 172.755 103.568 171.74 100.64C170.957 98.376 170.565 95.968 169.486 93.824C168.83 92.52 167.927 91.352 167.184 90.096C165.417 87.128 164.45 83.616 162.052 81.136C161.588 84.152 162.499 87.344 164.482 89.656C165.073 90.344 165.761 90.968 166.208 91.752C167.024 93.184 166.952 94.928 167.048 96.576C167.224 99.672 168.103 102.728 169.582 105.448C171.156 108.336 173.426 110.912 174.266 114.096C174.897 116.48 174.705 119.16 176.056 121.224C176.2 121.448 176.368 121.672 176.408 121.936C176.432 122.088 176.408 122.232 176.384 122.384C176.352 122.576 176.32 122.768 176.296 122.96C175.992 124.912 175.673 127.4 177.351 128.856C178.51 129.872 180.013 129.888 180.844 128.544C181.684 127.192 181.612 125.208 181.548 123.68C181.436 121.16 181.164 118.616 180.876 116.096Z" fill="#3C8F7C"/>
<path d="M183.898 114.52C183.242 112.256 182.235 110.104 181.724 107.808C181.228 105.576 181.228 103.272 181.228 100.992C181.228 98.488 181.228 95.992 181.22 93.488C181.22 91.928 181.22 90.368 180.956 88.832C180.405 85.528 178.686 82.472 178.398 79.136C178.27 77.696 178.422 76.232 178.262 74.792C178.174 73.968 177.959 73.128 177.583 72.4C177.175 71.616 176.04 71.648 175.673 72.456C174.841 74.264 174.314 76.216 174.649 78.152C174.849 79.312 175.353 80.4 175.728 81.512C177.399 86.488 176.512 92 177.807 97.088C178.198 98.624 178.79 100.128 178.854 101.712C179.022 105.504 176.192 108.968 176.448 112.752C176.664 115.856 178.886 118.424 179.829 121.392C180.357 123.056 180.469 124.824 181.028 126.472C181.468 127.752 182.475 129.304 184.05 128.92C185.544 128.552 185.097 127.328 185.025 126.16C184.793 122.208 185.009 118.376 183.898 114.52Z" fill="#327F6B"/>
<path d="M187.319 116.592C187.255 115.416 187.055 114.24 187.223 113.072C187.359 112.088 187.751 111.16 188.03 110.208C188.558 108.424 188.686 106.544 188.814 104.688C189.046 101.312 189.277 97.936 189.509 94.56C189.869 89.312 190.229 84.048 191.212 78.88C191.484 77.448 191.787 75.8881 191.148 74.5761C191.012 74.2961 190.748 74.0081 190.452 74.0961C190.245 74.1601 190.141 74.392 190.069 74.6C187.927 80.432 187.111 86.704 184.721 92.44C184.146 93.816 183.482 95.1681 183.186 96.6241C182.827 98.3761 183.027 100.184 183.075 101.968C183.139 104.528 182.891 107.112 182.187 109.576C181.82 110.864 181.324 112.128 181.116 113.448C180.86 115.104 181.076 116.784 181.236 118.448C181.54 121.648 181.644 124.872 181.548 128.08C181.492 129.968 183.083 129.92 184.138 128.76C184.873 127.952 184.873 127.056 185.121 126.048C185.92 122.736 187.519 120.192 187.319 116.592Z" fill="#3C8F7C"/>
<path d="M177.359 121.72C175.952 119.456 173.147 118.168 172.243 115.656C172.012 115.016 171.924 114.328 171.644 113.712C171.02 112.336 169.606 111.56 168.215 110.928C168.023 110.84 167.799 110.984 167.799 111.192C167.791 111.528 167.951 111.856 168.231 112.04C169.302 112.76 170.117 113.864 170.477 115.104C170.909 116.576 170.717 118.192 171.252 119.632C171.7 120.84 172.619 121.824 173.059 123.04C173.458 124.152 173.41 125.36 173.602 126.52C173.786 127.68 174.306 128.92 175.369 129.408C179.238 131.184 178.27 123.184 177.359 121.72Z" fill="#327F6B"/>
<path d="M193.418 120.968C193.354 122.064 193.522 123.216 193.098 124.224C192.827 124.872 192.331 125.392 191.923 125.968C190.501 127.976 189.989 130.832 187.807 131.96C187.663 132.032 187.503 132.104 187.343 132.072C187.119 132.032 186.975 131.816 186.88 131.608C186.344 130.36 186.943 128.952 187.303 127.64C187.367 127.408 187.415 127.152 187.311 126.944C187.191 126.712 186.919 126.608 186.728 126.432C186.352 126.072 186.392 125.472 186.464 124.952C186.648 123.664 186.911 122.384 187.239 121.128C187.431 120.416 187.647 119.696 188.055 119.08C188.51 118.408 189.166 117.904 189.781 117.368C192.499 115.024 194.585 111.952 195.744 108.552C196 107.816 196.224 107.04 196.743 106.464C197.263 105.888 198.19 105.592 198.83 106.04C199.285 106.36 197.431 109.336 197.215 109.696C196.6 110.72 196.592 111.608 196.24 112.736C195.393 115.504 193.578 117.992 193.418 120.968Z" fill="#3C8F7C"/>
<path d="M191.26 122.232C191.668 121.184 192.067 120.128 192.203 119.016C192.355 117.776 192.155 116.512 192.363 115.288C192.635 113.712 193.554 112.32 194.01 110.784C194.338 109.672 194.417 108.512 194.617 107.368C195.185 104.112 196.712 100.928 196.272 97.648C196.176 96.936 195.856 96.104 195.145 95.984C194.505 95.872 193.922 96.456 193.754 97.088C193.586 97.72 193.714 98.384 193.754 99.032C193.882 100.84 193.362 102.696 192.315 104.176C191.308 105.6 189.853 106.672 188.942 108.16C187.831 109.992 187.679 112.224 187.111 114.288C185.984 118.392 183.163 121.976 182.643 126.2C182.435 127.88 182.835 129.928 184.386 130.6C188.894 132.544 190.245 124.864 191.26 122.232Z" fill="#327F6B"/>
<path d="M183.426 127.448H182.707H173.131C172.427 127.448 171.908 128.104 172.068 128.792L175.817 144.624C175.936 145.12 176.368 145.464 176.88 145.464H182.699H183.418H189.238C189.741 145.464 190.181 145.12 190.301 144.624L194.05 128.792C194.209 128.104 193.69 127.448 192.986 127.448H183.426Z" fill="#F47458"/>
<path d="M80.1675 108.912H30.1367V111.496H80.1675V108.912Z" fill="#2C4251"/>
<path d="M63.7569 123.912H31.0479V126.176H63.7569V123.912Z" fill="#2C4251"/>
<path d="M75.2592 110.208H73.1489V145.48H75.2592V110.208Z" fill="#2C4251"/>
<path d="M45.412 110.208H43.3018V145.48H45.412V110.208Z" fill="#2C4251"/>
<path d="M58.1375 145.472L69.5041 110.512L67.6417 109.904L56.0752 145.472H58.1375Z" fill="#2C4251"/>
<path d="M26.1638 145.472L35.8838 110.432L33.9974 109.912L24.1255 145.472H26.1638Z" fill="#2C4251"/>
<path d="M179.781 20.36C172.084 20.36 165.841 26.616 165.841 34.336C165.841 42.056 172.084 48.312 179.781 48.312C187.479 48.312 193.722 42.056 193.722 34.336C193.722 26.616 187.479 20.36 179.781 20.36ZM180.533 46.28C173.954 46.696 168.287 41.68 167.871 35.088C167.455 28.488 172.459 22.808 179.038 22.392C185.617 21.976 191.284 26.992 191.7 33.584C192.107 40.184 187.103 45.864 180.533 46.28Z" fill="#2C4251"/>
</svg>
