<svg width="64" height="64" viewBox="0 0 64 64" fill="none" xmlns="http://www.w3.org/2000/svg">
<path d="M54.4741 35.6515C56.4761 23.3155 48.0593 11.6858 35.6746 9.67585C23.2899 7.66589 11.6271 16.0368 9.62503 28.3728C7.62298 40.7087 16.0398 52.3384 28.4245 54.3483C40.8093 56.3583 52.472 47.9874 54.4741 35.6515Z" fill="#FFD05D"/>
<path d="M43.9453 12.686C46.2119 16.218 47.5186 20.3873 47.5186 24.8752C47.5186 37.3831 37.332 47.501 24.7986 47.501C20.452 47.501 16.3719 46.2794 12.9053 44.1549C16.9319 50.4221 24.0253 54.5914 32.0519 54.5914C44.6119 54.5914 54.772 44.447 54.772 31.9657C54.7986 23.813 50.4519 16.6429 43.9453 12.686Z" fill="#FDC453"/>
<path d="M12.4259 34.3823C12.4259 22.7773 21.8659 13.3765 33.5192 13.3765C40.3192 13.3765 46.3992 16.5898 50.2392 21.5823C46.5859 15.2885 39.7592 11.0396 31.9459 11.0396C20.2925 11.0396 10.8525 20.4404 10.8525 32.0454C10.8525 36.8786 12.4792 41.3134 15.2259 44.8454C13.4392 41.7649 12.4259 38.2064 12.4259 34.3823Z" fill="#FFD77F"/>
<path d="M22.3984 36.6128C22.9584 41.446 27.0651 45.1904 32.0518 45.1904C37.0384 45.1904 41.1718 41.446 41.7051 36.6128H22.3984Z" fill="#695342"/>
<path d="M25.3857 42.5612C27.1191 44.2077 29.4657 45.2168 32.0524 45.2168C34.5324 45.2168 36.7724 44.2874 38.5058 42.7737L38.4258 42.5612C31.9191 39.4276 25.4657 42.5347 25.3857 42.5612Z" fill="#F06669"/>
<path d="M28.9326 25.4061V25.3796C28.9326 23.2817 27.4125 21.3696 25.1192 21.3696C23.3059 21.3696 22.2659 22.6709 21.8925 23.8924C21.5459 22.6709 20.4792 21.3696 18.6659 21.3696C16.3726 21.3696 14.8525 23.2817 14.8525 25.3796V25.4061C14.8525 25.8576 14.8526 30.4783 21.8659 34.2493C28.9326 30.5049 28.9326 25.8576 28.9326 25.4061Z" fill="#E62728"/>
<path d="M49.2519 25.4061V25.3796C49.2519 23.2817 47.7319 21.3696 45.4385 21.3696C43.6252 21.3696 42.5852 22.6709 42.2119 23.8924C41.8652 22.6709 40.7985 21.3696 38.9852 21.3696C36.6919 21.3696 35.1719 23.2817 35.1719 25.3796V25.4061C35.1719 25.8576 35.1719 30.4783 42.1852 34.2493C49.2519 30.5049 49.2519 25.8576 49.2519 25.4061Z" fill="#E62728"/>
</svg>
