<svg width="64" height="64" viewBox="0 0 64 64" fill="none" xmlns="http://www.w3.org/2000/svg">
<path d="M48 48C56.8366 39.1634 56.8366 24.8366 48 16C39.1634 7.16344 24.8366 7.16345 16 16C7.16344 24.8366 7.16345 39.1634 16 48C24.8366 56.8366 39.1634 56.8366 48 48Z" fill="#FFD05D"/>
<path d="M43.8367 12.6621C46.0941 16.1944 47.3955 20.364 47.3955 24.8523C47.3955 37.3613 37.2502 47.48 24.7678 47.48C20.4388 47.48 16.3754 46.2583 12.9229 44.1336C16.9331 50.4014 23.9976 54.571 31.9917 54.571C44.5006 54.571 54.6193 44.4258 54.6193 31.9434C54.6459 23.79 50.3169 16.6458 43.8367 12.6621Z" fill="#FDC453"/>
<path d="M12.4449 34.3867C12.4449 22.7807 21.8465 13.3791 33.4524 13.3791C40.2248 13.3791 46.2801 16.5927 50.1045 21.5856C46.466 15.2913 39.6671 11.042 31.8855 11.042C20.2796 11.042 10.8779 20.4436 10.8779 32.0496C10.8779 36.8832 12.498 41.3184 15.2335 44.8506C13.4541 41.7699 12.4449 38.1845 12.4449 34.3867Z" fill="#FFD77F"/>
<path d="M22.7234 35.4231C22.1391 34.8654 21.2096 35.4762 21.5017 36.2464C23.1749 40.416 27.2649 43.3906 32.0454 43.3906C36.7462 43.3906 40.783 40.5488 42.4828 36.4589C42.8015 35.7152 41.8454 35.0778 41.2876 35.6356C37.9678 38.8226 30.9299 43.3906 22.7234 35.4231Z" fill="#5E4939"/>
<path d="M25.3258 27.9333C25.3258 29.4737 24.5822 30.7485 23.6527 30.7485C22.7231 30.7485 21.9795 29.5003 21.9795 27.9333C21.9795 26.393 22.7231 25.1182 23.6527 25.1182C24.5822 25.1182 25.3258 26.393 25.3258 27.9333Z" fill="#303030"/>
<path d="M42.0045 27.9333C42.0045 29.4737 41.2609 30.7485 40.3314 30.7485C39.4018 30.7485 38.6582 29.5003 38.6582 27.9333C38.6582 26.393 39.4018 25.1182 40.3314 25.1182C41.2609 25.1182 42.0045 26.393 42.0045 27.9333Z" fill="#303030"/>
</svg>
