<svg width="64" height="64" viewBox="0 0 64 64" fill="none" xmlns="http://www.w3.org/2000/svg">
<path d="M54.3998 35.6244C56.4016 23.2898 48.0252 11.6677 35.6906 9.66591C23.3559 7.66408 11.7339 16.0405 9.73206 28.3751C7.73023 40.7098 16.1066 52.3318 28.4413 54.3336C40.7759 56.3355 52.3979 47.9591 54.3998 35.6244Z" fill="#F16D24"/>
<path d="M43.8907 12.6626C46.148 16.1945 47.4492 20.3638 47.4492 24.8518C47.4492 37.3597 37.3048 47.4775 24.8235 47.4775C20.4949 47.4775 16.4318 46.256 12.9795 44.1315C16.9895 50.3987 24.0533 54.568 32.0467 54.568C44.5546 54.568 54.6725 44.4236 54.6725 31.9423C54.699 23.8161 50.3704 16.646 43.8907 12.6626Z" fill="#EF6421"/>
<path d="M12.5014 34.3852C12.5014 22.7802 21.9022 13.3794 33.5072 13.3794C40.279 13.3794 46.3338 16.5927 50.1578 21.5852C46.5196 15.2914 39.7213 11.0425 31.9404 11.0425C20.3354 11.0425 10.9346 20.4433 10.9346 32.0483C10.9346 36.8815 12.5545 41.3163 15.2898 44.8483C13.5105 41.7678 12.5014 38.1827 12.5014 34.3852Z" fill="#F2824E"/>
<path d="M23.7082 30.5879C24.6322 30.5879 25.3812 29.3276 25.3812 27.7729C25.3812 26.2183 24.6322 24.958 23.7082 24.958C22.7842 24.958 22.0352 26.2183 22.0352 27.7729C22.0352 29.3276 22.7842 30.5879 23.7082 30.5879Z" fill="#303030"/>
<path d="M42.058 27.7729C42.058 29.3132 41.3144 30.5879 40.385 30.5879C39.4555 30.5879 38.7119 29.3397 38.7119 27.7729C38.7119 26.2061 39.4555 24.958 40.385 24.958C41.3144 24.958 42.058 26.2327 42.058 27.7729Z" fill="#303030"/>
<path d="M41.3407 42.0601C41.925 42.6177 42.8544 42.007 42.5623 41.2368C40.8893 37.0675 36.7996 34.0933 32.0196 34.0933C27.3191 34.0933 23.2826 36.9348 21.583 41.0244C21.2644 41.768 22.2204 42.4053 22.7781 41.8476C26.0976 38.6343 33.1084 34.0667 41.3407 42.0601Z" fill="#5E4939"/>
<path d="M23.3481 18.7949L21.8271 20.3159L26.8971 25.3859L28.4181 23.8649L23.3481 18.7949Z" fill="#303030"/>
<path d="M42.2857 20.3169L40.7646 18.7959L35.6947 23.8659L37.2157 25.3869L42.2857 20.3169Z" fill="#303030"/>
</svg>
