<svg width="30" height="40" viewBox="0 0 30 40" fill="none" xmlns="http://www.w3.org/2000/svg">
<path d="M8.43332 19.1292C7.33999 19.6892 6.48666 20.7559 6.19333 21.9559C5.60666 24.2759 6.96666 26.7826 6.37999 29.1026C6.29999 29.4492 6.16666 29.8492 6.29999 30.1692C6.51333 30.6759 7.25999 30.7826 7.73999 30.5159C8.21999 30.2226 8.48666 29.6892 8.72666 29.1826C9.52666 27.3959 10.1667 25.5559 10.7 23.6626C10.9667 22.7026 11.2333 21.7692 11.4733 20.8092C11.58 20.3559 11.74 19.8759 11.82 19.3959C11.9267 18.8626 11.8467 18.7826 11.2867 18.6759C10.3 18.5159 9.28666 18.6759 8.43332 19.1292Z" fill="#E07F00"/>
<path d="M20.0066 15.0493C21.2866 15.3693 22.4066 16.2493 23.0466 17.4227C24.2466 19.6893 23.4733 22.596 24.6466 24.8627C24.8333 25.2093 25.0466 25.556 24.9933 25.956C24.9133 26.5427 24.1666 26.836 23.6066 26.6493C23.0466 26.4627 22.6199 26.0093 22.2733 25.5293C20.9933 23.9027 19.8733 22.1427 18.8599 20.3293C18.3266 19.4227 17.8466 18.4893 17.3399 17.5827C17.0999 17.1293 16.8333 16.676 16.6199 16.2227C16.3799 15.6893 16.4333 15.5827 16.9933 15.3427C17.8999 14.916 18.9933 14.8093 20.0066 15.0493Z" fill="#F6A900"/>
<path d="M19.5798 14.116C21.8465 19.236 22.1665 25.2893 19.9265 30.436C19.0998 32.3293 17.9265 34.116 16.2198 35.2626C14.9665 36.116 13.1265 36.676 11.6065 36.4093C11.5532 36.4093 11.5265 36.3826 11.4732 36.3826C10.6732 36.2226 9.97985 35.8493 9.52652 35.156C9.25985 34.7826 9.07318 34.3293 8.99318 33.7426C8.85985 32.8893 8.93984 32.036 9.04651 31.1826C9.49984 26.7026 9.49985 22.116 8.45985 17.7693C8.16652 16.516 7.79318 15.2893 7.31318 14.0893C6.19318 11.2893 4.53984 8.72929 2.48651 6.54262C1.79318 5.79595 1.04652 5.10262 0.566515 4.19595C0.246515 3.60929 0.059845 2.91595 0.113178 2.27595C0.139845 1.92929 0.246513 1.60929 0.406513 1.28929C0.43318 1.23595 0.459846 1.18262 0.51318 1.12929C0.67318 0.915953 0.859848 0.729287 1.07318 0.569287C1.60651 0.195954 2.27318 0.00928715 2.93985 0.0359538C3.92651 0.0359538 4.85985 0.409288 5.76651 0.809288C11.2865 3.28929 16.1665 7.42262 18.9932 12.8093C19.2065 13.2626 19.3932 13.6893 19.5798 14.116Z" fill="#F6A900"/>
<path d="M11.4999 36.3827C11.5799 36.196 11.6599 35.9827 11.7133 35.796C11.2333 35.396 10.6199 34.9693 10.1399 34.5693C9.95326 34.7827 9.73993 34.996 9.52659 35.156C9.04659 35.5293 8.45992 35.8227 7.84658 35.9293L7.76659 35.956C7.33992 36.6493 7.31325 37.6093 7.79325 38.2493C8.27326 38.8893 9.15325 39.236 9.95325 39.0227C9.95325 39.0227 9.95325 39.0227 9.97992 39.0227C10.5933 38.2493 11.1266 37.3427 11.4999 36.3827Z" fill="#FFE950"/>
<path d="M9.95325 39.0491C9.73991 38.4891 9.76658 37.8491 9.44658 37.3425C9.09992 36.7558 8.43325 36.3025 7.84658 35.9558L7.76658 35.9825C7.33992 36.6758 7.31325 37.6358 7.79325 38.2758C8.27325 38.9425 9.17991 39.2625 9.95325 39.0491Z" fill="#74370D"/>
<path d="M15.8199 19.7693C15.9266 21.0493 15.9533 22.3026 15.9266 23.556C15.8733 24.8093 15.7666 26.0626 15.5533 27.2893C15.3399 28.516 15.0466 29.7426 14.6999 30.9426C14.3266 32.1426 13.8999 33.316 13.3933 34.4893C14.1133 33.4493 14.6999 32.276 15.1533 31.1026C15.6333 29.9026 15.9533 28.6493 16.1666 27.396C16.3799 26.116 16.4599 24.836 16.4066 23.556C16.3799 22.2493 16.1933 20.996 15.8199 19.7693Z" fill="#74370D"/>
<path d="M19.58 14.116C16.22 14.3026 15.42 17.796 15.42 17.796H15.3933C16.3 21.3693 16.4333 25.1826 15.6866 28.7826C15.1 31.6626 13.8733 34.5426 11.6333 36.4093C13.1533 36.6493 14.9933 36.116 16.2466 35.2626C17.9266 34.0893 19.1266 32.3026 19.9533 30.436C22.1666 25.2893 21.8466 19.236 19.58 14.116Z" fill="#FFE950"/>
<path d="M0.113283 2.54263C0.113283 3.1293 0.273287 3.71597 0.56662 4.22263C1.04662 5.10263 1.79328 5.82263 2.48662 6.5693C4.53995 8.75597 6.19329 11.3426 7.31329 14.116C7.47329 14.5426 7.63329 14.9426 7.76662 15.3693C8.00662 16.116 8.24662 16.8626 8.43329 17.6093C8.43329 17.6626 8.45996 17.716 8.45996 17.796L8.51329 17.7693L12.1133 16.836L15.42 17.796C15.42 17.796 16.22 14.3026 19.58 14.116C19.3933 13.6893 19.18 13.2893 18.9666 12.8626C18.6466 12.2226 18.2733 11.6093 17.8733 11.0226C15.5266 7.3693 12.1666 4.38263 8.37995 2.22263C7.52662 1.74263 6.64662 1.2893 5.73995 0.889299C4.83329 0.4893 3.89995 0.115967 2.91328 0.115967C2.24662 0.115967 1.57995 0.275968 1.04662 0.649301C0.833284 0.809301 0.646616 0.995967 0.486616 1.2093C0.459949 1.26263 0.433285 1.31597 0.379951 1.3693C0.193285 1.66263 0.113283 2.0093 0.0866165 2.35597C0.113283 2.38263 0.113283 2.46263 0.113283 2.54263Z" fill="#FFF2B4"/>
<path d="M2.13999 31.8226C2.51332 32.3826 3.47332 32.3559 3.97999 31.7959C5.31332 30.2759 6.24665 28.4893 6.88665 26.5693C7.49999 24.6759 7.44666 22.4359 8.45999 20.6759C9.73999 18.4093 12.94 17.1026 15.4467 17.7959C13.6867 15.9026 10.3 15.1826 7.49999 16.0626C4.69999 16.9426 2.40665 19.4226 2.08665 22.0093C1.73999 24.7293 3.31332 27.3159 2.48665 29.9826C2.32665 30.4893 2.08665 30.9959 2.08665 31.5026C2.05999 31.6093 2.08666 31.7159 2.13999 31.8226Z" fill="#F4DF89"/>
<path d="M29.7933 24.3293C30.2733 25.5293 29.1 26.836 27.8733 26.4093C27.3933 26.2493 26.9666 25.9293 26.62 25.556C25.18 24.0893 24.6733 21.956 23.98 20.0093C23.2866 18.0627 22.1133 16.036 20.14 15.476C18.3 14.9693 16.1933 16.0627 15.42 17.8227C15.42 14.8893 17.58 12.036 20.46 11.4493C23.34 10.8627 26.54 12.516 27.6866 15.236C28.8333 17.8227 28.7266 21.6093 29.7933 24.3293Z" fill="#F4DF89"/>
</svg>
