<svg width="16" height="16" viewBox="0 0 16 16" fill="none" xmlns="http://www.w3.org/2000/svg">
<circle cx="8" cy="8" r="8" fill="#343741" fill-opacity="0.15"/>
<path d="M7.64645 8L5.57322 5.92678C5.47559 5.82915 5.47559 5.67085 5.57322 5.57322C5.67085 5.47559 5.82915 5.47559 5.92678 5.57322L8 7.64645L10.0732 5.57322C10.1709 5.47559 10.3291 5.47559 10.4268 5.57322C10.5244 5.67085 10.5244 5.82915 10.4268 5.92678L8.35355 8L10.4268 10.0732C10.5244 10.1709 10.5244 10.3291 10.4268 10.4268C10.3291 10.5244 10.1709 10.5244 10.0732 10.4268L8 8.35355L5.92678 10.4268C5.82915 10.5244 5.67085 10.5244 5.57322 10.4268C5.47559 10.3291 5.47559 10.1709 5.57322 10.0732L7.64645 8Z" fill="#343741" stroke="#343741"/>
</svg>
