<svg width="17" height="17" viewBox="0 0 17 17" fill="none" xmlns="http://www.w3.org/2000/svg">
<path fill-rule="evenodd" clip-rule="evenodd" d="M8.99866 16.9988C4.58038 16.9988 0.998657 13.4171 0.998657 8.99878C0.998657 4.5805 4.58038 0.998779 8.99866 0.998779C13.4169 0.998779 16.9987 4.5805 16.9987 8.99878C16.9987 13.4171 13.4169 16.9988 8.99866 16.9988ZM8.99996 16.0001C12.866 16.0001 16 12.8661 16 9.00008C16 5.13409 12.866 2.00008 8.99996 2.00008C5.13396 2.00008 1.99996 5.13409 1.99996 9.00008C1.99996 12.8661 5.13396 16.0001 8.99996 16.0001ZM4.49996 6.00008H13.5C13.7761 6.00008 14 6.22394 14 6.50008C14 6.77622 13.7761 7.00008 13.5 7.00008H4.49996C4.22381 7.00008 3.99996 6.77622 3.99996 6.50008C3.99996 6.22394 4.22381 6.00008 4.49996 6.00008ZM6.49996 9.00008H11.5C11.7761 9.00008 12 9.22394 12 9.50008C12 9.77622 11.7761 10.0001 11.5 10.0001H6.49996C6.22381 10.0001 5.99996 9.77622 5.99996 9.50008C5.99996 9.22394 6.22381 9.00008 6.49996 9.00008ZM8.49996 12.0001H9.49996C9.7761 12.0001 9.99996 12.2239 9.99996 12.5001C9.99996 12.7762 9.7761 13.0001 9.49996 13.0001H8.49996C8.22381 13.0001 7.99996 12.7762 7.99996 12.5001C7.99996 12.2239 8.22381 12.0001 8.49996 12.0001Z" fill="#343741"/>
</svg>

