<svg width="64" height="64" viewBox="0 0 64 64" fill="none" xmlns="http://www.w3.org/2000/svg">
<path d="M48 48C56.8365 39.1635 56.8366 24.8366 48 16C39.1634 7.16345 24.8365 7.16346 16 16C7.16343 24.8366 7.16345 39.1634 16 48C24.8366 56.8366 39.1634 56.8366 48 48Z" fill="#DADADA"/>
<path d="M43.8474 12.6729C46.1048 16.2051 47.4062 20.3747 47.4062 24.8631C47.4062 37.372 37.2609 47.4907 24.7786 47.4907C20.4496 47.4907 16.3862 46.269 12.9336 44.1444C16.9439 50.4121 24.0084 54.5818 32.0024 54.5818C44.5113 54.5818 54.6301 44.4365 54.6301 31.9541C54.6301 23.8273 50.301 16.6566 43.8474 12.6729Z" fill="#BCBCBC"/>
<path d="M12.4302 34.3974C12.4302 22.7915 21.8318 13.3899 33.4378 13.3899C40.2102 13.3899 46.2654 16.6034 50.0898 21.5964C46.4513 15.3021 39.6524 11.0527 31.8709 11.0527C20.2649 11.0527 10.8633 20.4544 10.8633 32.0603C10.8633 36.8939 12.4833 41.3291 15.2188 44.8614C13.4394 41.7806 12.4302 38.1953 12.4302 34.3974Z" fill="#F4F4F4"/>
<path d="M26.9434 28.6942C27.4016 25.8709 25.4843 23.2107 22.661 22.7525C19.8377 22.2943 17.1775 24.2116 16.7193 27.0349C16.2611 29.8582 18.1784 32.5184 21.0017 32.9766C23.825 33.4348 26.4852 31.5175 26.9434 28.6942Z" fill="white"/>
<path d="M25.4698 24.1728C24.5403 23.2433 23.2389 22.6855 21.8313 22.6855C20.8752 22.6855 19.9723 22.9511 19.2021 23.4026C19.0427 23.6151 18.9365 23.8276 18.9099 24.0666C18.8037 25.1555 20.2113 26.1647 22.0172 26.324C23.8498 26.4834 25.4167 25.7663 25.4964 24.6774C25.5495 24.5181 25.5229 24.3322 25.4698 24.1728Z" fill="#303030"/>
<path d="M45.8053 31.536C47.8277 29.5135 47.8277 26.2345 45.8053 24.2121C43.7828 22.1896 40.5038 22.1896 38.4813 24.2121C36.4589 26.2345 36.4589 29.5135 38.4813 31.536C40.5038 33.5584 43.7828 33.5584 45.8053 31.536Z" fill="white"/>
<path d="M45.7872 24.1728C44.8577 23.2433 43.5563 22.6855 42.1487 22.6855C41.1926 22.6855 40.2896 22.9511 39.5195 23.4026C39.3601 23.6151 39.2539 23.8276 39.2273 24.0666C39.1211 25.1555 40.5287 26.1647 42.3346 26.324C44.1671 26.4834 45.7341 25.7663 45.8137 24.6774C45.8934 24.5181 45.8669 24.3322 45.7872 24.1728Z" fill="#303030"/>
<path d="M40.422 37.1864C39.3331 36.1241 37.8724 35.3273 36.1461 34.9024C34.5791 34.5305 32.8794 34.504 31.2594 34.8227C29.6659 35.1414 28.1255 35.7788 26.771 36.6818C25.3369 37.6644 24.248 38.833 23.4778 40.1343C23.3716 40.3468 23.3981 40.5858 23.5575 40.7717C23.6637 40.878 23.7965 40.9311 23.9559 40.9311C24.0355 40.9311 24.1152 40.9045 24.1949 40.878L24.6995 40.639C25.868 40.0547 26.9569 39.5235 28.0724 39.072C29.3472 38.5674 30.622 38.1956 31.8702 37.93C33.1716 37.691 34.4995 37.5582 35.8008 37.5848C37.0225 37.6113 38.2973 37.7441 39.9705 38.0628C40.2095 38.1159 40.4219 37.9831 40.5282 37.7972C40.6344 37.6113 40.5813 37.3457 40.422 37.1864Z" fill="#393939"/>
</svg>
