<svg width="64" height="64" viewBox="0 0 64 64" fill="none" xmlns="http://www.w3.org/2000/svg">
<path d="M48 48C56.8366 39.1634 56.8366 24.8366 48 16C39.1634 7.16344 24.8366 7.16344 16 16C7.16344 24.8366 7.16344 39.1634 16 48C24.8366 56.8366 39.1634 56.8366 48 48Z" fill="#DADADA"/>
<path d="M43.8464 12.6836C46.1039 16.2158 47.4052 20.3855 47.4052 24.8738C47.4052 37.3828 37.26 47.5015 24.7776 47.5015C20.4486 47.5015 16.3852 46.2798 12.9326 44.1551C16.9429 50.4229 24.0074 54.5925 32.0014 54.5925C44.5104 54.5925 54.6291 44.4473 54.6291 31.9649C54.6556 23.8115 50.3266 16.6673 43.8464 12.6836Z" fill="#BCBCBC"/>
<path d="M12.4537 34.3818C12.4537 22.7759 21.8553 13.3742 33.4612 13.3742C40.2336 13.3742 46.2889 16.5878 50.1133 21.5807C46.4748 15.2864 39.6759 11.0371 31.8943 11.0371C20.2883 11.0371 10.8867 20.4387 10.8867 32.0447C10.8867 36.8783 12.5068 41.3135 15.2423 44.8458C13.4629 41.765 12.4537 38.2062 12.4537 34.3818Z" fill="#F4F4F4"/>
<path d="M25.3346 26.4934C25.3346 28.0338 24.591 29.3086 23.6615 29.3086C22.7319 29.3086 21.9883 28.0603 21.9883 26.4934C21.9883 24.953 22.7319 23.6782 23.6615 23.6782C24.591 23.6782 25.3346 24.953 25.3346 26.4934Z" fill="#303030"/>
<path d="M42.0133 26.4934C42.0133 28.0338 41.2697 29.3086 40.3402 29.3086C39.4106 29.3086 38.667 28.0603 38.667 26.4934C38.667 24.953 39.4106 23.6782 40.3402 23.6782C41.2697 23.6782 42.0133 24.953 42.0133 26.4934Z" fill="#303030"/>
<path d="M16.8096 34.1426C17.6594 41.7914 24.1396 47.7138 32.0275 47.7138C39.8887 47.7138 46.3689 41.7648 47.2453 34.1426H16.8096Z" fill="#525252"/>
<path d="M21.5107 43.544C24.2462 46.1467 27.9378 47.7137 32.0278 47.7137C35.9319 47.7137 39.4641 46.253 42.1731 43.8627L42.0403 43.544C31.8153 38.5511 21.6435 43.4644 21.5107 43.544Z" fill="#838383"/>
</svg>
