<svg width="216" height="180" viewBox="0 0 216 180" fill="none" xmlns="http://www.w3.org/2000/svg">
<path d="M208.095 129.013C207.155 131.252 206.111 133.514 204.429 135.196C202.341 137.272 199.511 138.258 197.156 139.998C194.523 141.947 192.586 144.812 189.999 146.842C185.196 150.635 178.851 151.134 172.877 151.494C156.243 152.503 139.319 153.489 123.102 149.406C104.739 144.789 87.3744 133.746 68.5246 134.79C58.6298 135.335 48.4335 139.209 39.0724 135.764C34.444 134.059 30.4305 130.521 27.9017 126.067C25.2221 121.346 25.3265 115.464 22.3685 110.917C20.4082 107.89 17.1834 106.254 15.1534 103.296C11.9518 98.6445 11.3254 91.8122 11.6618 86.2326C12.5782 70.9324 5.82706 60.0748 15.2346 48.4633C21.0577 41.2714 43.5268 32.1655 49.3499 24.9735C51.3103 22.5607 53.2939 20.1132 55.7879 18.35C62.6086 13.5012 71.5289 14.6264 79.7185 15.0556C85.762 15.3688 91.8636 15.1948 97.7911 13.9188C112.836 10.6824 126.489 -2.30946 158.946 0.358517C159.305 0.393317 159.653 0.416516 159.99 0.451315C170.697 1.54171 177.077 5.43928 181.508 9.89364C185.162 13.5708 187.482 17.6192 189.813 20.786C191.252 22.7579 192.702 24.3819 194.453 25.3679C197.075 26.8411 200.056 27.1427 202.77 28.3607C202.863 28.3955 202.944 28.4419 203.037 28.4883C203.2 28.5695 203.35 28.6507 203.501 28.7319C203.594 28.7783 203.675 28.8247 203.756 28.8827C203.838 28.9291 203.919 28.9755 203.988 29.0219C204.07 29.0683 204.139 29.1147 204.209 29.1727C204.278 29.2191 204.36 29.2771 204.429 29.3235C204.499 29.3815 204.58 29.4279 204.649 29.4859C204.719 29.5323 204.789 29.5903 204.847 29.6367C204.858 29.6367 204.858 29.6483 204.87 29.6599C204.928 29.7063 204.997 29.7643 205.055 29.8107C205.067 29.8107 205.067 29.8223 205.067 29.8223C205.137 29.8803 205.206 29.9383 205.264 29.9963C205.322 30.0543 205.392 30.1123 205.45 30.1703C205.462 30.1819 205.462 30.1819 205.473 30.1935C205.543 30.2515 205.601 30.3095 205.659 30.3675C205.728 30.4255 205.786 30.4951 205.856 30.5531C205.914 30.6111 205.983 30.6807 206.041 30.7503C206.099 30.8199 206.157 30.8895 206.227 30.9475C206.355 31.0867 206.471 31.2259 206.575 31.3651C206.807 31.6435 207.016 31.9451 207.225 32.2467C207.433 32.5483 207.619 32.8731 207.805 33.1979C207.851 33.2791 207.897 33.3603 207.944 33.4415C208.071 33.6851 208.199 33.9403 208.327 34.1955C208.361 34.2882 208.408 34.3695 208.443 34.4507C208.477 34.5434 208.524 34.6246 208.559 34.7174C209.835 37.7218 210.345 41.3062 210.345 44.8326C210.345 46.2826 210.252 47.7209 210.101 49.1013C209.208 57.0009 207.155 65.5152 210.681 72.5216C211.656 74.4703 213.036 76.1755 213.895 78.1707C214.939 80.5603 215.205 83.2515 215.356 85.8847C216.215 100.628 213.697 115.534 208.095 129.013Z" fill="url(#paint0_linear)"/>
<path opacity="0.2" d="M213.431 111.718C214.44 106.927 215.089 102.043 215.368 97.1366C205.925 95.675 196.263 94.9674 187.25 92.1371C186.936 91.1047 188.131 90.2231 189.222 89.7475C193.374 87.9379 198.293 87.5435 202.747 88.6339C204.325 89.0167 205.833 89.5851 207.41 89.9795C210.043 90.6291 212.781 90.7567 215.507 90.5827C215.495 89.0283 215.449 87.4739 215.356 85.9195C215.24 83.8779 215.055 81.8015 214.486 79.8644C210.148 79.934 205.786 79.9804 201.517 79.3308C195.138 78.3448 188.862 75.8044 182.459 76.6744C178.538 77.208 175.012 79.006 171.219 79.992C163.505 82.0103 155.245 80.6648 147.207 80.8272C144.191 80.8852 141.047 81.1983 138.472 82.5787C135.897 83.9591 134.041 86.6619 134.748 89.2371C135.468 91.8471 138.414 93.4595 141.198 94.5962C146.279 96.6726 151.696 98.111 157.241 98.8766C164.56 99.8858 172.019 99.7234 179.385 100.431C181.148 100.605 182.992 100.849 184.396 101.788C185.544 102.565 186.264 103.702 187.168 104.7C190.393 108.226 195.776 109.572 200.856 110.407C205.032 111.08 209.22 111.555 213.431 111.718Z" fill="white"/>
<path opacity="0.5" d="M115.04 25.333C115.829 22.3518 118.88 20.1246 122.522 20.1246C123.195 20.1246 123.845 20.1942 124.459 20.345C126.257 16.9811 130.166 14.6495 134.702 14.6495C135.874 14.6495 136.999 14.8003 138.066 15.0903C140.502 11.5639 144.945 9.19751 150.002 9.19751C156.034 9.19751 161.161 12.5383 163.11 17.213C164.491 16.5403 166.068 16.1575 167.762 16.1575C173.04 16.1575 177.332 19.9042 177.332 24.5094C177.332 24.7878 177.32 25.0546 177.285 25.3214H115.04V25.333Z" fill="#EDFDFC"/>
<path opacity="0.5" d="M83.558 30.5414C83.3376 29.7178 82.5024 29.103 81.4932 29.103C81.3076 29.103 81.1336 29.1262 80.9596 29.161C80.4608 28.233 79.382 27.595 78.1292 27.595C77.8044 27.595 77.4912 27.6414 77.2012 27.7226C76.5285 26.7482 75.3105 26.0986 73.9069 26.0986C72.2481 26.0986 70.8329 27.015 70.2877 28.3142C69.9049 28.1286 69.4757 28.0242 69.0001 28.0242C67.5385 28.0242 66.3669 29.0566 66.3669 30.3326C66.3669 30.4138 66.3669 30.4834 66.3785 30.553H83.558V30.5414Z" fill="white"/>
<path opacity="0.5" d="M209.916 39.3807C208.083 38.012 205.705 37.1768 203.095 37.1768C199.29 37.1768 195.95 38.9515 194.117 41.6079C193.316 41.3875 192.47 41.2715 191.588 41.2715C188.178 41.2715 185.243 43.0231 183.886 45.5519C183.422 45.4475 182.934 45.3895 182.424 45.3895C179.675 45.3895 177.378 47.0599 176.798 49.2987H210.113C210.125 49.2407 210.125 49.1827 210.136 49.1247C210.484 45.9927 210.484 42.5591 209.916 39.3807Z" fill="#EDFDFC"/>
<path opacity="0.5" d="M16.4525 47.1642H53.433C52.853 44.9603 50.591 43.3131 47.8883 43.3131C47.3895 43.3131 46.9139 43.3711 46.4499 43.4755C45.1159 40.9815 42.2159 39.2531 38.8635 39.2531C37.9935 39.2531 37.1583 39.3691 36.3696 39.5779C35.488 38.2903 34.2352 37.2231 32.762 36.4575C26.3704 40.1463 19.9209 43.8235 16.4525 47.1642Z" fill="#EDFDFC"/>
<path opacity="0.2" d="M208.582 34.7406C207.816 35.2974 206.958 35.7614 206.041 36.1094C203.397 37.0838 200.439 37.0954 197.562 37.0838C185.127 37.049 172.692 37.0258 160.257 36.991C156.881 36.9794 153.413 36.9562 150.304 35.7962C147.474 34.7406 145.154 32.8034 142.3 31.771C139.238 30.6575 135.827 30.6807 132.51 30.7039C127.673 30.7503 122.824 30.7967 117.987 30.8431C114.866 30.8779 111.572 30.8663 108.881 29.4859C104.287 27.1427 103.394 20.7743 107.199 17.5264C109.391 15.6588 112.511 14.9396 115.469 14.29C126.385 11.912 137.312 9.53402 148.228 7.15604C151.244 6.49484 154.549 5.65965 156.22 3.37447C156.777 2.60887 157.125 1.70408 157.925 1.13568C158.505 0.718087 159.236 0.54409 159.99 0.462891C170.697 1.55328 177.077 5.45085 181.508 9.90522C174.617 9.59202 167.773 9.61522 161.08 10.984C159.12 11.3784 157.078 11.9468 155.733 13.2576C154.387 14.5684 154.074 16.8304 155.582 18.002C156.278 18.5472 157.217 18.7676 158.122 18.9531C168.458 21.0875 179.141 20.8091 189.813 20.7859C191.252 22.7579 192.702 24.3819 194.453 25.3679C196.854 27.1775 200.056 27.1427 202.77 28.3607C202.863 28.3955 202.944 28.4419 203.037 28.4883C203.2 28.5695 203.35 28.6507 203.501 28.7319C203.594 28.7783 203.675 28.8247 203.756 28.8827C203.838 28.9291 203.919 28.9755 203.988 29.0219C204.07 29.0683 204.139 29.1147 204.209 29.1727C204.278 29.2191 204.36 29.2771 204.429 29.3235C204.499 29.3815 204.58 29.4279 204.649 29.4859C204.719 29.5323 204.789 29.5903 204.847 29.6367C204.858 29.6367 204.858 29.6483 204.87 29.6599C204.928 29.7063 204.997 29.7643 205.055 29.8107C205.067 29.8107 205.067 29.8223 205.067 29.8223C205.137 29.8803 205.206 29.9383 205.264 29.9963C205.322 30.0543 205.392 30.1123 205.45 30.1703C205.462 30.1819 205.462 30.1819 205.473 30.1935C205.543 30.2515 205.601 30.3095 205.659 30.3675C205.728 30.4255 205.786 30.4951 205.856 30.5531C205.914 30.6111 205.983 30.6807 206.041 30.7503C206.099 30.8199 206.158 30.8895 206.227 30.9475C206.343 31.0867 206.459 31.2259 206.575 31.3651C206.807 31.6434 207.016 31.945 207.225 32.2466C207.434 32.5482 207.619 32.873 207.805 33.1978C207.851 33.279 207.897 33.3602 207.944 33.4414C208.071 33.685 208.199 33.9402 208.327 34.1954C208.361 34.2882 208.408 34.3694 208.443 34.4506C208.501 34.5666 208.547 34.6478 208.582 34.7406Z" fill="white"/>
<path d="M21.9509 53.9617C25.6281 53.1497 24.9437 59.1236 24.7001 60.7244C25.9181 61.3972 26.9853 62.1164 27.9017 62.8356C27.4609 60.9216 25.9645 59.8196 26.0457 58.532C26.1269 57.0821 27.1245 55.6437 28.7369 57.6853C30.0129 59.3092 28.8065 62.0468 28.2613 63.1256C29.8273 64.4132 30.964 65.7008 31.7296 66.71C31.5324 64.4248 29.9433 62.94 30.1753 61.49C30.4421 59.9008 31.6948 58.4393 33.2144 60.9448C34.4788 63.0212 32.646 66.0604 31.9732 67.0464C32.646 67.986 32.9708 68.624 33.0056 68.6936C33.6552 69.9812 34.2236 71.2572 34.7108 72.5215C34.5832 70.5032 33.4696 68.9488 33.8524 67.6612C34.3048 66.1068 35.72 64.854 36.9032 67.6032C37.8428 69.7724 35.894 72.3823 35.0356 73.3799C35.9868 76.0363 36.6016 78.5883 36.9728 80.9663C37.46 79.1335 36.9728 76.1987 37.9472 74.6675C38.5852 73.6699 39.3508 73.6351 39.8844 73.7975C40.3368 73.9367 40.6964 74.2963 40.8704 74.7835C41.8564 77.5559 38.1908 80.5603 37.0424 81.4187C37.46 84.3535 37.518 86.9982 37.4136 89.2254C37.6688 88.2742 38.0632 86.8474 38.2256 86.0934C38.4924 84.9102 39.4088 83.4371 40.3948 83.0543C40.4412 83.0427 40.476 83.0195 40.5108 83.0079C41.2764 82.7759 42.0304 83.2399 42.3088 84.0402C43.4224 87.1606 38.4344 89.5734 37.3556 90.049C37.3556 90.0606 37.3556 90.0838 37.3556 90.0954C36.9612 95.6749 35.5924 99.2245 35.5344 99.3753L35.0588 99.1665C35.0704 99.1317 36.3812 95.7562 36.7988 90.5362C32.414 88.3554 32.1356 84.8986 33.1216 84.0054C34.1424 83.0774 36.0564 83.2747 36.1608 85.7338C36.2188 87.1606 36.5784 88.6222 36.8684 89.5966C36.996 87.3694 36.9612 84.6551 36.532 81.6391C30.0477 81.1403 30.9408 76.6279 32.4836 76.0363C34.0496 75.4447 34.8384 76.4191 35.2676 78.4027C35.5576 79.7251 36.126 80.7227 36.474 81.2447C36.1144 78.9131 35.5344 76.3959 34.6064 73.7975C33.574 74.4819 30.8364 76.0363 29.2241 74.4355C27.2057 72.4287 28.6209 71.176 30.0477 71.0716C31.3584 70.9672 32.472 72.9507 34.4672 73.4263C33.9336 71.9879 33.3072 70.5148 32.5532 69.03C32.5416 69.0068 31.892 67.7192 30.4305 66.0488C29.4677 66.8724 26.9157 68.7748 25.1293 67.4292C22.8789 65.7472 24.1665 64.3088 25.5701 63.9956C26.8345 63.7172 28.1221 65.3992 30.0825 65.666C28.8065 64.274 26.9853 62.6848 24.5261 61.316C23.5169 62.1628 21.0345 63.9608 19.2829 62.65C17.0326 60.968 18.3201 59.5296 19.7237 59.2164C20.9997 58.938 22.3105 60.6664 24.3173 60.8984L24.3405 60.8404C23.7953 60.2952 22.6469 59.1352 22.0669 58.6249C21.2897 57.9289 20.6285 56.5137 20.8605 55.4233C21.0809 54.2865 21.9509 53.9617 21.9509 53.9617Z" fill="url(#paint1_linear)"/>
<path d="M16.0698 82.7761L8.75023 79.9689C7.86864 74.401 7.45105 69.6914 7.45105 69.6914C16.4758 70.7934 23.2153 74.1226 28.2497 78.4957L28.6325 87.4973L31.5093 81.7089C43.1788 94.7936 43.1556 113.539 43.1556 113.539C43.1556 113.539 18.5058 101.51 13.9818 97.0208C12.2418 95.2808 10.8614 90.8148 9.84063 85.9777C12.497 84.8177 16.0698 82.7761 16.0698 82.7761Z" fill="#B7D972"/>
<path d="M7.45105 69.6914C7.45105 69.6914 35.3488 95.478 43.1556 113.551C43.1556 113.551 18.5058 101.522 13.9818 97.0324C12.2418 95.2924 10.8614 90.8264 9.84063 85.9893C12.4854 84.8293 16.0698 82.7877 16.0698 82.7877L8.75023 79.9805C7.86864 74.401 7.45105 69.6914 7.45105 69.6914Z" fill="url(#paint2_linear)"/>
<path d="M2.56744 77.695C4.81782 75.8738 6.3954 80.2237 6.7782 81.4185C7.84539 81.4649 8.83139 81.5925 9.71298 81.7781C8.75019 80.6065 7.3466 80.3629 6.9522 79.4465C6.5114 78.4258 6.7086 77.0802 8.51819 77.9386C9.95657 78.623 10.061 80.9197 10.0494 81.8477C11.5806 82.1957 12.7986 82.6945 13.6685 83.1353C12.7406 81.6273 11.1398 81.1517 10.815 80.0613C10.4438 78.8781 10.815 77.4398 12.729 78.6462C14.3065 79.6437 14.0861 82.3697 13.9585 83.2745C14.7473 83.6921 15.1881 84.0285 15.2345 84.0633C16.1277 84.7245 16.9513 85.4205 17.7169 86.1165C16.9281 84.7709 15.6405 84.0865 15.4549 83.0657C15.2345 81.8361 15.7797 80.4905 17.5429 81.9753C18.9349 83.1585 18.4825 85.6177 18.2273 86.6037C19.7933 88.1001 21.0925 89.6545 22.1597 91.1741C21.8697 89.7473 20.5241 87.8797 20.6633 86.4993C20.7561 85.5945 21.2781 85.3045 21.6957 85.2349C22.0553 85.1653 22.4265 85.2929 22.7165 85.5713C24.3405 87.1489 22.8441 90.4781 22.3569 91.4641C23.6561 93.3432 24.6073 95.1528 25.2917 96.7188C25.1409 95.9764 24.9205 94.8628 24.7813 94.2828C24.5609 93.378 24.6885 92.0441 25.2337 91.4409C25.2569 91.4177 25.2801 91.3944 25.3033 91.3712C25.7557 90.9537 26.4284 91.0117 26.8924 91.4641C28.7252 93.2388 26.1153 96.6028 25.5353 97.3104C25.5353 97.322 25.5469 97.3336 25.5469 97.3452C27.194 101.336 27.4608 104.247 27.4724 104.375L27.078 104.398C27.078 104.375 26.8228 101.591 25.3265 97.844C21.5565 97.844 20.1761 95.5588 20.5473 94.596C20.9301 93.5984 22.3221 93.088 23.2269 94.7468C23.7605 95.7096 24.5029 96.5912 25.0365 97.1712C24.3637 95.5936 23.4009 93.726 22.0785 91.8005C17.4385 93.6796 16.4989 90.2577 17.3689 89.3297C18.2505 88.3901 19.1205 88.7845 20.1065 90.0025C20.7561 90.8145 21.4869 91.3016 21.9045 91.5452C20.8605 90.0605 19.5961 88.5293 18.0533 87.0445C17.5777 87.8681 16.2205 89.8865 14.5617 89.3297C12.4854 88.6337 13.0306 87.2881 13.9701 86.7197C14.8401 86.1977 16.2901 87.1837 17.8329 86.8241C16.9745 86.0121 16.0349 85.2117 15.0025 84.4461C14.9909 84.4345 14.0977 83.7733 12.5086 83.1121C12.1258 84.0169 11.0238 86.1977 9.33018 85.8845C7.2074 85.4901 7.59019 84.0633 8.46019 83.3673C9.23738 82.7409 10.699 83.4601 12.1374 82.9729C10.7802 82.4509 8.98219 81.9753 6.81301 81.8825C6.40701 82.8105 5.31661 84.8985 3.65782 84.5969C1.53504 84.2025 1.91784 82.7757 2.78783 82.0797C3.57662 81.4417 5.07302 82.1957 6.5346 81.6621V81.6157C5.97781 81.4301 4.78302 81.0241 4.20303 80.8617C3.43743 80.6529 2.48624 79.8989 2.27744 79.0637C2.08025 78.217 2.56744 77.695 2.56744 77.695Z" fill="url(#paint3_linear)"/>
<path d="M0.479492 92.2067C5.88505 91.1163 10.8846 91.2903 15.4202 92.2879C16.1162 94.3295 16.9978 96.7423 16.9978 96.7423L18.5057 93.0999C35.3836 98.3663 45.1159 114.479 45.1159 114.479C33.3072 117.054 24.4913 115.755 17.9721 112.773C18.0417 111.335 18.181 109.201 18.181 109.201L15.919 111.741C12.8798 110.071 10.3974 108.041 8.39062 105.918C9.57382 104.607 10.873 103.087 10.873 103.087L6.55783 103.818C1.88307 97.9835 0.479492 92.2067 0.479492 92.2067Z" fill="#B7D972"/>
<path d="M17.9721 112.773C18.0417 111.335 18.181 109.201 18.181 109.201L15.919 111.741C12.8798 110.071 10.3974 108.041 8.39062 105.918C9.57382 104.607 10.873 103.087 10.873 103.087L6.55783 103.818C1.89467 97.9835 0.479492 92.2068 0.479492 92.2068C20.6401 96.9859 45.1159 114.479 45.1159 114.479C33.3072 117.054 24.4913 115.755 17.9721 112.773Z" fill="url(#paint4_linear)"/>
<path d="M194.743 83.4142L199.569 80.9086C199.731 77.011 199.65 73.7283 199.65 73.7283C193.525 75.1899 190.741 76.4311 187.621 79.8414L187.076 85.0382L184.999 82.0338C177.993 91.9633 178.526 106.73 178.526 106.73C178.526 106.73 194.558 96.5105 197.318 93.0653C198.386 91.7313 198.977 88.5414 199.302 85.131C197.365 84.5394 194.743 83.4142 194.743 83.4142Z" fill="#B7D972"/>
<path d="M199.638 73.7283C199.638 73.7283 182.459 93.6801 178.503 106.73C178.503 106.73 194.534 96.5105 197.295 93.0653C198.362 91.7313 198.954 88.5414 199.279 85.131C197.365 84.5394 194.743 83.4142 194.743 83.4142L199.569 80.9086C199.731 77.011 199.638 73.7283 199.638 73.7283Z" fill="url(#paint5_linear)"/>
<path d="M206.215 88.6923C202.399 88.3675 198.977 88.8779 195.938 89.9219C195.613 91.3835 195.196 93.1119 195.196 93.1119L193.873 90.7223C182.668 95.6754 177.239 107.531 177.239 107.531C185.579 108.377 191.542 106.788 195.799 104.225C195.636 103.239 195.381 101.777 195.381 101.777L197.144 103.343C199.105 101.951 200.647 100.362 201.865 98.7378C200.949 97.9258 199.928 96.9862 199.928 96.9862L202.956 97.1486C205.705 92.7755 206.215 88.6923 206.215 88.6923Z" fill="#B7D972"/>
<path d="M195.787 104.225C195.625 103.239 195.37 101.777 195.37 101.777L197.133 103.343C199.093 101.951 200.636 100.362 201.854 98.7378C200.938 97.9258 199.917 96.9862 199.917 96.9862L202.944 97.1486C205.705 92.7638 206.215 88.6807 206.215 88.6807C192.713 93.5526 177.239 107.519 177.239 107.519C185.568 108.377 191.53 106.788 195.787 104.225Z" fill="url(#paint6_linear)"/>
<path d="M182.517 50.5399L111.317 34.7756V146.367L182.517 161.4V50.5399Z" fill="url(#paint7_linear)"/>
<path d="M184.384 161.365L182.517 161.4V49.7974L184.384 49.7742V161.365Z" fill="url(#paint8_linear)"/>
<path d="M111.317 34.7754L112.129 34.1606L184.384 49.7741L182.517 50.5397L111.317 34.7754Z" fill="#B7D972"/>
<path d="M40.1047 50.5399L111.317 34.7756V146.367L40.1047 161.4V50.5399Z" fill="url(#paint9_linear)"/>
<path d="M43.0974 51.5956L106.387 35.8777C106.387 35.8777 109.716 37.2697 111.316 37.0841L81.2379 62.2211C81.2379 62.2211 60.3929 64.9239 59.8709 64.0191C59.3373 63.1259 43.0974 51.5956 43.0974 51.5956Z" fill="#EDFDFC"/>
<path d="M43.0974 160.866L51.1593 164.486V55.2028L43.0974 51.5952V160.866Z" fill="#EDFDFC"/>
<path d="M111.317 146.367L51.1594 164.486V55.2028L111.317 37.0837V146.367Z" fill="#E6EDCE"/>
<path opacity="0.5" d="M105.285 54.9474L57.1914 69.4241V61.5593L105.285 47.071V54.9474Z" fill="#DBE5B1"/>
<path opacity="0.5" d="M105.285 58.3813L75.0321 67.4872V66.072L105.285 56.9661V58.3813Z" fill="#DBE5B1"/>
<path opacity="0.5" d="M105.285 61.9074L75.0321 71.0133V69.6097L105.285 60.4922V61.9074Z" fill="#DBE5B1"/>
<path opacity="0.5" d="M105.285 65.4339L75.0321 74.5514V73.1362L105.285 64.0303V65.4339Z" fill="#DBE5B1"/>
<path opacity="0.5" d="M105.285 68.9718L75.0321 78.0778V76.6742L105.285 67.5566V68.9718Z" fill="#DBE5B1"/>
<path opacity="0.5" d="M105.285 72.4983L75.0321 81.6158V80.2007L105.285 71.0947V72.4983Z" fill="#DBE5B1"/>
<path opacity="0.5" d="M105.285 76.0363L75.0321 85.1422V83.727L105.285 74.6211V76.0363Z" fill="#DBE5B1"/>
<path opacity="0.5" d="M105.285 79.5625L75.0321 88.68V87.2649L105.285 78.1589V79.5625Z" fill="#DBE5B1"/>
<path opacity="0.5" d="M105.285 83.1005L75.0321 92.2064V90.7912L105.285 81.6853V83.1005Z" fill="#DBE5B1"/>
<path opacity="0.5" d="M105.285 86.6269L75.0321 95.7444V94.3292L105.285 85.2117V86.6269Z" fill="#DBE5B1"/>
<path opacity="0.5" d="M105.285 90.165L75.0321 99.2709V97.8557L105.285 88.7498V90.165Z" fill="#DBE5B1"/>
<path opacity="0.5" d="M105.285 93.6911L57.1914 108.179V106.764L105.285 92.2759V93.6911Z" fill="#DBE5B1"/>
<path opacity="0.5" d="M81.238 104.467L57.1914 111.706V110.291L81.238 103.052V104.467Z" fill="#DBE5B1"/>
<path opacity="0.5" d="M81.238 107.994L57.1914 115.244V113.829L81.238 106.59V107.994Z" fill="#DBE5B1"/>
<path opacity="0.5" d="M81.238 111.532L57.1914 118.77V117.355L81.238 110.117V111.532Z" fill="#DBE5B1"/>
<path opacity="0.5" d="M81.238 115.058L57.1914 122.308V120.893L81.238 113.643V115.058Z" fill="#DBE5B1"/>
<path opacity="0.5" d="M81.238 118.596L57.1914 125.834V124.419L81.238 117.181V118.596Z" fill="#DBE5B1"/>
<path opacity="0.5" d="M81.238 122.123L57.1914 129.361V127.957L81.238 120.708V122.123Z" fill="#DBE5B1"/>
<path opacity="0.5" d="M81.238 125.661L57.1914 132.899V131.484L81.238 124.245V125.661Z" fill="#DBE5B1"/>
<path opacity="0.5" d="M81.238 129.187L57.1914 136.425V135.022L81.238 127.772V129.187Z" fill="#DBE5B1"/>
<path opacity="0.5" d="M81.238 132.725L57.1914 139.963V138.548L81.238 131.31V132.725Z" fill="#DBE5B1"/>
<path opacity="0.5" d="M105.285 129.013L57.1914 143.49V142.086L105.285 127.598V129.013Z" fill="#DBE5B1"/>
<path opacity="0.5" d="M105.285 132.539L57.1914 147.028V145.613L105.285 131.124V132.539Z" fill="#DBE5B1"/>
<path opacity="0.5" d="M105.285 136.078L57.1914 150.554V149.139L105.285 134.662V136.078Z" fill="#DBE5B1"/>
<path opacity="0.5" d="M57.1914 104.641L73.0369 99.8737V66.6748L57.1914 71.4424V104.641Z" fill="#DBE5B1"/>
<path opacity="0.5" d="M82.9316 132.203L105.285 125.475V95.814L82.9316 102.542V132.203Z" fill="#DBE5B1"/>
<path d="M179.536 51.5956L116.246 35.8777C116.246 35.8777 112.917 37.2697 111.317 37.0841L141.395 62.2211C141.395 62.2211 162.24 64.9239 162.762 64.0191C163.296 63.1259 179.536 51.5956 179.536 51.5956Z" fill="#F3FCFF"/>
<path d="M179.536 160.866L171.474 164.486V55.2028L179.536 51.5952V160.866Z" fill="#EAE7D0"/>
<path d="M111.317 146.367L171.474 164.486V55.2028L111.317 37.0837V146.367Z" fill="#DAEEF7"/>
<path d="M111.351 146.367L171.509 164.486V55.2028L111.351 37.0837V146.367Z" fill="#F6F9EA"/>
<path opacity="0.5" d="M117.383 54.9474L165.477 69.4241V61.5593L117.383 47.071V54.9474Z" fill="#DBE5B1"/>
<path opacity="0.5" d="M117.383 58.3813L147.636 67.4872V66.072L117.383 56.9661V58.3813Z" fill="#DBE5B1"/>
<path opacity="0.5" d="M117.383 61.9074L147.636 71.0133V69.6097L117.383 60.4922V61.9074Z" fill="#DBE5B1"/>
<path opacity="0.5" d="M117.383 65.4339L147.636 74.5514V73.1362L117.383 64.0303V65.4339Z" fill="#DBE5B1"/>
<path opacity="0.5" d="M117.383 68.9718L147.636 78.0778V76.6742L117.383 67.5566V68.9718Z" fill="#DBE5B1"/>
<path opacity="0.5" d="M117.383 72.4983L147.636 81.6158V80.2007L117.383 71.0947V72.4983Z" fill="#DBE5B1"/>
<path opacity="0.5" d="M117.383 76.0363L147.636 85.1422V83.727L117.383 74.6211V76.0363Z" fill="#DBE5B1"/>
<path opacity="0.5" d="M117.383 79.5625L147.636 88.68V87.2649L117.383 78.1589V79.5625Z" fill="#DBE5B1"/>
<path opacity="0.5" d="M117.383 83.1005L147.636 92.2064V90.7912L117.383 81.6853V83.1005Z" fill="#DBE5B1"/>
<path opacity="0.5" d="M117.383 86.6269L147.636 95.7444V94.3292L117.383 85.2117V86.6269Z" fill="#DBE5B1"/>
<path opacity="0.5" d="M117.383 90.165L147.636 99.2709V97.8557L117.383 88.7498V90.165Z" fill="#DBE5B1"/>
<path opacity="0.5" d="M117.383 93.6911L165.477 108.179V106.764L117.383 92.2759V93.6911Z" fill="#DBE5B1"/>
<path opacity="0.5" d="M141.43 104.467L165.477 111.706V110.291L141.43 103.052V104.467Z" fill="#DBE5B1"/>
<path opacity="0.5" d="M141.43 107.994L165.477 115.244V113.829L141.43 106.59V107.994Z" fill="#DBE5B1"/>
<path opacity="0.5" d="M141.43 111.532L165.477 118.77V117.355L141.43 110.117V111.532Z" fill="#DBE5B1"/>
<path opacity="0.5" d="M141.43 115.058L165.477 122.308V120.893L141.43 113.643V115.058Z" fill="#DBE5B1"/>
<path opacity="0.5" d="M141.43 118.596L165.477 125.834V124.419L141.43 117.181V118.596Z" fill="#DBE5B1"/>
<path opacity="0.5" d="M141.43 122.123L165.477 129.361V127.957L141.43 120.708V122.123Z" fill="#DBE5B1"/>
<path opacity="0.5" d="M141.43 125.661L165.477 132.899V131.484L141.43 124.245V125.661Z" fill="#DBE5B1"/>
<path opacity="0.5" d="M141.43 129.187L165.477 136.425V135.022L141.43 127.772V129.187Z" fill="#DBE5B1"/>
<path opacity="0.5" d="M141.43 132.725L165.477 139.963V138.548L141.43 131.31V132.725Z" fill="#DBE5B1"/>
<path opacity="0.5" d="M117.383 129.013L165.477 143.49V142.086L117.383 127.598V129.013Z" fill="#DBE5B1"/>
<path opacity="0.5" d="M117.383 132.539L165.477 147.028V145.613L117.383 131.124V132.539Z" fill="#DBE5B1"/>
<path opacity="0.5" d="M117.383 136.078L165.477 150.554V149.139L117.383 134.662V136.078Z" fill="#DBE5B1"/>
<path opacity="0.5" d="M165.477 104.641L149.62 99.8737V66.6748L165.477 71.4424V104.641Z" fill="#DBE5B1"/>
<path opacity="0.5" d="M139.725 132.203L117.383 125.475V95.814L139.725 102.542V132.203Z" fill="#DBE5B1"/>
<path d="M38.2487 161.365L40.1047 161.4V49.7974L38.2487 49.7742V161.365Z" fill="url(#paint10_linear)"/>
<path d="M111.317 34.7754L110.493 34.1606L38.2487 49.7741L40.1047 50.5397L111.317 34.7754Z" fill="url(#paint11_linear)"/>
<path d="M117.163 35.251C114.878 34.439 113.068 34.1838 111.885 34.1258C111.166 34.0562 108.962 33.9982 105.551 35.2162C105.551 35.2162 105.76 35.4366 106.178 35.715C106.781 36.121 107.813 36.6662 109.31 36.8982C113.869 37.8494 117.163 35.251 117.163 35.251Z" fill="url(#paint12_linear)"/>
<path d="M114.843 36.4111L176.589 52.9178L177.529 161.771L175.499 163.372V53.405L114.843 36.4111Z" fill="#D6D2B4"/>
<path d="M159.92 179.844L111.943 163.024L149.944 142.063L199.023 159.614L162.124 179.67C161.44 180.041 160.639 180.099 159.92 179.844Z" fill="url(#paint13_linear)"/>
<path d="M115.667 144.812C115.667 144.812 122.882 153.164 114.541 162.293L159.746 179.287C160.86 179.705 162.124 179.45 162.983 178.614L164.618 177.025C164.618 177.025 170.314 161.412 170.314 161.017C170.314 160.623 158.923 151.389 158.923 151.389C158.923 151.389 140.166 149.127 139.678 149.127C139.18 149.139 115.667 144.812 115.667 144.812Z" fill="#EDFDFC"/>
<path d="M164.815 174.172C164.525 174.172 131.234 163.175 131.234 163.175C131.234 163.175 164.421 175.239 164.525 174.949C164.618 174.647 164.815 174.172 164.815 174.172Z" fill="#D6D2B4"/>
<path d="M113.115 144.372V145.404L160.837 161.748C160.837 161.748 163.783 165.425 163.493 170.437C163.203 175.448 162.113 179.403 160.547 179.461C160.547 179.461 161.544 179.543 162.043 179.229C162.542 178.916 163.713 177.872 163.713 177.872C163.713 177.872 165.685 168.963 165.79 168.743C165.883 168.523 164.757 161.261 164.003 160.716C163.238 160.171 163.876 159.312 160.268 158.651C156.661 157.99 128.229 145.218 127.545 145.392C126.861 145.566 120.968 145.3 120.643 145.392C120.307 145.497 113.115 144.372 113.115 144.372Z" fill="url(#paint14_linear)"/>
<path d="M161.567 161.307C161.567 161.307 167.646 171.62 161.567 179.891L202.028 157.967C202.028 157.967 206.795 148.2 200.647 142.063L161.567 161.307Z" fill="url(#paint15_linear)"/>
<path d="M161.567 161.307L113.115 144.371L156.858 129.489L200.659 142.063L161.567 161.307Z" fill="url(#paint16_linear)"/>
<path d="M153.819 164.648L118.555 152.375C118.567 152.631 118.567 152.897 118.567 153.164L153.819 164.648Z" fill="#D6D2B4"/>
<path d="M118.149 156.041C118.056 156.401 117.929 156.772 117.801 157.132L143.68 165.576L118.149 156.041Z" fill="#D6D2B4"/>
<path d="M153.853 155.96L202.805 141.425L166.01 123.306L115.922 138.479L151.661 155.809C152.311 156.123 153.111 156.181 153.853 155.96Z" fill="url(#paint17_linear)"/>
<path d="M200.114 125.685C200.114 125.685 192.411 132.9 200.241 140.788L154.062 155.462C152.925 155.821 151.673 155.601 150.861 154.882L149.318 153.513C149.318 153.513 144.515 140.022 144.539 139.686C144.562 139.349 156.487 131.369 156.487 131.369C156.487 131.369 175.371 129.42 175.858 129.42C176.346 129.42 200.114 125.685 200.114 125.685Z" fill="#EDFDFC"/>
<path d="M149.283 151.053C149.573 151.053 183.503 141.553 183.503 141.553C183.503 141.553 149.619 151.981 149.538 151.726C149.445 151.471 149.283 151.053 149.283 151.053Z" fill="#D6D2B4"/>
<path d="M202.701 125.302L202.643 126.195L153.969 140.323C153.969 140.323 150.814 143.502 150.814 147.829C150.826 152.155 151.673 155.577 153.25 155.624C153.25 155.624 152.253 155.693 151.765 155.426C151.278 155.16 150.176 154.255 150.176 154.255C150.176 154.255 148.715 146.553 148.622 146.367C148.541 146.181 150.083 139.894 150.872 139.43C151.661 138.966 151.081 138.224 154.723 137.644C158.366 137.075 187.528 126.044 188.212 126.183C188.885 126.334 194.801 126.102 195.114 126.183C195.439 126.288 202.701 125.302 202.701 125.302Z" fill="url(#paint18_linear)"/>
<path d="M153.262 139.941C153.262 139.941 146.592 148.849 152.195 155.995L112.999 137.052C112.999 137.052 108.799 128.608 115.284 123.306L153.262 139.941Z" fill="url(#paint19_linear)"/>
<path d="M153.262 139.941L202.701 125.301L159.804 112.449L115.284 123.306L153.262 139.941Z" fill="#847D3D"/>
<path d="M160.825 142.829L196.796 132.227C196.773 132.447 196.75 132.679 196.738 132.911L160.825 142.829Z" fill="#D6D2B4"/>
<path d="M196.993 135.382C197.075 135.695 197.167 136.008 197.283 136.333L170.917 143.629L196.993 135.382Z" fill="#D6D2B4"/>
<path opacity="0.3" d="M121.873 126.195C121.873 126.195 115.272 133.073 120.434 140.66L123.357 142.063C123.357 142.063 119.599 132.992 125.178 127.645L121.873 126.195Z" fill="#06BFAD"/>
<path d="M165.117 138.212L124.343 124.373L154.027 107.206L195.764 121.636L166.915 138.061C166.393 138.363 165.743 138.421 165.117 138.212Z" fill="url(#paint20_linear)"/>
<path d="M126.037 109.433C126.037 109.433 132.614 116.288 126.431 123.77L164.931 137.737C165.883 138.085 166.903 137.864 167.541 137.191L168.771 135.892C168.771 135.892 172.274 123.086 172.239 122.761C172.205 122.436 162.136 114.862 162.136 114.862C162.136 114.862 146.522 112.994 146.116 112.994C145.722 112.994 126.037 109.433 126.037 109.433Z" fill="#EDFDFC"/>
<path d="M168.724 133.561C168.481 133.561 140.247 124.513 140.247 124.513C140.247 124.513 168.481 134.442 168.539 134.199C168.597 133.955 168.724 133.561 168.724 133.561Z" fill="#D6D2B4"/>
<path d="M123.903 109.073L123.984 109.92L164.514 123.364C164.514 123.364 167.217 126.392 167.356 130.498C167.495 134.605 166.903 137.853 165.616 137.899C165.616 137.899 166.439 137.969 166.822 137.713C167.205 137.458 168.087 136.6 168.087 136.6C168.087 136.6 169.038 129.292 169.096 129.106C169.165 128.921 167.681 122.958 167.008 122.518C166.335 122.077 166.799 121.369 163.783 120.824C160.767 120.279 136.396 109.781 135.839 109.92C135.282 110.059 130.422 109.839 130.155 109.92C129.911 110.001 123.903 109.073 123.903 109.073Z" fill="url(#paint21_linear)"/>
<path d="M165.082 123.005C165.082 123.005 170.871 131.472 166.497 138.247L198.13 120.29C198.13 120.29 201.309 112.275 195.787 107.24L165.082 123.005Z" fill="url(#paint22_linear)"/>
<path d="M165.082 123.004L123.902 109.073L158.783 96.8931L195.787 107.24L165.082 123.004Z" fill="#B7D972"/>
<path d="M158.946 125.731L128.983 115.639C129.018 115.847 129.041 116.068 129.053 116.288L158.946 125.731Z" fill="#D6D2B4"/>
<path d="M128.937 118.643C128.879 118.933 128.821 119.235 128.728 119.536L150.675 126.485L128.937 118.643Z" fill="#D6D2B4"/>
<path d="M161.544 118.852L137.718 110.5L142.427 108.447L167.669 115.929L161.544 118.852Z" fill="url(#paint23_linear)"/>
<path d="M133.53 120.302C133.53 120.302 131.071 122.795 132.196 126.159C132.196 126.159 132.939 124.419 133.693 123.921C133.693 123.921 133.565 126.043 134.435 126.913C134.435 126.913 135.201 122.227 137.555 121.763L133.53 120.302Z" fill="url(#paint24_linear)"/>
<path d="M161.567 147.678C161.567 147.678 163.075 149.452 162.959 151.691C162.959 151.691 163.795 150.543 163.992 149.684C163.992 149.684 164.827 150.067 165.326 151.065C165.326 151.065 166.254 148.687 165.291 146.645L161.567 147.678Z" fill="url(#paint25_linear)"/>
<path d="M138.24 159.231C138.24 159.231 135.688 162.653 136.558 168.14C136.558 168.14 137.428 165.901 139.423 164.648C139.423 164.648 140.293 168.256 140.792 169.508C140.792 169.508 142.787 162.247 145.153 161.644L138.24 159.231Z" fill="url(#paint26_linear)"/>
<path d="M76.3197 21.911C79.4632 22.8042 90.5064 20.2638 94.1255 19.3822L94.2531 19.3242L95.5291 18.431C96.5847 17.735 97.6751 16.923 97.7795 16.9694C97.9303 17.039 97.9419 17.1782 97.0835 18.3962C97.0255 18.4774 97.0835 18.5818 97.1763 18.5934C97.9303 18.6166 100.285 18.721 100.32 18.9182C100.366 19.1502 98.2551 19.1038 98.1739 19.3126C98.0927 19.5098 100.157 19.4982 100.169 19.7534C100.181 20.0086 98.3015 19.9506 98.2667 20.0666C98.2319 20.171 100.03 20.4146 100.123 20.5654C100.215 20.7162 98.2667 20.6814 98.1855 20.809C98.1043 20.925 99.4499 21.389 99.4267 21.5166C99.4035 21.6326 99.7399 21.5978 96.4339 21.4238C96.4339 21.4238 95.6103 21.3542 95.2855 21.3078L94.4619 21.6906C87.792 25.565 75.1713 25.913 75.1713 25.913L76.3197 21.911Z" fill="#FFC0BB"/>
<path d="M68.3041 19.5215C68.3041 19.5215 66.7729 20.9715 65.8101 19.9623C65.8101 19.9623 63.0493 20.5655 63.2813 18.1295C63.2813 18.1295 61.4022 16.9927 62.0982 14.8003C62.0982 14.8003 60.4046 13.2575 62.2606 11.4827C62.2606 11.4827 61.0426 9.40635 63.3741 8.71036C63.3741 8.71036 63.6757 5.16079 66.9933 6.11198C66.9933 6.11198 69.4989 3.4092 71.6565 5.11439C71.6565 5.11439 73.9069 4.37199 74.8464 6.95877C74.8464 6.95877 77.236 7.75917 76.366 10.6939C76.366 10.6939 78.686 13.2575 77.1548 15.8443C77.1548 15.8443 77.9668 19.3127 74.0693 18.8719C70.1369 18.4195 68.3041 19.5215 68.3041 19.5215Z" fill="#002A24"/>
<path d="M79.2312 26.6668C79.2312 26.6668 75.1481 28.1052 71.7261 27.1772C71.0881 27.0032 70.6357 26.4348 70.6473 25.7736C70.6589 25.0776 69.4061 22.2124 70.8213 21.818C73.8721 20.9829 78.3729 21.1917 78.3729 21.1917C78.3729 21.1917 79.8228 23.2912 79.2312 26.6668Z" fill="#B7D972"/>
<path d="M68.1185 20.925C68.1185 20.925 64.7198 21.5282 63.5366 22.897C62.3534 24.2658 59.3142 39.3689 60.045 42.0717L74.4057 40.0185C74.4057 40.0185 75.9485 27.943 75.6469 24.463C75.3337 20.983 71.5289 21.1222 71.5289 21.1222L68.1185 20.925Z" fill="#B7D972"/>
<path d="M75.6237 27.4213C75.6817 25.5885 75.6237 24.3357 75.6237 24.3357C75.8325 25.5885 75.6237 27.4213 75.6237 27.4213Z" fill="#847D3D"/>
<path d="M63.0842 32.2233C63.0842 32.2233 63.6874 32.5133 64.4414 32.5133C65.0794 31.5041 65.9726 28.929 65.903 26.7134C64.5342 28.9754 63.0842 32.2233 63.0842 32.2233Z" fill="#847D3D"/>
<path d="M84.5324 54.3445L83.9292 56.4441C83.8828 56.6181 83.9757 56.7921 84.1497 56.8501L89.068 58.2537C89.4276 58.3581 89.6944 57.9289 89.4508 57.6505L86.98 54.8317C86.9684 54.8201 85.8896 55.5857 84.5324 54.3445Z" fill="url(#paint27_linear)"/>
<path d="M75.5657 40.3431C75.5657 40.3431 85.4256 37.5708 86.574 37.6984C87.85 37.8376 91.388 40.0067 87.386 55.423C87.386 55.423 85.472 56.0378 84.3004 54.7038L84.3817 45.9227C84.3817 45.9227 77.2477 49.8319 75.0437 48.8807C72.8513 47.9295 75.5657 40.3431 75.5657 40.3431Z" fill="#473B1E"/>
<path d="M68.6985 54.2866L67.3762 56.0266C67.2718 56.1658 67.295 56.3746 67.4342 56.479L71.5173 59.553C71.8073 59.7734 72.2133 59.4718 72.0857 59.1238L70.7981 55.5974C70.7981 55.6206 69.5105 55.9338 68.6985 54.2866Z" fill="url(#paint28_linear)"/>
<path d="M60.4046 42.0253C60.4046 42.0253 60.2074 52.1288 70.4501 48.3125L68.4086 54.6692C68.4086 54.6692 69.8702 56.1656 70.891 55.9916C71.8305 55.8292 81.5629 43.9741 75.9021 39.7865C75.0901 39.1833 74.0925 38.8818 73.0833 38.8586C70.5313 38.8122 63.873 39.0093 60.4046 42.0253Z" fill="#847D3D"/>
<path d="M68.1649 22.4212L68.0721 19.1036L71.3664 19.0688L72.0392 21.9688C72.0276 21.9572 70.1717 24.08 68.1649 22.4212Z" fill="#FFC0BB"/>
<path d="M71.8072 20.9948L71.3664 19.0576L68.0721 19.0924L68.1185 20.728C68.8377 21.2964 70.0789 21.83 71.8072 20.9948Z" fill="#F99893"/>
<path d="M74.4404 14.7656C74.336 15.334 74.6144 15.856 75.0668 15.9372C75.5192 16.0184 75.9716 15.624 76.076 15.0672C76.1804 14.4988 75.902 13.9768 75.4496 13.8956C74.9973 13.8144 74.5448 14.2088 74.4404 14.7656Z" fill="#F99893"/>
<path d="M74.9161 17.8394C74.9973 17.5842 75.0553 17.329 75.0901 17.0622C75.2061 16.343 75.1829 15.6122 75.1133 14.9742C75.1017 14.835 75.0901 14.7074 75.0901 14.5682C75.0785 14.023 74.9509 13.4546 74.7073 12.9094C73.9185 11.1347 72.0162 10.0675 70.0906 10.3227C67.4922 10.6707 65.787 13.1298 66.309 15.6122C66.0074 15.5194 65.6942 15.5426 65.4506 15.7282C64.9866 16.0646 64.9402 16.807 65.3694 17.3986C65.787 17.9786 66.5062 18.1758 66.9818 17.8394C67.0514 17.793 67.0978 17.735 67.1558 17.677C67.817 19.7534 69.8934 21.0294 71.9814 20.5538C73.0022 20.3218 73.8374 19.7186 74.3941 18.9066C74.4289 18.8602 74.4753 18.8022 74.5101 18.7442C74.6841 18.4542 74.8233 18.1526 74.9161 17.8394Z" fill="#FFC0BB"/>
<path d="M71.6217 14.4639C71.6913 14.7075 71.7609 14.9395 71.8421 15.1715C71.9233 15.3919 72.0161 15.6355 72.1437 15.7631L72.1669 15.7863C72.1785 15.7979 72.1785 15.7979 72.2017 15.8095C72.2365 15.8327 72.2597 15.8559 72.2945 15.8791C72.3525 15.9371 72.3989 16.0067 72.4221 16.0879C72.4685 16.2503 72.4221 16.4127 72.3409 16.5286C72.1669 16.7722 71.8885 16.865 71.6449 16.8766C71.8769 16.7722 72.0741 16.6215 72.1669 16.4359C72.2017 16.3431 72.2249 16.2387 72.1901 16.1691C72.1785 16.1343 72.1553 16.0995 72.1205 16.0647C72.1089 16.0415 72.0857 16.0415 72.0625 16.0183L72.0161 15.9835L71.9697 15.9487C71.8537 15.8443 71.7957 15.7167 71.7493 15.5891C71.7029 15.4615 71.6681 15.3339 71.6449 15.2179C71.6101 14.9743 71.5985 14.7191 71.6217 14.4639Z" fill="#F99893"/>
<path d="M70.2878 15.1831C70.3342 15.3919 70.2066 15.6007 69.9978 15.6471C69.789 15.6935 69.5802 15.5659 69.5338 15.3571C69.4874 15.1483 69.615 14.9395 69.8238 14.8931C70.0442 14.8467 70.2414 14.9743 70.2878 15.1831Z" fill="#333333"/>
<path d="M73.5821 14.6611C73.6285 14.8699 73.5009 15.0787 73.2921 15.1251C73.0833 15.1715 72.8745 15.0439 72.8281 14.8351C72.7817 14.6263 72.9093 14.4175 73.1181 14.3711C73.3385 14.3247 73.5357 14.4523 73.5821 14.6611Z" fill="#333333"/>
<path d="M70.5313 14.2087C70.3225 14.1971 70.1369 14.2087 69.9513 14.2319C69.7657 14.2551 69.5917 14.3015 69.4293 14.3595C69.2669 14.4291 69.1045 14.5103 68.9653 14.6263C68.8841 14.6727 68.8262 14.7539 68.745 14.8119C68.6754 14.8815 68.6057 14.951 68.5245 15.0206C68.5477 14.9162 68.5825 14.8234 68.6173 14.7307C68.6637 14.6379 68.7101 14.5451 68.7913 14.4639C68.9189 14.2899 69.1045 14.1623 69.3133 14.0811C69.5105 13.9999 69.7425 13.9651 69.9513 13.9883C70.1601 14.0115 70.3689 14.0811 70.5313 14.2087Z" fill="#002A24"/>
<path d="M72.2249 13.9418C72.3409 13.7678 72.5149 13.6402 72.7005 13.5358C72.8861 13.443 73.1065 13.3966 73.3269 13.4082C73.5473 13.4198 73.7677 13.4778 73.9417 13.5938C74.0345 13.6402 74.1157 13.7214 74.1853 13.791C74.2549 13.8606 74.3245 13.9534 74.3709 14.0346C74.2665 13.9998 74.1853 13.9534 74.0925 13.9186C73.9997 13.8838 73.9185 13.8374 73.8257 13.8142C73.6517 13.7562 73.4777 13.7214 73.3037 13.7214C73.1297 13.7098 72.9441 13.733 72.7701 13.7678C72.6077 13.8026 72.4221 13.8606 72.2249 13.9418Z" fill="#002A24"/>
<path d="M64.2674 29.625C62.2954 32.2234 60.625 43.4637 60.1262 47.164L60.1378 47.3032L60.4974 48.8228C60.7642 50.064 61.1238 51.3748 61.0426 51.456C60.9266 51.572 60.7874 51.5256 59.9754 50.2844C59.9174 50.2032 59.8014 50.2148 59.7666 50.3076C59.465 50.992 58.5138 53.1612 58.3166 53.1264C58.0846 53.08 58.8966 51.1312 58.7342 50.9804C58.5718 50.8412 57.8294 52.7668 57.5974 52.674C57.3654 52.5928 58.0962 50.8528 58.0034 50.7832C57.9106 50.7136 57.0406 52.3028 56.8666 52.3376C56.6926 52.3724 57.435 50.5628 57.3422 50.4468C57.261 50.3308 56.3446 51.4096 56.2402 51.34C56.1358 51.2704 56.043 51.6068 57.4234 48.5792C57.4234 48.5792 57.783 47.8252 57.9454 47.5468L57.899 46.642C56.739 39.0093 61.0078 27.0962 61.0078 27.0962L64.2674 29.625Z" fill="#FFC0BB"/>
<path d="M59.0706 30.6689C59.0706 30.6689 60.1377 24.7994 63.4553 22.6882C64.8589 21.795 65.6593 21.4586 66.2973 21.8298C66.9585 22.2126 65.5201 23.6394 65.8101 25.2518C66.3785 28.4417 64.3253 32.4437 64.3253 32.4437C64.3253 32.4437 61.5297 32.1305 59.0706 30.6689Z" fill="#B7D972"/>
<path d="M66.5526 10.3576L66.5062 13.2228L73.1761 11.4248C73.1761 11.4248 73.9301 12.0628 74.0345 12.0396C74.1505 12.028 74.9857 11.6336 74.9509 11.5176C74.9161 11.4016 72.5033 8.37402 72.5033 8.37402C72.5033 8.37402 70.2877 8.94242 70.0905 9.00042C69.8933 9.05842 66.5526 10.3576 66.5526 10.3576Z" fill="#002A24"/>
<path d="M66.2278 14.5449C66.2278 14.5449 69.6265 11.5985 74.8233 13.1297C74.8233 13.1297 74.7885 12.5265 74.5681 11.7725C74.5681 11.7725 71.0417 9.48732 66.077 13.1065C66.0654 13.1065 65.7986 13.4777 66.2278 14.5449Z" fill="url(#paint29_linear)"/>
<path d="M73.4197 17.271C73.3385 17.9322 72.7585 18.489 72.0045 18.547C71.2505 18.6166 70.5777 18.1758 70.3921 17.5378L73.4197 17.271Z" fill="white"/>
<path d="M49.9647 167.131V169.392C49.9647 169.578 49.8139 169.729 49.6283 169.729H44.3155C43.9327 169.729 43.782 169.23 44.1068 169.021L47.0183 167.119C47.0183 167.13 48.2595 167.977 49.9647 167.131Z" fill="#002A24"/>
<path d="M61.6807 167.131V169.392C61.6807 169.578 61.8315 169.729 62.0171 169.729H67.3298C67.7126 169.729 67.8634 169.23 67.5386 169.021L64.627 167.119C64.6386 167.13 63.3975 167.977 61.6807 167.131Z" fill="#002A24"/>
<path d="M55.4979 109.873L55.4863 113.585L59.0939 113.028L58.4907 108.852L55.4979 109.873Z" fill="#FFC0BB"/>
<path d="M60.3234 112.599C60.3234 112.599 62.887 113.226 65.0098 114.827C67.1326 116.427 71.4246 119.513 71.2158 122.656C71.007 125.8 67.6198 130.707 67.6198 130.707L66.483 128.352C66.483 128.352 67.5154 122.819 67.2834 122.622C67.0514 122.413 62.655 118.446 62.655 118.446L60.3234 112.599Z" fill="url(#paint30_linear)"/>
<path d="M66.2394 134.256C66.2278 133.839 67.3066 135.057 67.2834 134.732C66.8658 127.876 53.4447 133.63 53.4447 133.63L50.1735 136.031L45.8932 167.792C45.8932 167.792 48.0508 168.557 49.9764 168.035L57.9919 140.683L59.0011 140.3C59.0011 140.288 63.4786 137.168 66.2394 134.256Z" fill="#473B1E"/>
<path d="M67.295 133.166C64.5343 136.077 59.0011 140.277 59.0011 140.277L61.6923 167.826C61.6923 167.826 64.337 168.221 65.6014 167.525C65.6014 167.536 67.469 141.344 67.295 133.166Z" fill="#473B1E"/>
<path d="M50.1735 136.02L49.64 140.555C51.0319 141.1 54.4423 141.669 57.0059 136.066C57.8179 134.303 58.0267 133.027 57.8759 132.11C55.4167 132.772 53.4447 133.607 53.4447 133.607L50.1735 136.02Z" fill="#847D3D"/>
<path d="M62.4926 117.506C62.3766 117.506 61.1122 114.71 60.4394 113.202C60.2306 112.727 59.6739 112.495 59.1983 112.692C57.3655 113.411 55.3355 112.68 55.3355 112.68C55.3355 112.68 49.2455 133.943 51.7627 135.613C58.3515 139.987 65.9146 134.941 65.9146 134.941C65.9146 134.941 66.889 130.962 66.889 130.811C66.889 130.66 62.6434 117.506 62.4926 117.506Z" fill="#B7D972"/>
<path d="M55.3239 112.68C55.3239 112.68 54.1639 114.397 54.0479 114.374C53.2591 114.235 51.0783 112.297 50.7071 118.701C50.9159 120.661 49.0483 136.506 49.0483 136.506C54.1059 138.873 55.5327 137.492 55.5327 137.492C56.5767 132.69 55.3239 112.68 55.3239 112.68Z" fill="url(#paint31_linear)"/>
<path d="M55.3239 112.68C55.3239 112.68 52.0527 113.098 49.6516 114.235C47.2504 115.371 42.9932 117.645 43.1672 120.823C43.3412 124.002 49.4544 130.718 49.4544 130.718L50.3824 129.79L51.2059 128.537L46.9952 121.125L52.3891 118.875L55.3239 112.68Z" fill="url(#paint32_linear)"/>
<path d="M60.9846 113.028C62.5274 114.71 65.6014 119.953 68.049 135.903C68.049 135.903 65.3346 137.55 62.2258 137.724C62.2258 137.724 61.4254 116.624 59.1403 112.703C59.7551 112.378 60.5207 112.518 60.9846 113.028Z" fill="url(#paint33_linear)"/>
<path d="M66.0422 127.667C66.8542 128.213 67.3182 129.199 67.5734 130.045C67.585 130.092 67.5966 130.127 67.6082 130.173C67.7706 130.857 67.4226 130.997 67.237 131.02C67.179 131.031 67.1326 130.997 67.0978 130.95C67.0514 130.857 66.9818 130.73 66.889 130.579C66.3206 129.651 65.6478 131.171 65.4506 130.799C65.1954 130.324 66.2974 129.918 66.1582 129.686C65.8798 129.233 65.2534 130.266 65.033 129.987C64.801 129.686 66.0538 129.384 65.7406 128.862C65.5782 128.584 64.743 129.465 64.6386 129.094C64.5342 128.7 65.5898 128.537 65.4042 128.224C65.1374 127.749 64.5458 128.804 64.3138 128.479C64.1978 128.271 65.4622 127.285 66.0422 127.667Z" fill="#FFC0BB"/>
<path opacity="0.6" d="M58.769 110.778L58.4906 108.864L55.4979 110.233V110.964C56.2171 111.138 57.5627 111.288 58.769 110.778Z" fill="#FC8D84"/>
<path d="M60.6715 102.31L60.8919 104.851L60.4859 105.106L59.7435 102.009L60.6715 102.31Z" fill="#473B1E"/>
<path d="M60.1378 104.595C60.0218 105.175 60.3118 105.709 60.7758 105.802C61.2398 105.895 61.7038 105.5 61.8082 104.92C61.9242 104.34 61.6342 103.807 61.1702 103.714C60.7062 103.621 60.2422 104.015 60.1378 104.595Z" fill="#F99893"/>
<path d="M60.6018 107.739C60.683 107.484 60.7526 107.217 60.7874 106.939C60.9034 106.208 60.8918 105.454 60.8222 104.804C60.8106 104.665 60.799 104.526 60.799 104.387C60.7874 103.818 60.6714 103.25 60.4162 102.681C59.6274 100.86 57.6786 99.7467 55.7066 99.9903C53.0387 100.315 51.2871 102.821 51.7975 105.384C51.4843 105.28 51.1711 105.315 50.9159 105.489C50.4287 105.825 50.3939 106.591 50.8231 107.194C51.2523 107.797 51.9831 108.006 52.4703 107.669C52.5399 107.623 52.5979 107.565 52.6443 107.507C53.3055 109.641 55.4282 110.964 57.5626 110.5C58.6066 110.268 59.4766 109.653 60.045 108.829C60.0798 108.783 60.1262 108.725 60.1726 108.655C60.3582 108.377 60.4974 108.064 60.6018 107.739Z" fill="#FFC0BB"/>
<path d="M55.8807 104.978C55.9271 105.187 55.7879 105.407 55.5791 105.454C55.3703 105.5 55.1499 105.361 55.1035 105.152C55.0571 104.943 55.1963 104.723 55.4051 104.676C55.6255 104.63 55.8343 104.758 55.8807 104.978Z" fill="#333333"/>
<path d="M59.2562 104.468C59.3026 104.677 59.1634 104.897 58.9546 104.943C58.7458 104.99 58.5254 104.851 58.479 104.642C58.4326 104.433 58.5718 104.213 58.7806 104.166C59.001 104.12 59.2098 104.259 59.2562 104.468Z" fill="#333333"/>
<path d="M56.1823 104.108C55.9735 104.073 55.7763 104.05 55.5907 104.05C55.4051 104.05 55.2195 104.073 55.0339 104.12C54.8599 104.166 54.6859 104.236 54.5235 104.34C54.3031 104.456 54.1523 104.619 54.0363 104.688C54.1059 104.503 54.2219 104.294 54.3843 104.166C54.5351 104.015 54.7439 103.911 54.9527 103.853C55.1731 103.795 55.3935 103.795 55.6023 103.841C55.8343 103.865 56.0315 103.957 56.1823 104.108Z" fill="#473B1E"/>
<path d="M57.7598 103.841C57.8642 103.655 58.015 103.505 58.2006 103.389C58.3862 103.273 58.6066 103.203 58.827 103.191C59.0474 103.18 59.2794 103.215 59.465 103.307C59.6506 103.377 59.8362 103.551 59.9638 103.69C59.8246 103.655 59.639 103.563 59.3954 103.516C59.2098 103.47 59.0242 103.458 58.8502 103.47C58.6646 103.481 58.4906 103.516 58.305 103.586C58.1194 103.655 57.9454 103.748 57.7598 103.841Z" fill="#473B1E"/>
<path d="M60.1959 99.5957C60.1959 99.5957 61.5299 99.3405 59.8827 98.5285C58.2355 97.7165 54.1987 97.2525 52.0759 99.0621C52.0759 99.0621 51.3684 98.1573 50.7304 98.5517C50.0924 98.9461 51.3915 99.3985 51.3915 99.3985C51.3915 99.3985 50.4984 99.5725 50.3244 100.06C50.1968 100.431 50.742 100.315 51.032 100.234C50.5448 100.431 49.118 101.776 50.974 105.454C51.2987 105.303 53.4215 102.287 53.4215 102.287C53.4215 102.287 57.6787 103.679 56.9015 102.53C56.9015 102.53 61.8663 103.772 60.6599 101.533C60.6831 101.521 62.5159 101.243 60.1959 99.5957Z" fill="#473B1E"/>
<path d="M53.4447 102.275C53.5143 102.519 52.3427 105.175 51.8091 105.384C51.3799 105.384 50.9971 105.442 50.9971 105.442C50.8695 104.688 52.1455 102.577 52.1455 102.577L53.4447 102.275Z" fill="#473B1E"/>
<path d="M57.1451 103.911C57.1219 104.201 57.1335 104.479 57.1915 104.769C57.2147 104.908 57.2611 105.048 57.3075 105.187C57.3655 105.326 57.4351 105.465 57.5627 105.581C57.7019 105.697 57.7715 105.72 57.8063 105.825C57.8527 105.918 57.8295 106.022 57.7831 106.138C57.6787 106.358 57.4467 106.521 57.1915 106.637C57.4699 106.625 57.7831 106.509 57.9687 106.242C58.0615 106.115 58.1079 105.918 58.0499 105.744C57.9919 105.558 57.8759 105.488 57.7367 105.384C57.6555 105.314 57.5975 105.198 57.5395 105.082C57.4815 104.966 57.4351 104.839 57.3887 104.711C57.3075 104.444 57.2263 104.178 57.1451 103.911Z" fill="#F99893"/>
<path d="M48.5032 123.7C48.0392 122.9 47.5752 122.111 47.0996 121.311C47.0648 121.241 47.0184 121.183 46.9836 121.114C47.1112 121.067 47.2272 121.021 47.3548 120.974C47.842 120.8 48.3176 120.603 48.7932 120.418C49.2688 120.22 49.7444 120.023 50.22 119.814C50.6956 119.606 51.1596 119.397 51.6235 119.165C51.1248 119.327 50.6376 119.501 50.162 119.675C49.6748 119.849 49.1992 120.046 48.712 120.232C48.2364 120.429 47.7608 120.626 47.2852 120.835C46.8096 121.044 46.3456 121.253 45.8816 121.485C46.2064 121.38 46.5196 121.276 46.8444 121.16C46.8792 121.23 46.9256 121.311 46.9604 121.38C47.4128 122.192 47.8652 122.993 48.3292 123.782C48.7932 124.582 49.2572 125.371 49.7328 126.171C50.2084 126.96 50.684 127.749 51.1828 128.526C50.7536 127.714 50.3128 126.902 49.8604 126.09C49.4196 125.301 48.9556 124.501 48.5032 123.7Z" fill="#07085B"/>
<path d="M51.8672 129.477C51.8208 129.43 51.844 129.338 51.9136 129.326C52.9692 129.106 53.0388 129.024 52.9808 128.92C52.946 128.862 52.0064 128.688 51.1712 128.549L51.1828 128.56L50.6376 129.419C50.6376 129.419 49.7908 130.37 49.7676 130.393C49.814 130.463 49.8488 130.509 49.8488 130.509C51.5192 132.226 51.554 132.18 51.6352 132.122C51.7048 132.075 51.2292 131.17 51.322 131.147C51.4264 131.124 52.4472 132.087 52.4704 131.959C52.4936 131.832 51.6584 130.834 51.728 130.788C51.7976 130.753 52.772 131.692 52.888 131.553C53.004 131.414 51.9136 130.416 52.0528 130.347C52.192 130.277 53.294 131.333 53.3868 131.182C53.4564 131.066 52.25 129.86 51.8672 129.477Z" fill="#FFC0BB"/>
<path d="M49.4427 130.718L49.9067 130.196C50.0575 130.022 50.2083 129.848 50.3591 129.662C50.5099 129.488 50.6491 129.303 50.7883 129.117C50.8579 129.024 50.9275 128.932 50.9971 128.839C51.0667 128.746 51.1247 128.642 51.1943 128.549C51.1015 128.769 50.9855 128.966 50.8579 129.164C50.7303 129.361 50.5795 129.546 50.4403 129.72C50.2895 129.894 50.1387 130.068 49.9647 130.242C49.7907 130.405 49.6283 130.567 49.4427 130.718Z" fill="#07085B"/>
<path d="M58.7458 107.333C58.7226 107.832 58.2818 108.296 57.6554 108.412C57.0406 108.528 56.449 108.261 56.2518 107.797L58.7458 107.333Z" fill="white"/>
<path d="M134.656 26.7014C134.656 26.7014 131.57 26.4114 129.517 27.8846C127.475 29.3577 125.086 31.8517 119.889 30.3089C119.889 30.3089 122.348 33.2553 125.608 33.5801C128.867 33.9049 127.986 31.2717 135.41 32.8145L135.05 29.6709L134.656 26.7014Z" fill="url(#paint34_linear)"/>
<path d="M150.397 76.0013L150.849 106.335L151.626 108.527L153.958 106.335L156.173 75.2241L150.397 76.0013Z" fill="#FFC0BB"/>
<path d="M164.27 77.0337H158.459C158.459 77.0337 161.185 106.161 161.161 106.347C161.138 106.532 162.147 107.831 162.147 107.831L164.27 106.347V77.0337Z" fill="#FFC0BB"/>
<path d="M150.397 76.0013L150.849 106.335L151.626 108.527L153.958 106.335L156.173 75.2241L150.397 76.0013Z" fill="#FFC0BB"/>
<path d="M164.27 77.0337H158.459C158.459 77.0337 161.185 106.161 161.161 106.347C161.138 106.532 162.147 107.831 162.147 107.831L164.27 106.347V77.0337Z" fill="#FFC0BB"/>
<path d="M150.733 98.2614L150.861 106.335L151.638 108.527L153.969 106.335L154.549 98.1802C152.751 98.8762 151.429 98.563 150.733 98.2614Z" fill="#EDFDFC"/>
<path d="M160.431 98.2617C160.848 102.809 161.161 106.277 161.161 106.347C161.138 106.532 162.147 107.832 162.147 107.832L164.27 106.347V98.2965C162.611 98.7953 161.219 98.5285 160.431 98.2617Z" fill="#EDFDFC"/>
<path d="M149.527 77.4861C151.174 78.1473 153.749 78.8085 156.579 78.2053L156.974 73.9365C157.275 74.1917 157.449 74.3193 157.449 74.3193L157.832 78.0661C157.832 78.0661 160.976 79.2145 164.815 78.5069C164.827 76.8365 164.839 75.3633 164.827 74.1917C164.757 65.6658 162.124 64.4246 162.124 64.4246L157.635 63.2878L156.649 63.4618C155.083 62.9514 152.241 62.3598 151.081 64.3086C149.422 67.081 149.515 75.6301 149.515 75.6301C149.515 75.6301 149.515 76.3145 149.527 77.4861Z" fill="#473B1E"/>
<path d="M152.543 55.7593L148.343 53.8106L148.726 58.2649C148.726 58.2649 140.769 54.6457 140.363 54.2862C140.224 54.1702 140.073 53.8454 139.934 53.4742C139.783 53.0798 139.678 52.6738 139.586 52.2678C139.446 51.653 138.913 51.1542 138.739 50.9918C138.658 50.9222 138.437 50.5046 138.379 50.3074C138.344 50.1798 138.147 50.1914 138.124 50.319L138.078 50.5974C138.031 50.8758 138.136 51.1542 138.194 51.305L138.078 51.2586L137.892 53.1262L138.112 54.7617L139.377 55.7129C139.377 55.7129 150.466 63.7053 151.487 62.6613C152.577 61.5361 152.543 55.7593 152.543 55.7593Z" fill="#FFC0BB"/>
<path d="M153.958 106.335V108.644C153.958 108.829 153.795 108.992 153.598 108.992H148.019C147.613 108.992 147.462 108.481 147.798 108.273L150.861 106.335C150.849 106.335 152.16 107.205 153.958 106.335Z" fill="url(#paint35_linear)"/>
<path d="M164.259 106.347V108.655C164.259 108.841 164.096 109.003 163.899 109.003H158.319C157.913 109.003 157.763 108.493 158.099 108.284L161.161 106.347C161.161 106.347 162.461 107.217 164.259 106.347Z" fill="url(#paint36_linear)"/>
<path d="M151.591 46.3289C151.591 46.3289 150.733 46.5377 149.48 48.0804C148.227 49.6232 147.125 53.892 147.125 53.892L151.104 56.0728L153.691 50.9224L151.591 46.3289Z" fill="url(#paint37_linear)"/>
<path d="M162.843 70.9324C162.426 71.0832 162.008 71.2572 161.602 71.4312C161.196 71.6052 160.79 71.8024 160.384 71.988C159.978 72.1852 159.584 72.3824 159.189 72.5912C158.795 72.8 158.401 73.0088 158.018 73.2176L157.983 73.148C158.273 73.09 158.575 73.0436 158.865 73.0088C159.166 72.974 159.456 72.9624 159.758 72.9624C160.059 72.9624 160.349 72.974 160.651 73.0088L160.871 73.032L161.092 73.0668L161.196 73.09L161.301 73.1132L161.521 73.1712L161.301 73.1248L161.196 73.1016L161.092 73.09L160.871 73.0552L160.651 73.032C160.581 73.0204 160.5 73.0204 160.431 73.0204C160.361 73.0204 160.28 73.0088 160.21 73.0088H159.99C159.92 73.0088 159.839 73.0088 159.769 73.0088C159.479 73.0088 159.178 73.032 158.888 73.0668C158.598 73.1016 158.296 73.148 158.018 73.206L157.751 73.264L157.983 73.1364C158.366 72.916 158.76 72.7072 159.166 72.4984C159.561 72.2896 159.967 72.104 160.373 71.9068C160.779 71.7212 161.185 71.5472 161.602 71.3732C161.811 71.292 162.02 71.2108 162.229 71.1296C162.426 71.0716 162.635 71.002 162.843 70.9324Z" fill="#B7D972"/>
<path d="M151.069 70.7581C151.278 70.8277 151.499 70.8973 151.707 70.9785C151.916 71.0481 152.125 71.1409 152.334 71.2221C152.751 71.3961 153.157 71.57 153.563 71.7556C153.969 71.9412 154.364 72.1384 154.77 72.3472C155.164 72.5444 155.559 72.7648 155.941 72.9852L156.173 73.1128L155.907 73.0548C155.617 72.9968 155.327 72.9504 155.037 72.9156C154.747 72.8808 154.445 72.8576 154.155 72.8576C154.085 72.8576 154.004 72.8576 153.935 72.8576H153.714C153.645 72.8576 153.563 72.8692 153.494 72.8692C153.424 72.8692 153.343 72.8808 153.273 72.8808L153.053 72.904L152.833 72.9388L152.728 72.9504L152.624 72.9736L152.403 73.02L152.624 72.962L152.728 72.9388L152.833 72.9156L153.053 72.8808L153.273 72.8576C153.563 72.8228 153.865 72.8112 154.167 72.8112C154.468 72.8112 154.758 72.8228 155.06 72.8576C155.361 72.8924 155.651 72.9272 155.941 72.9968L155.907 73.0664C155.524 72.846 155.129 72.6372 154.735 72.4284C154.341 72.2196 153.946 72.0224 153.54 71.8252C153.134 71.6281 152.74 71.4425 152.322 71.2685C151.905 71.0829 151.487 70.9089 151.069 70.7581Z" fill="#B7D972"/>
<path opacity="0.5" d="M151.974 65.8398C152.334 65.9094 152.705 65.9558 153.076 66.0022C153.447 66.0486 153.807 66.095 154.178 66.1298C154.909 66.1994 155.651 66.2458 156.394 66.269C156.765 66.2806 157.136 66.2806 157.507 66.269C157.879 66.2574 158.25 66.2342 158.609 66.211C158.981 66.1762 159.34 66.1414 159.711 66.0834C160.071 66.0254 160.442 65.9558 160.79 65.8514C160.431 65.9558 160.071 66.037 159.711 66.095C159.352 66.153 158.981 66.1994 158.609 66.2342C158.238 66.269 157.867 66.2922 157.496 66.3038C157.125 66.3154 156.753 66.3154 156.382 66.3038C155.64 66.2806 154.897 66.2342 154.167 66.153C153.795 66.1182 153.436 66.0718 153.065 66.0138C152.693 65.9674 152.334 65.9094 151.974 65.8398Z" fill="#DAEEF7"/>
<path d="M161.637 38.4639C161.637 38.4639 162.426 34.4039 160.129 32.9655C157.844 31.5388 155.477 31.7823 153.9 32.7451C152.322 33.7079 150.919 36.7587 152.833 39.6935L157.554 36.7703L161.637 38.4639Z" fill="url(#paint38_linear)"/>
<path d="M160.303 67.22C160.315 67.2664 160.338 67.3012 160.361 67.3476L160.431 67.4636L160.558 67.7072L160.779 68.1132L161.393 69.1804C161.475 69.3428 162.287 70.7463 162.472 71.0595C162.24 70.7811 161.95 70.4911 161.753 70.1779C161.66 70.0271 161.567 69.8648 161.475 69.7024C161.382 69.54 161.301 69.3776 161.208 69.2152C161.034 68.8904 160.871 68.5656 160.721 68.2292C160.639 68.0668 160.57 67.8928 160.5 67.7304C160.465 67.6492 160.431 67.5564 160.396 67.4752C160.361 67.394 160.315 67.3012 160.303 67.22Z" fill="#EA9734"/>
<path d="M168.133 51.3052C166.323 49.1244 164.398 47.106 162.669 46.0156C161.219 45.1109 158.818 44.8557 158.238 44.8673C156.823 44.6933 155.802 44.6121 155.048 45.0065C152.786 45.3197 150.42 46.584 150.385 47.3844C150.234 51.34 150.188 54.3792 150.2 56.7108C150.2 56.7224 150.13 65.1555 150.188 66.9535C150.188 66.9535 159.352 68.9371 164.05 67.7539C164.05 67.7539 164.827 56.7224 163.725 53.7412L164.201 54.3444C164.189 54.3328 166.08 53.9036 168.133 51.3052Z" fill="url(#paint39_linear)"/>
<path d="M167.855 51.6531C166.613 53.1611 165.233 53.9731 164.537 54.2167L168.968 59.5294L160.848 68.2757L162.275 70.7581C163.4 70.2129 163.655 68.1366 163.655 68.1366C163.655 68.1366 173.701 61.4318 173.701 59.8194C173.713 57.6734 167.855 51.6531 167.855 51.6531Z" fill="#FFC0BB"/>
<path d="M167.924 51.5488C167.855 51.63 167.797 51.7112 167.715 51.7808L167.495 52.0128L167.391 52.1288L167.275 52.2332L167.054 52.4536C166.973 52.5232 166.903 52.5928 166.822 52.6624C166.671 52.8016 166.497 52.9292 166.335 53.0568C165.999 53.3004 165.651 53.5324 165.291 53.7296L165.152 53.7992C165.105 53.8224 165.059 53.8456 165.013 53.8688C164.92 53.9152 164.827 53.9616 164.734 53.9964C164.688 54.0196 164.641 54.0312 164.595 54.0544C164.549 54.0776 164.502 54.0892 164.456 54.1124C164.386 54.1356 164.317 54.1587 164.259 54.1819L163.771 53.602L163.215 52.9524C162.843 52.5232 162.472 52.094 162.101 51.6648C161.73 51.2356 161.347 50.818 160.964 50.3888C160.581 49.9712 160.199 49.5536 159.804 49.136C160.141 49.5884 160.489 50.0408 160.837 50.4816C161.185 50.9224 161.544 51.3748 161.892 51.8156C162.252 52.2564 162.611 52.6972 162.971 53.1264L163.516 53.7759L164.073 54.4255L164.131 54.4951L164.212 54.4719C164.328 54.4371 164.433 54.4023 164.537 54.3675C164.641 54.3327 164.746 54.2863 164.839 54.2399C164.943 54.1935 165.036 54.1472 165.129 54.1008C165.175 54.0776 165.221 54.0543 165.268 54.0311L165.407 53.9499C165.778 53.7412 166.126 53.486 166.463 53.2192L166.706 53.0104C166.787 52.9408 166.857 52.8712 166.938 52.79C167.008 52.7088 167.089 52.6392 167.159 52.5696L167.367 52.3376L167.472 52.2216L167.565 52.094L167.762 51.8504C167.889 51.6764 167.994 51.5024 168.121 51.3284L167.924 51.5488Z" fill="#002A24"/>
<path d="M155.037 45.1687C155.037 45.1687 156.858 46.2475 158.273 45.1687L157.937 42.5356L155.118 41.9556L155.037 45.1687Z" fill="#FFC0BB"/>
<g opacity="0.6">
<path opacity="0.6" d="M155.083 43.6724L155.13 41.9556L157.995 42.8488L158.076 43.4984C157.438 43.7188 156.22 44.0087 155.083 43.6724Z" fill="#FC8D84"/>
</g>
<path d="M153.088 41.1904C152.983 40.97 152.891 40.7496 152.833 40.506C152.647 39.868 152.577 39.2068 152.566 38.6268C152.566 38.4992 152.554 38.3832 152.543 38.2556C152.496 37.7568 152.543 37.2348 152.705 36.7128C153.227 35.0192 154.874 33.8477 156.695 33.8477C159.155 33.8593 161.011 35.8776 160.825 38.186C161.092 38.07 161.393 38.0584 161.637 38.186C162.113 38.4412 162.229 39.1024 161.904 39.6824C161.579 40.2508 160.929 40.5176 160.465 40.2624C160.396 40.2276 160.338 40.1812 160.291 40.1348C159.92 42.0836 158.134 43.4756 156.15 43.29C155.176 43.1972 154.329 42.7448 153.714 42.0836C153.668 42.0488 153.633 42.0024 153.587 41.9444C153.378 41.724 153.215 41.4688 153.088 41.1904Z" fill="#FFC0BB"/>
<path d="M157.078 38.2669C157.055 38.4641 157.206 38.6265 157.403 38.6497C157.6 38.6729 157.774 38.5221 157.797 38.3365C157.821 38.1393 157.67 37.9769 157.473 37.9537C157.264 37.9305 157.09 38.0697 157.078 38.2669Z" fill="#333333"/>
<path d="M153.958 38.1741C153.935 38.3713 154.085 38.5337 154.283 38.5569C154.48 38.5801 154.654 38.4293 154.677 38.2437C154.7 38.0465 154.549 37.8841 154.352 37.8609C154.155 37.8377 153.969 37.9769 153.958 38.1741Z" fill="#333333"/>
<path d="M156.707 37.5363C156.893 37.4783 157.067 37.4435 157.241 37.4203C157.415 37.3971 157.589 37.3971 157.751 37.4203C157.913 37.4435 158.076 37.4899 158.238 37.5595L158.296 37.5827C158.319 37.5943 158.331 37.6059 158.354 37.6175L158.47 37.6755C158.551 37.7219 158.621 37.7683 158.714 37.8147C158.667 37.7335 158.621 37.6523 158.551 37.5827C158.482 37.5131 158.424 37.4435 158.343 37.3855C158.192 37.2696 157.995 37.2 157.786 37.1652C157.589 37.142 157.38 37.1536 157.194 37.2232C157.009 37.2928 156.835 37.3855 156.707 37.5363Z" fill="url(#paint40_linear)"/>
<path d="M155.245 37.4665C155.129 37.3157 154.979 37.1997 154.793 37.1185C154.619 37.0373 154.41 37.0025 154.201 37.0141C154.004 37.0257 153.795 37.0837 153.633 37.1881C153.54 37.2345 153.471 37.3041 153.401 37.3621C153.331 37.4317 153.273 37.5013 153.227 37.5825C153.32 37.5477 153.401 37.5013 153.482 37.4665L153.61 37.4201C153.633 37.4085 153.645 37.3969 153.668 37.3969L153.726 37.3737C153.888 37.3157 154.051 37.2925 154.225 37.2809C154.387 37.2693 154.561 37.2925 154.735 37.3273C154.897 37.3389 155.071 37.3969 155.245 37.4665Z" fill="url(#paint41_linear)"/>
<path d="M155.814 37.4666C155.872 37.7102 155.883 37.9653 155.86 38.2205C155.849 38.3481 155.837 38.4757 155.802 38.6033C155.767 38.7309 155.721 38.8585 155.617 38.9745L155.57 39.0209L155.535 39.0557C155.524 39.0673 155.501 39.0905 155.489 39.1021C155.454 39.1369 155.431 39.1717 155.419 39.2181C155.385 39.2993 155.419 39.3921 155.477 39.4849C155.593 39.6705 155.825 39.7865 156.069 39.8677C155.814 39.8909 155.524 39.8213 155.327 39.6009C155.234 39.4965 155.164 39.3341 155.199 39.1717C155.211 39.1369 155.222 39.0905 155.234 39.0557C155.245 39.0209 155.269 38.9861 155.303 38.9513C155.327 38.9165 155.361 38.8933 155.385 38.8701C155.408 38.8585 155.408 38.8469 155.419 38.8353L155.443 38.8121C155.501 38.7425 155.559 38.6381 155.593 38.5221C155.64 38.4177 155.663 38.2901 155.686 38.1741C155.721 37.9537 155.767 37.7102 155.814 37.4666Z" fill="#F99893"/>
<path d="M154.689 40.3549C154.805 40.7841 155.338 41.1089 155.976 41.0973C156.603 41.0857 157.125 40.7493 157.229 40.3201L154.689 40.3549Z" fill="white"/>
<path d="M160.709 38.3364C160.941 38.116 161.138 38.1276 161.138 38.1276L160.976 36.8284L160.535 36.0628C160.535 36.0628 158.865 34.0097 158.807 33.9633C158.749 33.9169 157.507 33.2789 157.438 33.2441C157.357 33.2093 155.675 33.5341 155.675 33.5341C155.675 33.5341 152.67 33.0353 153.227 34.5781C153.796 36.1208 156 36.8516 156.104 36.782C155.733 36.4456 155.663 35.4597 155.663 35.4597C157.287 37.0488 160.257 38.1624 160.709 38.3364Z" fill="url(#paint42_linear)"/>
<path d="M134.632 26.6903L144.318 108.296L144.794 108.238L135.108 26.6555L134.632 26.6903Z" fill="#473B1E"/>
<path d="M136.987 52.9871C136.976 52.8943 137.01 52.6159 137.022 52.5463C137.057 52.3723 137.184 52.2331 137.358 52.1867L137.556 52.1287L137.567 52.5695C137.556 52.9059 137.544 52.8827 138.008 53.0798C138.669 53.3698 138.391 53.7178 138.391 53.7178C138.391 53.7178 138.205 53.9614 137.405 53.5554C137.393 53.5554 137.01 53.3466 136.987 52.9871Z" fill="#FFC0BB"/>
<path d="M136.918 53.3584C136.906 53.2772 136.941 52.9988 136.952 52.9408C136.987 52.7784 137.115 52.6508 137.277 52.6044L137.463 52.5464L137.474 52.964C137.463 53.2772 137.451 53.254 137.892 53.4512C138.518 53.7296 138.252 54.0544 138.252 54.0544C138.252 54.0544 138.078 54.2864 137.312 53.9036C137.312 53.9036 136.941 53.7064 136.918 53.3584Z" fill="#FFC0BB"/>
<path d="M137.022 53.8572C137.022 53.7876 137.034 53.5556 137.045 53.5092C137.068 53.37 137.173 53.2656 137.312 53.2192L137.474 53.1729L137.486 53.5208C137.474 53.7876 137.463 53.776 137.846 53.9384C138.379 54.1704 138.159 54.4488 138.159 54.4488C138.159 54.4488 138.008 54.646 137.358 54.3212C137.347 54.3212 137.034 54.1588 137.022 53.8572Z" fill="#FFC0BB"/>
<path d="M137.126 52.4536C137.115 52.3608 137.15 52.0824 137.161 52.0128C137.196 51.8388 137.324 51.6996 137.498 51.6532L137.695 51.5952L137.706 52.036C137.695 52.3724 137.683 52.3492 138.147 52.5464C138.808 52.8364 138.53 53.1844 138.53 53.1844C138.53 53.1844 138.344 53.428 137.544 53.022C137.544 53.022 137.15 52.8132 137.126 52.4536Z" fill="#FFC0BB"/>
<path d="M137.706 52.0361C137.706 52.1057 137.706 52.1869 137.718 52.2565C137.73 52.3261 137.799 52.3725 137.857 52.3957C137.996 52.4653 138.136 52.5117 138.275 52.5813C138.31 52.6045 138.344 52.6161 138.379 52.6393C138.414 52.6625 138.449 52.6857 138.472 52.7089C138.53 52.7553 138.576 52.8249 138.611 52.9061C138.634 52.9873 138.634 53.0685 138.6 53.1497C138.588 53.1729 138.576 53.1845 138.565 53.2077C138.542 53.2309 138.53 53.2425 138.507 53.2541C138.472 53.2773 138.426 53.2889 138.391 53.2889C138.31 53.3005 138.228 53.3005 138.147 53.2773C138.066 53.2657 137.996 53.2425 137.927 53.2193C137.776 53.1729 137.648 53.1033 137.509 53.0337C137.382 52.9525 137.266 52.8365 137.196 52.7089C137.161 52.6393 137.138 52.5697 137.126 52.4885C137.115 52.4537 137.126 52.4189 137.126 52.3725L137.138 52.2565V52.3725C137.138 52.4073 137.138 52.4421 137.15 52.4769C137.161 52.5465 137.184 52.6161 137.231 52.6741C137.3 52.8017 137.416 52.8945 137.544 52.9757C137.672 53.0337 137.811 53.1033 137.95 53.1497C138.089 53.1961 138.24 53.2309 138.379 53.2077C138.414 53.1961 138.449 53.1961 138.472 53.1729C138.484 53.1613 138.495 53.1497 138.507 53.1497C138.518 53.1381 138.518 53.1265 138.53 53.1033C138.553 53.0453 138.565 52.9757 138.542 52.9061C138.518 52.8481 138.484 52.7901 138.426 52.7321C138.402 52.7089 138.368 52.6857 138.344 52.6625C138.31 52.6393 138.286 52.6277 138.252 52.6045C138.124 52.5349 137.985 52.4769 137.846 52.4073C137.811 52.3841 137.776 52.3725 137.753 52.3377C137.73 52.3145 137.706 52.2681 137.706 52.2333C137.695 52.1753 137.706 52.1057 137.706 52.0361Z" fill="#F99893"/>
<path d="M138.286 53.2425C138.379 53.3121 138.46 53.4049 138.46 53.5325C138.46 53.5905 138.449 53.6485 138.414 53.7065C138.402 53.7181 138.391 53.7413 138.379 53.7413C138.368 53.7529 138.356 53.7645 138.333 53.7645C138.31 53.7761 138.275 53.7877 138.24 53.7993C138.112 53.8225 137.996 53.8109 137.88 53.7761C137.764 53.7529 137.648 53.7065 137.544 53.6601C137.486 53.6369 137.44 53.6137 137.382 53.5905C137.324 53.5673 137.277 53.5325 137.231 53.4977C137.138 53.4165 137.057 53.3353 136.999 53.2309C136.976 53.1729 136.952 53.1265 136.941 53.0685C136.941 53.0337 136.929 53.0105 136.929 52.9757V52.8945C136.941 52.7785 136.952 52.6741 136.976 52.5581C136.964 52.6741 136.964 52.7785 136.964 52.8945V52.9757C136.964 52.9989 136.976 53.0337 136.976 53.0569C136.987 53.1149 137.01 53.1613 137.034 53.2077C137.092 53.3005 137.161 53.3817 137.254 53.4513C137.3 53.4861 137.347 53.5209 137.393 53.5441C137.44 53.5673 137.498 53.5905 137.544 53.6137C137.648 53.6601 137.753 53.6949 137.869 53.7297C137.973 53.7645 138.089 53.7761 138.205 53.7645C138.252 53.7529 138.31 53.7413 138.333 53.6949C138.368 53.6485 138.379 53.6021 138.379 53.5441C138.379 53.4861 138.368 53.4397 138.344 53.3933C138.368 53.3353 138.321 53.2889 138.286 53.2425Z" fill="#F99893"/>
<path d="M138.286 53.7762C138.321 53.8458 138.321 53.9386 138.286 54.0198C138.275 54.043 138.263 54.0546 138.252 54.0778C138.228 54.0894 138.217 54.101 138.194 54.1126C138.147 54.1358 138.112 54.1358 138.066 54.1474C137.892 54.159 137.718 54.1126 137.567 54.0546C137.486 54.0198 137.416 53.985 137.335 53.9502C137.254 53.9154 137.184 53.8574 137.126 53.7994C137.068 53.7414 137.01 53.6718 136.976 53.6022C136.941 53.521 136.918 53.4398 136.918 53.3586C136.941 53.521 137.045 53.6602 137.161 53.7646C137.219 53.811 137.289 53.869 137.358 53.8922C137.428 53.927 137.509 53.9618 137.579 53.985C137.66 54.0082 137.73 54.043 137.811 54.0546C137.892 54.0778 137.973 54.0894 138.054 54.0894C138.089 54.0894 138.136 54.0894 138.17 54.0662C138.194 54.0546 138.205 54.0546 138.217 54.043C138.228 54.0314 138.24 54.0198 138.252 53.9966C138.298 53.9386 138.31 53.8574 138.286 53.7762Z" fill="#F99893"/>
<path d="M138.112 54.1123C138.17 54.1587 138.205 54.2283 138.205 54.3095C138.205 54.3443 138.194 54.3907 138.182 54.4255C138.182 54.4371 138.17 54.4487 138.17 54.4487C138.159 54.4603 138.159 54.4718 138.147 54.4718C138.124 54.4834 138.112 54.4951 138.089 54.5067C138.008 54.5299 137.927 54.5299 137.846 54.5183C137.764 54.5067 137.695 54.4835 137.625 54.4603C137.556 54.4371 137.486 54.4023 137.416 54.3675C137.382 54.3443 137.347 54.3327 137.312 54.3095C137.277 54.2863 137.254 54.2631 137.219 54.2399C137.103 54.1355 137.022 53.9963 137.022 53.8455C137.045 53.9963 137.138 54.1123 137.254 54.2051C137.277 54.2283 137.312 54.2515 137.347 54.2631C137.382 54.2863 137.416 54.2979 137.44 54.3095C137.509 54.3443 137.579 54.3675 137.648 54.3907C137.718 54.4139 137.788 54.4371 137.857 54.4487C137.927 54.4603 137.996 54.4603 138.066 54.4487C138.078 54.4487 138.101 54.4371 138.112 54.4255C138.124 54.4255 138.124 54.4139 138.124 54.4139C138.124 54.4139 138.136 54.4023 138.136 54.3907C138.159 54.3675 138.17 54.3327 138.17 54.2979C138.17 54.2631 138.17 54.2283 138.159 54.1935C138.159 54.1819 138.136 54.1471 138.112 54.1123Z" fill="#F99893"/>
<defs>
<linearGradient id="paint0_linear" x1="213.093" y1="-9.11791" x2="87.9734" y2="113.129" gradientUnits="userSpaceOnUse">
<stop stop-color="#53CD9F"/>
<stop offset="1" stop-color="#0D7A5C"/>
</linearGradient>
<linearGradient id="paint1_linear" x1="18.0476" y1="76.6292" x2="42.4661" y2="76.6292" gradientUnits="userSpaceOnUse">
<stop stop-color="#00503E"/>
<stop offset="1" stop-color="#023222"/>
</linearGradient>
<linearGradient id="paint2_linear" x1="7.45641" y1="91.6147" x2="43.1637" y2="91.6147" gradientUnits="userSpaceOnUse">
<stop stop-color="#C9CD55"/>
<stop offset="0.5065" stop-color="#659C52"/>
<stop offset="1" stop-color="#287F50"/>
</linearGradient>
<linearGradient id="paint3_linear" x1="2.12227" y1="90.816" x2="27.5633" y2="90.816" gradientUnits="userSpaceOnUse">
<stop stop-color="#00503E"/>
<stop offset="1" stop-color="#023222"/>
</linearGradient>
<linearGradient id="paint4_linear" x1="0.481719" y1="104.033" x2="45.1171" y2="104.033" gradientUnits="userSpaceOnUse">
<stop stop-color="#C9CD55"/>
<stop offset="0.5065" stop-color="#659C52"/>
<stop offset="1" stop-color="#287F50"/>
</linearGradient>
<linearGradient id="paint5_linear" x1="178.506" y1="90.2307" x2="199.664" y2="90.2307" gradientUnits="userSpaceOnUse">
<stop stop-color="#C9CD55"/>
<stop offset="0.5065" stop-color="#659C52"/>
<stop offset="1" stop-color="#287F50"/>
</linearGradient>
<linearGradient id="paint6_linear" x1="177.234" y1="98.2233" x2="206.216" y2="98.2233" gradientUnits="userSpaceOnUse">
<stop stop-color="#C9CD55"/>
<stop offset="0.5065" stop-color="#659C52"/>
<stop offset="1" stop-color="#287F50"/>
</linearGradient>
<linearGradient id="paint7_linear" x1="188.081" y1="28.3977" x2="149.62" y2="93.5109" gradientUnits="userSpaceOnUse">
<stop stop-color="#C9CD55"/>
<stop offset="0.5065" stop-color="#659C52"/>
<stop offset="1" stop-color="#287F50"/>
</linearGradient>
<linearGradient id="paint8_linear" x1="182.521" y1="105.583" x2="184.384" y2="105.583" gradientUnits="userSpaceOnUse">
<stop stop-color="#00503E"/>
<stop offset="1" stop-color="#023222"/>
</linearGradient>
<linearGradient id="paint9_linear" x1="128.911" y1="33.9882" x2="49.5415" y2="130.168" gradientUnits="userSpaceOnUse">
<stop stop-color="#C9CD55"/>
<stop offset="0.5065" stop-color="#659C52"/>
<stop offset="1" stop-color="#287F50"/>
</linearGradient>
<linearGradient id="paint10_linear" x1="38.245" y1="105.583" x2="40.1083" y2="105.583" gradientUnits="userSpaceOnUse">
<stop stop-color="#00503E"/>
<stop offset="1" stop-color="#023222"/>
</linearGradient>
<linearGradient id="paint11_linear" x1="38.245" y1="42.3504" x2="111.314" y2="42.3504" gradientUnits="userSpaceOnUse">
<stop stop-color="#C7A44F"/>
<stop offset="1" stop-color="#609A3F"/>
</linearGradient>
<linearGradient id="paint12_linear" x1="105.543" y1="35.6001" x2="117.158" y2="35.6001" gradientUnits="userSpaceOnUse">
<stop stop-color="#00503E"/>
<stop offset="1" stop-color="#023222"/>
</linearGradient>
<linearGradient id="paint13_linear" x1="111.933" y1="161.033" x2="199.014" y2="161.033" gradientUnits="userSpaceOnUse">
<stop stop-color="#53CD9F"/>
<stop offset="1" stop-color="#0D7A5C"/>
</linearGradient>
<linearGradient id="paint14_linear" x1="113.111" y1="161.922" x2="165.776" y2="161.922" gradientUnits="userSpaceOnUse">
<stop stop-color="#53CD9F"/>
<stop offset="1" stop-color="#0D7A5C"/>
</linearGradient>
<linearGradient id="paint15_linear" x1="161.572" y1="160.98" x2="203.791" y2="160.98" gradientUnits="userSpaceOnUse">
<stop stop-color="#53CD9F"/>
<stop offset="1" stop-color="#0D7A5C"/>
</linearGradient>
<linearGradient id="paint16_linear" x1="113.111" y1="145.402" x2="200.655" y2="145.402" gradientUnits="userSpaceOnUse">
<stop stop-color="#53CD9F"/>
<stop offset="1" stop-color="#0D7A5C"/>
</linearGradient>
<linearGradient id="paint17_linear" x1="115.916" y1="139.704" x2="202.801" y2="139.704" gradientUnits="userSpaceOnUse">
<stop stop-color="#00503E"/>
<stop offset="1" stop-color="#023222"/>
</linearGradient>
<linearGradient id="paint18_linear" x1="148.631" y1="140.472" x2="202.696" y2="140.472" gradientUnits="userSpaceOnUse">
<stop stop-color="#00503E"/>
<stop offset="1" stop-color="#023222"/>
</linearGradient>
<linearGradient id="paint19_linear" x1="111.658" y1="139.658" x2="153.261" y2="139.658" gradientUnits="userSpaceOnUse">
<stop stop-color="#00503E"/>
<stop offset="1" stop-color="#023222"/>
</linearGradient>
<linearGradient id="paint20_linear" x1="124.349" y1="122.77" x2="195.767" y2="122.77" gradientUnits="userSpaceOnUse">
<stop stop-color="#C9CD55"/>
<stop offset="0.5065" stop-color="#659C52"/>
<stop offset="1" stop-color="#287F50"/>
</linearGradient>
<linearGradient id="paint21_linear" x1="123.901" y1="123.484" x2="169.1" y2="123.484" gradientUnits="userSpaceOnUse">
<stop stop-color="#C9CD55"/>
<stop offset="0.5065" stop-color="#659C52"/>
<stop offset="1" stop-color="#287F50"/>
</linearGradient>
<linearGradient id="paint22_linear" x1="165.077" y1="122.745" x2="199.035" y2="122.745" gradientUnits="userSpaceOnUse">
<stop stop-color="#C9CD55"/>
<stop offset="0.5065" stop-color="#659C52"/>
<stop offset="1" stop-color="#287F50"/>
</linearGradient>
<linearGradient id="paint23_linear" x1="137.713" y1="113.65" x2="167.674" y2="113.65" gradientUnits="userSpaceOnUse">
<stop stop-color="#C9CD55"/>
<stop offset="0.5065" stop-color="#659C52"/>
<stop offset="1" stop-color="#287F50"/>
</linearGradient>
<linearGradient id="paint24_linear" x1="131.903" y1="123.605" x2="137.562" y2="123.605" gradientUnits="userSpaceOnUse">
<stop stop-color="#FB9A2B"/>
<stop offset="1" stop-color="#E65925"/>
</linearGradient>
<linearGradient id="paint25_linear" x1="161.572" y1="149.168" x2="165.73" y2="149.168" gradientUnits="userSpaceOnUse">
<stop stop-color="#FB9A2B"/>
<stop offset="1" stop-color="#E65925"/>
</linearGradient>
<linearGradient id="paint26_linear" x1="136.373" y1="164.365" x2="145.148" y2="164.365" gradientUnits="userSpaceOnUse">
<stop stop-color="#FB9A2B"/>
<stop offset="1" stop-color="#E65925"/>
</linearGradient>
<linearGradient id="paint27_linear" x1="83.9146" y1="56.3048" x2="89.5416" y2="56.3048" gradientUnits="userSpaceOnUse">
<stop stop-color="#FB9A2B"/>
<stop offset="1" stop-color="#E65925"/>
</linearGradient>
<linearGradient id="paint28_linear" x1="67.3115" y1="56.9671" x2="72.1138" y2="56.9671" gradientUnits="userSpaceOnUse">
<stop stop-color="#FB9A2B"/>
<stop offset="1" stop-color="#E65925"/>
</linearGradient>
<linearGradient id="paint29_linear" x1="65.984" y1="12.8058" x2="74.8215" y2="12.8058" gradientUnits="userSpaceOnUse">
<stop stop-color="#FB9A2B"/>
<stop offset="1" stop-color="#E65925"/>
</linearGradient>
<linearGradient id="paint30_linear" x1="73.6853" y1="110.336" x2="51.5021" y2="136.189" gradientUnits="userSpaceOnUse">
<stop stop-color="#00503E"/>
<stop offset="1" stop-color="#023222"/>
</linearGradient>
<linearGradient id="paint31_linear" x1="69.8672" y1="107.059" x2="47.6841" y2="132.913" gradientUnits="userSpaceOnUse">
<stop stop-color="#00503E"/>
<stop offset="1" stop-color="#023222"/>
</linearGradient>
<linearGradient id="paint32_linear" x1="65.1763" y1="103.034" x2="42.9932" y2="128.888" gradientUnits="userSpaceOnUse">
<stop stop-color="#00503E"/>
<stop offset="1" stop-color="#023222"/>
</linearGradient>
<linearGradient id="paint33_linear" x1="74.7763" y1="111.271" x2="52.5931" y2="137.125" gradientUnits="userSpaceOnUse">
<stop stop-color="#00503E"/>
<stop offset="1" stop-color="#023222"/>
</linearGradient>
<linearGradient id="paint34_linear" x1="119.889" y1="30.141" x2="135.408" y2="30.141" gradientUnits="userSpaceOnUse">
<stop stop-color="#FB9A2B"/>
<stop offset="1" stop-color="#E65925"/>
</linearGradient>
<linearGradient id="paint35_linear" x1="147.606" y1="107.668" x2="153.954" y2="107.668" gradientUnits="userSpaceOnUse">
<stop stop-color="#FB9A2B"/>
<stop offset="1" stop-color="#E65925"/>
</linearGradient>
<linearGradient id="paint36_linear" x1="157.912" y1="107.673" x2="164.259" y2="107.673" gradientUnits="userSpaceOnUse">
<stop stop-color="#FB9A2B"/>
<stop offset="1" stop-color="#E65925"/>
</linearGradient>
<linearGradient id="paint37_linear" x1="137.256" y1="59.7322" x2="149.066" y2="52.5506" gradientUnits="userSpaceOnUse">
<stop stop-color="#53CD9F"/>
<stop offset="1" stop-color="#0D7A5C"/>
</linearGradient>
<linearGradient id="paint38_linear" x1="152.078" y1="32.4518" x2="159.738" y2="39.1547" gradientUnits="userSpaceOnUse">
<stop stop-color="#FB9A2B"/>
<stop offset="1" stop-color="#E65925"/>
</linearGradient>
<linearGradient id="paint39_linear" x1="150.168" y1="56.4188" x2="168.135" y2="56.4188" gradientUnits="userSpaceOnUse">
<stop stop-color="#53CD9F"/>
<stop offset="1" stop-color="#0D7A5C"/>
</linearGradient>
<linearGradient id="paint40_linear" x1="151.959" y1="32.5882" x2="159.62" y2="39.2909" gradientUnits="userSpaceOnUse">
<stop stop-color="#FB9A2B"/>
<stop offset="1" stop-color="#E65925"/>
</linearGradient>
<linearGradient id="paint41_linear" x1="150.51" y1="34.2441" x2="158.17" y2="40.9469" gradientUnits="userSpaceOnUse">
<stop stop-color="#FB9A2B"/>
<stop offset="1" stop-color="#E65925"/>
</linearGradient>
<linearGradient id="paint42_linear" x1="152.792" y1="31.6357" x2="160.453" y2="38.3386" gradientUnits="userSpaceOnUse">
<stop stop-color="#FB9A2B"/>
<stop offset="1" stop-color="#E65925"/>
</linearGradient>
</defs>
</svg>
