<svg width="42" height="64" viewBox="0 0 42 64" fill="none" xmlns="http://www.w3.org/2000/svg">
<path d="M3.44462 34.5085C2.63281 37.6949 3.78289 41.2204 5.94773 43.7288C8.18022 46.2373 11.2922 47.8644 14.6071 48.7458C16.0954 49.1526 17.6514 49.4237 19.2074 49.4237C22.5899 49.4237 25.8372 48.2712 28.8815 46.8475C31.3846 45.6271 33.7524 44.2712 35.579 42.2373C37.4055 40.2712 38.6909 37.6949 38.6233 34.9831C38.488 30.6441 35.0378 26.9831 34.6318 22.7119C34.4965 21.017 34.8348 19.3221 35.1054 17.695C35.4437 15.5933 35.6466 13.4916 35.2407 11.4577C34.8348 9.42377 33.82 7.38987 32.0611 6.16953C30.3022 4.94919 27.5961 1.28818 25.7019 2.30513C23.4018 0.474623 20.5604 1.35598 17.5161 1.42377C14.4718 1.55937 11.3598 4.20344 9.39794 6.44073C6.62424 9.62716 6.21833 14.1695 7.2331 18.2373C7.97726 21.1526 9.33029 24.2034 8.04492 27.0509C7.36841 28.6102 6.01538 29.7627 5.00061 31.1187C4.3241 32.1356 3.71523 33.2882 3.44462 34.5085Z" fill="#6E2C29"/>
<path d="M26.5137 31.0509C26.5137 31.0509 26.446 31.0509 26.3107 31.0509C25.296 30.9831 24.5518 30.1695 24.5518 29.1526V24.2712H17.4484V29.2204C17.4484 30.2374 16.7042 31.0509 15.6895 31.1187C15.5542 31.1187 15.4189 31.1187 15.4189 31.1187L12.5775 41.0848H29.8286L26.5137 31.0509Z" fill="#FBA489"/>
<path d="M7.50354 32.9492C7.50354 32.9492 4.9328 35.5933 3.24152 40.8814C0.873724 48.2034 -0.614604 59.0509 1.55024 61.6272C2.565 62.8475 7.23295 63.7288 8.11242 62.2373C10.2096 58.6441 11.8332 46.3729 11.8332 46.3729C11.8332 46.3729 13.7951 34.4407 7.50354 32.9492Z" fill="#1ED2CF"/>
<path d="M34.4965 32.9492C34.4965 32.9492 37.0672 35.5933 38.7585 40.8814C41.1263 48.2034 42.6146 59.0509 40.4498 61.6272C39.435 62.8475 34.767 63.7288 33.8876 62.2373C31.7904 58.6441 30.1668 46.3729 30.1668 46.3729C30.1668 46.3729 28.2049 34.4407 34.4965 32.9492Z" fill="#1ED2CF"/>
<path d="M17.3794 28.4745C18.4618 29.0169 19.6795 29.3559 20.9649 29.3559C22.2503 29.3559 23.4004 29.0169 24.5504 28.4745V22.8474H17.447V28.4745H17.3794Z" fill="#F1856A"/>
<path d="M15.2832 17.0848C15.2832 18.7797 14.0654 20.2034 12.5771 20.2034C11.0888 20.2034 9.93872 17.4238 9.93872 15.7289C9.93872 14.0339 11.0888 13.7628 12.5771 14.0339C14.0654 14.2373 15.2832 15.3899 15.2832 17.0848Z" fill="#FBA489"/>
<path d="M26.5809 17.0849C26.5809 18.7798 27.7987 20.2035 29.287 20.2035C30.7753 20.2035 31.9254 17.4239 31.9254 15.729C31.9254 14.0341 30.7753 13.7629 29.287 14.0341C27.7987 14.2375 26.5809 15.39 26.5809 17.0849Z" fill="#FBA489"/>
<path d="M29.3555 8.47463C28.3408 5.28819 20.9668 5.15259 20.9668 5.15259C20.9668 5.15259 13.5928 5.28819 12.578 8.47463C11.5632 11.6611 11.6309 18.2373 13.1869 21.4238C14.7429 24.6102 17.5842 27.2543 20.9668 27.2543C24.3493 27.2543 27.1907 24.6102 28.7467 21.4238C30.235 18.2373 30.3703 11.6611 29.3555 8.47463Z" fill="#FBA489"/>
<path d="M14.6065 13.7627C14.5389 13.7627 14.4713 13.7627 14.4036 13.6949C14.2683 13.6271 14.2683 13.4237 14.4036 13.2881C14.4036 13.2881 15.8243 11.661 17.9215 12.6102C18.0568 12.678 18.1244 12.8135 18.0568 12.9491C17.9891 13.0847 17.8538 13.1525 17.7185 13.0847C15.9596 12.2712 14.8095 13.6271 14.8095 13.6271C14.7419 13.6949 14.6742 13.7627 14.6065 13.7627Z" fill="#6E2C29"/>
<path d="M27.3262 13.7627C27.3939 13.7627 27.4615 13.7627 27.5292 13.6949C27.6645 13.6271 27.6645 13.4237 27.5292 13.2881C27.5292 13.2881 26.1085 11.661 24.0113 12.6102C23.876 12.678 23.8084 12.8135 23.876 12.9491C23.9437 13.0847 24.079 13.1525 24.2143 13.0847C25.9732 12.2712 27.1233 13.6271 27.1233 13.6271C27.1909 13.7627 27.2586 13.7627 27.3262 13.7627Z" fill="#6E2C29"/>
<path d="M17.1781 15.5931C17.1781 16.3389 16.7045 16.8812 16.1633 16.8812C15.6221 16.8812 15.1486 16.2711 15.1486 15.5931C15.1486 14.8473 15.6221 14.305 16.1633 14.305C16.7722 14.2372 17.1781 14.8473 17.1781 15.5931Z" fill="#391829"/>
<path d="M26.7838 15.5931C26.7838 16.3389 26.3103 16.8812 25.769 16.8812C25.2278 16.8812 24.7543 16.2711 24.7543 15.5931C24.7543 14.8473 25.2278 14.305 25.769 14.305C26.3103 14.2372 26.7838 14.8473 26.7838 15.5931Z" fill="#391829"/>
<path d="M17.7874 21.4238C18.1256 22.2374 19.0727 24.0001 20.967 24.0001C22.8612 24.0001 23.8083 22.2374 24.1466 21.4238H17.7874Z" fill="white"/>
<path d="M14.4035 5.96616C14.9447 5.89837 15.4859 5.89837 16.0271 6.03396C16.5683 6.16956 16.9742 6.57634 17.1095 7.05091C17.2449 7.66108 16.7713 8.27125 16.3654 8.74583C15.7565 9.49159 15.1477 10.1696 14.5388 10.9153C14.1329 11.4577 13.6593 11.9323 13.3887 12.5424C13.1858 13.017 13.0505 13.5594 12.9828 14.1018C12.9152 14.8475 12.8475 15.5933 12.8475 16.339C12.8475 16.4068 12.8475 16.4746 12.7799 16.5424C12.7122 16.6102 12.6446 16.678 12.5769 16.678C12.3063 16.8136 12.0357 16.9492 11.7651 17.017C11.4269 15.6611 11.0209 11.3221 10.8856 10.8475C10.615 9.96617 10.4121 9.08481 10.2768 8.20345C10.2768 8.00006 10.2091 7.79668 10.2768 7.59329C10.4121 7.11871 10.818 6.84752 11.2915 6.64413C12.2387 6.23735 13.3211 6.03396 14.4035 5.96616Z" fill="#6E2C29"/>
<path d="M29.9632 7.2542C29.6249 6.71183 28.6778 4.27115 28.0689 4.13556C27.2571 3.93217 26.4453 3.79658 25.6335 3.52539C25.7011 3.66098 25.7012 3.79658 25.7012 3.86437C25.7688 4.13556 26.3777 5.89827 25.9041 6.03386C25.3629 6.16945 24.957 6.57623 24.8217 7.05081C24.6864 7.66098 25.1599 8.27115 25.5658 8.74572C26.1747 9.49149 26.7836 10.1695 27.3924 10.9152C27.7983 11.4576 28.2719 11.9322 28.5425 12.5423C28.7454 13.0169 28.8808 13.5593 28.9484 14.1016C29.0161 14.8474 29.0837 15.5932 29.0837 16.3389C29.0837 16.4067 29.0837 16.4745 29.1513 16.5423C29.219 16.6101 29.2867 16.6779 29.3543 16.6779C29.6249 16.8135 29.8955 16.9491 30.1661 17.0169V16.9491C30.5044 15.5932 30.6397 14.1694 30.775 12.8135C30.572 10.983 31.0456 8.94912 29.9632 7.2542Z" fill="#6E2C29"/>
<path d="M20.966 19.6612C20.4248 19.6612 19.9512 19.39 19.8159 19.051C19.7483 19.1188 19.7483 19.1866 19.7483 19.2544C19.7483 19.729 20.2895 20.068 21.0337 20.068C21.7102 20.068 22.3191 19.729 22.3191 19.2544C22.3191 19.1866 22.2514 19.1188 22.2514 19.051C21.9808 19.4578 21.5072 19.6612 20.966 19.6612Z" fill="#E4776D"/>
<path d="M16.5019 18.9153C16.5019 19.7289 15.8254 20.339 15.0812 20.339C14.2694 20.339 13.6605 19.7289 13.6605 18.9153C13.6605 18.1018 14.337 17.4916 15.0812 17.4916C15.8254 17.4916 16.5019 18.1695 16.5019 18.9153Z" fill="#F8918B"/>
<path d="M28.2734 18.9153C28.2734 19.7289 27.5969 20.339 26.8527 20.339C26.0409 20.339 25.432 19.7289 25.432 18.9153C25.432 18.1018 26.1085 17.4916 26.8527 17.4916C27.6645 17.4916 28.2734 18.1695 28.2734 18.9153Z" fill="#F8918B"/>
<path d="M34.4966 32.9492C32.467 32.4068 28.002 31.1187 26.5137 31.0509C26.0402 32.2034 23.74 33.017 20.9663 33.017C18.1926 33.017 15.8925 32.1356 15.4189 31.0509C13.9306 31.1187 9.53325 32.4746 7.50371 32.9492C7.50371 32.9492 5.06828 36 6.08305 39.1187C7.84198 44.6102 10.3451 52.8136 10.548 56.4068C10.6833 59.3221 10.6157 61.8984 10.4804 63.7967H31.3846C31.2493 61.8306 31.1817 59.3221 31.317 56.4068C31.5199 52.8136 34.023 44.6102 35.7819 39.1187C36.7967 36 34.4966 32.9492 34.4966 32.9492Z" fill="#1ED2CF"/>
<path d="M24.8226 3.86454C23.9432 3.66115 23.199 3.45776 22.4548 3.11877C20.4929 3.52555 18.5311 4.13573 16.6368 4.54251C15.3514 4.81369 14.0661 5.28827 13.119 6.23742C12.4425 6.91539 11.7659 7.93233 11.6983 8.94928C11.6306 9.83064 11.6983 10.9154 12.2395 11.6611C12.4424 12.0001 12.7807 12.4069 12.6454 12.7459C13.4572 12.2713 13.9984 11.39 14.7426 10.9154C15.6221 10.373 16.7721 10.3052 17.8546 10.373C18.937 10.4408 19.9517 10.712 21.0341 10.6442C22.2519 10.5764 23.4696 10.034 24.4844 9.35606C25.4991 8.67809 26.5139 7.72894 27.1904 6.71199C27.2581 6.5764 27.664 6.03403 28.1375 5.35606C27.1228 4.88149 26.108 4.13573 24.8226 3.86454Z" fill="#6E2C29"/>
<path d="M34.1571 61.4912H8.2467V62.7794H34.1571V61.4912Z" fill="#1E0327"/>
<path d="M35.6469 39.8644H6.75985C6.08334 39.8644 5.54211 40.4068 5.54211 41.0169V41.5593V60.6779C5.54211 61.3559 6.08334 61.8305 6.75985 61.8305H35.6469C36.3234 61.8305 36.8647 61.2881 36.8647 60.6779V41.5593V41.0169C36.8647 40.4068 36.3234 39.8644 35.6469 39.8644Z" fill="#382040"/>
<path d="M36.3904 62.4407H5.94739V64H36.3904V62.4407Z" fill="#382040"/>
<path d="M22.387 50.8474C22.387 51.4575 21.8458 51.9999 21.1693 51.9999C20.4927 51.9999 19.9515 51.5253 19.9515 50.8474C19.9515 50.2372 20.4927 49.6948 21.1693 49.6948C21.8458 49.7626 22.387 50.2372 22.387 50.8474Z" fill="#8E8193"/>
<path d="M20.8981 0C13.2535 0 10.6151 5.01695 10.6151 11.1864C10.6151 12.0678 10.6828 12.8813 10.8857 13.6949H12.2387C12.2387 13.6949 12.0358 11.8644 12.1034 10.9152C12.2388 7.52541 13.2535 4.81355 15.5537 3.18644C16.7714 2.30508 18.598 2.0339 20.8981 2.0339C23.1983 2.0339 25.0248 2.30508 26.2426 3.18644C28.5427 4.81355 29.5575 7.52541 29.6928 10.9152C29.7604 11.8644 29.5575 13.6949 29.5575 13.6949H30.9105C31.1134 12.8813 31.1811 12.0678 31.1811 11.1864C31.2487 5.01695 28.6104 0.0677966 20.8981 0Z" fill="#382040"/>
<path d="M11.2917 16.8136C11.427 18.3051 10.7505 19.5933 9.7357 19.6611C8.72093 19.7289 7.84146 18.5763 7.70616 17.0848C7.57086 15.5933 8.24736 14.3051 9.26213 14.2373C10.2092 14.1695 11.1564 15.3221 11.2917 16.8136Z" fill="#DBD4D1"/>
<path d="M11.2237 19.5253C11.2914 20.0677 10.8855 20.4745 10.3443 20.5423C9.80305 20.6101 9.32949 20.2033 9.26184 19.7287L8.72063 14.1694C8.65298 13.627 9.05888 13.2202 9.60009 13.1524C10.1413 13.0846 10.6149 13.4914 10.6825 13.966L11.2237 19.5253Z" fill="#DEDEDE"/>
<path d="M13.1864 20.4068C13.254 21.0847 12.7128 21.6949 11.9686 21.7627C11.2245 21.8305 10.548 21.2881 10.4803 20.6102L9.8038 13.3559C9.73615 12.678 10.2774 12.0678 11.0215 12C11.7657 11.9322 12.4422 12.4746 12.5099 13.1525L13.1864 20.4068Z" fill="#382040"/>
<path d="M30.5052 16.8136C30.3699 18.3051 31.0465 19.5933 32.0612 19.6611C33.076 19.7289 33.9555 18.5763 34.0908 17.0848C34.2261 15.5933 33.5495 14.3051 32.5348 14.2373C31.5877 14.1695 30.6405 15.3221 30.5052 16.8136Z" fill="#DBD4D1"/>
<path d="M30.5727 19.5253C30.505 20.0677 30.911 20.4745 31.4522 20.5423C31.9934 20.6101 32.4669 20.2033 32.5346 19.7287L33.0758 14.1694C33.1434 13.627 32.7375 13.2202 32.1963 13.1524C31.6551 13.0846 31.1816 13.4914 31.1139 13.966L30.5727 19.5253Z" fill="#DEDEDE"/>
<path d="M28.6108 20.4068C28.5432 21.0847 29.0844 21.6949 29.8285 21.7627C30.5727 21.8305 31.2492 21.2881 31.3169 20.6102L31.9934 13.3559C32.061 12.678 31.5198 12.0678 30.7757 12C30.0315 11.9322 29.355 12.4746 29.2873 13.1525L28.6108 20.4068Z" fill="#382040"/>
</svg>
