<svg width="76" height="64" viewBox="0 0 76 64" fill="none" xmlns="http://www.w3.org/2000/svg">
<path d="M66.1581 33.2831C66.1581 31.8834 65.5367 30.5614 64.6045 29.6282C65.2259 28.7728 65.6143 27.7619 65.6143 26.5954C65.6143 24.6513 64.5268 23.0182 62.9732 22.0851C62.9732 22.0073 62.9732 22.0073 62.9732 21.9295C62.9732 19.7521 61.575 17.8858 59.633 17.0304C58.8562 15.0085 56.7589 13.6088 54.4286 13.6088C54.3509 13.6088 54.1955 13.6088 54.1178 13.6088C53.7295 11.5869 51.8651 10.0316 49.5348 10.0316C46.9714 10.0316 44.9517 11.9757 44.874 14.3864V45.4144C44.9517 48.7582 47.9812 51.4022 51.7098 51.4022C53.8848 51.4022 55.7491 50.5468 57.0696 49.147C57.458 49.2248 57.8464 49.3026 58.2348 49.3026C61.342 49.3026 63.8277 46.8919 63.8277 43.9368C63.8277 43.6258 63.8277 43.3147 63.75 43.0037C65.2259 42.0705 66.1581 40.4374 66.1581 38.6489C66.1581 37.6379 65.8474 36.7825 65.3813 36.0049C65.8474 35.2272 66.1581 34.2941 66.1581 33.2831Z" fill="#FF2B55"/>
<path d="M48.6022 45.1811C48.3692 44.4034 48.4468 43.6258 48.8352 42.6926C49.0683 42.8481 49.2236 42.9259 49.5343 42.9259C49.612 42.9259 49.6897 42.9259 49.6897 42.9259C51.0879 42.9259 52.7192 41.3706 52.8745 41.1373L52.3308 40.593C51.8647 41.0596 50.4665 42.226 49.5343 42.1483C49.379 42.1483 49.2236 42.0705 49.1459 41.9927C49.2236 41.915 49.2236 41.8372 49.3013 41.7594C52.2531 37.2491 52.0977 36.627 50.0004 34.5274L49.7674 34.2941L49.2236 34.8384L49.4567 35.0717C51.2433 36.8603 51.4763 37.0936 48.6799 41.3706C47.8254 42.6926 47.5147 43.9368 47.8254 45.0255C47.67 44.9478 47.5147 44.9478 47.2816 44.9478C46.4272 45.0255 45.9611 45.6476 45.8834 45.7254L46.5048 46.192C46.5048 46.192 46.8156 45.8032 47.2816 45.7254C47.5924 45.7254 47.9031 45.8809 48.2138 46.192C49.2236 47.825 51.321 48.5249 51.3986 48.6027L51.6317 47.9028C51.7093 47.9028 49.3013 47.0474 48.6022 45.1811Z" fill="white"/>
<path d="M56.2152 27.9173C55.7491 29.8614 56.3706 31.0279 57.1473 31.8055C56.4482 32.4276 55.7491 32.7387 55.2054 32.5054C54.7393 32.2721 54.4286 31.5722 54.5063 30.4835C54.5839 29.5504 54.2732 28.7727 53.7295 28.1506C52.642 26.9064 50.7 26.8286 50.6223 26.8286V27.6063C50.6223 27.6063 52.3312 27.684 53.1857 28.695C53.5741 29.1615 53.8072 29.7837 53.7295 30.4835C53.5741 32.4276 54.4286 33.0498 54.8947 33.283C55.1277 33.3608 55.3607 33.4386 55.5161 33.4386C56.2152 33.4386 56.992 33.0498 57.6911 32.3499C58.0018 32.5832 58.2348 32.7387 58.5456 32.8942C58.8563 33.0498 59.0893 33.2831 59.3223 33.4386C59.8661 33.9052 60.4875 34.605 60.4099 35.3049C60.3322 36.0048 59.5554 36.6269 58.3125 37.249C58.1572 37.3268 58.0018 37.4046 57.8465 37.4823C57.3027 36.3936 56.6036 35.7715 55.8268 35.616C54.7393 35.4604 53.8848 36.3159 53.8848 36.3159L54.4286 36.8602C54.4286 36.8602 54.9723 36.2381 55.6715 36.3936C56.2152 36.4714 56.6813 37.0157 57.1473 37.9489C56.759 38.3377 56.4482 38.8043 56.4482 39.2709C56.2929 40.8262 58.1572 42.3037 58.2348 42.3815L58.7009 41.7594C58.2349 41.4483 57.1474 40.3596 57.225 39.3487C57.3027 38.8043 57.7688 38.3377 58.6232 37.9489C60.1768 37.249 61.0313 36.3936 61.1866 35.3827C61.2643 34.5273 60.7983 33.6719 59.7884 32.8165C59.5554 32.5832 59.2447 32.4276 58.934 32.1943C57.6911 31.4167 56.2929 30.4835 56.8366 28.0728L56.2152 27.9173Z" fill="white"/>
<path d="M60.7199 27.6842C60.3315 27.062 60.5646 26.0511 61.2637 24.6514C61.8851 23.4849 61.9628 22.3962 61.5744 21.5408C60.8753 20.0633 58.8556 19.6744 58.778 19.6744L58.6226 20.4521C58.6226 20.4521 60.2538 20.7631 60.7976 21.8518C61.0306 22.3184 61.0306 22.9405 60.7976 23.5627C60.0985 23.0183 59.4771 22.785 58.8556 22.9405C57.6128 23.1738 56.9913 24.7291 56.9913 24.8069L57.6904 25.1179C57.6904 25.1179 58.1565 23.9515 59.011 23.7959C59.4771 23.7182 59.9431 23.9515 60.4869 24.4181C59.6324 26.0511 59.4771 27.2953 60.0208 28.1507C60.5646 29.0839 61.7298 29.1617 62.1958 29.1617V28.384C61.8851 28.3063 61.1083 28.3063 60.7199 27.6842Z" fill="white"/>
<path d="M62.9728 32.7388L62.5067 33.3609C62.5067 33.3609 63.6719 34.3718 63.6719 35.616C63.6719 36.3159 63.2835 37.0158 62.5067 37.7157L63.0505 38.3378C63.9826 37.5602 64.4487 36.627 64.4487 35.6938C64.371 33.9052 63.0505 32.7388 62.9728 32.7388Z" fill="white"/>
<path d="M47.0501 19.9854L47.5162 19.3633C47.2055 19.13 46.584 18.6634 46.6617 18.2746C46.6617 17.9635 47.0501 17.3414 48.9144 16.5638C50.3126 15.9417 51.0117 15.2418 51.0117 14.4641C51.0894 13.2977 49.6135 12.4423 49.4582 12.3645L49.0698 13.0644C49.3805 13.2199 50.235 13.842 50.235 14.4641C50.235 14.9307 49.6135 15.4751 48.6037 15.8639C46.8948 16.6415 45.9626 17.4192 45.8849 18.1968C45.8072 19.0522 46.584 19.6743 47.0501 19.9854Z" fill="white"/>
<path d="M54.4282 20.5298C54.2728 20.9186 53.6514 21.463 50.6996 21.3852C48.5246 21.3075 47.2817 21.6185 46.8156 22.3962C46.1942 23.4071 46.8933 24.7291 47.5924 26.0511C48.5246 27.8397 48.9907 29.0061 47.9032 29.5505L48.2916 30.2503C50.1559 29.2394 49.0683 27.2953 48.2916 25.74C47.7478 24.6513 47.1264 23.4849 47.5148 22.8627C47.7478 22.5517 48.4469 22.1629 50.4666 22.1629C50.2335 23.096 50.2335 23.7959 50.6996 24.1847C50.9326 24.3403 51.1657 24.418 51.4764 24.418C52.1755 24.418 53.03 23.9514 53.1853 23.8737L52.7969 23.1738C52.2532 23.4849 51.3987 23.7959 51.1657 23.5626C51.0103 23.4071 51.0103 23.0183 51.2434 22.1629C53.5737 22.1629 54.8166 21.774 55.205 20.8409C55.3603 20.3743 55.2827 19.9077 55.0496 19.4411C55.438 19.3633 55.7487 19.2078 56.0595 18.9745C56.7586 18.1969 56.4479 16.7971 56.4479 16.7194L55.6711 16.8749C55.6711 16.8749 55.9041 17.8858 55.438 18.4302C55.2827 18.6635 54.9719 18.7412 54.6612 18.7412C54.0398 17.8081 53.1077 17.0304 52.9523 16.9527L52.4862 17.5748C53.3407 18.1969 54.7389 19.6744 54.4282 20.5298Z" fill="white"/>
<path d="M48.3699 37.1713L48.4475 36.3937C48.3699 36.3937 47.127 36.3159 46.5056 37.1713C46.0395 37.8712 46.1949 38.8044 46.9717 40.1264L47.6708 39.7376C47.127 38.7266 46.9716 38.0267 47.2047 37.6379C47.5154 37.1713 48.1368 37.1713 48.3699 37.1713Z" fill="white"/>
<path d="M50.0777 18.508C49.3786 18.9746 49.4563 19.9855 49.4563 20.0633L50.2331 19.9855C50.2331 19.7522 50.2331 19.2856 50.4661 19.1301C50.6215 18.9746 51.0099 19.0523 51.5536 19.3634L51.942 18.6635C51.1652 18.2747 50.5438 18.1969 50.0777 18.508Z" fill="white"/>
<path d="M49.845 32.8165C51.3209 32.972 52.253 32.7388 52.5637 32.0389C53.0298 31.1835 52.253 29.9392 51.9423 29.5504L51.3209 30.0948C51.5539 30.4058 52.0976 31.2612 51.8646 31.7278C51.7092 32.0389 51.0101 32.1944 49.9226 32.0389C48.4467 31.8833 47.4369 32.1166 46.8932 32.7388C46.2717 33.5164 46.5824 34.6051 46.5824 34.6829L47.3592 34.4496C47.3592 34.4496 47.1262 33.7497 47.5146 33.2831C47.8253 32.8165 48.6021 32.661 49.845 32.8165Z" fill="white"/>
<path d="M58.1572 45.5699C57.7688 45.6476 57.4581 45.6476 57.0697 45.5699C57.3804 45.1033 57.5358 44.6367 57.3804 44.0924C57.1474 42.5371 55.05 41.4484 54.9724 41.4484L54.584 42.1482C55.05 42.3815 56.3706 43.3147 56.5259 44.2479C56.6036 44.6367 56.4483 45.0255 56.1375 45.3366C55.5161 45.1033 55.05 44.7145 55.05 44.7145L54.8947 44.5589L54.6616 44.6367C52.7197 45.5699 51.8652 44.4812 51.8652 44.4034L51.2438 44.87C51.2438 44.87 52.409 46.503 54.817 45.4921C55.2054 45.8032 56.2929 46.4253 57.5358 46.4253C57.7688 46.4253 58.0018 46.4253 58.2349 46.3475C59.5554 46.1142 60.5653 45.1811 61.4197 43.548L60.7206 43.1592C60.0992 44.5589 59.167 45.3366 58.1572 45.5699Z" fill="white"/>
<path d="M10.2295 33.2831C10.2295 31.8834 10.8509 30.5614 11.7831 29.6282C11.1616 28.7728 10.7732 27.7619 10.7732 26.5954C10.7732 24.6513 11.8608 23.0182 13.4143 22.0851C13.4143 22.0073 13.4143 22.0073 13.4143 21.9295C13.4143 19.7521 14.8126 17.8858 16.7545 17.0304C17.5313 15.0085 19.6287 13.6088 21.959 13.6088C22.0367 13.6088 22.1921 13.6088 22.2697 13.6088C22.6581 11.5869 24.5224 10.0316 26.8528 10.0316C29.4162 10.0316 31.4359 11.9757 31.5135 14.3864V45.4144C31.4359 48.7582 28.4064 51.4022 24.6778 51.4022C22.5028 51.4022 20.6385 50.5468 19.3179 49.147C18.9295 49.2248 18.5411 49.3026 18.1527 49.3026C15.0456 49.3026 12.5599 46.8919 12.5599 43.9368C12.5599 43.6258 12.5599 43.3147 12.6375 43.0037C11.1616 42.0705 10.2295 40.4374 10.2295 38.6489C10.2295 37.6379 10.5402 36.7825 11.0063 36.0049C10.4625 35.2272 10.2295 34.2941 10.2295 33.2831Z" fill="#1EB1FA"/>
<path d="M27.7073 45.1811C27.9403 44.4034 27.8626 43.6258 27.4742 42.6926C27.2412 42.8481 27.0859 42.9259 26.7751 42.9259C26.6975 42.9259 26.6198 42.9259 26.6198 42.9259C25.2215 42.9259 23.5903 41.3706 23.4349 41.1373L23.9787 40.593C24.4448 41.0596 25.843 42.226 26.7751 42.1483C26.9305 42.1483 27.0082 42.0705 27.1635 41.9927C27.0859 41.915 27.0858 41.8372 27.0082 41.7594C24.0564 37.2491 24.2117 36.627 26.3091 34.5274L26.5421 34.2941L27.0858 34.8384L26.8528 35.0717C25.0662 36.8603 24.8332 37.0936 27.6296 41.3706C28.4841 42.6926 28.7948 43.9368 28.4841 45.0255C28.6394 44.9478 28.7948 44.9478 29.0278 44.9478C29.8823 45.0255 30.3484 45.6476 30.4261 45.7254L29.8046 46.192C29.8046 46.192 29.4939 45.8032 29.0278 45.7254C28.7171 45.7254 28.4064 45.8809 28.0957 46.192C27.0859 47.825 24.9885 48.5249 24.9108 48.6027L24.6778 47.9028C24.6001 47.9028 27.0859 47.0474 27.7073 45.1811Z" fill="white"/>
<path d="M20.0948 27.9173C20.5608 29.8614 19.9394 31.0279 19.1626 31.8055C19.8617 32.4276 20.5608 32.7387 21.1046 32.5054C21.5707 32.2721 21.8814 31.5722 21.8037 30.4835C21.726 29.5504 22.0368 28.7727 22.5805 28.1506C23.668 26.9064 25.61 26.8286 25.6877 26.8286V27.6063C25.6877 27.6063 23.9787 27.684 23.1243 28.695C22.7359 29.1615 22.5028 29.7837 22.5805 30.4835C22.7359 32.4276 21.8814 33.0498 21.4153 33.283C21.1823 33.3608 20.9492 33.4386 20.7939 33.4386C20.0948 33.4386 19.318 33.0498 18.6189 32.3499C18.3082 32.5832 18.0751 32.7387 17.7644 32.8942C17.4537 33.0498 17.2206 33.2831 16.9876 33.4386C16.4439 33.9052 15.8224 34.605 15.9001 35.3049C15.9778 36.0048 16.7546 36.6269 17.9974 37.249C18.1528 37.3268 18.3082 37.4046 18.4635 37.4823C19.0073 36.3936 19.7064 35.7715 20.4832 35.616C21.5707 35.4604 22.4251 36.3159 22.4251 36.3159L21.8814 36.8602C21.8814 36.8602 21.3376 36.2381 20.6385 36.3936C20.0948 36.4714 19.6287 37.0157 19.1626 37.9489C19.551 38.3377 19.8617 38.8043 19.8617 39.2709C20.0171 40.8262 18.1528 42.3037 18.0751 42.3815L17.609 41.7594C18.0751 41.4483 19.1626 40.3596 19.0849 39.3487C19.0073 38.8043 18.5412 38.3377 17.6867 37.9489C16.1331 37.249 15.2787 36.3936 15.1233 35.3827C15.0456 34.5273 15.5117 33.6719 16.5215 32.8165C16.7546 32.5832 17.0653 32.4276 17.376 32.1943C18.6189 31.4167 20.0171 30.4835 19.4733 28.0728L20.0948 27.9173Z" fill="white"/>
<path d="M15.59 27.6842C15.9784 27.062 15.7454 26.0511 15.0463 24.6514C14.4248 23.4849 14.3472 22.3962 14.7356 21.5408C15.4347 20.0633 17.4543 19.6744 17.532 19.6744L17.6874 20.4521C17.6874 20.4521 16.0561 20.7631 15.5124 21.8518C15.2793 22.3184 15.2793 22.9405 15.5124 23.5627C16.2115 23.0183 16.8329 22.785 17.4543 22.9405C18.6972 23.1738 19.3186 24.7291 19.3186 24.8069L18.6195 25.1179C18.6195 25.1179 18.1534 23.9515 17.299 23.7959C16.8329 23.7182 16.3668 23.9515 15.8231 24.4181C16.6775 26.0511 16.8329 27.2953 16.2892 28.1507C15.7454 29.0839 14.5802 29.1617 14.1141 29.1617V28.384C14.4249 28.3063 15.2793 28.3063 15.59 27.6842Z" fill="white"/>
<path d="M13.4146 32.7388L13.8807 33.3609C13.8807 33.3609 12.7155 34.3718 12.7155 35.616C12.7155 36.3159 13.1039 37.0158 13.8807 37.7157L13.3369 38.3378C12.4048 37.5602 11.9387 36.627 11.9387 35.6938C12.0164 33.9052 13.3369 32.7388 13.4146 32.7388Z" fill="white"/>
<path d="M29.3387 19.9854L28.8727 19.3633C29.1834 19.13 29.8048 18.6634 29.7271 18.2746C29.7271 17.9635 29.3387 17.3414 27.4744 16.5638C26.0762 15.9417 25.3771 15.2418 25.3771 14.4641C25.2994 13.2977 26.7753 12.4423 26.9307 12.3645L27.3191 13.0644C27.0084 13.2199 26.1539 13.842 26.1539 14.4641C26.1539 14.9307 26.7753 15.4751 27.7851 15.8639C29.4941 16.6415 30.4262 17.4192 30.5039 18.1968C30.5816 19.0522 29.7271 19.6743 29.3387 19.9854Z" fill="white"/>
<path d="M21.9593 20.5298C22.1146 20.9186 22.7361 21.463 25.6879 21.3852C27.8629 21.3075 29.1057 21.6185 29.5718 22.3962C30.1932 23.4071 29.4941 24.7291 28.795 26.0511C27.8629 27.8397 27.3968 29.0061 28.4843 29.5505L28.0959 30.2503C26.2316 29.2394 27.3191 27.2953 28.0959 25.74C28.6397 24.6513 29.2611 23.4849 28.8727 22.8627C28.6397 22.5517 27.9405 22.1629 25.9209 22.1629C26.1539 23.096 26.1539 23.7959 25.6879 24.1847C25.4548 24.3403 25.2218 24.418 24.9111 24.418C24.212 24.418 23.3575 23.9514 23.2021 23.8737L23.6682 23.096C24.212 23.4071 25.0664 23.7182 25.2995 23.4849C25.4548 23.3293 25.4548 22.9405 25.2218 22.0851C22.8914 22.0851 21.6485 21.6963 21.2602 20.7631C21.1048 20.2965 21.1825 19.8299 21.4155 19.3634C21.0271 19.2856 20.7164 19.1301 20.4057 18.8968C19.7066 18.1191 20.0173 16.7194 20.0173 16.6416L20.7941 16.7971C20.7941 16.7971 20.5611 17.8081 21.0271 18.3524C21.1825 18.5857 21.4932 18.6635 21.8039 18.6635C22.4253 17.7303 23.3575 16.9527 23.5129 16.8749L23.9789 17.497C23.0468 18.1969 21.6486 19.6744 21.9593 20.5298Z" fill="white"/>
<path d="M27.9404 37.1713L27.8627 36.3937C27.9403 36.3937 29.1832 36.3159 29.8046 37.1713C30.2707 37.8712 30.1154 38.8044 29.3386 40.1264L28.6395 39.7376C29.1832 38.7266 29.3386 38.0267 29.1055 37.6379C28.8725 37.1713 28.1734 37.1713 27.9404 37.1713Z" fill="white"/>
<path d="M26.3089 18.508C27.008 18.9746 26.9303 19.9855 26.9303 20.0633L26.1535 19.9855C26.1535 19.7522 26.1535 19.2856 25.9205 19.1301C25.7651 18.9746 25.3767 19.0523 24.833 19.3634L24.4446 18.6635C25.2214 18.2747 25.8428 18.1969 26.3089 18.508Z" fill="white"/>
<path d="M26.5429 32.8165C25.067 32.972 24.1349 32.7388 23.8242 32.0389C23.3581 31.1835 24.1349 29.9392 24.4456 29.5504L25.067 30.0948C24.834 30.4058 24.2902 31.2612 24.5233 31.7278C24.6786 32.0389 25.3778 32.1944 26.4653 32.0389C27.9412 31.8833 28.951 32.1166 29.4947 32.7388C30.1162 33.5164 29.8054 34.6051 29.8054 34.6829L29.0287 34.4496C29.0287 34.4496 29.2617 33.7497 28.8733 33.2831C28.5626 32.8165 27.7081 32.661 26.5429 32.8165Z" fill="white"/>
<path d="M18.2311 45.5699C18.6195 45.6476 18.9303 45.6476 19.3186 45.5699C19.0079 45.1033 18.8526 44.6367 19.0079 44.0924C19.241 42.5371 21.3383 41.4484 21.416 41.4484L21.8044 42.1482C21.3383 42.3815 20.0178 43.3147 19.8624 44.2479C19.7847 44.6367 19.9401 45.0255 20.2508 45.3366C20.8722 45.1033 21.3383 44.7145 21.3383 44.7145L21.4937 44.5589L21.7267 44.6367C23.6687 45.5699 24.5231 44.4812 24.5231 44.4034L25.1446 44.87C25.1446 44.87 23.9794 46.503 21.5713 45.4921C21.1829 45.8032 20.0954 46.4253 18.8526 46.4253C18.6195 46.4253 18.3865 46.4253 18.1535 46.3475C16.8329 46.1142 15.8231 45.1811 14.9686 43.548L15.6677 43.1592C16.2892 44.5589 17.2213 45.3366 18.2311 45.5699Z" fill="white"/>
<path d="M57.3033 8.94288C57.1479 9.25393 56.6819 9.3317 56.3712 9.09841C56.0605 8.86511 55.9051 8.47629 56.0605 8.16523L58.4685 4.19926C58.6238 3.8882 59.0899 3.81043 59.4006 4.04373C59.7114 4.27702 59.8667 4.66584 59.7114 4.9769L57.3033 8.94288Z" fill="#FFCC33"/>
<path d="M28.5612 5.28797C28.5612 5.59903 28.2505 5.91009 27.8621 5.91009C27.4737 5.91009 27.163 5.59903 27.163 5.28797V0.622115C27.163 0.311058 27.4737 0 27.8621 0C28.2505 0 28.5612 0.311058 28.5612 0.622115V5.28797Z" fill="#FFCC33"/>
<path d="M28.5612 63.3778C28.5612 63.6889 28.2505 63.9999 27.8621 63.9999C27.4737 63.9999 27.163 63.6889 27.163 63.3778V58.712C27.163 58.4009 27.4737 58.0898 27.8621 58.0898C28.2505 58.0898 28.5612 58.4009 28.5612 58.712V63.3778Z" fill="#FFCC33"/>
<path d="M48.1364 5.28797C48.1364 5.59903 47.8257 5.91009 47.4373 5.91009C47.0489 5.91009 46.7382 5.59903 46.7382 5.28797V0.622115C46.7382 0.311058 47.0489 0 47.4373 0C47.8257 0 48.1364 0.311058 48.1364 0.622115V5.28797Z" fill="#FFCC33"/>
<path d="M48.1364 63.3778C48.1364 63.6889 47.8257 63.9999 47.4373 63.9999C47.0489 63.9999 46.7382 63.6889 46.7382 63.3778V58.712C46.7382 58.4009 47.0489 58.0898 47.4373 58.0898C47.8257 58.0898 48.1364 58.4009 48.1364 58.712V63.3778Z" fill="#FFCC33"/>
<path d="M65.8479 17.1082C65.5372 17.3415 65.1488 17.2637 64.9157 16.8749C64.6827 16.5638 64.6827 16.0973 64.9934 15.9417L68.722 13.22C69.0327 12.9867 69.4211 13.0644 69.6542 13.4533C69.8872 13.7643 69.8872 14.2309 69.5765 14.3864L65.8479 17.1082Z" fill="#FFCC33"/>
<path d="M70.5866 27.5285C70.2759 27.6063 69.8875 27.373 69.8098 26.9842C69.7322 26.5953 69.8875 26.2065 70.1982 26.1288L74.7036 24.9623C75.0143 24.8845 75.4027 25.1178 75.4804 25.5066C75.5581 25.8955 75.4027 26.2843 75.092 26.362L70.5866 27.5285Z" fill="#FFCC33"/>
<path d="M57.3033 54.3573C57.1479 54.0463 56.6819 53.9685 56.3712 54.2018C56.0605 54.4351 55.9051 54.8239 56.0605 55.135L58.4685 59.101C58.6238 59.412 59.0899 59.4898 59.4006 59.2565C59.7114 59.0232 59.8667 58.6344 59.7114 58.3233L57.3033 54.3573Z" fill="#FFCC33"/>
<path d="M65.8479 46.1919C65.5372 45.9586 65.1488 46.0364 64.9157 46.4252C64.6827 46.7362 64.6827 47.2028 64.9934 47.3584L68.722 50.0801C69.0327 50.3134 69.4211 50.2356 69.6542 49.8468C69.8872 49.5358 69.8872 49.0692 69.5765 48.9136L65.8479 46.1919Z" fill="#FFCC33"/>
<path d="M70.5866 35.7716C70.2759 35.6938 69.8875 35.9271 69.8098 36.316C69.7322 36.7048 69.8875 37.0936 70.1982 37.1714L74.7036 38.3378C75.0143 38.4156 75.4027 38.1823 75.4804 37.7935C75.5581 37.4047 75.4027 37.0158 75.092 36.9381L70.5866 35.7716Z" fill="#FFCC33"/>
<path d="M18.6968 8.94288C18.8521 9.25393 19.3182 9.3317 19.6289 9.09841C19.9396 8.86511 20.095 8.47629 19.9396 8.16523L17.5316 4.19926C17.3762 3.8882 16.9102 3.81043 16.5994 4.04373C16.2887 4.27702 16.1334 4.66584 16.2887 4.9769L18.6968 8.94288Z" fill="#FFCC33"/>
<path d="M10.1516 17.1082C10.4623 17.3415 10.8507 17.2637 11.0837 16.8749C11.3168 16.5638 11.3168 16.0973 11.006 15.9417L7.27745 13.22C6.96674 12.9867 6.57835 13.0644 6.34531 13.4533C6.11227 13.7643 6.11228 14.2309 6.42299 14.3864L10.1516 17.1082Z" fill="#FFCC33"/>
<path d="M5.41345 27.5285C5.72417 27.6063 6.11256 27.373 6.19024 26.9842C6.26792 26.5953 6.11256 26.2065 5.80185 26.1288L1.29646 24.9623C0.985747 24.8845 0.597352 25.1178 0.519673 25.5066C0.441994 25.8955 0.597352 26.2843 0.908068 26.362L5.41345 27.5285Z" fill="#FFCC33"/>
<path d="M18.6968 54.3573C18.8521 54.0463 19.3182 53.9685 19.6289 54.2018C19.9396 54.4351 20.095 54.8239 19.9396 55.135L17.5316 59.101C17.3762 59.412 16.9102 59.4898 16.5994 59.2565C16.2887 59.0232 16.1334 58.6344 16.2887 58.3233L18.6968 54.3573Z" fill="#FFCC33"/>
<path d="M10.1516 46.1919C10.4623 45.9586 10.8507 46.0364 11.0837 46.4252C11.3168 46.7362 11.3168 47.2028 11.006 47.3584L7.27745 50.0801C6.96674 50.3134 6.57835 50.2356 6.34531 49.8468C6.11227 49.5358 6.11228 49.0692 6.42299 48.9136L10.1516 46.1919Z" fill="#FFCC33"/>
<path d="M5.41345 35.7716C5.72417 35.6938 6.11256 35.9271 6.19024 36.316C6.26792 36.7048 6.11256 37.0936 5.80185 37.1714L1.29646 38.3378C0.985747 38.4156 0.597352 38.1823 0.519673 37.7935C0.441994 37.4047 0.597352 37.0158 0.908068 36.9381L5.41345 35.7716Z" fill="#FFCC33"/>
</svg>
