<svg width="265" height="184" viewBox="0 0 265 184" fill="none" xmlns="http://www.w3.org/2000/svg">
<path d="M116.114 19.7314C114.218 19.869 113.615 19.3185 113.546 18.5788C113.494 17.8391 114.011 17.1854 115.907 17.0478C119.354 16.7897 121.129 18.0111 121.129 18.0111C121.129 18.0111 119.613 19.4734 116.114 19.7314Z" fill="#00C081"/>
<path d="M110.615 30.7412C108.875 31.4809 108.116 31.1541 107.823 30.466C107.53 29.7779 107.806 29.0037 109.564 28.264C112.753 26.905 114.821 27.4899 114.821 27.4899C114.821 27.4899 113.838 29.3478 110.615 30.7412Z" fill="#00C081"/>
<path d="M95.8259 59.1431L95.5156 58.9539C95.5501 58.9023 98.3939 54.1199 100.307 45.983C102.065 38.4827 103.358 26.5268 99.5142 12.1453L99.8589 12.0593C103.72 26.5096 102.427 38.5515 100.652 46.0863C98.7214 54.2575 95.8431 59.0915 95.8259 59.1431Z" fill="#00C081"/>
<path d="M102.273 29.0213L102.083 28.7117C113.253 21.951 115.321 8.10283 115.339 7.96521L115.701 8.01682C115.683 8.15444 113.598 22.1574 102.273 29.0213Z" fill="#00C081"/>
<path d="M99.9805 21.4C96.7058 19.8001 95.0167 16.9445 94.9995 16.9101L95.3098 16.738C95.327 16.7724 97.4814 20.4194 101.67 21.6924L101.566 22.0365C100.997 21.8472 100.463 21.6408 99.9805 21.4Z" fill="#00C081"/>
<path d="M98.842 51.6078C92.5684 47.5996 88.7766 41.7507 87.5702 34.1815C87.5357 33.9234 87.484 33.6654 87.4668 33.6138C87.4668 33.6138 87.4668 33.631 87.484 33.6482L87.7425 33.3901C87.8115 33.4589 87.8287 33.5622 87.9321 34.1127C89.1214 41.5614 92.8614 47.3415 99.0489 51.2809L98.842 51.6078Z" fill="#00C081"/>
<path d="M91.1551 43.5404L90.8794 43.2996C94.1024 39.6354 94.3264 32.049 94.3264 31.963L94.6884 31.9802C94.6884 31.9974 94.6366 33.9413 94.1713 36.3325C93.7577 38.5344 92.8959 41.5793 91.1551 43.5404Z" fill="#00C081"/>
<path d="M100.168 10.2355C101.116 12.6095 100.841 13.5384 100.151 13.8136C99.4618 14.0889 98.6173 13.6072 97.6694 11.2332C95.9286 6.89815 96.3422 4.31775 96.3422 4.31775C96.3422 4.31775 98.4105 5.84879 100.168 10.2355Z" fill="#00C081"/>
<path d="M96.378 16.2912C97.9981 18.2695 98.0153 19.2328 97.4466 19.7145C96.8778 20.179 95.9126 19.9725 94.2925 17.9942C91.3281 14.3989 90.9316 11.8013 90.9316 11.8013C90.9316 11.8013 93.3791 12.627 96.378 16.2912Z" fill="#00C081"/>
<path d="M95.8276 31.3947C95.862 33.287 95.276 33.8719 94.5349 33.8891C93.7938 33.9063 93.1733 33.3558 93.1389 31.4463C93.0699 27.9886 94.3798 26.2855 94.3798 26.2855C94.3798 26.2855 95.7586 27.8854 95.8276 31.3947Z" fill="#00C081"/>
<path d="M105.807 17.8734C105.376 19.7313 104.669 20.1441 103.945 19.9721C103.222 19.8001 102.756 19.1292 103.187 17.2713C103.963 13.8996 105.652 12.575 105.652 12.575C105.652 12.575 106.582 14.4673 105.807 17.8734Z" fill="#00C081"/>
<path d="M96.2747 43.9185C95.344 45.57 94.534 45.7764 93.8963 45.4151C93.2414 45.0539 93.0001 44.2626 93.9308 42.6111C95.6198 39.6006 97.6191 38.7921 97.6191 38.7921C97.6191 38.7921 97.9982 40.8736 96.2747 43.9185Z" fill="#00C081"/>
<path d="M89.1732 34.6121C89.6213 36.4528 89.156 37.1409 88.4321 37.3129C87.7082 37.485 86.9843 37.0721 86.5362 35.2314C85.7262 31.8769 86.6396 29.933 86.6396 29.933C86.6396 29.933 88.3459 31.206 89.1732 34.6121Z" fill="#00C081"/>
<path d="M117.027 7.0359C116.459 9.53029 115.718 10.1496 114.976 9.97756C114.253 9.82273 113.822 8.9454 114.391 6.45101C115.407 1.9095 117.217 0 117.217 0C117.217 0 118.062 2.42558 117.027 7.0359Z" fill="#00C081"/>
<g opacity="0.4">
<g opacity="0.4">
<path opacity="0.4" d="M84.8306 80.8698C84.8306 80.8698 89.6569 47.2386 100.275 48.3911C110.893 49.5437 91.2082 70.4794 90.1567 80.3021L84.8306 80.8698Z" fill="#00C081"/>
</g>
<g opacity="0.4">
<g opacity="0.4">
<path opacity="0.4" d="M87.5884 80.5603C87.9158 76.7929 89.2257 70.4795 93.5862 61.7921C96.1888 56.5969 98.6879 52.9843 98.7223 52.9327L98.8602 53.036C98.843 53.0704 96.3439 56.6829 93.7413 61.8609C89.3981 70.5139 88.0882 76.8101 87.7607 80.5603H87.5884Z" fill="#4CE2A7"/>
</g>
</g>
</g>
<g opacity="0.5">
<g opacity="0.5">
<path opacity="0.5" d="M90.2944 81.0762C90.2944 81.0762 109.893 40.8219 122.734 46.5332C135.576 52.2273 102.464 70.617 97.2064 82.504L90.2944 81.0762Z" fill="#00C081"/>
</g>
<g opacity="0.5">
<g opacity="0.5">
<path opacity="0.5" d="M93.897 81.7983C95.8275 77.2051 100.016 69.808 108.979 60.6562C114.34 55.1857 118.925 51.6419 118.977 51.6075L119.114 51.7968C119.063 51.8312 114.478 55.3749 109.134 60.8282C100.188 69.9456 96.0171 77.3084 94.1038 81.8843L93.897 81.7983Z" fill="#4CE2A7"/>
</g>
</g>
</g>
<path d="M109.996 139.978C103.808 137.209 98.7408 145.931 93.7593 139.961C89.1398 134.422 89.4846 134.009 85.6752 134.353C85.1064 134.405 84.5548 134.56 84.055 134.8C82.969 135.334 80.7282 136.125 78.9529 134.8C71.2825 129.106 78.3841 124.496 76.0054 114.777C75.3331 112.059 74.7988 109.444 74.4023 107.018C75.7813 106.055 78.16 104.885 81.2109 105.315C82.3313 105.47 83.5551 105.831 84.8479 106.502C91.8633 110.149 91.6909 114.467 102.102 110.717C112.513 106.967 111.41 122.518 115.909 125.236C120.407 127.971 125.044 129.433 125.044 136.314C125.01 143.195 116.184 142.748 109.996 139.978Z" fill="#00C081"/>
<g opacity="0.4">
<g opacity="0.4">
<g opacity="0.4">
<path opacity="0.4" d="M76.6602 117.804L76.6774 117.357C76.867 117.357 96.6721 118.423 124.837 138.137L124.579 138.499C96.5342 118.87 76.867 117.821 76.6602 117.804Z" fill="#4CE2A7"/>
</g>
</g>
<g opacity="0.4">
<g opacity="0.4">
<path opacity="0.4" d="M101.775 119.799C100.551 113.83 101.826 110.751 101.878 110.63L102.292 110.802C102.274 110.837 101.016 113.899 102.223 119.713L101.775 119.799Z" fill="#4CE2A7"/>
</g>
</g>
<g opacity="0.4">
<g opacity="0.4">
<path opacity="0.4" d="M99.5513 124.135C99.8615 121.571 101.878 119.043 105.377 116.823C107.997 115.155 110.582 114.226 110.599 114.209L110.754 114.621C110.651 114.656 100.689 118.286 99.9822 124.169L99.5513 124.135Z" fill="#4CE2A7"/>
</g>
</g>
<g opacity="0.4">
<g opacity="0.4">
<path opacity="0.4" d="M107.307 128.883C107.134 128.195 107.083 127.799 107.083 127.765L107.531 127.696C107.548 127.782 108.823 136.383 116.303 141.544L116.045 141.905C110.013 137.759 107.927 131.412 107.307 128.883Z" fill="#4CE2A7"/>
</g>
</g>
<g opacity="0.4">
<g opacity="0.4">
<path opacity="0.4" d="M104.773 139.806C104.48 136.727 105.376 134.508 106.169 133.2C107.048 131.772 107.979 131.084 108.013 131.067L108.272 131.428C108.237 131.463 104.653 134.112 105.204 139.754L104.773 139.806Z" fill="#4CE2A7"/>
</g>
</g>
<g opacity="0.4">
<g opacity="0.4">
<path opacity="0.4" d="M86.2954 131.858C84.727 125.407 87.5536 119.765 87.588 119.713L87.9844 119.92C87.95 119.989 84.4512 126.973 87.5363 134.181L87.1227 134.353C86.7607 133.51 86.485 132.667 86.2954 131.858Z" fill="#4CE2A7"/>
</g>
</g>
<g opacity="0.4">
<g opacity="0.4">
<path opacity="0.4" d="M86.1919 125.098L86.3298 124.668C88.7082 125.459 92.207 127.782 95.3955 134.388C97.2914 138.327 98.2049 141.974 98.2049 142.026L97.774 142.129C97.7395 141.991 94.1718 127.73 86.1919 125.098Z" fill="#4CE2A7"/>
</g>
</g>
</g>
<path d="M85.6757 90.1423C85.6757 90.1423 69.3007 13.9 48.7372 19.1124C28.1736 24.3248 71.0589 67.7788 75.1096 90.1251L85.6757 90.1423Z" fill="#333333"/>
<path d="M71.7642 72.7332C71.7642 72.7332 43.9267 10.8035 24.1906 18.8544C4.45439 26.888 53.8034 56.2874 61.2153 74.5739L71.7642 72.7332Z" fill="#00C081"/>
<path d="M65.8686 73.7995C60.9734 61.0867 51.3208 49.0621 44.0813 41.2004C36.2385 32.6851 29.4645 27.1114 29.3955 27.0598L29.7402 26.647C29.8092 26.6986 36.6177 32.2895 44.4777 40.8392C51.7517 48.718 61.456 60.8115 66.3857 73.6103L65.8686 73.7995Z" fill="#4CE2A7"/>
<path d="M12.7977 72.5787C22.0538 77.946 15.5211 92.4306 27.7592 93.308C39.9974 94.1681 39.2907 93.1531 43.1517 99.8278C43.1517 99.8278 43.7378 105.264 47.978 107.5C64.7495 116.36 97.5857 97.9699 83.7273 77.5159C82.7275 76.0365 80.9004 75.0043 78.8492 73.9721C67.7315 68.3641 62.3363 72.5443 57.579 55.7889C52.8216 39.0335 33.8955 54.7395 26.2596 51.5054C18.6237 48.2713 12.4702 43.6782 3.66214 50.0088C-5.14588 56.3566 3.54148 67.2287 12.7977 72.5787Z" fill="#036D4B"/>
<path d="M71.8682 94.7874L72.4198 94.3574C72.2302 94.1165 52.6836 69.7919 1.4902 51.9183L1.26611 52.5892C52.2527 70.3768 71.6786 94.5466 71.8682 94.7874Z" fill="white"/>
<path d="M46.2212 64.5449C55.0112 60.6399 57.7688 56.1672 57.8894 55.978L57.2862 55.6167C57.2517 55.6683 54.4941 60.0894 45.9282 63.9084L46.2212 64.5449Z" fill="white"/>
<path d="M42.7038 71.3573C45.7027 68.6049 47.0988 63.7021 46.7196 57.1823C46.4438 52.2967 45.2718 48.1509 45.2546 48.0992L44.5824 48.2885C44.6341 48.4433 49.1325 64.5278 42.2212 70.8412L42.7038 71.3573Z" fill="white"/>
<path d="M29.5169 65.8179C30.5511 65.405 31.1199 65.1126 31.1544 65.0954L30.8269 64.4761C30.7062 64.5449 18.4853 70.8067 4.98888 65.9899L4.74756 66.6436C15.624 70.5314 25.6731 67.3661 29.5169 65.8179Z" fill="white"/>
<path d="M17.8136 79.0979C22.0362 76.638 24.0528 73.4727 24.9835 71.2363C26.0003 68.8107 26.0176 66.9873 26.0176 66.9012H25.3109C25.3109 66.9701 25.1903 73.9888 17.4517 78.4787L17.8136 79.0979Z" fill="white"/>
<path d="M157.792 28.7461C159.206 30.1395 160.067 30.1051 160.619 29.5546C161.171 29.0041 161.188 28.144 159.774 26.7506C157.206 24.2218 154.966 23.9982 154.966 23.9982C154.966 23.9982 155.19 26.1829 157.792 28.7461Z" fill="#00C081"/>
<path d="M154.741 41.2183C155.62 42.9902 156.447 43.231 157.154 42.8869C157.843 42.5429 158.154 41.7344 157.257 39.9625C155.637 36.7456 153.604 35.7994 153.604 35.7994C153.604 35.7994 153.104 37.9326 154.741 41.2183Z" fill="#00C081"/>
<path d="M147.349 73.7825L147.728 73.8341C147.745 73.7825 148.693 68.0368 152.675 60.2784C156.329 53.1221 163.379 42.7317 176.151 33.8723L175.945 33.5626C163.103 42.4736 156.019 52.9329 152.33 60.1236C148.314 67.9336 147.349 73.7137 147.349 73.7825Z" fill="#00C081"/>
<path d="M162.551 45.4494L162.913 45.329C158.587 32.427 166.291 20.0067 166.36 19.8862L166.05 19.6798C165.964 19.8174 158.174 32.3754 162.551 45.4494Z" fill="#00C081"/>
<path d="M169.514 40.9434C173.219 41.8723 176.477 40.7197 176.511 40.7197L176.391 40.3757C176.356 40.3929 172.168 41.8551 167.98 40.0488L167.825 40.3929C168.393 40.6165 168.962 40.7885 169.514 40.9434Z" fill="#00C081"/>
<path d="M150.02 65.7489C157.707 66.7811 164.688 64.6651 170.755 59.4527C170.962 59.2807 171.169 59.1087 171.221 59.0743C171.221 59.0743 171.204 59.0743 171.186 59.0915L171.152 58.713C171.048 58.713 170.962 58.799 170.514 59.1775C164.533 64.3039 157.655 66.4026 150.071 65.3877L150.02 65.7489Z" fill="#00C081"/>
<path d="M161.584 64.494H161.964C161.877 59.402 166.824 53.2091 166.876 53.1403L166.583 52.8994C166.565 52.9166 165.307 54.4993 164.049 56.7012C162.894 58.7483 161.533 61.7588 161.584 64.494Z" fill="#00C081"/>
<path d="M176.892 31.9108C174.531 33.1666 174.118 34.0955 174.479 34.7664C174.841 35.4546 175.841 35.6438 178.202 34.388C182.511 32.1172 183.924 29.7605 183.924 29.7605C183.924 29.7605 181.253 29.6056 176.892 31.9108Z" fill="#00C081"/>
<path d="M175.841 39.2907C173.204 39.7724 172.549 40.5293 172.687 41.3034C172.825 42.0604 173.721 42.542 176.358 42.0604C181.149 41.183 183.217 39.3768 183.217 39.3768C183.217 39.3768 180.701 38.3962 175.841 39.2907Z" fill="#00C081"/>
<path d="M166.085 51.6767C164.775 53.1561 164.862 54.0163 165.448 54.5323C166.034 55.0484 166.895 55.014 168.205 53.5346C170.601 50.8338 170.687 48.5974 170.687 48.5974C170.687 48.5974 168.498 48.9415 166.085 51.6767Z" fill="#00C081"/>
<path d="M167.257 34.2164C166.343 35.9711 166.636 36.7796 167.326 37.1409C168.015 37.5021 168.842 37.2613 169.756 35.5066C171.41 32.3069 170.962 30.105 170.962 30.105C170.962 30.105 168.946 30.9651 167.257 34.2164Z" fill="#00C081"/>
<path d="M157.258 61.3617C156.879 63.3056 157.379 64.0109 158.154 64.1485C158.913 64.3034 159.654 63.8389 160.033 61.895C160.722 58.3512 159.671 56.3729 159.671 56.3729C159.671 56.3729 157.947 57.7663 157.258 61.3617Z" fill="#00C081"/>
<path d="M169.205 58.713C167.602 59.8828 167.498 60.7429 167.964 61.3622C168.429 61.9815 169.274 62.1536 170.876 60.9838C173.789 58.8506 174.375 56.6831 174.375 56.6831C174.375 56.6831 172.152 56.5627 169.205 58.713Z" fill="#00C081"/>
<path d="M165.636 18.0284C164.395 20.4024 164.585 21.3829 165.274 21.7442C165.964 22.1055 166.894 21.6926 168.135 19.3186C170.393 15.0007 170.238 12.2827 170.238 12.2827C170.238 12.2827 167.929 13.6589 165.636 18.0284Z" fill="#00C081"/>
<path d="M183.564 69.8769C183.564 69.8769 200.508 -1.66907 219.796 3.64656C239.084 8.96219 197.802 49.0789 193.527 70.0661L183.564 69.8769Z" fill="#333333"/>
<path d="M197.025 53.7416C197.025 53.7416 224.484 -4.09383 242.944 3.88821C261.388 11.8531 214.297 38.6032 206.937 55.6855L197.025 53.7416Z" fill="#00C081"/>
<path d="M202.541 54.8768C207.402 42.9898 216.744 31.8424 223.725 24.5829C231.292 16.7213 237.79 11.5949 237.859 11.5432L237.549 11.1476C237.48 11.1992 230.965 16.3428 223.363 24.2388C216.348 31.5328 206.971 42.7317 202.076 54.7048L202.541 54.8768Z" fill="#4CE2A7"/>
<path d="M252.614 54.7732C243.789 59.6416 249.649 73.4381 238.101 74.023C226.552 74.6079 227.224 73.6445 223.467 79.8547C223.467 79.8547 222.812 84.9639 218.761 86.9938C202.765 95.0103 172.187 77.0335 185.666 58.0245C186.632 56.6483 188.372 55.7193 190.32 54.7732C200.921 49.6984 205.92 53.7582 210.729 38.0522C215.555 22.3461 233.085 37.5189 240.342 34.6288C247.598 31.7388 253.493 27.5241 261.681 33.6655C269.851 39.8241 261.439 49.9048 252.614 54.7732Z" fill="#036D4B"/>
<path d="M196.492 74.5396L195.975 74.1268C196.164 73.9031 215.073 51.3504 263.681 35.5239L263.888 36.1604C215.452 51.9181 196.664 74.316 196.492 74.5396Z" fill="white"/>
<path d="M221.258 46.5342C213.054 42.6808 210.538 38.4145 210.435 38.2253L211.003 37.8984C211.021 37.9328 213.554 42.1647 221.534 45.9321L221.258 46.5342Z" fill="white"/>
<path d="M224.432 53.0364C221.657 50.3872 220.451 45.7425 220.916 39.5839C221.278 34.9736 222.467 31.103 222.467 31.0514L223.105 31.2406C223.053 31.3954 218.503 46.4478 224.88 52.5376L224.432 53.0364Z" fill="white"/>
<path d="M236.981 48.0645C236.016 47.6516 235.481 47.3592 235.447 47.342L235.774 46.7571C235.895 46.8259 247.288 52.9672 260.095 48.701L260.302 49.3203C249.995 52.778 240.566 49.5955 236.981 48.0645Z" fill="white"/>
<path d="M247.753 60.8118C243.824 58.4206 241.98 55.3757 241.135 53.2598C240.222 50.9546 240.239 49.2343 240.239 49.1655L240.894 49.1827C240.894 49.2515 240.876 55.8574 248.081 60.2613L247.753 60.8118Z" fill="white"/>
<path d="M186.856 153.362L158.174 152.399L125.665 153.242L125.579 155.684L157.019 154.291C160.173 154.394 162.655 157.284 162.535 160.742C162.414 164.2 159.76 166.918 156.605 166.815L125.234 165.765L125.183 167.571L186.304 169.619C190.407 169.756 193.854 166.23 194.009 161.74C194.164 157.25 190.958 153.5 186.856 153.362Z" fill="#FF443C"/>
<path d="M165.326 160.776C165.481 156.286 162.275 152.535 158.173 152.415L125.664 153.258L125.578 155.701L157.018 154.307C160.172 154.411 162.655 157.301 162.534 160.758C162.413 164.216 159.759 166.934 156.604 166.831L125.233 165.782L125.182 167.588L157.621 168.672C161.741 168.792 165.188 165.265 165.326 160.776Z" fill="#FF443C"/>
<path d="M157.035 154.308L125.595 155.702C128.439 156.149 129.284 159.039 129.68 160.57C130.473 163.684 128.112 165.473 125.25 165.731V165.765L156.622 166.815C159.776 166.918 162.43 164.2 162.551 160.742C162.654 157.302 160.19 154.412 157.035 154.308Z" fill="#EEEEEE"/>
<path d="M129.785 162.006L129.779 162.177L155.084 163.023L155.09 162.851L129.785 162.006Z" fill="#2F1A31"/>
<g opacity="0.4">
<g opacity="0.4">
<path opacity="0.4" d="M162.294 167.881C162.19 167.881 162.07 167.83 162.001 167.726C161.897 167.572 161.932 167.365 162.087 167.245C162.104 167.227 164.586 165.524 164.982 160.742C165.379 155.994 162.035 154.171 162.001 154.153C161.828 154.067 161.777 153.861 161.863 153.689C161.949 153.517 162.156 153.465 162.328 153.551C162.483 153.637 166.103 155.616 165.672 160.811C165.241 165.955 162.587 167.761 162.483 167.83C162.414 167.864 162.363 167.881 162.294 167.881Z" fill="#66192D"/>
</g>
</g>
<path d="M149.134 160.164L129.692 160.472L129.695 160.644L149.136 160.336L149.134 160.164Z" fill="#2F1A31"/>
<path d="M172.411 166.196C172.411 166.196 172.394 166.196 172.411 166.196L166.275 165.989C166.154 165.989 166.051 165.92 165.982 165.817C165.93 165.714 165.93 165.576 165.982 165.473C165.999 165.456 167.051 163.633 167.671 161.173C168.257 158.799 166.654 156.339 166.637 156.321C166.568 156.218 166.568 156.081 166.62 155.96C166.689 155.84 166.792 155.788 166.93 155.788L172.738 155.977C172.842 155.977 172.945 156.029 173.014 156.115C176.651 161.31 172.721 166.024 172.669 166.058C172.6 166.144 172.514 166.196 172.411 166.196ZM166.844 165.318L172.256 165.49C172.825 164.751 175.444 160.932 172.549 156.648L167.516 156.476C167.999 157.405 168.826 159.349 168.326 161.327C167.878 163.151 167.206 164.596 166.844 165.318Z" fill="#66192D"/>
<path d="M125.907 167.727H154.606L187.063 169.653V172.096L155.675 169.653C152.521 169.653 149.953 172.457 149.953 175.915C149.953 179.373 152.521 182.177 155.675 182.177H187.063V183.983H125.907C121.805 183.983 118.478 180.353 118.478 175.863C118.478 171.374 121.805 167.727 125.907 167.727Z" fill="#FFC700"/>
<path d="M147.179 175.863C147.179 171.373 150.506 167.743 154.608 167.743L187.065 169.67V172.113L155.677 169.67C152.523 169.67 149.954 172.474 149.954 175.932C149.954 179.39 152.523 182.194 155.677 182.194H187.065V184H154.608C150.506 183.983 147.179 180.353 147.179 175.863Z" fill="#FFC700"/>
<path d="M155.693 169.67L187.082 172.113C184.238 172.474 183.272 175.313 182.841 176.844C181.945 179.923 184.238 181.798 187.082 182.159V182.194H155.693C152.539 182.194 149.971 179.39 149.971 175.932C149.971 172.474 152.539 169.67 155.693 169.67Z" fill="#EEEEEE"/>
<path d="M182.651 178.254H157.331V178.426H182.651V178.254Z" fill="#2F1A31"/>
<path d="M149.798 183.002C149.694 182.916 147.092 181.024 146.833 175.88C146.575 170.668 150.263 168.827 150.418 168.741L150.711 169.361L150.556 169.051L150.711 169.361C150.573 169.429 147.281 171.115 147.523 175.846C147.643 178.358 148.367 180.009 148.953 180.972C149.591 182.005 150.194 182.452 150.194 182.452L149.798 183.002Z" fill="#2F1A31"/>
<path d="M163.399 175.79L163.39 175.962L182.808 176.934L182.817 176.763L163.399 175.79Z" fill="#2F1A31"/>
<path d="M139.938 171.15H145.764C145.764 171.15 143.954 173.679 144.505 176.242C145.057 178.805 146.074 180.697 146.074 180.697H139.938C139.938 180.697 136.25 176.07 139.938 171.15Z" fill="#2F1A31"/>
<path d="M189.026 55.066H187.095V57.8357H189.026V55.066Z" fill="#2F1A31"/>
<path d="M191.405 53.6551C191.405 51.866 189.94 50.4038 188.148 50.4038C186.355 50.4038 184.89 51.866 184.89 53.6551C184.89 55.4442 186.355 56.9064 188.148 56.9064C189.957 56.9064 191.405 55.4442 191.405 53.6551Z" fill="#2F1A31"/>
<path d="M189.785 53.6549C189.785 52.5195 188.871 51.6078 187.734 51.6078C186.596 51.6078 185.683 52.5195 185.683 53.6549C185.683 54.7903 186.596 55.702 187.734 55.702C188.871 55.702 189.785 54.7903 189.785 53.6549Z" fill="#3E3E3E"/>
<path d="M189.009 53.0362C189.077 52.5717 188.681 52.1761 188.216 52.2449C187.94 52.2965 187.699 52.5201 187.647 52.7954C187.578 53.2598 187.974 53.6555 188.44 53.5867C188.733 53.5523 188.957 53.3114 189.009 53.0362Z" fill="#036D4B"/>
<path d="M202.762 132.564V118.131H173.597V132.564C173.597 136.314 171.098 139.359 168.012 139.359H166.84V141.217H209.519V139.359H208.347C205.261 139.359 202.762 136.314 202.762 132.564Z" fill="#333333"/>
<path d="M209.279 141.217H167.084C166.566 141.217 166.153 140.804 166.153 140.288C166.153 139.772 166.566 139.359 167.084 139.359H209.279C209.796 139.359 210.21 139.772 210.21 140.288C210.21 140.804 209.796 141.217 209.279 141.217Z" fill="#3E3E3E"/>
<path d="M237.859 126.99L139.247 125.855C137.144 125.838 135.438 124.117 135.438 122.001V61.9468C135.438 59.848 137.127 58.1278 139.23 58.0934L236.566 56.6139C238.686 56.5795 240.427 58.2654 240.479 60.3813L241.754 123.068C241.789 125.253 240.031 127.024 237.859 126.99Z" fill="#3E3E3E"/>
<path d="M234.67 115.086H141.143C140.091 115.086 139.247 114.243 139.247 113.194V64.5621C139.247 63.5127 140.091 62.6698 141.143 62.6698H234.67C235.721 62.6698 236.566 63.5127 236.566 64.5621V113.177C236.583 114.243 235.721 115.086 234.67 115.086Z" fill="#00C081"/>
<path d="M171.238 97.7632C171.152 97.746 168.98 97.2127 168.291 95.5784C167.895 94.6495 168.084 93.5313 168.86 92.2927C169.187 91.7594 169.48 91.295 169.756 90.8477C171.617 87.8888 172.307 86.7879 171.807 84.3967L172.014 84.3451C172.531 86.8051 171.824 87.9404 169.928 90.9509C169.653 91.381 169.36 91.8627 169.032 92.3959C168.308 93.5657 168.119 94.6151 168.481 95.4752C169.118 97.0063 171.255 97.5223 171.273 97.5223L171.238 97.7632Z" fill="#66192D"/>
<path d="M171.929 84.3969C171.929 84.3969 172.773 88.2159 170.239 92.2069C167.706 96.1979 170.464 99.1224 173.894 97.5913C177.324 96.0603 178.634 100.43 183.029 98.0042C187.407 95.5786 171.929 84.3969 171.929 84.3969Z" fill="#66192D"/>
<path d="M222.208 116.376C221.588 116.634 220.898 116.789 220.191 116.789H155.122C154.519 116.789 153.933 116.686 153.381 116.497C156.122 111.714 163.12 103.767 179.857 101.668H179.874C181.339 101.479 182.822 101.221 184.39 101.1C187.01 100.911 189.613 101.135 192.199 101.272C192.216 101.272 192.216 101.272 192.216 101.272C213.228 102.373 220.053 111.491 222.208 116.376Z" fill="#FF8548"/>
<path d="M192.199 101.255C190.303 101.049 188.648 99.8616 187.907 98.1242L185.546 92.6537L184.856 91.071L180.823 81.73L181.53 91.4151L181.943 97.2296L182.064 98.8811C182.167 100.24 181.219 101.427 179.875 101.668H179.858C179.134 102.838 178.151 105.194 181.116 106.141C184.598 107.242 190.217 104.506 192.234 101.272C192.216 101.272 192.199 101.272 192.199 101.255Z" fill="#FDAD9B"/>
<path d="M185.546 92.4817C185.546 92.5333 185.546 92.585 185.529 92.6366C185.304 95.7502 181.944 97.2125 181.944 97.2125L181.926 97.1953L181.513 91.3808C182.53 91.0023 183.995 90.6238 184.839 91.0367C185.304 91.2775 185.58 91.7076 185.546 92.4817Z" fill="#2F1A31"/>
<path d="M180.375 94.4942C185.411 94.4942 189.493 89.4648 189.493 83.2608C189.493 77.0568 185.411 72.0275 180.375 72.0275C175.339 72.0275 171.256 77.0568 171.256 83.2608C171.256 89.4648 175.339 94.4942 180.375 94.4942Z" fill="#FDAD9B"/>
<path d="M188.286 84.9648C187.252 85.9453 185.804 86.0485 185.063 85.1884C184.322 84.3283 184.546 82.8316 185.58 81.8511C186.614 80.8705 188.062 80.7673 188.803 81.6274C189.544 82.4704 189.303 83.967 188.286 84.9648Z" fill="#FDAD9B"/>
<path d="M175.461 90.5204C175.461 90.5204 178.581 90.5893 181.683 89.5055C181.683 89.5055 181.942 92.5676 178.564 92.774C176.616 92.8944 175.461 90.5204 175.461 90.5204Z" fill="#DB6B49"/>
<path d="M175.461 90.5204C175.461 90.5204 176.22 91.1397 177.978 91.1397C179.736 91.1397 181.701 89.5055 181.701 89.5055C181.701 89.5055 177.943 90.5376 175.461 90.5204Z" fill="white"/>
<path d="M179.495 83.3642C179.426 83.347 179.375 83.3126 179.357 83.2438C179.323 83.1406 179.375 83.0202 179.478 82.9686C179.547 82.9514 180.943 82.2289 182.167 83.5707C182.236 83.6567 182.236 83.7771 182.167 83.8631C182.08 83.9491 181.96 83.9147 181.874 83.8631C180.926 83.2266 179.702 83.347 179.65 83.3642C179.581 83.3814 179.547 83.3814 179.495 83.3642Z" fill="#060633"/>
<path d="M181.132 85.6523C181.15 86.1512 180.874 86.564 180.512 86.564C180.15 86.5812 179.857 86.1856 179.84 85.6867C179.822 85.1878 180.098 84.775 180.46 84.775C180.822 84.7578 181.115 85.1534 181.132 85.6523Z" fill="#060633"/>
<path d="M172.1 84.4478C172.031 84.4478 171.98 84.4306 171.928 84.379C171.842 84.293 171.842 84.1726 171.928 84.0866C171.98 84.035 172.996 82.848 174.634 83.6221C174.737 83.6737 174.789 83.7941 174.737 83.8973C174.686 84.0005 174.582 84.0178 174.461 84.0006C173.341 83.7769 172.255 84.3446 172.204 84.379C172.186 84.4306 172.135 84.4478 172.1 84.4478Z" fill="#060633"/>
<path d="M174.479 85.9277C174.686 86.375 174.583 86.8567 174.255 87.0115C173.928 87.1663 173.497 86.9083 173.29 86.461C173.083 86.0137 173.187 85.5321 173.514 85.3773C173.841 85.2396 174.272 85.4805 174.479 85.9277Z" fill="#060633"/>
<path d="M176.513 74.0749C176.513 74.0749 176.703 77.9627 181.581 78.6336C186.459 79.3045 188.683 82.057 188.028 85.5663C187.373 89.0757 180.65 95.6299 186.425 98.4511C192.199 101.272 190.975 96.0083 197.232 97.2297C203.489 98.4511 204.627 90.1078 200.317 85.2567C196.008 80.4227 197.749 67.6067 181.581 68.1744C165.413 68.7421 171.342 81.6097 171.342 81.6097C171.342 81.6097 176.513 78.3756 176.513 74.0749Z" fill="#66192D"/>
<path d="M188.079 99.1738C186.855 98.6921 186.114 97.9524 185.856 97.0062C185.149 94.3914 188.2 90.452 190.889 86.9598C191.596 86.0481 192.268 85.1708 192.854 84.345C194.491 82.0571 194.646 79.4251 193.233 77.3263C191.682 75.0212 188.751 74.0406 185.563 74.7803C182.391 75.5201 180.202 74.8491 178.926 74.161C177.548 73.4213 176.927 72.5096 176.893 72.4752L176.996 72.4064C177.013 72.4408 179.53 76.0533 185.528 74.6599C188.769 73.903 191.768 74.9008 193.354 77.2575C194.767 79.3735 194.629 82.1259 192.975 84.4311C192.388 85.2568 191.716 86.1169 191.01 87.0459C188.338 90.5036 185.304 94.4258 185.994 96.9718C186.252 97.9007 186.942 98.5717 188.131 99.0533L188.079 99.1738Z" fill="white"/>
<path d="M172.721 91.8106C172.393 91.8106 172.083 91.759 171.756 91.6386C170.377 91.1397 169.188 89.6259 168.533 87.596C167.481 84.3103 168.222 80.6289 170.187 79.4075C170.911 78.9602 171.738 78.8742 172.548 79.1839C173.927 79.6827 175.116 81.1966 175.771 83.2265C176.823 86.5122 176.082 90.1936 174.117 91.415C173.686 91.673 173.221 91.8106 172.721 91.8106ZM171.583 79.4075C171.17 79.4075 170.773 79.5279 170.394 79.7516C168.584 80.8869 167.912 84.3447 168.912 87.4756C169.515 89.3851 170.635 90.7957 171.894 91.2602C172.583 91.5182 173.29 91.4494 173.91 91.0709C175.72 89.9356 176.392 86.4778 175.392 83.3469C174.789 81.4374 173.669 80.0268 172.411 79.5623C172.135 79.4591 171.859 79.4075 171.583 79.4075Z" fill="white"/>
<g opacity="0.3">
<path opacity="0.3" d="M186.321 81.076C187.045 84.2757 185.89 87.7163 183.701 88.7656C181.529 89.7978 179.168 88.0431 178.444 84.8434C177.72 81.6437 178.875 78.2032 181.064 77.1538C183.236 76.1045 185.597 77.8591 186.321 81.076Z" fill="white"/>
</g>
<g opacity="0.3">
<path opacity="0.3" d="M175.858 83.4851C176.599 86.702 175.616 90.1941 173.669 91.2779C171.738 92.3616 169.567 90.6414 168.826 87.4073C168.085 84.1904 169.067 80.6982 171.015 79.6145C172.962 78.5307 175.134 80.2682 175.858 83.4851Z" fill="white"/>
</g>
<path d="M182.167 89.1613C181.667 89.1613 181.15 89.0409 180.667 88.8C179.271 88.1291 178.203 86.5981 177.737 84.6026C176.944 81.1793 178.237 77.4807 180.633 76.3625C181.598 75.9152 182.615 75.9152 183.58 76.3797C184.976 77.0506 186.045 78.5817 186.51 80.5772C187.303 84.0005 186.01 87.6991 183.614 88.8173C183.149 89.0409 182.666 89.1613 182.167 89.1613ZM182.08 76.4141C181.65 76.4141 181.219 76.5173 180.805 76.7066C178.582 77.7559 177.375 81.2481 178.134 84.4994C178.565 86.3401 179.581 87.8195 180.857 88.4216C181.701 88.8345 182.615 88.8345 183.459 88.4388C185.683 87.3894 186.889 83.8973 186.131 80.646C185.7 78.8053 184.683 77.3259 183.408 76.7238C182.977 76.5173 182.529 76.4141 182.08 76.4141Z" fill="white"/>
<path d="M175.427 84.6718C175.323 84.6718 175.203 84.6202 175.134 84.5342C174.996 84.3793 175.03 84.1385 175.185 84.0009C175.237 83.9493 176.478 82.9515 178.529 83.3644C178.736 83.3988 178.874 83.6052 178.822 83.8116C178.788 84.0181 178.581 84.1557 178.374 84.1041C176.685 83.7772 175.702 84.5513 175.651 84.5858C175.599 84.6546 175.513 84.6718 175.427 84.6718Z" fill="white"/>
<path d="M74.1019 77.6135H76.0322V74.8439H74.1019V77.6135Z" fill="#2F1A31"/>
<path d="M71.7129 73.4382C71.7129 71.6491 73.1779 70.1869 74.9704 70.1869C76.7628 70.1869 78.2278 71.6491 78.2278 73.4382C78.2278 75.2273 76.7628 76.6895 74.9704 76.6895C73.1607 76.6895 71.7129 75.2445 71.7129 73.4382Z" fill="#2F1A31"/>
<path d="M73.332 73.4382C73.332 72.3029 74.2455 71.3911 75.383 71.3911C76.5205 71.3911 77.434 72.3029 77.434 73.4382C77.434 74.5736 76.5205 75.4854 75.383 75.4854C74.2455 75.4854 73.332 74.5736 73.332 73.4382Z" fill="#3E3E3E"/>
<path d="M74.1079 72.8184C74.039 72.3539 74.4354 71.9583 74.9007 72.0271C75.1765 72.0787 75.4178 72.3023 75.4695 72.5776C75.5384 73.0421 75.142 73.4377 74.6767 73.3689C74.3837 73.3345 74.1596 73.0937 74.1079 72.8184Z" fill="#036D4B"/>
<path d="M60.355 152.347V137.914H89.5197V152.347C89.5197 156.097 92.0191 159.142 95.1045 159.142H96.2765V161H53.5981V159.142H54.7702C57.8556 159.142 60.355 156.097 60.355 152.347Z" fill="#333333"/>
<path d="M53.8395 161H96.0352C96.5524 161 96.966 160.587 96.966 160.071C96.966 159.555 96.5524 159.142 96.0352 159.142H53.8395C53.3224 159.142 52.9087 159.555 52.9087 160.071C52.9087 160.587 53.3224 161 53.8395 161Z" fill="#3E3E3E"/>
<path d="M25.2608 146.773L123.873 145.638C125.976 145.621 127.682 143.9 127.682 141.784V81.7126C127.682 79.6139 125.993 77.8936 123.89 77.8592L26.5535 76.3798C24.4334 76.3454 22.6925 78.0313 22.6408 80.1472L21.3652 142.834C21.3308 145.036 23.0889 146.808 25.2608 146.773Z" fill="#3E3E3E"/>
<path d="M28.4505 134.869H121.978C123.029 134.869 123.874 134.026 123.874 132.977V84.3619C123.874 83.3125 123.029 82.4696 121.978 82.4696H28.4505C27.3991 82.4696 26.5545 83.3125 26.5545 84.3619V132.977C26.5372 134.026 27.3991 134.869 28.4505 134.869Z" fill="#FF8548"/>
<path d="M87.2789 95.5436C87.2789 95.5436 87.9855 98.2272 87.2789 101.582C86.5722 104.936 83.1597 96.679 83.1597 96.679L87.2789 95.5436Z" fill="#66192D"/>
<path d="M110.325 136.555C110.17 136.572 110.015 136.572 109.86 136.572H43.3428C42.0845 136.572 40.9124 136.125 40.0161 135.368C43.9116 131.291 52.3749 124.72 67.6295 122.621C68.0949 122.552 68.5775 122.5 69.0429 122.432C69.5083 122.38 69.9738 122.328 70.4564 122.294C71.594 122.191 72.7489 122.122 73.9038 122.087C75.3516 122.036 76.8168 122.053 78.2819 122.139C78.3853 122.139 78.4887 122.156 78.5922 122.156C78.6266 122.156 78.6611 122.156 78.6956 122.174C79.9021 122.26 81.0742 122.432 82.2291 122.586C82.6945 122.638 83.1599 122.707 83.6081 122.741C98.2077 124.135 106.171 130.93 110.325 136.555Z" fill="#FF443C"/>
<path d="M70.6114 126.113C67.7848 124.496 70.6803 122.776 71.3008 120.66L73.2311 114.071L73.7999 112.145L77.109 100.86L77.7467 112.024L78.1259 118.733L78.2466 120.849C78.3327 122.294 79.2117 122.57 80.2975 123.808C80.7457 124.307 81.5213 123.894 78.1259 124.479C75.3338 124.943 72.6106 127.266 70.6114 126.113Z" fill="#FDAD9B"/>
<path d="M87.693 102.545C86.8312 96.0426 81.7635 91.3462 76.3684 92.0516C70.9733 92.7569 67.2846 98.6058 68.1464 105.091C69.0083 111.594 74.0759 116.29 79.471 115.585C84.8662 114.897 88.5549 109.048 87.693 102.545Z" fill="#FDAD9B"/>
<path d="M67.8885 101.72L72.6631 101.221C73.7146 101.118 74.6798 100.55 75.2486 99.6553C76.2311 98.1242 77.4033 97.3501 81.8504 97.5049C87.4868 97.7114 91.21 94.3569 91.8133 91.4152C92.4338 88.4047 89.5552 86.3748 86.7111 87.8026C83.8843 89.2305 85.0909 85.7211 82.3675 85.3426C77.2826 84.6373 76.3173 88.5595 72.1633 88.4391C66.6992 88.2671 56.9087 92.4129 61.5626 102.012L67.8885 101.72Z" fill="#66192D"/>
<path d="M79.7633 103.336C79.8151 103.302 79.8495 103.25 79.8495 103.182C79.8668 103.078 79.7806 102.975 79.6599 102.958C79.591 102.958 78.1088 102.683 77.3504 104.265C77.2987 104.369 77.3332 104.489 77.4366 104.541C77.54 104.592 77.6434 104.541 77.7123 104.455C78.4017 103.595 79.5738 103.354 79.6255 103.371C79.6944 103.371 79.7289 103.354 79.7633 103.336Z" fill="#060633"/>
<path d="M78.9019 105.9C79.0225 106.364 79.4017 106.657 79.7291 106.571C80.0566 106.485 80.229 106.038 80.1083 105.573C79.9877 105.109 79.6085 104.816 79.281 104.902C78.9363 104.988 78.7812 105.435 78.9019 105.9Z" fill="#060633"/>
<path d="M87.159 102.752C87.2107 102.752 87.2452 102.7 87.2625 102.648C87.2969 102.545 87.2625 102.425 87.1763 102.373C87.1246 102.339 86.1077 101.479 85.1425 102.597C85.0736 102.666 85.0736 102.786 85.1425 102.872C85.1942 102.958 85.2977 102.958 85.3666 102.906C86.1077 102.425 87.0211 102.683 87.0556 102.717C87.0901 102.734 87.1246 102.752 87.159 102.752Z" fill="#060633"/>
<path d="M85.3311 104.781C85.2794 105.246 85.5035 105.676 85.8482 105.71C86.1929 105.745 86.5204 105.401 86.5721 104.936C86.6238 104.472 86.3998 104.042 86.055 104.007C85.7276 103.973 85.4001 104.317 85.3311 104.781Z" fill="#060633"/>
<path d="M61.562 102.029C61.562 102.029 64.8539 109.134 69.5247 109.65C69.5247 109.65 65.7502 104.231 73.7128 100.946C73.7301 100.946 66.4051 99.793 61.562 102.029Z" fill="#66192D"/>
<path d="M68.1637 105.952C69.1633 106.588 70.4387 106.382 71.0075 105.487C71.5762 104.593 71.2315 103.354 70.2319 102.718C69.2322 102.081 67.9568 102.287 67.3881 103.182C66.8021 104.077 67.164 105.315 68.1637 105.952Z" fill="#FDAD9B"/>
<path d="M73.7308 100.946C73.7308 100.946 73.093 106.898 74.2996 108.033C75.5062 109.152 83.5386 109.65 87.2789 108.205C87.3479 112.024 84.6417 115.413 80.8496 116.05C79.5913 116.256 78.2986 116.256 77.023 116.033C74.403 115.568 71.852 114.502 70.766 112.059C70.4385 111.319 71.3866 106.778 71.3866 106.778C71.3866 106.778 71.7486 104.111 70.1973 102.718C70.2145 102.718 72.0071 101.118 73.7308 100.946Z" fill="#66192D"/>
<path d="M85.314 110.338C85.314 110.338 82.2461 111.164 78.8853 110.837C78.8853 110.837 79.3851 113.933 82.7804 113.314C84.7452 112.97 85.314 110.338 85.314 110.338Z" fill="white"/>
<path d="M86.125 87.3558C84.6427 87.3558 84.5049 86.0828 84.5049 86.0656L84.7806 86.0483L84.6427 86.0656L84.7806 86.0483C84.7806 86.0999 84.9013 87.1321 86.1939 87.0977V87.373C86.1767 87.3558 86.1422 87.3558 86.125 87.3558Z" fill="#66192D"/>
<path d="M83.4529 95.9395L83.4185 95.8191C83.4874 95.8019 89.4852 94.03 89.7265 90.9508C89.7955 90.0734 89.6576 89.5058 89.2784 89.1789C88.6752 88.6628 87.6066 88.9208 86.6414 89.1445C86.4863 89.1789 86.3484 89.2133 86.2106 89.2477L86.1761 89.1101C86.314 89.0757 86.4519 89.0413 86.607 89.0069C87.5894 88.7832 88.7097 88.5252 89.3646 89.0757C89.7783 89.4197 89.9334 90.039 89.8644 90.9508C89.761 92.2754 88.6063 93.5484 86.5553 94.6666C85.0041 95.4923 83.4702 95.9395 83.4529 95.9395Z" fill="white"/>
<path d="M71.6284 89.6949C71.0596 89.6949 70.4564 89.6605 69.8359 89.5745L69.8532 89.4369C75.7132 90.2282 78.5225 86.9425 78.557 86.9081L78.6604 86.9941C78.6259 87.0285 76.3508 89.6949 71.6284 89.6949Z" fill="white"/>
<path d="M67.6295 122.638C67.6295 122.638 69.715 118.423 71.3524 119.008C72.2831 119.335 73.1276 122.397 75.868 123.343C78.6084 124.29 78.3843 124.685 78.3326 125.58C78.2809 126.474 78.6429 129.571 77.4364 129.691C76.2127 129.829 66.8367 127.937 67.6295 122.638Z" fill="#036D4B"/>
<path d="M78.0408 120.264C78.0236 120.006 78.2993 119.834 78.5234 119.937C79.4024 120.316 81.6774 121.434 82.5047 123.016C83.5561 124.978 82.1945 129.055 81.1604 129.141C80.1435 129.227 77.8857 125.029 78.1097 124.461C78.3338 123.911 78.7991 122.586 78.5062 121.881C78.3166 121.417 78.058 120.728 78.0408 120.264Z" fill="#036D4B"/>
<path d="M252.974 96.4041C251.095 93.514 247.165 91.7422 246.872 88.3188C246.769 87.0458 247.183 85.6524 246.528 84.5514C245.804 83.3472 244.132 83.158 242.735 83.2956C241.201 83.4504 239.564 83.9149 238.616 85.1363C237.426 86.6674 237.685 88.8349 237.306 90.7444C236.392 95.3375 231.859 98.176 227.722 100.378C225.568 101.53 223.31 102.735 222.017 104.799C219.81 108.274 221.017 112.798 220.845 116.91C220.707 120.178 219.586 123.378 217.69 126.044C216.57 127.61 215.415 129.141 214.157 130.603C211.933 133.166 212.881 136.607 216.105 137.088C217.914 137.364 219.69 136.676 220.414 135.489C222.706 131.79 229.429 131.463 231.928 131.102C234.427 130.741 237.047 129.502 237.995 127.162C238.892 124.961 238.064 122.449 238.426 120.092C238.926 116.841 241.581 114.398 244.08 112.231C246.217 110.373 248.355 108.532 250.492 106.674C251.475 105.814 252.491 104.937 253.181 103.818C254.543 101.616 254.405 98.606 252.974 96.4041ZM246.631 104.076C244.356 106.605 240.753 106.829 237.788 108.033C235.479 108.979 233.479 110.115 230.877 109.994C229.187 109.908 227.119 109.409 227.067 107.397C226.981 103.922 231.704 103.32 234.151 103.165C235.668 103.079 237.254 102.958 238.616 102.287C239.633 101.789 240.495 100.98 241.063 100.017C241.46 99.3457 241.718 98.5888 242.27 98.0555C242.632 97.6943 243.097 97.4534 243.597 97.3158C245.045 96.9201 246.7 97.5911 247.476 98.8813C248.441 100.481 247.889 102.666 246.631 104.076Z" fill="#036D4B"/>
<path d="M201.919 140.426C201.919 140.426 205.418 164.957 207.969 165.18C210.521 165.404 220.104 165.92 223.035 165.18C225.965 164.441 227.568 140.082 226.758 139.48C225.965 138.895 200.851 137.639 201.919 140.426Z" fill="#FF443C"/>
<path d="M226.016 155.272L224.878 153.035C228.015 151.436 232.634 148.322 233.048 146.395C233.1 146.137 233.065 145.948 232.91 145.741C231.669 144.193 229.601 144.709 228.929 144.864C227.395 145.243 226.119 146.017 226.119 146.017L224.81 143.884C224.879 143.849 226.412 142.903 228.343 142.421C231.893 141.544 233.858 142.886 234.892 144.159C235.53 144.95 235.754 145.896 235.53 146.894C235.151 148.632 233.444 150.524 230.325 152.674C228.136 154.188 226.102 155.22 226.016 155.272Z" fill="#FF443C"/>
<path d="M210.072 152.382C209.227 147.84 213.45 146.034 216.691 146.034C219.931 146.034 222.344 148.373 222.344 151.59C222.344 154.824 219.173 158.213 215.932 158.213C212.692 158.231 210.658 155.564 210.072 152.382Z" fill="#FFC700"/>
<path d="M215.243 157.439C213.692 157.439 212.296 156.82 211.227 155.667C210.244 154.618 209.572 153.173 209.262 151.487C208.952 149.836 209.279 148.425 210.227 147.29C211.658 145.569 214.157 144.967 216.019 144.967C219.38 144.967 221.81 147.358 221.81 150.678C221.793 154.033 218.484 157.439 215.243 157.439ZM216.002 145.242C214.209 145.242 211.796 145.827 210.417 147.462C209.538 148.528 209.227 149.853 209.52 151.418C209.813 153.052 210.468 154.446 211.416 155.461C212.433 156.562 213.761 157.147 215.243 157.147C218.346 157.147 221.517 153.878 221.517 150.661C221.517 147.53 219.19 145.242 216.002 145.242Z" fill="white"/>
<path d="M130.629 67.8472C103.947 68.0708 99.2754 73.266 100.672 79.459C101.24 81.9706 103.361 85.4627 107.859 87.9571C105.912 91.8621 102.74 92.9631 102.74 92.9631C107.515 93.5308 112.324 91.088 113.875 90.2107C116.995 90.9332 120.77 91.2428 125.286 90.8988C142.402 89.6086 161.759 67.5719 130.629 67.8472Z" fill="#FFC700"/>
<path d="M153.071 95.2861C153.657 90.1941 156.949 87.9922 156.949 87.9922C152.502 88.5943 148.693 91.7424 147.159 93.1702C142.108 92.1896 135.352 92.4477 127.267 94.9765C97.5512 104.249 119.252 113.555 132.594 113.59C149.762 113.641 156.156 106.829 157.208 102.133C157.742 99.7072 156.26 97.144 153.071 95.2861Z" fill="#FFC700"/>
</svg>
