<svg width="60" height="64" viewBox="0 0 60 64" fill="none" xmlns="http://www.w3.org/2000/svg">
<path d="M34.3328 4.01233H5.15967V20.1932H34.3328V4.01233Z" fill="#E6E6E6"/>
<path d="M34.3328 4.01233H5.15967V5.19629H34.3328V4.01233Z" fill="#FF2B55"/>
<path d="M34.3323 6.51208H5.15918V7.69606H34.3323V6.51208Z" fill="#FF2B55"/>
<path d="M34.3323 9.0116H5.15918V10.1956H34.3323V9.0116Z" fill="#FF2B55"/>
<path d="M34.3323 11.5109H5.15918V12.6948H34.3323V11.5109Z" fill="#FF2B55"/>
<path d="M34.3323 13.9447H5.15918V15.1287H34.3323V13.9447Z" fill="#FF2B55"/>
<path d="M34.3323 16.4441H5.15918V17.6281H34.3323V16.4441Z" fill="#FF2B55"/>
<path d="M34.3323 18.9437H5.15918V20.1277H34.3323V18.9437Z" fill="#FF2B55"/>
<path d="M16.9348 4.01233H5.15967V12.6948H16.9348V4.01233Z" fill="#0096EA"/>
<path d="M5.88738 4.27551L5.95354 4.67017H6.35044L6.01968 4.86749L6.15198 5.26215L5.88738 4.99905L5.55662 5.26215L5.68892 4.86749L5.42432 4.67017H5.75508L5.88738 4.27551Z" fill="white"/>
<path d="M7.14422 4.27551L7.27653 4.67017H7.60729L7.34267 4.86749L7.47498 5.26215L7.14422 4.99905L6.87961 5.26215L6.94577 4.86749L6.68115 4.67017H7.07807L7.14422 4.27551Z" fill="white"/>
<path d="M8.46697 4.27551L8.53313 4.67017H8.93004L8.59928 4.86749L8.73157 5.26215L8.46697 4.99905L8.13621 5.26215L8.26852 4.86749L8.00391 4.67017H8.33467L8.46697 4.27551Z" fill="white"/>
<path d="M9.72428 4.27551L9.8566 4.67017H10.1874L9.92275 4.86749L10.055 5.26215L9.72428 4.99905L9.45968 5.26215L9.59199 4.86749L9.26123 4.67017H9.65815L9.72428 4.27551Z" fill="white"/>
<path d="M11.047 4.27551L11.1793 4.67017H11.5101L11.2455 4.86749L11.3117 5.26215L11.047 4.99905L10.7163 5.26215L10.8486 4.86749L10.584 4.67017H10.9147L11.047 4.27551Z" fill="white"/>
<path d="M12.3044 4.27551L12.4367 4.67017H12.8336L12.5028 4.86749L12.6351 5.26215L12.3044 4.99905L12.0398 5.26215L12.1721 4.86749L11.8413 4.67017H12.2382L12.3044 4.27551Z" fill="white"/>
<path d="M13.6271 4.27551L13.7594 4.67017H14.0902L13.8256 4.86749L13.8917 5.26215L13.6271 4.99905L13.3625 5.26215L13.4287 4.86749L13.1641 4.67017H13.4948L13.6271 4.27551Z" fill="white"/>
<path d="M14.8835 4.27551L15.0158 4.67017H15.4127L15.0819 4.86749L15.2142 5.26215L14.8835 4.99905L14.6189 5.26215L14.7512 4.86749L14.4204 4.67017H14.8173L14.8835 4.27551Z" fill="white"/>
<path d="M16.2062 4.27551L16.3385 4.67017H16.6693L16.4047 4.86749L16.4708 5.26215L16.2062 4.99905L15.9416 5.26215L16.0078 4.86749L15.7432 4.67017H16.0739L16.2062 4.27551Z" fill="white"/>
<path d="M5.88738 7.16968L5.95354 7.49856H6.35044L6.01968 7.76168L6.15198 8.09056L5.88738 7.89322L5.55662 8.09056L5.68892 7.76168L5.42432 7.49856H5.75508L5.88738 7.16968Z" fill="white"/>
<path d="M7.14422 7.16968L7.27653 7.49856H7.60729L7.34267 7.76168L7.47498 8.09056L7.14422 7.89322L6.87961 8.09056L6.94577 7.76168L6.68115 7.49856H7.07807L7.14422 7.16968Z" fill="white"/>
<path d="M8.46697 7.16968L8.53313 7.49856H8.93004L8.59928 7.76168L8.73157 8.09056L8.46697 7.89322L8.13621 8.09056L8.26852 7.76168L8.00391 7.49856H8.33467L8.46697 7.16968Z" fill="white"/>
<path d="M9.72428 7.16968L9.8566 7.49856H10.1874L9.92275 7.76168L10.055 8.09056L9.72428 7.89322L9.45968 8.09056L9.59199 7.76168L9.26123 7.49856H9.65815L9.72428 7.16968Z" fill="white"/>
<path d="M11.047 7.16968L11.1793 7.49856H11.5101L11.2455 7.76168L11.3117 8.09056L11.047 7.89322L10.7163 8.09056L10.8486 7.76168L10.584 7.49856H10.9147L11.047 7.16968Z" fill="white"/>
<path d="M12.3044 7.16968L12.4367 7.49856H12.8336L12.5028 7.76168L12.6351 8.09056L12.3044 7.89322L12.0398 8.09056L12.1721 7.76168L11.8413 7.49856H12.2382L12.3044 7.16968Z" fill="white"/>
<path d="M13.6271 7.16968L13.7594 7.49856H14.0902L13.8256 7.76168L13.8917 8.09056L13.6271 7.89322L13.3625 8.09056L13.4287 7.76168L13.1641 7.49856H13.4948L13.6271 7.16968Z" fill="white"/>
<path d="M14.8835 7.16968L15.0158 7.49856H15.4127L15.0819 7.76168L15.2142 8.09056L14.8835 7.89322L14.6189 8.09056L14.7512 7.76168L14.4204 7.49856H14.8173L14.8835 7.16968Z" fill="white"/>
<path d="M16.2062 7.16968L16.3385 7.49856H16.6693L16.4047 7.76168L16.4708 8.09056L16.2062 7.89322L15.9416 8.09056L16.0078 7.76168L15.7432 7.49856H16.0739L16.2062 7.16968Z" fill="white"/>
<path d="M5.88738 10.0638L5.95354 10.3927H6.35044L6.01968 10.59L6.15198 10.9847L5.88738 10.7874L5.55662 10.9847L5.68892 10.59L5.42432 10.3927H5.75508L5.88738 10.0638Z" fill="white"/>
<path d="M7.14422 10.0638L7.27653 10.3927H7.60729L7.34267 10.59L7.47498 10.9847L7.14422 10.7874L6.87961 10.9847L6.94577 10.59L6.68115 10.3927H7.07807L7.14422 10.0638Z" fill="white"/>
<path d="M8.46697 10.0638L8.53313 10.3927H8.93004L8.59928 10.59L8.73157 10.9847L8.46697 10.7874L8.13621 10.9847L8.26852 10.59L8.00391 10.3927H8.33467L8.46697 10.0638Z" fill="white"/>
<path d="M9.72428 10.0638L9.8566 10.3927H10.1874L9.92275 10.59L10.055 10.9847L9.72428 10.7874L9.45968 10.9847L9.59199 10.59L9.26123 10.3927H9.65815L9.72428 10.0638Z" fill="white"/>
<path d="M11.047 10.0638L11.1793 10.3927H11.5101L11.2455 10.59L11.3117 10.9847L11.047 10.7874L10.7163 10.9847L10.8486 10.59L10.584 10.3927H10.9147L11.047 10.0638Z" fill="white"/>
<path d="M12.3044 10.0638L12.4367 10.3927H12.8336L12.5028 10.59L12.6351 10.9847L12.3044 10.7874L12.0398 10.9847L12.1721 10.59L11.8413 10.3927H12.2382L12.3044 10.0638Z" fill="white"/>
<path d="M13.6271 10.0638L13.7594 10.3927H14.0902L13.8256 10.59L13.8917 10.9847L13.6271 10.7874L13.3625 10.9847L13.4287 10.59L13.1641 10.3927H13.4948L13.6271 10.0638Z" fill="white"/>
<path d="M14.8835 10.0638L15.0158 10.3927H15.4127L15.0819 10.59L15.2142 10.9847L14.8835 10.7874L14.6189 10.9847L14.7512 10.59L14.4204 10.3927H14.8173L14.8835 10.0638Z" fill="white"/>
<path d="M16.2062 10.0638L16.3385 10.3927H16.6693L16.4047 10.59L16.4708 10.9847L16.2062 10.7874L15.9416 10.9847L16.0078 10.59L15.7432 10.3927H16.0739L16.2062 10.0638Z" fill="white"/>
<path d="M6.48308 5.72253L6.6154 6.11719H7.0123L6.68154 6.31451L6.81384 6.64339L6.48308 6.44607L6.21848 6.64339L6.35078 6.31451L6.02002 6.11719H6.41694L6.48308 5.72253Z" fill="white"/>
<path d="M7.80632 5.72253L7.93864 6.11719H8.2694L8.00478 6.31451L8.07094 6.64339L7.80632 6.44607L7.54172 6.64339L7.60788 6.31451L7.34326 6.11719H7.67402L7.80632 5.72253Z" fill="white"/>
<path d="M9.12833 5.72253L9.19449 6.11719H9.5914L9.26064 6.31451L9.39293 6.64339L9.12833 6.44607L8.79757 6.64339L8.92988 6.31451L8.59912 6.11719H8.99604L9.12833 5.72253Z" fill="white"/>
<path d="M10.3854 5.72253L10.5177 6.11719H10.8485L10.5839 6.31451L10.65 6.64339L10.3854 6.44607L10.1208 6.64339L10.187 6.31451L9.92236 6.11719H10.2531L10.3854 5.72253Z" fill="white"/>
<path d="M11.7084 5.72253L11.7746 6.11719H12.1715L11.8407 6.31451L11.973 6.64339L11.7084 6.44607L11.3776 6.64339L11.51 6.31451L11.1792 6.11719H11.5761L11.7084 5.72253Z" fill="white"/>
<path d="M12.9655 5.72253L13.0978 6.11719H13.4286L13.164 6.31451L13.2963 6.64339L12.9655 6.44607L12.7009 6.64339L12.767 6.31451L12.5024 6.11719H12.8332L12.9655 5.72253Z" fill="white"/>
<path d="M14.2892 5.72253L14.3554 6.11719H14.7523L14.4215 6.31451L14.5538 6.64339L14.2892 6.44607L13.9585 6.64339L14.0908 6.31451L13.8262 6.11719H14.1569L14.2892 5.72253Z" fill="white"/>
<path d="M15.5456 5.72253L15.6779 6.11719H16.0086L15.744 6.31451L15.8764 6.64339L15.5456 6.44607L15.281 6.64339L15.4133 6.31451L15.0825 6.11719H15.4794L15.5456 5.72253Z" fill="white"/>
<path d="M6.48308 8.61694L6.6154 8.94582H7.0123L6.68154 9.20892L6.81384 9.5378L6.48308 9.34048L6.21848 9.5378L6.35078 9.20892L6.02002 8.94582H6.41694L6.48308 8.61694Z" fill="white"/>
<path d="M7.80632 8.61694L7.93864 8.94582H8.2694L8.00478 9.20892L8.07094 9.5378L7.80632 9.34048L7.54172 9.5378L7.60788 9.20892L7.34326 8.94582H7.67402L7.80632 8.61694Z" fill="white"/>
<path d="M9.12833 8.61694L9.19449 8.94582H9.5914L9.26064 9.20892L9.39293 9.5378L9.12833 9.34048L8.79757 9.5378L8.92988 9.20892L8.59912 8.94582H8.99604L9.12833 8.61694Z" fill="white"/>
<path d="M10.3854 8.61694L10.5177 8.94582H10.8485L10.5839 9.20892L10.65 9.5378L10.3854 9.34048L10.1208 9.5378L10.187 9.20892L9.92236 8.94582H10.2531L10.3854 8.61694Z" fill="white"/>
<path d="M11.7084 8.61694L11.7746 8.94582H12.1715L11.8407 9.20892L11.973 9.5378L11.7084 9.34048L11.3776 9.5378L11.51 9.20892L11.1792 8.94582H11.5761L11.7084 8.61694Z" fill="white"/>
<path d="M12.9655 8.61694L13.0978 8.94582H13.4286L13.164 9.20892L13.2963 9.5378L12.9655 9.34048L12.7009 9.5378L12.767 9.20892L12.5024 8.94582H12.8332L12.9655 8.61694Z" fill="white"/>
<path d="M14.2892 8.61694L14.3554 8.94582H14.7523L14.4215 9.20892L14.5538 9.5378L14.2892 9.34048L13.9585 9.5378L14.0908 9.20892L13.8262 8.94582H14.1569L14.2892 8.61694Z" fill="white"/>
<path d="M15.5456 8.61694L15.6779 8.94582H16.0086L15.744 9.20892L15.8764 9.5378L15.5456 9.34048L15.281 9.5378L15.4133 9.20892L15.0825 8.94582H15.4794L15.5456 8.61694Z" fill="white"/>
<path d="M6.48308 11.4451L6.6154 11.8397H7.0123L6.68154 12.0371L6.81384 12.4317L6.48308 12.1686L6.21848 12.4317L6.35078 12.0371L6.02002 11.8397H6.41694L6.48308 11.4451Z" fill="white"/>
<path d="M7.80632 11.4451L7.93864 11.8397H8.2694L8.00478 12.0371L8.07094 12.4317L7.80632 12.1686L7.54172 12.4317L7.60788 12.0371L7.34326 11.8397H7.67402L7.80632 11.4451Z" fill="white"/>
<path d="M9.12833 11.4451L9.19449 11.8397H9.5914L9.26064 12.0371L9.39293 12.4317L9.12833 12.1686L8.79757 12.4317L8.92988 12.0371L8.59912 11.8397H8.99604L9.12833 11.4451Z" fill="white"/>
<path d="M10.3854 11.4451L10.5177 11.8397H10.8485L10.5839 12.0371L10.65 12.4317L10.3854 12.1686L10.1208 12.4317L10.187 12.0371L9.92236 11.8397H10.2531L10.3854 11.4451Z" fill="white"/>
<path d="M11.7084 11.4451L11.7746 11.8397H12.1715L11.8407 12.0371L11.973 12.4317L11.7084 12.1686L11.3776 12.4317L11.51 12.0371L11.1792 11.8397H11.5761L11.7084 11.4451Z" fill="white"/>
<path d="M12.9655 11.4451L13.0978 11.8397H13.4286L13.164 12.0371L13.2963 12.4317L12.9655 12.1686L12.7009 12.4317L12.767 12.0371L12.5024 11.8397H12.8332L12.9655 11.4451Z" fill="white"/>
<path d="M14.2892 11.4451L14.3554 11.8397H14.7523L14.4215 12.0371L14.5538 12.4317L14.2892 12.1686L13.9585 12.4317L14.0908 12.0371L13.8262 11.8397H14.1569L14.2892 11.4451Z" fill="white"/>
<path d="M15.5456 11.4451L15.6779 11.8397H16.0086L15.744 12.0371L15.8764 12.4317L15.5456 12.1686L15.281 12.4317L15.4133 12.0371L15.0825 11.8397H15.4794L15.5456 11.4451Z" fill="white"/>
<path d="M2.38154 1.18396H2.05078V3.88076H2.38154V1.18396Z" fill="#DEDEDE"/>
<path d="M2.8438 3.35474H1.58691V62.2242H2.8438V3.35474Z" fill="#DEDEDE"/>
<path d="M2.97633 0.789319C2.97633 1.18397 2.64556 1.57862 2.1825 1.57862C1.78558 1.57862 1.38867 1.24975 1.38867 0.789319C1.38867 0.394664 1.71943 0 2.1825 0C2.64556 0 2.97633 0.394664 2.97633 0.789319Z" fill="#DEDEDE"/>
<path d="M2.18215 1.90747C2.18215 1.90747 1.18987 2.17059 1.52063 2.82835C1.52063 2.82835 1.65293 3.02567 2.18215 3.02567C2.77752 3.02567 2.84367 2.82835 2.84367 2.82835C3.24058 2.17059 2.18215 1.90747 2.18215 1.90747Z" fill="#DEDEDE"/>
<path d="M4.89562 4.53845H2.38184V5.52509H4.89562V4.53845Z" fill="#DEDEDE"/>
<path d="M4.89562 17.7595H2.38184V18.7462H4.89562V17.7595Z" fill="#DEDEDE"/>
<path d="M5.15955 4.01233H4.36572V20.1932H5.15955V4.01233Z" fill="#DEDEDE"/>
<path d="M40.0879 8.09033H39.8232V10.3267H40.0879V8.09033Z" fill="#DEDEDE"/>
<path d="M40.419 9.86633H39.4268V27.1654H40.419V9.86633Z" fill="#DEDEDE"/>
<path d="M39.9564 8.4194C40.3218 8.4194 40.618 8.12491 40.618 7.76164C40.618 7.39837 40.3218 7.10388 39.9564 7.10388C39.5911 7.10388 39.2949 7.39837 39.2949 7.76164C39.2949 8.12491 39.5911 8.4194 39.9564 8.4194Z" fill="#DEDEDE"/>
<path d="M39.956 8.68225C39.956 8.68225 39.096 8.94534 39.4268 9.47155C39.4268 9.47155 39.4929 9.66889 39.956 9.66889C40.4191 9.66889 40.4852 9.47155 40.4852 9.47155C40.816 8.87957 39.956 8.68225 39.956 8.68225Z" fill="#DEDEDE"/>
<path d="M42.2062 10.853H40.0894V11.7081H42.2062V10.853Z" fill="#DEDEDE"/>
<path d="M42.2062 21.8374H40.0894V22.6925H42.2062V21.8374Z" fill="#DEDEDE"/>
<path d="M47.762 10.3925H41.7422V23.8107H47.762V10.3925Z" fill="#0096EA"/>
<path d="M53.7161 10.3925H47.6963V23.8107H53.7161V10.3925Z" fill="#FEFEFE"/>
<path d="M59.7357 10.3925H53.7158V23.8107H59.7357V10.3925Z" fill="#FF2B55"/>
<path d="M42.4037 10.3925H41.7422V23.8107H42.4037V10.3925Z" fill="#DEDEDE"/>
<path d="M51.5987 59.7246H8.40137V61.7636H51.5987V59.7246Z" fill="#5E5E5E"/>
<path d="M54.1123 60.3165H5.82122C4.69663 60.3165 3.77051 59.5272 3.77051 58.4748V27.9548C3.77051 26.9681 4.69663 26.113 5.82122 26.113H54.1123C55.2369 26.113 56.163 26.9023 56.163 27.9548V58.4748C56.2292 59.4614 55.303 60.3165 54.1123 60.3165Z" fill="#ABABAB"/>
<path d="M56.8247 63.9998H3.1753C1.38919 63.9998 0 62.5528 0 60.711V60.6453H60V60.711C60 62.5528 58.5447 63.9998 56.8247 63.9998Z" fill="#382040"/>
<path d="M52.8552 29.1389H7.14404V57.291H52.8552V29.1389Z" fill="#1ED2CF"/>
<path d="M35.2592 33.2825C34.0023 33.8087 32.4146 32.8878 31.8193 31.6381C31.2239 30.3883 31.3562 28.9412 31.687 27.5599C32.0177 26.2444 32.5469 24.9289 32.7454 23.5476C33.01 21.3112 32.15 18.8775 30.4962 17.2989C28.8424 15.7203 26.461 14.8652 24.2118 15.1941C23.6826 15.2598 23.021 15.4572 22.8226 15.9834C22.6241 15.4572 22.0288 15.2598 21.4334 15.1941C19.1842 14.931 16.7366 15.7203 15.1489 17.2989C13.4951 18.8775 12.7013 21.2455 12.8998 23.5476C13.0321 24.9289 13.5613 26.2444 13.9582 27.5599C14.289 28.8755 14.4213 30.3883 13.8259 31.6381C13.2305 32.8878 11.709 33.7429 10.386 33.2825C9.98905 34.9926 10.849 36.7686 12.1721 37.9525C13.4951 39.1365 15.1489 39.7943 16.8689 40.3205C18.3904 40.8467 20.3749 41.2413 21.3672 39.9258C21.7641 39.3996 21.8964 38.7418 21.9626 38.0841C22.2272 36.1766 22.4918 34.2691 22.8226 32.3616C23.0872 34.2691 23.3518 36.1766 23.6826 38.0841C23.7487 38.7418 23.881 39.3996 24.2779 39.9258C25.2702 41.1756 27.2548 40.8467 28.7763 40.3205C30.4301 39.7285 32.15 39.0707 33.4731 37.9525C34.7961 36.8344 35.6561 34.9926 35.2592 33.2825Z" fill="#382040"/>
<path d="M26.5931 35.5847C26.5931 35.5847 26.5269 35.5847 26.4608 35.5847C25.7992 35.5189 25.27 34.9927 25.27 34.335V31.1119H20.5071V34.335C20.5071 34.9927 19.9778 35.5189 19.3163 35.5847C19.184 35.5847 19.184 35.5847 19.184 35.5847L17.2656 42.2281H28.7761L26.5931 35.5847Z" fill="#FBA489"/>
<path d="M20.5071 33.9402C21.2347 34.2691 22.0286 34.5322 22.8886 34.4664C23.7485 34.4664 24.5423 34.2033 25.27 33.8745L25.2039 30.1252L20.4409 30.191L20.5071 33.9402Z" fill="#F1856A"/>
<path d="M19.1181 26.3759C19.1181 27.4941 18.3243 28.415 17.332 28.415C16.3397 28.415 15.5459 26.5733 15.5459 25.4551C15.5459 24.3369 16.3397 24.1395 17.332 24.3369C18.3243 24.4684 19.1181 25.192 19.1181 26.3759Z" fill="#FBA489"/>
<path d="M26.6597 26.3759C26.6597 27.4941 27.4535 28.415 28.4458 28.415C29.4381 28.415 30.2319 26.5733 30.2319 25.4551C30.2319 24.3369 29.4381 24.1395 28.4458 24.3369C27.4535 24.4684 26.6597 25.192 26.6597 26.3759Z" fill="#FBA489"/>
<path d="M28.5114 20.6535C27.8498 18.5487 22.8884 18.4829 22.8884 18.4829C22.8884 18.4829 17.9932 18.5487 17.2655 20.6535C16.604 22.7583 16.6701 27.0996 17.6624 29.2044C18.6547 31.3092 20.5731 33.0852 22.8884 33.0852C25.2038 33.0852 27.056 31.3092 28.1144 29.2044C29.1067 27.1653 29.1729 22.7583 28.5114 20.6535Z" fill="#FBA489"/>
<path d="M18.6555 24.1395C18.5894 24.1395 18.5894 24.1395 18.5232 24.0738C18.4571 24.008 18.4571 23.8764 18.5232 23.8107C18.5232 23.8107 19.4494 22.7582 20.9047 23.3502C20.9709 23.416 21.037 23.4818 20.9709 23.6133C20.9047 23.6791 20.8386 23.7449 20.7063 23.6791C19.5155 23.1529 18.7879 24.008 18.7879 24.008C18.7217 24.1395 18.7217 24.1395 18.6555 24.1395Z" fill="#382040"/>
<path d="M27.122 24.1395C27.1882 24.1395 27.1882 24.1395 27.2543 24.0738C27.3205 24.008 27.3205 23.8764 27.2543 23.8107C27.2543 23.8107 26.3282 22.7582 24.8729 23.3502C24.8067 23.416 24.7405 23.4818 24.8067 23.6133C24.8728 23.6791 24.939 23.7449 25.0713 23.6791C26.262 23.1529 26.9897 24.008 26.9897 24.008C27.0559 24.1395 27.0559 24.1395 27.122 24.1395Z" fill="#382040"/>
<path d="M20.3743 25.3893C20.3743 25.8497 20.0436 26.2443 19.7128 26.2443C19.3159 26.2443 19.0513 25.8497 19.0513 25.3893C19.0513 24.9288 19.382 24.5342 19.7128 24.5342C20.1097 24.5342 20.3743 24.8631 20.3743 25.3893Z" fill="#391829"/>
<path d="M26.7908 25.3893C26.7908 25.8497 26.4601 26.2443 26.1293 26.2443C25.7324 26.2443 25.4678 25.8497 25.4678 25.3893C25.4678 24.9288 25.7985 24.5342 26.1293 24.5342C26.4601 24.5342 26.7908 24.8631 26.7908 25.3893Z" fill="#391829"/>
<path d="M20.772 29.2043C20.9704 29.7306 21.632 30.9145 22.8888 30.9145C24.1457 30.9145 24.8073 29.7306 25.0057 29.2043H20.772Z" fill="white"/>
<path d="M22.8893 28.0863C22.4924 28.0863 22.2278 27.9548 22.0955 27.6917C22.0955 27.7574 22.0293 27.8232 22.0293 27.8232C22.0293 28.1521 22.4262 28.3494 22.8893 28.3494C23.3524 28.3494 23.7493 28.0863 23.7493 27.8232C23.7493 27.7574 23.7493 27.6917 23.6831 27.6917C23.5508 27.889 23.2862 28.0863 22.8893 28.0863Z" fill="#E4776D"/>
<path d="M19.9123 27.6256C19.9123 28.1518 19.5154 28.5465 18.92 28.5465C18.3908 28.5465 17.9277 28.1518 17.9277 27.6256C17.9277 27.0994 18.3246 26.7048 18.92 26.7048C19.4492 26.639 19.9123 27.0994 19.9123 27.6256Z" fill="#F8918B"/>
<path d="M27.7839 27.6256C27.7839 28.1518 27.387 28.5465 26.7916 28.5465C26.2624 28.5465 25.7993 28.1518 25.7993 27.6256C25.7993 27.0994 26.1962 26.7048 26.7916 26.7048C27.3208 26.639 27.7839 27.0994 27.7839 27.6256Z" fill="#F8918B"/>
<path d="M29.0405 22.1662C29.0405 21.7058 29.0405 21.2453 28.9744 20.7849C28.842 20.1929 28.5774 19.5352 28.1144 19.1405C27.7836 18.8774 27.4529 18.6143 27.0559 18.417C26.5267 18.1539 25.9314 17.825 25.336 17.6934C24.1452 17.3645 22.9545 17.4303 21.6976 17.5619C20.8376 17.6934 19.9115 17.825 19.1177 18.1539C18.3239 18.4827 17.53 19.009 17.1331 19.7983C16.5378 20.7849 16.4716 22.1662 16.5378 23.3502C16.5378 24.271 16.5377 25.3235 16.7362 26.1785C16.9347 26.1128 17.067 26.047 17.2654 25.9154C17.3316 25.9154 17.3977 25.8497 17.3977 25.7839C17.3977 25.7181 17.3977 25.7181 17.3977 25.6523C17.3977 25.1919 17.3977 24.7315 17.4639 24.2053C17.53 23.8764 17.5962 23.4817 17.7285 23.1528C17.8608 22.8897 18.0593 22.6266 18.2577 22.3635C18.6546 22.1662 19.0515 22.1662 19.4484 22.232C19.9777 22.2978 20.5069 22.4293 20.9699 22.4293C21.5653 22.3635 22.1607 22.0347 22.6237 21.5742L22.6899 21.5084L22.7561 21.5742C23.2853 22.0347 23.8145 22.3635 24.4099 22.4293C24.9391 22.4951 25.4683 22.2978 25.9314 22.232C26.3944 22.1662 26.8575 22.1662 27.2544 22.4293C27.4529 22.6924 27.6513 22.8897 27.7836 23.1528C27.9159 23.4817 27.9821 23.8106 28.0482 24.2053C28.1144 24.6657 28.1144 25.1261 28.1144 25.6523C28.1144 25.7181 28.1144 25.7839 28.1144 25.7839C28.1144 25.8497 28.1805 25.8496 28.2467 25.9154C28.4451 25.9812 28.5774 26.047 28.7759 26.1785V26.1128C28.9744 25.3234 28.9744 24.4684 28.9744 23.679C28.9744 23.2844 28.9082 22.8897 28.8421 22.4951C29.0405 22.2978 29.0405 22.232 29.0405 22.1662Z" fill="#382040"/>
<path d="M44.1904 43.0173C44.1904 43.0173 45.1166 40.8467 47.035 41.5045C49.0195 42.228 50.2103 42.7542 52.1287 42.6885C52.7902 42.6885 54.5763 42.1623 54.7748 42.5569C55.0394 42.9516 53.7163 44.2013 52.5918 44.4644C51.6656 44.6617 50.2103 44.7275 47.9611 44.5302C45.9765 44.3329 45.315 45.5826 45.315 45.5826L44.1904 43.0173Z" fill="#FBA489"/>
<path d="M44.1239 41.7019C41.8748 43.741 35.6565 47.9506 35.3257 47.7533C35.1272 47.6218 34.3334 37.8212 31.9519 36.9003C29.5705 35.9794 28.9751 40.518 28.8428 42.6228C28.7105 45.5169 31.0258 55.778 34.4657 54.3309C36.318 53.5416 46.5716 45.7143 47.0346 45.2538C46.77 44.9907 44.9178 42.557 44.1239 41.7019Z" fill="#FF2B55"/>
<path d="M31.9516 36.9001C30.6286 36.5712 27.5855 35.7162 26.5933 35.6504C26.2625 36.3739 24.741 36.9659 22.8888 36.9659C21.0365 36.9659 19.515 36.3739 19.1842 35.6504C18.192 35.7162 15.2813 36.5712 13.8921 36.9001C13.8921 36.9001 12.3044 38.9392 12.9659 40.9782C14.1567 44.5959 15.8105 50.0553 15.9428 52.4233C16.0751 54.3308 16.0089 56.0409 15.8766 57.3564H29.8347C29.7686 56.1067 29.7024 54.3965 29.7686 52.4233C29.9009 50.0553 31.5547 44.5959 32.7454 40.9782C33.4731 38.8734 31.9516 36.9001 31.9516 36.9001Z" fill="#FF2B55"/>
<path d="M29.8347 52.4233C29.9008 50.9105 30.6285 48.1479 31.4223 45.4511C30.6285 46.1088 29.7024 46.635 28.6439 46.9639C26.1301 47.6875 23.881 46.3719 21.4995 46.7666C17.6627 47.4244 16.6704 42.5569 16.2735 42.0965C15.4135 40.9125 14.6858 40.1232 13.2305 39.6628C13.0982 39.597 12.9659 39.597 12.8336 39.5312C12.7674 39.9917 12.8336 40.4521 12.9659 40.9783C14.1566 44.596 15.8104 50.0554 15.9427 52.4233C16.075 54.3308 16.0089 56.041 15.8766 57.3565H29.8347C29.7685 56.041 29.7024 54.3308 29.8347 52.4233Z" fill="#DD1644"/>
<path d="M46.439 43.6093C46.439 43.6093 47.0344 42.4253 48.5559 43.083C50.0774 43.7408 51.7974 43.2146 51.202 42.3595C51.0697 42.1622 49.8789 41.9648 48.8205 41.8333C47.7621 41.7017 47.2328 40.5178 45.8437 41.3729C45.4467 41.636 45.579 43.2146 46.439 43.6093Z" fill="#FBA489"/>
<path d="M43.6607 38.1498H41.5439L41.2792 39.0706H39.3608L41.7423 32.493H43.6607L45.9761 39.0706H43.9915L43.6607 38.1498ZM43.1977 36.5712L42.6023 34.6637L42.0069 36.5712H43.1977Z" fill="white"/>
<path d="M48.5565 35.5188V36.8343H46.2412V35.5188H48.5565Z" fill="#382040"/>
<path d="M54.2463 32.493V33.8743L51.6002 37.4262H54.3125V39.0706H49.0864V37.6894L51.7325 34.1374H49.1526V32.493H54.2463Z" fill="#FFCC33"/>
<path d="M27.1218 46.1087C27.1218 46.1087 28.7095 44.7274 29.5694 44.4643C30.4294 44.2012 31.2894 44.2012 32.1494 44.267C32.6786 44.267 33.4063 44.3328 33.8032 44.5301C34.3324 44.7932 34.2001 45.2536 33.6709 45.3194C33.0755 45.3852 31.8186 45.451 31.4879 45.451C30.9587 45.451 30.8264 45.5825 31.8186 45.7799C33.0755 46.043 32.8109 47.3585 31.4879 48.082C30.9587 48.4109 30.3633 48.4767 29.7018 48.6082C27.3864 49.0029 26.7249 49.0029 26.3941 49.0686C26.0634 49.1344 25.5342 47.1612 25.5342 47.1612L27.1218 46.1087Z" fill="#FBA489"/>
<path d="M13.8915 36.9003C13.8915 36.9003 12.0393 38.6762 10.7824 42.2281C9.98856 44.333 8.66553 49.3977 8.66553 50.9763C8.66553 52.3576 8.86398 53.6731 9.98857 54.4625C12.5685 56.3042 23.6821 52.1603 26.8574 50.1212C26.8574 50.1212 25.7989 47.8191 25.3359 46.3062C22.8221 47.3586 14.4869 50.8448 14.1561 50.1212C14.09 49.9897 15.7438 46.8324 16.0084 43.2148C16.273 40.6495 15.6777 37.2949 13.8915 36.9003Z" fill="#FF2B55"/>
</svg>
