<svg width="76" height="64" viewBox="0 0 76 64" fill="none" xmlns="http://www.w3.org/2000/svg">
<path d="M66.1581 33.2831C66.1581 31.8834 65.5367 30.5614 64.6045 29.6282C65.2259 28.7728 65.6143 27.7619 65.6143 26.5954C65.6143 24.6513 64.5268 23.0182 62.9732 22.0851C62.9732 22.0073 62.9732 22.0073 62.9732 21.9295C62.9732 19.7521 61.575 17.8858 59.633 17.0304C58.8562 15.0085 56.7589 13.6088 54.4286 13.6088C54.3509 13.6088 54.1955 13.6088 54.1178 13.6088C53.7295 11.5869 51.8651 10.0316 49.5348 10.0316C46.9714 10.0316 44.9517 11.9757 44.874 14.3864V45.4144C44.9517 48.7582 47.9812 51.4022 51.7098 51.4022C53.8848 51.4022 55.7491 50.5468 57.0696 49.147C57.458 49.2248 57.8464 49.3026 58.2348 49.3026C61.342 49.3026 63.8277 46.8919 63.8277 43.9368C63.8277 43.6258 63.8277 43.3147 63.75 43.0037C65.2259 42.0705 66.1581 40.4374 66.1581 38.6489C66.1581 37.6379 65.8474 36.7825 65.3813 36.0049C65.8474 35.2272 66.1581 34.2941 66.1581 33.2831Z" fill="#FF2B55"/>
<path d="M48.6021 45.1811C48.369 44.4034 48.4467 43.6258 48.8351 42.6926C49.0681 42.8481 49.2235 42.9259 49.5342 42.9259C49.6119 42.9259 49.6896 42.9259 49.6896 42.9259C51.0878 42.9259 52.7191 41.3706 52.8744 41.1373L52.3306 40.593C51.8646 41.0596 50.4663 42.226 49.5342 42.1483C49.3788 42.1483 49.2235 42.0705 49.1458 41.9927C49.2235 41.915 49.2235 41.8372 49.3012 41.7594C52.253 37.2491 52.0976 36.627 50.0003 34.5274L49.7673 34.2941L49.2235 34.8384L49.4565 35.0717C51.2432 36.8603 51.4762 37.0936 48.6797 41.3706C47.8253 42.6926 47.5146 43.9368 47.8253 45.0255C47.6699 44.9478 47.5146 44.9478 47.2815 44.9478C46.427 45.0255 45.961 45.6476 45.8833 45.7254L46.5047 46.192C46.5047 46.192 46.8154 45.8032 47.2815 45.7254C47.5922 45.7254 47.903 45.8809 48.2137 46.192C49.2235 47.825 51.3208 48.5249 51.3985 48.6027L51.6315 47.9028C51.7092 47.9028 49.3012 47.0474 48.6021 45.1811Z" fill="white"/>
<path d="M56.2149 27.9173C55.7489 29.8614 56.3703 31.0279 57.1471 31.8055C56.448 32.4276 55.7489 32.7387 55.2051 32.5054C54.7391 32.2721 54.4283 31.5722 54.506 30.4835C54.5837 29.5504 54.273 28.7727 53.7292 28.1506C52.6417 26.9064 50.6997 26.8286 50.6221 26.8286V27.6063C50.6221 27.6063 52.331 27.684 53.1855 28.695C53.5739 29.1615 53.8069 29.7837 53.7292 30.4835C53.5739 32.4276 54.4283 33.0498 54.8944 33.283C55.1275 33.3608 55.3605 33.4386 55.5158 33.4386C56.2149 33.4386 56.9917 33.0498 57.6908 32.3499C58.0016 32.5832 58.2346 32.7387 58.5453 32.8942C58.856 33.0498 59.0891 33.2831 59.3221 33.4386C59.8659 33.9052 60.4873 34.605 60.4096 35.3049C60.3319 36.0048 59.5552 36.6269 58.3123 37.249C58.1569 37.3268 58.0016 37.4046 57.8462 37.4823C57.3025 36.3936 56.6033 35.7715 55.8266 35.616C54.739 35.4604 53.8846 36.3159 53.8846 36.3159L54.4283 36.8602C54.4283 36.8602 54.9721 36.2381 55.6712 36.3936C56.215 36.4714 56.681 37.0157 57.1471 37.9489C56.7587 38.3377 56.448 38.8043 56.448 39.2709C56.2926 40.8262 58.1569 42.3037 58.2346 42.3815L58.7007 41.7594C58.2346 41.4483 57.1471 40.3596 57.2248 39.3487C57.3025 38.8043 57.7685 38.3377 58.623 37.9489C60.1766 37.249 61.031 36.3936 61.1864 35.3827C61.2641 34.5273 60.798 33.6719 59.7882 32.8165C59.5551 32.5832 59.2444 32.4276 58.9337 32.1943C57.6908 31.4167 56.2926 30.4835 56.8364 28.0728L56.2149 27.9173Z" fill="white"/>
<path d="M60.7198 27.6842C60.3314 27.062 60.5644 26.0511 61.2636 24.6514C61.885 23.4849 61.9627 22.3962 61.5743 21.5408C60.8752 20.0633 58.8555 19.6744 58.7778 19.6744L58.6225 20.4521C58.6225 20.4521 60.2537 20.7631 60.7975 21.8518C61.0305 22.3184 61.0305 22.9405 60.7975 23.5627C60.0984 23.0183 59.4769 22.785 58.8555 22.9405C57.6126 23.1738 56.9912 24.7291 56.9912 24.8069L57.6903 25.1179C57.6903 25.1179 58.1564 23.9515 59.0109 23.7959C59.4769 23.7182 59.943 23.9515 60.4868 24.4181C59.6323 26.0511 59.4769 27.2953 60.0207 28.1507C60.5644 29.0839 61.7296 29.1617 62.1957 29.1617V28.384C61.885 28.3063 61.1082 28.3063 60.7198 27.6842Z" fill="white"/>
<path d="M62.9729 32.7388L62.5068 33.3609C62.5068 33.3609 63.672 34.3718 63.672 35.616C63.672 36.3159 63.2836 37.0158 62.5068 37.7157L63.0506 38.3378C63.9827 37.5602 64.4488 36.627 64.4488 35.6938C64.3711 33.9052 63.0506 32.7388 62.9729 32.7388Z" fill="white"/>
<path d="M47.05 19.9854L47.5161 19.3633C47.2054 19.13 46.5839 18.6634 46.6616 18.2746C46.6616 17.9635 47.05 17.3414 48.9143 16.5638C50.3125 15.9417 51.0116 15.2418 51.0116 14.4641C51.0893 13.2977 49.6134 12.4423 49.458 12.3645L49.0696 13.0644C49.3804 13.2199 50.2348 13.842 50.2348 14.4641C50.2348 14.9307 49.6134 15.4751 48.6036 15.8639C46.8946 16.6415 45.9625 17.4192 45.8848 18.1968C45.8071 19.0522 46.5839 19.6743 47.05 19.9854Z" fill="white"/>
<path d="M54.4278 20.5298C54.2725 20.9186 53.651 21.463 50.6992 21.3852C48.5242 21.3075 47.2813 21.6185 46.8153 22.3962C46.1938 23.4071 46.893 24.7291 47.5921 26.0511C48.5242 27.8397 48.9903 29.0061 47.9028 29.5505L48.2912 30.2503C50.1555 29.2394 49.068 27.2953 48.2912 25.74C47.7474 24.6513 47.126 23.4849 47.5144 22.8627C47.7474 22.5517 48.4465 22.1629 50.4662 22.1629C50.2332 23.096 50.2331 23.7959 50.6992 24.1847C50.9323 24.3403 51.1653 24.418 51.476 24.418C52.1751 24.418 53.0296 23.9514 53.185 23.8737L52.7966 23.1738C52.2528 23.4849 51.3983 23.7959 51.1653 23.5626C51.0099 23.4071 51.0099 23.0183 51.243 22.1629C53.5734 22.1629 54.8162 21.774 55.2046 20.8409C55.36 20.3743 55.2823 19.9077 55.0493 19.4411C55.4376 19.3633 55.7484 19.2078 56.0591 18.9745C56.7582 18.1969 56.4475 16.7971 56.4475 16.7194L55.6707 16.8749C55.6707 16.8749 55.9037 17.8858 55.4376 18.4302C55.2823 18.6635 54.9716 18.7412 54.6609 18.7412C54.0394 17.8081 53.1073 17.0304 52.9519 16.9527L52.4859 17.5748C53.3403 18.1969 54.7385 19.6744 54.4278 20.5298Z" fill="white"/>
<path d="M48.3696 37.1713L48.4473 36.3937C48.3696 36.3937 47.1268 36.3159 46.5053 37.1713C46.0393 37.8712 46.1946 38.8044 46.9714 40.1264L47.6705 39.7376C47.1268 38.7266 46.9714 38.0267 47.2044 37.6379C47.5152 37.1713 48.1366 37.1713 48.3696 37.1713Z" fill="white"/>
<path d="M50.0776 18.508C49.3785 18.9746 49.4562 19.9855 49.4562 20.0633L50.233 19.9855C50.233 19.7522 50.233 19.2856 50.466 19.1301C50.6214 18.9746 51.0097 19.0523 51.5535 19.3634L51.9419 18.6635C51.1651 18.2747 50.5437 18.1969 50.0776 18.508Z" fill="white"/>
<path d="M49.8451 32.8165C51.321 32.972 52.2531 32.7388 52.5639 32.0389C53.0299 31.1835 52.2531 29.9392 51.9424 29.5504L51.321 30.0948C51.554 30.4058 52.0978 31.2612 51.8647 31.7278C51.7094 32.0389 51.0103 32.1944 49.9228 32.0389C48.4469 31.8833 47.437 32.1166 46.8933 32.7388C46.2718 33.5164 46.5826 34.6051 46.5826 34.6829L47.3594 34.4496C47.3594 34.4496 47.1263 33.7497 47.5147 33.2831C47.8254 32.8165 48.6022 32.661 49.8451 32.8165Z" fill="white"/>
<path d="M58.1571 45.5699C57.7687 45.6476 57.458 45.6476 57.0696 45.5699C57.3803 45.1033 57.5356 44.6367 57.3803 44.0924C57.1473 42.5371 55.0499 41.4484 54.9722 41.4484L54.5838 42.1482C55.0499 42.3815 56.3705 43.3147 56.5258 44.2479C56.6035 44.6367 56.4481 45.0255 56.1374 45.3366C55.516 45.1033 55.0499 44.7145 55.0499 44.7145L54.8946 44.5589L54.6615 44.6367C52.7195 45.5699 51.8651 44.4812 51.8651 44.4034L51.2437 44.87C51.2437 44.87 52.4088 46.503 54.8169 45.4921C55.2053 45.8032 56.2928 46.4253 57.5357 46.4253C57.7687 46.4253 58.0017 46.4253 58.2348 46.3475C59.5553 46.1142 60.5651 45.1811 61.4196 43.548L60.7205 43.1592C60.0991 44.5589 59.1669 45.3366 58.1571 45.5699Z" fill="white"/>
<path d="M10.2295 33.2831C10.2295 31.8834 10.8509 30.5614 11.7831 29.6282C11.1616 28.7728 10.7732 27.7619 10.7732 26.5954C10.7732 24.6513 11.8608 23.0182 13.4143 22.0851C13.4143 22.0073 13.4143 22.0073 13.4143 21.9295C13.4143 19.7521 14.8126 17.8858 16.7545 17.0304C17.5313 15.0085 19.6287 13.6088 21.959 13.6088C22.0367 13.6088 22.1921 13.6088 22.2697 13.6088C22.6581 11.5869 24.5224 10.0316 26.8528 10.0316C29.4162 10.0316 31.4359 11.9757 31.5135 14.3864V45.4144C31.4359 48.7582 28.4064 51.4022 24.6778 51.4022C22.5028 51.4022 20.6385 50.5468 19.3179 49.147C18.9295 49.2248 18.5411 49.3026 18.1527 49.3026C15.0456 49.3026 12.5599 46.8919 12.5599 43.9368C12.5599 43.6258 12.5599 43.3147 12.6375 43.0037C11.1616 42.0705 10.2295 40.4374 10.2295 38.6489C10.2295 37.6379 10.5402 36.7825 11.0063 36.0049C10.4625 35.2272 10.2295 34.2941 10.2295 33.2831Z" fill="#1EB1FA"/>
<path d="M27.7069 45.1811C27.94 44.4034 27.8623 43.6258 27.4739 42.6926C27.2408 42.8481 27.0855 42.9259 26.7748 42.9259C26.6971 42.9259 26.6194 42.9259 26.6194 42.9259C25.2212 42.9259 23.5899 41.3706 23.4346 41.1373L23.9783 40.593C24.4444 41.0596 25.8426 42.226 26.7748 42.1483C26.9301 42.1483 27.0078 42.0705 27.1632 41.9927C27.0855 41.915 27.0855 41.8372 27.0078 41.7594C24.056 37.2491 24.2114 36.627 26.3087 34.5274L26.5417 34.2941L27.0855 34.8384L26.8525 35.0717C25.0658 36.8603 24.8328 37.0936 27.6292 41.3706C28.4837 42.6926 28.7944 43.9368 28.4837 45.0255C28.6391 44.9478 28.7944 44.9478 29.0275 44.9478C29.8819 45.0255 30.348 45.6476 30.4257 45.7254L29.8042 46.192C29.8042 46.192 29.4935 45.8032 29.0275 45.7254C28.7167 45.7254 28.406 45.8809 28.0953 46.192C27.0855 47.825 24.9882 48.5249 24.9105 48.6027L24.6774 47.9028C24.5997 47.9028 27.0855 47.0474 27.7069 45.1811Z" fill="white"/>
<path d="M20.0945 27.9173C20.5606 29.8614 19.9392 31.0279 19.1624 31.8055C19.8615 32.4276 20.5606 32.7387 21.1044 32.5054C21.5704 32.2721 21.8811 31.5722 21.8035 30.4835C21.7258 29.5504 22.0365 28.7727 22.5803 28.1506C23.6678 26.9064 25.6097 26.8286 25.6874 26.8286V27.6063C25.6874 27.6063 23.9785 27.684 23.124 28.695C22.7356 29.1615 22.5026 29.7837 22.5803 30.4835C22.7356 32.4276 21.8811 33.0498 21.4151 33.283C21.182 33.3608 20.949 33.4386 20.7936 33.4386C20.0945 33.4386 19.3177 33.0498 18.6186 32.3499C18.3079 32.5832 18.0749 32.7387 17.7642 32.8942C17.4534 33.0498 17.2204 33.2831 16.9874 33.4386C16.4436 33.9052 15.8222 34.605 15.8999 35.3049C15.9775 36.0048 16.7543 36.6269 17.9972 37.249C18.1525 37.3268 18.3079 37.4046 18.4633 37.4823C19.007 36.3936 19.7061 35.7715 20.4829 35.616C21.5704 35.4604 22.4249 36.3159 22.4249 36.3159L21.8811 36.8602C21.8811 36.8602 21.3374 36.2381 20.6383 36.3936C20.0945 36.4714 19.6284 37.0157 19.1624 37.9489C19.5508 38.3377 19.8615 38.8043 19.8615 39.2709C20.0169 40.8262 18.1526 42.3037 18.0749 42.3815L17.6088 41.7594C18.0749 41.4483 19.1624 40.3596 19.0847 39.3487C19.007 38.8043 18.5409 38.3377 17.6865 37.9489C16.1329 37.249 15.2784 36.3936 15.1231 35.3827C15.0454 34.5273 15.5115 33.6719 16.5213 32.8165C16.7543 32.5832 17.065 32.4276 17.3758 32.1943C18.6186 31.4167 20.0169 30.4835 19.4731 28.0728L20.0945 27.9173Z" fill="white"/>
<path d="M15.5897 27.6842C15.9781 27.062 15.745 26.0511 15.0459 24.6514C14.4245 23.4849 14.3468 22.3962 14.7352 21.5408C15.4343 20.0633 17.454 19.6744 17.5317 19.6744L17.687 20.4521C17.687 20.4521 16.0557 20.7631 15.512 21.8518C15.279 22.3184 15.279 22.9405 15.512 23.5627C16.2111 23.0183 16.8325 22.785 17.454 22.9405C18.6968 23.1738 19.3183 24.7291 19.3183 24.8069L18.6192 25.1179C18.6192 25.1179 18.1531 23.9515 17.2986 23.7959C16.8325 23.7182 16.3665 23.9515 15.8227 24.4181C16.6772 26.0511 16.8325 27.2953 16.2888 28.1507C15.745 29.0839 14.5798 29.1617 14.1138 29.1617V28.384C14.4245 28.3063 15.279 28.3063 15.5897 27.6842Z" fill="white"/>
<path d="M13.4144 32.7388L13.8805 33.3609C13.8805 33.3609 12.7153 34.3718 12.7153 35.616C12.7153 36.3159 13.1037 37.0158 13.8805 37.7157L13.3367 38.3378C12.4046 37.5602 11.9385 36.627 11.9385 35.6938C12.0162 33.9052 13.3367 32.7388 13.4144 32.7388Z" fill="white"/>
<path d="M29.3386 19.9854L28.8725 19.3633C29.1833 19.13 29.8047 18.6634 29.727 18.2746C29.727 17.9635 29.3386 17.3414 27.4743 16.5638C26.0761 15.9417 25.377 15.2418 25.377 14.4641C25.2993 13.2977 26.7752 12.4423 26.9306 12.3645L27.319 13.0644C27.0082 13.2199 26.1538 13.842 26.1538 14.4641C26.1538 14.9307 26.7752 15.4751 27.785 15.8639C29.494 16.6415 30.4261 17.4192 30.5038 18.1968C30.5815 19.0522 29.727 19.6743 29.3386 19.9854Z" fill="white"/>
<path d="M21.959 20.5298C22.1144 20.9186 22.7358 21.463 25.6876 21.3852C27.8626 21.3075 29.1055 21.6185 29.5716 22.3962C30.193 23.4071 29.4939 24.7291 28.7948 26.0511C27.8626 27.8397 27.3966 29.0061 28.4841 29.5505L28.0957 30.2503C26.2314 29.2394 27.3189 27.2953 28.0957 25.74C28.6394 24.6513 29.2609 23.4849 28.8725 22.8627C28.6394 22.5517 27.9403 22.1629 25.9206 22.1629C26.1537 23.096 26.1537 23.7959 25.6876 24.1847C25.4546 24.3403 25.2215 24.418 24.9108 24.418C24.2117 24.418 23.3572 23.9514 23.2019 23.8737L23.668 23.096C24.2117 23.4071 25.0662 23.7182 25.2992 23.4849C25.4546 23.3293 25.4546 22.9405 25.2215 22.0851C22.8912 22.0851 21.6483 21.6963 21.2599 20.7631C21.1046 20.2965 21.1822 19.8299 21.4153 19.3634C21.0269 19.2856 20.7162 19.1301 20.4054 18.8968C19.7063 18.1191 20.0171 16.7194 20.0171 16.6416L20.7938 16.7971C20.7938 16.7971 20.5608 17.8081 21.0269 18.3524C21.1822 18.5857 21.493 18.6635 21.8037 18.6635C22.4251 17.7303 23.3572 16.9527 23.5126 16.8749L23.9787 17.497C23.0465 18.1969 21.6483 19.6744 21.959 20.5298Z" fill="white"/>
<path d="M27.94 37.1713L27.8623 36.3937C27.94 36.3937 29.1828 36.3159 29.8043 37.1713C30.2704 37.8712 30.115 38.8044 29.3382 40.1264L28.6391 39.7376C29.1828 38.7266 29.3382 38.0267 29.1052 37.6379C28.8721 37.1713 28.173 37.1713 27.94 37.1713Z" fill="white"/>
<path d="M26.3086 18.508C27.0077 18.9746 26.9301 19.9855 26.9301 20.0633L26.1533 19.9855C26.1533 19.7522 26.1533 19.2856 25.9202 19.1301C25.7649 18.9746 25.3765 19.0523 24.8327 19.3634L24.4443 18.6635C25.2211 18.2747 25.8426 18.1969 26.3086 18.508Z" fill="white"/>
<path d="M26.5428 32.8165C25.0669 32.972 24.1348 32.7388 23.8241 32.0389C23.358 31.1835 24.1348 29.9392 24.4455 29.5504L25.0669 30.0948C24.8339 30.4058 24.2901 31.2612 24.5232 31.7278C24.6785 32.0389 25.3776 32.1944 26.4651 32.0389C27.941 31.8833 28.9509 32.1166 29.4946 32.7388C30.116 33.5164 29.8053 34.6051 29.8053 34.6829L29.0285 34.4496C29.0285 34.4496 29.2616 33.7497 28.8732 33.2831C28.5625 32.8165 27.708 32.661 26.5428 32.8165Z" fill="white"/>
<path d="M18.2308 45.5699C18.6192 45.6476 18.9299 45.6476 19.3183 45.5699C19.0076 45.1033 18.8522 44.6367 19.0076 44.0924C19.2406 42.5371 21.3379 41.4484 21.4156 41.4484L21.804 42.1482C21.3379 42.3815 20.0174 43.3147 19.862 44.2479C19.7844 44.6367 19.9397 45.0255 20.2504 45.3366C20.8719 45.1033 21.3379 44.7145 21.3379 44.7145L21.4933 44.5589L21.7263 44.6367C23.6683 45.5699 24.5228 44.4812 24.5228 44.4034L25.1442 44.87C25.1442 44.87 23.979 46.503 21.571 45.4921C21.1826 45.8032 20.0951 46.4253 18.8522 46.4253C18.6192 46.4253 18.3861 46.4253 18.1531 46.3475C16.8326 46.1142 15.8227 45.1811 14.9683 43.548L15.6674 43.1592C16.2888 44.5589 17.221 45.3366 18.2308 45.5699Z" fill="white"/>
<path d="M57.3033 8.94288C57.1479 9.25393 56.6819 9.3317 56.3712 9.09841C56.0605 8.86511 55.9051 8.47629 56.0605 8.16523L58.4685 4.19926C58.6238 3.8882 59.0899 3.81043 59.4006 4.04373C59.7114 4.27702 59.8667 4.66584 59.7114 4.9769L57.3033 8.94288Z" fill="#FFCC33"/>
<path d="M28.5613 5.28797C28.5613 5.59903 28.2506 5.91009 27.8622 5.91009C27.4738 5.91009 27.1631 5.59903 27.1631 5.28797V0.622115C27.1631 0.311058 27.4738 0 27.8622 0C28.2506 0 28.5613 0.311058 28.5613 0.622115V5.28797Z" fill="#FFCC33"/>
<path d="M28.5613 63.3778C28.5613 63.6889 28.2506 63.9999 27.8622 63.9999C27.4738 63.9999 27.1631 63.6889 27.1631 63.3778V58.712C27.1631 58.4009 27.4738 58.0898 27.8622 58.0898C28.2506 58.0898 28.5613 58.4009 28.5613 58.712V63.3778Z" fill="#FFCC33"/>
<path d="M48.1365 5.28797C48.1365 5.59903 47.8258 5.91009 47.4374 5.91009C47.049 5.91009 46.7383 5.59903 46.7383 5.28797V0.622115C46.7383 0.311058 47.049 0 47.4374 0C47.8258 0 48.1365 0.311058 48.1365 0.622115V5.28797Z" fill="#FFCC33"/>
<path d="M48.1365 63.3778C48.1365 63.6889 47.8258 63.9999 47.4374 63.9999C47.049 63.9999 46.7383 63.6889 46.7383 63.3778V58.712C46.7383 58.4009 47.049 58.0898 47.4374 58.0898C47.8258 58.0898 48.1365 58.4009 48.1365 58.712V63.3778Z" fill="#FFCC33"/>
<path d="M65.8482 17.1082C65.5375 17.3415 65.1491 17.2637 64.9161 16.8749C64.6831 16.5638 64.6831 16.0973 64.9938 15.9417L68.7224 13.22C69.0331 12.9867 69.4215 13.0644 69.6545 13.4533C69.8876 13.7643 69.8876 14.2309 69.5769 14.3864L65.8482 17.1082Z" fill="#FFCC33"/>
<path d="M70.5866 27.5285C70.2759 27.6063 69.8875 27.373 69.8098 26.9842C69.7322 26.5953 69.8875 26.2065 70.1982 26.1288L74.7036 24.9623C75.0143 24.8845 75.4027 25.1178 75.4804 25.5066C75.5581 25.8955 75.4027 26.2843 75.092 26.362L70.5866 27.5285Z" fill="#FFCC33"/>
<path d="M57.3033 54.3573C57.1479 54.0463 56.6819 53.9685 56.3712 54.2018C56.0605 54.4351 55.9051 54.8239 56.0605 55.135L58.4685 59.101C58.6238 59.412 59.0899 59.4898 59.4006 59.2565C59.7114 59.0232 59.8667 58.6344 59.7114 58.3233L57.3033 54.3573Z" fill="#FFCC33"/>
<path d="M65.8482 46.1919C65.5375 45.9586 65.1491 46.0364 64.9161 46.4252C64.6831 46.7362 64.6831 47.2028 64.9938 47.3584L68.7224 50.0801C69.0331 50.3134 69.4215 50.2356 69.6545 49.8468C69.8876 49.5358 69.8876 49.0692 69.5769 48.9136L65.8482 46.1919Z" fill="#FFCC33"/>
<path d="M70.5866 35.7716C70.2759 35.6938 69.8875 35.9271 69.8098 36.316C69.7322 36.7048 69.8875 37.0936 70.1982 37.1714L74.7036 38.3378C75.0143 38.4156 75.4027 38.1823 75.4804 37.7935C75.5581 37.4047 75.4027 37.0158 75.092 36.9381L70.5866 35.7716Z" fill="#FFCC33"/>
<path d="M18.697 8.94288C18.8524 9.25393 19.3185 9.3317 19.6292 9.09841C19.9399 8.86511 20.0952 8.47629 19.9399 8.16523L17.5318 4.19926C17.3765 3.8882 16.9104 3.81043 16.5997 4.04373C16.289 4.27702 16.1336 4.66584 16.289 4.9769L18.697 8.94288Z" fill="#FFCC33"/>
<path d="M10.1516 17.1082C10.4623 17.3415 10.8507 17.2637 11.0837 16.8749C11.3168 16.5638 11.3168 16.0973 11.006 15.9417L7.27745 13.22C6.96674 12.9867 6.57835 13.0644 6.34531 13.4533C6.11227 13.7643 6.11228 14.2309 6.42299 14.3864L10.1516 17.1082Z" fill="#FFCC33"/>
<path d="M5.41358 27.5285C5.72429 27.6063 6.11269 27.373 6.19037 26.9842C6.26804 26.5953 6.11269 26.2065 5.80197 26.1288L1.29659 24.9623C0.985869 24.8845 0.597474 25.1178 0.519795 25.5066C0.442116 25.8955 0.597474 26.2843 0.90819 26.362L5.41358 27.5285Z" fill="#FFCC33"/>
<path d="M18.697 54.3573C18.8524 54.0463 19.3185 53.9685 19.6292 54.2018C19.9399 54.4351 20.0952 54.8239 19.9399 55.135L17.5318 59.101C17.3765 59.412 16.9104 59.4898 16.5997 59.2565C16.289 59.0232 16.1336 58.6344 16.289 58.3233L18.697 54.3573Z" fill="#FFCC33"/>
<path d="M10.1516 46.1919C10.4623 45.9586 10.8507 46.0364 11.0837 46.4252C11.3168 46.7362 11.3168 47.2028 11.006 47.3584L7.27745 50.0801C6.96674 50.3134 6.57835 50.2356 6.34531 49.8468C6.11227 49.5358 6.11228 49.0692 6.42299 48.9136L10.1516 46.1919Z" fill="#FFCC33"/>
<path d="M5.41358 35.7716C5.72429 35.6938 6.11269 35.9271 6.19037 36.316C6.26804 36.7048 6.11269 37.0936 5.80197 37.1714L1.29659 38.3378C0.985869 38.4156 0.597474 38.1823 0.519795 37.7935C0.442116 37.4047 0.597474 37.0158 0.90819 36.9381L5.41358 35.7716Z" fill="#FFCC33"/>
</svg>
