<svg width="74" height="64" viewBox="0 0 74 64" fill="none" xmlns="http://www.w3.org/2000/svg">
<path d="M44.0676 62.4889H29.8572L30.3863 46.0166H43.5385L44.0676 62.4889Z" fill="#382040"/>
<path d="M72.1103 51.3058H1.8141C0.831461 51.3058 0 50.4746 0 49.4923V1.81347C0 0.831176 0.831461 0 1.8141 0H72.1859C73.1685 0 74 0.831176 74 1.81347V49.4923C73.9244 50.4746 73.0929 51.3058 72.1103 51.3058Z" fill="#382040"/>
<path d="M70.5986 3.09802H3.25024V46.3943H70.5986V3.09802Z" fill="#1E0327"/>
<path d="M69.9191 4.15588H4.08252V45.3365H69.9191V4.15588Z" fill="#EBEBEB"/>
<path d="M69.9191 4.15588H4.08252V32.5667H69.9191V4.15588Z" fill="#1EB1FA"/>
<path d="M29.7817 13.9032C29.7817 15.4899 28.4967 16.6989 26.985 16.6989C25.3976 16.6989 24.1882 15.4144 24.1882 13.9032C24.1882 12.3164 25.4732 11.1074 26.985 11.1074C28.4967 11.0319 29.7817 12.3164 29.7817 13.9032Z" fill="#FFCC33"/>
<path d="M64.4004 8.38727C64.3248 8.38727 64.3248 8.46284 64.2492 8.46284C64.3248 8.46284 64.3248 8.38727 64.4004 8.38727C64.6271 8.23615 64.8539 8.00947 64.6271 7.85835C64.476 7.70723 64.1736 7.78278 64.0224 8.00947C63.9468 8.08503 63.9468 8.08503 63.8713 8.08503C63.8713 8.00947 63.9468 8.00947 64.0224 8.00947C64.098 7.93391 64.1736 7.78279 64.2492 7.70723C64.4004 7.48055 64.4004 7.10274 64.098 6.95162C63.7957 6.8005 63.3421 6.95162 63.1154 7.25386C62.8886 7.5561 62.8886 8.00947 62.8886 8.00947C62.8886 7.78278 62.8886 7.48054 62.5107 7.48054C62.1327 7.48054 62.2083 8.00947 62.2083 8.23615C62.2083 8.16059 62.2083 7.5561 61.7548 7.25386C61.5281 7.10274 61.3013 7.10273 61.0745 7.17829C60.7722 7.25385 60.6966 7.5561 60.7722 7.78278C60.8478 8.08503 61.1501 8.31171 61.1501 8.31171C61.1501 8.31171 60.7722 8.16059 60.621 8.08503C60.2431 8.00947 59.6384 8.00946 59.4116 8.31171C59.1848 8.61395 59.4872 9.06731 60.1675 9.06731C60.621 9.06731 64.4004 9.06731 64.8539 9.06731C65.2318 9.06731 65.7609 8.91619 65.6854 8.53839C65.4586 8.23615 64.7783 8.23615 64.4004 8.38727Z" fill="#E3EDF4"/>
<path d="M31.8225 8.08503C31.7469 8.08503 31.7469 8.16059 31.6713 8.16059C31.7469 8.08503 31.7469 8.08503 31.8225 8.08503C32.0493 7.93391 32.276 7.70722 32.0492 7.5561C31.8981 7.40498 31.5957 7.48055 31.4446 7.70723C31.369 7.78279 31.369 7.78278 31.2934 7.78278C31.2934 7.70722 31.369 7.70723 31.4446 7.70723C31.5201 7.63167 31.5957 7.48054 31.6713 7.40498C31.8225 7.1783 31.8225 6.80049 31.5201 6.64937C31.2178 6.49825 30.7643 6.64938 30.5375 6.95162C30.3107 7.25387 30.3107 7.70723 30.3107 7.70723C30.3107 7.48055 30.3107 7.1783 29.9328 7.1783C29.5549 7.1783 29.6305 7.70722 29.6305 7.9339C29.6305 7.85834 29.6305 7.25387 29.1769 6.95162C28.9502 6.8005 28.7234 6.8005 28.4966 6.87606C28.1943 7.02718 28.1187 7.25386 28.1943 7.48055C28.2699 7.78279 28.5722 8.00947 28.5722 8.00947C28.5722 8.00947 28.1943 7.85835 28.0431 7.78278C27.6652 7.70722 27.0605 7.70723 26.8337 8.00947C26.607 8.31171 26.9093 8.76508 27.5896 8.76508C28.0431 8.76508 31.8225 8.76508 32.276 8.76508C32.6539 8.76508 33.1831 8.61396 33.1075 8.23615C32.9563 7.93391 32.276 7.93391 31.8225 8.08503Z" fill="#E3EDF4"/>
<path d="M16.4783 14.4322C16.4027 14.4322 16.4027 14.5078 16.3271 14.5078C16.4027 14.4322 16.4783 14.4322 16.4783 14.4322C16.705 14.2811 16.9318 14.0544 16.705 13.9033C16.5538 13.7521 16.2515 13.8277 16.1003 14.0544C16.0247 14.1299 16.0247 14.13 15.9491 14.13C15.9491 14.0544 16.0247 14.0544 16.1003 14.0544C16.1759 13.9788 16.2515 13.8277 16.3271 13.7522C16.4783 13.5255 16.4783 13.1477 16.1759 12.9965C15.8736 12.8454 15.42 12.9965 15.1933 13.2988C14.9665 13.601 14.9665 14.0544 14.9665 14.0544C14.9665 13.8277 14.9665 13.5255 14.5886 13.5255C14.2106 13.5255 14.2862 14.0544 14.2862 14.2811C14.2862 14.2055 14.2862 13.601 13.8327 13.2988C13.6059 13.1477 13.3792 13.1477 13.1524 13.2232C12.8501 13.3743 12.7745 13.601 12.8501 13.8277C12.9256 14.1299 13.228 14.3566 13.228 14.3566C13.228 14.3566 12.8501 14.2055 12.6989 14.13C12.3209 14.0544 11.7162 14.0544 11.4895 14.3566C11.2627 14.6589 11.5651 15.1122 12.2454 15.1122C12.6989 15.1122 16.4783 15.1122 16.9318 15.1122C17.3097 15.1122 17.8388 14.9611 17.7632 14.5833C17.6121 14.2811 16.9318 14.2811 16.4783 14.4322Z" fill="#E3EDF4"/>
<path d="M11.7164 8.53845C11.7164 8.53845 11.6408 8.53846 11.6408 8.61402C11.6408 8.53846 11.6408 8.53845 11.7164 8.53845C11.8676 8.46289 12.0188 8.31177 11.8676 8.16065C11.7164 8.08509 11.5653 8.08509 11.4141 8.23621L11.3385 8.31177L11.4141 8.23621C11.4897 8.16065 11.5653 8.08509 11.5653 8.00953C11.6408 7.85841 11.7164 7.55617 11.4141 7.48061C11.1873 7.40504 10.885 7.48061 10.7338 7.70729C10.5826 7.93397 10.5826 8.23621 10.5826 8.23621C10.5826 8.08509 10.5826 7.85841 10.2803 7.85841C9.97792 7.85841 10.0535 8.23621 10.0535 8.38733C10.0535 8.31177 10.0535 7.85841 9.75116 7.70729C9.59999 7.63173 9.44881 7.63172 9.29764 7.63172C9.07088 7.70729 8.99529 7.85841 9.07088 8.08509C9.14646 8.31178 9.37322 8.4629 9.37322 8.4629C9.37322 8.4629 9.14646 8.31177 8.99529 8.31177C8.76853 8.23621 8.315 8.23622 8.16383 8.4629C8.01265 8.68958 8.23941 8.99182 8.69294 8.99182C8.99529 8.99182 11.6408 8.99182 11.9432 8.99182C12.17 8.99182 12.5479 8.8407 12.4723 8.61402C12.4723 8.4629 11.9432 8.46289 11.7164 8.53845Z" fill="#E3EDF4"/>
<path d="M7.48308 16.3967C7.40749 16.3967 7.40749 16.3967 7.48308 16.3967C7.40749 16.3967 7.40749 16.3967 7.48308 16.3967C7.63425 16.3211 7.70984 16.17 7.55867 16.0945C7.48308 16.0189 7.3319 16.0944 7.25632 16.17L7.18073 16.2456L7.25632 16.17C7.3319 16.0944 7.3319 16.0189 7.40749 16.0189C7.48308 15.9433 7.48308 15.7167 7.3319 15.6411C7.18073 15.5655 6.95397 15.6411 6.80279 15.7922C6.72721 15.9433 6.7272 16.17 6.7272 16.17C6.7272 16.0944 6.72721 15.8678 6.50044 15.8678C6.27368 15.8678 6.34927 16.0945 6.34927 16.2456C6.34927 16.17 6.34927 15.8678 6.12251 15.7167C5.97133 15.6411 5.89574 15.6411 5.74457 15.7167C5.5934 15.7922 5.51781 15.9433 5.59339 16.0189C5.66898 16.17 5.82016 16.3211 5.82016 16.3211C5.82016 16.3211 5.66898 16.2456 5.51781 16.2456C5.29105 16.2456 4.9887 16.17 4.91311 16.3211C4.76193 16.4723 4.9887 16.6989 5.29105 16.6989C5.51781 16.6989 7.48308 16.6989 7.70984 16.6989C7.86102 16.6989 8.16337 16.6234 8.08778 16.3967C8.01219 16.3211 7.70984 16.3211 7.48308 16.3967Z" fill="#E3EDF4"/>
<path d="M66.6683 14.5833C66.6683 14.5833 66.5927 14.5833 66.5927 14.6588C66.5927 14.5833 66.5927 14.5833 66.6683 14.5833C66.8195 14.5077 66.9707 14.3566 66.8195 14.2054C66.6683 14.1299 66.5172 14.1299 66.366 14.281L66.2904 14.3566L66.366 14.281C66.4416 14.2055 66.5172 14.1299 66.5172 14.0543C66.5928 13.9032 66.6683 13.601 66.366 13.5254C66.1392 13.4498 65.8369 13.5254 65.6857 13.7521C65.5345 13.9788 65.5345 14.281 65.5345 14.281C65.5345 14.1299 65.5345 13.9032 65.2322 13.9032C64.9298 13.9032 65.0054 14.281 65.0054 14.4321C65.0054 14.3566 65.0054 13.9032 64.7031 13.7521C64.5519 13.6765 64.4007 13.6765 64.2495 13.6765C64.0228 13.7521 63.9472 13.9032 64.0228 14.1299C64.0984 14.3566 64.3251 14.5077 64.3251 14.5077C64.3251 14.5077 64.0984 14.3566 63.9472 14.3566C63.7204 14.281 63.2669 14.281 63.1157 14.5077C62.9646 14.7344 63.1913 15.0366 63.6448 15.0366C63.9472 15.0366 66.6683 15.0366 66.9707 15.0366C67.1974 15.0366 67.5754 14.8855 67.4998 14.6588C67.4242 14.5077 66.9707 14.5077 66.6683 14.5833Z" fill="#E3EDF4"/>
<path d="M54.3475 9.52063C54.3475 9.52063 54.2719 9.52064 54.2719 9.5962C54.2719 9.5962 54.272 9.59619 54.3475 9.52063C54.4987 9.44507 54.6499 9.29395 54.4987 9.14283C54.3475 9.06727 54.1964 9.06727 54.0452 9.21839L53.9696 9.29395L54.0452 9.21839C54.1208 9.14283 54.1964 9.06727 54.1964 8.99171C54.2719 8.84059 54.3475 8.53835 54.0452 8.46278C53.8184 8.38722 53.5161 8.46278 53.3649 8.68946C53.2137 8.91614 53.2137 9.21839 53.2137 9.21839C53.2137 9.06727 53.2137 8.84059 52.9114 8.84059C52.609 8.84059 52.6846 9.21839 52.6846 9.36951C52.6846 9.29395 52.6846 8.84058 52.3823 8.68946C52.2311 8.6139 52.0799 8.6139 51.9287 8.6139C51.702 8.68947 51.6264 8.84058 51.702 9.06726C51.7776 9.29394 52.0043 9.44507 52.0043 9.44507C52.0043 9.44507 51.7776 9.29395 51.6264 9.29395C51.3996 9.21839 50.9461 9.21838 50.7949 9.44507C50.6438 9.67175 50.8705 9.974 51.324 9.974C51.6264 9.974 54.3475 9.974 54.6499 9.974C54.8766 9.974 55.2546 9.82288 55.179 9.5962C55.1034 9.44508 54.6499 9.44507 54.3475 9.52063Z" fill="#E3EDF4"/>
<path d="M27.892 20.0236C27.892 20.0236 27.8164 20.0236 27.8164 20.0991C27.8164 20.0991 27.8164 20.0991 27.892 20.0236C28.0431 19.948 28.1943 19.7969 28.0431 19.6458C27.892 19.5702 27.7408 19.5702 27.5896 19.7213L27.514 19.7969L27.5896 19.7213C27.6652 19.6458 27.7408 19.5702 27.7408 19.4946C27.8164 19.3435 27.892 19.0413 27.5896 18.9657C27.3629 18.8902 27.0605 18.9657 26.9093 19.1924C26.7582 19.4191 26.7582 19.7213 26.7582 19.7213C26.7582 19.5702 26.7582 19.3435 26.4558 19.3435C26.1535 19.3435 26.229 19.7213 26.229 19.8725C26.229 19.7969 26.2291 19.3435 25.9267 19.1924C25.7755 19.1168 25.6244 19.1168 25.4732 19.1168C25.2464 19.1924 25.1708 19.3435 25.2464 19.5702C25.322 19.7969 25.5488 19.948 25.5488 19.948C25.5488 19.948 25.322 19.7969 25.1708 19.7969C24.9441 19.7213 24.4905 19.7213 24.3394 19.948C24.1882 20.1747 24.415 20.4769 24.8685 20.4769C25.1708 20.4769 27.892 20.4769 28.1943 20.4769C28.4211 20.4769 28.799 20.3258 28.7234 20.0991C28.6478 19.948 28.1943 19.948 27.892 20.0236Z" fill="#E3EDF4"/>
<path d="M42.6318 7.10266L43.0852 8.31163L43.7652 7.25378C43.8408 7.25378 43.9919 7.25379 44.0675 7.32935L43.1608 8.68943C43.0852 8.68943 43.0096 8.68943 42.8585 8.68943L42.3296 7.25378C42.4052 7.17822 42.4807 7.10266 42.6318 7.10266Z" fill="#EBEBEB"/>
<path d="M41.4217 26.8995L40.9684 25.6905L40.2883 26.7484C40.2128 26.7484 40.0616 26.7484 39.9861 26.6729L40.8928 25.3127C40.9684 25.3127 41.0439 25.3127 41.1951 25.3127L41.724 26.7484C41.6484 26.824 41.5729 26.824 41.4217 26.8995Z" fill="#EBEBEB"/>
<path d="M41.4217 7.10266L40.9684 8.31163L40.2883 7.25378C40.2128 7.25378 40.0616 7.25379 39.9861 7.32935L40.8928 8.68943C40.9684 8.68943 41.0439 8.68943 41.1951 8.68943L41.724 7.25378C41.6484 7.17822 41.5729 7.10266 41.4217 7.10266Z" fill="#EBEBEB"/>
<path d="M42.6313 26.8995L43.0847 25.6905L43.7648 26.7484C43.8403 26.7484 43.9914 26.7484 44.067 26.6729L43.1603 25.3127C43.0847 25.3127 43.0091 25.3127 42.858 25.3127L42.3291 26.7484C42.4047 26.824 42.4802 26.824 42.6313 26.8995Z" fill="#EBEBEB"/>
<path d="M38.7007 7.63159L38.6251 8.91612L37.6428 8.08496C37.5673 8.16052 37.4161 8.16052 37.3406 8.23608L38.6251 9.29393C38.7007 9.21837 38.7762 9.21837 38.8518 9.21837L39.0029 7.63159C38.8518 7.63159 38.7762 7.70715 38.7007 7.63159Z" fill="#EBEBEB"/>
<path d="M45.6558 26.2196L45.7313 24.9351L46.7136 25.7662C46.7892 25.6907 46.9403 25.6907 47.0159 25.6151L45.7313 24.5573C45.6558 24.6328 45.5802 24.6328 45.5046 24.6328L45.3535 26.2196C45.5046 26.2196 45.5802 26.2196 45.6558 26.2196Z" fill="#EBEBEB"/>
<path d="M32.9573 13.0719L33.864 14.0542L32.5795 14.2053C32.5795 14.2809 32.5039 14.432 32.5039 14.5076L34.1662 14.2809C34.1662 14.2053 34.2418 14.1297 34.2418 13.9786L33.184 12.8452C33.1084 12.9208 33.0328 12.9963 32.9573 13.0719Z" fill="#EBEBEB"/>
<path d="M51.098 20.9303L50.1913 19.948L51.4758 19.7969C51.4758 19.7213 51.5514 19.5702 51.5514 19.4946L49.889 19.7213C49.889 19.7969 49.8135 19.8724 49.8135 20.0235L50.8713 21.157C50.9469 21.0814 51.0224 21.0058 51.098 20.9303Z" fill="#EBEBEB"/>
<path d="M32.5039 19.7212L33.7884 19.8723L32.8817 20.779C32.9573 20.8546 32.9573 21.0057 33.0328 21.0813L34.1662 19.8723C34.1662 19.7968 34.0907 19.7212 34.0907 19.5701L32.5795 19.3434C32.5039 19.5701 32.5039 19.6456 32.5039 19.7212Z" fill="#EBEBEB"/>
<path d="M51.551 14.2809L50.2665 14.1298L51.1732 13.223C51.0976 13.1475 51.0976 12.9963 51.0221 12.9208L49.8887 14.1298C49.8887 14.2053 49.9642 14.2809 49.9642 14.432L51.4754 14.6587C51.551 14.432 51.551 14.3564 51.551 14.2809Z" fill="#EBEBEB"/>
<path d="M45.1258 7.55603L45.277 8.84057L46.2593 8.0094C46.3348 8.08496 46.4859 8.08496 46.5615 8.16052L45.277 9.21838C45.2014 9.14282 45.1259 9.14281 45.0503 9.14281L44.8992 7.55603C44.9747 7.55603 45.0503 7.63159 45.1258 7.55603Z" fill="#EBEBEB"/>
<path d="M38.5494 26.2196L38.3983 24.9351L37.416 25.7662C37.3405 25.6907 37.1893 25.6907 37.1138 25.6151L38.3983 24.5573C38.4739 24.6328 38.5494 24.6328 38.625 24.6328L38.7761 26.2196C38.7761 26.2196 38.7005 26.2196 38.5494 26.2196Z" fill="#EBEBEB"/>
<path d="M34.4679 10.8052L34.9968 12.0141L33.7123 11.7875C33.6367 11.863 33.5612 11.9386 33.4856 12.0141L35.0724 12.3164C35.1479 12.2408 35.1479 12.1653 35.2235 12.0897L34.619 10.6541C34.619 10.7296 34.5434 10.8052 34.4679 10.8052Z" fill="#EBEBEB"/>
<path d="M35.4504 9.59618L36.6594 10.1251L36.4327 8.84058C36.5083 8.76502 36.5839 8.68945 36.6594 8.61389L36.9617 10.2007C36.8861 10.2762 36.8105 10.2762 36.735 10.3518L35.2993 9.7473C35.3749 9.7473 35.3749 9.67174 35.4504 9.59618Z" fill="#EBEBEB"/>
<path d="M48.9802 24.1039L47.7712 23.575L47.9979 24.8595C47.9224 24.935 47.8468 25.0106 47.7712 25.0862L47.469 23.4994C47.5446 23.4238 47.6201 23.4238 47.6957 23.3483L49.1313 23.9528C49.0558 23.9528 48.9802 24.0283 48.9802 24.1039Z" fill="#EBEBEB"/>
<path d="M49.8122 23.046L49.2833 21.837L50.5679 22.0637C50.6434 21.9882 50.719 21.9126 50.7945 21.837L49.2078 21.5348C49.1322 21.6104 49.1322 21.6859 49.0566 21.7615L49.6611 23.1971C49.6611 23.1971 49.7367 23.1216 49.8122 23.046Z" fill="#EBEBEB"/>
<path d="M32.125 17.6056L33.334 18.059L32.2761 18.739C32.2761 18.8146 32.2761 18.9657 32.3517 19.0413L33.7118 18.1345C33.7118 18.059 33.7118 17.9834 33.7118 17.8323L32.2761 17.3033C32.2006 17.3789 32.125 17.4545 32.125 17.6056Z" fill="#EBEBEB"/>
<path d="M32.125 16.3966L33.334 15.9432L32.2761 15.2632C32.2761 15.1876 32.2761 15.0365 32.3517 14.9609L33.7118 15.8677C33.7118 15.9432 33.7118 16.0188 33.7118 16.1699L32.2761 16.6988C32.2006 16.6233 32.125 16.4721 32.125 16.3966Z" fill="#EBEBEB"/>
<path d="M51.9288 17.6056L50.7198 18.059L51.7777 18.739C51.7777 18.8146 51.7777 18.9657 51.7021 19.0413L50.342 18.1345C50.342 18.059 50.342 17.9834 50.342 17.8323L51.7777 17.3033C51.8533 17.3789 51.8533 17.4545 51.9288 17.6056Z" fill="#EBEBEB"/>
<path d="M51.9288 16.3966L50.7198 15.9432L51.7777 15.2632C51.7777 15.1876 51.7777 15.0365 51.7021 14.9609L50.342 15.8677C50.342 15.9432 50.342 16.0188 50.342 16.1699L51.7777 16.6988C51.8533 16.6233 51.8533 16.4721 51.9288 16.3966Z" fill="#EBEBEB"/>
<path d="M35.073 24.1039L36.282 23.575L35.9797 24.8595C36.0553 24.935 36.1308 25.0106 36.2064 25.0862L36.5842 23.4994C36.5087 23.4238 36.4331 23.3483 36.3575 23.3483L34.9219 23.9528C34.9974 23.9528 35.073 24.0283 35.073 24.1039Z" fill="#EBEBEB"/>
<path d="M34.3164 22.9704L34.9209 21.7615L33.6364 21.9882C33.5608 21.9126 33.4852 21.837 33.4097 21.6859L34.9964 21.4592C35.072 21.5348 35.072 21.6104 35.1476 21.6859L34.4675 23.1216C34.4675 23.046 34.392 23.046 34.3164 22.9704Z" fill="#EBEBEB"/>
<path d="M49.8121 10.8052L49.2076 12.0141L50.4922 11.7875C50.5677 11.863 50.6433 11.9386 50.7189 12.0897L49.1321 12.3164C49.0565 12.2408 49.0565 12.1653 48.981 12.0897L49.661 10.6541C49.5854 10.7296 49.661 10.8052 49.8121 10.8052Z" fill="#EBEBEB"/>
<path d="M48.8298 9.67175L47.6208 10.2007L47.9231 8.91614C47.8475 8.84058 47.772 8.76501 47.6964 8.68945L47.3186 10.2762C47.3942 10.3518 47.4697 10.4274 47.5453 10.4274L48.9809 9.82287C48.9054 9.82287 48.9054 9.74731 48.8298 9.67175Z" fill="#EBEBEB"/>
<path d="M42.1019 6.95154C36.5841 6.95154 32.0488 11.4852 32.0488 17.0011C32.0488 22.5171 36.5841 27.0507 42.1019 27.0507C47.6198 27.0507 52.1551 22.5171 52.1551 17.0011C52.1551 11.4852 47.6954 6.95154 42.1019 6.95154ZM42.1019 26.6729C36.7352 26.6729 32.4268 22.2904 32.4268 17.0011C32.4268 11.6363 36.8108 7.32934 42.1019 7.32934C47.4686 7.32934 51.7771 11.7119 51.7771 17.0011C51.8527 22.3659 47.4686 26.6729 42.1019 26.6729Z" fill="#EBEBEB"/>
<path d="M42.103 8.53833C37.4166 8.53833 33.6372 12.3164 33.6372 17.0011C33.6372 21.6859 37.4166 25.464 42.103 25.464C46.7894 25.464 50.5688 21.6859 50.5688 17.0011C50.6444 12.3164 46.7894 8.53833 42.103 8.53833ZM42.103 25.1617C37.5677 25.1617 33.9396 21.4592 33.9396 17.0011C33.9396 12.4675 37.6433 8.84058 42.103 8.84058C46.6382 8.84058 50.2664 12.543 50.2664 17.0011C50.342 21.5348 46.6382 25.1617 42.103 25.1617Z" fill="#EBEBEB"/>
<path d="M42.2541 7.10254H41.9519V17.001H42.2541V7.10254Z" fill="#EBEBEB"/>
<path d="M52.1555 16.9254H32.2004V17.2277H52.1555V16.9254Z" fill="#EBEBEB"/>
<path d="M33.4449 12.4885L33.3098 12.7589L51.1604 21.6782L51.2955 21.4078L33.4449 12.4885Z" fill="#EBEBEB"/>
<path d="M34.7745 10.1716L34.5725 10.3965L49.4147 23.7304L49.6168 23.5055L34.7745 10.1716Z" fill="#EBEBEB"/>
<path d="M36.8869 8.45489L36.6328 8.61865L47.4398 25.3887L47.6939 25.2249L36.8869 8.45489Z" fill="#EBEBEB"/>
<path d="M39.8088 7.35021L39.5176 7.43127L44.8676 26.6492L45.1588 26.5682L39.8088 7.35021Z" fill="#EBEBEB"/>
<path d="M32.2268 14.7855L32.1609 15.0804L51.6347 19.4326L51.7006 19.1376L32.2268 14.7855Z" fill="#EBEBEB"/>
<path d="M50.793 12.3421L32.9404 21.2534L33.0754 21.5238L50.928 12.6125L50.793 12.3421Z" fill="#EBEBEB"/>
<path d="M49.2505 10.0058L34.4062 23.3357L34.6082 23.5606L49.4524 10.2307L49.2505 10.0058Z" fill="#EBEBEB"/>
<path d="M47.0689 8.2458L36.5293 25.1833L36.786 25.3431L47.3255 8.40551L47.0689 8.2458Z" fill="#EBEBEB"/>
<path d="M44.2027 7.16469L38.9285 26.4026L39.2199 26.4825L44.4942 7.2446L44.2027 7.16469Z" fill="#EBEBEB"/>
<path d="M51.5764 14.4995L32.2224 19.3545L32.296 19.6477L51.65 14.7927L51.5764 14.4995Z" fill="#EBEBEB"/>
<path d="M39.381 6.34705C38.9276 6.34705 38.5498 6.64929 38.5498 7.10265C38.5498 7.48046 38.852 7.85826 39.3054 7.85826H39.381C39.7588 7.85826 40.1366 7.55602 40.1366 7.10265C40.1366 6.72485 39.8343 6.34705 39.381 6.34705Z" fill="#625A5E"/>
<path d="M44.673 6.34705H44.5974C44.2196 6.34705 43.8418 6.64929 43.8418 7.10265C43.8418 7.48046 44.144 7.85826 44.5974 7.85826H44.673C45.0508 7.85826 45.4286 7.55602 45.4286 7.10265C45.4286 6.72485 45.0508 6.34705 44.673 6.34705Z" fill="#625A5E"/>
<path d="M42.1778 5.96924H42.1023C41.7245 5.96924 41.3467 6.27148 41.3467 6.72485C41.3467 7.10265 41.6489 7.48045 42.1023 7.48045H42.1778C42.5557 7.48045 42.9335 7.17821 42.9335 6.72485C42.9335 6.34704 42.5557 5.96924 42.1778 5.96924Z" fill="#625A5E"/>
<path d="M47.3937 7.48047C46.9403 7.48047 46.5625 7.78271 46.5625 8.23608C46.5625 8.61388 46.8647 8.99168 47.3181 8.99168H47.3937C47.7715 8.99168 48.1493 8.68944 48.1493 8.23608C48.1493 7.85827 47.847 7.48047 47.3937 7.48047Z" fill="#625A5E"/>
<path d="M36.5841 7.48047C36.1307 7.48047 35.7529 7.78271 35.7529 8.23608C35.7529 8.61388 36.0552 8.99168 36.5085 8.99168H36.5841C36.9619 8.99168 37.3397 8.68944 37.3397 8.23608C37.3397 7.85827 37.0375 7.48047 36.5841 7.48047Z" fill="#625A5E"/>
<path d="M34.4684 9.44507C34.015 9.44507 33.6372 9.74731 33.6372 10.2007C33.6372 10.5785 33.9395 10.9563 34.3928 10.9563H34.4684C34.8462 10.9563 35.224 10.654 35.224 10.2007C35.224 9.74731 34.9217 9.44507 34.4684 9.44507Z" fill="#625A5E"/>
<path d="M32.2757 14.0542C31.8224 14.0542 31.4446 14.3564 31.4446 14.8098C31.4446 15.1876 31.7468 15.5654 32.2002 15.5654H32.2757C32.6536 15.5654 33.0314 15.2632 33.0314 14.8098C33.0314 14.3564 32.6536 14.0542 32.2757 14.0542Z" fill="#625A5E"/>
<path d="M52.0048 14.0542C51.5514 14.0542 51.1736 14.3564 51.1736 14.8098C51.1736 15.1876 51.4758 15.5654 51.9292 15.5654H52.0048C52.3826 15.5654 52.7604 15.2632 52.7604 14.8098C52.7604 14.3564 52.4581 14.0542 52.0048 14.0542Z" fill="#625A5E"/>
<path d="M33.0314 11.7874C32.578 11.7874 32.2002 12.0896 32.2002 12.543C32.2002 12.9208 32.5024 13.2986 32.9558 13.2986H33.0314C33.4092 13.2986 33.787 12.9963 33.787 12.543C33.787 12.0896 33.4847 11.7874 33.0314 11.7874Z" fill="#625A5E"/>
<path d="M50.9467 11.7874C50.4933 11.7874 50.1155 12.0896 50.1155 12.543C50.1155 12.9208 50.4177 13.2986 50.8711 13.2986H50.9467C51.3245 13.2986 51.7023 12.9963 51.7023 12.543C51.7023 12.0896 51.3245 11.7874 50.9467 11.7874Z" fill="#625A5E"/>
<path d="M32.0492 16.321C31.5958 16.321 31.218 16.6233 31.218 17.0767C31.218 17.4545 31.5203 17.8323 31.9736 17.8323H32.0492C32.427 17.8323 32.8048 17.53 32.8048 17.0767C32.7292 16.6988 32.427 16.321 32.0492 16.321Z" fill="#625A5E"/>
<path d="M52.2313 16.321C51.7779 16.321 51.4001 16.6233 51.4001 17.0767C51.4001 17.4545 51.7024 17.8323 52.1558 17.8323H52.2313C52.6091 17.8323 52.9869 17.53 52.9869 17.0767C52.9869 16.6988 52.6091 16.321 52.2313 16.321Z" fill="#625A5E"/>
<path d="M33.0314 20.7792C32.578 20.7792 32.2002 21.0814 32.2002 21.5348C32.2002 21.9126 32.5024 22.2904 32.9558 22.2904H33.0314C33.4092 22.2904 33.787 21.9881 33.787 21.5348C33.787 21.157 33.4847 20.7792 33.0314 20.7792Z" fill="#625A5E"/>
<path d="M32.2757 18.8146C31.8224 18.8146 31.4446 19.1168 31.4446 19.5702C31.4446 19.948 31.7468 20.3258 32.2002 20.3258H32.2757C32.6536 20.3258 33.0314 20.0235 33.0314 19.5702C33.0314 19.1168 32.6536 18.8146 32.2757 18.8146Z" fill="#625A5E"/>
<path d="M51.8531 18.8146C51.3998 18.8146 51.022 19.1168 51.022 19.5702C51.022 19.948 51.3242 20.3258 51.7776 20.3258H51.8531C52.2309 20.3258 52.6087 20.0235 52.6087 19.5702C52.6087 19.1168 52.2309 18.8146 51.8531 18.8146Z" fill="#625A5E"/>
<path d="M51.0218 20.9303C50.5685 20.9303 50.1907 21.2325 50.1907 21.6859C50.1907 22.0637 50.4929 22.4415 50.9463 22.4415H51.0218C51.3996 22.4415 51.7774 22.1393 51.7774 21.6859C51.7774 21.3081 51.4752 20.9303 51.0218 20.9303Z" fill="#625A5E"/>
<path d="M34.4684 22.8193C34.015 22.8193 33.6372 23.1216 33.6372 23.5749C33.6372 23.9527 33.9395 24.3306 34.3928 24.3306H34.4684C34.8462 24.3306 35.224 24.0283 35.224 23.5749C35.224 23.1971 34.9217 22.8193 34.4684 22.8193Z" fill="#625A5E"/>
<path d="M49.661 22.8193C49.2076 22.8193 48.8298 23.1216 48.8298 23.5749C48.8298 23.9527 49.1321 24.3306 49.5854 24.3306H49.661C50.0388 24.3306 50.4166 24.0283 50.4166 23.5749C50.4166 23.1971 50.1144 22.8193 49.661 22.8193Z" fill="#625A5E"/>
<path d="M39.0792 25.8418C38.6258 25.8418 38.248 26.144 38.248 26.5974C38.248 26.9752 38.5503 27.353 39.0037 27.353H39.0792C39.457 27.353 39.8348 27.0508 39.8348 26.5974C39.8348 26.144 39.5326 25.8418 39.0792 25.8418Z" fill="#625A5E"/>
<path d="M36.4337 24.7084C35.9803 24.7084 35.6025 25.0106 35.6025 25.464C35.6025 25.8418 35.9048 26.2196 36.3581 26.2196H36.4337C36.8115 26.2196 37.1893 25.9173 37.1893 25.464C37.1893 25.0862 36.8115 24.7084 36.4337 24.7084Z" fill="#625A5E"/>
<path d="M47.6964 24.7084C47.243 24.7084 46.8652 25.0106 46.8652 25.464C46.8652 25.8418 47.1675 26.2196 47.6208 26.2196H47.6964C48.0742 26.2196 48.452 25.9173 48.452 25.464C48.452 25.0106 48.1498 24.7084 47.6964 24.7084Z" fill="#625A5E"/>
<path d="M45.1263 25.9174C44.673 25.9174 44.2952 26.2196 44.2952 26.673C44.2952 27.0508 44.5974 27.4286 45.0508 27.4286H45.1263C45.5041 27.4286 45.8819 27.1263 45.8819 26.673C45.8819 26.2196 45.5041 25.9174 45.1263 25.9174Z" fill="#625A5E"/>
<path d="M49.3592 9.44507C48.9059 9.44507 48.5281 9.74731 48.5281 10.2007C48.5281 10.5785 48.8303 10.9563 49.2837 10.9563H49.3592C49.737 10.9563 50.1149 10.654 50.1149 10.2007C50.1149 9.74731 49.8126 9.44507 49.3592 9.44507Z" fill="#625A5E"/>
<path d="M39.381 6.72485C39.1543 6.72485 39.0032 6.87598 39.0032 7.10266C39.0032 7.32934 39.1543 7.48046 39.381 7.48046C39.6077 7.48046 39.7588 7.32934 39.7588 7.10266C39.7588 6.87598 39.6077 6.72485 39.381 6.72485Z" fill="#827C7F"/>
<path d="M44.673 6.72485C44.4463 6.72485 44.2952 6.87598 44.2952 7.10266C44.2952 7.32934 44.4463 7.48046 44.673 7.48046C44.8997 7.48046 45.0508 7.32934 45.0508 7.10266C45.0508 6.87598 44.8241 6.72485 44.673 6.72485Z" fill="#827C7F"/>
<path d="M42.1779 6.34705C41.9512 6.34705 41.8 6.49817 41.8 6.72485C41.8 6.95153 41.9512 7.10265 42.1779 7.10265H42.2534C42.4801 7.10265 42.6312 6.95153 42.6312 6.72485C42.5557 6.57373 42.329 6.34705 42.1779 6.34705Z" fill="#827C7F"/>
<path d="M47.3946 7.85828C47.168 7.85828 47.0168 8.0094 47.0168 8.23608C47.0168 8.46276 47.168 8.61388 47.3946 8.61388C47.6213 8.61388 47.7725 8.46276 47.7725 8.23608C47.7725 8.0094 47.6213 7.85828 47.3946 7.85828Z" fill="#827C7F"/>
<path d="M36.5841 7.85828C36.3574 7.85828 36.2063 8.0094 36.2063 8.23608C36.2063 8.46276 36.3574 8.61388 36.5841 8.61388C36.8108 8.61388 36.9619 8.46276 36.9619 8.23608C36.9619 8.0094 36.8108 7.85828 36.5841 7.85828Z" fill="#827C7F"/>
<path d="M34.4681 9.82288C34.2415 9.82288 34.0903 9.974 34.0903 10.2007C34.0903 10.4274 34.2415 10.5785 34.4681 10.5785C34.6948 10.5785 34.8459 10.4274 34.8459 10.2007C34.8459 9.974 34.6948 9.82288 34.4681 9.82288Z" fill="#827C7F"/>
<path d="M32.2762 14.432C32.0496 14.432 31.8984 14.5831 31.8984 14.8098C31.8984 15.0365 32.0496 15.1876 32.2762 15.1876C32.5029 15.1876 32.654 15.0365 32.654 14.8098C32.654 14.5831 32.5029 14.432 32.2762 14.432Z" fill="#827C7F"/>
<path d="M52.0045 14.432C51.7778 14.432 51.6267 14.5831 51.6267 14.8098C51.6267 15.0365 51.7778 15.1876 52.0045 15.1876H52.0801C52.3068 15.1876 52.4579 15.0365 52.4579 14.8098C52.3823 14.5831 52.2312 14.432 52.0045 14.432Z" fill="#827C7F"/>
<path d="M33.0319 12.1652C32.8052 12.1652 32.6541 12.3163 32.6541 12.543C32.6541 12.7696 32.8052 12.9208 33.0319 12.9208C33.2585 12.9208 33.4097 12.7696 33.4097 12.543C33.4097 12.3163 33.2585 12.1652 33.0319 12.1652Z" fill="#827C7F"/>
<path d="M50.9467 12.1652C50.72 12.1652 50.5688 12.3163 50.5688 12.543C50.5688 12.7696 50.72 12.9208 50.9467 12.9208C51.1733 12.9208 51.3245 12.7696 51.3245 12.543C51.3245 12.3163 51.0978 12.1652 50.9467 12.1652Z" fill="#827C7F"/>
<path d="M31.9735 16.6989C31.7468 16.6989 31.5957 16.85 31.5957 17.0767C31.5957 17.3033 31.7468 17.4545 31.9735 17.4545C32.2002 17.4545 32.3513 17.3033 32.3513 17.0767C32.3513 16.9255 32.2002 16.6989 31.9735 16.6989Z" fill="#827C7F"/>
<path d="M52.1559 16.6989C51.9292 16.6989 51.7781 16.85 51.7781 17.0767C51.7781 17.3033 51.9292 17.4545 52.1559 17.4545C52.3826 17.4545 52.5337 17.3033 52.5337 17.0767C52.5337 16.9255 52.3826 16.6989 52.1559 16.6989Z" fill="#827C7F"/>
<path d="M33.0319 21.157C32.8052 21.157 32.6541 21.3081 32.6541 21.5348C32.6541 21.7615 32.8052 21.9126 33.0319 21.9126C33.2585 21.9126 33.4097 21.7615 33.4097 21.5348C33.4097 21.3081 33.2585 21.157 33.0319 21.157Z" fill="#827C7F"/>
<path d="M32.2762 19.1924C32.0496 19.1924 31.8984 19.3435 31.8984 19.5702C31.8984 19.7969 32.0496 19.948 32.2762 19.948C32.5029 19.948 32.654 19.7969 32.654 19.5702C32.654 19.3435 32.5029 19.1924 32.2762 19.1924Z" fill="#827C7F"/>
<path d="M51.778 19.1924C51.5513 19.1924 51.4001 19.3435 51.4001 19.5702C51.4001 19.7969 51.5513 19.948 51.778 19.948C52.0046 19.948 52.1558 19.7969 52.1558 19.5702C52.1558 19.3435 52.0046 19.1924 51.778 19.1924Z" fill="#827C7F"/>
<path d="M51.0218 21.3081C50.7952 21.3081 50.644 21.4592 50.644 21.6859C50.644 21.9126 50.7952 22.0637 51.0218 22.0637C51.2485 22.0637 51.3997 21.9126 51.3997 21.6859C51.3997 21.4592 51.2485 21.3081 51.0218 21.3081Z" fill="#827C7F"/>
<path d="M34.4681 23.1971C34.2415 23.1971 34.0903 23.3483 34.0903 23.5749C34.0903 23.8016 34.2415 23.9528 34.4681 23.9528C34.6948 23.9528 34.8459 23.8016 34.8459 23.5749C34.8459 23.3483 34.6948 23.1971 34.4681 23.1971Z" fill="#827C7F"/>
<path d="M49.662 23.1971C49.4353 23.1971 49.2842 23.3483 49.2842 23.5749C49.2842 23.8016 49.4353 23.9528 49.662 23.9528C49.8887 23.9528 50.0398 23.8016 50.0398 23.5749C50.0398 23.3483 49.8887 23.1971 49.662 23.1971Z" fill="#827C7F"/>
<path d="M39.0792 26.2196C38.8525 26.2196 38.7014 26.3707 38.7014 26.5974C38.7014 26.8241 38.8525 26.9752 39.0792 26.9752C39.3059 26.9752 39.457 26.8241 39.457 26.5974C39.457 26.3707 39.3059 26.2196 39.0792 26.2196Z" fill="#827C7F"/>
<path d="M36.4337 25.0862C36.207 25.0862 36.0559 25.2373 36.0559 25.464C36.0559 25.6907 36.207 25.8418 36.4337 25.8418C36.6604 25.8418 36.8115 25.6907 36.8115 25.464C36.8115 25.3129 36.5848 25.0862 36.4337 25.0862Z" fill="#827C7F"/>
<path d="M47.6964 25.0105C47.4697 25.0105 47.3186 25.1616 47.3186 25.3883C47.3186 25.615 47.4697 25.7661 47.6964 25.7661C47.9231 25.7661 48.0742 25.615 48.0742 25.3883C48.0742 25.2372 47.9231 25.0105 47.6964 25.0105Z" fill="#827C7F"/>
<path d="M45.1261 26.2952C44.8994 26.2952 44.7483 26.4463 44.7483 26.673C44.7483 26.8997 44.8994 27.0508 45.1261 27.0508H45.2017C45.4283 27.0508 45.5795 26.8997 45.5795 26.673C45.5039 26.4463 45.2772 26.2952 45.1261 26.2952Z" fill="#827C7F"/>
<path d="M49.359 9.82288C49.1323 9.82288 48.9812 9.974 48.9812 10.2007C48.9812 10.4274 49.1323 10.5785 49.359 10.5785C49.5857 10.5785 49.7368 10.4274 49.7368 10.2007C49.7368 9.974 49.5857 9.82288 49.359 9.82288Z" fill="#827C7F"/>
<path d="M43.1611 16.9255H40.9691L39.6841 31.8866H39.9864H40.44H43.6902H44.1437H44.4461L43.1611 16.9255ZM40.5155 30.9798L41.7249 19.1168H42.4052L43.6146 30.9798H40.5155Z" fill="#CFCFCF"/>
<path d="M42.1029 15.7166C41.3473 15.7166 40.8184 16.321 40.8184 17.0011C40.8184 17.7567 41.4228 18.2856 42.1029 18.2856C42.8585 18.2856 43.3874 17.6811 43.3874 17.0011C43.3874 16.2455 42.7829 15.7166 42.1029 15.7166Z" fill="#BFBFBF"/>
<path d="M57.4469 12.0142L56.0107 22.5927H59.0342L57.4469 12.0142Z" fill="#ABABAB"/>
<path d="M57.5225 9.36951L56.0107 12.2408H57.5225H59.0342L57.5225 9.36951Z" fill="#E4E4E4"/>
<path d="M57.5222 13.2987C57.5222 13.2987 57.6733 27.5041 52.9869 33.0201H49.4343C49.4343 33.0201 54.4231 28.6375 55.3301 23.1972C56.1616 17.6812 56.3128 13.1476 56.3128 13.1476L57.5222 13.2987Z" fill="#E4E4E4"/>
<path d="M57.5225 13.2987C57.5225 13.2987 57.3714 27.5041 62.0578 33.0201H65.6104C65.6104 33.0201 60.6216 28.6375 59.7146 23.1972C58.8831 17.6812 58.7319 13.1476 58.7319 13.1476L57.5225 13.2987Z" fill="#E4E4E4"/>
<path d="M60.0166 22.2148H55.0278V23.046H60.0166V22.2148Z" fill="#ABABAB"/>
<path d="M59.2604 12.5431H55.7078V13.6009H59.2604V12.5431Z" fill="#C6C6AC"/>
<path d="M59.1098 11.8632H56.0107V12.7699H59.1098V11.8632Z" fill="#ABABAB"/>
<path d="M59.2604 12.5431H55.7078V13.6009H59.2604V12.5431Z" fill="#ABABAB"/>
<path d="M57.9747 10.0495C58.0503 9.97398 58.0503 9.89843 58.0503 9.7473C58.0503 9.44506 57.8236 8.61389 57.5214 8.61389C57.2191 8.61389 56.9924 9.44506 56.9924 9.7473C56.9924 9.82286 56.9924 9.97398 57.068 10.0495H57.9747Z" fill="#ABABAB"/>
<path d="M57.5217 9.29393C57.4462 9.29393 57.3706 9.21837 57.3706 9.14281V7.70716C57.3706 7.6316 57.4462 7.55603 57.5217 7.55603C57.5973 7.55603 57.6728 7.6316 57.6728 7.70716V9.14281C57.6728 9.21837 57.5973 9.29393 57.5217 9.29393Z" fill="#ABABAB"/>
<path d="M57.6924 13.7297L57.5288 13.8866L58.4701 14.8683L58.6338 14.7114L57.6924 13.7297Z" fill="#ABABAB"/>
<path d="M58.5251 13.7278L57.5837 14.7095L57.7474 14.8664L58.6887 13.8846L58.5251 13.7278Z" fill="#ABABAB"/>
<path d="M57.8374 14.983L57.6738 15.1399L58.6151 16.1216L58.7788 15.9647L57.8374 14.983Z" fill="#ABABAB"/>
<path d="M58.6156 15.0343L57.6743 16.016L57.8379 16.1729L58.7793 15.1912L58.6156 15.0343Z" fill="#ABABAB"/>
<path d="M57.9297 16.2816L57.7661 16.4385L58.7074 17.4202L58.8711 17.2633L57.9297 16.2816Z" fill="#ABABAB"/>
<path d="M58.7004 16.2412L57.759 17.2229L57.9226 17.3798L58.864 16.3981L58.7004 16.2412Z" fill="#ABABAB"/>
<path d="M58.0164 17.5945L57.8528 17.7513L58.7941 18.7331L58.9577 18.5762L58.0164 17.5945Z" fill="#ABABAB"/>
<path d="M58.7946 17.5403L57.8533 18.522L58.0169 18.6789L58.9582 17.6971L58.7946 17.5403Z" fill="#ABABAB"/>
<path d="M58.1607 18.8478L57.9971 19.0046L58.9384 19.9863L59.102 19.8295L58.1607 18.8478Z" fill="#ABABAB"/>
<path d="M58.9384 18.7922L57.9971 19.7739L58.1607 19.9308L59.102 18.9491L58.9384 18.7922Z" fill="#ABABAB"/>
<path d="M58.2498 20.1535L58.0862 20.3104L59.0275 21.2922L59.1911 21.1353L58.2498 20.1535Z" fill="#ABABAB"/>
<path d="M59.029 20.0987L58.0876 21.0804L58.2513 21.2373L59.1926 20.2556L59.029 20.0987Z" fill="#ABABAB"/>
<path d="M58.3941 21.407L58.2305 21.5638L59.1718 22.5456L59.3354 22.3887L58.3941 21.407Z" fill="#ABABAB"/>
<path d="M59.1203 21.4051L58.179 22.3868L58.3426 22.5437L59.2839 21.562L59.1203 21.4051Z" fill="#ABABAB"/>
<path d="M58.7137 23.1625L58.55 23.3193L59.4914 24.3011L59.655 24.1442L58.7137 23.1625Z" fill="#ABABAB"/>
<path d="M59.4923 23.1067L58.551 24.0884L58.7146 24.2453L59.656 23.2635L59.4923 23.1067Z" fill="#ABABAB"/>
<path d="M58.9671 24.3036L58.8035 24.4604L59.7448 25.4422L59.9084 25.2853L58.9671 24.3036Z" fill="#ABABAB"/>
<path d="M59.7987 24.3015L58.8574 25.2832L59.021 25.4401L59.9624 24.4584L59.7987 24.3015Z" fill="#ABABAB"/>
<path d="M59.2896 25.5951L59.126 25.752L60.1196 26.7882L60.2832 26.6313L59.2896 25.5951Z" fill="#ABABAB"/>
<path d="M60.0671 25.5398L59.0735 26.576L59.2371 26.7329L60.2307 25.6967L60.0671 25.5398Z" fill="#ABABAB"/>
<path d="M61.9806 29.9977L60.0916 28.7887L60.3182 28.562L62.2828 29.6954L61.9806 29.9977Z" fill="#ABABAB"/>
<path d="M60.5455 29.9977L61.8301 28.7887L61.6034 28.562L60.3188 29.771L60.5455 29.9977Z" fill="#ABABAB"/>
<path d="M62.8133 31.4333L60.9243 30.2999L61.2266 29.9977L63.1156 31.2067L62.8133 31.4333Z" fill="#ABABAB"/>
<path d="M61.3776 31.4333L62.6621 30.2244L62.4354 29.9977L61.1509 31.2067L61.3776 31.4333Z" fill="#ABABAB"/>
<path d="M63.9469 32.9444L62.0579 31.7355L62.2845 31.4332L64.2491 32.6422L63.9469 32.9444Z" fill="#ABABAB"/>
<path d="M62.5111 32.869L63.7956 31.7356L63.569 31.5089L62.2844 32.7179L62.5111 32.869Z" fill="#ABABAB"/>
<path d="M57.3244 13.7528L56.3831 14.7345L56.5467 14.8914L57.488 13.9097L57.3244 13.7528Z" fill="#ABABAB"/>
<path d="M56.5457 13.7013L56.3821 13.8582L57.3234 14.8399L57.487 14.683L56.5457 13.7013Z" fill="#ABABAB"/>
<path d="M57.2433 15.0111L56.302 15.9928L56.4656 16.1497L57.407 15.168L57.2433 15.0111Z" fill="#ABABAB"/>
<path d="M56.4109 15.0132L56.2473 15.17L57.1886 16.1518L57.3522 15.9949L56.4109 15.0132Z" fill="#ABABAB"/>
<path d="M57.0529 16.2789L56.1116 17.2606L56.2752 17.4175L57.2165 16.4358L57.0529 16.2789Z" fill="#ABABAB"/>
<path d="M56.3357 16.2655L56.1721 16.4224L57.1134 17.4041L57.2771 17.2472L56.3357 16.2655Z" fill="#ABABAB"/>
<path d="M56.9748 17.5298L56.0334 18.5115L56.1971 18.6684L57.1384 17.6866L56.9748 17.5298Z" fill="#ABABAB"/>
<path d="M56.1971 17.5844L56.0334 17.7413L56.9748 18.723L57.1384 18.5662L56.1971 17.5844Z" fill="#ABABAB"/>
<path d="M56.8944 18.7881L55.9531 19.7698L56.1168 19.9267L57.0581 18.945L56.8944 18.7881Z" fill="#ABABAB"/>
<path d="M56.1207 18.8363L55.957 18.9932L56.8983 19.9749L57.062 19.818L56.1207 18.8363Z" fill="#ABABAB"/>
<path d="M56.7616 20.1009L55.8203 21.0826L55.9839 21.2395L56.9252 20.2578L56.7616 20.1009Z" fill="#ABABAB"/>
<path d="M55.982 20.1557L55.8184 20.3126L56.7597 21.2943L56.9233 21.1375L55.982 20.1557Z" fill="#ABABAB"/>
<path d="M56.6806 21.359L55.7393 22.3407L55.9029 22.4976L56.8442 21.5159L56.6806 21.359Z" fill="#ABABAB"/>
<path d="M55.9019 21.4151L55.7383 21.572L56.6796 22.5537L56.8432 22.3968L55.9019 21.4151Z" fill="#ABABAB"/>
<path d="M56.3251 23.1257L55.3838 24.1074L55.5474 24.2643L56.4887 23.2826L56.3251 23.1257Z" fill="#ABABAB"/>
<path d="M55.6001 23.1283L55.4365 23.2852L56.3779 24.2669L56.5415 24.11L55.6001 23.1283Z" fill="#ABABAB"/>
<path d="M56.0348 24.3423L55.0935 25.324L55.2571 25.4809L56.1984 24.4991L56.0348 24.3423Z" fill="#ABABAB"/>
<path d="M55.2571 24.2903L55.0935 24.4471L56.0348 25.4289L56.1985 25.272L55.2571 24.2903Z" fill="#ABABAB"/>
<path d="M55.7414 25.4996L54.7478 26.5359L54.9114 26.6928L55.905 25.6565L55.7414 25.4996Z" fill="#ABABAB"/>
<path d="M54.9104 25.6085L54.7468 25.7654L55.7404 26.8016L55.9041 26.6447L54.9104 25.6085Z" fill="#ABABAB"/>
<path d="M53.0605 29.9975L54.9496 28.7886L54.7229 28.5619L52.7583 29.6953L53.0605 29.9975Z" fill="#ABABAB"/>
<path d="M54.4977 29.9975L53.2131 28.7886L53.4398 28.5619L54.7244 29.7708L54.4977 29.9975Z" fill="#ABABAB"/>
<path d="M52.2307 31.4332L54.1197 30.2998L53.8175 29.9976L51.9285 31.2065L52.2307 31.4332Z" fill="#ABABAB"/>
<path d="M53.6661 31.4332L52.3816 30.2242L52.6083 29.9976L53.8928 31.2065L53.6661 31.4332Z" fill="#ABABAB"/>
<path d="M51.0962 32.9444L52.9852 31.7355L52.7585 31.4332L50.7939 32.6422L51.0962 32.9444Z" fill="#ABABAB"/>
<path d="M52.5316 32.8689L51.2471 31.7355L51.4738 31.5088L52.7583 32.7178L52.5316 32.8689Z" fill="#ABABAB"/>
<path d="M62.057 26.3707H52.9109V28.4109H62.057V26.3707Z" fill="#E4E4E4"/>
<path d="M62.057 27.4286H52.9109V28.4864H62.057V27.4286Z" fill="#ABABAB"/>
<path d="M22.297 16.2455H19.3491V30.1487H22.297V16.2455Z" fill="#CCCCD1"/>
<path opacity="0.75" d="M22.297 16.3212H19.3491V19.3436H22.297V16.3212Z" fill="#CCCCCA"/>
<path d="M22.297 13.8276H19.3491V18.588H22.297V13.8276Z" fill="#CCCCD1"/>
<path d="M22.8266 14.8099H18.7449V19.1169H22.8266V14.8099Z" fill="#DEDEDE"/>
<path d="M22.373 15.3387H19.2739V18.4367H22.373V15.3387Z" fill="#808892"/>
<path d="M22.0696 15.5656H19.5005V18.1346H22.0696V15.5656Z" fill="#DEDEDE"/>
<path d="M21.6919 16.8501C21.6919 17.3035 21.3141 17.6812 20.8607 17.6812C20.4073 17.6812 20.0295 17.3035 20.0295 16.8501C20.0295 16.3967 20.4073 16.0189 20.8607 16.0189C21.3141 16.0189 21.6919 16.3967 21.6919 16.8501Z" fill="#CCBFB1"/>
<path d="M20.7853 15.7166C20.1808 15.7166 19.6519 16.2455 19.6519 16.85C19.6519 17.4545 20.1808 17.9834 20.7853 17.9834C21.3898 17.9834 21.9187 17.4545 21.9187 16.85C21.9187 16.2455 21.4653 15.7166 20.7853 15.7166ZM20.7853 17.6811C20.3319 17.6811 19.9541 17.3033 19.9541 16.85C19.9541 16.3966 20.3319 16.0188 20.7853 16.0188C21.2386 16.0188 21.6164 16.3966 21.6164 16.85C21.692 17.3033 21.3142 17.6811 20.7853 17.6811Z" fill="#CCCCD1"/>
<path d="M20.7848 16.0189C20.3314 16.0189 19.9536 16.3967 19.9536 16.8501C19.9536 17.1523 20.1803 17.4546 20.407 17.6057C20.4825 17.6813 20.6337 17.6812 20.7848 17.6812C21.2381 17.6812 21.616 17.3035 21.616 16.8501C21.616 16.6234 21.5404 16.4723 21.3893 16.3212C21.3137 16.0945 21.087 16.0189 20.7848 16.0189Z" fill="#ECECEC"/>
<path d="M20.785 16.7745C20.7095 16.7745 20.7095 16.8501 20.7095 16.8501C20.7095 16.9257 20.785 16.9256 20.785 16.9256C20.8606 16.9256 20.8606 16.8501 20.8606 16.8501C20.9362 16.7745 20.8606 16.7745 20.785 16.7745Z" fill="#4F4840"/>
<path d="M20.4829 16.5479L20.5585 16.6234L20.7096 16.8501L20.7852 16.7745L20.5585 16.5479H20.4829Z" fill="#4F4840"/>
<path d="M20.8608 16.8501V16.9256L21.3898 17.0768L21.4653 17.0012H21.3898L20.8608 16.8501Z" fill="#4F4840"/>
<path d="M19.803 14.5832V14.281C19.803 14.2054 19.803 14.1299 19.7274 14.1299C19.6519 14.1299 19.6519 14.2054 19.6519 14.281V14.5832H19.803Z" fill="#3B2E31"/>
<path d="M20.1811 14.5832V14.281C20.1811 14.2054 20.1811 14.1299 20.1056 14.1299C20.03 14.1299 20.03 14.2054 20.03 14.281V14.5832H20.1811Z" fill="#3B2E31"/>
<path d="M20.5588 14.5832V14.281C20.5588 14.2054 20.5588 14.1299 20.4833 14.1299C20.4077 14.1299 20.4077 14.2054 20.4077 14.281V14.5832H20.5588Z" fill="#3B2E31"/>
<path d="M20.8613 14.5832V14.281C20.8613 14.2054 20.8613 14.1299 20.7858 14.1299C20.7102 14.1299 20.7102 14.2054 20.7102 14.281V14.5832H20.8613Z" fill="#3B2E31"/>
<path d="M21.2393 14.5832V14.281C21.2393 14.2054 21.2393 14.1299 21.1637 14.1299C21.0881 14.1299 21.0881 14.2054 21.0881 14.281V14.5832H21.2393Z" fill="#3B2E31"/>
<path d="M21.6182 14.5832V14.281C21.6182 14.2054 21.6182 14.1299 21.5426 14.1299C21.467 14.1299 21.467 14.2054 21.467 14.281V14.5832H21.6182Z" fill="#3B2E31"/>
<path d="M21.9949 14.5832V14.281C21.9949 14.2054 21.9949 14.1299 21.9193 14.1299C21.8438 14.1299 21.8438 14.2054 21.8438 14.281V14.5832H21.9949Z" fill="#3B2E31"/>
<path d="M19.1985 18.8901V18.6635C19.1985 18.5879 19.1985 18.5879 19.1229 18.5879C19.0474 18.5879 19.0474 18.6635 19.0474 18.6635V18.8901H19.1985Z" fill="#7E919D"/>
<path d="M19.5767 18.8901V18.6635C19.5767 18.5879 19.5767 18.5879 19.5011 18.5879C19.4255 18.5879 19.4255 18.6635 19.4255 18.6635V18.8901H19.5767Z" fill="#7E919D"/>
<path d="M19.9546 18.8901V18.6635C19.9546 18.5879 19.9546 18.5879 19.879 18.5879C19.8035 18.5879 19.8035 18.6635 19.8035 18.6635V18.8901H19.9546Z" fill="#7E919D"/>
<path d="M20.3323 18.8901V18.6635C20.3323 18.5879 20.3323 18.5879 20.2567 18.5879C20.1812 18.5879 20.1812 18.6635 20.1812 18.6635V18.8901H20.3323Z" fill="#7E919D"/>
<path d="M20.7102 18.8901V18.6635C20.7102 18.5879 20.7102 18.5879 20.6346 18.5879C20.5591 18.5879 20.5591 18.6635 20.5591 18.6635V18.8901H20.7102Z" fill="#7E919D"/>
<path d="M21.0879 18.8901V18.6635C21.0879 18.5879 21.0879 18.5879 21.0123 18.5879C20.9368 18.5879 20.9368 18.6635 20.9368 18.6635V18.8901H21.0879Z" fill="#7E919D"/>
<path d="M21.4659 18.8901V18.6635C21.4659 18.5879 21.4659 18.5879 21.3904 18.5879C21.3148 18.5879 21.2393 18.5879 21.2393 18.6635V18.8901H21.4659Z" fill="#7E919D"/>
<path d="M21.8447 18.8901V18.6635C21.8447 18.5879 21.8447 18.5879 21.7692 18.5879C21.6936 18.5879 21.6936 18.6635 21.6936 18.6635V18.8901H21.8447Z" fill="#7E919D"/>
<path d="M22.2222 18.8901V18.6635C22.2222 18.5879 22.2222 18.5879 22.1466 18.5879C22.071 18.5879 22.071 18.6635 22.071 18.6635V18.8901H22.2222Z" fill="#7E919D"/>
<path d="M22.5999 18.8901V18.6635C22.5999 18.5879 22.5999 18.5879 22.5243 18.5879C22.4487 18.5879 22.4487 18.6635 22.4487 18.6635V18.8901H22.5999Z" fill="#7E919D"/>
<path d="M22.3727 13.8276H19.198L20.105 12.1653H21.5412L22.3727 13.8276Z" fill="#808892"/>
<path d="M21.4648 10.9562H20.1047V12.1652H21.4648V10.9562Z" fill="#CCCCD1"/>
<path d="M21.6163 10.9563H20.0295L20.7851 8.46277L21.6163 10.9563Z" fill="#808892"/>
<path d="M20.8604 8.68944H20.7092L20.7848 8.46277H20.8604V8.68944Z" fill="#808892"/>
<path d="M20.8604 8.61389L20.7848 8.16052L20.7092 8.61389H20.8604Z" fill="#808892"/>
<path d="M20.1809 12.7698V12.9965H20.2565V12.8453H20.332V12.9965H20.4076V12.7698H20.1809Z" fill="#E5E3E4"/>
<path d="M20.4076 12.7698H20.1809L20.2565 12.6187L20.4076 12.7698Z" fill="#C7C4C9"/>
<path d="M19.8032 13.2986V13.6008H19.8788V13.4497H20.0299V13.6008V13.2986H19.8032Z" fill="#E5E3E4"/>
<path d="M20.1052 13.2986H19.803L19.9541 13.1475L20.1052 13.2986Z" fill="#C7C4C9"/>
<path d="M20.4075 13.2986V13.6008H20.483V13.4497H20.5586V13.6008H20.6342V13.2986H20.4075Z" fill="#E5E3E4"/>
<path d="M20.6342 13.2986H20.4075L20.5586 13.1475L20.6342 13.2986Z" fill="#C7C4C9"/>
<path d="M21.0117 13.2986V13.6008V13.4497H21.1628V13.6008H21.2384V13.2986H21.0117Z" fill="#E5E3E4"/>
<path d="M21.2388 13.2986H20.9365L21.0876 13.1475L21.2388 13.2986Z" fill="#C7C4C9"/>
<path d="M21.6169 13.2986V13.6008V13.4497H21.7681V13.6008H21.8436V13.2986H21.6169Z" fill="#E5E3E4"/>
<path d="M21.8442 13.2986H21.542L21.6931 13.1475L21.8442 13.2986Z" fill="#C7C4C9"/>
<path d="M20.709 12.7698V12.9965H20.7845V12.8453H20.8601V12.9965H20.9357V12.7698H20.709Z" fill="#E5E3E4"/>
<path d="M20.936 12.7698H20.6338L20.7849 12.6187L20.936 12.7698Z" fill="#C7C4C9"/>
<path d="M21.238 12.7698V12.9965V12.8453H21.3892V12.9965H21.4647V12.7698H21.238Z" fill="#E5E3E4"/>
<path d="M21.4653 12.7698H21.1631L21.3142 12.6187L21.4653 12.7698Z" fill="#C7C4C9"/>
<path d="M20.7848 8.91614L20.7092 9.14282H20.7848H20.9359L20.7848 8.91614Z" fill="#C7C4C9"/>
<path d="M20.7848 9.52063L20.7092 9.74731H20.7848H20.9359L20.7848 9.52063Z" fill="#C7C4C9"/>
<path d="M20.3317 10.5785L20.2561 10.7296H20.3317H20.4828L20.3317 10.5785Z" fill="#C7C4C9"/>
<path d="M20.7848 10.5785L20.7092 10.7296H20.7848H20.9359L20.7848 10.5785Z" fill="#C7C4C9"/>
<path d="M21.2386 10.5785L21.1631 10.7296H21.2386H21.3898L21.2386 10.5785Z" fill="#C7C4C9"/>
<path d="M20.5582 10.0496L20.4827 10.2762H20.5582H20.6338L20.5582 10.0496Z" fill="#C7C4C9"/>
<path d="M21.0869 10.0496L20.9358 10.2762H21.0869H21.1625L21.0869 10.0496Z" fill="#C7C4C9"/>
<path d="M19.9537 22.0637C19.8782 22.0637 19.8782 22.0637 19.8782 21.9881V19.7969C19.8782 19.7213 19.8782 19.7213 19.9537 19.7213C20.0293 19.7213 20.0293 19.7213 20.0293 19.7969V21.9881C20.0293 21.9881 20.0293 22.0637 19.9537 22.0637Z" fill="#808892"/>
<path d="M20.3317 22.0637C20.2561 22.0637 20.2561 22.0637 20.2561 21.9881V19.7969C20.2561 19.7213 20.2561 19.7213 20.3317 19.7213C20.4072 19.7213 20.4072 19.7213 20.4072 19.7969V21.9881C20.4072 21.9881 20.4072 22.0637 20.3317 22.0637Z" fill="#808892"/>
<path d="M21.3138 22.0637C21.2383 22.0637 21.2383 22.0637 21.2383 21.9881V19.7969C21.2383 19.7213 21.2383 19.7213 21.3138 19.7213C21.3894 19.7213 21.3894 19.7213 21.3894 19.7969V21.9881L21.3138 22.0637Z" fill="#808892"/>
<path d="M21.6163 22.0637C21.5408 22.0637 21.5408 22.0637 21.5408 21.9881V19.7969C21.5408 19.7213 21.5408 19.7213 21.6163 19.7213C21.6919 19.7213 21.6919 19.7213 21.6919 19.7969V21.9881C21.6919 21.9881 21.6919 22.0637 21.6163 22.0637Z" fill="#808892"/>
<path d="M19.9537 25.6907C19.8782 25.6907 19.8782 25.6907 19.8782 25.6151V23.4238C19.8782 23.3483 19.8782 23.3483 19.9537 23.3483C20.0293 23.3483 20.0293 23.3483 20.0293 23.4238V25.6151C20.0293 25.6907 20.0293 25.6907 19.9537 25.6907Z" fill="#808892"/>
<path d="M20.3317 25.6907C20.2561 25.6907 20.2561 25.6907 20.2561 25.6151V23.4238C20.2561 23.3483 20.2561 23.3483 20.3317 23.3483C20.4072 23.3483 20.4072 23.3483 20.4072 23.4238V25.6151C20.4072 25.6907 20.4072 25.6907 20.3317 25.6907Z" fill="#808892"/>
<path d="M21.3138 25.6907C21.2383 25.6907 21.2383 25.6907 21.2383 25.6151V23.4238C21.2383 23.3483 21.2383 23.3483 21.3138 23.3483C21.3894 23.3483 21.3894 23.3483 21.3894 23.4238V25.6151C21.3894 25.6907 21.3138 25.6907 21.3138 25.6907Z" fill="#808892"/>
<path d="M21.6163 25.6907C21.5408 25.6907 21.5408 25.6907 21.5408 25.6151V23.4238C21.5408 23.3483 21.5408 23.3483 21.6163 23.3483C21.6919 23.3483 21.6919 23.3483 21.6919 23.4238V25.6151C21.6919 25.6907 21.6919 25.6907 21.6163 25.6907Z" fill="#808892"/>
<path d="M19.9537 29.3931C19.8782 29.3931 19.8782 29.3932 19.8782 29.3176V27.1263C19.8782 27.0508 19.8782 27.0508 19.9537 27.0508C20.0293 27.0508 20.0293 27.0508 20.0293 27.1263V29.3176C20.0293 29.3176 20.0293 29.3931 19.9537 29.3931Z" fill="#808892"/>
<path d="M20.3317 29.3931C20.2561 29.3931 20.2561 29.3932 20.2561 29.3176V27.1263C20.2561 27.0508 20.2561 27.0508 20.3317 27.0508C20.4072 27.0508 20.4072 27.0508 20.4072 27.1263V29.3176C20.4072 29.3176 20.4072 29.3931 20.3317 29.3931Z" fill="#808892"/>
<path d="M21.3138 29.3931C21.2383 29.3931 21.2383 29.3932 21.2383 29.3176V27.1263C21.2383 27.0508 21.2383 27.0508 21.3138 27.0508C21.3894 27.0508 21.3894 27.0508 21.3894 27.1263V29.3176L21.3138 29.3931Z" fill="#808892"/>
<path d="M21.6163 29.3931C21.5408 29.3931 21.5408 29.3932 21.5408 29.3176V27.1263C21.5408 27.0508 21.5408 27.0508 21.6163 27.0508C21.6919 27.0508 21.6919 27.0508 21.6919 27.1263V29.3176C21.6919 29.3176 21.6919 29.3931 21.6163 29.3931Z" fill="#808892"/>
<path d="M22.297 22.366H19.3491V22.5926H22.297V22.366Z" fill="#DED7D1"/>
<path d="M22.297 22.7438H19.3491V22.9704H22.297V22.7438Z" fill="#DED7D1"/>
<path d="M22.297 26.144H19.3491V26.3707H22.297V26.144Z" fill="#DED7D1"/>
<path d="M22.297 26.5219H19.3491V26.7485H22.297V26.5219Z" fill="#DED7D1"/>
<path d="M43.0079 23.1974H40.6655V24.3308H43.0079V23.1974Z" fill="#EDEBEC"/>
<path d="M41.119 23.3484H40.8923V23.9529H41.119V23.3484Z" fill="#BDBDBD"/>
<path d="M41.4967 23.3484H41.27V23.9529H41.4967V23.3484Z" fill="#BDBDBD"/>
<path d="M41.9506 23.3484H41.7239V23.9529H41.9506V23.3484Z" fill="#BDBDBD"/>
<path d="M42.3282 23.3484H42.1016V23.9529H42.3282V23.3484Z" fill="#BDBDBD"/>
<path d="M42.7814 23.3484H42.5547V23.9529H42.7814V23.3484Z" fill="#BDBDBD"/>
<path d="M43.1583 22.895H40.3625V23.1973H43.1583V22.895Z" fill="#999999"/>
<path d="M24.943 23.1974H22.6006V24.3308H24.943V23.1974Z" fill="#EDEBEC"/>
<path d="M23.0541 23.3484H22.8274V23.9529H23.0541V23.3484Z" fill="#BDBDBD"/>
<path d="M23.4318 23.3484H23.2051V23.9529H23.4318V23.3484Z" fill="#BDBDBD"/>
<path d="M23.8856 23.3484H23.6589V23.9529H23.8856V23.3484Z" fill="#BDBDBD"/>
<path d="M24.2645 23.3484H24.0378V23.9529H24.2645V23.3484Z" fill="#BDBDBD"/>
<path d="M24.7176 23.3484H24.491V23.9529H24.7176V23.3484Z" fill="#BDBDBD"/>
<path d="M25.0934 22.895H22.2976V23.1973H25.0934V22.895Z" fill="#999999"/>
<path d="M16.2496 23.7261H15.7207L15.9474 20.2504H16.0229L16.2496 23.7261Z" fill="#BDBDBD"/>
<path d="M49.8868 23.7261H49.3579L49.5846 20.2504H49.6602L49.8868 23.7261Z" fill="#BDBDBD"/>
<path d="M52.2302 24.104H13.4539V32.7935H52.2302V24.104Z" fill="#BDBDBD"/>
<path d="M40.6653 24.104H24.9431V32.7935H40.6653V24.104Z" fill="#E5E3E4"/>
<path opacity="0.35" d="M52.2302 25.0107H13.4539V25.9175H52.2302V25.0107Z" fill="#D0CDCE"/>
<path d="M52.2302 29.62H13.4539V30.1489H52.2302V29.62Z" fill="#E3E3E3"/>
<path d="M52.2302 24.104H13.4539V25.3885H52.2302V24.104Z" fill="#E3E3E3"/>
<path d="M52.2302 24.104H13.4539V24.4818H52.2302V24.104Z" fill="#CDC0B2"/>
<path d="M36.0543 24.3307H29.6294V32.7935H36.0543V24.3307Z" fill="#EDEBEC"/>
<path d="M35.2229 25.3885H30.6121V29.9978H35.2229V25.3885Z" fill="#999999"/>
<path d="M32.4257 25.3885H31.8967V29.9978H32.4257V25.3885Z" fill="#BDBDBD"/>
<path d="M33.8617 25.3885H33.3328V29.9978H33.8617V25.3885Z" fill="#BDBDBD"/>
<path d="M35.2225 25.3885H34.6936V29.9978H35.2225V25.3885Z" fill="#BDBDBD"/>
<path d="M31.141 25.3885H30.6121V29.9978H31.141V25.3885Z" fill="#BDBDBD"/>
<path d="M51.3984 24.104H14.3606V24.6329H51.3984V24.104Z" fill="#999999"/>
<path opacity="0.35" d="M36.0543 24.104H29.6294V24.6329H36.0543V24.104Z" fill="#D0CDCE"/>
<path d="M18.5938 23.4241H13.4539V32.7181H18.5938V23.4241Z" fill="#E5E3E4"/>
<path d="M18.5938 24.2551H13.4539V25.0863H18.5938V24.2551Z" fill="#C3C1C3"/>
<path d="M17.9133 25.3885H14.2095V29.9978H17.9133V25.3885Z" fill="#999999"/>
<path d="M15.6446 25.3885H15.2668V29.9978H15.6446V25.3885Z" fill="#BDBDBD"/>
<path d="M16.778 25.3885H16.4001V29.9978H16.778V25.3885Z" fill="#BDBDBD"/>
<path d="M17.913 25.3885H17.5352V29.9978H17.913V25.3885Z" fill="#BDBDBD"/>
<path d="M14.5873 25.3885H14.2095V29.9978H14.5873V25.3885Z" fill="#BDBDBD"/>
<path d="M32.8037 30.5266C32.4259 30.5266 32.0481 30.8289 32.0481 31.2822V32.7179H33.4838V31.2822C33.5593 30.9044 33.2571 30.5266 32.8037 30.5266Z" fill="#BDBDBD"/>
<path d="M34.4667 30.9801C34.24 30.9801 34.0889 31.2068 34.0889 31.5846V32.718H34.8445V31.5846C34.8445 31.2824 34.6934 30.9801 34.4667 30.9801Z" fill="#BDBDBD"/>
<path d="M31.2164 30.9801C30.9897 30.9801 30.8386 31.2068 30.8386 31.5846V32.718H31.5187V31.5846C31.5187 31.2824 31.3675 30.9801 31.2164 30.9801Z" fill="#BDBDBD"/>
<path d="M50.4913 31.1312H49.8113V32.718H50.4913V31.1312Z" fill="#BDBDBD"/>
<path d="M15.1163 26.4464H14.7385V27.5043H15.1163V26.4464Z" fill="#7B828A"/>
<path d="M16.1737 26.4464H15.7959V27.5043H16.1737V26.4464Z" fill="#7B828A"/>
<path d="M17.3844 26.4464H17.0066V27.5043H17.3844V26.4464Z" fill="#7B828A"/>
<path d="M15.1163 28.411H14.7385V29.4689H15.1163V28.411Z" fill="#7B828A"/>
<path d="M16.1737 28.411H15.7959V29.4689H16.1737V28.411Z" fill="#7B828A"/>
<path d="M17.3844 28.411H17.0066V29.4689H17.3844V28.411Z" fill="#7B828A"/>
<path d="M19.6509 26.4464H19.0464V27.5043H19.6509V26.4464Z" fill="#7B828A"/>
<path d="M19.6509 28.411H19.0464V29.4689H19.6509V28.411Z" fill="#7B828A"/>
<path d="M21.1633 26.4464H20.5588V27.5043H21.1633V26.4464Z" fill="#7B828A"/>
<path d="M21.1633 28.411H20.5588V29.4689H21.1633V28.411Z" fill="#7B828A"/>
<path d="M22.7507 26.4464H22.1462V27.5043H22.7507V26.4464Z" fill="#7B828A"/>
<path d="M22.7507 28.411H22.1462V29.4689H22.7507V28.411Z" fill="#7B828A"/>
<path d="M24.262 26.4464H23.6575V27.5043H24.262V26.4464Z" fill="#7B828A"/>
<path d="M24.262 28.411H23.6575V29.4689H24.262V28.411Z" fill="#7B828A"/>
<path d="M25.8494 26.4464H25.2449V27.5043H25.8494V26.4464Z" fill="#7B828A"/>
<path d="M25.8494 28.411H25.2449V29.4689H25.8494V28.411Z" fill="#7B828A"/>
<path d="M27.3606 26.4464H26.7561V27.5043H27.3606V26.4464Z" fill="#7B828A"/>
<path d="M27.3606 28.411H26.7561V29.4689H27.3606V28.411Z" fill="#7B828A"/>
<path d="M28.9492 26.4464H28.3447V27.5043H28.9492V26.4464Z" fill="#7B828A"/>
<path d="M28.9492 28.411H28.3447V29.4689H28.9492V28.411Z" fill="#7B828A"/>
<path d="M46.636 26.4464H46.0315V27.5043H46.636V26.4464Z" fill="#7B828A"/>
<path d="M46.636 28.411H46.0315V29.4689H46.636V28.411Z" fill="#7B828A"/>
<path d="M45.0486 26.4464H44.4441V27.5043H45.0486V26.4464Z" fill="#7B828A"/>
<path d="M45.0486 28.411H44.4441V29.4689H45.0486V28.411Z" fill="#7B828A"/>
<path d="M43.5373 26.4464H42.9329V27.5043H43.5373V26.4464Z" fill="#7B828A"/>
<path d="M43.5373 28.411H42.9329V29.4689H43.5373V28.411Z" fill="#7B828A"/>
<path d="M42.0251 26.4464H41.4207V27.5043H42.0251V26.4464Z" fill="#7B828A"/>
<path d="M42.0251 28.411H41.4207V29.4689H42.0251V28.411Z" fill="#7B828A"/>
<path d="M40.4375 26.4464H39.833V27.5043H40.4375V26.4464Z" fill="#7B828A"/>
<path d="M40.4375 28.411H39.833V29.4689H40.4375V28.411Z" fill="#7B828A"/>
<path d="M38.9263 26.4464H38.3218V27.5043H38.9263V26.4464Z" fill="#7B828A"/>
<path d="M38.9263 28.411H38.3218V29.4689H38.9263V28.411Z" fill="#7B828A"/>
<path d="M37.3389 26.4464H36.7344V27.5043H37.3389V26.4464Z" fill="#7B828A"/>
<path d="M37.3389 28.411H36.7344V29.4689H37.3389V28.411Z" fill="#7B828A"/>
<path d="M16.3246 31.1311H15.6445V32.7179H16.3246V31.1311Z" fill="#BDBDBD"/>
<path d="M16.3248 30.451H15.7959V30.8289H16.3248V30.451Z" fill="#BDBDBD"/>
<path d="M14.6622 30.4512H14.1333V30.829H14.6622V30.4512Z" fill="#BDBDBD"/>
<path d="M14.6627 31.1312H14.1338V32.0379H14.6627V31.1312Z" fill="#BDBDBD"/>
<path d="M17.9889 30.4512H17.46V30.829H17.9889V30.4512Z" fill="#BDBDBD"/>
<path d="M17.9891 31.1312H17.4602V32.0379H17.9891V31.1312Z" fill="#BDBDBD"/>
<path d="M19.7274 30.4512H19.1985V30.829H19.7274V30.4512Z" fill="#7B828A"/>
<path d="M19.7269 31.1312H19.198V32.0379H19.7269V31.1312Z" fill="#7B828A"/>
<path d="M21.3143 30.4512H20.7854V30.829H21.3143V30.4512Z" fill="#7B828A"/>
<path d="M21.3143 31.1312H20.7854V32.0379H21.3143V31.1312Z" fill="#7B828A"/>
<path d="M22.8265 30.4512H22.2976V30.829H22.8265V30.4512Z" fill="#7B828A"/>
<path d="M22.827 31.1312H22.2981V32.0379H22.827V31.1312Z" fill="#7B828A"/>
<path d="M24.2616 30.4512H23.7327V30.829H24.2616V30.4512Z" fill="#7B828A"/>
<path d="M24.2616 31.1312H23.7327V32.0379H24.2616V31.1312Z" fill="#7B828A"/>
<path d="M26.0001 30.4512H25.4712V30.829H26.0001V30.4512Z" fill="#7B828A"/>
<path d="M25.9996 31.1312H25.4707V32.0379H25.9996V31.1312Z" fill="#7B828A"/>
<path d="M27.5118 30.4512H26.9829V30.829H27.5118V30.4512Z" fill="#7B828A"/>
<path d="M27.5118 31.1312H26.9829V32.0379H27.5118V31.1312Z" fill="#7B828A"/>
<path d="M28.9488 30.4512H28.4199V30.829H28.9488V30.4512Z" fill="#7B828A"/>
<path d="M28.9493 31.1312H28.4204V32.0379H28.9493V31.1312Z" fill="#7B828A"/>
<path d="M46.4855 30.451H45.9565V30.8289H46.4855V30.451Z" fill="#7B828A"/>
<path d="M46.486 31.1311H45.957V32.0378H46.486V31.1311Z" fill="#7B828A"/>
<path d="M44.8971 30.451H44.3682V30.8289H44.8971V30.451Z" fill="#7B828A"/>
<path d="M44.8971 31.1311H44.3682V32.0378H44.8971V31.1311Z" fill="#7B828A"/>
<path d="M43.3864 30.451H42.8574V30.8289H43.3864V30.451Z" fill="#7B828A"/>
<path d="M43.3859 31.1311H42.8569V32.0378H43.3859V31.1311Z" fill="#7B828A"/>
<path d="M41.9498 30.451H41.4209V30.8289H41.9498V30.451Z" fill="#7B828A"/>
<path d="M41.9498 31.1311H41.4209V32.0378H41.9498V31.1311Z" fill="#7B828A"/>
<path d="M40.2118 30.451H39.6829V30.8289H40.2118V30.451Z" fill="#7B828A"/>
<path d="M40.2123 31.1311H39.6833V32.0378H40.2123V31.1311Z" fill="#7B828A"/>
<path d="M38.6993 30.451H38.1704V30.8289H38.6993V30.451Z" fill="#7B828A"/>
<path d="M38.6993 31.1311H38.1704V32.0378H38.6993V31.1311Z" fill="#7B828A"/>
<path d="M37.2638 30.451H36.7349V30.8289H37.2638V30.451Z" fill="#7B828A"/>
<path d="M37.2633 31.1311H36.7344V32.0378H37.2633V31.1311Z" fill="#7B828A"/>
<path d="M52.2295 23.4241H47.0896V32.7181H52.2295V23.4241Z" fill="#E5E3E4"/>
<path d="M52.2295 23.4241H47.0896V32.7181H52.2295V23.4241Z" fill="#E5E3E4"/>
<path d="M52.2295 24.2551H47.0896V25.0863H52.2295V24.2551Z" fill="#C3C1C3"/>
<path d="M50.4156 25.3885H50.0378V29.9978H50.4156V25.3885Z" fill="#BDBDBD"/>
<path d="M49.2814 25.3885H48.9036V29.9978H49.2814V25.3885Z" fill="#BDBDBD"/>
<path d="M48.0721 25.3885H47.6943V29.9978H48.0721V25.3885Z" fill="#BDBDBD"/>
<path d="M51.4735 25.3885H51.0957V29.9978H51.4735V25.3885Z" fill="#BDBDBD"/>
<path d="M50.869 26.4464H50.4912V27.5043H50.869V26.4464Z" fill="#7B828A"/>
<path d="M49.8109 26.4464H49.4331V27.5043H49.8109V26.4464Z" fill="#7B828A"/>
<path d="M48.6014 26.4464H48.2236V27.5043H48.6014V26.4464Z" fill="#7B828A"/>
<path d="M50.869 28.411H50.4912V29.4689H50.869V28.411Z" fill="#7B828A"/>
<path d="M49.8109 28.411H49.4331V29.4689H49.8109V28.411Z" fill="#7B828A"/>
<path d="M48.6014 28.411H48.2236V29.4689H48.6014V28.411Z" fill="#7B828A"/>
<path d="M49.9618 31.1311H49.2817V32.7179H49.9618V31.1311Z" fill="#BDBDBD"/>
<path d="M49.8109 30.451H49.4331V30.8289H49.8109V30.451Z" fill="#BDBDBD"/>
<path d="M51.5499 30.4512H51.021V30.829H51.5499V30.4512Z" fill="#BDBDBD"/>
<path d="M51.5494 31.1312H51.0205V32.0379H51.5494V31.1312Z" fill="#BDBDBD"/>
<path d="M48.2235 30.4512H47.6946V30.829H48.2235V30.4512Z" fill="#BDBDBD"/>
<path d="M48.2233 31.1312H47.6943V32.0379H48.2233V31.1312Z" fill="#BDBDBD"/>
<path d="M31.6702 26.4464H31.2168V27.5043H31.6702V26.4464Z" fill="#7B828A"/>
<path d="M33.03 26.4464H32.5767V27.5043H33.03V26.4464Z" fill="#7B828A"/>
<path d="M34.467 26.4464H34.0137V27.5043H34.467V26.4464Z" fill="#7B828A"/>
<path d="M31.6702 28.3354H31.2168V29.3933H31.6702V28.3354Z" fill="#7B828A"/>
<path d="M33.03 28.3354H32.5767V29.3933H33.03V28.3354Z" fill="#7B828A"/>
<path d="M34.467 28.3354H34.0137V29.3933H34.467V28.3354Z" fill="#7B828A"/>
<path d="M52.4567 32.7179H13.3025V33.7757H52.4567V32.7179Z" fill="#999999"/>
<path d="M32.9537 14.3568H32.7271V15.7925H32.9537V14.3568Z" fill="#DEDEDE"/>
<path d="M33.7846 17.9081C33.7846 17.8325 33.7846 17.8325 33.7846 17.7569C33.7846 17.3791 33.3313 17.0769 32.8024 17.0769C32.2734 17.0769 31.8201 17.3791 31.8201 17.7569C31.8201 17.8325 31.8201 17.9081 31.8201 17.9081H33.7846Z" fill="#D1D1D1"/>
<path d="M33.105 16.1702H32.5005V17.3791H33.105V16.1702Z" fill="#D1D1D1"/>
<path d="M36.0537 21.9128H29.5532V24.1041H36.0537V21.9128Z" fill="#E5E3E4"/>
<path d="M36.0537 23.6506H29.5532V24.104H36.0537V23.6506Z" fill="#BDBDBD"/>
<path d="M36.0537 21.9128H29.5532V22.3662H36.0537V21.9128Z" fill="#BDBDBD"/>
<path d="M30.158 22.5928H29.8557V23.4239H30.158V22.5928Z" fill="#BDBDBD"/>
<path d="M30.6863 22.5928H30.384V23.4239H30.6863V22.5928Z" fill="#BDBDBD"/>
<path d="M31.2153 22.5928H30.9131V23.4239H31.2153V22.5928Z" fill="#BDBDBD"/>
<path d="M31.7446 22.5928H31.4424V23.4239H31.7446V22.5928Z" fill="#BDBDBD"/>
<path d="M32.1975 22.5928H31.8953V23.4239H32.1975V22.5928Z" fill="#BDBDBD"/>
<path d="M32.7266 22.5928H32.4243V23.4239H32.7266V22.5928Z" fill="#BDBDBD"/>
<path d="M33.2556 22.5928H32.9534V23.4239H33.2556V22.5928Z" fill="#BDBDBD"/>
<path d="M33.7861 22.5928H33.4839V23.4239H33.7861V22.5928Z" fill="#BDBDBD"/>
<path d="M34.314 22.5928H34.0117V23.4239H34.314V22.5928Z" fill="#BDBDBD"/>
<path d="M34.7681 22.5928H34.4658V23.4239H34.7681V22.5928Z" fill="#BDBDBD"/>
<path d="M35.2974 22.5928H34.9951V23.4239H35.2974V22.5928Z" fill="#BDBDBD"/>
<path d="M35.8269 22.5928H35.5247V23.4239H35.8269V22.5928Z" fill="#BDBDBD"/>
<path d="M35.3732 20.1749H30.3088V21.9128H35.3732V20.1749Z" fill="#E5E3E4"/>
<path d="M35.3732 21.535H30.3088V21.9128H35.3732V21.535Z" fill="#BDBDBD"/>
<path d="M35.3732 20.1749H30.3088V20.5527H35.3732V20.1749Z" fill="#BDBDBD"/>
<path d="M30.7621 20.7039H30.5354V21.3839H30.7621V20.7039Z" fill="#BDBDBD"/>
<path d="M31.1398 20.7039H30.9131V21.3839H31.1398V20.7039Z" fill="#BDBDBD"/>
<path d="M31.5177 20.7039H31.291V21.3839H31.5177V20.7039Z" fill="#BDBDBD"/>
<path d="M31.9716 20.7039H31.7449V21.3839H31.9716V20.7039Z" fill="#BDBDBD"/>
<path d="M32.3492 20.7039H32.1226V21.3839H32.3492V20.7039Z" fill="#BDBDBD"/>
<path d="M32.7272 20.7039H32.5005V21.3839H32.7272V20.7039Z" fill="#BDBDBD"/>
<path d="M33.1801 20.7039H32.9534V21.3839H33.1801V20.7039Z" fill="#BDBDBD"/>
<path d="M33.5592 20.7039H33.3325V21.3839H33.5592V20.7039Z" fill="#BDBDBD"/>
<path d="M33.9371 20.7039H33.7104V21.3839H33.9371V20.7039Z" fill="#BDBDBD"/>
<path d="M34.3905 20.7039H34.1638V21.3839H34.3905V20.7039Z" fill="#BDBDBD"/>
<path d="M34.7667 20.7039H34.54V21.3839H34.7667V20.7039Z" fill="#BDBDBD"/>
<path d="M35.1456 20.7039H34.9189V21.3839H35.1456V20.7039Z" fill="#BDBDBD"/>
<path d="M35.4492 20.1749C35.5248 19.9482 35.5248 19.7971 35.5248 19.5704C35.3736 18.437 34.2398 17.5303 32.8792 17.5303C31.5186 17.5303 30.3848 18.437 30.2336 19.5704C30.2336 19.7971 30.2336 19.9482 30.3092 20.1749H35.4492Z" fill="#E5E3E4"/>
<path d="M30.2336 19.7971C30.2336 19.9482 30.2336 20.0238 30.3092 20.1749H35.4492C35.4492 20.0238 35.5248 19.9482 35.5248 19.7971H30.2336Z" fill="#BDBDBD"/>
<path d="M32.4247 16.2457H33.2559C33.2559 16.1702 33.3314 16.1702 33.3314 16.0946C33.3314 15.9435 33.1047 15.7924 32.8781 15.7924C32.6514 15.7924 32.4247 15.9435 32.4247 16.0946C32.3491 16.1702 32.4247 16.1702 32.4247 16.2457Z" fill="#BDBDBD"/>
<path d="M33.105 14.4322C33.105 14.5834 32.9539 14.7345 32.8027 14.7345C32.6516 14.7345 32.5005 14.5834 32.5005 14.4322C32.5005 14.2811 32.6516 14.13 32.8027 14.13C32.9539 14.13 33.105 14.2811 33.105 14.4322Z" fill="#BDBDBD"/>
<path d="M33.105 15.2634C33.105 15.4145 32.9539 15.5657 32.8027 15.5657C32.6516 15.5657 32.5005 15.4145 32.5005 15.2634C32.5005 15.1123 32.6516 14.9612 32.8027 14.9612C32.9539 14.9612 33.105 15.1123 33.105 15.2634Z" fill="#BDBDBD"/>
<path d="M33.2555 16.2457H32.4243V16.3969H33.2555V16.2457Z" fill="#E5E3E4"/>
<path d="M11.868 28.6374L11.1121 25.6906C11.0365 25.4639 11.0365 25.2372 10.9609 25.0105C10.583 23.8016 10.3562 18.9657 10.3562 18.9657C10.2051 17.1522 10.0539 11.334 9.90272 10.8807C9.90272 10.7296 9.67596 10.7296 9.67596 10.8807C9.60038 11.334 9.37361 17.1522 9.22244 18.9657C9.22244 18.9657 8.99568 23.8016 8.61774 25.0105C8.54215 25.2372 8.46656 25.4639 8.46656 25.6906L7.71069 28.6374L5.21631 32.7933H6.50129C6.50129 32.7933 8.46656 29.4686 9.82714 29.4686C11.1877 29.4686 13.153 32.7933 13.153 32.7933H14.438L11.868 28.6374Z" fill="#FF2B55"/>
<path opacity="0.32" d="M10.2788 19.0412C10.2788 18.9657 10.2788 18.9657 10.2788 18.9657C10.2788 18.5123 10.2032 17.9078 10.2032 17.1522H9.29651C9.29651 17.9078 9.22095 18.5879 9.22095 18.9657C9.22095 18.9657 9.22095 18.9657 9.22095 19.0412H10.2788Z" fill="#562B3D"/>
<path opacity="0.32" d="M11.1871 25.9172L11.1115 25.6905C11.036 25.4639 11.036 25.2372 10.9604 25.0105C10.8849 24.8594 10.8093 24.5571 10.8093 24.2549H8.76916C8.6936 24.5571 8.6936 24.8594 8.61804 25.0105C8.54248 25.2372 8.46692 25.4639 8.46692 25.6905L8.39136 25.9172H11.1871Z" fill="#562B3D"/>
<path opacity="0.32" d="M10.5823 22.8949C10.5067 22.2904 10.4311 21.6859 10.4311 21.0814H9.07104C8.99548 21.6859 8.99548 22.2904 8.91992 22.8949H10.5823Z" fill="#562B3D"/>
<path d="M10.5056 22.2148C10.43 21.4592 10.3545 20.628 10.3545 20.0236H9.14551C9.14551 20.628 9.06995 21.3836 8.99438 22.2148H10.5056Z" fill="#A8A9AC"/>
<path d="M10.1277 15.7165C10.1277 15.0365 10.0521 14.432 10.0521 13.8275H9.44763C9.44763 14.432 9.37207 15.0365 9.37207 15.7165H10.1277Z" fill="#A8A9AC"/>
<path d="M8.54175 24.4817V25.0862H10.9597V24.4817H8.54175Z" fill="#888A8E"/>
<path d="M8.31519 23.8015L8.54195 24.7838H10.9607L11.1875 23.8015H8.31519Z" fill="#A8A9AC"/>
<path d="M10.4303 16.6233H9.14575V18.5123H10.4303V16.6233Z" fill="#A8A9AC"/>
<path d="M10.4303 17.8323H9.14575V18.5123H10.4303V17.8323Z" fill="#888A8E"/>
<path d="M10.4314 18.1345H9.07129V18.5123H10.4314V18.1345Z" fill="#1F1715"/>
<path d="M6.57641 30.2242L6.50085 30.3754L6.95421 30.8287L5.97192 31.3577L5.8208 31.5844L7.02977 30.9799L7.40758 31.2821L7.48314 31.2066L7.18089 30.9043L8.16319 30.4509C8.23875 30.3754 8.38987 30.2242 8.46543 30.1487L7.02977 30.8287L6.57641 30.2242Z" fill="#A8A9AC"/>
<path d="M5.82079 31.5088L5.74523 31.6599L6.1986 32.1133L5.21631 32.6422L5.06519 32.8689L6.27416 32.2644L6.5764 32.4911C6.5764 32.4911 6.65196 32.4155 6.65196 32.34L6.42528 32.1133L6.95421 31.811C7.02977 31.7355 7.02977 31.6599 7.10533 31.5844L6.27416 31.9622L5.82079 31.5088Z" fill="#A8A9AC"/>
<path d="M13.6809 31.5087L13.5298 31.282L12.5475 30.753L13.0008 30.2997L12.9253 30.1485L12.3963 30.6019L10.9607 29.9219C11.0363 29.9974 11.1874 30.1486 11.2629 30.2241L12.2452 30.6775L11.943 30.9797L12.0185 31.0553L12.3963 30.753L13.6809 31.5087Z" fill="#A8A9AC"/>
<path d="M14.2861 32.5665L13.3038 32.0376L13.7572 31.5842L13.6816 31.4331L13.1527 31.8865L12.3215 31.5087C12.3971 31.5842 12.3971 31.6598 12.4727 31.7353L13.0016 32.0376L12.7749 32.2643C12.7749 32.3398 12.8505 32.3398 12.8505 32.4154L13.1527 32.1887L14.3617 32.7932L14.2861 32.5665Z" fill="#A8A9AC"/>
<path d="M12.7747 29.9975L12.6235 29.7708L11.4897 29.2419L12.0188 28.7885L11.9433 28.6374L11.4141 29.1663L9.9024 28.4107L10.9606 27.7307L11.8677 28.1085L11.7921 27.9574L11.0362 27.6551L11.5653 27.2773V27.1262L10.9606 27.5796L9.9024 27.1262L10.7339 26.295L11.4141 26.5973L11.3386 26.4462L10.8094 26.2195L11.1874 25.8417V25.6905L10.7339 26.1439L9.9024 25.7661V25.1616L11.1118 25.3883C11.1118 25.3127 11.1118 25.3127 11.1118 25.2372L9.9024 25.0861V24.9349H9.75122V25.0861L8.54183 25.2372C8.54183 25.3127 8.54183 25.3127 8.54183 25.3883L9.75122 25.1616V25.7661L8.91976 26.1439L8.46624 25.6905V25.8417L8.84418 26.2195L8.31507 26.4462L8.23948 26.5973L8.91976 26.295L9.75122 27.1262L8.693 27.5796L8.0883 27.1262V27.2773L8.61741 27.6551L7.86154 27.9574L7.78595 28.1085L8.693 27.7307L9.75122 28.4107L8.23948 29.1663L7.71037 28.6374L7.63478 28.7885L8.16389 29.2419L7.03008 29.7708L6.87891 29.9975L8.23948 29.3175L8.84418 29.8464L8.91976 29.7708L8.31507 29.2419C8.31507 29.2419 9.67564 28.5619 9.75122 28.4863V29.3175H9.82681H9.9024V28.4863C10.0536 28.5619 11.3386 29.2419 11.3386 29.2419L10.7339 29.7708L10.8094 29.8464L11.4141 29.3175L12.7747 29.9975ZM9.82681 25.9928L10.5827 26.295L9.82681 26.9751V25.9928ZM9.67564 28.3352L8.693 27.6551L9.67564 27.2018V28.3352ZM9.67564 26.9751L8.91976 26.295L9.67564 25.9928V26.9751ZM9.82681 27.2773L10.8094 27.7307L9.82681 28.4107V27.2773Z" fill="#A8A9AC"/>
<path d="M10.6578 23.7259C10.6578 23.6504 10.6578 23.6504 10.6578 23.5748L9.90221 23.0459L10.5823 22.5925C10.5823 22.517 10.5823 22.517 10.5823 22.4414L9.82665 22.9703L9.07104 22.4414C9.07104 22.517 9.07104 22.517 9.07104 22.5925L9.75109 23.0459L8.91992 23.5748C8.91992 23.6504 8.91992 23.6504 8.91992 23.7259L9.82665 23.1214L10.6578 23.7259Z" fill="#A8A9AC"/>
<path d="M10.3557 19.7213C10.3557 19.6457 10.3557 19.6457 10.3557 19.5702L9.90234 19.1924L10.3557 18.8901C10.3557 18.8146 10.3557 18.8146 10.3557 18.739L9.82678 19.1168L9.29785 18.739C9.29785 18.8146 9.29785 18.8146 9.29785 18.8901L9.75122 19.1924L9.29785 19.5702C9.29785 19.6457 9.29785 19.6457 9.29785 19.7213L9.90234 19.2679L10.3557 19.7213Z" fill="#A8A9AC"/>
<path d="M6.87852 32.7178H4.68726V33.3223H6.87852V32.7178Z" fill="#676361"/>
<path d="M14.8146 32.7178H12.6233V33.3223H14.8146V32.7178Z" fill="#676361"/>
<path d="M8.61731 24.6328H8.76843L8.69287 24.0283H8.54175L8.61731 24.6328Z" fill="#1F1715"/>
<path d="M8.99524 24.6328H9.22192L9.14636 24.0283H8.91968L8.99524 24.6328Z" fill="#1F1715"/>
<path d="M9.44836 24.6328H9.59949V24.0283H9.3728L9.44836 24.6328Z" fill="#1F1715"/>
<path d="M9.82666 24.6328H10.0533V24.0283H9.82666V24.6328Z" fill="#1F1715"/>
<path d="M10.2808 24.6328H10.4319L10.5074 24.0283H10.2808V24.6328Z" fill="#1F1715"/>
<path d="M10.733 24.0283L10.6575 24.6328H10.8842L10.9597 24.0283H10.733Z" fill="#1F1715"/>
<path d="M9.67431 16.9255H9.22095V17.0767H9.67431V16.9255Z" fill="#1F1715"/>
<path d="M10.2798 16.9255H9.82642V17.0767H10.2798V16.9255Z" fill="#1F1715"/>
<path d="M9.67431 17.2278H9.22095V17.3789H9.67431V17.2278Z" fill="#1F1715"/>
<path d="M10.2798 17.2278H9.82642V17.3789H10.2798V17.2278Z" fill="#1F1715"/>
<path d="M9.67431 17.53H9.22095V17.6811H9.67431V17.53Z" fill="#1F1715"/>
<path d="M10.2798 17.53H9.82642V17.6811H10.2798V17.53Z" fill="#1F1715"/>
<path d="M67.2718 22.6682H63.1145V32.7178H67.2718V22.6682Z" fill="#BA0135"/>
<path d="M67.574 23.8772H62.812V32.8689H67.574V23.8772Z" fill="#FF2B55"/>
<path d="M66.8939 24.4817H63.4924V32.8689H66.8939V24.4817Z" fill="#BA0135"/>
<path d="M66.8182 24.6328H63.6436V32.8689H66.8182V24.6328Z" fill="#FF2B55"/>
<path d="M66.3639 25.1617H64.0215V31.131H66.3639V25.1617Z" fill="#DEDEDE"/>
<path d="M64.7769 25.1617H64.6257V31.131H64.7769V25.1617Z" fill="#FF2B55"/>
<path d="M65.6838 25.1617H65.5327V31.131H65.6838V25.1617Z" fill="#FF2B55"/>
<path d="M66.3639 25.9172H64.0215V26.0683H66.3639V25.9172Z" fill="#FF2B55"/>
<path d="M66.3639 26.9752H64.0215V27.1263H66.3639V26.9752Z" fill="#FF2B55"/>
<path d="M66.3639 28.0331H64.0215V28.1842H66.3639V28.0331Z" fill="#FF2B55"/>
<path d="M66.3639 29.0909H64.0215V29.2421H66.3639V29.0909Z" fill="#FF2B55"/>
<path d="M66.3639 30.0731H64.0215V30.2242H66.3639V30.0731Z" fill="#FF2B55"/>
<path d="M66.7422 28.3352C66.7422 28.4108 66.6666 28.4863 66.5911 28.4863C66.5155 28.4863 66.4399 28.4108 66.4399 28.3352C66.4399 28.2596 66.5155 28.1841 66.5911 28.1841C66.6666 28.1841 66.7422 28.2596 66.7422 28.3352Z" fill="#FFCC33"/>
<path d="M63.6429 25.6907H63.4163V26.3707H63.6429V25.6907Z" fill="#FFCC33"/>
<path d="M63.6429 28.1841H63.4163V28.8641H63.6429V28.1841Z" fill="#FFCC33"/>
<path d="M63.6429 30.6022H63.4163V31.2822H63.6429V30.6022Z" fill="#FFCC33"/>
<path d="M67.0444 22.9705H63.4163V23.575H67.0444V22.9705Z" fill="#DEDEDE"/>
<path d="M63.8702 23.1972C63.7947 23.1216 63.7947 23.046 63.7947 23.046V23.4238H63.8702H63.6436H63.7191V23.1216C63.6436 23.1216 63.6436 23.1972 63.6436 23.2727V23.1216H63.9458L63.8702 23.1972Z" fill="#382040"/>
<path d="M64.2485 23.1216V23.1971C64.2485 23.1216 64.173 23.1216 64.0974 23.1216V23.2727C64.0974 23.2727 64.173 23.2727 64.173 23.1971V23.3483C64.173 23.2727 64.173 23.2727 64.0974 23.2727V23.4238C64.173 23.4238 64.2485 23.3483 64.2485 23.3483V23.4994H63.9463V23.1216H64.2485Z" fill="#382040"/>
<path d="M64.4747 23.1216L64.3992 23.4994C64.4747 23.4994 64.4747 23.4238 64.5503 23.3483V23.4994H64.248V23.1216H64.4747Z" fill="#382040"/>
<path d="M64.9282 23.1216V23.1971C64.9282 23.1216 64.8527 23.1216 64.7771 23.1216V23.2727C64.7771 23.2727 64.8527 23.2727 64.8527 23.1971V23.3483C64.8527 23.2727 64.8527 23.2727 64.7771 23.2727V23.4238C64.8527 23.4238 64.9282 23.3483 64.9282 23.3483V23.4994H64.626V23.1216H64.9282Z" fill="#382040"/>
<path d="M65.1548 23.1216C65.2303 23.1216 65.3059 23.1216 65.3059 23.1971C65.3059 23.2727 65.2303 23.3483 65.1548 23.3483V23.4994H65.2303H65.0037V23.1216H65.1548ZM65.0792 23.3483C65.1548 23.3483 65.1548 23.3483 65.1548 23.2727C65.1548 23.1972 65.1548 23.1971 65.0792 23.1971V23.3483Z" fill="#382040"/>
<path d="M65.4575 23.1216V23.2727H65.5331V23.1216H65.4575H65.6842V23.4994H65.5331V23.3483H65.4575V23.4994H65.3064V23.1216H65.4575Z" fill="#382040"/>
<path d="M65.9116 23.1216C66.0627 23.1216 66.0627 23.1971 66.0627 23.3483C66.0627 23.4994 65.9872 23.575 65.9116 23.575C65.7605 23.575 65.7605 23.4994 65.7605 23.3483C65.7605 23.1971 65.8361 23.1216 65.9116 23.1216ZM65.9872 23.2727C65.9872 23.1216 65.9872 23.1216 65.9116 23.1216C65.8361 23.1216 65.8361 23.1972 65.8361 23.2727V23.3483C65.8361 23.4238 65.8361 23.4994 65.9116 23.4994C65.9872 23.4994 65.9872 23.4238 65.9872 23.2727Z" fill="#382040"/>
<path d="M66.4398 23.4994H66.3643L66.1376 23.1216V23.4994H66.062V23.1216H66.2131L66.3643 23.4238V23.1216H66.4398V23.4994Z" fill="#382040"/>
<path d="M66.8171 23.1216V23.1971C66.8171 23.1216 66.7416 23.1216 66.666 23.1216V23.2727C66.666 23.2727 66.7416 23.2727 66.7416 23.1971V23.3483C66.7416 23.2727 66.7416 23.2727 66.666 23.2727V23.4238C66.7416 23.4238 66.8171 23.3483 66.8171 23.3483V23.4994H66.5149V23.1216H66.8171Z" fill="#382040"/>
<path d="M65.1557 21.2325C63.7195 21.2325 62.5857 21.837 62.5857 22.366V22.6682H67.65V22.366C67.7256 21.837 66.5918 21.2325 65.1557 21.2325Z" fill="#FF2B55"/>
<path d="M65.4571 21.9881L65.3816 21.7615L65.306 21.9881L65.2305 21.7615L65.1549 21.9881L65.0793 21.7615L65.0038 21.9881L64.7771 21.837C64.7771 21.837 64.9282 22.1393 64.9282 22.5171H65.6083C65.6083 22.1393 65.7594 21.837 65.7594 21.837L65.4571 21.9881Z" fill="#BA0135"/>
<path d="M64.8523 22.366V22.4415H65.5323C65.5323 22.366 65.5323 22.366 65.5323 22.366H64.8523Z" fill="#BA0135"/>
<path d="M65.23 21.6859C65.23 21.7615 65.23 21.7615 65.23 21.6859C65.1544 21.7615 65.0789 21.7615 65.0789 21.6859C65.0789 21.6859 65.1544 21.6104 65.23 21.6859C65.23 21.6859 65.23 21.6104 65.23 21.6859Z" fill="#BA0135"/>
<path d="M65.4569 21.837C65.4986 21.837 65.5325 21.8032 65.5325 21.7615C65.5325 21.7197 65.4986 21.6859 65.4569 21.6859C65.4152 21.6859 65.3813 21.7197 65.3813 21.7615C65.3813 21.8032 65.4152 21.837 65.4569 21.837Z" fill="#BA0135"/>
<path d="M65.6835 21.9126C65.7252 21.9126 65.759 21.8787 65.759 21.837C65.759 21.7953 65.7252 21.7615 65.6835 21.7615C65.6417 21.7615 65.6079 21.7953 65.6079 21.837C65.6079 21.8787 65.6417 21.9126 65.6835 21.9126Z" fill="#BA0135"/>
<path d="M64.9279 21.837C64.9696 21.837 65.0034 21.8032 65.0034 21.7615C65.0034 21.7197 64.9696 21.6859 64.9279 21.6859C64.8861 21.6859 64.8523 21.7197 64.8523 21.7615C64.8523 21.8032 64.8861 21.837 64.9279 21.837Z" fill="#BA0135"/>
<path d="M64.7013 21.9126C64.743 21.9126 64.7769 21.8787 64.7769 21.837C64.7769 21.7953 64.743 21.7615 64.7013 21.7615C64.6596 21.7615 64.6257 21.7953 64.6257 21.837C64.6257 21.8787 64.6596 21.9126 64.7013 21.9126Z" fill="#BA0135"/>
<path d="M67.801 32.7178H62.5854V33.0956H67.801V32.7178Z" fill="#68282E"/>
<path d="M63.8713 48.1323C63.8713 48.5101 63.5691 48.8124 63.1913 48.8124C62.8135 48.8124 62.5112 48.5101 62.5112 48.1323C62.5112 47.7545 62.8135 47.4523 63.1913 47.4523C63.5691 47.4523 63.8713 47.7545 63.8713 48.1323Z" fill="#CCCCCC"/>
<path d="M65.686 48.1323C65.686 48.5101 65.3838 48.8124 65.006 48.8124C64.6282 48.8124 64.3259 48.5101 64.3259 48.1323C64.3259 47.7545 64.6282 47.4523 65.006 47.4523C65.3838 47.4523 65.686 47.7545 65.686 48.1323Z" fill="#CCCCCC"/>
<path d="M67.499 48.1323C67.499 48.5101 67.1968 48.8124 66.819 48.8124C66.4412 48.8124 66.1389 48.5101 66.1389 48.1323C66.1389 47.7545 66.4412 47.4523 66.819 47.4523C67.1968 47.4523 67.499 47.7545 67.499 48.1323Z" fill="#CCCCCC"/>
<path d="M50.2654 60.6753H23.6587V64H50.2654V60.6753Z" fill="#382040"/>
<path d="M24.1882 35.8158H8.84399V44.203H24.1882V35.8158Z" fill="#FFCC33"/>
<path d="M65.8365 37.9315H25.2461V38.7627H65.8365V37.9315Z" fill="#999999"/>
<path d="M65.8367 39.6696H25.2463V40.5007H65.8367V39.6696Z" fill="#999999"/>
<path d="M65.8367 41.4073H25.2463V42.2385H65.8367V41.4073Z" fill="#999999"/>
<path d="M65.8367 43.1453H25.2463V43.9764H65.8367V43.1453Z" fill="#999999"/>
<path d="M20.7862 64H6.34904C5.89551 64 5.51758 63.6222 5.51758 63.1688V38.3849C5.51758 37.9315 5.89551 37.5537 6.34904 37.5537H20.7862C21.2397 37.5537 21.6177 37.9315 21.6177 38.3849V63.1688C21.6933 63.6222 21.3153 64 20.7862 64Z" fill="#382040"/>
<path d="M20.5596 38.8383H6.57593V60.8265H20.5596V38.8383Z" fill="#EAEAEA"/>
<path d="M20.5596 38.8383H6.57593V42.0874H20.5596V38.8383Z" fill="#1EB1FA"/>
<path d="M13.6056 63.0178C13.9812 63.0178 14.2856 62.7133 14.2856 62.3378C14.2856 61.9622 13.9812 61.6577 13.6056 61.6577C13.23 61.6577 12.9255 61.9622 12.9255 62.3378C12.9255 62.7133 13.23 63.0178 13.6056 63.0178Z" fill="#DEDEDE"/>
<path d="M14.8906 43.2208H8.31445V46.8477H14.8906V43.2208Z" fill="white"/>
<path d="M14.8906 43.2208H8.31445V43.5231H14.8906V43.2208Z" fill="#FF2B55"/>
<path d="M14.891 43.7498H8.31494V44.052H14.891V43.7498Z" fill="#FF2B55"/>
<path d="M14.891 44.3542H8.31494V44.6565H14.891V44.3542Z" fill="#FF2B55"/>
<path d="M14.891 44.8832H8.31494V45.1854H14.891V44.8832Z" fill="#FF2B55"/>
<path d="M14.891 45.4877H8.31494V45.7899H14.891V45.4877Z" fill="#FF2B55"/>
<path d="M14.891 46.0166H8.31494V46.3189H14.891V46.0166Z" fill="#FF2B55"/>
<path d="M14.891 46.6211H8.31494V46.9233H14.891V46.6211Z" fill="#FF2B55"/>
<path d="M10.9591 43.2208H8.31445V45.1854H10.9591V43.2208Z" fill="#0096EA"/>
<path d="M8.4657 43.2964L8.54126 43.3719H8.61682H8.54126V43.4475H8.4657H8.39014L8.4657 43.3719H8.39014H8.4657V43.2964Z" fill="white"/>
<path d="M8.76868 43.2964V43.3719H8.84424V43.4475H8.76868H8.69312L8.76868 43.3719H8.69312H8.76868V43.2964Z" fill="white"/>
<path d="M9.0708 43.2964V43.3719H9.14636H9.0708L9.14636 43.4475H9.0708H8.99524V43.3719H8.91968H9.0708V43.2964Z" fill="white"/>
<path d="M9.37256 43.2964V43.3719H9.44812H9.37256L9.44812 43.4475H9.37256H9.297V43.3719H9.22144H9.297L9.37256 43.2964Z" fill="white"/>
<path d="M9.67505 43.2964V43.3719H9.75061H9.67505V43.4475H9.59949V43.3719H9.52393H9.59949L9.67505 43.2964Z" fill="white"/>
<path d="M9.90222 43.2964L9.97778 43.3719H10.0533H9.97778V43.4475H9.90222V43.3719H9.82666H9.90222V43.2964Z" fill="white"/>
<path d="M10.204 43.2964L10.2795 43.3719H10.3551H10.2795V43.4475H10.204H10.1284L10.204 43.3719H10.1284H10.204V43.2964Z" fill="white"/>
<path d="M10.5065 43.2964L10.582 43.3719H10.6576H10.582V43.4475H10.5065H10.4309L10.5065 43.3719H10.4309H10.5065V43.2964Z" fill="white"/>
<path d="M10.8092 43.2964V43.3719H10.8848V43.4475H10.8092H10.7336V43.3719H10.8092V43.2964Z" fill="white"/>
<path d="M8.46619 43.9008L8.54175 43.9763H8.61731L8.54175 44.0519V44.1274L8.46619 44.0519L8.39062 44.1274L8.46619 44.0519L8.39062 43.9763H8.46619V43.9008Z" fill="white"/>
<path d="M8.76868 43.9008V43.9763H8.84424V44.0519V44.1274L8.76868 44.0519L8.69312 44.1274L8.76868 44.0519L8.69312 43.9763H8.76868V43.9008Z" fill="white"/>
<path d="M9.0708 43.9008V43.9763H9.14636L9.0708 44.0519L9.14636 44.1274L9.0708 44.0519L8.99524 44.1274V44.0519L8.91968 43.9763H9.0708V43.9008Z" fill="white"/>
<path d="M9.37256 43.9008V43.9763H9.44812L9.37256 44.0519L9.44812 44.1274L9.37256 44.0519L9.297 44.1274V44.0519L9.22144 43.9763H9.297L9.37256 43.9008Z" fill="white"/>
<path d="M9.67505 43.9008V43.9763H9.75061L9.67505 44.0519V44.1274V44.0519L9.59949 44.1274V44.0519L9.52393 43.9763H9.59949L9.67505 43.9008Z" fill="white"/>
<path d="M9.90222 43.9008L9.97778 43.9763H10.0533L9.97778 44.0519V44.1274L9.90222 44.0519V44.1274V44.0519L9.82666 43.9763H9.90222V43.9008Z" fill="white"/>
<path d="M10.204 43.9008L10.2795 43.9763H10.3551L10.2795 44.0519V44.1274L10.204 44.0519L10.1284 44.1274L10.204 44.0519L10.1284 43.9763H10.204V43.9008Z" fill="white"/>
<path d="M10.5065 43.9008L10.582 43.9763H10.6576L10.582 44.0519V44.1274L10.5065 44.0519L10.4309 44.1274L10.5065 44.0519L10.4309 43.9763H10.5065V43.9008Z" fill="white"/>
<path d="M10.8092 43.9008V43.9763H10.8848V44.0519V44.1274L10.8092 44.0519L10.7336 44.1274V44.0519V43.9763H10.8092V43.9008Z" fill="white"/>
<path d="M8.46619 44.5808L8.54175 44.6564H8.61731L8.54175 44.7319V44.8075L8.46619 44.7319L8.39062 44.8075L8.46619 44.7319L8.39062 44.6564H8.46619V44.5808Z" fill="white"/>
<path d="M8.76868 44.5808V44.6564H8.84424V44.7319V44.8075L8.76868 44.7319L8.69312 44.8075L8.76868 44.7319L8.69312 44.6564H8.76868V44.5808Z" fill="white"/>
<path d="M9.0708 44.5808V44.6564H9.14636L9.0708 44.7319L9.14636 44.8075L9.0708 44.7319L8.99524 44.8075V44.7319L8.91968 44.6564H9.0708V44.5808Z" fill="white"/>
<path d="M9.37256 44.5808V44.6564H9.44812L9.37256 44.7319L9.44812 44.8075L9.37256 44.7319L9.297 44.8075V44.7319L9.22144 44.6564H9.297L9.37256 44.5808Z" fill="white"/>
<path d="M9.67505 44.5808V44.6564H9.75061L9.67505 44.7319V44.8075V44.7319L9.59949 44.8075V44.7319L9.52393 44.6564H9.59949L9.67505 44.5808Z" fill="white"/>
<path d="M9.90222 44.5808L9.97778 44.6564H10.0533L9.97778 44.7319V44.8075L9.90222 44.7319V44.8075V44.7319L9.82666 44.6564H9.90222V44.5808Z" fill="white"/>
<path d="M10.204 44.5808L10.2795 44.6564H10.3551L10.2795 44.7319V44.8075L10.204 44.7319L10.1284 44.8075L10.204 44.7319L10.1284 44.6564H10.204V44.5808Z" fill="white"/>
<path d="M10.5065 44.5808L10.582 44.6564H10.6576L10.582 44.7319V44.8075L10.5065 44.7319L10.4309 44.8075L10.5065 44.7319L10.4309 44.6564H10.5065V44.5808Z" fill="white"/>
<path d="M10.8092 44.5808V44.6564H10.8848V44.7319V44.8075L10.8092 44.7319L10.7336 44.8075V44.7319V44.6564H10.8092V44.5808Z" fill="white"/>
<path d="M8.61755 43.5986V43.6742H8.76867L8.69311 43.7497V43.8253L8.61755 43.7497L8.54199 43.8253L8.61755 43.7497L8.54199 43.6742H8.61755V43.5986Z" fill="white"/>
<path d="M8.91931 43.5986V43.6742H8.99487V43.7497V43.8253L8.91931 43.7497L8.84375 43.8253V43.7497V43.6742H8.91931V43.5986Z" fill="white"/>
<path d="M9.22217 43.5986V43.6742H9.29773L9.22217 43.7497L9.29773 43.8253L9.22217 43.7497L9.14661 43.8253V43.7497L9.07104 43.6742H9.14661L9.22217 43.5986Z" fill="white"/>
<path d="M9.52392 43.5986V43.6742H9.59949L9.52392 43.7497L9.59949 43.8253L9.52392 43.7497L9.44836 43.8253V43.7497L9.3728 43.6742H9.44836L9.52392 43.5986Z" fill="white"/>
<path d="M9.82641 43.5986V43.6742H9.90197L9.82641 43.7497V43.8253V43.7497L9.75085 43.8253V43.7497L9.67529 43.6742H9.75085L9.82641 43.5986Z" fill="white"/>
<path d="M10.0526 43.5986L10.1282 43.6742H10.2037L10.1282 43.7497V43.8253L10.0526 43.7497V43.8253V43.7497L9.97705 43.6742H10.0526V43.5986Z" fill="white"/>
<path d="M10.3551 43.5986L10.4307 43.6742H10.5062L10.4307 43.7497V43.8253L10.3551 43.7497L10.2795 43.8253L10.3551 43.7497L10.2795 43.6742H10.3551V43.5986Z" fill="white"/>
<path d="M10.6588 43.5986V43.6742H10.8099L10.7344 43.7497V43.8253L10.6588 43.7497L10.5833 43.8253L10.6588 43.7497L10.5833 43.6742H10.6588V43.5986Z" fill="white"/>
<path d="M8.61755 44.203V44.3541H8.76867H8.69311V44.4297H8.61755H8.54199L8.61755 44.3541H8.54199H8.61755V44.203Z" fill="white"/>
<path d="M8.91931 44.203V44.3541H8.99487V44.4297H8.91931H8.84375V44.3541H8.91931V44.203Z" fill="white"/>
<path d="M9.22217 44.203V44.3541H9.29773H9.22217L9.29773 44.4297H9.22217H9.14661V44.3541H9.07104H9.14661L9.22217 44.203Z" fill="white"/>
<path d="M9.52392 44.203V44.3541H9.59949H9.52392L9.59949 44.4297H9.52392H9.44836V44.3541H9.3728H9.44836L9.52392 44.203Z" fill="white"/>
<path d="M9.82641 44.203V44.3541H9.90197H9.82641V44.4297H9.75085V44.3541H9.67529H9.75085L9.82641 44.203Z" fill="white"/>
<path d="M10.0526 44.203L10.1282 44.3541H10.2037H10.1282V44.4297H10.0526V44.3541H9.97705H10.0526V44.203Z" fill="white"/>
<path d="M10.3551 44.203L10.4307 44.3541H10.5062H10.4307V44.4297H10.3551H10.2795L10.3551 44.3541H10.2795H10.3551V44.203Z" fill="white"/>
<path d="M10.6588 44.203V44.3541H10.8099H10.7344V44.4297H10.6588H10.5833L10.6588 44.3541H10.5833H10.6588V44.203Z" fill="white"/>
<path d="M8.61755 44.8832V44.9587H8.76867L8.69311 45.0343V45.1099L8.61755 45.0343L8.54199 45.1099L8.61755 45.0343L8.54199 44.9587H8.61755V44.8832Z" fill="white"/>
<path d="M8.91931 44.8832V44.9587H8.99487V45.0343V45.1099L8.91931 45.0343L8.84375 45.1099V45.0343V44.9587H8.91931V44.8832Z" fill="white"/>
<path d="M9.22217 44.8832V44.9587H9.29773L9.22217 45.0343L9.29773 45.1099L9.22217 45.0343L9.14661 45.1099V45.0343L9.07104 44.9587H9.14661L9.22217 44.8832Z" fill="white"/>
<path d="M9.52392 44.8832V44.9587H9.59949L9.52392 45.0343L9.59949 45.1099L9.52392 45.0343L9.44836 45.1099V45.0343L9.3728 44.9587H9.44836L9.52392 44.8832Z" fill="white"/>
<path d="M9.82641 44.8832V44.9587H9.90197L9.82641 45.0343V45.1099V45.0343L9.75085 45.1099V45.0343L9.67529 44.9587H9.75085L9.82641 44.8832Z" fill="white"/>
<path d="M10.0526 44.8832L10.1282 44.9587H10.2037L10.1282 45.0343V45.1099L10.0526 45.0343V45.1099V45.0343L9.97705 44.9587H10.0526V44.8832Z" fill="white"/>
<path d="M10.3551 44.8832L10.4307 44.9587H10.5062L10.4307 45.0343V45.1099L10.3551 45.0343L10.2795 45.1099L10.3551 45.0343L10.2795 44.9587H10.3551V44.8832Z" fill="white"/>
<path d="M10.6588 44.8832V44.9587H10.8099L10.7344 45.0343V45.1099L10.6588 45.0343L10.5833 45.1099L10.6588 45.0343L10.5833 44.9587H10.6588V44.8832Z" fill="white"/>
<path d="M10.0527 49.0389H8.23926V52.7414H10.0527V49.0389Z" fill="#0096EA"/>
<path d="M11.8667 49.0389H10.0532V52.7414H11.8667V49.0389Z" fill="#FEFEFE"/>
<path d="M13.6057 49.0389H11.7922V52.7414H13.6057V49.0389Z" fill="#FF2B55"/>
<path d="M14.0595 54.3282H8.23926V58.0307H14.0595V54.3282Z" fill="#FF2B55"/>
<path d="M8.92004 55.0839L9.07116 55.3106H9.29784L9.14672 55.5372V55.7639L8.92004 55.6128L8.69336 55.7639L8.76892 55.5372L8.54224 55.3106H8.84448L8.92004 55.0839Z" fill="#FFCC33"/>
<path d="M9.67554 54.5549L9.7511 54.6305L9.90222 54.706L9.7511 54.7816L9.82666 54.8572H9.67554H9.59998V54.7816L9.52441 54.706L9.67554 54.6305V54.5549Z" fill="#FFCC33"/>
<path d="M9.67554 55.9906L9.7511 56.1417H9.90222L9.7511 56.2173L9.82666 56.3684L9.67554 56.2928L9.59998 56.3684V56.2173L9.52441 56.1417H9.67554V55.9906Z" fill="#FFCC33"/>
<path d="M9.9021 55.0839L9.97766 55.1594H10.0532L9.97766 55.235L10.0532 55.3861L9.9021 55.3106L9.82654 55.3861V55.235L9.75098 55.1594H9.9021V55.0839Z" fill="#FFCC33"/>
<path d="M9.9021 55.5372L9.97766 55.6128L10.0532 55.6884L9.97766 55.7639L10.0532 55.8395H9.9021H9.82654V55.7639L9.75098 55.6884L9.9021 55.6128V55.5372Z" fill="#FFCC33"/>
<path d="M17.7629 47.1499H8.31445V47.5277H17.7629V47.1499Z" fill="#887A8D"/>
<path d="M17.0831 47.6788H8.31494V48.0566H17.0831V47.6788Z" fill="#887A8D"/>
<path d="M14.7399 48.2078H8.31494V48.5856H14.7399V48.2078Z" fill="#887A8D"/>
<path d="M17.7629 53.1193H8.31445V53.4971H17.7629V53.1193Z" fill="#887A8D"/>
<path d="M17.0831 53.6482H8.31494V54.026H17.0831V53.6482Z" fill="#887A8D"/>
<path d="M17.7629 58.2574H8.31445V58.6353H17.7629V58.2574Z" fill="#887A8D"/>
<path d="M17.0831 58.7864H8.31494V59.1642H17.0831V58.7864Z" fill="#887A8D"/>
<path d="M14.7399 59.3153H8.31494V59.6931H14.7399V59.3153Z" fill="#887A8D"/>
<path d="M7.85998 39.8961V41.0295H8.46447V41.2562H7.6333V39.8961H7.85998Z" fill="white"/>
<path d="M9.67382 39.8961V40.1228H8.91821V40.425H9.59826V40.6517H8.91821V41.0295H9.67382V41.2562H8.61597V39.8961H9.67382Z" fill="white"/>
<path d="M10.8844 40.954H10.2043L10.0532 41.2562H9.75098L10.3555 39.8961H10.6577L11.2622 41.2562H10.9599L10.8844 40.954ZM10.7333 40.7273L10.5066 40.1228L10.2799 40.7273H10.7333Z" fill="white"/>
<path d="M12.2447 41.2562L12.0181 40.8784C12.0181 40.8784 12.0181 40.8784 11.9425 40.8784H11.6403V41.2562H11.4136V39.8961H12.0181C12.3959 39.8961 12.547 40.0472 12.547 40.3495C12.547 40.5761 12.4714 40.7273 12.2447 40.8028L12.547 41.2562H12.2447ZM11.7158 40.5762H12.0181C12.2447 40.5762 12.3203 40.5006 12.3203 40.3495C12.3203 40.1983 12.2447 40.1228 12.0181 40.1228H11.7158V40.5762Z" fill="white"/>
<path d="M13.0773 39.8961L13.7573 40.8028V39.8961H13.984V41.2562H13.7573L13.0773 40.3495V41.2562H12.8506V39.8961H13.0773Z" fill="white"/>
<path d="M14.6639 39.8961V41.2562H14.4373V39.8961H14.6639Z" fill="white"/>
<path d="M15.2687 39.8961L15.9487 40.8028V39.8961H16.1754V41.2562H15.9487L15.2687 40.3495V41.2562H15.042V39.8961H15.2687Z" fill="white"/>
<path d="M17.4607 40.5762H17.6874V41.1051C17.5362 41.1806 17.3096 41.2562 17.1584 41.2562C16.7806 41.2562 16.4028 40.954 16.4028 40.5762C16.4028 40.1984 16.7051 39.8961 17.1584 39.8961C17.3851 39.8961 17.5362 39.9717 17.6874 40.1228L17.5362 40.3495C17.4607 40.2739 17.3096 40.1984 17.1584 40.1984C16.8562 40.1984 16.7051 40.425 16.7051 40.6517C16.7051 40.8784 16.9318 41.1051 17.1584 41.1051C17.234 41.1051 17.3851 41.1051 17.4607 41.0295V40.5762Z" fill="white"/>
<path d="M18.2163 40.5006C18.2163 40.5762 18.1407 40.6517 18.0652 40.6517C17.9896 40.6517 17.9141 40.5762 17.9141 40.5006C17.9141 40.4251 17.9896 40.3495 18.0652 40.3495C18.1407 40.3495 18.2163 40.4251 18.2163 40.5006ZM18.2163 41.1051C18.2163 41.1807 18.1407 41.2562 18.0652 41.2562C17.9896 41.2562 17.9141 41.1807 17.9141 41.1051C17.9141 41.0295 17.9896 40.954 18.0652 40.954C18.1407 40.954 18.2163 41.0295 18.2163 41.1051Z" fill="white"/>
<path d="M18.6692 45.941H17.4602C17.2335 45.941 17.0068 45.7143 17.0068 45.4877V44.2787C17.0068 44.052 17.2335 43.8253 17.4602 43.8253H18.6692C18.8959 43.8253 19.1225 44.052 19.1225 44.2787V45.4877C19.1225 45.7143 18.9714 45.941 18.6692 45.941Z" fill="white"/>
<path d="M17.3096 44.8076L17.8385 45.5632L18.8963 44.5054L18.5941 44.2031L17.8385 45.1099L17.5363 44.6565L17.3096 44.8076Z" fill="#1ED2CF"/>
<path d="M18.6692 51.9104H17.4602C17.2335 51.9104 17.0068 51.6837 17.0068 51.457V50.3236C17.0068 50.0969 17.2335 49.8702 17.4602 49.8702H18.6692C18.8959 49.8702 19.1225 50.0969 19.1225 50.3236V51.5326C19.1225 51.7593 18.9714 51.9104 18.6692 51.9104Z" fill="white"/>
<path d="M17.3096 50.8525L17.8385 51.6082L18.8963 50.5503L18.5941 50.248L17.8385 51.1548L17.5363 50.7014L17.3096 50.8525Z" fill="#1ED2CF"/>
<path d="M18.6692 57.3507H17.4602C17.2335 57.3507 17.0068 57.124 17.0068 56.8973V55.6884C17.0068 55.4617 17.2335 55.235 17.4602 55.235H18.6692C18.8959 55.235 19.1225 55.4617 19.1225 55.6884V56.8973C19.1225 57.1996 18.9714 57.3507 18.6692 57.3507Z" fill="white"/>
<path d="M17.3096 56.2928L17.8385 57.0484L18.8963 55.915L18.5941 55.6128L17.8385 56.5951L17.5363 56.1417L17.3096 56.2928Z" fill="#1ED2CF"/>
<path d="M52.5336 40.0473H34.9217C31.9738 40.0473 29.6306 37.7049 29.6306 34.758V34.6824C29.6306 31.7356 31.9738 29.3932 34.9217 29.3932H52.5336C55.4815 29.3932 57.8247 31.7356 57.8247 34.6824V34.758C57.8247 37.7049 55.4059 40.0473 52.5336 40.0473Z" fill="#FF2B55"/>
<path d="M37.4915 33.9267L36.3577 34.0023C36.3577 33.7756 36.2065 33.6245 35.9041 33.6245C35.6018 33.6245 35.4506 33.7 35.4506 33.8512C35.4506 34.3801 37.5671 34.0023 37.6426 35.3624C37.6426 36.2691 36.9624 36.6469 36.0553 36.6469C34.9971 36.6469 34.2412 36.4202 34.2412 35.3624H35.375C35.375 35.7402 35.6018 35.8157 35.9797 35.8157C36.2065 35.8157 36.5088 35.8157 36.5088 35.5891C36.5088 35.0601 34.3168 35.5135 34.3168 34.0778C34.3168 33.2467 35.0727 32.8689 35.9797 32.8689C36.7356 32.7933 37.4159 33.1711 37.4915 33.9267Z" fill="white"/>
<path d="M41.4978 33.7756H40.2884V36.4958H39.079V33.7756H37.8696V32.8689H41.4978V33.7756Z" fill="white"/>
<path d="M45.353 36.5714H44.068L43.9168 36.0425H42.6318L42.4806 36.5714H41.2712L42.6318 32.8689H43.9924L45.353 36.5714ZM43.3121 33.9267L42.9342 35.2113H43.7656L43.3121 33.9267Z" fill="white"/>
<path d="M48.6033 34.9846L49.4347 36.4958H48.0742L47.3939 35.1357H46.9404V36.4958H45.731V32.7933H47.9986C48.83 32.7933 49.208 33.3223 49.208 33.9267C49.3591 34.4557 49.0568 34.8335 48.6033 34.9846ZM47.7718 33.7001H47.0159V34.3801H47.7718C47.923 34.3801 48.0742 34.229 48.0742 34.0023C48.0742 33.7756 47.9986 33.7001 47.7718 33.7001Z" fill="white"/>
<path d="M53.2901 33.7756H52.0807V36.4958H50.8713V33.7756H49.6619V32.8689H53.2901V33.7756Z" fill="white"/>
<path d="M58.051 36.7982L53.4402 35.287L52.6843 39.8206L54.7252 38.6872L55.9346 42.163L58.5046 40.7274L55.859 38.0072L58.051 36.7982Z" fill="white"/>
</svg>
