<svg width="60" height="64" viewBox="0 0 60 64" fill="none" xmlns="http://www.w3.org/2000/svg">
<path d="M34.3328 4.01233H5.15967V20.1932H34.3328V4.01233Z" fill="#E6E6E6"/>
<path d="M34.3328 4.01233H5.15967V5.19629H34.3328V4.01233Z" fill="#FF2B55"/>
<path d="M34.3324 6.51208H5.1593V7.69606H34.3324V6.51208Z" fill="#FF2B55"/>
<path d="M34.3324 9.0116H5.1593V10.1956H34.3324V9.0116Z" fill="#FF2B55"/>
<path d="M34.3324 11.5109H5.1593V12.6948H34.3324V11.5109Z" fill="#FF2B55"/>
<path d="M34.3324 13.9447H5.1593V15.1287H34.3324V13.9447Z" fill="#FF2B55"/>
<path d="M34.3324 16.4441H5.1593V17.6281H34.3324V16.4441Z" fill="#FF2B55"/>
<path d="M34.3324 18.9437H5.1593V20.1277H34.3324V18.9437Z" fill="#FF2B55"/>
<path d="M16.9348 4.01233H5.15967V12.6948H16.9348V4.01233Z" fill="#0096EA"/>
<path d="M5.88762 4.27551L5.95378 4.67017H6.35069L6.01993 4.86749L6.15223 5.26215L5.88762 4.99905L5.55686 5.26215L5.68917 4.86749L5.42456 4.67017H5.75532L5.88762 4.27551Z" fill="white"/>
<path d="M7.14434 4.27551L7.27665 4.67017H7.60741L7.3428 4.86749L7.4751 5.26215L7.14434 4.99905L6.87973 5.26215L6.94589 4.86749L6.68127 4.67017H7.07819L7.14434 4.27551Z" fill="white"/>
<path d="M8.46734 4.27551L8.53349 4.67017H8.93041L8.59965 4.86749L8.73194 5.26215L8.46734 4.99905L8.13657 5.26215L8.26889 4.86749L8.00427 4.67017H8.33503L8.46734 4.27551Z" fill="white"/>
<path d="M9.72453 4.27551L9.85684 4.67017H10.1876L9.923 4.86749L10.0553 5.26215L9.72453 4.99905L9.45992 5.26215L9.59224 4.86749L9.26147 4.67017H9.65839L9.72453 4.27551Z" fill="white"/>
<path d="M11.0474 4.27551L11.1797 4.67017H11.5105L11.2459 4.86749L11.312 5.26215L11.0474 4.99905L10.7166 5.26215L10.849 4.86749L10.5844 4.67017H10.9151L11.0474 4.27551Z" fill="white"/>
<path d="M12.3046 4.27551L12.4369 4.67017H12.8338L12.5031 4.86749L12.6354 5.26215L12.3046 4.99905L12.04 5.26215L12.1723 4.86749L11.8416 4.67017H12.2385L12.3046 4.27551Z" fill="white"/>
<path d="M13.6275 4.27551L13.7598 4.67017H14.0906L13.826 4.86749L13.8921 5.26215L13.6275 4.99905L13.3629 5.26215L13.429 4.86749L13.1644 4.67017H13.4952L13.6275 4.27551Z" fill="white"/>
<path d="M14.8837 4.27551L15.016 4.67017H15.4129L15.0822 4.86749L15.2145 5.26215L14.8837 4.99905L14.6191 5.26215L14.7514 4.86749L14.4207 4.67017H14.8176L14.8837 4.27551Z" fill="white"/>
<path d="M16.2067 4.27551L16.339 4.67017H16.6698L16.4052 4.86749L16.4713 5.26215L16.2067 4.99905L15.9421 5.26215L16.0083 4.86749L15.7437 4.67017H16.0744L16.2067 4.27551Z" fill="white"/>
<path d="M5.88787 7.16968L5.95402 7.49856H6.35093L6.02017 7.76168L6.15247 8.09056L5.88787 7.89322L5.55711 8.09056L5.68941 7.76168L5.4248 7.49856H5.75557L5.88787 7.16968Z" fill="white"/>
<path d="M7.14434 7.16968L7.27665 7.49856H7.60741L7.3428 7.76168L7.4751 8.09056L7.14434 7.89322L6.87973 8.09056L6.94589 7.76168L6.68127 7.49856H7.07819L7.14434 7.16968Z" fill="white"/>
<path d="M8.46734 7.16968L8.53349 7.49856H8.93041L8.59965 7.76168L8.73194 8.09056L8.46734 7.89322L8.13657 8.09056L8.26889 7.76168L8.00427 7.49856H8.33503L8.46734 7.16968Z" fill="white"/>
<path d="M9.72453 7.16968L9.85684 7.49856H10.1876L9.923 7.76168L10.0553 8.09056L9.72453 7.89322L9.45992 8.09056L9.59224 7.76168L9.26147 7.49856H9.65839L9.72453 7.16968Z" fill="white"/>
<path d="M11.0474 7.16968L11.1797 7.49856H11.5105L11.2459 7.76168L11.312 8.09056L11.0474 7.89322L10.7166 8.09056L10.849 7.76168L10.5844 7.49856H10.9151L11.0474 7.16968Z" fill="white"/>
<path d="M12.3046 7.16968L12.4369 7.49856H12.8338L12.5031 7.76168L12.6354 8.09056L12.3046 7.89322L12.04 8.09056L12.1723 7.76168L11.8416 7.49856H12.2385L12.3046 7.16968Z" fill="white"/>
<path d="M13.6275 7.16968L13.7598 7.49856H14.0906L13.826 7.76168L13.8921 8.09056L13.6275 7.89322L13.3629 8.09056L13.429 7.76168L13.1644 7.49856H13.4952L13.6275 7.16968Z" fill="white"/>
<path d="M14.8837 7.16968L15.016 7.49856H15.4129L15.0822 7.76168L15.2145 8.09056L14.8837 7.89322L14.6191 8.09056L14.7514 7.76168L14.4207 7.49856H14.8176L14.8837 7.16968Z" fill="white"/>
<path d="M16.2067 7.16968L16.339 7.49856H16.6698L16.4052 7.76168L16.4713 8.09056L16.2067 7.89322L15.9421 8.09056L16.0083 7.76168L15.7437 7.49856H16.0744L16.2067 7.16968Z" fill="white"/>
<path d="M5.88787 10.0638L5.95402 10.3927H6.35093L6.02017 10.59L6.15247 10.9847L5.88787 10.7874L5.55711 10.9847L5.68941 10.59L5.4248 10.3927H5.75557L5.88787 10.0638Z" fill="white"/>
<path d="M7.14434 10.0638L7.27665 10.3927H7.60741L7.3428 10.59L7.4751 10.9847L7.14434 10.7874L6.87973 10.9847L6.94589 10.59L6.68127 10.3927H7.07819L7.14434 10.0638Z" fill="white"/>
<path d="M8.46734 10.0638L8.53349 10.3927H8.93041L8.59965 10.59L8.73194 10.9847L8.46734 10.7874L8.13657 10.9847L8.26889 10.59L8.00427 10.3927H8.33503L8.46734 10.0638Z" fill="white"/>
<path d="M9.72453 10.0638L9.85684 10.3927H10.1876L9.923 10.59L10.0553 10.9847L9.72453 10.7874L9.45992 10.9847L9.59224 10.59L9.26147 10.3927H9.65839L9.72453 10.0638Z" fill="white"/>
<path d="M11.0474 10.0638L11.1797 10.3927H11.5105L11.2459 10.59L11.312 10.9847L11.0474 10.7874L10.7166 10.9847L10.849 10.59L10.5844 10.3927H10.9151L11.0474 10.0638Z" fill="white"/>
<path d="M12.3046 10.0638L12.4369 10.3927H12.8338L12.5031 10.59L12.6354 10.9847L12.3046 10.7874L12.04 10.9847L12.1723 10.59L11.8416 10.3927H12.2385L12.3046 10.0638Z" fill="white"/>
<path d="M13.6275 10.0638L13.7598 10.3927H14.0906L13.826 10.59L13.8921 10.9847L13.6275 10.7874L13.3629 10.9847L13.429 10.59L13.1644 10.3927H13.4952L13.6275 10.0638Z" fill="white"/>
<path d="M14.8837 10.0638L15.016 10.3927H15.4129L15.0822 10.59L15.2145 10.9847L14.8837 10.7874L14.6191 10.9847L14.7514 10.59L14.4207 10.3927H14.8176L14.8837 10.0638Z" fill="white"/>
<path d="M16.2067 10.0638L16.339 10.3927H16.6698L16.4052 10.59L16.4713 10.9847L16.2067 10.7874L15.9421 10.9847L16.0083 10.59L15.7437 10.3927H16.0744L16.2067 10.0638Z" fill="white"/>
<path d="M6.48333 5.72253L6.61564 6.11719H7.01255L6.68179 6.31451L6.81409 6.64339L6.48333 6.44607L6.21872 6.64339L6.35102 6.31451L6.02026 6.11719H6.41718L6.48333 5.72253Z" fill="white"/>
<path d="M7.80632 5.72253L7.93864 6.11719H8.2694L8.00478 6.31451L8.07094 6.64339L7.80632 6.44607L7.54172 6.64339L7.60788 6.31451L7.34326 6.11719H7.67402L7.80632 5.72253Z" fill="white"/>
<path d="M9.1287 5.72253L9.19485 6.11719H9.59177L9.26101 6.31451L9.3933 6.64339L9.1287 6.44607L8.79794 6.64339L8.93025 6.31451L8.59949 6.11719H8.9964L9.1287 5.72253Z" fill="white"/>
<path d="M10.3854 5.72253L10.5177 6.11719H10.8485L10.5839 6.31451L10.65 6.64339L10.3854 6.44607L10.1208 6.64339L10.187 6.31451L9.92236 6.11719H10.2531L10.3854 5.72253Z" fill="white"/>
<path d="M11.7088 5.72253L11.7749 6.11719H12.1718L11.8411 6.31451L11.9734 6.64339L11.7088 6.44607L11.378 6.64339L11.5103 6.31451L11.1796 6.11719H11.5765L11.7088 5.72253Z" fill="white"/>
<path d="M12.9656 5.72253L13.0979 6.11719H13.4287L13.1641 6.31451L13.2964 6.64339L12.9656 6.44607L12.701 6.64339L12.7672 6.31451L12.5026 6.11719H12.8333L12.9656 5.72253Z" fill="white"/>
<path d="M14.2895 5.72253L14.3556 6.11719H14.7525L14.4218 6.31451L14.5541 6.64339L14.2895 6.44607L13.9587 6.64339L14.091 6.31451L13.8264 6.11719H14.1572L14.2895 5.72253Z" fill="white"/>
<path d="M15.5457 5.72253L15.678 6.11719H16.0088L15.7442 6.31451L15.8765 6.64339L15.5457 6.44607L15.2811 6.64339L15.4134 6.31451L15.0826 6.11719H15.4796L15.5457 5.72253Z" fill="white"/>
<path d="M6.48333 8.61694L6.61564 8.94582H7.01255L6.68179 9.20892L6.81409 9.5378L6.48333 9.34048L6.21872 9.5378L6.35102 9.20892L6.02026 8.94582H6.41718L6.48333 8.61694Z" fill="white"/>
<path d="M7.80632 8.61694L7.93864 8.94582H8.2694L8.00478 9.20892L8.07094 9.5378L7.80632 9.34048L7.54172 9.5378L7.60788 9.20892L7.34326 8.94582H7.67402L7.80632 8.61694Z" fill="white"/>
<path d="M9.1287 8.61694L9.19485 8.94582H9.59177L9.26101 9.20892L9.3933 9.5378L9.1287 9.34048L8.79794 9.5378L8.93025 9.20892L8.59949 8.94582H8.9964L9.1287 8.61694Z" fill="white"/>
<path d="M10.3854 8.61694L10.5177 8.94582H10.8485L10.5839 9.20892L10.65 9.5378L10.3854 9.34048L10.1208 9.5378L10.187 9.20892L9.92236 8.94582H10.2531L10.3854 8.61694Z" fill="white"/>
<path d="M11.7088 8.61694L11.7749 8.94582H12.1718L11.8411 9.20892L11.9734 9.5378L11.7088 9.34048L11.378 9.5378L11.5103 9.20892L11.1796 8.94582H11.5765L11.7088 8.61694Z" fill="white"/>
<path d="M12.9656 8.61694L13.0979 8.94582H13.4287L13.1641 9.20892L13.2964 9.5378L12.9656 9.34048L12.701 9.5378L12.7672 9.20892L12.5026 8.94582H12.8333L12.9656 8.61694Z" fill="white"/>
<path d="M14.2895 8.61694L14.3556 8.94582H14.7525L14.4218 9.20892L14.5541 9.5378L14.2895 9.34048L13.9587 9.5378L14.091 9.20892L13.8264 8.94582H14.1572L14.2895 8.61694Z" fill="white"/>
<path d="M15.5457 8.61694L15.678 8.94582H16.0088L15.7442 9.20892L15.8765 9.5378L15.5457 9.34048L15.2811 9.5378L15.4134 9.20892L15.0826 8.94582H15.4796L15.5457 8.61694Z" fill="white"/>
<path d="M6.48333 11.4451L6.61564 11.8397H7.01255L6.68179 12.0371L6.81409 12.4317L6.48333 12.1686L6.21872 12.4317L6.35102 12.0371L6.02026 11.8397H6.41718L6.48333 11.4451Z" fill="white"/>
<path d="M7.80632 11.4451L7.93864 11.8397H8.2694L8.00478 12.0371L8.07094 12.4317L7.80632 12.1686L7.54172 12.4317L7.60788 12.0371L7.34326 11.8397H7.67402L7.80632 11.4451Z" fill="white"/>
<path d="M9.1287 11.4451L9.19485 11.8397H9.59177L9.26101 12.0371L9.3933 12.4317L9.1287 12.1686L8.79794 12.4317L8.93025 12.0371L8.59949 11.8397H8.9964L9.1287 11.4451Z" fill="white"/>
<path d="M10.3854 11.4451L10.5177 11.8397H10.8485L10.5839 12.0371L10.65 12.4317L10.3854 12.1686L10.1208 12.4317L10.187 12.0371L9.92236 11.8397H10.2531L10.3854 11.4451Z" fill="white"/>
<path d="M11.7088 11.4451L11.7749 11.8397H12.1718L11.8411 12.0371L11.9734 12.4317L11.7088 12.1686L11.378 12.4317L11.5103 12.0371L11.1796 11.8397H11.5765L11.7088 11.4451Z" fill="white"/>
<path d="M12.9656 11.4451L13.0979 11.8397H13.4287L13.1641 12.0371L13.2964 12.4317L12.9656 12.1686L12.701 12.4317L12.7672 12.0371L12.5026 11.8397H12.8333L12.9656 11.4451Z" fill="white"/>
<path d="M14.2895 11.4451L14.3556 11.8397H14.7525L14.4218 12.0371L14.5541 12.4317L14.2895 12.1686L13.9587 12.4317L14.091 12.0371L13.8264 11.8397H14.1572L14.2895 11.4451Z" fill="white"/>
<path d="M15.5457 11.4451L15.678 11.8397H16.0088L15.7442 12.0371L15.8765 12.4317L15.5457 12.1686L15.2811 12.4317L15.4134 12.0371L15.0826 11.8397H15.4796L15.5457 11.4451Z" fill="white"/>
<path d="M2.38166 1.18396H2.0509V3.88076H2.38166V1.18396Z" fill="#DEDEDE"/>
<path d="M2.84417 3.35474H1.58728V62.2242H2.84417V3.35474Z" fill="#DEDEDE"/>
<path d="M2.97645 0.789319C2.97645 1.18397 2.64568 1.57862 2.18262 1.57862C1.7857 1.57862 1.38879 1.24975 1.38879 0.789319C1.38879 0.394664 1.71955 0 2.18262 0C2.64568 0 2.97645 0.394664 2.97645 0.789319Z" fill="#DEDEDE"/>
<path d="M2.18227 1.90747C2.18227 1.90747 1.18999 2.17059 1.52075 2.82835C1.52075 2.82835 1.65305 3.02567 2.18227 3.02567C2.77764 3.02567 2.84379 2.82835 2.84379 2.82835C3.24071 2.17059 2.18227 1.90747 2.18227 1.90747Z" fill="#DEDEDE"/>
<path d="M4.89562 4.53845H2.38184V5.52509H4.89562V4.53845Z" fill="#DEDEDE"/>
<path d="M4.89562 17.7595H2.38184V18.7462H4.89562V17.7595Z" fill="#DEDEDE"/>
<path d="M5.15955 4.01233H4.36572V20.1932H5.15955V4.01233Z" fill="#DEDEDE"/>
<path d="M40.0876 8.09033H39.823V10.3267H40.0876V8.09033Z" fill="#DEDEDE"/>
<path d="M40.4189 9.86633H39.4266V27.1654H40.4189V9.86633Z" fill="#DEDEDE"/>
<path d="M39.9563 8.4194C40.3217 8.4194 40.6178 8.12491 40.6178 7.76164C40.6178 7.39837 40.3217 7.10388 39.9563 7.10388C39.591 7.10388 39.2948 7.39837 39.2948 7.76164C39.2948 8.12491 39.591 8.4194 39.9563 8.4194Z" fill="#DEDEDE"/>
<path d="M39.9558 8.68225C39.9558 8.68225 39.0958 8.94534 39.4266 9.47155C39.4266 9.47155 39.4927 9.66889 39.9558 9.66889C40.4188 9.66889 40.485 9.47155 40.485 9.47155C40.8157 8.87957 39.9558 8.68225 39.9558 8.68225Z" fill="#DEDEDE"/>
<path d="M42.2061 10.853H40.0892V11.7081H42.2061V10.853Z" fill="#DEDEDE"/>
<path d="M42.2061 21.8374H40.0892V22.6925H42.2061V21.8374Z" fill="#DEDEDE"/>
<path d="M47.762 10.3925H41.7422V23.8107H47.762V10.3925Z" fill="#0096EA"/>
<path d="M53.7159 10.3925H47.696V23.8107H53.7159V10.3925Z" fill="#FEFEFE"/>
<path d="M59.7355 10.3925H53.7157V23.8107H59.7355V10.3925Z" fill="#FF2B55"/>
<path d="M42.4037 10.3925H41.7422V23.8107H42.4037V10.3925Z" fill="#DEDEDE"/>
<path d="M51.5986 59.7246H8.40125V61.7636H51.5986V59.7246Z" fill="#5E5E5E"/>
<path d="M54.1123 60.3165H5.82122C4.69663 60.3165 3.77051 59.5272 3.77051 58.4748V27.9548C3.77051 26.9681 4.69663 26.113 5.82122 26.113H54.1123C55.2369 26.113 56.163 26.9023 56.163 27.9548V58.4748C56.2292 59.4614 55.303 60.3165 54.1123 60.3165Z" fill="#ABABAB"/>
<path d="M56.8247 63.9998H3.1753C1.38919 63.9998 0 62.5528 0 60.711V60.6453H60V60.711C60 62.5528 58.5447 63.9998 56.8247 63.9998Z" fill="#382040"/>
<path d="M52.8553 29.1389H7.14417V57.291H52.8553V29.1389Z" fill="#1ED2CF"/>
<path d="M35.2591 33.2825C34.0022 33.8087 32.4145 32.8878 31.8192 31.6381C31.2238 30.3883 31.3561 28.9412 31.6868 27.5599C32.0176 26.2444 32.5468 24.9289 32.7453 23.5476C33.0099 21.3112 32.1499 18.8775 30.4961 17.2989C28.8423 15.7203 26.4608 14.8652 24.2117 15.1941C23.6824 15.2598 23.0209 15.4572 22.8225 15.9834C22.624 15.4572 22.0286 15.2598 21.4333 15.1941C19.1841 14.931 16.7365 15.7203 15.1488 17.2989C13.495 18.8775 12.7012 21.2455 12.8996 23.5476C13.0319 24.9289 13.5612 26.2444 13.9581 27.5599C14.2888 28.8755 14.4211 30.3883 13.8258 31.6381C13.2304 32.8878 11.7089 33.7429 10.3858 33.2825C9.98893 34.9926 10.8489 36.7686 12.172 37.9525C13.495 39.1365 15.1488 39.7943 16.8688 40.3205C18.3903 40.8467 20.3748 41.2413 21.3671 39.9258C21.764 39.3996 21.8963 38.7418 21.9625 38.0841C22.2271 36.1766 22.4917 34.2691 22.8225 32.3616C23.0871 34.2691 23.3517 36.1766 23.6824 38.0841C23.7486 38.7418 23.8809 39.3996 24.2778 39.9258C25.2701 41.1756 27.2547 40.8467 28.7762 40.3205C30.43 39.7285 32.1499 39.0707 33.473 37.9525C34.796 36.8344 35.656 34.9926 35.2591 33.2825Z" fill="#382040"/>
<path d="M26.5931 35.5847C26.5931 35.5847 26.5269 35.5847 26.4608 35.5847C25.7992 35.5189 25.27 34.9927 25.27 34.335V31.1119H20.5071V34.335C20.5071 34.9927 19.9778 35.5189 19.3163 35.5847C19.184 35.5847 19.184 35.5847 19.184 35.5847L17.2656 42.2281H28.7761L26.5931 35.5847Z" fill="#FBA489"/>
<path d="M20.5071 33.9402C21.2347 34.2691 22.0286 34.5322 22.8886 34.4664C23.7485 34.4664 24.5423 34.2033 25.27 33.8745L25.2039 30.1252L20.4409 30.191L20.5071 33.9402Z" fill="#F1856A"/>
<path d="M19.1181 26.3759C19.1181 27.4941 18.3243 28.415 17.332 28.415C16.3397 28.415 15.5459 26.5733 15.5459 25.4551C15.5459 24.3369 16.3397 24.1395 17.332 24.3369C18.3243 24.4684 19.1181 25.192 19.1181 26.3759Z" fill="#FBA489"/>
<path d="M26.6594 26.3759C26.6594 27.4941 27.4533 28.415 28.4455 28.415C29.4378 28.415 30.2316 26.5733 30.2316 25.4551C30.2316 24.3369 29.4378 24.1395 28.4455 24.3369C27.4533 24.4684 26.6594 25.192 26.6594 26.3759Z" fill="#FBA489"/>
<path d="M28.5114 20.6535C27.8498 18.5487 22.8884 18.4829 22.8884 18.4829C22.8884 18.4829 17.9932 18.5487 17.2655 20.6535C16.604 22.7583 16.6701 27.0996 17.6624 29.2044C18.6547 31.3092 20.5731 33.0852 22.8884 33.0852C25.2038 33.0852 27.056 31.3092 28.1144 29.2044C29.1067 27.1653 29.1729 22.7583 28.5114 20.6535Z" fill="#FBA489"/>
<path d="M18.6557 24.1395C18.5895 24.1395 18.5895 24.1395 18.5234 24.0738C18.4572 24.008 18.4572 23.8764 18.5234 23.8107C18.5234 23.8107 19.4495 22.7582 20.9049 23.3502C20.971 23.416 21.0371 23.4818 20.971 23.6133C20.9048 23.6791 20.8387 23.7449 20.7064 23.6791C19.5156 23.1529 18.788 24.008 18.788 24.008C18.7218 24.1395 18.7218 24.1395 18.6557 24.1395Z" fill="#382040"/>
<path d="M27.1218 24.1395C27.1879 24.1395 27.1879 24.1395 27.2541 24.0738C27.3202 24.008 27.3202 23.8764 27.2541 23.8107C27.2541 23.8107 26.328 22.7582 24.8726 23.3502C24.8065 23.416 24.7403 23.4818 24.8065 23.6133C24.8726 23.6791 24.9388 23.7449 25.0711 23.6791C26.2618 23.1529 26.9895 24.008 26.9895 24.008C27.0556 24.1395 27.0556 24.1395 27.1218 24.1395Z" fill="#382040"/>
<path d="M20.3743 25.3893C20.3743 25.8497 20.0436 26.2443 19.7128 26.2443C19.3159 26.2443 19.0513 25.8497 19.0513 25.3893C19.0513 24.9288 19.382 24.5342 19.7128 24.5342C20.1097 24.5342 20.3743 24.8631 20.3743 25.3893Z" fill="#391829"/>
<path d="M26.7907 25.3893C26.7907 25.8497 26.4599 26.2443 26.1292 26.2443C25.7323 26.2443 25.4677 25.8497 25.4677 25.3893C25.4677 24.9288 25.7984 24.5342 26.1292 24.5342C26.4599 24.5342 26.7907 24.8631 26.7907 25.3893Z" fill="#391829"/>
<path d="M20.772 29.2043C20.9704 29.7306 21.632 30.9145 22.8888 30.9145C24.1457 30.9145 24.8073 29.7306 25.0057 29.2043H20.772Z" fill="white"/>
<path d="M22.889 28.0863C22.4921 28.0863 22.2275 27.9548 22.0952 27.6917C22.0952 27.7574 22.0291 27.8232 22.0291 27.8232C22.0291 28.1521 22.426 28.3494 22.889 28.3494C23.3521 28.3494 23.749 28.0863 23.749 27.8232C23.749 27.7574 23.749 27.6917 23.6829 27.6917C23.5506 27.889 23.286 28.0863 22.889 28.0863Z" fill="#E4776D"/>
<path d="M19.9122 27.6256C19.9122 28.1518 19.5153 28.5465 18.9199 28.5465C18.3907 28.5465 17.9276 28.1518 17.9276 27.6256C17.9276 27.0994 18.3245 26.7048 18.9199 26.7048C19.4491 26.639 19.9122 27.0994 19.9122 27.6256Z" fill="#F8918B"/>
<path d="M27.7841 27.6256C27.7841 28.1518 27.3872 28.5465 26.7918 28.5465C26.2626 28.5465 25.7996 28.1518 25.7996 27.6256C25.7996 27.0994 26.1965 26.7048 26.7918 26.7048C27.3211 26.639 27.7841 27.0994 27.7841 27.6256Z" fill="#F8918B"/>
<path d="M29.0408 22.1662C29.0408 21.7058 29.0408 21.2453 28.9746 20.7849C28.8423 20.1929 28.5777 19.5352 28.1146 19.1405C27.7839 18.8774 27.4531 18.6143 27.0562 18.417C26.527 18.1539 25.9316 17.825 25.3362 17.6934C24.1455 17.3645 22.9548 17.4303 21.6979 17.5619C20.8379 17.6934 19.9118 17.825 19.1179 18.1539C18.3241 18.4827 17.5303 19.009 17.1334 19.7983C16.538 20.7849 16.4718 22.1662 16.538 23.3502C16.538 24.271 16.538 25.3235 16.7364 26.1785C16.9349 26.1128 17.0672 26.047 17.2657 25.9154C17.3318 25.9154 17.398 25.8497 17.398 25.7839C17.398 25.7181 17.398 25.7181 17.398 25.6523C17.398 25.1919 17.398 24.7315 17.4641 24.2053C17.5303 23.8764 17.5964 23.4817 17.7287 23.1528C17.861 22.8897 18.0595 22.6266 18.258 22.3635C18.6549 22.1662 19.0518 22.1662 19.4487 22.232C19.9779 22.2978 20.5071 22.4293 20.9702 22.4293C21.5656 22.3635 22.1609 22.0347 22.624 21.5742L22.6901 21.5084L22.7563 21.5742C23.2855 22.0347 23.8147 22.3635 24.4101 22.4293C24.9393 22.4951 25.4685 22.2978 25.9316 22.232C26.3947 22.1662 26.8577 22.1662 27.2546 22.4293C27.4531 22.6924 27.6516 22.8897 27.7839 23.1528C27.9162 23.4817 27.9823 23.8106 28.0485 24.2053C28.1146 24.6657 28.1146 25.1261 28.1146 25.6523C28.1146 25.7181 28.1146 25.7839 28.1146 25.7839C28.1146 25.8497 28.1808 25.8496 28.2469 25.9154C28.4454 25.9812 28.5777 26.047 28.7761 26.1785V26.1128C28.9746 25.3234 28.9746 24.4684 28.9746 23.679C28.9746 23.2844 28.9085 22.8897 28.8423 22.4951C29.0408 22.2978 29.0408 22.232 29.0408 22.1662Z" fill="#382040"/>
<path d="M44.1903 43.0173C44.1903 43.0173 45.1164 40.8467 47.0349 41.5045C49.0194 42.228 50.2102 42.7542 52.1286 42.6885C52.7901 42.6885 54.5762 42.1623 54.7747 42.5569C55.0393 42.9516 53.7162 44.2013 52.5916 44.4644C51.6655 44.6617 50.2102 44.7275 47.961 44.5302C45.9764 44.3329 45.3149 45.5826 45.3149 45.5826L44.1903 43.0173Z" fill="#FBA489"/>
<path d="M44.1239 41.7019C41.8748 43.741 35.6565 47.9506 35.3257 47.7533C35.1272 47.6218 34.3334 37.8212 31.9519 36.9003C29.5705 35.9794 28.9751 40.518 28.8428 42.6228C28.7105 45.5169 31.0258 55.778 34.4657 54.3309C36.318 53.5416 46.5716 45.7143 47.0346 45.2538C46.77 44.9907 44.9178 42.557 44.1239 41.7019Z" fill="#FF2B55"/>
<path d="M31.9517 36.9001C30.6287 36.5712 27.5857 35.7162 26.5934 35.6504C26.2626 36.3739 24.7411 36.9659 22.8889 36.9659C21.0366 36.9659 19.5151 36.3739 19.1844 35.6504C18.1921 35.7162 15.2814 36.5712 13.8922 36.9001C13.8922 36.9001 12.3045 38.9392 12.9661 40.9782C14.1568 44.5959 15.8106 50.0553 15.9429 52.4233C16.0752 54.3308 16.0091 56.0409 15.8768 57.3564H29.8349C29.7687 56.1067 29.7026 54.3965 29.7687 52.4233C29.901 50.0553 31.5548 44.5959 32.7456 40.9782C33.4732 38.8734 31.9517 36.9001 31.9517 36.9001Z" fill="#FF2B55"/>
<path d="M29.8348 52.4233C29.901 50.9105 30.6286 48.1479 31.4225 45.4511C30.6286 46.1088 29.7025 46.635 28.6441 46.9639C26.1303 47.6875 23.8811 46.3719 21.4996 46.7666C17.6628 47.4244 16.6705 42.5569 16.2736 42.0965C15.4136 40.9125 14.686 40.1232 13.2306 39.6628C13.0983 39.597 12.966 39.597 12.8337 39.5312C12.7675 39.9917 12.8337 40.4521 12.966 40.9783C14.1567 44.596 15.8105 50.0554 15.9428 52.4233C16.0752 54.3308 16.009 56.041 15.8767 57.3565H29.8348C29.7687 56.041 29.7025 54.3308 29.8348 52.4233Z" fill="#DD1644"/>
<path d="M46.4393 43.6093C46.4393 43.6093 47.0346 42.4253 48.5561 43.083C50.0776 43.7408 51.7976 43.2146 51.2022 42.3595C51.0699 42.1622 49.8792 41.9648 48.8207 41.8333C47.7623 41.7017 47.2331 40.5178 45.8439 41.3729C45.447 41.636 45.5793 43.2146 46.4393 43.6093Z" fill="#FBA489"/>
<path d="M43.661 38.1498H41.5441L41.2795 39.0706H39.3611L41.7426 32.493H43.661L45.9763 39.0706H43.9917L43.661 38.1498ZM43.1979 36.5712L42.6025 34.6637L42.0072 36.5712H43.1979Z" fill="white"/>
<path d="M48.5565 35.5188V36.8343H46.2412V35.5188H48.5565Z" fill="#382040"/>
<path d="M54.2464 32.493V33.8743L51.6003 37.4262H54.3126V39.0706H49.0865V37.6894L51.7326 34.1374H49.1527V32.493H54.2464Z" fill="#FFCC33"/>
<path d="M27.1221 46.1087C27.1221 46.1087 28.7097 44.7274 29.5697 44.4643C30.4297 44.2012 31.2897 44.2012 32.1496 44.267C32.6789 44.267 33.4065 44.3328 33.8034 44.5301C34.3327 44.7932 34.2003 45.2536 33.6711 45.3194C33.0758 45.3852 31.8189 45.451 31.4881 45.451C30.9589 45.451 30.8266 45.5825 31.8189 45.7799C33.0758 46.043 32.8112 47.3585 31.4881 48.082C30.9589 48.4109 30.3635 48.4767 29.702 48.6082C27.3867 49.0029 26.7252 49.0029 26.3944 49.0686C26.0636 49.1344 25.5344 47.1612 25.5344 47.1612L27.1221 46.1087Z" fill="#FBA489"/>
<path d="M13.8915 36.9003C13.8915 36.9003 12.0393 38.6762 10.7824 42.2281C9.98856 44.333 8.66553 49.3977 8.66553 50.9763C8.66553 52.3576 8.86398 53.6731 9.98857 54.4625C12.5685 56.3042 23.6821 52.1603 26.8574 50.1212C26.8574 50.1212 25.7989 47.8191 25.3359 46.3062C22.8221 47.3586 14.4869 50.8448 14.1561 50.1212C14.09 49.9897 15.7438 46.8324 16.0084 43.2148C16.273 40.6495 15.6777 37.2949 13.8915 36.9003Z" fill="#FF2B55"/>
</svg>
