<svg width="38" height="38" viewBox="0 0 38 38" fill="none" xmlns="http://www.w3.org/2000/svg">
<path d="M31.6355 6.69871C32.2538 7.26151 33.0138 7.67135 33.8557 7.86846L28.0989 21.5758C27.4481 21.0612 26.6663 20.705 25.8116 20.5655L31.6355 6.69871ZM22.865 20.9775C22.0965 21.3409 21.4355 21.8944 20.9427 22.5773L17.0113 17.579C17.7903 17.2363 18.4653 16.7007 18.9756 16.0326L22.865 20.9775ZM13.9525 17.8901L8.61803 28.559C8.3093 29.1765 7.55846 29.4268 6.94098 29.118C6.32351 28.8093 6.07323 28.0585 6.38197 27.441L11.7169 16.7712C12.3441 17.3177 13.1089 17.7103 13.9525 17.8901ZM2.5 35.5H36.25C36.9404 35.5 37.5 36.0596 37.5 36.75C37.5 37.4404 36.9404 38 36.25 38H1.25C0.559644 38 0 37.4404 0 36.75V1.75C0 1.05964 0.559644 0.5 1.25 0.5C1.94036 0.5 2.5 1.05964 2.5 1.75V35.5ZM15 15.5C13.6193 15.5 12.5 14.3807 12.5 13C12.5 11.6193 13.6193 10.5 15 10.5C16.3807 10.5 17.5 11.6193 17.5 13C17.5 14.3807 16.3807 15.5 15 15.5ZM25 28C23.6193 28 22.5 26.8807 22.5 25.5C22.5 24.1193 23.6193 23 25 23C26.3807 23 27.5 24.1193 27.5 25.5C27.5 26.8807 26.3807 28 25 28ZM35 5.5C33.6193 5.5 32.5 4.38071 32.5 3C32.5 1.61929 33.6193 0.5 35 0.5C36.3807 0.5 37.5 1.61929 37.5 3C37.5 4.38071 36.3807 5.5 35 5.5Z" fill="#14B24C"/>
</svg>
