<svg width="280" height="196" viewBox="0 0 280 196" fill="none" xmlns="http://www.w3.org/2000/svg">
<path d="M122.688 20.9113C120.684 21.0572 120.047 20.4738 119.974 19.6898C119.919 18.9059 120.466 18.2131 122.469 18.0672C126.111 17.7938 127.987 19.0882 127.987 19.0882C127.987 19.0882 126.385 20.6378 122.688 20.9113Z" fill="#00C081"/>
<path d="M116.878 32.5793C115.039 33.3632 114.237 33.0169 113.928 32.2876C113.618 31.5584 113.909 30.738 115.767 29.954C119.136 28.5138 121.322 29.1336 121.322 29.1336C121.322 29.1336 120.284 31.1026 116.878 32.5793Z" fill="#00C081"/>
<path d="M101.252 62.6794L100.924 62.4789C100.961 62.4242 103.966 57.3559 105.987 48.7326C107.845 40.7838 109.211 28.1132 105.15 12.8719L105.514 12.7808C109.593 28.0949 108.228 40.8568 106.352 48.842C104.312 57.5018 101.27 62.6247 101.252 62.6794Z" fill="#00C081"/>
<path d="M108.063 30.7563L107.862 30.4282C119.664 23.2633 121.85 8.58726 121.868 8.44141L122.25 8.4961C122.232 8.64195 120.028 23.4821 108.063 30.7563Z" fill="#00C081"/>
<path d="M105.642 22.6794C102.181 20.9839 100.397 17.9575 100.378 17.9211L100.706 17.7388C100.724 17.7752 103.001 21.6402 107.427 22.9893L107.317 23.354C106.716 23.1534 106.152 22.9347 105.642 22.6794Z" fill="#00C081"/>
<path d="M104.439 54.693C97.8094 50.4452 93.8026 44.2466 92.5277 36.2249C92.4913 35.9514 92.4367 35.6779 92.4185 35.6232C92.4185 35.6232 92.4184 35.6415 92.4366 35.6597L92.7098 35.3862C92.7827 35.4592 92.8009 35.5685 92.9102 36.1519C94.1669 44.046 98.119 50.1717 104.657 54.3466L104.439 54.693Z" fill="#00C081"/>
<path d="M96.3163 46.1436L96.0249 45.8884C99.4306 42.0051 99.6674 33.9652 99.6674 33.874L100.05 33.8923C100.05 33.9105 99.9952 35.9706 99.5035 38.5047C99.0664 40.8383 98.1557 44.0652 96.3163 46.1436Z" fill="#00C081"/>
<path d="M105.84 10.8472C106.842 13.3631 106.551 14.3476 105.822 14.6393C105.094 14.931 104.201 14.4205 103.2 11.9046C101.36 7.31036 101.797 4.57568 101.797 4.57568C101.797 4.57568 103.983 6.19826 105.84 10.8472Z" fill="#00C081"/>
<path d="M101.834 17.2652C103.546 19.3618 103.564 20.3827 102.963 20.8932C102.362 21.3854 101.343 21.1666 99.6305 19.0701C96.498 15.2597 96.0791 12.5068 96.0791 12.5068C96.0791 12.5068 98.6653 13.3819 101.834 17.2652Z" fill="#00C081"/>
<path d="M101.253 33.2716C101.29 35.277 100.67 35.8969 99.8872 35.9151C99.1041 35.9333 98.4484 35.3499 98.412 33.3263C98.3391 29.6618 99.7233 27.8569 99.7233 27.8569C99.7233 27.8569 101.18 29.5524 101.253 33.2716Z" fill="#00C081"/>
<path d="M111.796 18.9419C111.341 20.9108 110.594 21.3484 109.829 21.1661C109.064 20.9837 108.573 20.2727 109.028 18.3038C109.848 14.7305 111.632 13.3267 111.632 13.3267C111.632 13.3267 112.616 15.3321 111.796 18.9419Z" fill="#00C081"/>
<path d="M101.726 46.5442C100.742 48.2944 99.8862 48.5132 99.2124 48.1303C98.5203 47.7475 98.2653 46.9088 99.2488 45.1586C101.034 41.9682 103.146 41.1113 103.146 41.1113C103.146 41.1113 103.547 43.3173 101.726 46.5442Z" fill="#00C081"/>
<path d="M94.2216 36.6815C94.6951 38.6323 94.2034 39.3615 93.4385 39.5438C92.6735 39.7261 91.9086 39.2886 91.4351 37.3379C90.5791 33.7828 91.5444 31.7227 91.5444 31.7227C91.5444 31.7227 93.3474 33.0718 94.2216 36.6815Z" fill="#00C081"/>
<path d="M123.652 7.45655C123.051 10.1001 122.268 10.7564 121.485 10.5741C120.72 10.41 120.265 9.4802 120.866 6.83668C121.94 2.02366 123.853 0 123.853 0C123.853 0 124.745 2.5706 123.652 7.45655Z" fill="#00C081"/>
<g opacity="0.4">
<g opacity="0.4">
<path opacity="0.4" d="M89.6328 85.705C89.6328 85.705 94.7323 50.0631 105.951 51.2846C117.17 52.5061 96.3714 74.6934 95.2605 85.1034L89.6328 85.705Z" fill="#00C081"/>
</g>
<g opacity="0.4">
<g opacity="0.4">
<path opacity="0.4" d="M92.5464 85.3769C92.8924 81.3843 94.2766 74.6934 98.8844 65.4867C101.634 59.9809 104.275 56.1523 104.312 56.0977L104.457 56.207C104.439 56.2435 101.798 60.072 99.0482 65.5596C94.4587 74.7299 93.0745 81.4025 92.7285 85.3769H92.5464Z" fill="#4CE2A7"/>
</g>
</g>
</g>
<g opacity="0.5">
<g opacity="0.5">
<path opacity="0.5" d="M95.4053 85.9234C95.4053 85.9234 116.113 43.2624 129.681 49.3152C143.25 55.3497 108.263 74.8388 102.709 87.4365L95.4053 85.9234Z" fill="#00C081"/>
</g>
<g opacity="0.5">
<g opacity="0.5">
<path opacity="0.5" d="M99.2114 86.689C101.251 81.8213 105.677 73.9819 115.147 64.2829C120.811 58.4854 125.656 54.7298 125.711 54.6934L125.856 54.8939C125.802 54.9304 120.957 58.686 115.311 64.4653C105.859 74.1278 101.452 81.9307 99.43 86.7802L99.2114 86.689Z" fill="#4CE2A7"/>
</g>
</g>
</g>
<path d="M116.222 148.347C109.683 145.411 104.329 154.655 99.0655 148.328C94.1845 142.458 94.5487 142.02 90.5238 142.385C89.9228 142.44 89.34 142.604 88.8118 142.859C87.6644 143.424 85.2968 144.263 83.4209 142.859C75.3163 136.825 82.8199 131.939 80.3066 121.638C79.5963 118.757 79.0317 115.986 78.6128 113.416C80.0698 112.395 82.5831 111.155 85.8067 111.611C86.9906 111.775 88.2837 112.158 89.6496 112.869C97.0621 116.734 96.8799 121.31 107.88 117.335C118.881 113.361 117.715 129.842 122.469 132.723C127.222 135.621 132.121 137.171 132.121 144.463C132.085 151.756 122.76 151.282 116.222 148.347Z" fill="#00C081"/>
<g opacity="0.4">
<g opacity="0.4">
<g opacity="0.4">
<path opacity="0.4" d="M80.998 124.846L81.0162 124.372C81.2166 124.372 102.143 125.502 131.902 146.395L131.629 146.778C101.997 125.976 81.2166 124.864 80.998 124.846Z" fill="#4CE2A7"/>
</g>
</g>
<g opacity="0.4">
<g opacity="0.4">
<path opacity="0.4" d="M107.535 126.961C106.24 120.635 107.589 117.372 107.644 117.244L108.082 117.426C108.063 117.463 106.733 120.708 108.009 126.87L107.535 126.961Z" fill="#4CE2A7"/>
</g>
</g>
<g opacity="0.4">
<g opacity="0.4">
<path opacity="0.4" d="M105.185 131.556C105.513 128.84 107.644 126.16 111.341 123.808C114.109 122.04 116.841 121.055 116.859 121.037L117.023 121.475C116.914 121.511 106.387 125.358 105.64 131.593L105.185 131.556Z" fill="#4CE2A7"/>
</g>
</g>
<g opacity="0.4">
<g opacity="0.4">
<path opacity="0.4" d="M113.379 136.588C113.197 135.859 113.142 135.439 113.142 135.403L113.616 135.33C113.634 135.421 114.982 144.537 122.886 150.006L122.613 150.389C116.238 145.995 114.034 139.268 113.379 136.588Z" fill="#4CE2A7"/>
</g>
</g>
<g opacity="0.4">
<g opacity="0.4">
<path opacity="0.4" d="M110.703 148.165C110.394 144.901 111.341 142.55 112.178 141.164C113.107 139.651 114.091 138.922 114.127 138.903L114.4 139.286C114.364 139.323 110.576 142.13 111.158 148.11L110.703 148.165Z" fill="#4CE2A7"/>
</g>
</g>
<g opacity="0.4">
<g opacity="0.4">
<path opacity="0.4" d="M91.1787 139.741C89.5213 132.905 92.5082 126.925 92.5446 126.87L92.9635 127.089C92.9271 127.162 89.2299 134.564 92.49 142.203L92.0529 142.385C91.6704 141.491 91.379 140.598 91.1787 139.741Z" fill="#4CE2A7"/>
</g>
</g>
<g opacity="0.4">
<g opacity="0.4">
<path opacity="0.4" d="M91.0708 132.578L91.2165 132.122C93.7298 132.961 97.427 135.422 100.796 142.423C102.8 146.598 103.765 150.463 103.765 150.517L103.31 150.627C103.273 150.481 99.5032 135.367 91.0708 132.578Z" fill="#4CE2A7"/>
</g>
</g>
</g>
<path d="M90.5252 95.5317C90.5252 95.5317 73.2233 14.7312 51.4958 20.2552C29.7682 25.7793 75.081 71.8312 79.361 95.5135L90.5252 95.5317Z" fill="#333333"/>
<path d="M75.8269 77.0815C75.8269 77.0815 46.4136 11.4494 25.5603 19.9815C4.70697 28.4955 56.8494 59.6525 64.6808 79.0322L75.8269 77.0815Z" fill="#00C081"/>
<path d="M69.5978 78.2123C64.4254 64.7395 54.2264 51.9959 46.5771 43.6643C38.2904 34.6399 31.1329 28.733 31.0601 28.6783L31.4243 28.2407C31.4972 28.2954 38.6911 34.2205 46.996 43.2814C54.6817 51.6313 64.9353 64.4478 70.1441 78.0118L69.5978 78.2123Z" fill="#4CE2A7"/>
<path d="M13.5221 76.9177C23.3022 82.6059 16.3997 97.9565 29.3306 98.8863C42.2614 99.7978 41.5147 98.7222 45.5943 105.796C45.5943 105.796 46.2136 111.557 50.6938 113.927C68.4146 123.316 103.11 103.827 88.4666 82.1501C87.4103 80.5822 85.4798 79.4883 83.3125 78.3945C71.5654 72.4511 65.8649 76.8813 60.8382 59.1241C55.8116 41.367 35.8142 58.012 27.746 54.5846C19.6779 51.1571 13.176 46.2894 3.86943 52.9985C-5.43717 59.7258 3.74195 71.2478 13.5221 76.9177Z" fill="#036D4B"/>
<path d="M75.9364 100.455L76.5192 99.9987C76.3189 99.7435 55.6659 73.9646 1.57466 55.0225L1.33789 55.7335C55.2105 74.5845 75.7361 100.199 75.9364 100.455Z" fill="white"/>
<path d="M48.8369 68.4039C58.1253 64.2654 61.0393 59.5253 61.1668 59.3248L60.5294 58.9419C60.493 58.9966 57.579 63.682 48.5273 67.7293L48.8369 68.4039Z" fill="white"/>
<path d="M45.1203 75.6236C48.2893 72.7066 49.7645 67.5108 49.3638 60.6012C49.0724 55.4235 47.834 51.0298 47.8158 50.9751L47.1055 51.1756C47.1601 51.3397 51.9136 68.3859 44.6104 75.0767L45.1203 75.6236Z" fill="white"/>
<path d="M31.1885 69.7531C32.2812 69.3155 32.8822 69.0056 32.9187 68.9874L32.5726 68.3311C32.4451 68.404 19.5325 75.0401 5.27207 69.9354L5.01709 70.6282C16.5092 74.7484 27.1271 71.3939 31.1885 69.7531Z" fill="white"/>
<path d="M18.8219 83.8273C23.284 81.2202 25.4149 77.8657 26.3983 75.4956C27.4729 72.925 27.4911 70.9925 27.4911 70.9014H26.7444C26.7444 70.9743 26.6169 78.4126 18.4395 83.1709L18.8219 83.8273Z" fill="white"/>
<path d="M166.725 30.4654C168.219 31.9421 169.129 31.9057 169.712 31.3223C170.295 30.7389 170.313 29.8273 168.82 28.3506C166.106 25.6706 163.738 25.4336 163.738 25.4336C163.738 25.4336 163.975 27.7489 166.725 30.4654Z" fill="#00C081"/>
<path d="M163.502 43.6828C164.43 45.5606 165.305 45.8158 166.051 45.4512C166.78 45.0866 167.108 44.2297 166.161 42.3519C164.449 38.9427 162.3 37.9399 162.3 37.9399C162.3 37.9399 161.771 40.2006 163.502 43.6828Z" fill="#00C081"/>
<path d="M155.688 78.1938L156.089 78.2485C156.107 78.1938 157.109 72.1046 161.316 63.8823C165.177 56.2982 172.626 45.2866 186.122 35.8975L185.903 35.5693C172.335 45.0131 164.849 56.0976 160.952 63.7182C156.708 71.9952 155.688 78.1209 155.688 78.1938Z" fill="#00C081"/>
<path d="M171.752 48.1672L172.135 48.0396C167.563 34.3662 175.704 21.2033 175.777 21.0757L175.449 20.8569C175.358 21.0028 167.126 34.3115 171.752 48.1672Z" fill="#00C081"/>
<path d="M179.11 43.3909C183.025 44.3754 186.467 43.1539 186.504 43.1539L186.376 42.7893C186.34 42.8075 181.914 44.3571 177.489 42.4429L177.325 42.8075C177.926 43.0445 178.527 43.2268 179.11 43.3909Z" fill="#00C081"/>
<path d="M158.511 69.6797C166.634 70.7736 174.01 68.5311 180.42 63.0071C180.639 62.8248 180.858 62.6425 180.912 62.606C180.912 62.606 180.894 62.606 180.876 62.6242L180.839 62.2231C180.73 62.2231 180.639 62.3143 180.165 62.7154C173.846 68.1483 166.579 70.3725 158.565 69.2968L158.511 69.6797Z" fill="#00C081"/>
<path d="M170.731 68.3488H171.132C171.041 62.9524 176.268 56.3892 176.323 56.3163L176.013 56.061C175.995 56.0793 174.665 57.7565 173.336 60.0901C172.116 62.2596 170.677 65.4501 170.731 68.3488Z" fill="#00C081"/>
<path d="M186.905 33.8193C184.41 35.1502 183.973 36.1346 184.355 36.8456C184.738 37.5749 185.794 37.7754 188.289 36.4446C192.842 34.0381 194.336 31.5404 194.336 31.5404C194.336 31.5404 191.513 31.3763 186.905 33.8193Z" fill="#00C081"/>
<path d="M185.794 41.6406C183.008 42.1511 182.315 42.9533 182.461 43.7737C182.607 44.5758 183.554 45.0863 186.34 44.5759C191.403 43.6461 193.589 41.7318 193.589 41.7318C193.589 41.7318 190.93 40.6926 185.794 41.6406Z" fill="#00C081"/>
<path d="M175.486 54.7668C174.102 56.3347 174.193 57.2462 174.812 57.7932C175.432 58.3401 176.342 58.3036 177.726 56.7358C180.258 53.8735 180.349 51.5034 180.349 51.5034C180.349 51.5034 178.036 51.868 175.486 54.7668Z" fill="#00C081"/>
<path d="M176.724 36.2625C175.759 38.1221 176.068 38.979 176.797 39.3618C177.525 39.7447 178.399 39.4894 179.365 37.6299C181.113 34.2389 180.64 31.9053 180.64 31.9053C180.64 31.9053 178.509 32.8168 176.724 36.2625Z" fill="#00C081"/>
<path d="M166.161 65.0312C165.76 67.0913 166.288 67.8388 167.108 67.9846C167.909 68.1487 168.692 67.6565 169.093 65.5963C169.822 61.8407 168.711 59.7441 168.711 59.7441C168.711 59.7441 166.889 61.2209 166.161 65.0312Z" fill="#00C081"/>
<path d="M178.782 62.2239C177.089 63.4636 176.979 64.3751 177.471 65.0315C177.963 65.6878 178.855 65.8701 180.549 64.6304C183.627 62.3697 184.246 60.0726 184.246 60.0726C184.246 60.0726 181.897 59.945 178.782 62.2239Z" fill="#00C081"/>
<path d="M175.011 19.1068C173.7 21.6227 173.9 22.6619 174.629 23.0447C175.357 23.4276 176.341 22.99 177.652 20.4741C180.038 15.8981 179.874 13.0176 179.874 13.0176C179.874 13.0176 177.434 14.4761 175.011 19.1068Z" fill="#00C081"/>
<path d="M193.954 74.0549C193.954 74.0549 211.857 -1.76846 232.237 3.86497C252.617 9.4984 208.998 52.0134 204.481 74.2555L193.954 74.0549Z" fill="#333333"/>
<path d="M208.178 56.9547C208.178 56.9547 237.19 -4.33845 256.696 4.1208C276.183 12.5618 226.427 40.9113 218.65 59.0148L208.178 56.9547Z" fill="#00C081"/>
<path d="M214.007 58.158C219.143 45.5603 229.014 33.7465 236.39 26.053C244.385 17.7214 251.252 12.2885 251.324 12.2338L250.997 11.8145C250.924 11.8691 244.039 17.3203 236.008 25.6884C228.595 33.4184 218.687 45.2869 213.515 57.9757L214.007 58.158Z" fill="#4CE2A7"/>
<path d="M266.913 58.0479C257.589 63.2073 263.781 77.8287 251.578 78.4486C239.376 79.0684 240.086 78.0475 236.116 84.6289C236.116 84.6289 235.424 90.0436 231.144 92.1948C214.243 100.691 181.934 81.639 196.176 61.4936C197.196 60.0351 199.035 59.0506 201.093 58.0479C212.294 52.6697 217.576 56.9723 222.657 40.3272C227.756 23.6822 246.279 39.7621 253.946 36.6992C261.613 33.6364 267.842 29.1698 276.493 35.6783C285.126 42.205 276.238 52.8885 266.913 58.0479Z" fill="#036D4B"/>
<path d="M207.615 78.9957L207.069 78.5582C207.269 78.3212 227.248 54.4201 278.608 37.6475L278.826 38.322C227.649 55.0218 207.797 78.7587 207.615 78.9957Z" fill="white"/>
<path d="M233.786 49.3156C225.116 45.2318 222.457 40.7105 222.348 40.51L222.949 40.1636C222.967 40.2 225.645 44.6849 234.077 48.6775L233.786 49.3156Z" fill="white"/>
<path d="M237.138 56.2066C234.206 53.399 232.931 48.4766 233.423 41.9499C233.805 37.0639 235.062 32.9619 235.062 32.9072L235.736 33.1078C235.681 33.2718 230.873 49.2241 237.612 55.6779L237.138 56.2066Z" fill="white"/>
<path d="M250.396 50.9378C249.376 50.5003 248.812 50.1903 248.775 50.1721L249.121 49.5522C249.249 49.6252 261.287 56.1337 274.819 51.6124L275.038 52.2687C264.147 55.9332 254.184 52.5604 250.396 50.9378Z" fill="white"/>
<path d="M261.78 64.4475C257.628 61.9133 255.679 58.6864 254.786 56.444C253.821 54.001 253.839 52.1779 253.839 52.105L254.531 52.1232C254.531 52.1961 254.513 59.1969 262.126 63.8641L261.78 64.4475Z" fill="white"/>
<path d="M197.434 162.531L167.128 161.51L132.779 162.403L132.688 164.992L165.908 163.515C169.241 163.625 171.864 166.687 171.736 170.352C171.609 174.016 168.804 176.897 165.471 176.787L132.324 175.675L132.27 177.59L196.851 179.759C201.186 179.905 204.828 176.168 204.992 171.409C205.156 166.651 201.768 162.677 197.434 162.531Z" fill="#FF443C"/>
<path d="M174.686 170.388C174.85 165.629 171.462 161.655 167.128 161.527L132.779 162.421L132.688 165.009L165.908 163.533C169.24 163.642 171.863 166.705 171.736 170.369C171.608 174.034 168.803 176.914 165.47 176.805L132.324 175.693L132.269 177.607L166.545 178.756C170.898 178.883 174.54 175.146 174.686 170.388Z" fill="#FF443C"/>
<path d="M165.926 163.533L132.707 165.01C135.712 165.484 136.604 168.547 137.023 170.169C137.861 173.469 135.366 175.365 132.342 175.639V175.675L165.489 176.787C168.822 176.897 171.627 174.016 171.754 170.352C171.863 166.705 169.259 163.643 165.926 163.533Z" fill="#EEEEEE"/>
<path d="M137.132 171.693L137.125 171.875L163.864 172.769L163.87 172.586L137.132 171.693Z" fill="#2F1A31"/>
<g opacity="0.4">
<g opacity="0.4">
<path opacity="0.4" d="M171.481 177.917C171.372 177.917 171.244 177.863 171.171 177.753C171.062 177.589 171.099 177.37 171.262 177.243C171.281 177.225 173.903 175.42 174.322 170.351C174.741 165.32 171.208 163.387 171.171 163.369C170.989 163.278 170.935 163.059 171.026 162.877C171.117 162.694 171.335 162.64 171.517 162.731C171.681 162.822 175.506 164.919 175.051 170.424C174.595 175.875 171.791 177.79 171.681 177.863C171.608 177.899 171.554 177.917 171.481 177.917Z" fill="#66192D"/>
</g>
</g>
<path d="M157.576 169.742L137.035 170.066L137.038 170.249L157.579 169.924L157.576 169.742Z" fill="#2F1A31"/>
<path d="M182.171 176.131C182.171 176.131 182.153 176.131 182.171 176.131L175.687 175.913C175.56 175.913 175.451 175.84 175.378 175.73C175.323 175.621 175.323 175.475 175.378 175.366C175.396 175.347 176.507 173.415 177.163 170.808C177.782 168.292 176.088 165.685 176.07 165.667C175.997 165.557 175.997 165.411 176.052 165.284C176.125 165.156 176.234 165.102 176.38 165.102L182.517 165.302C182.626 165.302 182.736 165.357 182.809 165.448C186.651 170.954 182.499 175.949 182.444 175.986C182.372 176.077 182.28 176.131 182.171 176.131ZM176.289 175.202L182.007 175.384C182.608 174.6 185.377 170.553 182.317 166.013L176.999 165.831C177.509 166.815 178.383 168.875 177.855 170.972C177.381 172.905 176.671 174.436 176.289 175.202Z" fill="#66192D"/>
<path d="M133.034 177.755H163.358L197.652 179.797V182.386L164.487 179.797C161.154 179.797 158.44 182.768 158.44 186.433C158.44 190.097 161.154 193.069 164.487 193.069H197.652V194.983H133.034C128.699 194.983 125.184 191.137 125.184 186.378C125.184 181.62 128.699 177.755 133.034 177.755Z" fill="#FFC700"/>
<path d="M155.509 186.379C155.509 181.62 159.024 177.773 163.358 177.773L197.653 179.815V182.404L164.488 179.815C161.155 179.815 158.441 182.787 158.441 186.451C158.441 190.116 161.155 193.088 164.488 193.088H197.653V195.002H163.358C159.024 194.984 155.509 191.137 155.509 186.379Z" fill="#FFC700"/>
<path d="M164.506 179.815L197.671 182.404C194.665 182.787 193.646 185.795 193.19 187.418C192.243 190.681 194.665 192.668 197.671 193.051V193.088H164.506C161.173 193.088 158.459 190.116 158.459 186.452C158.459 182.787 161.173 179.815 164.506 179.815Z" fill="#EEEEEE"/>
<path d="M192.99 188.912H166.236V189.094H192.99V188.912Z" fill="#2F1A31"/>
<path d="M158.278 193.944C158.168 193.853 155.418 191.847 155.145 186.396C154.872 180.872 158.769 178.921 158.933 178.83L159.243 179.486L159.079 179.158L159.243 179.486C159.097 179.559 155.619 181.346 155.874 186.36C156.001 189.021 156.766 190.771 157.385 191.792C158.059 192.886 158.697 193.36 158.697 193.36L158.278 193.944Z" fill="#2F1A31"/>
<path d="M172.647 186.3L172.638 186.482L193.155 187.51L193.164 187.328L172.647 186.3Z" fill="#2F1A31"/>
<path d="M147.859 181.383H154.015C154.015 181.383 152.103 184.063 152.685 186.779C153.268 189.496 154.343 191.501 154.343 191.501H147.859C147.859 191.501 143.962 186.597 147.859 181.383Z" fill="#2F1A31"/>
<path d="M199.727 58.3584H197.687V61.2936H199.727V58.3584Z" fill="#2F1A31"/>
<path d="M202.24 56.8632C202.24 54.9671 200.692 53.4175 198.798 53.4175C196.904 53.4175 195.355 54.9671 195.355 56.8632C195.355 58.7592 196.904 60.3089 198.798 60.3089C200.71 60.3089 202.24 58.7592 202.24 56.8632Z" fill="#2F1A31"/>
<path d="M200.529 56.8634C200.529 55.6601 199.564 54.6938 198.362 54.6938C197.16 54.6938 196.195 55.6601 196.195 56.8634C196.195 58.0666 197.16 59.0329 198.362 59.0329C199.564 59.0329 200.529 58.0666 200.529 56.8634Z" fill="#3E3E3E"/>
<path d="M199.708 56.2078C199.781 55.7155 199.362 55.2962 198.871 55.3691C198.579 55.4238 198.324 55.6608 198.27 55.9525C198.197 56.4448 198.616 56.8641 199.107 56.7911C199.417 56.7547 199.654 56.4994 199.708 56.2078Z" fill="#036D4B"/>
<path d="M214.241 140.489V125.193H183.425V140.489C183.425 144.464 180.785 147.691 177.525 147.691H176.286V149.66H221.38V147.691H220.142C216.882 147.691 214.241 144.464 214.241 140.489Z" fill="#333333"/>
<path d="M221.125 149.659H176.541C175.995 149.659 175.558 149.222 175.558 148.675C175.558 148.128 175.995 147.69 176.541 147.69H221.125C221.672 147.69 222.109 148.128 222.109 148.675C222.109 149.222 221.672 149.659 221.125 149.659Z" fill="#3E3E3E"/>
<path d="M251.322 134.583L147.128 133.379C144.906 133.361 143.103 131.538 143.103 129.296V65.6507C143.103 63.4265 144.888 61.6034 147.11 61.567L249.956 59.9991C252.196 59.9626 254.035 61.7493 254.09 63.9917L255.438 130.426C255.474 132.741 253.617 134.619 251.322 134.583Z" fill="#3E3E3E"/>
<path d="M247.953 121.966H149.132C148.021 121.966 147.128 121.073 147.128 119.961V68.4214C147.128 67.3093 148.021 66.416 149.132 66.416H247.953C249.064 66.416 249.956 67.3093 249.956 68.4214V119.943C249.975 121.073 249.064 121.966 247.953 121.966Z" fill="#00C081"/>
<path d="M180.931 103.608C180.84 103.59 178.545 103.025 177.817 101.293C177.398 100.308 177.598 99.1231 178.418 97.8105C178.764 97.2453 179.073 96.7531 179.365 96.2791C181.332 93.1433 182.06 91.9765 181.532 89.4424L181.75 89.3877C182.297 91.9948 181.55 93.198 179.547 96.3884C179.255 96.8442 178.946 97.3547 178.6 97.9199C177.835 99.1596 177.634 100.272 178.017 101.183C178.691 102.806 180.949 103.353 180.967 103.353L180.931 103.608Z" fill="#66192D"/>
<path d="M181.66 89.4424C181.66 89.4424 182.552 93.4897 179.875 97.7193C177.198 101.949 180.112 105.048 183.736 103.426C187.36 101.803 188.744 106.434 193.389 103.863C198.015 101.293 181.66 89.4424 181.66 89.4424Z" fill="#66192D"/>
<path d="M234.785 123.334C234.129 123.607 233.401 123.771 232.654 123.771H163.902C163.265 123.771 162.645 123.662 162.062 123.461C164.958 118.393 172.353 109.97 190.037 107.746H190.055C191.603 107.546 193.17 107.272 194.827 107.145C197.595 106.944 200.345 107.181 203.077 107.327C203.095 107.327 203.095 107.327 203.095 107.327C225.296 108.494 232.509 118.156 234.785 123.334Z" fill="#FF8548"/>
<path d="M203.078 107.308C201.075 107.089 199.327 105.831 198.543 103.99L196.048 98.192L195.32 96.5148L191.058 86.6152L191.805 96.8794L192.242 103.042L192.369 104.792C192.479 106.232 191.477 107.49 190.056 107.745H190.038C189.273 108.985 188.235 111.483 191.368 112.485C195.047 113.652 200.984 110.753 203.115 107.326C203.097 107.326 203.078 107.326 203.078 107.308Z" fill="#FDAD9B"/>
<path d="M196.048 98.0106C196.048 98.0653 196.048 98.12 196.03 98.1747C195.793 101.475 192.242 103.024 192.242 103.024L192.224 103.006L191.787 96.8438C192.861 96.4427 194.409 96.0416 195.302 96.4792C195.793 96.7344 196.085 97.1902 196.048 98.0106Z" fill="#2F1A31"/>
<path d="M190.584 100.144C195.905 100.144 200.218 94.8138 200.218 88.2389C200.218 81.664 195.905 76.334 190.584 76.334C185.263 76.334 180.949 81.664 180.949 88.2389C180.949 94.8138 185.263 100.144 190.584 100.144Z" fill="#FDAD9B"/>
<path d="M198.943 90.0443C197.85 91.0835 196.32 91.1928 195.537 90.2813C194.754 89.3697 194.991 87.7836 196.083 86.7445C197.176 85.7053 198.706 85.5959 199.489 86.5074C200.272 87.4008 200.017 88.9869 198.943 90.0443Z" fill="#FDAD9B"/>
<path d="M185.393 95.9321C185.393 95.9321 188.689 96.005 191.967 94.8564C191.967 94.8564 192.24 98.1016 188.671 98.3204C186.613 98.448 185.393 95.9321 185.393 95.9321Z" fill="#DB6B49"/>
<path d="M185.393 95.9321C185.393 95.9321 186.194 96.5884 188.052 96.5884C189.909 96.5884 191.986 94.8564 191.986 94.8564C191.986 94.8564 188.015 95.9503 185.393 95.9321Z" fill="white"/>
<path d="M189.655 88.3484C189.582 88.3302 189.527 88.2937 189.509 88.2208C189.472 88.1114 189.527 87.9838 189.636 87.9291C189.709 87.9109 191.184 87.1452 192.477 88.5672C192.55 88.6584 192.55 88.786 192.477 88.8771C192.386 88.9683 192.259 88.9318 192.168 88.8771C191.166 88.2026 189.873 88.3302 189.818 88.3484C189.746 88.3666 189.709 88.3666 189.655 88.3484Z" fill="#060633"/>
<path d="M191.385 90.7722C191.404 91.3009 191.112 91.7384 190.73 91.7384C190.347 91.7566 190.038 91.3373 190.019 90.8086C190.001 90.2799 190.293 89.8424 190.675 89.8424C191.057 89.8241 191.367 90.2435 191.385 90.7722Z" fill="#060633"/>
<path d="M181.842 89.4958C181.769 89.4958 181.714 89.4776 181.66 89.4229C181.569 89.3318 181.569 89.2042 181.66 89.113C181.714 89.0583 182.789 87.8003 184.519 88.6207C184.628 88.6754 184.683 88.8031 184.628 88.9124C184.574 89.0218 184.464 89.0401 184.337 89.0218C183.153 88.7848 182.006 89.3865 181.951 89.4229C181.933 89.4776 181.878 89.4958 181.842 89.4958Z" fill="#060633"/>
<path d="M184.355 91.0648C184.573 91.5388 184.464 92.0493 184.118 92.2133C183.772 92.3774 183.317 92.1039 183.098 91.6299C182.88 91.1559 182.989 90.6455 183.335 90.4814C183.681 90.3355 184.136 90.5908 184.355 91.0648Z" fill="#060633"/>
<path d="M186.504 78.5031C186.504 78.5031 186.704 82.6234 191.858 83.3344C197.013 84.0454 199.362 86.9624 198.67 90.6815C197.978 94.4007 190.875 101.347 196.976 104.337C203.077 107.327 201.784 101.748 208.395 103.042C215.007 104.337 216.209 95.4946 211.655 90.3534C207.102 85.2304 208.942 71.6482 191.858 72.2498C174.775 72.8515 181.04 86.4884 181.04 86.4884C181.04 86.4884 186.504 83.0609 186.504 78.5031Z" fill="#66192D"/>
<path d="M198.724 105.102C197.431 104.592 196.648 103.808 196.375 102.805C195.628 100.034 198.852 95.8589 201.693 92.1579C202.44 91.1917 203.15 90.2619 203.769 89.3868C205.499 86.9621 205.663 84.1727 204.17 81.9485C202.531 79.5055 199.434 78.4663 196.065 79.2503C192.714 80.0342 190.401 79.3232 189.053 78.5939C187.596 77.81 186.941 76.8438 186.904 76.8073L187.014 76.7344C187.032 76.7708 189.691 80.5994 196.029 79.1227C199.453 78.3205 202.622 79.3779 204.297 81.8756C205.791 84.118 205.645 87.035 203.897 89.478C203.277 90.3531 202.567 91.2646 201.82 92.2491C198.997 95.9135 195.792 100.07 196.52 102.768C196.794 103.753 197.522 104.464 198.779 104.974L198.724 105.102Z" fill="white"/>
<path d="M182.497 97.2992C182.151 97.2992 181.823 97.2445 181.477 97.1169C180.02 96.5882 178.763 94.9838 178.071 92.8325C176.96 89.3504 177.743 85.4489 179.819 84.1545C180.584 83.6805 181.458 83.5894 182.314 83.9175C183.771 84.4462 185.028 86.0506 185.72 88.2018C186.831 91.684 186.048 95.5855 183.972 96.8799C183.516 97.1533 183.025 97.2992 182.497 97.2992ZM181.295 84.1545C180.857 84.1545 180.439 84.2821 180.038 84.5191C178.126 85.7224 177.415 89.3869 178.472 92.7049C179.109 94.7286 180.293 96.2235 181.622 96.7158C182.351 96.9893 183.098 96.9163 183.753 96.5152C185.666 95.312 186.376 91.6475 185.32 88.3295C184.682 86.3058 183.498 84.8108 182.169 84.3186C181.877 84.2092 181.586 84.1545 181.295 84.1545Z" fill="white"/>
<g opacity="0.3">
<path opacity="0.3" d="M196.867 85.9232C197.632 89.3142 196.412 92.9604 194.099 94.0725C191.804 95.1664 189.309 93.3068 188.544 89.9158C187.779 86.5248 188.999 82.8786 191.312 81.7665C193.607 80.6544 196.102 82.514 196.867 85.9232Z" fill="white"/>
</g>
<g opacity="0.3">
<path opacity="0.3" d="M185.812 88.476C186.595 91.8852 185.556 95.5861 183.498 96.7347C181.459 97.8833 179.164 96.0601 178.381 92.6327C177.598 89.2235 178.636 85.5225 180.694 84.374C182.752 83.2254 185.047 85.0668 185.812 88.476Z" fill="white"/>
</g>
<path d="M192.478 94.4915C191.95 94.4915 191.403 94.3638 190.893 94.1086C189.418 93.3976 188.289 91.775 187.797 89.6602C186.96 86.0322 188.325 82.1125 190.857 80.9275C191.877 80.4535 192.951 80.4535 193.971 80.9457C195.447 81.6567 196.576 83.2793 197.067 85.3941C197.905 89.0221 196.539 92.9418 194.008 94.1268C193.516 94.3638 193.006 94.4915 192.478 94.4915ZM192.387 80.9822C191.932 80.9822 191.476 81.0916 191.039 81.2921C188.69 82.4042 187.415 86.1051 188.216 89.5508C188.672 91.5015 189.746 93.0694 191.094 93.7075C191.986 94.1451 192.951 94.1451 193.844 93.7257C196.193 92.6136 197.468 88.9127 196.667 85.467C196.211 83.5163 195.137 81.9484 193.789 81.3103C193.334 81.0916 192.86 80.9822 192.387 80.9822Z" fill="white"/>
<path d="M185.356 89.7336C185.247 89.7336 185.119 89.6789 185.046 89.5877C184.901 89.4236 184.937 89.1684 185.101 89.0226C185.156 88.9679 186.467 87.9104 188.634 88.348C188.853 88.3845 188.998 88.6032 188.944 88.822C188.907 89.0408 188.689 89.1866 188.47 89.1319C186.685 88.7856 185.647 89.6059 185.593 89.6424C185.538 89.7153 185.447 89.7336 185.356 89.7336Z" fill="white"/>
<path d="M78.2961 82.2529H80.3359V79.3177H78.2961V82.2529Z" fill="#2F1A31"/>
<path d="M75.772 77.8285C75.772 75.9325 77.3201 74.3828 79.2142 74.3828C81.1083 74.3828 82.6563 75.9325 82.6563 77.8285C82.6563 79.7245 81.1083 81.2742 79.2142 81.2742C77.3019 81.2742 75.772 79.7428 75.772 77.8285Z" fill="#2F1A31"/>
<path d="M77.4839 77.8277C77.4839 76.6245 78.4491 75.6582 79.6512 75.6582C80.8532 75.6582 81.8185 76.6245 81.8185 77.8277C81.8185 79.031 80.8532 79.9972 79.6512 79.9972C78.4491 79.9972 77.4839 79.031 77.4839 77.8277Z" fill="#3E3E3E"/>
<path d="M78.3032 77.1721C78.2303 76.6799 78.6492 76.2606 79.1409 76.3335C79.4323 76.3882 79.6873 76.6252 79.742 76.9169C79.8148 77.4091 79.396 77.8284 78.9042 77.7555C78.5946 77.719 78.3578 77.4638 78.3032 77.1721Z" fill="#036D4B"/>
<path d="M63.7716 161.456V146.16H94.5872V161.456C94.5872 165.43 97.2281 168.657 100.488 168.657H101.727V170.626H56.6323V168.657H57.8708C61.1308 168.657 63.7716 165.43 63.7716 161.456Z" fill="#333333"/>
<path d="M56.8863 170.626H101.471C102.017 170.626 102.454 170.189 102.454 169.642C102.454 169.095 102.017 168.657 101.471 168.657H56.8863C56.3399 168.657 55.9028 169.095 55.9028 169.642C55.9028 170.189 56.3399 170.626 56.8863 170.626Z" fill="#3E3E3E"/>
<path d="M26.6898 155.548L130.884 154.344C133.106 154.326 134.909 152.503 134.909 150.261V86.5975C134.909 84.3733 133.124 82.5502 130.902 82.5137L28.0557 80.9459C25.8156 80.9094 23.9761 82.6961 23.9215 84.9385L22.5738 151.373C22.5373 153.706 24.395 155.584 26.6898 155.548Z" fill="#3E3E3E"/>
<path d="M30.0603 142.932H128.881C129.992 142.932 130.885 142.039 130.885 140.927V89.4058C130.885 88.2937 129.992 87.4004 128.881 87.4004H30.0603C28.9493 87.4004 28.0569 88.2937 28.0569 89.4058V140.927C28.0387 142.039 28.9493 142.932 30.0603 142.932Z" fill="#FF8548"/>
<path d="M92.2209 101.256C92.2209 101.256 92.9677 104.1 92.2209 107.655C91.4742 111.21 87.8682 102.459 87.8682 102.459L92.2209 101.256Z" fill="#66192D"/>
<path d="M116.57 144.719C116.406 144.737 116.242 144.737 116.078 144.737H45.7963C44.4668 144.737 43.2283 144.263 42.2812 143.461C46.3973 139.14 55.3396 132.176 71.4577 129.951C71.9494 129.878 72.4594 129.824 72.9511 129.751C73.4429 129.696 73.9346 129.641 74.4446 129.605C75.6466 129.496 76.8668 129.423 78.0871 129.386C79.6169 129.332 81.165 129.35 82.7131 129.441C82.8223 129.441 82.9316 129.459 83.0409 129.459C83.0773 129.459 83.1137 129.459 83.1501 129.477C84.425 129.569 85.6635 129.751 86.8837 129.915C87.3754 129.97 87.8672 130.043 88.3407 130.079C103.767 131.556 112.181 138.757 116.57 144.719Z" fill="#FF443C"/>
<path d="M74.6081 133.652C71.6213 131.938 74.681 130.115 75.3366 127.873L77.3764 120.89L77.9775 118.848L81.4743 106.889L82.1481 118.721L82.5488 125.831L82.6763 128.073C82.7674 129.605 83.6962 129.896 84.8436 131.209C85.3171 131.738 86.1367 131.3 82.5488 131.92C79.5984 132.412 76.7208 134.873 74.6081 133.652Z" fill="#FDAD9B"/>
<path d="M92.6576 108.675C91.747 101.783 86.3925 96.8063 80.6919 97.5538C74.9914 98.3013 71.094 104.5 72.0046 111.373C72.9152 118.264 78.2697 123.241 83.9702 122.494C89.6707 121.765 93.5682 115.566 92.6576 108.675Z" fill="#FDAD9B"/>
<path d="M71.7311 107.801L76.776 107.272C77.8869 107.162 78.9068 106.561 79.5079 105.613C80.546 103.99 81.7844 103.17 86.4833 103.334C92.4388 103.553 96.3727 99.9976 97.0101 96.8801C97.6658 93.6897 94.6243 91.5384 91.6192 93.0516C88.6323 94.5648 89.9072 90.8456 87.0296 90.4445C81.6569 89.697 80.6371 93.8537 76.2478 93.7261C70.4745 93.5438 60.1298 97.9375 65.0471 108.111L71.7311 107.801Z" fill="#66192D"/>
<path d="M84.279 109.513C84.3336 109.477 84.37 109.422 84.37 109.349C84.3882 109.24 84.2972 109.13 84.1697 109.112C84.0968 109.112 82.5306 108.82 81.7292 110.498C81.6746 110.607 81.711 110.735 81.8203 110.789C81.9295 110.844 82.0388 110.789 82.1116 110.698C82.8401 109.787 84.0786 109.532 84.1332 109.55C84.2061 109.55 84.2425 109.532 84.279 109.513Z" fill="#060633"/>
<path d="M83.3685 112.23C83.496 112.723 83.8967 113.033 84.2427 112.942C84.5887 112.85 84.7709 112.376 84.6434 111.884C84.5159 111.392 84.1152 111.082 83.7692 111.173C83.4049 111.264 83.241 111.738 83.3685 112.23Z" fill="#060633"/>
<path d="M92.0927 108.894C92.1474 108.894 92.1838 108.839 92.202 108.785C92.2384 108.675 92.202 108.548 92.111 108.493C92.0563 108.457 90.9818 107.545 89.9619 108.73C89.889 108.803 89.889 108.931 89.9619 109.022C90.0165 109.113 90.1258 109.113 90.1986 109.058C90.9818 108.548 91.947 108.821 91.9834 108.858C92.0199 108.876 92.0563 108.894 92.0927 108.894Z" fill="#060633"/>
<path d="M90.1621 111.046C90.1075 111.538 90.3442 111.994 90.7085 112.03C91.0727 112.067 91.4188 111.702 91.4735 111.21C91.5281 110.717 91.2913 110.262 90.9271 110.225C90.581 110.189 90.235 110.553 90.1621 111.046Z" fill="#060633"/>
<path d="M65.0474 108.129C65.0474 108.129 68.5259 115.659 73.4615 116.206C73.4615 116.206 69.473 110.463 77.8872 106.981C77.9054 106.981 70.1651 105.759 65.0474 108.129Z" fill="#66192D"/>
<path d="M72.0224 112.286C73.0788 112.96 74.4265 112.741 75.0275 111.793C75.6285 110.845 75.2643 109.533 74.2079 108.858C73.1516 108.184 71.8039 108.402 71.2029 109.35C70.5836 110.298 70.9661 111.611 72.0224 112.286Z" fill="#FDAD9B"/>
<path d="M77.9054 106.979C77.9054 106.979 77.2315 113.287 78.5064 114.491C79.7813 115.676 88.2683 116.204 92.2205 114.673C92.2933 118.72 89.4339 122.312 85.4272 122.986C84.0977 123.205 82.7317 123.205 81.384 122.968C78.6157 122.476 75.9202 121.346 74.7729 118.757C74.4268 117.973 75.4285 113.16 75.4285 113.16C75.4285 113.16 75.811 110.334 74.1719 108.857C74.1901 108.857 76.0842 107.162 77.9054 106.979Z" fill="#66192D"/>
<path d="M90.1439 116.934C90.1439 116.934 86.902 117.809 83.3506 117.462C83.3506 117.462 83.8788 120.744 87.4666 120.088C89.5429 119.723 90.1439 116.934 90.1439 116.934Z" fill="white"/>
<path d="M90.9996 92.578C89.4333 92.578 89.2876 91.2289 89.2876 91.2106L89.579 91.1924L89.4333 91.2106L89.579 91.1924C89.579 91.2471 89.7065 92.341 91.0724 92.3045V92.5962C91.0542 92.578 91.0178 92.578 90.9996 92.578Z" fill="#66192D"/>
<path d="M88.177 101.674L88.1406 101.547C88.2135 101.529 94.5514 99.6508 94.8064 96.3875C94.8792 95.4577 94.7336 94.8561 94.3329 94.5097C93.6954 93.9627 92.5663 94.2362 91.5464 94.4732C91.3824 94.5097 91.2367 94.5461 91.091 94.5826L91.0546 94.4367C91.2003 94.4003 91.346 94.3638 91.5099 94.3274C92.5481 94.0903 93.7319 93.8169 94.4239 94.4003C94.861 94.7649 95.0249 95.4212 94.9521 96.3875C94.8428 97.7913 93.6226 99.1404 91.4553 100.325C89.8162 101.201 88.1953 101.674 88.177 101.674Z" fill="white"/>
<path d="M75.6827 95.058C75.0816 95.058 74.4442 95.0215 73.7886 94.9303L73.8068 94.7845C79.9991 95.6231 82.9677 92.141 83.0041 92.1045L83.1134 92.1956C83.077 92.2321 80.6729 95.058 75.6827 95.058Z" fill="white"/>
<path d="M71.4574 129.97C71.4574 129.97 73.6612 125.504 75.3914 126.123C76.3748 126.47 77.2672 129.715 80.163 130.718C83.0588 131.72 82.8221 132.14 82.7674 133.088C82.7128 134.036 83.0953 137.317 81.8204 137.445C80.5273 137.591 70.6197 135.585 71.4574 129.97Z" fill="#036D4B"/>
<path d="M82.4588 127.454C82.4406 127.18 82.732 126.998 82.9687 127.107C83.8976 127.509 86.3016 128.694 87.1758 130.371C88.2868 132.449 86.848 136.77 85.7553 136.861C84.6807 136.952 82.2949 132.504 82.5317 131.902C82.7684 131.319 83.2602 129.915 82.9506 129.168C82.7502 128.675 82.477 127.946 82.4588 127.454Z" fill="#036D4B"/>
<path d="M267.295 102.167C265.31 99.1045 261.157 97.2267 260.848 93.5987C260.739 92.2496 261.176 90.7729 260.484 89.6061C259.719 88.3299 257.952 88.1294 256.477 88.2752C254.856 88.4393 253.126 88.9316 252.124 90.226C250.867 91.8485 251.141 94.1457 250.74 96.1693C249.775 101.037 244.985 104.045 240.614 106.379C238.337 107.6 235.951 108.876 234.585 111.064C232.254 114.747 233.529 119.542 233.347 123.899C233.201 127.363 232.017 130.754 230.014 133.58C228.83 135.239 227.61 136.861 226.28 138.411C223.931 141.127 224.933 144.774 228.339 145.284C230.251 145.576 232.127 144.846 232.892 143.589C235.314 139.669 242.417 139.322 245.058 138.94C247.698 138.557 250.467 137.244 251.468 134.765C252.415 132.431 251.541 129.769 251.924 127.272C252.452 123.826 255.257 121.237 257.897 118.94C260.156 116.971 262.414 115.02 264.673 113.051C265.711 112.14 266.785 111.21 267.514 110.025C268.952 107.691 268.807 104.501 267.295 102.167ZM260.593 110.298C258.189 112.978 254.382 113.215 251.25 114.492C248.809 115.494 246.697 116.698 243.947 116.57C242.162 116.479 239.976 115.95 239.922 113.817C239.831 110.134 244.821 109.496 247.407 109.332C249.01 109.241 250.685 109.113 252.124 108.402C253.199 107.874 254.109 107.017 254.71 105.996C255.129 105.285 255.402 104.483 255.985 103.918C256.368 103.535 256.859 103.279 257.387 103.134C258.917 102.714 260.666 103.425 261.485 104.793C262.505 106.488 261.922 108.804 260.593 110.298Z" fill="#036D4B"/>
<path d="M213.349 148.822C213.349 148.822 217.046 174.819 219.742 175.056C222.437 175.293 232.563 175.84 235.659 175.056C238.755 174.272 240.449 148.457 239.593 147.819C238.755 147.199 212.22 145.868 213.349 148.822Z" fill="#FF443C"/>
<path d="M238.811 164.554L237.608 162.184C240.923 160.489 245.804 157.189 246.241 155.147C246.296 154.874 246.259 154.673 246.096 154.454C244.784 152.814 242.599 153.36 241.888 153.525C240.268 153.926 238.92 154.746 238.92 154.746L237.536 152.485C237.608 152.449 239.229 151.446 241.269 150.936C245.021 150.006 247.097 151.428 248.19 152.777C248.864 153.616 249.101 154.618 248.864 155.676C248.463 157.517 246.66 159.523 243.364 161.802C241.051 163.406 238.902 164.5 238.811 164.554Z" fill="#FF443C"/>
<path d="M221.964 161.491C221.071 156.678 225.533 154.764 228.957 154.764C232.381 154.764 234.931 157.243 234.931 160.652C234.931 164.08 231.58 167.671 228.156 167.671C224.732 167.69 222.583 164.864 221.964 161.491Z" fill="#FFC700"/>
<path d="M227.428 166.852C225.789 166.852 224.314 166.196 223.185 164.975C222.147 163.862 221.436 162.331 221.109 160.544C220.781 158.794 221.127 157.299 222.129 156.096C223.64 154.273 226.281 153.635 228.248 153.635C231.799 153.635 234.367 156.169 234.367 159.688C234.349 163.243 230.852 166.852 227.428 166.852ZM228.23 153.926C226.336 153.926 223.786 154.546 222.329 156.278C221.4 157.409 221.072 158.812 221.382 160.471C221.691 162.203 222.384 163.68 223.385 164.756C224.46 165.923 225.862 166.542 227.428 166.542C230.707 166.542 234.058 163.079 234.058 159.669C234.058 156.351 231.599 153.926 228.23 153.926Z" fill="white"/>
<path d="M138.024 71.9041C109.831 72.1411 104.895 77.6469 106.371 84.2101C106.972 86.8719 109.212 90.5728 113.965 93.2163C111.907 97.3548 108.556 98.5216 108.556 98.5216C113.601 99.1232 118.682 96.5344 120.321 95.6046C123.618 96.3703 127.606 96.6985 132.378 96.3338C150.463 94.9665 170.916 71.6124 138.024 71.9041Z" fill="#FFC700"/>
<path d="M161.736 100.983C162.355 95.5865 165.833 93.2529 165.833 93.2529C161.135 93.891 157.11 97.2273 155.489 98.7405C150.153 97.7013 143.013 97.9748 134.472 100.655C103.073 110.481 126.003 120.344 140.099 120.381C158.239 120.436 164.996 113.216 166.107 108.239C166.671 105.668 165.105 102.952 161.736 100.983Z" fill="#FFC700"/>
</svg>
