<svg width="512" height="512" viewBox="0 0 512 512" fill="none"
  xmlns="http://www.w3.org/2000/svg">
  <rect width="512" height="512" fill="#08C284"/>
  <path d="M400.032 76.0337C380.127 76.0337 363.902 92.2816 363.902 112.215C284.617 52.4156 171.878 68.3285 112.164 147.725C52.4488 227.122 68.3393 340.02 147.624 399.819C211.688 448.06 299.839 448.06 363.735 399.819C364.07 419.92 380.462 435.833 400.367 435.665C420.272 435.497 436.329 418.915 435.995 398.982V112.382C436.162 92.2815 420.104 76.0337 400.032 76.0337ZM255.847 363.638C196.467 363.638 148.461 315.565 148.461 256.101C148.461 196.637 196.634 148.563 255.847 148.563C315.06 148.563 363.233 196.637 363.233 256.101C363.233 315.397 315.227 363.471 255.847 363.638Z" fill="white"/>
</svg>
