<svg width="126" height="47" viewBox="0 0 126 47" fill="none" xmlns="http://www.w3.org/2000/svg">
<g clip-path="url(#clip0_2149_154075)">
<path fill-rule="evenodd" clip-rule="evenodd" d="M37.9325 4.18694C39.355 3.58028 40.9999 4.24159 41.6065 5.66403L42.0615 6.73085L43.1283 6.27585C44.5508 5.66919 46.1957 6.33051 46.8023 7.75294C47.409 9.17537 46.7477 10.8203 45.3253 11.4269L39.1073 14.0788L36.4554 7.86093C35.8488 6.4385 36.5101 4.7936 37.9325 4.18694Z" fill="#00C081"/>
</g>
<path d="M16 41C7.16574 41 0 33.8343 0 25C0 16.1657 7.16574 9 16 9C24.8343 9 31.9851 16.1508 32 24.9851C31.9851 33.8194 24.8343 40.9851 16 41ZM16 15.3911C10.7263 15.3762 6.43576 19.6369 6.42086 24.9106C6.40596 30.1844 10.6667 34.4749 15.9404 34.4898C21.2142 34.5047 25.5047 30.2588 25.5196 24.9851C25.5196 19.7263 21.2589 15.4655 16 15.4358V15.3911Z" fill="#00C081"/>
<path d="M28.8566 40.9107C27.0837 40.9107 25.6387 39.4656 25.6387 37.6928V12.2179C25.6387 10.4451 27.0837 9 28.8566 9C30.6294 9 32.0744 10.4451 32.0744 12.2179V37.6928C32.0744 39.4656 30.6443 40.9107 28.8715 40.9256C28.8715 40.9107 28.8715 40.9107 28.8566 40.9107Z" fill="#00C081"/>
<path d="M45.309 30.144C44.4663 30.144 43.6823 30.048 42.957 29.856C42.2317 29.6533 41.6397 29.3707 41.181 29.008C41.021 28.8907 40.9037 28.768 40.829 28.64C40.765 28.5013 40.733 28.3307 40.733 28.128C40.733 27.8613 40.813 27.6267 40.973 27.424C41.1437 27.2213 41.3357 27.12 41.549 27.12C41.6663 27.12 41.7783 27.1413 41.885 27.184C42.0023 27.216 42.141 27.28 42.301 27.376C42.7597 27.664 43.2237 27.8773 43.693 28.016C44.1623 28.144 44.6797 28.208 45.245 28.208C45.949 28.208 46.4877 28.0907 46.861 27.856C47.2343 27.6213 47.421 27.2853 47.421 26.848C47.421 26.5173 47.245 26.2507 46.893 26.048C46.5517 25.8453 45.9383 25.6533 45.053 25.472C44.061 25.2693 43.2663 25.024 42.669 24.736C42.0823 24.448 41.6503 24.0907 41.373 23.664C41.1063 23.2373 40.973 22.72 40.973 22.112C40.973 21.44 41.165 20.8373 41.549 20.304C41.9437 19.76 42.4823 19.3387 43.165 19.04C43.8583 18.7307 44.637 18.576 45.501 18.576C47.0157 18.576 48.2637 18.9547 49.245 19.712C49.405 19.84 49.517 19.9733 49.581 20.112C49.6557 20.24 49.693 20.4 49.693 20.592C49.693 20.8587 49.6077 21.0933 49.437 21.296C49.277 21.4987 49.0903 21.6 48.877 21.6C48.7597 21.6 48.6477 21.584 48.541 21.552C48.445 21.52 48.3063 21.4507 48.125 21.344C47.6877 21.0667 47.2823 20.8587 46.909 20.72C46.5463 20.5813 46.0823 20.512 45.517 20.512C44.8663 20.512 44.3543 20.64 43.981 20.896C43.6077 21.1413 43.421 21.4827 43.421 21.92C43.421 22.176 43.4903 22.3893 43.629 22.56C43.7783 22.72 44.0183 22.864 44.349 22.992C44.6903 23.12 45.1703 23.2533 45.789 23.392C47.2397 23.712 48.2797 24.1227 48.909 24.624C49.549 25.1253 49.869 25.8133 49.869 26.688C49.869 27.3707 49.677 27.9733 49.293 28.496C48.9197 29.0187 48.3863 29.424 47.693 29.712C47.0103 30 46.2157 30.144 45.309 30.144ZM55.2885 30.08C54.9152 30.08 54.6112 29.968 54.3765 29.744C54.1525 29.52 54.0405 29.2213 54.0405 28.848V20.752H51.4485C50.6592 20.752 50.2645 20.4107 50.2645 19.728C50.2645 19.056 50.6592 18.72 51.4485 18.72H59.1285C59.9178 18.72 60.3125 19.056 60.3125 19.728C60.3125 20.4107 59.9178 20.752 59.1285 20.752H56.5365V28.848C56.5365 29.2213 56.4245 29.52 56.2005 29.744C55.9765 29.968 55.6725 30.08 55.2885 30.08ZM66.1696 30.144C64.591 30.144 63.3856 29.7387 62.5536 28.928C61.7323 28.1067 61.3216 26.912 61.3216 25.344V19.872C61.3216 19.4987 61.4336 19.2 61.6576 18.976C61.8816 18.752 62.1803 18.64 62.5536 18.64C62.927 18.64 63.2203 18.752 63.4336 18.976C63.6576 19.2 63.7696 19.4987 63.7696 19.872V25.456C63.7696 26.352 63.9723 27.0347 64.3776 27.504C64.7936 27.9733 65.391 28.208 66.1696 28.208C66.9483 28.208 67.5456 27.9733 67.9616 27.504C68.3776 27.024 68.5856 26.3413 68.5856 25.456V19.872C68.5856 19.4987 68.6923 19.2 68.9056 18.976C69.1296 18.752 69.4283 18.64 69.8016 18.64C70.175 18.64 70.4736 18.752 70.6976 18.976C70.9216 19.2 71.0336 19.4987 71.0336 19.872V25.344C71.0336 26.9013 70.6176 28.0907 69.7856 28.912C68.9536 29.7333 67.7483 30.144 66.1696 30.144ZM74.3818 30C74.0084 30 73.7204 29.8987 73.5178 29.696C73.3151 29.4933 73.2138 29.2053 73.2138 28.832V19.888C73.2138 19.5147 73.3151 19.2267 73.5178 19.024C73.7204 18.8213 74.0084 18.72 74.3818 18.72H77.5978C78.8244 18.72 79.8804 18.944 80.7658 19.392C81.6511 19.84 82.3284 20.4853 82.7978 21.328C83.2671 22.1707 83.5018 23.1787 83.5018 24.352C83.5018 25.5253 83.2671 26.5387 82.7978 27.392C82.3391 28.2347 81.6671 28.88 80.7818 29.328C79.8964 29.776 78.8351 30 77.5978 30H74.3818ZM77.4218 27.984C79.8218 27.984 81.0218 26.7733 81.0218 24.352C81.0218 21.9413 79.8218 20.736 77.4218 20.736H75.7098V27.984H77.4218ZM86.5849 30C86.2115 30 85.9235 29.8987 85.7209 29.696C85.5182 29.4933 85.4169 29.2053 85.4169 28.832V19.888C85.4169 19.5147 85.5182 19.2267 85.7209 19.024C85.9235 18.8213 86.2115 18.72 86.5849 18.72H92.2489C93.0382 18.72 93.4329 19.04 93.4329 19.68C93.4329 20.3307 93.0382 20.656 92.2489 20.656H87.8489V23.296H91.9289C92.7182 23.296 93.1129 23.6213 93.1129 24.272C93.1129 24.912 92.7182 25.232 91.9289 25.232H87.8489V28.064H92.2489C93.0382 28.064 93.4329 28.3893 93.4329 29.04C93.4329 29.68 93.0382 30 92.2489 30H86.5849ZM103.509 18.64C103.861 18.64 104.144 18.7573 104.357 18.992C104.581 19.216 104.693 19.5093 104.693 19.872V28.848C104.693 29.2213 104.581 29.5253 104.357 29.76C104.144 29.984 103.861 30.096 103.509 30.096C103.125 30.096 102.816 29.9573 102.581 29.68L97.2213 22.816V28.848C97.2213 29.2213 97.1146 29.5253 96.9013 29.76C96.6986 29.984 96.4213 30.096 96.0693 30.096C95.7173 30.096 95.4346 29.984 95.2213 29.76C95.0079 29.5253 94.9013 29.2213 94.9013 28.848V19.872C94.9013 19.5093 95.0079 19.216 95.2213 18.992C95.4453 18.7573 95.7333 18.64 96.0853 18.64C96.4799 18.64 96.7839 18.7787 96.9973 19.056L102.357 25.872V19.872C102.357 19.5093 102.464 19.216 102.677 18.992C102.891 18.7573 103.168 18.64 103.509 18.64ZM110.789 30.08C110.415 30.08 110.111 29.968 109.877 29.744C109.653 29.52 109.541 29.2213 109.541 28.848V20.752H106.949C106.159 20.752 105.764 20.4107 105.764 19.728C105.764 19.056 106.159 18.72 106.949 18.72H114.628C115.418 18.72 115.812 19.056 115.812 19.728C115.812 20.4107 115.418 20.752 114.628 20.752H112.037V28.848C112.037 29.2213 111.925 29.52 111.701 29.744C111.477 29.968 111.173 30.08 110.789 30.08ZM120.637 30.144C119.794 30.144 119.01 30.048 118.285 29.856C117.56 29.6533 116.968 29.3707 116.509 29.008C116.349 28.8907 116.232 28.768 116.157 28.64C116.093 28.5013 116.061 28.3307 116.061 28.128C116.061 27.8613 116.141 27.6267 116.301 27.424C116.472 27.2213 116.664 27.12 116.877 27.12C116.994 27.12 117.106 27.1413 117.213 27.184C117.33 27.216 117.469 27.28 117.629 27.376C118.088 27.664 118.552 27.8773 119.021 28.016C119.49 28.144 120.008 28.208 120.573 28.208C121.277 28.208 121.816 28.0907 122.189 27.856C122.562 27.6213 122.749 27.2853 122.749 26.848C122.749 26.5173 122.573 26.2507 122.221 26.048C121.88 25.8453 121.266 25.6533 120.381 25.472C119.389 25.2693 118.594 25.024 117.997 24.736C117.41 24.448 116.978 24.0907 116.701 23.664C116.434 23.2373 116.301 22.72 116.301 22.112C116.301 21.44 116.493 20.8373 116.877 20.304C117.272 19.76 117.81 19.3387 118.493 19.04C119.186 18.7307 119.965 18.576 120.829 18.576C122.344 18.576 123.592 18.9547 124.573 19.712C124.733 19.84 124.845 19.9733 124.909 20.112C124.984 20.24 125.021 20.4 125.021 20.592C125.021 20.8587 124.936 21.0933 124.765 21.296C124.605 21.4987 124.418 21.6 124.205 21.6C124.088 21.6 123.976 21.584 123.869 21.552C123.773 21.52 123.634 21.4507 123.453 21.344C123.016 21.0667 122.61 20.8587 122.237 20.72C121.874 20.5813 121.41 20.512 120.845 20.512C120.194 20.512 119.682 20.64 119.309 20.896C118.936 21.1413 118.749 21.4827 118.749 21.92C118.749 22.176 118.818 22.3893 118.957 22.56C119.106 22.72 119.346 22.864 119.677 22.992C120.018 23.12 120.498 23.2533 121.117 23.392C122.568 23.712 123.608 24.1227 124.237 24.624C124.877 25.1253 125.197 25.8133 125.197 26.688C125.197 27.3707 125.005 27.9733 124.621 28.496C124.248 29.0187 123.714 29.424 123.021 29.712C122.338 30 121.544 30.144 120.637 30.144Z" fill="#00C081"/>
<defs>
<clipPath id="clip0_2149_154075">
<rect width="14" height="14" fill="white" transform="translate(37.2227) rotate(21.902)"/>
</clipPath>
</defs>
</svg>
