<svg width="40" height="40" viewBox="0 0 40 40" fill="none" xmlns="http://www.w3.org/2000/svg">
<path d="M40 7.5V35C40 36.3261 39.4732 37.5979 38.5355 38.5355C37.5979 39.4732 36.3261 40 35 40H5C3.67392 40 2.40215 39.4732 1.46447 38.5355C0.526784 37.5979 0 36.3261 0 35V5C0 3.67392 0.526784 2.40215 1.46447 1.46447C2.40215 0.526784 3.67392 0 5 0H35C36.3261 0 37.5979 0.526784 38.5355 1.46447C39.4732 2.40215 40 3.67392 40 5V7.5ZM37.5 7.5V5C37.5 4.33696 37.2366 3.70107 36.7678 3.23223C36.2989 2.76339 35.663 2.5 35 2.5H5C4.33696 2.5 3.70107 2.76339 3.23223 3.23223C2.76339 3.70107 2.5 4.33696 2.5 5V7.5H37.5ZM37.5 10H2.5V35C2.5 35.663 2.76339 36.2989 3.23223 36.7678C3.70107 37.2366 4.33696 37.5 5 37.5H35C35.663 37.5 36.2989 37.2366 36.7678 36.7678C37.2366 36.2989 37.5 35.663 37.5 35V10ZM11.25 17.5C11.5815 17.5 11.8995 17.6317 12.1339 17.8661C12.3683 18.1005 12.5 18.4185 12.5 18.75C12.5 19.0815 12.3683 19.3995 12.1339 19.6339C11.8995 19.8683 11.5815 20 11.25 20H6.24C5.90848 20 5.59054 19.8683 5.35612 19.6339C5.1217 19.3995 4.99 19.0815 4.99 18.75C4.99 18.4185 5.1217 18.1005 5.35612 17.8661C5.59054 17.6317 5.90848 17.5 6.24 17.5H11.25ZM33.75 17.5C34.0815 17.5 34.3995 17.6317 34.6339 17.8661C34.8683 18.1005 35 18.4185 35 18.75C35 19.0815 34.8683 19.3995 34.6339 19.6339C34.3995 19.8683 34.0815 20 33.75 20H18.75C18.4185 20 18.1005 19.8683 17.8661 19.6339C17.6317 19.3995 17.5 19.0815 17.5 18.75C17.5 18.4185 17.6317 18.1005 17.8661 17.8661C18.1005 17.6317 18.4185 17.5 18.75 17.5H33.75ZM11.25 27.5C11.5815 27.5 11.8995 27.6317 12.1339 27.8661C12.3683 28.1005 12.5 28.4185 12.5 28.75C12.5 29.0815 12.3683 29.3995 12.1339 29.6339C11.8995 29.8683 11.5815 30 11.25 30H6.24C5.90848 30 5.59054 29.8683 5.35612 29.6339C5.1217 29.3995 4.99 29.0815 4.99 28.75C4.99 28.4185 5.1217 28.1005 5.35612 27.8661C5.59054 27.6317 5.90848 27.5 6.24 27.5H11.25ZM33.75 27.5C34.0815 27.5 34.3995 27.6317 34.6339 27.8661C34.8683 28.1005 35 28.4185 35 28.75C35 29.0815 34.8683 29.3995 34.6339 29.6339C34.3995 29.8683 34.0815 30 33.75 30H18.75C18.4185 30 18.1005 29.8683 17.8661 29.6339C17.6317 29.3995 17.5 29.0815 17.5 28.75C17.5 28.4185 17.6317 28.1005 17.8661 27.8661C18.1005 27.6317 18.4185 27.5 18.75 27.5H33.75Z" fill="#14B24C"/>
</svg>
