<svg width="154" height="40" viewBox="0 0 154 40" fill="none" xmlns="http://www.w3.org/2000/svg">
<path d="M11.0286 26.3046C4.97321 26.3046 0.0615234 21.3929 0.0615234 15.3375C0.0615234 9.28219 4.97321 4.3705 11.0286 4.3705C17.084 4.3705 21.9854 9.27197 21.9956 15.3273C21.9854 21.3827 17.084 26.2944 11.0286 26.3046ZM11.0286 8.75119C7.41374 8.74098 4.47286 11.6614 4.46264 15.2763C4.45243 18.8911 7.3729 21.832 10.9877 21.8422C14.6026 21.8524 17.5435 18.9422 17.5537 15.3273C17.5537 11.7227 14.6332 8.80225 11.0286 8.78183V8.75119Z" fill="#00C081"/>
<path d="M74.5334 26.325C68.478 26.3454 63.5561 21.4439 63.5357 15.3886C63.5153 9.3332 68.4168 4.41129 74.4721 4.39087C80.5275 4.37045 85.4494 9.27193 85.4698 15.3273C85.4698 15.3375 85.4698 15.3477 85.4698 15.3579C85.4596 21.4031 80.5683 26.2944 74.5334 26.325ZM74.5334 8.77157C70.9186 8.77157 67.9879 11.7022 67.9879 15.3171C67.9879 18.9319 70.9186 21.8626 74.5334 21.8626C78.1482 21.8626 81.0789 18.9319 81.0789 15.3171C81.0585 11.7125 78.138 8.8022 74.5334 8.8022V8.77157Z" fill="#00C081"/>
<path d="M116.114 26.325C110.059 26.325 105.137 21.4235 105.137 15.3579C105.137 9.30258 110.038 4.38068 116.104 4.38068C122.159 4.38068 127.081 9.28216 127.081 15.3477V15.3579C127.071 16.5731 126.08 17.5534 124.865 17.5432H109.936C111.151 20.9538 114.899 22.7306 118.309 21.5154C118.83 21.3316 119.331 21.0763 119.79 20.7598C120.801 20.0756 122.169 20.3309 122.854 21.3418C123.538 22.3528 123.282 23.7211 122.271 24.4053C120.474 25.6613 118.32 26.325 116.114 26.325ZM109.946 13.1421H122.282C121.056 9.73146 117.309 7.96488 113.898 9.19025C112.06 9.85399 110.61 11.304 109.946 13.1421Z" fill="#00C081"/>
<path d="M142.388 26.325C136.333 26.3148 131.421 21.3929 131.431 15.3375C131.441 9.28217 136.363 4.37048 142.419 4.38069C148.474 4.3909 153.376 9.30259 153.376 15.358C153.365 16.5731 152.375 17.5534 151.16 17.5432H151.149H136.22C137.446 20.9538 141.203 22.7204 144.604 21.495C145.125 21.3112 145.615 21.0559 146.074 20.7496C147.085 20.0654 148.464 20.3207 149.148 21.3419C149.832 22.3528 149.577 23.7313 148.556 24.4155C146.738 25.6613 144.594 26.325 142.388 26.325ZM136.22 13.1421H148.556C147.33 9.73147 143.583 7.9649 140.172 9.19027C138.334 9.85401 136.884 11.304 136.22 13.1421Z" fill="#00C081"/>
<path d="M46.1148 14.3164H41.6933C41.6933 11.2836 39.2425 8.83289 36.2098 8.83289C33.177 8.83289 30.7262 11.2836 30.7262 14.3164H26.3047C26.6723 8.85331 31.4104 4.71769 36.8735 5.09551C41.826 5.42227 45.7676 9.36388 46.1148 14.3164Z" fill="#00C081"/>
<path d="M59.1344 26.3454C54.6925 26.3454 51.0981 22.751 51.0776 18.309C51.0776 17.0939 52.0681 16.1034 53.2833 16.1034C54.4985 16.1034 55.489 17.0939 55.489 18.309C55.489 20.3207 57.1228 21.9443 59.1242 21.9443C60.3394 21.9443 61.3299 22.9348 61.3299 24.15C61.3299 25.3651 60.3394 26.3556 59.1242 26.3556V26.3454H59.1344Z" fill="#00C081"/>
<path d="M92.0357 17.5432C90.8206 17.5432 89.8301 16.5527 89.8301 15.3375C89.8505 9.25153 94.7928 4.31942 100.879 4.3092C102.094 4.3092 103.084 5.29971 103.084 6.51487C103.084 7.73003 102.094 8.72054 100.879 8.72054C97.2129 8.72054 94.2414 11.6921 94.2414 15.358C94.221 16.5833 93.2407 17.5432 92.0357 17.5432Z" fill="#00C081"/>
<path d="M19.8409 26.2434C18.6258 26.2434 17.6353 25.2528 17.6353 24.0377V6.57617C17.6353 5.36101 18.6258 4.3705 19.8409 4.3705C21.0561 4.3705 22.0466 5.36101 22.0466 6.57617V24.0377C22.0466 25.2528 21.0663 26.2434 19.8511 26.2536C19.8511 26.2434 19.8511 26.2434 19.8409 26.2434Z" fill="#00C081"/>
<path d="M28.5309 26.2944C27.3157 26.2944 26.3252 25.3039 26.3252 24.0887V6.62721C26.3252 5.41205 27.3157 4.42154 28.5309 4.42154C29.746 4.42154 30.7365 5.41205 30.7365 6.62721V24.0887C30.7365 25.3039 29.7562 26.2944 28.5309 26.2944Z" fill="#00C081"/>
<path d="M92.0357 26.2434C90.8206 26.2434 89.8301 25.2528 89.8301 24.0377V6.57617C89.8301 5.36101 90.8206 4.3705 92.0357 4.3705C93.2509 4.3705 94.2516 5.3508 94.2516 6.57617V24.0377C94.2516 25.2528 93.2713 26.2434 92.0562 26.2536C92.046 26.2434 92.0357 26.2434 92.0357 26.2434Z" fill="#00C081"/>
<path d="M53.2833 20.5045C52.0681 20.5045 51.0878 19.5242 51.0776 18.3193V2.20567C51.0776 0.990507 52.0681 0 53.2833 0C54.4985 0 55.489 0.990507 55.489 2.20567V18.3091C55.489 19.5242 54.4985 20.5045 53.2833 20.5045Z" fill="#00C081"/>
<path d="M43.899 26.2944C42.6839 26.2944 41.6934 25.3038 41.6934 24.0887V13.9385C41.6934 12.7234 42.6839 11.7329 43.899 11.7329C45.1142 11.7329 46.1047 12.7234 46.1047 13.9385V24.0887C46.1149 25.3038 45.1244 26.2944 43.899 26.2944C43.899 26.2944 43.9092 26.2944 43.899 26.2944Z" fill="#00C081"/>
<path d="M59.1652 8.79201H50.3629C49.1477 8.79201 48.1572 7.8015 48.1572 6.58634C48.1572 5.37118 49.1477 4.38068 50.3629 4.38068H59.1345C60.3497 4.38068 61.3402 5.37118 61.3402 6.58634C61.3402 7.8015 60.3497 8.79201 59.1345 8.79201H59.1652Z" fill="#00C081"/>
<path d="M0 33.5751C0 33.4322 0.0714799 33.2892 0.183805 33.1973C0.306342 33.1054 0.449302 33.0544 0.602473 33.0646C0.857759 33.0237 1.09262 33.1871 1.14368 33.4424C1.15389 33.4934 1.15389 33.5343 1.14368 33.5853V34.5861C1.14368 34.7188 1.14368 34.8618 1.14368 35.0047C1.14368 35.1477 1.14368 35.2804 1.14368 35.3928V38.9259H2.18524L3.61484 38.8749C3.94161 38.8749 4.10499 39.028 4.10499 39.3446C4.10499 39.6611 3.93139 39.8552 3.58421 39.9164H1.59298H1.04156C0.786279 39.9369 0.520782 39.9062 0.275708 39.8143C0.112326 39.6816 0.0204228 39.4875 0.0204228 39.2833V38.9055C0.0204228 38.6298 0.0204228 38.2009 0.0204228 37.6393C0.0204228 37.0777 0.0204228 36.6794 0.0204228 36.4445V33.5956H0V33.5751Z" fill="white"/>
<path d="M5.62645 33.5751C5.62645 33.2382 5.86131 33.0646 6.33104 33.0646H9.24129C9.59869 33.0646 9.7825 33.2177 9.7825 33.5241C9.7825 33.8304 9.68038 33.9938 9.46594 34.0244H6.70886V36.0361H7.11732H8.74093C8.90431 36.0259 9.0677 36.0565 9.21066 36.128C9.31277 36.1893 9.36383 36.3118 9.3434 36.5058C9.3434 36.8224 9.16981 36.9755 8.82262 36.9755H6.69865C6.69865 37.0368 6.69865 37.1287 6.69865 37.2308V38.8749C6.96414 38.8749 7.73 38.8749 8.986 38.8749H9.30256H9.46594C9.76207 38.8749 9.90503 39.0382 9.90503 39.365C9.90503 39.6918 9.72123 39.8756 9.3434 39.9062H6.64759C6.36167 39.9266 6.07575 39.8858 5.81025 39.7837C5.64687 39.6611 5.56518 39.4671 5.5856 39.2629V33.5649H5.62645V33.5751Z" fill="white"/>
<path d="M10.8447 39.4263C10.8651 39.222 10.9162 39.028 11.0081 38.8544L11.9986 36.5671L13.2342 33.5139C13.3363 33.2586 13.5916 33.0952 13.8673 33.1258C14.1634 33.0952 14.4391 33.2586 14.5413 33.5343L14.7863 34.147C14.8987 34.4227 15.0314 34.7699 15.1948 35.1885C15.5113 36.0259 15.736 36.5875 15.8585 36.8734L15.93 37.0062C15.9606 37.0674 15.9913 37.1287 16.0117 37.19C16.3385 38.0273 16.604 38.6808 16.8184 39.171C16.8695 39.2833 16.9001 39.4058 16.9103 39.5284C16.9001 39.6509 16.8286 39.7734 16.7265 39.8449C16.604 39.947 16.4508 39.9981 16.2976 39.9981C16.1751 40.0083 16.0525 39.9777 15.9504 39.9062C15.8483 39.8245 15.7768 39.7122 15.736 39.5896C15.4194 38.7115 15.2561 38.2315 15.2561 38.1498H12.5194L12.4479 38.3438L12.305 38.7523L12.1518 39.171C12.1109 39.2833 12.0701 39.3752 12.0395 39.4569C11.9884 39.5896 11.9169 39.702 11.825 39.8041C11.7433 39.8858 11.631 39.9164 11.5085 39.9062C11.3451 39.9062 11.1919 39.8653 11.0592 39.7734C10.9366 39.6815 10.8549 39.5386 10.8651 39.3854L10.8447 39.4263ZM13.8979 34.4329C13.8571 34.5758 13.7448 34.8822 13.5712 35.3519L12.8462 37.3023H13.9898H14.9191L13.9081 34.4533L13.8979 34.4329Z" fill="white"/>
<path d="M18.3906 33.7589C18.3906 33.3403 18.6459 33.1258 19.1565 33.1054H19.6262H20.7903C21.403 33.1054 21.985 33.3198 22.4548 33.7079C22.8836 34.0959 23.1185 34.6575 23.0879 35.2294C23.0981 35.6583 22.9755 36.0667 22.7305 36.4241C22.4956 36.7611 22.1586 37.0062 21.7808 37.1287L23.2104 39.0587C23.3023 39.1608 23.3534 39.2833 23.3636 39.4161C23.3636 39.559 23.2921 39.6918 23.1798 39.7735C23.0675 39.8756 22.9245 39.9266 22.7713 39.9266C22.5773 39.9266 22.3935 39.8245 22.2914 39.6611L20.7699 37.3738H19.5343V39.2935C19.5343 39.6713 19.3811 39.8756 19.0646 39.8858C18.891 39.9164 18.7072 39.8756 18.5642 39.7632C18.4519 39.6305 18.411 39.4569 18.4417 39.2833C18.4417 39.0689 18.4417 38.5889 18.4417 37.8231V34.535C18.4417 34.4533 18.4417 34.3512 18.4417 34.2389C18.4417 34.1265 18.4417 34.0244 18.4417 33.9427V33.7283L18.3906 33.7589ZM20.5452 34.0551H19.9938H19.4628V36.4752H20.4635C20.8516 36.4956 21.2294 36.3935 21.546 36.179C21.8319 35.9544 21.985 35.6072 21.9646 35.2396C22.0055 34.9026 21.8727 34.5656 21.6174 34.341C21.3213 34.1368 20.9639 34.0346 20.6065 34.0551H20.5452Z" fill="white"/>
<path d="M26.0496 39.2935C26.0496 39.702 25.876 39.9164 25.5186 39.9164C25.1612 39.9164 24.9672 39.753 24.9365 39.4161V38.4868C24.9365 38.0784 24.9365 37.5474 24.9365 36.9143V33.5751C24.9365 33.4322 25.008 33.2994 25.1305 33.2177C25.2735 33.1258 25.4369 33.0748 25.6003 33.085C25.733 33.0748 25.876 33.1258 25.9781 33.2075C26.1006 33.3198 26.213 33.4424 26.3049 33.5853L28.6433 36.8836L29.4398 38.0273C29.4398 37.6801 29.4398 37.3329 29.4398 36.996C29.4398 36.659 29.4398 36.322 29.4398 35.985V33.7794C29.4193 33.5956 29.4602 33.4117 29.5521 33.2484C29.6644 33.1156 29.838 33.0441 30.0116 33.0646C30.369 33.0646 30.5426 33.279 30.5426 33.7079V37.0674C30.5426 37.4248 30.5426 37.8027 30.5426 38.1805C30.5426 38.5583 30.5426 38.9566 30.5426 39.3752C30.5426 39.5284 30.4711 39.6714 30.3486 39.7633C30.2056 39.8654 30.0422 39.9164 29.8686 39.9164C29.7461 39.9266 29.6236 39.8858 29.5215 39.8143C29.3989 39.702 29.2866 39.5692 29.1947 39.4365L25.9985 34.8618C25.9985 34.9639 25.9985 35.3928 25.9985 36.1178C26.0189 36.8326 26.0291 37.8946 26.0496 39.2935Z" fill="white"/>
<path d="M35.556 33.5751C35.556 33.2382 35.7909 33.0646 36.2606 33.0646H39.1708C39.5282 33.0646 39.712 33.2177 39.712 33.5241C39.712 33.8304 39.6099 33.9938 39.3955 34.0244H36.618V36.0361H37.0265H38.6501C38.8134 36.0259 38.9768 36.0565 39.1198 36.128C39.2219 36.1893 39.273 36.3118 39.2525 36.5058C39.2525 36.8224 39.0789 36.9755 38.7318 36.9755H36.6078C36.6078 37.0368 36.6078 37.1287 36.6078 37.2308V38.8749C36.8733 38.8749 37.6391 38.8749 38.8951 38.8749H39.2117H39.3751C39.6712 38.8749 39.8142 39.0382 39.8142 39.365C39.8142 39.6918 39.6304 39.8756 39.2525 39.9062H36.5465C36.2606 39.9266 35.9747 39.8858 35.7092 39.7837C35.5458 39.6611 35.4641 39.4671 35.4845 39.2629V33.5649H35.556V33.5751Z" fill="white"/>
<path d="M42.469 39.2935C42.469 39.702 42.2954 39.9164 41.938 39.9164C41.5806 39.9164 41.3866 39.753 41.356 39.4161V38.4868C41.356 38.0784 41.356 37.5474 41.356 36.9143V33.5751C41.356 33.4322 41.4274 33.2994 41.55 33.2177C41.6929 33.1258 41.8563 33.0748 42.0197 33.085C42.1524 33.0748 42.2954 33.1258 42.3975 33.2075C42.5201 33.3198 42.6324 33.4424 42.7243 33.5853L45.0627 36.8836L45.8592 38.0273C45.8592 37.6801 45.8592 37.3329 45.8592 36.996C45.8592 36.659 45.8592 36.322 45.8592 35.985V33.7794C45.8388 33.5956 45.8796 33.4117 45.9715 33.2484C46.0838 33.1156 46.2574 33.0441 46.431 33.0646C46.7884 33.0646 46.962 33.279 46.962 33.7079V37.0674C46.962 37.4248 46.962 37.8027 46.962 38.1805C46.962 38.5583 46.962 38.9566 46.962 39.3752C46.962 39.5284 46.8905 39.6714 46.768 39.7633C46.625 39.8654 46.4617 39.9164 46.2881 39.9164C46.1655 39.9266 46.043 39.8858 45.9409 39.8143C45.8183 39.702 45.706 39.5692 45.6141 39.4365L42.4179 34.8618C42.4179 34.9639 42.4179 35.3928 42.4179 36.1178C42.4384 36.8326 42.4486 37.8946 42.469 39.2935Z" fill="white"/>
<path d="M52.0474 33.0339C52.7214 33.0237 53.3953 33.1973 53.9672 33.5547C54.202 33.6977 54.3144 33.8508 54.3144 34.0244C54.3144 34.1572 54.2735 34.2797 54.1816 34.3818C54.0999 34.484 53.9774 34.5452 53.8549 34.5452C53.6608 34.5248 53.477 34.4635 53.3239 34.3512C52.9256 34.1163 52.4661 33.9938 52.0066 34.004C51.4143 34.0244 50.8629 34.2899 50.4851 34.729C50.0358 35.1885 49.7805 35.8114 49.7907 36.4548C49.7397 37.1185 49.9541 37.772 50.3728 38.2928C50.7914 38.7421 51.3939 38.9872 52.0168 38.9668C52.5172 38.9872 52.9971 38.783 53.3341 38.4153C53.6506 38.0579 53.8344 37.5984 53.8446 37.1287H52.7112C52.5886 37.1287 52.4661 37.0777 52.3844 36.9857C52.3027 36.8938 52.2619 36.7815 52.2619 36.659C52.2312 36.4241 52.4048 36.2097 52.6397 36.1893C52.6703 36.1893 52.701 36.1893 52.7418 36.1893H54.2633C54.4573 36.1586 54.6513 36.2403 54.7739 36.3833C54.876 36.5569 54.927 36.7509 54.9066 36.9551C54.927 37.772 54.6309 38.5583 54.0693 39.1404C53.4975 39.7122 52.7112 40.0083 51.9045 39.9777C51.0365 39.9879 50.2094 39.6407 49.6171 39.0178C48.984 38.3337 48.647 37.435 48.6879 36.4956C48.6777 34.5861 50.2094 33.0237 52.1189 33.0033L52.0474 33.0339Z" fill="white"/>
<path d="M56.5507 33.5751C56.5507 33.4321 56.6222 33.2892 56.7345 33.1973C56.8571 33.1054 57 33.0543 57.1532 33.0645C57.4085 33.0339 57.6434 33.2177 57.674 33.473C57.674 33.5036 57.674 33.5445 57.674 33.5751V34.5758C57.674 34.7086 57.674 34.8515 57.674 34.9945C57.674 35.1375 57.674 35.2702 57.674 35.3825V38.9259H58.736L60.1656 38.8748C60.4924 38.8748 60.6557 39.028 60.6557 39.3445C60.6557 39.6611 60.4821 39.8551 60.135 39.9164H58.1131H57.5617C57.3064 39.9368 57.0409 39.9062 56.7958 39.8143C56.6324 39.6815 56.5405 39.4875 56.5405 39.2833V38.9055C56.5405 38.6297 56.5405 38.2009 56.5405 37.6392C56.5405 37.0776 56.5405 36.6794 56.5405 36.4445V33.5751H56.5507Z" fill="white"/>
<path d="M62.1466 35.7604C62.1466 35.6072 62.1466 35.3519 62.1466 34.9945C62.1466 34.6371 62.1466 34.1674 62.1466 33.5649C62.1364 33.4117 62.1977 33.2586 62.31 33.1565C62.4325 33.0646 62.5755 33.0237 62.7287 33.0237C62.8716 33.0135 63.0044 33.0646 63.1167 33.1462C63.2188 33.2279 63.2801 33.3607 63.2699 33.4934V39.3446C63.2903 39.4977 63.2392 39.6509 63.1371 39.7632C63.0248 39.8551 62.8818 39.9062 62.7287 39.896C62.5755 39.9062 62.4325 39.8551 62.31 39.7632C62.1977 39.6611 62.1364 39.5182 62.1466 39.3752V38.497V35.7604Z" fill="white"/>
<path d="M69.1823 33.3607C69.3865 33.4526 69.5091 33.6466 69.5091 33.8712C69.5091 33.9938 69.458 34.1163 69.3763 34.2184C69.2946 34.3205 69.1721 34.3818 69.0496 34.3818C68.8862 34.3614 68.7228 34.3205 68.5696 34.2491C68.2224 34.0857 67.8344 34.004 67.4464 34.004C67.1298 33.9938 66.8133 34.0959 66.558 34.2899C66.3333 34.4635 66.2006 34.729 66.2006 35.0149C66.2006 35.1272 66.2312 35.2396 66.2925 35.3315C66.3436 35.4132 66.4048 35.4846 66.4763 35.5459C66.5784 35.6174 66.6805 35.6684 66.7929 35.6991L66.9869 35.7706L67.14 35.8114L67.3034 35.8522L67.5587 35.9135C68.1408 36.0156 68.6922 36.2301 69.1823 36.5568C69.5704 36.8632 69.7848 37.3533 69.7542 37.8435C69.7746 38.4255 69.5295 38.9974 69.07 39.365C68.5696 39.753 67.957 39.9572 67.3238 39.947C66.6703 39.9572 66.0168 39.8245 65.4143 39.5386C65.1795 39.4569 65.0161 39.2424 65.0059 38.9974C65.0059 38.8544 65.0569 38.7217 65.1386 38.6093C65.2203 38.497 65.353 38.4357 65.4858 38.4459C65.639 38.4664 65.7921 38.497 65.9351 38.5481C66.3538 38.7727 66.8235 38.8952 67.3034 38.9055C67.6506 38.9259 67.9876 38.8238 68.2633 38.6195C68.5084 38.4459 68.6513 38.16 68.6411 37.8537C68.6513 37.5882 68.5084 37.3329 68.2837 37.1899C67.9672 37.0164 67.62 36.8938 67.2626 36.8325L66.8235 36.7304L66.4457 36.6283C66.2108 36.5466 65.9862 36.4445 65.7819 36.3118C65.5777 36.1892 65.4041 36.0156 65.302 35.8012C65.1897 35.5765 65.1284 35.3315 65.1386 35.0762C65.1284 34.4941 65.3939 33.9427 65.8534 33.5853C66.3231 33.1871 66.9256 32.9726 67.5485 32.9828C68.1408 32.9726 68.733 33.0952 69.2742 33.3402L69.1823 33.3607Z" fill="white"/>
<path d="M76.9535 39.4365C76.9535 39.7632 76.7595 39.9266 76.3715 39.9266C75.9835 39.9266 75.7996 39.7632 75.8099 39.4365V37.0981H72.6035V39.4365C72.6035 39.7428 72.4095 39.896 72.0112 39.896C71.613 39.896 71.4292 39.7428 71.4598 39.4263C71.4598 39.2935 71.4598 39.0893 71.4598 38.8136C71.4598 38.5379 71.4598 38.1907 71.4598 37.772C71.4598 36.9449 71.4598 36.3016 71.4598 35.8523L71.4189 33.5649C71.4189 33.2279 71.613 33.0543 72.0112 33.0543C72.4095 33.0543 72.5933 33.1973 72.5524 33.4832V35.3111C72.5524 35.5663 72.5524 35.8216 72.5524 36.0769H75.769V33.5853C75.7384 33.3096 75.9426 33.0646 76.2183 33.0339C76.2592 33.0339 76.3 33.0339 76.3408 33.0339C76.6063 32.9931 76.8514 33.1769 76.8923 33.4322C76.9025 33.4832 76.9025 33.5241 76.8923 33.5751V35.0966C76.8923 35.6072 76.8923 36.0667 76.8923 36.4956L76.9535 39.4365Z" fill="white"/>
<path d="M84.8568 33.0135C85.7146 33.0135 86.5417 33.3607 87.1442 33.9733C87.7875 34.6167 88.1449 35.4948 88.1143 36.4037C88.1449 37.3227 87.8181 38.2213 87.2157 38.9055C86.6132 39.5794 85.7452 39.9572 84.8466 39.9368C83.9888 39.9368 83.1719 39.61 82.5592 39.0076C81.8955 38.3847 81.5381 37.4963 81.5687 36.5875C81.5381 35.6072 81.9057 34.6575 82.5797 33.9529C83.1617 33.3096 83.999 32.942 84.867 32.9522L84.8568 33.0135ZM87.0319 36.4241C87.0421 35.7808 86.797 35.1579 86.3375 34.6984C85.9188 34.2593 85.347 34.0244 84.7445 34.0244C84.1726 34.0244 83.6212 34.2899 83.274 34.7494C82.8554 35.2498 82.6409 35.8931 82.6511 36.5466C82.6205 37.1797 82.8554 37.8026 83.2945 38.2723C83.7131 38.7114 84.285 38.9463 84.8874 38.9361C85.4899 38.9361 86.0516 38.6502 86.409 38.1702C86.8276 37.6903 87.0421 37.0674 87.0319 36.4241Z" fill="white"/>
<path d="M90.9124 39.2935C90.9124 39.702 90.7388 39.9164 90.3814 39.9164C90.024 39.9164 89.83 39.753 89.7993 39.4161V38.4868C89.7993 38.0784 89.7993 37.5474 89.7993 36.9143V33.5751C89.7993 33.4322 89.8708 33.2994 89.9933 33.2177C90.1363 33.1258 90.2997 33.0748 90.4631 33.085C90.5958 33.0748 90.7388 33.1258 90.8409 33.2075C90.9634 33.3198 91.0758 33.4424 91.1677 33.5853L93.5061 36.8836L94.3026 38.0273C94.3026 37.6801 94.3026 37.3329 94.3026 36.996C94.3026 36.659 94.3026 36.322 94.3026 35.985V33.7794C94.2822 33.5956 94.323 33.4117 94.4149 33.2484C94.5272 33.1156 94.7008 33.0441 94.8744 33.0646C95.2318 33.0646 95.4054 33.279 95.4054 33.7079V37.0674C95.4054 37.4248 95.4054 37.8027 95.4054 38.1805C95.4054 38.5583 95.4054 38.9566 95.4054 39.3752C95.4054 39.5284 95.334 39.6714 95.2114 39.7633C95.0685 39.8654 94.9051 39.9164 94.7315 39.9164C94.6089 39.9266 94.4864 39.8858 94.3843 39.8143C94.2617 39.702 94.1494 39.5692 94.0575 39.4365L90.8817 34.8414C90.8817 34.9435 90.8817 35.3723 90.8817 36.0974C90.8817 36.8326 90.8919 37.8946 90.9124 39.2935Z" fill="white"/>
<path d="M97.3862 33.5751C97.3862 33.4321 97.4577 33.2892 97.57 33.1973C97.6926 33.1054 97.8355 33.0543 97.9887 33.0645C98.244 33.0339 98.4788 33.2177 98.5095 33.473C98.5095 33.5036 98.5095 33.5445 98.5095 33.5751V34.5758C98.5095 34.7086 98.5095 34.8515 98.5095 34.9945C98.5095 35.1375 98.5095 35.2702 98.5095 35.3825V38.9259H99.5714L101.001 38.8748C101.328 38.8748 101.491 39.028 101.491 39.3445C101.491 39.6611 101.318 39.8551 100.97 39.9164H98.9588H98.4074C98.1521 39.9368 97.8866 39.9062 97.6415 39.8143C97.4781 39.6815 97.3862 39.4875 97.3862 39.2833V38.9055C97.3862 38.6297 97.3862 38.2009 97.3862 37.6392C97.3862 37.0776 97.3862 36.6794 97.3862 36.4445V33.5955V33.5751Z" fill="white"/>
<path d="M103.013 35.7604C103.013 35.6072 103.013 35.3519 103.013 34.9945C103.013 34.6371 103.013 34.1674 103.013 33.5649C103.003 33.4117 103.064 33.2586 103.176 33.1565C103.299 33.0646 103.442 33.0237 103.595 33.0237C103.738 33.0135 103.871 33.0646 103.983 33.1462C104.085 33.2279 104.146 33.3607 104.136 33.4934V39.3446C104.157 39.4977 104.105 39.6509 104.003 39.7632C103.891 39.8551 103.748 39.9062 103.595 39.896C103.442 39.9062 103.299 39.8551 103.176 39.7632C103.064 39.6611 103.003 39.5182 103.013 39.3752V38.497V35.7604Z" fill="white"/>
<path d="M107.302 39.2935C107.302 39.702 107.128 39.9164 106.771 39.9164C106.413 39.9164 106.219 39.753 106.188 39.4161V38.4868C106.188 38.0784 106.188 37.5474 106.188 36.9143V33.5751C106.188 33.4322 106.26 33.2994 106.382 33.2177C106.525 33.1258 106.689 33.0748 106.852 33.085C106.985 33.0748 107.128 33.1258 107.23 33.2075C107.363 33.3198 107.485 33.4424 107.577 33.5853L109.916 36.8836L110.712 38.0273C110.712 37.6801 110.712 37.3329 110.712 36.996C110.712 36.659 110.712 36.322 110.712 35.985V33.7794C110.692 33.5956 110.733 33.4117 110.824 33.2484C110.937 33.1156 111.11 33.0441 111.284 33.0646C111.641 33.0646 111.815 33.279 111.815 33.7079V37.0674C111.815 37.4248 111.815 37.8027 111.815 38.1805C111.815 38.5583 111.815 38.9566 111.815 39.3752C111.815 39.5284 111.743 39.6714 111.621 39.7633C111.478 39.8654 111.315 39.9164 111.141 39.9164C111.018 39.9266 110.896 39.8858 110.794 39.8143C110.671 39.702 110.559 39.5692 110.467 39.4365L107.271 34.8618C107.271 34.9639 107.271 35.3928 107.271 36.1178C107.291 36.8326 107.302 37.8946 107.302 39.2935Z" fill="white"/>
<path d="M113.908 33.5751C113.908 33.2382 114.143 33.0646 114.613 33.0646H117.502C117.86 33.0646 118.044 33.2177 118.044 33.5241C118.044 33.8304 117.942 33.9938 117.727 34.0244H114.97V36.0361H115.379H117.002C117.166 36.0259 117.329 36.0565 117.472 36.128C117.574 36.1893 117.625 36.3118 117.605 36.5058C117.605 36.8224 117.431 36.9755 117.084 36.9755H114.95C114.95 37.0368 114.95 37.1287 114.95 37.2308V38.8749C115.215 38.8749 115.981 38.8749 117.237 38.8749H117.554H117.717C118.013 38.8749 118.156 39.0382 118.156 39.365C118.156 39.6918 117.972 39.8756 117.594 39.9062H114.899C114.613 39.9266 114.327 39.8858 114.061 39.7837C113.898 39.6611 113.816 39.4671 113.837 39.2629V33.5649H113.908V33.5751Z" fill="white"/>
<path d="M123.047 35.1783C122.945 35.2498 122.823 35.2804 122.7 35.2804C122.578 35.2702 122.465 35.209 122.384 35.117C122.292 35.0251 122.23 34.9026 122.23 34.7699C122.241 34.5758 122.343 34.392 122.516 34.2899L123.323 33.7079L123.803 33.3607C123.956 33.2484 124.12 33.1667 124.293 33.1054C124.426 33.0441 124.579 33.0441 124.712 33.1054C124.906 33.1462 125.028 33.3198 125.028 33.5139V34.6575C125.028 34.9843 125.028 35.26 125.028 35.4847V39.4569C125.039 39.5897 124.977 39.7224 124.865 39.8041C124.742 39.8858 124.61 39.9266 124.457 39.9266C124.314 39.9266 124.181 39.8858 124.079 39.7939C123.977 39.6918 123.915 39.5488 123.926 39.4059C123.926 39.2935 123.926 39.0995 123.926 38.834C123.926 38.5685 123.926 38.2111 123.926 37.7822C123.926 37.3534 123.926 36.9653 123.926 36.6181C123.926 36.2709 123.926 35.9748 123.926 35.7297V34.4227L123.476 34.8005L122.996 35.1579L123.047 35.1783Z" fill="white"/>
<path d="M127.367 37.9558C127.234 37.9661 127.101 37.915 127.01 37.8231C126.928 37.721 126.877 37.5984 126.887 37.4657C126.887 37.1287 127.071 36.9653 127.428 36.9653H129.256C129.491 36.9347 129.716 37.0981 129.746 37.3432C129.746 37.384 129.746 37.4146 129.746 37.4555C129.746 37.8027 129.542 37.9763 129.134 37.9763L127.367 37.9558Z" fill="white"/>
<path d="M134.301 33.0135C135.158 33.0135 135.985 33.3607 136.588 33.9734C137.231 34.6167 137.589 35.4949 137.558 36.4037C137.589 37.3227 137.282 38.2111 136.68 38.9055C136.088 39.5999 135.209 39.9879 134.301 39.9777C133.443 39.9777 132.626 39.6509 132.013 39.0485C131.349 38.4256 130.982 37.5372 131.023 36.6181C130.982 35.6481 131.339 34.6984 132.013 33.9938C132.595 33.3505 133.433 32.9829 134.301 32.9931V33.0135ZM136.476 36.4241C136.486 35.7808 136.241 35.1579 135.781 34.6984C135.363 34.2593 134.791 34.0244 134.188 34.0244C133.616 34.0244 133.065 34.2899 132.718 34.7494C132.299 35.2498 132.085 35.8931 132.095 36.5467C132.064 37.1798 132.299 37.8027 132.738 38.2724C133.157 38.7115 133.729 38.9463 134.331 38.9361C134.934 38.9361 135.495 38.6502 135.853 38.1703C136.271 37.6903 136.486 37.0674 136.476 36.4241Z" fill="white"/>
<path d="M140.407 39.2935C140.407 39.702 140.233 39.9164 139.876 39.9164C139.519 39.9164 139.325 39.753 139.294 39.4161V38.4868C139.294 38.0784 139.294 37.5474 139.294 36.9143V33.5751C139.294 33.4322 139.365 33.2994 139.488 33.2177C139.631 33.1258 139.794 33.0748 139.958 33.085C140.09 33.0748 140.233 33.1258 140.336 33.2075C140.458 33.3198 140.57 33.4424 140.662 33.5853L143.001 36.8836L143.797 38.0273C143.797 37.6801 143.797 37.3329 143.797 36.996C143.797 36.659 143.797 36.322 143.797 35.985V33.7794C143.777 33.5956 143.818 33.4117 143.91 33.2484C144.022 33.1156 144.195 33.0441 144.369 33.0646C144.726 33.0646 144.9 33.279 144.9 33.7079V37.0674C144.9 37.4248 144.9 37.8027 144.9 38.1805C144.9 38.5583 144.9 38.9566 144.9 39.3752C144.9 39.5284 144.829 39.6714 144.706 39.7633C144.563 39.8654 144.4 39.9164 144.226 39.9164C144.104 39.9266 143.981 39.8858 143.879 39.8143C143.756 39.702 143.644 39.5692 143.552 39.4365L140.356 34.8618C140.356 34.9639 140.356 35.3928 140.356 36.1178C140.376 36.8326 140.387 37.8946 140.407 39.2935Z" fill="white"/>
<path d="M146.932 37.9558C146.799 37.9661 146.666 37.915 146.575 37.8231C146.493 37.721 146.442 37.5984 146.452 37.4657C146.452 37.1287 146.636 36.9653 146.993 36.9653H148.801C149.035 36.9347 149.26 37.0981 149.291 37.3432C149.291 37.384 149.291 37.4146 149.291 37.4555C149.291 37.8027 149.087 37.9763 148.678 37.9763H146.911L146.932 37.9558Z" fill="white"/>
<path d="M151.333 35.1783C151.231 35.2498 151.108 35.2804 150.986 35.2804C150.863 35.2702 150.751 35.209 150.669 35.117C150.577 35.0251 150.516 34.9026 150.516 34.7699C150.526 34.5758 150.628 34.392 150.802 34.2899L151.609 33.7079L152.089 33.3607C152.242 33.2484 152.405 33.1667 152.579 33.1054C152.712 33.0441 152.865 33.0441 152.997 33.1054C153.191 33.1462 153.314 33.3198 153.314 33.5139V34.6575C153.314 34.9843 153.314 35.26 153.314 35.4847V39.4569C153.324 39.5897 153.263 39.7224 153.151 39.8041C153.028 39.8858 152.895 39.9266 152.742 39.9266C152.599 39.9266 152.466 39.8858 152.364 39.7939C152.262 39.6918 152.201 39.5488 152.211 39.4059C152.211 39.2935 152.211 39.0995 152.211 38.834C152.211 38.5685 152.211 38.2111 152.211 37.7822C152.211 37.3534 152.211 36.9653 152.211 36.6181C152.211 36.2709 152.211 35.9748 152.211 35.7297V34.4227L151.762 34.8005L151.282 35.1579L151.333 35.1783Z" fill="white"/>
</svg>
