<svg width="160" height="136" viewBox="0 0 160 136" fill="none" xmlns="http://www.w3.org/2000/svg">
<path d="M153.067 81.7998C156.896 65.453 146.854 49.0722 130.638 45.2123C114.422 41.3524 98.172 51.475 94.3429 67.8217C90.5138 84.1685 100.555 100.549 116.772 104.409C132.988 108.269 149.238 98.1465 153.067 81.7998Z" fill="white"/>
<path d="M74.2878 8.89452C97.3427 8.89452 116.128 27.8312 116.128 51.0717C116.128 74.3123 97.3427 93.249 74.2878 93.249C51.2329 93.249 32.4475 74.3123 32.4475 51.0717C32.4475 27.8312 51.2329 8.89452 74.2878 8.89452ZM74.2878 0C46.3943 0 23.624 22.9536 23.624 51.0717C23.624 79.1899 46.3943 102.143 74.2878 102.143C102.181 102.143 124.952 79.1899 124.952 51.0717C124.952 22.9536 102.181 0 74.2878 0Z" fill="#FFC700"/>
<path d="M126.659 133.131H15.3699C6.83105 133.131 0 126.245 0 117.637V88.6582C0 80.0506 6.83105 73.1646 15.3699 73.1646H126.659C135.198 73.1646 142.029 80.0506 142.029 88.6582V117.637C142.029 126.245 135.198 133.131 126.659 133.131Z" fill="#E6E6E6"/>
<path d="M132.067 126.819H20.7778C12.239 126.819 5.40796 119.932 5.40796 111.325V82.346C5.40796 73.7384 12.239 66.8523 20.7778 66.8523H132.067C140.606 66.8523 147.437 73.7384 147.437 82.346V111.325C147.722 119.932 140.891 126.819 132.067 126.819Z" fill="#1A1A1A"/>


<path d="M134.344 61.9747H107.874C107.589 61.9747 107.02 61.6878 107.02 61.1139C107.02 60.827 107.305 60.2532 107.874 60.2532H134.344C134.629 60.2532 135.198 60.5401 135.198 61.1139C134.914 61.6878 134.629 61.9747 134.344 61.9747Z" fill="black"/>
<path d="M131.498 57.097H123.244C122.959 57.097 122.39 56.8101 122.39 56.2362C122.39 55.9493 122.674 55.3755 123.244 55.3755H131.498C131.783 55.3755 132.352 55.6624 132.352 56.2362C132.352 56.8101 131.783 57.097 131.498 57.097Z" fill="black"/>
<path d="M65.4644 132.27H32.1629C31.8783 132.27 31.3091 131.983 31.3091 131.409C31.3091 131.122 31.5937 130.549 32.1629 130.549H65.4644C65.7491 130.549 66.3183 130.836 66.3183 131.409C66.3183 131.983 66.0337 132.27 65.4644 132.27Z" fill="black"/>
<path d="M41.2712 136H27.609C27.3244 136 26.7551 135.713 26.7551 135.139C26.7551 134.852 27.0398 134.278 27.609 134.278H41.2712C41.5558 134.278 42.125 134.565 42.125 135.139C42.125 135.713 41.8404 136 41.2712 136Z" fill="black"/>
<path d="M128.083 35.0042H109.013C108.728 35.0042 108.159 34.7173 108.159 34.1435C108.159 33.8566 108.443 33.2827 109.013 33.2827H128.083C128.367 33.2827 128.936 33.5696 128.936 34.1435C128.652 34.7173 128.367 35.0042 128.083 35.0042Z" fill="black"/>
<path d="M110.72 29.8397H104.174C103.889 29.8397 103.32 29.5528 103.32 28.9789C103.32 28.4051 103.604 28.1182 104.174 28.1182H110.72C111.005 28.1182 111.574 28.4051 111.574 28.9789C111.574 29.5528 111.289 29.8397 110.72 29.8397Z" fill="black"/>
</svg>
