<svg width="40" height="41" viewBox="0 0 40 41" fill="none" xmlns="http://www.w3.org/2000/svg">
<path d="M25.674 1.00002C25.3663 1.01232 25.0694 1.06771 24.7602 1.14463L3.84631 6.24002C1.37246 6.84617 -0.175229 9.34155 0.432463 11.8169L3.36477 23.7892C3.54246 24.5024 3.88844 25.1626 4.37372 25.7145C4.85901 26.2664 5.46947 26.6941 6.154 26.9616V24.0769C6.154 19.8354 9.60477 16.3846 13.8463 16.3846H33.2217L30.3371 4.50925C30.0819 3.47697 29.4786 2.56425 28.6289 1.92499C27.7792 1.28573 26.735 0.959043 25.6725 1.00002H25.674ZM27.5478 7.6354L28.7986 12.8754L23.6063 14.1246L22.3078 8.93232L27.5478 7.6354ZM13.8463 19.4616C11.2986 19.4616 9.23092 21.5292 9.23092 24.0769V36.3846C9.23092 38.9323 11.2986 41 13.8463 41H35.3848C37.9325 41 40.0002 38.9323 40.0002 36.3846V24.0769C40.0002 21.5292 37.9325 19.4616 35.3848 19.4616H13.8463ZM13.8463 21.9139H35.3848C36.5709 21.9139 37.5478 22.8908 37.5478 24.0769V25.6154H11.6832V24.0769C11.6832 22.8908 12.6602 21.9139 13.8463 21.9139ZM11.6832 30.2308H37.5478V36.3846C37.5478 37.5708 36.5709 38.5477 35.3848 38.5477H13.8463C13.2736 38.5445 12.7253 38.3155 12.3204 37.9106C11.9154 37.5056 11.6865 36.9573 11.6832 36.3846V30.2308Z" fill="#14B24C"/>
</svg>
