<svg width="286" height="167" viewBox="0 0 286 167" fill="none" xmlns="http://www.w3.org/2000/svg">
<path opacity="0.2" d="M36.9682 52.1328C34.961 53.8805 32.5769 55.3497 29.7405 56.3964C5.54119 65.3365 14.0317 85.7614 16.4064 92.9058C18.4701 99.1379 30.1457 106.503 13.1459 122.626C-3.09064 138.01 13.2966 163.86 14.8138 166.174H36.9682V52.1328Z" fill="#29A67C"/>
<path opacity="0.2" d="M270.583 60.3721C253.979 50.0972 240.626 67.2188 227.585 53.6214C221.893 47.687 226.595 32.9661 214.835 28.1359C198.315 21.3468 156.909 46.8707 163.43 28.0399C169.951 9.19946 115.578 0.797119 115.578 0.797119C113.071 0.806722 110.574 0.921954 108.115 1.13321V166.184H274.419C280.855 158.435 286.462 70.1956 270.583 60.3721Z" fill="#29A67C"/>
<g opacity="0.5">
<path opacity="0.5" d="M36.9679 165.852H108.105L108.105 0.714874H36.9679L36.9679 165.852Z" fill="#85FFD7"/>
<path opacity="0.5" d="M105.599 3.12109H39.5126V163.265H105.599V3.12109Z" fill="#C4C4C4"/>
<path opacity="0.5" d="M77.4226 163.265H69.5823L43.4795 3.12109H51.3292L77.4226 163.265Z" fill="white"/>
<path opacity="0.5" d="M66.9252 3.12109H83.0957L105.589 141.15V163.265H93.0186L66.9252 3.12109Z" fill="white"/>
</g>
<path d="M29.8438 2.17974C29.759 2.29497 29.6365 2.46782 29.448 2.68868L29.4386 2.69828C29.448 2.72709 31.785 11.3503 29.938 12.0033C28.2512 12.6082 28.1099 6.28008 28.7884 3.62974C28.4114 4.2155 28.0816 4.83968 27.7989 5.48306C27.3277 6.58736 26.9979 8.00856 26.7906 9.6026C27.1299 10.1788 29.2313 13.7702 28.1759 14.5096C27.3277 15.1145 26.7623 12.7427 26.6116 11.187C26.4891 12.5986 26.4325 14.0967 26.4325 15.5755C27.5633 15.8539 30.9934 16.8622 31.0594 18.6483C31.1348 20.6457 28.1853 20.0599 26.4419 16.3437C26.4514 17.8225 26.5079 19.2629 26.5739 20.5881C27.3937 21.3371 30.739 24.5636 30.2019 26.4169C29.6553 28.299 27.5539 26.1384 26.6681 22.0285C26.8283 24.3907 27.045 26.1768 27.1299 26.7434C27.1581 26.9258 27.1958 27.1659 27.2335 27.454C27.2429 27.5596 27.2618 27.6652 27.2712 27.7805C27.2712 27.7805 32.4823 34.9345 30.9934 36.5765C29.938 37.748 28.3549 32.9659 27.5162 30.0851C27.8083 33.1388 28.0533 37.1335 27.8178 38.3626H27.7989C27.9874 41.1186 28.1099 46.1312 26.621 46.3904C24.5573 46.7361 26.621 41.1378 26.621 41.1378C26.621 41.1378 24.1049 42.1653 23.8694 41.1378C23.483 39.4285 27.0074 37.0086 27.5728 36.6341C27.5633 35.1073 27.4314 32.9563 27.2618 30.9878C27.0733 35.1937 26.0462 36.4421 25.641 36.5765C25.1415 36.7494 24.1238 35.7219 24.4725 32.4666C24.7457 29.9411 26.2629 28.3086 26.9225 27.7036C26.8754 27.3483 26.8377 27.0315 26.7906 26.7914C26.7058 26.2536 26.5079 24.5828 26.3477 22.3742C25.9425 25.8311 24.9907 28.6543 24.1332 26.9066C23.2945 25.1973 25.4808 21.9324 26.2535 20.8761C26.1687 19.3301 26.1027 17.6208 26.1027 15.8828C25.4619 17.592 22.6537 20.7993 22.3051 18.9652C21.9564 17.1599 25.4431 15.2778 26.1027 14.9321C26.1216 13.4437 26.1969 11.9553 26.3383 10.5533C25.5561 11.9649 23.1815 14.8457 22.8988 13.29C22.5784 11.5135 26.555 8.78638 26.555 8.78638C26.555 8.78638 26.555 8.78638 26.5645 8.79598C26.7812 7.47081 27.0827 6.28968 27.4879 5.32941C27.7518 4.71484 28.0722 4.11948 28.4209 3.55292C26.9508 4.5708 24.6986 5.47345 24.7834 4.41716C24.8777 3.26484 28.3455 2.33338 29.448 2.0645C29.4857 2.00689 29.514 1.98768 29.5234 1.98768C29.9192 1.48835 30.3338 1.02742 30.7579 0.585693H31.2385C30.7767 1.08503 30.2961 1.61318 29.8438 2.17974Z" fill="#327F6B"/>
<path d="M32.8404 5.1752C31.7379 5.80898 32.1431 2.6593 32.5106 0.594727H33.5849C33.7828 2.32321 33.8299 4.60864 32.8404 5.1752Z" fill="#327F6B"/>
<path d="M31.4079 5.00235C29.9472 4.79109 31.2571 2.54407 33.3208 0.594727H35.4788C34.3857 2.62089 32.7271 5.1848 31.4079 5.00235Z" fill="#327F6B"/>
<path d="M37.241 0.594727H39.446C40.5768 2.03513 41.4344 3.81162 40.6616 5.39606C39.578 7.64309 38.1173 3.60996 37.241 0.594727Z" fill="#327F6B"/>
<path d="M35.8935 0.594727H36.261C36.1668 1.25731 36.0631 1.99672 35.9595 2.80334C36.8453 4.57984 41.3591 13.9616 39.2105 15.9782C36.8264 18.206 35.9877 6.80766 35.9877 6.80766L35.8652 3.60036C35.5071 6.36593 35.1114 9.74607 34.791 13.2222C35.6108 13.9136 38.9938 16.9385 37.5897 18.9262C36.2799 20.7795 35.1208 15.6517 34.7438 13.7504C34.546 16.055 34.3858 18.3981 34.2915 20.6355C35.1585 21.0484 38.8053 22.8921 37.8064 24.5054C36.8358 26.0706 34.8287 22.6041 34.2633 21.567C34.2256 22.9401 34.2161 24.2557 34.2444 25.4945C35.1867 25.9458 39.4178 28.0584 38.3719 29.057C37.1939 30.1902 34.7815 27.1653 34.7815 27.1653C34.7815 27.1653 36.6756 34.9051 34.6119 34.0792C32.5576 33.2534 33.9334 26.7044 33.8675 26.5411L33.9052 26.3299C33.8675 25.312 33.858 24.2269 33.8675 23.1034C33.4905 24.1021 32.7461 25.7633 32.3032 25.0431C31.7849 24.1981 33.3775 22.4888 33.8863 21.9703C33.924 20.4338 34.0088 18.8302 34.1125 17.217C33.368 19.1279 31.8226 21.8839 31.031 20.5971C30.1452 19.1471 33.4717 15.3924 34.3198 14.4706C34.5177 12.0891 34.7627 9.73647 35.0077 7.55666C33.9617 10.3414 30.5599 16.2279 29.4667 14.2209C28.3265 12.1275 34.2161 5.56891 35.4129 4.28215C35.5731 2.89937 35.7427 1.66062 35.8935 0.594727Z" fill="#3C8F7C"/>
<path d="M47.8049 2.65044C46.9097 5.07031 45.1475 9.16105 43.423 9.11303C41.086 9.04581 44.4219 3.74514 47.852 1.27725C47.8614 1.1044 47.8614 0.950762 47.8709 0.797119C48.4268 0.902749 48.9828 1.02758 49.5199 1.21003C51.48 2.60242 54.7971 5.50243 53.7699 8.37363C52.5731 11.7634 49.3974 3.69713 48.4551 1.13321C48.408 2.33355 48.3514 4.10044 48.3043 6.23223C49.699 8.42164 55.5415 17.8707 53.4401 20.329C51.0654 23.1137 48.719 10.5438 48.719 10.5438L48.2761 7.57661C48.2195 10.6014 48.2007 14.2121 48.2761 17.9091C49.4163 18.6773 53.2705 21.5101 51.9889 23.8339C50.8204 25.9561 49.0299 21.0492 48.2949 18.7733C48.3609 21.27 48.4645 23.7859 48.6342 26.1866C49.8027 26.5899 53.8076 28.1455 52.9124 30.0085C52.0643 31.7849 49.5953 28.5777 48.719 27.3485C48.8415 28.8369 48.9922 30.2677 49.1713 31.6025C50.4529 32.0538 55.108 33.7919 54.0997 35.0018C52.9312 36.4038 49.878 33.3502 49.878 33.3502C49.878 33.3502 52.9312 41.7237 50.5471 41.0611C48.4457 40.4754 48.7567 34.6177 48.7943 33.1101C48.5965 31.9002 48.4363 30.5846 48.2949 29.2114C47.9745 30.3734 47.4091 31.9866 46.8625 31.3048C46.2123 30.479 47.5787 28.5392 48.163 27.7998C48.0216 26.1482 47.918 24.4197 47.8332 22.672C47.2018 24.871 45.8919 27.7902 44.9025 26.5131C43.7811 25.0631 46.7589 20.7227 47.7107 19.4071C47.6353 16.824 47.6164 14.2601 47.6258 11.869C46.6835 15.2299 43.7905 21.6349 42.377 19.6184C40.8975 17.4866 46.316 9.80443 47.673 7.93191C47.7107 5.87693 47.7578 4.07163 47.8049 2.65044Z" fill="#3C8F7C"/>
<path d="M45.3924 6.65369C44.139 8.1421 42.848 3.25434 42.2732 0.690429C42.2544 2.44772 42.2355 4.80037 42.2167 7.52753C42.9894 8.33416 45.3829 11.0229 45.0437 13.0107C44.7233 14.9408 42.8763 10.9173 42.2073 9.36164C42.2073 10.7828 42.1978 12.2905 42.1978 13.8461C43.1684 14.7007 45.5054 17.0246 44.3841 18.5994C43.4794 19.8766 42.6596 17.3511 42.1978 15.4209C42.2073 17.1878 42.2167 19.0123 42.2261 20.856C43.3946 21.8067 46.6457 24.7547 45.4583 27.213C44.4029 29.3832 42.9423 24.7931 42.2355 22.1812C42.2544 24.1402 42.2826 26.1087 42.3298 28.0388C42.9705 29.1335 45.3075 33.3203 44.026 34.223C43.3381 34.7127 42.7915 33.6852 42.4334 32.3504C42.49 34.1461 42.5559 35.8842 42.6313 37.4975C43.4888 38.0736 47.0038 40.5703 46.5986 42.3756C46.3441 43.4991 43.5831 42.3756 43.5831 42.3756C43.5831 42.3756 45.8447 48.5309 43.5831 48.1372C41.9811 47.8684 42.0848 42.5677 42.2732 39.5044C42.2355 38.9379 42.2073 38.3617 42.179 37.7663C41.8492 39.0435 41.2743 39.975 40.6335 39.1875C39.5027 37.8048 41.5947 34.5398 42.0188 33.9157C41.9622 32.2352 41.9151 30.4779 41.868 28.6822C41.0011 30.4011 37.6935 34.5206 37.3165 32.4273C36.949 30.4107 40.8503 27.4627 41.8303 26.7521C41.8021 24.966 41.7738 23.1511 41.7549 21.3554C41.1236 22.719 38.9845 27.0786 37.3919 26.8481C35.5355 26.5792 38.8148 22.5461 41.7549 21.0481C41.7361 19.2812 41.7267 17.5335 41.7267 15.8338C41.7172 15.8819 41.7172 15.9203 41.7078 15.9683C41.5288 17.1206 39.5593 21.4898 38.6829 20.0398C37.8065 18.5994 41.7078 14.5279 41.7078 14.5279C41.7078 14.5279 41.7172 14.5375 41.7267 14.5663C41.7267 12.9242 41.7267 11.3302 41.7267 9.81297C41.1047 11.4166 38.9279 14.9696 38.24 13.7789C37.5804 12.6458 40.6712 9.28482 41.7361 8.19012C41.7455 6.00071 41.7644 4.04176 41.7738 2.3997C41.0388 4.04176 38.796 8.57422 38.1175 6.93217C37.3919 5.18448 40.9634 1.81394 41.7832 1.07454C41.7832 0.91129 41.7832 0.757647 41.7926 0.604004H43.5642C44.9023 2.57255 46.4384 5.41494 45.3924 6.65369Z" fill="#327F6B"/>
<path d="M112.515 2.17949C112.6 2.29473 112.723 2.46757 112.911 2.68843L112.92 2.69804C112.911 2.72685 110.574 11.35 112.421 12.003C114.108 12.608 114.249 6.27983 113.571 3.6295C113.948 4.21526 114.277 4.83943 114.56 5.48281C115.031 6.58712 115.361 8.00832 115.568 9.60236C115.229 10.1785 113.128 13.7699 114.183 14.5093C115.031 15.1143 115.597 12.7424 115.747 11.1868C115.87 12.5984 115.926 14.0964 115.926 15.5752C114.796 15.8537 111.366 16.862 111.3 18.6481C111.224 20.6454 114.174 20.0597 115.917 16.3434C115.908 17.8223 115.851 19.2626 115.785 20.5878C114.965 21.3368 111.62 24.5633 112.157 26.4166C112.704 28.2988 114.805 26.1382 115.691 22.0282C115.531 24.3905 115.314 26.1766 115.229 26.7431C115.201 26.9256 115.163 27.1656 115.125 27.4537C115.116 27.5594 115.097 27.665 115.088 27.7802C115.088 27.7802 109.877 34.9342 111.366 36.5763C112.421 37.7478 114.004 32.9657 114.843 30.0849C114.551 33.1385 114.306 37.1332 114.541 38.3624H114.56C114.372 41.1183 114.249 46.1309 115.738 46.3902C117.802 46.7359 115.738 41.1375 115.738 41.1375C115.738 41.1375 118.254 42.165 118.49 41.1375C118.876 39.4283 115.352 37.0084 114.786 36.6339C114.796 35.1071 114.928 32.9561 115.097 30.9875C115.286 35.1935 116.313 36.4418 116.718 36.5763C117.217 36.7491 118.235 35.7216 117.887 32.4663C117.613 29.9408 116.096 28.3084 115.436 27.7034C115.484 27.3481 115.521 27.0312 115.568 26.7911C115.653 26.2534 115.851 24.5825 116.011 22.3739C116.417 25.8309 117.368 28.6541 118.226 26.9064C119.064 25.1971 116.878 21.9322 116.106 20.8759C116.19 19.3299 116.256 17.6206 116.256 15.8825C116.897 17.5918 119.705 20.7991 120.054 18.965C120.403 17.1597 116.916 15.2775 116.256 14.9318C116.237 13.4434 116.162 11.955 116.021 10.553C116.803 11.9646 119.178 14.8454 119.46 13.2898C119.781 11.5133 115.804 8.78613 115.804 8.78613C115.804 8.78613 115.804 8.78613 115.795 8.79574C115.578 7.47057 115.276 6.28944 114.871 5.32917C114.607 4.7146 114.287 4.11923 113.938 3.55268C115.408 4.57056 117.66 5.47321 117.576 4.41692C117.481 3.26459 114.014 2.33314 112.911 2.06426C112.873 2.00664 112.845 1.98744 112.836 1.98744C112.44 1.4881 112.025 1.02717 111.601 0.585449H111.121C111.582 1.08479 112.063 1.61294 112.515 2.17949Z" fill="#327F6B"/>
<path d="M109.509 5.17545C110.612 5.80922 110.206 2.65955 109.839 0.594971H108.765C108.576 2.32345 108.529 4.60889 109.509 5.17545Z" fill="#327F6B"/>
<path d="M110.951 5.00235C112.412 4.79109 111.102 2.54407 109.038 0.594727H106.88C107.973 2.62089 109.622 5.1848 110.951 5.00235Z" fill="#327F6B"/>
<path d="M105.118 0.594727H102.913C101.782 2.03513 100.925 3.81162 101.697 5.39606C102.772 7.64309 104.242 3.60996 105.118 0.594727Z" fill="#327F6B"/>
<path d="M106.466 0.594727H106.098C106.193 1.25731 106.296 1.99672 106.4 2.80334C105.514 4.57984 101 13.9616 103.149 15.9782C105.533 18.206 106.372 6.80766 106.372 6.80766L106.494 3.60036C106.852 6.36593 107.248 9.74607 107.568 13.2222C106.749 13.9136 103.366 16.9385 104.77 18.9262C106.079 20.7795 107.239 15.6517 107.615 13.7504C107.813 16.055 107.974 18.3981 108.068 20.6355C107.201 21.0484 103.554 22.8921 104.553 24.5054C105.524 26.0706 107.531 22.6041 108.096 21.567C108.134 22.9401 108.143 24.2557 108.115 25.4945C107.173 25.9458 102.941 28.0584 103.987 29.057C105.165 30.1902 107.578 27.1653 107.578 27.1653C107.578 27.1653 105.684 34.9051 107.747 34.0792C109.802 33.2534 108.426 26.7044 108.492 26.5411L108.454 26.3299C108.492 25.312 108.501 24.2269 108.492 23.1034C108.869 24.1021 109.613 25.7633 110.056 25.0431C110.574 24.1981 108.982 22.4888 108.473 21.9703C108.435 20.4338 108.351 18.8302 108.247 17.217C108.991 19.1279 110.537 21.8839 111.328 20.5971C112.214 19.1471 108.888 15.3924 108.04 14.4706C107.842 12.0891 107.597 9.73647 107.352 7.55666C108.398 10.3414 111.799 16.2279 112.893 14.2209C114.033 12.1275 108.143 5.56891 106.946 4.28215C106.786 2.89937 106.617 1.66062 106.466 0.594727Z" fill="#3C8F7C"/>
<path d="M94.5543 2.65068C95.4495 5.07055 97.2117 9.16129 98.9362 9.11328C101.273 9.04606 97.9373 3.74538 94.5072 1.2775C94.4978 1.10465 94.4978 0.951006 94.4883 0.797363C93.9324 0.902993 93.3764 1.02783 92.8393 1.21028C90.8792 2.60267 87.5622 5.50267 88.5893 8.37387C89.7861 11.7636 92.9618 3.69737 93.9041 1.13346C93.9512 2.33379 94.0078 4.10068 94.0549 6.23248C92.6602 8.42189 86.8177 17.8709 88.9191 20.3292C91.2938 23.114 93.6402 10.5441 93.6402 10.5441L94.0831 7.57685C94.1397 10.6017 94.1585 14.2123 94.0831 17.9093C92.9429 18.6775 89.0887 21.5103 90.3703 23.8342C91.5388 25.9564 93.3293 21.0494 94.0643 18.7736C93.9983 21.2703 93.8947 23.7862 93.7251 26.1868C92.5566 26.5901 88.5516 28.1458 89.4468 30.0087C90.2949 31.7852 92.7639 28.5779 93.6402 27.3488C93.5177 28.8372 93.367 30.268 93.1879 31.6027C91.9063 32.0541 87.2512 33.7921 88.2595 35.0021C89.428 36.4041 92.4812 33.3504 92.4812 33.3504C92.4812 33.3504 89.428 41.724 91.8121 41.0614C93.9135 40.4756 93.6025 34.618 93.5649 33.1104C93.7627 31.9004 93.9229 30.5849 94.0643 29.2117C94.3847 30.3736 94.9501 31.9868 95.4966 31.3051C96.1469 30.4792 94.7805 28.5395 94.1962 27.8001C94.3376 26.1484 94.4412 24.4199 94.526 22.6723C95.1574 24.8713 96.4673 27.7905 97.4567 26.5133C98.5781 25.0633 95.6003 20.7229 94.6485 19.4073C94.7239 16.8242 94.7428 14.2603 94.7334 11.8692C95.6757 15.2302 98.5687 21.6352 99.9822 19.6186C101.471 17.4964 96.0526 9.80467 94.6957 7.94175C94.6485 5.87718 94.6014 4.07188 94.5543 2.65068Z" fill="#3C8F7C"/>
<path d="M96.9571 6.65369C98.2104 8.1421 99.5014 3.25434 100.076 0.690429C100.095 2.44772 100.114 4.80037 100.133 7.52753C99.3601 8.33416 96.9665 11.0229 97.3058 13.0107C97.6261 14.9408 99.4731 10.9173 100.142 9.36164C100.142 10.7828 100.152 12.2905 100.152 13.8461C99.181 14.7007 96.844 17.0246 97.9654 18.5994C98.87 19.8766 99.6899 17.3511 100.152 15.4209C100.142 17.1878 100.133 19.0123 100.123 20.856C98.9548 21.8067 95.7038 24.7547 96.8911 27.213C97.9465 29.3832 99.4072 24.7931 100.114 22.1812C100.095 24.1402 100.067 26.1087 100.02 28.0388C99.3789 29.1335 97.0419 33.3203 98.3235 34.223C99.0114 34.7127 99.5579 33.6852 99.916 32.3504C99.8595 34.1461 99.7935 35.8842 99.7181 37.4975C98.8606 38.0736 95.3457 40.5703 95.7509 42.3756C96.0053 43.4991 98.7664 42.3756 98.7664 42.3756C98.7664 42.3756 96.5048 48.5309 98.7664 48.1372C100.368 47.8684 100.265 42.5677 100.076 39.5044C100.114 38.9379 100.142 38.3617 100.17 37.7663C100.5 39.0435 101.075 39.975 101.716 39.1875C102.847 37.8048 100.755 34.5398 100.331 33.9157C100.387 32.2352 100.434 30.4779 100.481 28.6822C101.348 30.4011 104.656 34.5206 105.033 32.4273C105.4 30.4107 101.499 27.4627 100.519 26.7521C100.547 24.966 100.576 23.1511 100.595 21.3554C101.226 22.719 103.365 27.0786 104.958 26.8481C106.814 26.5792 103.535 22.5461 100.595 21.0481C100.613 19.2812 100.623 17.5335 100.623 15.8338C100.632 15.8819 100.632 15.9203 100.642 15.9683C100.821 17.1206 102.79 21.4898 103.667 20.0398C104.543 18.5994 100.642 14.5279 100.642 14.5279C100.642 14.5279 100.632 14.5375 100.623 14.5663C100.623 12.9242 100.623 11.3302 100.623 9.81297C101.245 11.4166 103.422 14.9696 104.109 13.7789C104.769 12.6458 101.678 9.28482 100.613 8.19012C100.604 6.00071 100.585 4.04176 100.576 2.3997C101.311 4.04176 103.553 8.57422 104.232 6.93217C104.958 5.18448 101.386 1.81394 100.566 1.07454C100.566 0.91129 100.566 0.757647 100.557 0.604004H98.7852C97.4565 2.57255 95.9205 5.41494 96.9571 6.65369Z" fill="#327F6B"/>
<path d="M54.7499 0H53.3835H24.0107V1.57484H53.3835H54.7499H118.801V0H54.7499Z" fill="#F7CC7F"/>
<path d="M132.342 113.859C132.342 114.829 131.57 115.616 130.618 115.616C129.666 115.616 128.893 114.829 128.893 113.859C128.893 112.889 129.666 112.102 130.618 112.102C131.57 112.102 132.342 112.889 132.342 113.859Z" fill="#F7CC7F"/>
<path d="M135.329 133.717H135.047C134.952 133.717 134.868 133.64 134.868 133.535V131.816C134.868 131.72 134.943 131.634 135.047 131.634H135.329C135.424 131.634 135.508 131.71 135.508 131.816V133.535C135.508 133.64 135.424 133.717 135.329 133.717Z" fill="#B75742"/>
<path d="M138.524 109.768C137.996 109.058 137.393 108.664 136.753 108.606C135.763 108.51 134.971 109.211 134.962 109.221L134.566 108.769C134.604 108.731 135.565 107.886 136.809 108.001C137.629 108.078 138.364 108.549 138.995 109.403L138.524 109.768Z" fill="#50BFA5"/>
<path d="M133.793 108.414L131.504 110.748C131.259 110.997 131.259 111.401 131.504 111.641L132.21 112.361C132.455 112.611 132.851 112.611 133.087 112.361L135.377 110.028C135.622 109.778 135.622 109.375 135.377 109.135L134.67 108.414C134.434 108.165 134.038 108.165 133.793 108.414Z" fill="#B75742"/>
<path d="M127.932 110.68L133.727 116.586C135.329 114.954 135.329 112.303 133.727 110.68C132.135 109.048 129.534 109.048 127.932 110.68Z" fill="#F47458"/>
<path d="M143.631 121.935L137.817 109.864L139.636 108.952L145.45 121.023L143.631 121.935ZM138.646 110.152L143.914 121.09L144.611 120.744L139.344 109.807L138.646 110.152Z" fill="#B75742"/>
<path d="M141.587 134.524L139.674 133.861L143.942 121.138L145.855 121.8L141.587 134.524ZM140.465 133.468L141.2 133.727L145.064 122.204L144.329 121.944L140.465 133.468Z" fill="#B75742"/>
<path d="M133.982 117.095L133.784 117.297C133.718 117.364 133.605 117.364 133.539 117.297L127.235 110.872C127.169 110.805 127.169 110.69 127.235 110.623L127.433 110.421C127.499 110.354 127.612 110.354 127.678 110.421L133.982 116.845C134.048 116.912 134.048 117.028 133.982 117.095Z" fill="#96D9C9"/>
<path d="M144.64 123.193C145.452 123.193 146.11 122.522 146.11 121.695C146.11 120.867 145.452 120.197 144.64 120.197C143.828 120.197 143.17 120.867 143.17 121.695C143.17 122.522 143.828 123.193 144.64 123.193Z" fill="#F47458"/>
<path d="M131.871 132.632H143.349C143.971 132.632 144.47 133.141 144.47 133.775V134.687H130.759V133.775C130.75 133.141 131.249 132.632 131.871 132.632Z" fill="#50BFA5"/>
<path d="M17.0378 165.876H15.4829L18.7999 136.483H20.3642L17.0378 165.876Z" fill="#0E2E35"/>
<path d="M44.2898 165.876H42.735L46.052 136.483H47.6069L44.2898 165.876Z" fill="#0E2E35"/>
<path d="M61.8645 165.876H63.4194L60.1023 136.483H58.5475L61.8645 165.876Z" fill="#0E2E35"/>
<path d="M43.1122 139.671H21.8718C19.3841 139.671 17.1601 137.616 16.9057 135.081L13.4002 100.146C13.1458 97.6111 14.9551 95.5562 17.4428 95.5562H38.6832C41.1709 95.5562 43.3949 97.6111 43.6493 100.146L47.1548 135.081C47.4092 137.616 45.5999 139.671 43.1122 139.671Z" fill="#E25A44"/>
<path d="M49.0112 139.671H27.7709C25.2831 139.671 23.0592 137.616 22.8048 135.081L19.2993 100.146C19.0448 97.6111 20.8541 95.5562 23.3419 95.5562H44.5822C47.07 95.5562 49.2939 97.6111 49.5483 100.146L53.0539 135.081C53.3083 137.616 51.499 139.671 49.0112 139.671Z" fill="#F47458"/>
<path d="M51.8571 141.284H21.7494C19.4124 141.284 17.3298 139.354 17.0942 136.982C16.8587 134.601 18.5549 132.68 20.8824 132.68H50.9808C53.3178 132.68 55.4003 134.61 55.6359 136.982C55.8809 139.354 54.1847 141.284 51.8571 141.284Z" fill="#E25A44"/>
<path d="M74.1998 112.102C74.36 111.622 72.0607 111.237 71.9382 110.748C71.8156 110.258 74.8406 110.21 74.9442 109.787C75.1421 109 71.6272 109.634 71.6931 109.259C71.7591 108.894 75.3494 108.049 74.9631 107.425C74.5767 106.791 71.3256 108.693 71.2314 108.261C71.1277 107.829 74.4071 106.772 74.3411 105.831C74.3034 105.332 68.9698 108.357 68.3478 108.088C67.7259 107.819 69.0075 105.447 68.508 105.101C68.0086 104.756 66.6139 109.912 66.2747 110.085C65.9354 110.258 59.0658 113.542 56.5026 114.214C56.1917 113.34 54.2316 109.327 53.9489 108.501C52.5071 109.547 49.2749 110.45 47.7954 111.41C48.8791 114.157 53.5343 120.571 54.2881 120.917C56.578 121.964 65.3983 114.454 67.1605 113.168C68.9227 111.881 69.9404 112.294 71.1277 111.881C72.3151 111.487 74.0301 112.591 74.1998 112.102Z" fill="#F48C7F"/>
<path d="M59.3674 141.284H29.269C26.932 141.284 24.8495 139.354 24.6139 136.982C24.3783 134.601 26.0745 132.68 28.4021 132.68H58.5004C60.8374 132.68 62.92 134.61 63.1556 136.982C63.4006 139.354 61.7044 141.284 59.3674 141.284Z" fill="#F47458"/>
<path d="M48.6626 95.2776C48.9453 95.2488 50.8489 96.0746 52.2624 98.0528C54.0999 100.607 56.8798 112.044 56.7291 111.372L50.4248 114.358L51.0656 109.845L47.7863 96.7852C47.7957 96.7756 48.5872 95.2872 48.6626 95.2776Z" fill="#333333"/>
<path d="M42.1791 94.5286C43.979 94.5286 46.5987 94.615 48.6624 95.2776C48.6624 95.2776 51.7627 102.537 51.8852 119.745C51.904 122.088 52.3658 128.215 52.3658 128.215L31.8793 126.928C31.8793 126.928 32.4824 111.122 32.4165 108.212C32.3411 105.322 31.5684 95.8249 31.5684 95.8249C31.5684 95.8249 31.7003 95.8057 35.7523 95.0951C37.637 94.759 40.2662 94.5286 42.1791 94.5286Z" fill="#666666"/>
<path d="M40.7279 76.831C40.7279 76.831 38.2495 74.9489 36.8643 77.7817C36.8737 77.7625 35.9313 77.6953 35.8088 77.7241C35.2529 77.8489 34.678 78.3387 34.1692 78.5883C32.3505 79.4814 31.3799 81.4307 31.116 83.2648C30.7956 85.4927 31.6343 87.2115 33.0572 88.9496C33.4718 89.4586 33.9242 89.9675 34.5084 90.3228C35.2057 90.7453 35.8088 90.5053 36.4779 90.7165C37.0433 90.8894 37.1941 91.4847 37.8914 91.3311C38.8714 91.1198 39.974 90.0731 41.1425 90.342C42.311 90.6013 45.1286 89.8235 45.138 89.8235C48.766 88.8248 46.9756 82.2662 46.5044 79.9519C46.0803 77.7625 42.9706 76.2357 40.7279 76.831Z" fill="#333333"/>
<path d="M42.5841 91.5518L43.2814 93.962L43.6489 95.3064C43.6489 95.3064 44.2803 96.8332 42.5464 97.1309C39.2105 97.6879 37.9949 94.9799 37.9949 94.9799L37.3635 87.5378L42.5841 91.5518Z" fill="#F7A491"/>
<path d="M37.5614 89.9481C38.9184 92.3488 41.5098 93.5971 43.2814 93.9908L42.5747 91.5614L37.3541 87.5378L37.5614 89.9481Z" fill="#F47458"/>
<path d="M39.1163 80.0768C41.312 79.0493 43.9788 80.1728 44.6479 82.3622C44.94 83.3129 45.251 84.5132 45.4677 85.8384C45.986 89.0361 44.6573 92.3682 43.1024 92.5699C41.5476 92.7619 36.9678 91.2255 36.1762 86.693C35.6674 83.8987 36.8076 81.1619 39.1163 80.0768Z" fill="#F7A491"/>
<path d="M37.3539 86.9136C37.4576 87.6242 37.0335 88.2579 36.421 88.3348C35.8085 88.4116 35.2242 87.9026 35.1206 87.1921C35.0169 86.4815 35.441 85.8477 36.0535 85.7709C36.666 85.694 37.2597 86.203 37.3539 86.9136Z" fill="#F7A491"/>
<path d="M41.9435 88.5942C41.9435 88.5942 39.8798 89.0455 39.6536 89.7273C39.4275 90.4091 39.5782 91.427 40.4923 92.272C41.4064 93.1171 43.5455 92.8098 44.158 92.4353C44.7705 92.0608 45.3736 90.3035 44.8836 89.2568C44.403 88.2101 41.9435 88.5942 41.9435 88.5942Z" fill="#333333"/>
<path d="M41.1518 89.9868C41.1518 89.9868 41.0953 90.755 41.3591 90.9182C41.6136 91.0719 41.9434 91.2159 42.2449 91.264C42.7444 91.3504 43.2155 91.1871 43.5171 90.8414C43.5454 90.803 43.5736 90.7742 43.6019 90.7358C43.8375 90.3709 43.9411 89.6891 43.9411 89.6891C43.9411 89.6891 43.1119 89.4298 42.6124 89.4682C42.113 89.5066 41.1518 89.9868 41.1518 89.9868Z" fill="#F7A491"/>
<path d="M58.7361 111.189C58.8963 110.709 56.597 110.325 56.4745 109.835C56.352 109.346 59.3769 109.298 59.4806 108.875C59.6785 108.088 56.1635 108.721 56.2295 108.347C56.2955 107.982 59.8858 107.137 59.4994 106.513C59.1131 105.879 55.862 107.78 55.7678 107.348C55.6641 106.916 58.9434 105.86 58.8775 104.919C58.8398 104.419 53.5061 107.444 52.8842 107.175C52.2623 106.907 53.5438 104.535 53.0444 104.189C52.545 103.843 51.1503 109 50.8111 109.173C50.4718 109.346 43.6022 112.63 41.039 113.302C40.728 112.428 38.768 108.414 38.4853 107.588C37.0435 108.635 33.8113 109.538 32.3318 110.498C33.4155 113.244 38.0706 119.659 38.8245 120.005C41.1144 121.051 49.9347 113.542 51.6969 112.255C53.459 110.968 54.4768 111.381 55.6641 110.968C56.8609 110.565 58.5759 111.669 58.7361 111.189Z" fill="#F7A491"/>
<path d="M33.4342 114.358C30.6354 107.704 27.8367 98.9172 31.0595 96.0652C32.3316 94.9417 36.1669 97.3423 40.7656 111.401C40.7656 111.401 35.7335 113.984 33.4342 114.358Z" fill="#333333"/>
<path d="M53.6852 159.779L53.4873 163.159C53.4119 163.591 53.1198 164.647 53.1198 165.041C53.1198 166.501 59.9423 163.802 58.4157 163.149C58.2744 163.092 57.5487 162.65 57.5111 162.151C57.4451 161.382 57.266 159.827 57.266 159.827L53.6852 159.779Z" fill="#F7A491"/>
<path d="M64.8614 159.779L64.6635 163.159C64.5881 163.591 64.296 164.648 64.296 165.041C64.296 166.501 71.1185 163.802 69.592 163.149C69.4506 163.092 68.4235 162.9 68.3763 162.41C68.3104 161.642 68.1785 159.27 68.1785 159.27L64.8614 159.779Z" fill="#F7A491"/>
<path d="M42.5183 124.537L58.8302 124.604C58.8302 124.604 66.1993 124.412 67.3584 127.005C68.5269 129.598 68.6023 160.374 68.6023 160.374C68.6023 160.374 64.7481 160.595 64.5502 160.374L59.1506 143.176C58.6795 141.505 58.1706 139.882 58.3308 138.144L58.7548 133.554L52.8935 133.823C52.8935 133.823 45.2606 133.698 42.7539 131.125C40.2379 128.541 42.5183 124.537 42.5183 124.537Z" fill="#EAB054"/>
<path d="M32.0585 122.53C32.0585 122.53 57.3886 125.546 58.5476 128.138C59.7161 130.731 57.9068 160.202 57.9068 160.202C57.9068 160.202 53.4684 160.394 53.4779 160.202C53.4873 159.971 51.3859 147.536 50.387 142.792C50.0666 141.284 49.9535 139.738 50.0572 138.202L50.3116 134.178C50.3116 134.178 33.7076 134.015 32.9066 133.189C30.3905 130.606 32.0585 122.53 32.0585 122.53Z" fill="#F7CC7F"/>
<path d="M58.0859 162.832C58.0859 162.832 56.5782 163.284 55.8055 163.389C55.0328 163.504 54.015 162.554 53.4685 162.813C52.8654 163.092 52.8936 165.617 52.8936 165.617C52.8936 165.617 60.9883 166.337 63.2688 165.588C64.164 165.3 61.1768 163.879 58.0859 162.832Z" fill="#333333"/>
<path d="M69.5823 162.832C69.5823 162.832 67.9804 163.284 67.1605 163.389C66.3407 163.504 65.257 162.554 64.6822 162.813C64.0414 163.092 64.0696 165.617 64.0696 165.617C64.0696 165.617 72.6544 166.337 75.0762 165.588C76.0279 165.3 72.8523 163.879 69.5823 162.832Z" fill="#333333"/>
<path d="M52.1116 124.585V125.709L45.355 124.441L50.2928 123.471L52.1116 124.585Z" fill="#466EB6"/>
<path d="M218.943 165.694H220.507L217.181 136.223H215.616L218.943 165.694Z" fill="#0E2E35"/>
<path d="M201.585 165.694L199.757 165.732L203.356 136.223H204.911L201.585 165.694Z" fill="#0E2E35"/>
<path d="M191.624 165.694H193.179L189.853 136.223H188.298L191.624 165.694Z" fill="#0E2E35"/>
<path d="M174.003 165.694H172.438L175.765 136.223H177.329L174.003 165.694Z" fill="#0E2E35"/>
<path d="M192.802 139.421H214.099C216.596 139.421 219.188 137.356 219.885 134.812L229.488 99.7812C230.185 97.2364 228.724 95.1719 226.227 95.1719H204.93C202.433 95.1719 199.842 97.2364 199.144 99.7812L189.542 134.812C188.854 137.366 190.305 139.421 192.802 139.421Z" fill="#E25A44"/>
<path d="M186.894 139.421H208.191C210.688 139.421 213.279 137.356 213.977 134.812L223.579 99.7812C224.276 97.2364 222.816 95.1719 220.318 95.1719H199.022C196.524 95.1719 193.933 97.2364 193.236 99.7812L183.633 134.821C182.936 137.366 184.396 139.421 186.894 139.421Z" fill="#F47458"/>
<path d="M184.302 140.362H214.485C216.822 140.362 218.914 138.432 219.15 136.05C219.386 133.669 217.689 131.739 215.352 131.739H185.169C182.832 131.739 180.74 133.669 180.505 136.05C180.26 138.432 181.965 140.362 184.302 140.362Z" fill="#E25A44"/>
<path d="M176.499 140.362H206.682C209.019 140.362 211.111 138.586 211.347 136.387C211.582 134.188 209.886 132.411 207.549 132.411H177.366C175.029 132.411 172.937 134.188 172.701 136.387C172.456 138.576 174.162 140.362 176.499 140.362Z" fill="#F47458"/>
<path d="M220.394 132.939C220.394 132.939 219.225 138.49 217.689 139.018L218.029 134.917L220.394 132.939Z" fill="#E25A44"/>
<path d="M192.963 154.008C192.963 154.008 196.854 158.761 196.883 159.174C196.911 159.587 196.732 164.1 196.27 164.513C195.808 164.926 194.451 165.224 194.885 165.685C195.215 166.04 197.344 165.934 199.031 165.838C199.521 165.809 200.548 161.834 200.746 161.248C201.029 160.394 201.717 158.473 201.462 157.878C201.34 157.59 200.737 156.994 199.898 156.437C199.012 155.851 195.61 151.041 195.61 151.041L192.963 154.008Z" fill="#F48C7F"/>
<path d="M199.823 156.418C199.823 156.418 197.213 163.908 196.185 164.273C195.912 164.369 194.612 164.609 194.367 165.204C194.291 165.377 194.367 165.973 194.367 165.973L199.757 165.742C199.757 165.742 202.207 157.676 202.047 157.359C201.896 157.023 199.823 156.418 199.823 156.418Z" fill="#FFC700"/>
<path d="M169.659 156.293C169.659 156.293 166.483 160.854 166.766 162.295C166.916 163.063 167.585 164.081 167.199 164.801C166.813 165.531 166.379 165.713 166.379 165.713L156.466 165.877C155.929 165.886 156.287 165.531 156.72 165.204C157.436 164.676 158.011 164.321 160.282 163.197C160.433 163.121 160.97 162.775 161.168 162.65C161.658 162.343 162.158 161.863 162.582 161.373C163.298 160.566 166.426 153.998 166.426 153.998L169.659 156.293Z" fill="#F7A491"/>
<path d="M161.168 162.65C163.788 163.332 165.729 162.871 166.813 162.429C167.095 163.236 167.463 164.244 167.265 164.83C167.02 165.54 166.719 166.059 166.408 166.069C164.014 166.136 157.606 165.857 155.778 165.886C155.524 165.886 155.382 165.588 155.542 165.387C156.004 164.83 160.97 162.775 161.168 162.65Z" fill="#FFC700"/>
<path d="M181.155 128.176C181.155 128.176 185.085 132.747 186.093 133.477C187.092 134.197 198.768 155.266 198.768 155.266L196.299 158.281C196.299 158.281 184.689 143.886 180.646 138.038C177.226 133.093 178.488 133.41 176.481 130.395C175.379 128.733 175.624 126.496 177.084 125.152C177.263 124.988 177.461 124.806 177.678 124.623C180.656 122.098 203.131 117.277 203.131 117.277L214.081 120.552C214.081 120.552 203.423 128.167 203.027 128.368C202.631 128.57 188.317 130.702 188.015 130.702C187.714 130.702 181.155 128.176 181.155 128.176Z" fill="#F48C7F"/>
<path d="M215.4 120.677C215.4 120.677 217.633 127.514 214.278 130.702C210.924 133.89 190.993 133.535 184.425 133.535C184.425 133.535 182.135 141.207 181.438 142.244C180.345 143.886 167.246 160.528 167.246 160.528L163.628 159.52C163.628 159.52 178.564 129.07 179.657 127.85C180.75 126.63 196.355 121.772 200.237 120.658C204.12 119.563 215.4 120.677 215.4 120.677Z" fill="#F7A491"/>
<path d="M201.811 81.7476C202.961 79.1549 204.129 76.5526 206.956 75.3042C209.237 74.2959 211.583 74.7761 213.534 76.3701C219.075 80.893 213.986 85.5215 220.196 93.9622C222.128 96.5837 224.493 98.7251 225.596 101.769C227.15 106.023 225.087 107.972 221.817 109.883C206.165 119.025 198.711 99.0132 199.135 94.5C199.446 91.1582 201.066 83.4185 201.811 81.7476Z" fill="#333333"/>
<path d="M200.624 103.094L199.135 107.319H201.877L202.084 103.094H200.624Z" fill="#F7A491"/>
<path d="M202.659 98.6484C205.128 93.7895 206.899 94.3176 206.899 94.3176L203.545 105.351C202.593 104.89 201.566 103.555 200.614 103.085C201.227 101.529 202.056 99.8488 202.659 98.6484Z" fill="#BED9EA"/>
<path d="M215.541 121.051C215.22 119.947 214.099 115.943 214.193 115.27C214.514 112.812 219.244 96.8812 217.501 94.9511C215.757 93.0209 212.676 93.0882 212.676 93.0882C212.676 93.0882 207.173 93.7892 206.541 94.4902C205.91 95.1912 203.272 102.336 202.951 104.093C202.763 105.149 202.254 112.226 202.301 117.873C202.301 117.873 203.366 119.889 206.739 120.638C208.897 121.118 215.541 121.051 215.541 121.051Z" fill="#D3E5F4"/>
<path d="M211.206 87.1058C211.206 87.1058 211.225 87.2402 211.272 87.4611C211.47 88.5366 212.224 92.1088 212.733 93.0883C213.354 94.279 210.622 98.0624 207.993 97.6015C207.21 97.4671 208.652 94.1253 208.586 93.77C208.454 93.0883 208.275 92.1664 208.087 91.2253C207.983 90.6876 207.879 90.1498 207.776 89.6409C207.493 88.1909 207.267 87.0098 207.267 87.0098L211.206 87.1058Z" fill="#F7A491"/>
<path d="M211.272 87.4611C211.234 87.2402 211.206 87.1058 211.206 87.1058L207.267 87.0098C207.267 87.0098 207.493 88.1909 207.776 89.6409C207.87 90.1498 207.983 90.6876 208.087 91.2157C208.699 91.1293 209.331 90.822 209.971 90.2555C210.669 89.6409 211.121 88.8919 211.394 88.1045C211.338 87.8452 211.3 87.6243 211.272 87.4611Z" fill="#F47458"/>
<path d="M208.841 77.5606C208.841 77.5606 210.443 77.791 211.611 79.3179C212.77 80.8447 214.033 85.5788 211.14 88.1523C208.247 90.7258 205.392 87.8162 204.968 84.7241C204.544 81.6321 204.628 77.4549 208.841 77.5606Z" fill="#F7A491"/>
<path d="M204.12 83.9655C204.299 84.7146 204.779 85.2139 205.184 85.0891C205.59 84.9642 205.778 84.2632 205.59 83.5142C205.401 82.7652 204.93 82.2659 204.525 82.3907C204.12 82.5155 203.94 83.2261 204.12 83.9655Z" fill="#F7A491"/>
<path d="M207.05 77.5799C207.05 77.5799 210.829 81.9971 212.601 82.2084C214.372 82.4197 214.608 84.8107 214.608 84.8107C214.608 84.8107 213.976 79.2988 212.214 78.2329C210.461 77.167 207.05 77.5799 207.05 77.5799Z" fill="#333333"/>
<path d="M212.026 83.2745C211.885 84.0715 212.167 84.8109 212.676 84.9165C213.176 85.0221 213.703 84.4556 213.845 83.6586C213.986 82.8616 213.703 82.1221 213.194 82.0261C212.695 81.9109 212.167 82.4774 212.026 83.2745Z" fill="#F7A491"/>
<path d="M206.768 86.2609L209.51 86.2417C209.51 86.2417 209.453 87.3076 208.247 87.346C206.777 87.4036 206.768 86.2609 206.768 86.2609Z" fill="white"/>
<path d="M197.957 104.401L197.306 105.169L197.372 104.161L197.683 103.93L197.957 104.401Z" fill="#F2E9DA"/>
<path d="M197.683 103.93L197.759 104.055L197.306 105.169L197.372 104.161L197.683 103.93Z" fill="#E0D5C3"/>
<path d="M197.372 104.16L197.354 104.419L197.533 104.227L198.805 99.8193L198.597 99.8577L197.372 104.16Z" fill="#E8BA70"/>
<path d="M197.533 104.227L197.41 103.67L197.796 104.333L199.069 99.925L198.805 99.8193L197.533 104.227Z" fill="#F7CC7F"/>
<path d="M197.797 104.333L197.787 104.602L197.957 104.4L199.191 100.098L199.069 99.9255L197.797 104.333Z" fill="#00C081"/>
<path d="M198.804 99.8046L198.696 100.072L198.958 100.181L199.065 99.914L198.804 99.8046Z" fill="#466EB6"/>
<path d="M198.956 100.185L199.068 99.9255L199.191 100.098L199.125 100.262L198.956 100.185Z" fill="#88B5E2"/>
<path d="M198.531 100.012L198.597 99.8578L198.805 99.8193L198.701 100.079L198.531 100.012Z" fill="#2C4B70"/>
<path d="M198.846 100.49L199.011 100.56L199.137 100.249L198.971 100.18L198.846 100.49Z" fill="#FEF8F8"/>
<path d="M198.414 100.314L198.579 100.383L198.704 100.072L198.539 100.003L198.414 100.314Z" fill="#EDDFCA"/>
<path d="M198.581 100.398L198.842 100.507L198.967 100.196L198.706 100.087L198.581 100.398Z" fill="#F2E9DA"/>
<path d="M197.523 104.909L197.297 105.169L197.316 104.823L197.391 104.919L197.523 104.909Z" fill="#DB3F2A"/>
<path d="M206.607 101.999L205.571 101.596L199.031 103.334L199.935 104.189L206.607 101.999Z" fill="#EAFCFC"/>
<path d="M191.256 103.075L192.02 101.798L199.031 103.334L198.541 105.053L191.256 103.075Z" fill="#EAFCFC"/>
<path d="M201.537 116.807L208.605 115.357C208.793 115.318 208.906 115.146 208.878 114.944L207.012 102.259C206.975 102 206.711 101.808 206.466 101.856L199.54 103.277L201.537 116.807Z" fill="#333333"/>
<path d="M200.491 116.826L193.028 115.587C192.83 115.559 192.66 115.386 192.632 115.184L190.766 102.499C190.729 102.24 190.936 102.038 191.19 102.086L198.503 103.296L200.491 116.826Z" fill="#333333"/>
<path d="M200.661 116.98L201.415 116.97C201.5 116.97 201.547 116.903 201.537 116.816L199.549 103.296C199.54 103.219 199.464 103.152 199.38 103.152L198.626 103.161C198.541 103.161 198.494 103.229 198.503 103.315L200.491 116.836C200.501 116.912 200.576 116.98 200.661 116.98Z" fill="#2C4B70"/>
<path d="M201.999 112.937C201.867 112.793 201.764 112.38 200.756 111.219C200.463 110.882 199.87 110.69 199.87 110.69C199.87 110.69 199.135 110.46 199.031 110.623C198.927 110.786 199.003 111.017 199.116 111.113C199.229 111.209 199.531 111.267 199.653 111.363C199.766 111.459 199.832 111.948 199.794 112.121C199.757 112.294 197.608 111.535 197.608 111.535C197.608 111.535 197.005 111.286 196.807 111.19C196.638 111.103 196.166 110.815 196.166 110.815C196.166 110.815 195.469 110.441 195.365 110.671C195.309 110.806 195.837 111.324 196.421 111.737C197.052 112.179 197.75 112.505 197.731 112.582C197.674 112.765 196.487 112.371 196.487 112.371C196.487 112.371 195.968 112.054 195.705 111.996C195.422 111.747 194.847 111.487 194.743 111.775C194.725 111.833 195.403 112.409 195.403 112.409C195.403 112.409 195.903 112.697 196.129 112.851C196.534 113.12 197.222 113.312 197.504 113.466C197.74 113.6 197.627 113.638 197.636 113.667C197.636 113.696 197.297 113.571 196.826 113.408C196.59 113.331 196.308 113.293 196.044 113.149C195.799 113.024 195.45 112.889 195.233 112.822C194.621 112.621 194.602 113.062 195.149 113.341C195.356 113.446 195.582 113.562 195.808 113.677C196.694 114.128 197.599 114.339 197.589 114.455C197.57 114.599 195.959 114.109 195.959 114.109C195.959 114.109 195.017 114.099 195.818 114.522C196.751 115.012 197.542 115.175 197.58 115.184C197.825 115.223 198.635 115.617 199.502 115.597C200.134 115.588 201.048 115.549 201.481 115.521L201.999 112.937Z" fill="#F8A492"/>
<path d="M217.614 106.234L213.251 106.436C213.251 106.436 213.109 110.2 213.015 110.623C213.015 110.623 205.184 112.534 201.999 112.937L201.434 115.501C202.056 115.434 202.565 115.338 202.866 115.319C203.46 115.28 212.968 114.867 212.968 114.867C212.968 114.867 216.756 114.531 217.039 113.888C217.322 113.244 217.614 106.234 217.614 106.234Z" fill="#F7A491"/>
<path d="M217.105 113.264C217.105 113.264 219.866 99.5989 219.376 97.1886C218.886 94.7784 215.918 92.7714 214.033 93.7893C212.148 94.8072 212.997 110.661 212.997 110.661C212.997 110.661 214.193 112.082 214.721 112.418C215.277 112.774 217.105 113.264 217.105 113.264Z" fill="#BED9EA"/>
<path d="M214.071 120.562L203.121 117.287C203.121 117.287 187.591 120.619 180.646 123.193C180.646 123.193 182.145 129.367 189.467 133.554L192.963 133.544C201.312 133.448 211.913 132.968 214.278 130.712C217.633 127.524 215.4 120.686 215.4 120.686C215.4 120.686 214.9 120.629 214.071 120.562Z" fill="#333333"/>
<path d="M182.201 126.621L194.895 122.482L181.41 125.161C181.41 125.161 182.013 126.4 182.201 126.621Z" fill="#333333"/>
<path d="M148.513 134.495H82.8693V136.05H148.513V134.495Z" fill="#333333"/>
<path d="M151.189 166.011L145.007 134.927L146.647 134.62L152.376 166.011H151.189Z" fill="#333333"/>
<path d="M80.5699 166.011L86.7517 134.927L85.112 134.62L79.3826 166.011H80.5699Z" fill="#333333"/>
<path d="M146.779 143.176H84.5563V143.858H146.779V143.176Z" fill="#333333"/>
<path d="M95.4213 129.684H95.5909C95.6474 129.108 95.7511 128.474 95.949 127.802C96.684 125.286 96.3636 124.96 97.5981 123.385C98.8325 121.81 98.9268 118.545 98.9268 118.545C98.9268 118.545 99.5204 114.838 98.9268 113.206C98.3331 111.574 98.286 109.941 96.8442 108.213C96.8442 108.213 96.5709 110.517 96.2223 111.574C95.883 112.62 95.5532 113.629 95.8076 116.144C96.0621 118.66 96.2223 118.872 96.2788 119.525C96.3353 120.178 96.2411 122.934 96.3824 123.385C96.5238 123.836 95.5815 126.986 95.5155 128.34C95.4872 128.753 95.4495 129.214 95.4213 129.684Z" fill="#215E4B"/>
<path d="M95.9491 129.684C96.1846 129.127 96.6087 128.57 97.3437 128.234C99.2661 127.36 100.567 127.38 101.452 125.277C102.338 123.174 102.348 120.312 102.659 119.717C102.659 119.717 101.839 119.573 101.009 121.08C100.19 122.588 99.6242 123.702 99.153 124.576C98.6819 125.449 97.9939 125.209 97.4097 125.872C96.9197 126.429 96.4673 127.725 96.2977 128.378C96.2412 128.589 96.1564 128.801 96.0527 128.993C95.9585 129.166 95.8454 129.377 95.77 129.531C95.7512 129.569 95.7417 129.617 95.7229 129.684H95.9491Z" fill="#3C8F7C"/>
<path d="M90.5213 119.736C90.3799 121.532 91.5013 121.388 91.5484 122.53C91.5955 123.673 93.0562 125.613 93.7346 126.986C94.0833 127.706 94.2152 128.791 94.2623 129.684H94.8089C94.6016 127.447 93.7064 125.882 93.1692 124.633C92.4813 123.02 92.3777 122.29 92.9619 121.032C93.5462 119.774 92.6886 116.519 93.5179 115.069C94.3472 113.619 93.9231 111.343 93.7346 110.469C93.5462 109.595 93.7535 109 93.9231 108.078C94.0927 107.156 93.7346 105.812 93.7346 105.812C93.7064 106.955 92.8488 108.52 92.2363 109.519C91.6144 110.517 90.4553 113.254 90.5872 114.483C90.7286 115.722 90.6532 115.808 90.6532 115.808C90.2291 117.479 90.6626 117.94 90.5213 119.736Z" fill="#215E4B"/>
<path d="M93.7912 128.225C93.8571 128.436 94.0833 128.983 94.2906 129.684H94.6204C94.4697 128.801 94.2058 127.764 93.7629 127.178C92.8677 125.987 91.0867 125.478 90.8793 124.614C90.672 123.75 90.8982 121.167 89.5978 119.717C89.5978 119.717 89.7768 121.33 89.5978 121.762C89.4187 122.194 87.8544 124.201 88.7779 125.881C89.692 127.562 91.7557 127.351 92.3965 127.725C93.0373 128.09 93.6781 127.879 93.7912 128.225Z" fill="#3C8F7C"/>
<path d="M92.9713 120.485C92.9525 122.213 94.2718 122.866 94.2529 123.817C94.2341 124.777 94.5262 125.795 94.7806 126.573C94.9408 127.063 94.856 128.417 94.8277 129.694H95.1953C95.2895 128.762 95.3931 127.408 95.3554 126.813C95.3083 125.997 95.6758 125.344 95.723 123.923C95.7701 122.501 96.0622 121.215 95.4497 119.419C94.8277 117.623 94.9502 115.482 92.3588 113.494C92.3588 113.494 91.8971 115.597 92.2457 116.74C92.585 117.873 92.9902 118.756 92.9713 120.485Z" fill="#3C8F7C"/>
<path d="M92.9713 120.485C92.9525 122.213 94.2718 122.866 94.2529 123.817C94.2341 124.777 94.5262 125.795 94.7806 126.573C94.9408 127.063 94.856 128.417 94.8277 129.694H94.9785C94.9973 129.425 95.0162 129.262 95.0162 129.262L95.0916 126.045C95.0916 126.045 94.9408 123.529 94.6675 121.474C94.3943 119.419 92.3588 113.494 92.3588 113.494C92.3588 113.494 91.8971 115.597 92.2457 116.74C92.585 117.873 92.9902 118.756 92.9713 120.485Z" fill="#327F6B"/>
<path d="M95.5909 128.215H95.3459H92.0477C91.8027 128.215 91.6236 128.446 91.6802 128.686L92.9712 134.236C93.0089 134.409 93.1596 134.534 93.3387 134.534H95.3459H95.5909H97.5981C97.7677 134.534 97.9185 134.409 97.9656 134.236L99.2566 128.686C99.3131 128.446 99.1341 128.215 98.8891 128.215H95.5909Z" fill="#F47458"/>
<path d="M58.2742 26.0907H58.5192V2.06477C61.0258 3.85087 63.8246 4.96478 66.8401 5.37769C69.3184 5.71378 71.9381 5.58895 74.6521 4.99358C78.6287 4.11974 81.6159 2.48729 82.3792 2.03596V11.8595H82.6242V1.59424L82.4358 1.70947C82.4075 1.72868 79.147 3.74524 74.5861 4.74391C70.3833 5.66577 64.1732 5.88663 58.4627 1.70947L58.2648 1.56543V26.0907H58.2742Z" fill="#333333"/>
<path d="M82.5015 10.1211C83.7643 10.1211 84.782 11.1582 84.782 12.4449V17.3999H80.2211V12.4449C80.2211 11.1678 81.2482 10.1211 82.5015 10.1211Z" fill="#F47458"/>
<path d="M58.3968 25.1782C59.6595 25.1782 60.6773 26.2153 60.6773 27.5021V32.457H56.1163V27.5021C56.1163 26.2249 57.1341 25.1782 58.3968 25.1782Z" fill="#F47458"/>
<path d="M149.672 33.7917H132.7V57.4623H149.672V33.7917Z" fill="#333333"/>
<path d="M148.221 35.2227H134.17V56.0316H148.221V35.2227Z" fill="#EAFCFC"/>
<path opacity="0.1" d="M141.191 39.6497C139.099 39.6497 137.393 41.3781 137.393 43.5195H144.979C144.988 41.3781 143.283 39.6497 141.191 39.6497Z" fill="#333333"/>
<path opacity="0.1" d="M147.363 44.9023H135.245V45.3249H147.363V44.9023Z" fill="#333333"/>
<path opacity="0.1" d="M147.363 46.5925H135.245V47.015H147.363V46.5925Z" fill="#333333"/>
<path opacity="0.1" d="M144.103 36.4712H138.515V36.8937H144.103V36.4712Z" fill="#333333"/>
<path opacity="0.1" d="M146.138 38.0652H136.47V38.4877H146.138V38.0652Z" fill="#333333"/>
<path opacity="0.1" d="M146.251 48.292H136.366V48.7145H146.251V48.292Z" fill="#333333"/>
<path opacity="0.1" d="M141.718 53.0933H134.783V53.5158H141.718V53.0933Z" fill="#333333"/>
<path opacity="0.1" d="M139.871 54.3032H134.783V54.7257H139.871V54.3032Z" fill="#333333"/>
<g opacity="0.1">
<g opacity="0.1">
<path opacity="0.1" d="M145.073 54.2937L144.338 53.007L144.593 52.8533L145.026 53.6023L145.723 51.8931L146.006 52.0083L145.073 54.2937Z" fill="#333333"/>
</g>
</g>
<path opacity="0.1" d="M145.12 51.1533C143.952 51.1533 143.01 52.1136 143.01 53.3043C143.01 54.4951 143.952 55.4553 145.12 55.4553C146.289 55.4553 147.231 54.4951 147.231 53.3043C147.241 52.1136 146.289 51.1533 145.12 51.1533ZM145.12 55.2825C144.046 55.2825 143.179 54.399 143.179 53.3043C143.179 52.2096 144.046 51.3262 145.12 51.3262C146.195 51.3262 147.062 52.2096 147.062 53.3043C147.062 54.399 146.195 55.2825 145.12 55.2825Z" fill="#333333"/>
<path d="M182.235 62.1811V44.8867L159.006 44.8867V62.1811H182.235Z" fill="#333333"/>
<path d="M180.794 60.7016V46.384L160.373 46.384V60.7016H180.794Z" fill="#EAFCFC"/>
<path opacity="0.1" d="M179.374 48.6855H161.8V49.1081H179.374V48.6855Z" fill="#333333"/>
<path opacity="0.1" d="M179.374 50.3755H161.8V50.798H179.374V50.3755Z" fill="#333333"/>
<path opacity="0.1" d="M177.744 52.0754H163.42V52.498H177.744V52.0754Z" fill="#333333"/>
<path opacity="0.1" d="M176.123 59.0371H161.8V59.4596H176.123V59.0371Z" fill="#333333"/>
<path opacity="0.1" d="M174.615 55.1096H169.432V55.5321H174.615V55.1096Z" fill="#333333"/>
<path opacity="0.1" d="M173.381 56.3101H169.432V56.7326H173.381V56.3101Z" fill="#333333"/>
<path opacity="0.1" d="M166.982 55.1096H161.8V55.5321H166.982V55.1096Z" fill="#333333"/>
<path opacity="0.1" d="M167.991 56.3101H161.8V56.7326H167.991V56.3101Z" fill="#333333"/>
<g opacity="0.1">
<g opacity="0.1">
<path opacity="0.1" d="M177.499 56.7036L176.915 55.6857L177.122 55.5609L177.461 56.1562L178.017 54.8022L178.243 54.8983L177.499 56.7036Z" fill="#333333"/>
</g>
</g>
<path opacity="0.1" d="M177.537 54.2168C176.613 54.2168 175.859 54.985 175.859 55.9261C175.859 56.8671 176.613 57.6353 177.537 57.6353C178.46 57.6353 179.214 56.8671 179.214 55.9261C179.214 54.9754 178.47 54.2168 177.537 54.2168ZM177.537 57.4817C176.689 57.4817 176.001 56.7807 176.001 55.9165C176.001 55.0522 176.689 54.3512 177.537 54.3512C178.385 54.3512 179.073 55.0522 179.073 55.9165C179.073 56.7807 178.385 57.4817 177.537 57.4817Z" fill="#333333"/>
<path d="M170.432 69.187H153.46V92.8576H170.432V69.187Z" fill="#333333"/>
<path d="M168.971 70.6179H154.921V91.4269H168.971V70.6179Z" fill="#EAFCFC"/>
<path opacity="0.1" d="M168.123 80.2974H156.004V80.7199H168.123V80.2974Z" fill="#333333"/>
<path opacity="0.1" d="M168.123 81.9875H156.004V82.4101H168.123V81.9875Z" fill="#333333"/>
<path opacity="0.1" d="M164.853 71.8662H159.265V72.2887H164.853V71.8662Z" fill="#333333"/>
<path opacity="0.1" d="M166.898 73.4604H157.229V73.883H166.898V73.4604Z" fill="#333333"/>
<path opacity="0.1" d="M162.94 88.4883H156.004V88.9108H162.94V88.4883Z" fill="#333333"/>
<path opacity="0.1" d="M161.093 89.6982H156.004V90.1208H161.093V89.6982Z" fill="#333333"/>
<path opacity="0.1" d="M165.965 83.7832H156.004V84.2057H165.965V83.7832Z" fill="#333333"/>
<path opacity="0.1" d="M161.093 85.4155H156.004V85.8381H161.093V85.4155Z" fill="#333333"/>
<path opacity="0.1" d="M165.88 90.4185C164.636 90.4185 163.637 89.391 163.637 88.1331C163.637 86.8751 164.646 85.8477 165.88 85.8477C167.124 85.8477 168.123 86.8751 168.123 88.1331C168.123 89.391 167.115 90.4185 165.88 90.4185Z" fill="#333333"/>
<path opacity="0.1" d="M167.737 75.4575H156.381V78.8857H167.737V75.4575Z" fill="#333333"/>
<path d="M143.046 84.8618V67.5674H119.817V84.8618H143.046Z" fill="#333333"/>
<path d="M141.651 83.3732V69.0557H121.23V83.3732H141.651Z" fill="#EAFCFC"/>
<path opacity="0.1" d="M129.092 80.5854H122.156V81.008H129.092V80.5854Z" fill="#333333"/>
<path opacity="0.1" d="M127.244 81.7954H122.156V82.2179H127.244V81.7954Z" fill="#333333"/>
<path opacity="0.1" d="M133.738 81.0183H140.673V80.5958H133.738V81.0183Z" fill="#333333"/>
<path opacity="0.1" d="M135.582 82.2197H140.671V81.7972H135.582V82.2197Z" fill="#333333"/>
<path opacity="0.1" d="M131.419 82.2178C130.769 82.2178 130.241 81.6801 130.241 81.0175C130.241 80.3549 130.769 79.8171 131.419 79.8171C132.069 79.8171 132.597 80.3549 132.597 81.0175C132.597 81.6801 132.069 82.2178 131.419 82.2178Z" fill="#333333"/>
<path opacity="0.1" d="M140.673 70.9443H122.156V72.6536H140.673V70.9443Z" fill="#333333"/>
<path opacity="0.1" d="M140.673 73.4795H122.156V77.4454H140.673V73.4795Z" fill="#333333"/>
<path d="M255.157 139.651C255.025 138.432 254.865 137.193 254.309 136.108C253.64 134.792 252.453 133.832 251.416 132.785C249.484 130.827 247.996 128.416 247.11 125.785C246.422 123.749 246.073 121.589 245.121 119.668C244.537 118.497 243.746 117.45 243.086 116.327C241.531 113.667 240.683 110.517 238.563 108.289C238.158 110.987 238.959 113.859 240.702 115.933C241.22 116.547 241.823 117.104 242.219 117.815C242.935 119.102 242.869 120.667 242.954 122.146C243.114 124.921 243.878 127.658 245.187 130.106C246.573 132.699 248.57 135.013 249.315 137.865C249.871 140.007 249.701 142.407 250.889 144.261C251.02 144.462 251.162 144.664 251.199 144.904C251.218 145.038 251.199 145.173 251.181 145.307C251.152 145.48 251.124 145.653 251.105 145.826C250.832 147.574 250.559 149.811 252.038 151.117C253.065 152.029 254.385 152.048 255.12 150.838C255.864 149.619 255.798 147.842 255.742 146.479C255.647 144.203 255.412 141.918 255.157 139.651Z" fill="#3C8F7C"/>
<path d="M257.824 138.249C257.249 136.223 256.354 134.293 255.911 132.228C255.478 130.231 255.478 128.157 255.468 126.112C255.468 123.864 255.468 121.627 255.468 119.38C255.468 117.988 255.468 116.576 255.242 115.203C254.752 112.236 253.244 109.499 252.99 106.503C252.877 105.207 253.009 103.901 252.867 102.604C252.792 101.865 252.604 101.116 252.264 100.453C251.906 99.7522 250.907 99.781 250.578 100.501C249.842 102.124 249.381 103.872 249.673 105.61C249.852 106.656 250.295 107.626 250.625 108.625C252.095 113.09 251.313 118.036 252.453 122.597C252.801 123.97 253.32 125.324 253.376 126.745C253.518 130.145 251.03 133.256 251.256 136.646C251.444 139.43 253.405 141.735 254.234 144.395C254.696 145.883 254.79 147.477 255.289 148.956C255.676 150.109 256.571 151.501 257.956 151.155C259.275 150.829 258.88 149.724 258.814 148.678C258.616 145.144 258.804 141.706 257.824 138.249Z" fill="#327F6B"/>
<path d="M261.198 140.132C261.141 139.075 260.962 138.019 261.113 136.972C261.235 136.089 261.584 135.253 261.829 134.399C262.291 132.795 262.404 131.115 262.517 129.444C262.724 126.419 262.922 123.384 263.13 120.36C263.45 115.654 263.761 110.93 264.628 106.292C264.863 105.005 265.137 103.613 264.571 102.431C264.449 102.182 264.213 101.923 263.959 101.999C263.77 102.057 263.686 102.268 263.62 102.451C261.735 107.684 261.019 113.311 258.908 118.458C258.399 119.687 257.815 120.907 257.551 122.213C257.24 123.788 257.41 125.411 257.447 127.014C257.504 129.309 257.287 131.633 256.665 133.842C256.335 134.994 255.902 136.127 255.723 137.318C255.497 138.797 255.685 140.314 255.826 141.802C256.09 144.674 256.184 147.564 256.1 150.445C256.053 152.144 257.457 152.096 258.38 151.05C259.03 150.32 259.021 149.523 259.247 148.611C259.963 145.643 261.377 143.358 261.198 140.132Z" fill="#3C8F7C"/>
<path d="M252.067 144.702C250.823 142.667 248.354 141.514 247.562 139.258C247.364 138.681 247.28 138.067 247.035 137.51C246.488 136.281 245.244 135.58 244.019 135.013C243.849 134.936 243.651 135.061 243.651 135.253C243.651 135.561 243.793 135.849 244.038 136.012C244.98 136.655 245.696 137.644 246.017 138.768C246.394 140.093 246.234 141.533 246.705 142.83C247.1 143.915 247.911 144.798 248.297 145.883C248.646 146.882 248.608 147.967 248.778 149.004C248.938 150.051 249.4 151.155 250.333 151.597C253.716 153.191 252.868 146.018 252.067 144.702Z" fill="#327F6B"/>
<path d="M266.211 144.03C266.154 145.01 266.305 146.047 265.928 146.949C265.683 147.526 265.25 147.996 264.892 148.515C263.638 150.32 263.186 152.874 261.264 153.892C261.141 153.959 261 154.017 260.858 153.988C260.661 153.95 260.529 153.758 260.453 153.566C259.982 152.442 260.51 151.184 260.821 150.013C260.877 149.811 260.924 149.581 260.821 149.388C260.717 149.177 260.472 149.091 260.312 148.928C259.982 148.601 260.01 148.063 260.076 147.602C260.237 146.45 260.472 145.298 260.764 144.165C260.934 143.521 261.122 142.878 261.49 142.331C261.886 141.726 262.47 141.274 263.007 140.794C265.401 138.691 267.238 135.935 268.265 132.881C268.491 132.219 268.689 131.527 269.142 131.009C269.603 130.49 270.423 130.222 270.979 130.625C271.375 130.913 269.745 133.582 269.556 133.899C269.01 134.812 269.01 135.609 268.699 136.627C267.954 139.133 266.352 141.361 266.211 144.03Z" fill="#3C8F7C"/>
<path d="M264.317 145.163C264.675 144.222 265.033 143.271 265.146 142.273C265.278 141.159 265.099 140.026 265.288 138.931C265.523 137.519 266.334 136.271 266.739 134.888C267.031 133.89 267.097 132.852 267.276 131.825C267.775 128.906 269.123 126.044 268.737 123.106C268.652 122.462 268.369 121.723 267.747 121.608C267.182 121.512 266.673 122.03 266.522 122.597C266.371 123.163 266.484 123.759 266.522 124.344C266.635 125.967 266.183 127.629 265.259 128.963C264.373 130.241 263.092 131.201 262.291 132.545C261.311 134.187 261.179 136.185 260.68 138.038C259.69 141.716 257.193 144.933 256.741 148.726C256.562 150.233 256.91 152.067 258.277 152.672C262.225 154.41 263.422 147.525 264.317 145.163Z" fill="#327F6B"/>
<path d="M257.409 149.84H256.778H248.344C247.722 149.84 247.27 150.435 247.411 151.05L250.719 165.252C250.823 165.694 251.209 166.001 251.652 166.001H256.778H257.409H262.536C262.979 166.001 263.365 165.694 263.469 165.252L266.776 151.05C266.918 150.435 266.465 149.84 265.843 149.84H257.409Z" fill="#F7CC7F"/>
<path d="M215.852 55.0328C223.482 55.0328 229.667 48.7344 229.667 40.9649C229.667 33.1954 223.482 26.897 215.852 26.897C208.223 26.897 202.038 33.1954 202.038 40.9649C202.038 48.7344 208.223 55.0328 215.852 55.0328Z" fill="#333333"/>
<path d="M227.999 40.1868C228.423 47.0143 223.325 52.9008 216.616 53.3233C209.906 53.7554 204.13 48.5604 203.715 41.7329C203.3 34.9054 208.389 29.0189 215.098 28.5964C221.799 28.1643 227.575 33.3593 227.999 40.1868Z" fill="#EAFCFC"/>
<path d="M204.906 40.7597V41.0574H208.656V40.7597H204.906Z" fill="#C5DDF9"/>
<path d="M223.075 40.7599V41.0576H226.825V40.7599H223.075Z" fill="#C5DDF9"/>
<path d="M215.984 29.8931H215.693V33.7149H215.984V29.8931Z" fill="#C5DDF9"/>
<path d="M215.984 48.3206H215.693V52.1424H215.984V48.3206Z" fill="#C5DDF9"/>
<path d="M216.192 40.9648C216.192 41.1569 216.041 41.3105 215.853 41.3105C215.664 41.3105 215.513 41.1569 215.513 40.9648C215.513 40.7728 215.664 40.6191 215.853 40.6191C216.041 40.6191 216.192 40.7728 216.192 40.9648Z" fill="#B0C1EC"/>
<path d="M215.853 41.1187C215.815 41.1187 215.777 41.0995 215.749 41.0707L209.662 34.8674C209.605 34.8097 209.605 34.7137 209.662 34.6465C209.718 34.5793 209.812 34.5889 209.878 34.6465L215.966 40.8498C216.022 40.9074 216.022 41.0035 215.966 41.0707C215.928 41.0995 215.89 41.1187 215.853 41.1187Z" fill="#B0C1EC"/>
<path d="M217.813 47.2259C217.784 47.2163 217.766 47.1875 217.756 47.1587L215.787 41.0994C215.768 41.0418 215.796 40.9746 215.853 40.9554C215.909 40.9362 215.975 40.965 215.994 41.0226L217.964 47.0819C217.982 47.1395 217.954 47.2067 217.898 47.2259C217.869 47.2451 217.841 47.2451 217.813 47.2259Z" fill="#B0C1EC"/>
<path d="M111.281 130.884H110.687C110.781 130.807 110.904 130.769 111.036 130.769H125.934C126.716 130.769 127.348 131.402 127.348 132.18V133.073C127.348 133.851 126.716 134.485 125.934 134.485L111.205 134.475L111.281 130.884Z" fill="#333333"/>
<path d="M119.743 130.769C120.488 130.769 121.091 131.374 121.091 132.114V133.122C121.091 133.871 120.488 134.466 119.743 134.466H110.47V134.236H110.508L112.864 134.015L113.345 132.142C113.345 132.142 112.421 131.115 112.365 131.086C112.308 131.057 110.508 130.98 110.508 130.98H110.47V130.76H119.743V130.769Z" fill="#0E293F"/>
<path d="M111.063 132.623C111.063 131.528 110.498 131 110.498 131H119.545C120.232 131 120.788 131.557 120.788 132.239V133.017C120.788 133.698 120.232 134.255 119.545 134.255H110.498C110.498 134.255 111.063 133.996 111.063 132.623Z" fill="#F4F4F4"/>
<path d="M120.788 132.239V133.017C120.788 133.122 120.779 133.218 120.751 133.314C120.449 132.565 119.865 131.855 118.744 131.615C116.143 131.077 110.498 131 110.498 131H119.545C120.232 131 120.788 131.557 120.788 132.239Z" fill="#DAEEF7"/>
<path d="M127.97 127.917H128.563C128.469 127.859 128.347 127.821 128.215 127.821H113.307C112.525 127.821 111.893 128.32 111.893 128.945V129.655C111.893 130.27 112.525 130.779 113.307 130.779H128.045L127.97 127.917Z" fill="#50BFA5"/>
<path d="M119.507 127.831C118.763 127.831 118.16 128.311 118.16 128.896V129.703C118.16 130.298 118.763 130.769 119.507 130.769H128.79V130.587H128.752L126.396 130.414L125.915 128.935C125.915 128.935 126.839 128.119 126.895 128.099C126.952 128.08 128.752 128.013 128.752 128.013H128.79V127.831H119.507Z" fill="#3C8F7C"/>
<path d="M128.187 129.29C128.187 128.426 128.752 128.003 128.752 128.003H119.696C119.008 128.003 118.452 128.445 118.452 128.983V129.597C118.452 130.145 119.008 130.577 119.696 130.577H128.752C128.752 130.587 128.187 130.385 128.187 129.29Z" fill="#F4F4F4"/>
<path d="M118.462 128.992V129.607C118.462 129.684 118.471 129.77 118.499 129.847C118.801 129.252 119.385 128.685 120.506 128.503C123.107 128.07 128.761 128.013 128.761 128.013H119.705C119.018 128.003 118.462 128.445 118.462 128.992Z" fill="#DAEEF7"/>
<path d="M126.867 129.281L126.293 130.202L125.652 129.281H126.867Z" fill="#F47458"/>
<path d="M118.471 129.281H128.186C128.186 129.281 128.186 129.213 128.186 129.204C128.186 129.194 118.462 129.204 118.462 129.204L118.471 129.281Z" fill="#DAEEF7"/>
<path d="M112.393 132.708L112.967 133.63L113.608 132.708H112.393Z" fill="#50BFA5"/>
<path d="M120.789 132.709H111.074C111.074 132.709 111.074 132.641 111.074 132.632C111.074 132.622 120.799 132.632 120.799 132.632L120.789 132.709Z" fill="#DAEEF7"/>
<path d="M112.855 124.988H112.383C112.459 124.93 112.553 124.892 112.657 124.892H124.427C125.039 124.892 125.538 125.391 125.538 126.006V126.716C125.538 127.331 125.039 127.83 124.427 127.83H112.789L112.855 124.988Z" fill="#F47458"/>
<path d="M119.536 124.892C120.12 124.892 120.601 125.372 120.601 125.958V126.755C120.601 127.341 120.12 127.821 119.536 127.821H112.204V127.639H112.233L114.099 127.466L114.476 125.987C114.476 125.987 113.75 125.171 113.703 125.151C113.656 125.132 112.242 125.065 112.242 125.065H112.214V124.883H119.536V124.892Z" fill="#B75742"/>
<path d="M112.684 126.352C112.684 125.488 112.241 125.075 112.241 125.075H119.394C119.931 125.075 120.374 125.517 120.374 126.054V126.669C120.374 127.207 119.931 127.648 119.394 127.648H112.241C112.232 127.648 112.684 127.437 112.684 126.352Z" fill="#F4F4F4"/>
<path d="M120.364 126.054V126.669C120.364 126.746 120.355 126.832 120.336 126.899C120.091 126.314 119.629 125.747 118.753 125.565C116.699 125.142 112.241 125.075 112.241 125.075H119.394C119.922 125.075 120.364 125.507 120.364 126.054Z" fill="#DAEEF7"/>
<path d="M117.727 126.294L118.236 127.206L118.688 126.294H117.727Z" fill="#333333"/>
<path d="M120.365 126.294H112.676C112.676 126.294 112.676 126.227 112.676 126.217C112.676 126.208 120.356 126.217 120.356 126.217V126.294H120.365Z" fill="#DAEEF7"/>
<path d="M286 165.56H0V167H286V165.56Z" fill="#E25A44"/>
</svg>
