<svg width="225" height="125" viewBox="0 0 225 125" fill="none" xmlns="http://www.w3.org/2000/svg">
<path d="M73.9204 0.224365C106.02 -1.59984 139.673 7.89317 134.727 21.657C129.781 35.4208 161.175 16.771 173.705 21.7285C182.627 25.2625 179.057 36.0145 183.376 40.3497C193.268 50.2862 203.388 37.7743 215.981 45.2786C224.819 50.5438 226.529 83.5082 223.828 104.934C222.524 115.307 214.435 123.505 204.115 124.943L46.4461 120.257L27.2319 121.752C27.2319 121.752 -7.41919 108.832 20.3473 90.7621C34.9718 81.2405 24.3883 73.6003 22.8204 69.0505C21.0244 63.8283 16.8266 54.7001 35.1143 48.0042C53.402 41.3083 48.6768 26.7361 48.2279 23.7172C47.7789 20.7055 41.8207 2.04857 73.9204 0.224365Z" fill="#EAFCFC"/>
<path d="M200.965 25.7849C200.965 25.7849 197.751 32.8099 195.591 35.7715C193.432 38.7403 191.372 41.5732 189.64 49.8072C187.916 58.0411 188.208 58.871 187.737 60.9956C187.267 63.1203 184.188 71.7405 184.174 73.3144C184.153 74.8953 177.959 83.8876 176.377 88.094C174.795 92.3004 171.98 98.3167 172.137 101.378L172.842 101.2C172.842 101.2 173.419 94.0602 178.316 86.8492C183.212 79.6383 182.513 78.2719 188.072 74.5663C193.631 70.8606 197.223 60.6236 197.223 60.6236C197.223 60.6236 202.882 49.5067 202.619 43.7265C202.348 37.9463 203.851 32.7312 200.965 25.7849Z" fill="#256653"/>
<path d="M193.439 14.9824C193.439 14.9824 193.254 19.5966 191.771 22.3365C190.289 25.0764 189.013 26.7432 188.742 29.7048C188.471 32.6665 187.545 40.3138 183.411 44.0481C179.278 47.7823 178.75 58.9636 175.6 62.3402C172.457 65.7239 172.044 68.1562 172.621 73.9579C173.198 79.7595 175.173 87.8003 170.611 98.2949L169.578 95.6838C169.578 95.6838 172.842 87.0492 172.051 81.9986C171.26 76.941 168.509 69.3079 169.514 65.6452C170.519 61.9825 166.777 61.2671 169.029 55.723C171.281 50.186 170.355 48.2545 173.427 43.4686C173.427 43.4686 173.74 43.2468 174.545 39.1907C175.351 35.1345 181.858 27.7089 184.858 25.1765C187.859 22.6441 192.185 18.5664 193.439 14.9824Z" fill="#256653"/>
<path d="M181.224 37.8174C181.224 37.8174 177.632 43.9839 177.582 47.9542C177.532 51.9246 177.959 55.1581 176.142 60.5949C174.325 66.0317 177.931 69.4727 176.89 72.4701C175.85 75.4747 175.771 79.0229 175.8 81.7199C175.828 84.4169 171.688 93.3376 171.061 97.8516C170.433 102.366 171.239 102.38 171.239 102.38C171.239 102.38 171.923 96.4137 172.878 94.4464C173.833 92.4791 176.734 85.6759 177.411 83.0433C178.088 80.4108 179.926 78.7225 181.509 74.2728C183.091 69.8161 185.343 66.0675 185.172 59.7436C185.001 53.434 187.531 46.7667 181.224 37.8174Z" fill="#3C8F7C"/>
<path d="M173.626 98.2521C173.626 98.2521 175.301 90.4259 182.357 89.639C189.412 88.8521 193.56 90.2614 198.549 84.5384C203.538 78.8154 206.431 69.7444 208.028 68.1778C208.028 68.1778 205.519 66.8829 201.357 70.796C197.195 74.702 194.266 77.6708 191.857 79.9457C189.448 82.2206 187.488 80.7397 184.944 82.2349C182.813 83.4939 180.047 87.128 178.836 89.0309C178.444 89.6461 177.974 90.2184 177.432 90.712C176.94 91.1627 176.363 91.7207 175.985 92.1285C175.237 92.944 173.084 98.2735 173.084 98.2735L173.626 98.2521Z" fill="#3C8F7C"/>
<path d="M171.139 96.8715C171.139 96.8715 173.626 87.2998 171.958 82.6141C170.291 77.9284 165.074 74.4588 165.288 71.5186C165.501 68.5785 168.844 60.6235 166.114 54.7002C166.114 54.7002 165.074 59.9868 164.055 61.16C163.028 62.3332 156.008 67.0762 157.248 73.3357C158.496 79.5952 165.323 81.0546 167.005 82.9002C168.687 84.7459 170.961 84.7388 170.975 85.9692C170.989 87.1925 171.431 91.6493 170.676 96.0417L171.139 96.8715Z" fill="#3C8F7C"/>
<path d="M173.862 90.4618L177.354 80.3535C177.354 80.3535 179.406 72.2269 180.596 65.4451C181.787 58.6705 181.224 37.8174 181.224 37.8174C181.224 37.8174 177.632 43.9839 177.582 47.9542C177.532 51.9246 177.96 55.1581 176.142 60.5949C174.325 66.0317 177.931 69.4727 176.89 72.4701C175.85 75.4747 175.772 79.0229 175.8 81.7199C175.829 84.4169 171.688 93.3376 171.061 97.8516C170.719 100.327 170.804 101.45 170.947 101.958C170.398 98.0161 173.862 90.4618 173.862 90.4618Z" fill="#327F6B"/>
<path d="M191.073 84.4454C187.959 85.0677 185.165 84.8603 181.466 87.6216C177.767 90.383 175.586 93.3375 175.586 93.3375C175.586 93.3375 173.926 96.3206 173.234 97.8944C173.135 98.1376 173.078 98.2807 173.078 98.2807L173.626 98.2521C173.626 98.2521 175.301 90.4259 182.357 89.639C189.413 88.8521 193.56 90.2613 198.549 84.5383C203.538 78.8154 206.432 69.7444 208.028 68.1777C208.028 68.1777 202.726 72.3198 199.447 75.9825C196.169 79.6452 194.195 83.8158 191.073 84.4454Z" fill="#327F6B"/>
<path d="M164.055 61.1529C163.028 62.3262 156.008 67.0691 157.248 73.3286C158.496 79.5881 165.323 81.0475 167.005 82.8932C168.687 84.7388 170.961 84.7317 170.975 85.9621C170.989 87.1854 171.431 91.6422 170.676 96.0346L170.875 96.3994C171.246 94.6825 171.752 92.0714 171.923 90.0898C172.194 86.8706 171.673 85.5329 170.64 82.9218C169.606 80.3107 163.199 74.9954 161.589 72.1983C159.985 69.4012 164.689 64.7298 165.729 62.4764C166.77 60.223 166.107 54.6931 166.107 54.6931C166.107 54.6931 165.081 59.9726 164.055 61.1529Z" fill="#327F6B"/>
<path d="M176.256 92.6794L177.197 90.3973C177.931 88.7162 179.798 87.915 181.373 88.6017C185.343 90.3401 187.075 95.1832 185.229 99.4182L183.882 102.516C183.291 103.875 183.497 105.363 184.295 106.415C185.015 107.373 185.136 108.697 184.637 109.848L183.925 111.479C183.155 113.246 181.658 114.556 179.891 115.092C178.85 115.407 177.938 116.187 177.454 117.303L176.449 119.613C175.337 122.167 172.493 123.39 170.099 122.339L168.73 121.738C166.336 120.686 165.295 117.768 166.4 115.214C168.196 112.159 168.053 109.877 167.419 108.332C166.485 106.057 166.492 103.439 167.504 101.114L167.647 100.785C168.716 98.3237 170.783 96.4923 173.242 95.7054C174.325 95.3692 175.458 94.5179 176.256 92.6794Z" fill="#50BFA5"/>
<path d="M159.301 124.943C161.226 122.432 171.795 108.997 178.687 106.758C186.291 104.283 179.121 114.105 179.121 114.105C179.121 114.105 192.613 99.2965 197.566 100.627C202.106 101.85 197.566 111.029 197.566 111.029C197.566 111.029 202.676 105.942 208.876 105.942C214.913 105.942 204.657 123.97 204.108 124.935H159.301V124.943Z" fill="#96D9C9"/>
<path d="M199.967 95.8765C194.451 104.518 190.431 114.119 188.129 124.32L187.752 124.22C190.039 114.233 194.038 104.647 199.547 96.0124C200.822 94.0094 202.205 91.6272 204.6 90.8403C204.642 90.826 204.664 90.8975 204.621 90.9118C202.426 91.7416 201.165 94.0022 199.967 95.8765Z" fill="#3C8F7C"/>
<path d="M189.455 124.677C195.613 116.265 203.103 108.496 212.012 101.735C212.097 101.671 212.218 101.821 212.133 101.893C203.688 108.41 196.211 116.107 189.925 124.806L189.455 124.677Z" fill="#3C8F7C"/>
<path d="M200.466 90.5176C200.609 90.7251 201.15 91.2759 201.314 91.9913C201.528 92.6709 201.357 93.5222 201.343 93.4936C201.3 93.5079 201.97 92.9427 202.184 92.0414C202.455 91.1758 202.262 89.9739 201.927 89.5733C201.343 88.6719 200.331 88.579 200.131 89.0153C199.918 89.4446 200.181 90.0383 200.466 90.5176Z" fill="#3C8F7C"/>
<path d="M201.792 98.2303C201.585 98.0872 201.051 97.5293 200.338 97.3504C199.661 97.1215 198.813 97.2717 198.841 97.2932C198.827 97.3361 199.404 96.6708 200.309 96.4777C201.179 96.2201 202.369 96.4348 202.761 96.7853C203.645 97.3862 203.716 98.4092 203.281 98.5952C202.84 98.8026 202.255 98.5236 201.792 98.2303Z" fill="#3C8F7C"/>
<path d="M199.796 101.614C199.59 101.471 199.055 100.913 198.342 100.734C197.665 100.505 196.817 100.655 196.846 100.677C196.831 100.72 197.409 100.054 198.314 99.8612C199.183 99.6037 200.374 99.8183 200.766 100.169C201.649 100.77 201.721 101.793 201.286 101.979C200.851 102.186 200.267 101.907 199.796 101.614Z" fill="#3C8F7C"/>
<path d="M206.895 109.454C206.688 109.311 206.153 108.753 205.441 108.575C204.764 108.346 203.916 108.496 203.944 108.517C203.93 108.56 204.507 107.895 205.412 107.702C206.282 107.444 207.472 107.659 207.864 108.009C208.748 108.61 208.819 109.633 208.384 109.819C207.949 110.027 207.365 109.748 206.895 109.454Z" fill="#3C8F7C"/>
<path d="M210.522 106.249C210.316 106.106 209.781 105.548 209.068 105.369C208.391 105.141 207.543 105.291 207.572 105.312C207.557 105.355 208.135 104.69 209.04 104.497C209.909 104.239 211.1 104.454 211.492 104.804C212.375 105.405 212.447 106.428 212.012 106.614C211.577 106.822 210.993 106.543 210.522 106.249Z" fill="#3C8F7C"/>
<path d="M197.687 94.3384C197.858 94.5244 198.485 94.9751 198.756 95.6619C199.077 96.2986 199.041 97.1713 199.02 97.1427C198.984 97.1642 199.554 96.4989 199.618 95.576C199.747 94.6747 199.376 93.5229 198.977 93.1795C198.264 92.3855 197.245 92.4498 197.117 92.9148C196.974 93.3727 197.33 93.9164 197.687 94.3384Z" fill="#3C8F7C"/>
<path d="M194.758 98.173C195.007 98.3018 195.862 98.545 196.297 99.1888C196.789 99.7611 196.846 100.748 196.817 100.727C196.775 100.77 197.43 99.7754 197.402 98.7167C197.466 97.6579 196.839 96.5276 196.283 96.3202C195.257 95.7407 193.952 96.2558 193.845 96.8281C193.717 97.4075 194.245 97.8582 194.758 98.173Z" fill="#3C8F7C"/>
<path d="M191.679 103.982C191.942 104.068 192.833 104.161 193.368 104.726C193.945 105.212 194.173 106.171 194.137 106.157C194.102 106.207 194.586 105.119 194.38 104.075C194.266 103.023 193.453 102.015 192.876 101.9C191.771 101.499 190.567 102.229 190.553 102.816C190.524 103.395 191.116 103.753 191.679 103.982Z" fill="#3C8F7C"/>
<path d="M200.794 108.031C200.987 108.153 201.671 108.396 201.991 108.947C202.355 109.44 202.355 110.249 202.326 110.227C202.284 110.256 202.882 109.49 202.918 108.625C203.025 107.766 202.583 106.815 202.141 106.607C201.343 106.078 200.245 106.421 200.124 106.879C199.989 107.344 200.395 107.738 200.794 108.031Z" fill="#3C8F7C"/>
<path d="M205.541 91.8779C205.427 91.785 205.134 91.4273 204.721 91.2985C204.329 91.134 203.823 91.184 203.837 91.1984C203.823 91.2198 204.194 90.855 204.742 90.7834C205.27 90.669 205.961 90.8478 206.182 91.0696C206.681 91.463 206.674 92.0711 206.41 92.1641C206.139 92.2642 205.804 92.0711 205.541 91.8779Z" fill="#3C8F7C"/>
<path d="M204.436 89.4096C204.443 89.5598 204.543 90.0034 204.393 90.4183C204.286 90.826 203.93 91.2052 203.93 91.1837C203.901 91.1766 204.422 91.105 204.807 90.7187C205.213 90.3682 205.498 89.7101 205.455 89.4024C205.448 88.7658 204.963 88.3938 204.728 88.5512C204.493 88.6942 204.443 89.0734 204.436 89.4096Z" fill="#3C8F7C"/>
<path d="M213.138 102.98C213.024 102.887 212.732 102.53 212.318 102.401C211.926 102.236 211.42 102.286 211.434 102.301C211.42 102.322 211.791 101.957 212.34 101.886C212.867 101.771 213.558 101.95 213.779 102.172C214.278 102.565 214.271 103.173 214.007 103.266C213.736 103.367 213.402 103.173 213.138 102.98Z" fill="#3C8F7C"/>
<path d="M211.805 100.491C211.819 100.641 211.962 101.077 211.848 101.499C211.777 101.914 211.449 102.315 211.449 102.301C211.42 102.301 211.934 102.186 212.29 101.764C212.668 101.385 212.896 100.698 212.832 100.398C212.774 99.7609 212.261 99.439 212.04 99.6107C211.805 99.7753 211.784 100.162 211.805 100.491Z" fill="#3C8F7C"/>
<path d="M210.879 116.58C205.248 117.202 200.003 119.692 194.957 122.124C191.55 123.762 191.722 124.234 191.03 124.478C190.916 124.52 190.802 124.392 190.859 124.284C191.123 123.755 191.828 123.397 192.313 123.09C192.876 122.732 193.468 122.424 194.073 122.131C195.356 121.502 196.675 120.944 197.986 120.371C200.652 119.212 203.36 118.118 206.175 117.374C207.721 116.966 209.289 116.673 210.879 116.53C210.9 116.53 210.907 116.573 210.879 116.58Z" fill="#3C8F7C"/>
<path d="M205.804 114.827C205.84 115.056 206.082 115.736 205.932 116.394C205.847 117.052 205.369 117.696 205.362 117.667C205.32 117.667 206.104 117.452 206.638 116.78C207.208 116.158 207.522 115.077 207.394 114.612C207.258 113.625 206.446 113.146 206.104 113.439C205.761 113.711 205.747 114.312 205.804 114.827Z" fill="#3C8F7C"/>
<path d="M200.844 116.608C200.88 116.837 201.122 117.517 200.972 118.175C200.887 118.833 200.409 119.477 200.402 119.449C200.359 119.449 201.143 119.234 201.678 118.561C202.248 117.939 202.562 116.859 202.433 116.394C202.298 115.407 201.485 114.927 201.143 115.221C200.801 115.493 200.794 116.093 200.844 116.608Z" fill="#3C8F7C"/>
<path d="M195.805 118.862C195.841 119.091 196.083 119.77 195.933 120.429C195.848 121.087 195.37 121.731 195.363 121.702C195.32 121.702 196.104 121.487 196.639 120.815C197.209 120.193 197.523 119.112 197.394 118.647C197.259 117.66 196.447 117.181 196.104 117.474C195.762 117.753 195.748 118.347 195.805 118.862Z" fill="#3C8F7C"/>
<path d="M207.28 119.477C207.18 119.284 206.98 118.654 206.503 118.247C206.075 117.81 205.363 117.603 205.377 117.631C205.348 117.653 206.047 117.374 206.809 117.574C207.572 117.71 208.406 118.333 208.57 118.747C209.019 119.549 208.684 120.357 208.277 120.336C207.871 120.321 207.529 119.885 207.28 119.477Z" fill="#3C8F7C"/>
<path d="M202.127 121.308C202.027 121.115 201.828 120.486 201.35 120.078C200.922 119.642 200.21 119.434 200.224 119.463C200.195 119.484 200.894 119.205 201.657 119.406C202.419 119.541 203.253 120.164 203.417 120.579C203.866 121.38 203.531 122.188 203.125 122.167C202.711 122.153 202.369 121.716 202.127 121.308Z" fill="#3C8F7C"/>
<path d="M211.214 117.589C211.121 117.481 210.914 117.109 210.565 116.923C210.237 116.709 209.767 116.673 209.774 116.687C209.76 116.709 210.159 116.437 210.665 116.458C211.164 116.444 211.77 116.723 211.926 116.959C212.311 117.403 212.211 117.953 211.948 117.996C211.691 118.039 211.42 117.81 211.214 117.589Z" fill="#3C8F7C"/>
<path d="M210.615 115.156C210.594 115.292 210.608 115.721 210.408 116.065C210.244 116.422 209.86 116.701 209.86 116.68C209.838 116.673 210.316 116.694 210.736 116.408C211.164 116.158 211.534 115.6 211.549 115.314C211.648 114.734 211.271 114.312 211.028 114.419C210.793 114.519 210.679 114.856 210.615 115.156Z" fill="#3C8F7C"/>
<path d="M37.9722 74.8808C33.2613 67.2835 32.3847 58.1124 32.4774 51.7527C32.5771 44.8494 33.8101 39.6844 33.8243 39.6343L33.4823 39.5127C33.468 39.5628 32.2279 44.7707 32.121 51.717C32.0284 58.1339 32.9192 67.4051 37.6871 75.0954L37.9722 74.8808Z" fill="#3C8F7C"/>
<path d="M34.9789 38.3681C34.8648 39.9276 34.1949 41.2367 33.2257 42.0451C32.3989 40.9577 31.9357 39.4698 32.0568 37.9031C32.1709 36.3436 32.8408 35.0344 33.8101 34.2261C34.6368 35.3134 35.0929 36.8014 34.9789 38.3681Z" fill="#3C8F7C"/>
<path d="M31.8003 41.9737C32.5986 43.3257 32.848 44.8638 32.5914 46.2015C31.3656 45.9011 30.1825 45.014 29.3843 43.6619C28.5861 42.3099 28.3367 40.7718 28.5932 39.4341C29.8119 39.7345 30.995 40.6216 31.8003 41.9737Z" fill="#3C8F7C"/>
<path d="M29.9972 46.2158C31.2373 47.0528 32.0782 48.3333 32.399 49.6925C31.223 50.0359 29.8404 49.8284 28.5932 48.9986C27.3531 48.1616 26.5121 46.8811 26.1914 45.5219C27.3673 45.1714 28.75 45.3788 29.9972 46.2158Z" fill="#3C8F7C"/>
<path d="M30.5532 52.1247C31.5367 52.79 32.1425 53.9203 32.3136 55.1722C31.2873 55.6229 30.1399 55.5656 29.1563 54.9075C28.1728 54.2422 27.567 53.1119 27.396 51.86C28.4151 51.4022 29.5697 51.4594 30.5532 52.1247Z" fill="#3C8F7C"/>
<path d="M34.6082 45.1211C35.7129 44.513 36.9458 44.4772 38.0077 44.9208C37.7298 46.1011 36.9886 47.1599 35.8839 47.768C34.7792 48.376 33.5463 48.4118 32.4844 47.9683C32.7623 46.7879 33.5035 45.7291 34.6082 45.1211Z" fill="#3C8F7C"/>
<path d="M34.4871 49.2058C35.5918 48.5977 36.8247 48.5619 37.8866 49.0055C37.6087 50.1858 36.8675 51.2446 35.7628 51.8527C34.6581 52.4607 33.4252 52.4965 32.3633 52.053C32.6412 50.8726 33.3824 49.8139 34.4871 49.2058Z" fill="#3C8F7C"/>
<path d="M34.8006 112.044C24.3668 108.246 17.0688 99.182 12.7856 92.2429C8.13167 84.7171 5.92945 77.9998 5.90807 77.9282L5.44482 78.1142C5.4662 78.1786 7.6898 84.946 12.3722 92.529C16.6982 99.5325 24.0746 108.689 34.6367 112.538L34.8006 112.044Z" fill="#96D9C9"/>
<path d="M6.3144 75.4888C7.26228 77.2772 7.4262 79.3161 6.92019 81.0759C5.25961 80.6681 3.72732 79.4949 2.77232 77.7065C1.82444 75.918 1.66052 73.8792 2.16653 72.1194C3.8271 72.5271 5.35939 73.7004 6.3144 75.4888Z" fill="#96D9C9"/>
<path d="M5.28818 82.335C7.09842 83.0504 8.43829 84.474 9.07259 86.1551C7.51891 86.9706 5.60177 87.1208 3.7844 86.4055C1.96703 85.6901 0.634297 84.2665 0 82.5854C1.5608 81.777 3.47794 81.6268 5.28818 82.335Z" fill="#96D9C9"/>
<path d="M6.22898 88.5873C8.17463 88.3298 9.98487 88.9307 11.282 90.0967C10.2201 91.5704 8.55235 92.6292 6.6067 92.8867C4.66105 93.1442 2.85081 92.5433 1.55371 91.3773C2.61562 89.9036 4.29045 88.8448 6.22898 88.5873Z" fill="#96D9C9"/>
<path d="M9.90647 94.5748C11.8521 94.3173 13.6624 94.9182 14.9595 96.0843C13.8975 97.558 12.2298 98.6167 10.2842 98.8742C8.33854 99.1318 6.5283 98.5309 5.2312 97.3648C6.30024 95.8911 7.96794 94.8324 9.90647 94.5748Z" fill="#96D9C9"/>
<path d="M9.61408 85.2463C9.72098 83.3577 10.5049 81.648 11.6666 80.4819C12.7 81.6051 13.2987 83.2862 13.1918 85.182C13.0849 87.0705 12.3009 88.7803 11.1392 89.9464C10.1058 88.8232 9.50717 87.1421 9.61408 85.2463Z" fill="#96D9C9"/>
<path d="M17.0186 91.4781C17.1601 88.8665 16.4784 86.7059 15.4958 86.6523C14.5133 86.5986 13.602 88.6722 13.4604 91.2838C13.3189 93.8953 14.0006 96.056 14.9832 96.1096C15.9657 96.1633 16.877 94.0897 17.0186 91.4781Z" fill="#96D9C9"/>
<path d="M16.1854 100.763C16.9266 100.369 17.739 100.362 18.4304 100.656C18.2237 101.428 17.7105 102.115 16.9693 102.508C16.2281 102.902 15.4157 102.909 14.7244 102.616C14.931 101.85 15.4442 101.156 16.1854 100.763Z" fill="#96D9C9"/>
<path d="M57.3504 102.823C57.3504 102.823 65.4608 85.697 62.7526 81.8769C59.0038 76.5974 54.3428 92.8006 54.1147 91.377C51.9695 77.928 52.4185 60.9665 42.3767 58.3911C36.668 56.9318 42.7544 71.0604 42.0488 74.7017C41.3433 78.3429 31.8502 65.3446 25.999 58.4698C20.1549 51.5951 16.5701 55.3866 19.9625 63.7278C23.2409 71.7972 35.1072 81.2473 32.456 82.0557C29.7977 82.8641 14.8952 71.6255 12.6503 75.7676C9.89927 80.8467 32.848 89.8104 30.546 90.819C28.244 91.8277 17.3113 87.0776 17.3113 91.1195C17.3113 95.1613 32.4204 96.1772 32.0284 97.9227C31.3941 100.756 21.901 93.5017 21.1598 97.4362C20.4044 101.457 34.0453 101.757 33.5678 104.905C33.297 106.715 29.8547 104.819 29.2346 107.301C27.8164 112.967 49.3183 120.901 49.3183 120.901L57.3504 102.823Z" fill="#3C8F7C"/>
<path d="M74.4836 105.935C77.7478 107.466 76.864 111.265 76.864 111.265C76.864 111.265 85.7157 104.354 89.0226 108.389C92.3295 112.424 90.5905 120.329 86.7134 121.616C82.8364 122.904 49.0833 122.003 49.0833 122.003C49.0833 122.003 71.5473 104.562 74.4836 105.935Z" fill="#96D9C9"/>
<path d="M57.3504 91.8354L57.7567 91.5993C51.5206 80.4967 50.2734 67.7487 50.3304 59.0068C50.3874 49.521 51.9411 42.5819 51.9625 42.5103L51.4921 42.3386C51.4778 42.4102 49.9099 49.3922 49.8529 58.9353C49.7959 67.7487 51.0502 80.6111 57.3504 91.8354Z" fill="#50BFA5"/>
<path d="M53.468 40.5019C53.5635 37.5402 52.7767 35.1112 51.7105 35.0765C50.6444 35.0419 49.7026 37.4147 49.6071 40.3764C49.5116 43.3381 50.2984 45.7671 51.3646 45.8018C52.4307 45.8364 53.3724 43.4636 53.468 40.5019Z" fill="#50BFA5"/>
<path d="M49.3326 45.4789C50.3874 47.4462 50.7295 49.5995 50.4088 51.4022C48.8052 50.8228 47.2515 49.4421 46.1967 47.4748C45.142 45.5075 44.7999 43.3543 45.1206 41.5515C46.717 42.131 48.2707 43.5116 49.3326 45.4789Z" fill="#50BFA5"/>
<path d="M47.0234 51.066C48.6484 52.3823 49.7602 54.2637 50.202 56.1738C48.6697 56.4885 46.8595 56.0164 45.2274 54.6929C43.6025 53.3766 42.4907 51.4952 42.0488 49.5852C43.5882 49.2775 45.3914 49.7497 47.0234 51.066Z" fill="#50BFA5"/>
<path d="M48.5488 61.217C49.2615 61.7178 49.7817 62.4761 50.0169 63.263C49.3897 63.449 48.62 63.3131 47.9074 62.8123C47.1947 62.3116 46.6744 61.5533 46.4392 60.7664C47.0735 60.5804 47.8361 60.7163 48.5488 61.217Z" fill="#50BFA5"/>
<path d="M48.8979 64.9658C49.6106 65.4665 50.1309 66.2248 50.366 67.0117C49.7389 67.1977 48.9692 67.0618 48.2565 66.5611C47.5438 66.0603 47.0235 65.302 46.7883 64.5151C47.4155 64.3219 48.1852 64.465 48.8979 64.9658Z" fill="#50BFA5"/>
<path d="M53.0314 50.2004C54.464 49.5136 56.0818 49.6353 57.4644 50.3864C57.1152 51.9674 56.153 53.3194 54.7205 54.0134C53.288 54.7001 51.6702 54.5785 50.2876 53.8274C50.6368 52.2392 51.5989 50.8872 53.0314 50.2004Z" fill="#50BFA5"/>
<path d="M52.9175 55.7946C54.35 55.1079 55.9678 55.2295 57.3504 55.9806C57.0012 57.5616 56.0391 58.9137 54.6065 59.6076C53.174 60.2944 51.5562 60.1727 50.1736 59.4216C50.5228 57.8335 51.4849 56.4814 52.9175 55.7946Z" fill="#50BFA5"/>
<path d="M52.0835 63.7568C53.0172 63.3061 54.0648 63.392 54.9699 63.8784C54.7419 64.9086 54.1147 65.7885 53.1811 66.2392C52.2475 66.6899 51.1998 66.604 50.2947 66.1175C50.5227 65.0874 51.1499 64.2003 52.0835 63.7568Z" fill="#50BFA5"/>
<path d="M49.0903 121.967C49.0903 121.967 63.8359 118.927 67.0573 115.972C70.2716 113.01 68.8533 111.859 68.8533 111.859C68.8533 111.859 74.5192 107.373 74.4337 104.447C74.3482 101.522 70.6493 103.002 70.6493 103.002C70.6493 103.002 76.9067 94.9401 75.4243 93.4092C72.6591 90.5548 65.4252 98.9319 65.4252 98.9319C65.4252 98.9319 67.5705 94.9472 65.3041 94.3105C61.8903 93.3591 59.3745 103.188 59.3745 103.188C59.3745 103.188 60.0088 99.3039 57.6569 99.8189C53.4306 100.749 49.0903 121.967 49.0903 121.967Z" fill="#50BFA5"/>
<path d="M56.0106 121.044C56.0106 121.044 46.3465 108.854 42.0133 106.815C37.395 104.64 41.4004 112.173 41.4004 112.173C41.4004 112.173 31.5224 102.466 29.2062 104.891C26.8899 107.316 29.363 109.584 29.363 109.584C29.363 109.584 21.0958 108.045 19.8913 111.143C18.0383 115.9 31.6365 118.268 31.6365 118.268C31.6365 118.268 25.9278 118.805 27.232 121.752C29.1991 126.195 56.0106 121.044 56.0106 121.044Z" fill="#50BFA5"/>
<path d="M19.8914 111.143C21.0958 108.045 29.363 109.584 29.363 109.584C29.363 109.584 26.89 107.316 29.2063 104.891C31.5225 102.466 39.2552 108.189 39.2552 108.189C39.2552 108.189 38.0579 102.931 43.8664 107.065C48.0142 110.02 56.0178 121.037 56.0178 121.037L19.8914 111.143Z" fill="#96D9C9"/>
<path d="M58.4694 48.1758L49.5322 122.153L50.8079 123.54L58.4623 92.858L58.4694 48.1758Z" fill="#7A7A7A"/>
<path d="M59.5526 40.7429L50.8079 123.54H70.1147L65.3183 39.0332L59.5526 40.7429Z" fill="#757575"/>
<path d="M56.7803 122.603H164.547C166.392 122.603 167.982 121.015 168.11 119.062L173.02 42.7317C173.127 41.0792 171.951 39.7415 170.391 39.7415H62.1112C60.5504 39.7415 59.2034 41.0792 59.0965 42.7317L54.1504 119.613C54.0507 121.265 55.2266 122.603 56.7803 122.603Z" fill="#EDD7BE"/>
<path d="M65.3326 39.305L65.3183 39.0332L59.0537 39.5984L50.8079 123.54H51.7272L60.472 40.7429L65.3326 39.305Z" fill="#393939"/>
<path d="M59.5385 49.6067L54.8704 120.393C55.0129 122.124 56.5238 122.596 57.4004 122.596H71.3906L63.045 43.2256L59.5385 49.6067Z" fill="#FEF8F8"/>
<path d="M70.7062 67.2835H63.4367C62.3962 67.2835 61.6265 66.3964 61.7262 65.309L62.4033 57.7117C62.5031 56.6244 63.4224 55.7373 64.4701 55.7373H71.7396C72.7801 55.7373 73.5498 56.6244 73.45 57.7117L72.773 65.309C72.6732 66.4036 71.7467 67.2835 70.7062 67.2835Z" fill="#00C081"/>
<path d="M86.3785 67.2835H79.1091C78.0685 67.2835 77.2988 66.3964 77.3986 65.309L78.0757 57.7117C78.1754 56.6244 79.0948 55.7373 80.1425 55.7373H87.4119C88.4525 55.7373 89.2222 56.6244 89.1224 57.7117L88.4453 65.309C88.3456 66.4036 87.4191 67.2835 86.3785 67.2835Z" fill="#00C081"/>
<path d="M102.058 67.2835H94.7883C93.7477 67.2835 92.978 66.3964 93.0778 65.309L93.7549 57.7117C93.8546 56.6244 94.774 55.7373 95.8217 55.7373H103.091C104.132 55.7373 104.901 56.6244 104.802 57.7117L104.125 65.309C104.025 66.4036 103.098 67.2835 102.058 67.2835Z" fill="#00C081"/>
<path d="M117.73 67.2835H110.46C109.42 67.2835 108.65 66.3964 108.75 65.309L109.427 57.7117C109.527 56.6244 110.446 55.7373 111.494 55.7373H118.763C119.804 55.7373 120.573 56.6244 120.473 57.7117L119.796 65.309C119.697 66.4036 118.77 67.2835 117.73 67.2835Z" fill="#00C081"/>
<path d="M133.409 67.2835H126.14C125.099 67.2835 124.329 66.3964 124.429 65.309L125.106 57.7117C125.206 56.6244 126.125 55.7373 127.173 55.7373H134.442C135.483 55.7373 136.253 56.6244 136.153 57.7117L135.476 65.309C135.376 66.4036 134.45 67.2835 133.409 67.2835Z" fill="#00C081"/>
<path d="M149.081 67.2835H141.811C140.771 67.2835 140.001 66.3964 140.101 65.309L140.778 57.7117C140.878 56.6244 141.797 55.7373 142.845 55.7373H150.114C151.155 55.7373 151.925 56.6244 151.825 57.7117L151.148 65.309C151.048 66.4036 150.121 67.2835 149.081 67.2835Z" fill="#C1C1C1"/>
<path d="M164.76 67.2835H157.491C156.45 67.2835 155.681 66.3964 155.78 65.309L156.457 57.7117C156.557 56.6244 157.477 55.7373 158.524 55.7373H165.794C166.834 55.7373 167.604 56.6244 167.504 57.7117L166.827 65.309C166.727 66.4036 165.801 67.2835 164.76 67.2835Z" fill="#C1C1C1"/>
<path d="M69.1598 84.6667H61.8903C60.8498 84.6667 60.0801 83.7797 60.1798 82.6923L60.8569 75.095C60.9567 74.0077 61.8761 73.1206 62.9237 73.1206H70.1932C71.2337 73.1206 72.0034 74.0077 71.9036 75.095L71.2266 82.6923C71.1268 83.7868 70.2003 84.6667 69.1598 84.6667Z" fill="#00C081"/>
<path d="M84.8319 84.6667H77.5624C76.5219 84.6667 75.7522 83.7797 75.852 82.6923L76.529 75.095C76.6288 74.0077 77.5482 73.1206 78.5958 73.1206H85.8653C86.9058 73.1206 87.6756 74.0077 87.5758 75.095L86.8987 82.6923C86.8061 83.7868 85.8796 84.6667 84.8319 84.6667Z" fill="#00C081"/>
<path d="M100.511 84.6667H93.2416C92.2011 84.6667 91.4314 83.7797 91.5312 82.6923L92.2082 75.095C92.308 74.0077 93.2274 73.1206 94.275 73.1206H101.544C102.585 73.1206 103.355 74.0077 103.255 75.095L102.578 82.6923C102.478 83.7868 101.552 84.6667 100.511 84.6667Z" fill="#00C081"/>
<path d="M116.183 84.6667H108.914C107.873 84.6667 107.104 83.7797 107.203 82.6923L107.88 75.095C107.98 74.0077 108.899 73.1206 109.947 73.1206H117.217C118.257 73.1206 119.027 74.0077 118.927 75.095L118.25 82.6923C118.157 83.7868 117.231 84.6667 116.183 84.6667Z" fill="#00C081"/>
<path d="M131.862 84.6667H124.593C123.552 84.6667 122.783 83.7797 122.882 82.6923L123.56 75.095C123.659 74.0077 124.579 73.1206 125.626 73.1206H132.896C133.936 73.1206 134.706 74.0077 134.606 75.095L133.929 82.6923C133.829 83.7868 132.903 84.6667 131.862 84.6667Z" fill="#00C081"/>
<path d="M147.535 84.6667H140.265C139.225 84.6667 138.455 83.7797 138.555 82.6923L139.232 75.095C139.331 74.0077 140.251 73.1206 141.298 73.1206H148.568C149.608 73.1206 150.378 74.0077 150.278 75.095L149.601 82.6923C149.502 83.7868 148.582 84.6667 147.535 84.6667Z" fill="#C1C1C1"/>
<path d="M163.214 84.6667H155.944C154.904 84.6667 154.134 83.7797 154.234 82.6923L154.911 75.095C155.011 74.0077 155.93 73.1206 156.978 73.1206H164.247C165.288 73.1206 166.057 74.0077 165.958 75.095L165.281 82.6923C165.181 83.7868 164.254 84.6667 163.214 84.6667Z" fill="#C1C1C1"/>
<path d="M67.6132 102.051H60.3437C59.3031 102.051 58.5334 101.164 58.6332 100.076L59.3103 92.4791C59.4101 91.3917 60.3294 90.5046 61.3771 90.5046H68.6466C69.6871 90.5046 70.4568 91.3917 70.357 92.4791L69.68 100.076C69.5802 101.171 68.6608 102.051 67.6132 102.051Z" fill="#00C081"/>
<path d="M83.2923 102.051H76.0229C74.9823 102.051 74.2126 101.164 74.3124 100.076L74.9895 92.4791C75.0892 91.3917 76.0086 90.5046 77.0563 90.5046H84.3257C85.3663 90.5046 86.136 91.3917 86.0362 92.4791L85.3592 100.076C85.2594 101.171 84.3329 102.051 83.2923 102.051Z" fill="#00C081"/>
<path d="M98.9644 102.051H91.695C90.6545 102.051 89.8848 101.164 89.9845 100.076L90.6616 92.4791C90.7614 91.3917 91.6807 90.5046 92.7284 90.5046H99.9978C101.038 90.5046 101.808 91.3917 101.708 92.4791L101.031 100.076C100.931 101.171 100.012 102.051 98.9644 102.051Z" fill="#00C081"/>
<path d="M114.644 102.051H107.374C106.334 102.051 105.564 101.164 105.664 100.076L106.341 92.4791C106.441 91.3917 107.36 90.5046 108.408 90.5046H115.677C116.718 90.5046 117.487 91.3917 117.388 92.4791L116.71 100.076C116.611 101.171 115.684 102.051 114.644 102.051Z" fill="#00C081"/>
<path d="M130.316 102.051H123.047C122.006 102.051 121.236 101.164 121.336 100.076L122.013 92.4791C122.113 91.3917 123.032 90.5046 124.08 90.5046H131.349C132.39 90.5046 133.16 91.3917 133.06 92.4791L132.383 100.076C132.283 101.171 131.364 102.051 130.316 102.051Z" fill="#00C081"/>
<path d="M145.995 102.051H138.726C137.685 102.051 136.916 101.164 137.015 100.076L137.692 92.4791C137.792 91.3917 138.712 90.5046 139.759 90.5046H147.029C148.069 90.5046 148.839 91.3917 148.739 92.4791L148.062 100.076C147.962 101.171 147.036 102.051 145.995 102.051Z" fill="#C1C1C1"/>
<path d="M161.667 102.051H154.398C153.357 102.051 152.587 101.164 152.687 100.076L153.364 92.4791C153.464 91.3917 154.383 90.5046 155.431 90.5046H162.701C163.741 90.5046 164.511 91.3917 164.411 92.4791L163.734 100.076C163.634 101.171 162.715 102.051 161.667 102.051Z" fill="#C1C1C1"/>
<path d="M66.0736 119.434H58.8041C57.7636 119.434 56.9939 118.547 57.0937 117.46L57.7707 109.863C57.8705 108.775 58.7899 107.888 59.8375 107.888H67.107C68.1475 107.888 68.9172 108.775 68.8175 109.863L68.1404 117.46C68.0406 118.554 67.1141 119.434 66.0736 119.434Z" fill="#00C081"/>
<path d="M81.746 119.434H74.4765C73.436 119.434 72.6663 118.547 72.766 117.46L73.4431 109.863C73.5429 108.775 74.4622 107.888 75.5099 107.888H82.7794C83.8199 107.888 84.5896 108.775 84.4898 109.863L83.8128 117.46C83.713 118.554 82.7936 119.434 81.746 119.434Z" fill="#00C081"/>
<path d="M97.4251 119.434H90.1557C89.1152 119.434 88.3455 118.547 88.4452 117.46L89.1223 109.863C89.2221 108.775 90.1414 107.888 91.1891 107.888H98.4586C99.4991 107.888 100.269 108.775 100.169 109.863L99.492 117.46C99.3922 118.554 98.4657 119.434 97.4251 119.434Z" fill="#00C081"/>
<path d="M113.097 119.434H105.828C104.787 119.434 104.017 118.547 104.117 117.46L104.794 109.863C104.894 108.775 105.813 107.888 106.861 107.888H114.13C115.171 107.888 115.941 108.775 115.841 109.863L115.164 117.46C115.064 118.554 114.145 119.434 113.097 119.434Z" fill="#00C081"/>
<path d="M128.776 119.434H121.507C120.466 119.434 119.697 118.547 119.797 117.46L120.474 109.863C120.573 108.775 121.493 107.888 122.54 107.888H129.81C130.85 107.888 131.62 108.775 131.52 109.863L130.843 117.46C130.744 118.554 129.817 119.434 128.776 119.434Z" fill="#00C081"/>
<path d="M172.279 124.943H64.5128C62.6669 124.943 61.1417 123.419 61.099 121.538L59.417 48.0617C59.3814 46.4735 60.6143 45.1787 62.1751 45.1787H170.455C172.015 45.1787 173.305 46.4664 173.341 48.0617L175.037 122.06C175.073 123.655 173.84 124.943 172.279 124.943Z" fill="#878787"/>
<path d="M173.056 125H65.2899C63.444 125 61.9189 123.476 61.8761 121.594L60.187 48.1112C60.1514 46.5231 61.3844 45.2283 62.9452 45.2283H171.225C172.785 45.2283 174.075 46.5159 174.111 48.1112L175.807 122.11C175.843 123.705 174.61 125 173.056 125Z" fill="#FEF8F8"/>
<path d="M38.3835 17.4588C39.1601 16.5871 39.0857 15.2484 38.2172 14.4689C37.3488 13.6893 36.0152 13.764 35.2385 14.6357C34.4619 15.5074 34.5363 16.8461 35.4047 17.6256C36.2732 18.4052 37.6068 18.3305 38.3835 17.4588Z" fill="#F7CC7F"/>
<path d="M38.2859 22.172C38.1576 21.5568 38.0863 20.8987 37.8725 20.3049C37.6944 19.797 36.9033 19.9544 36.9389 20.4981C36.9888 21.1705 37.1955 21.8501 37.338 22.5011C37.395 22.7658 37.7443 22.8874 37.9794 22.8087C38.2645 22.7157 38.3429 22.4367 38.2859 22.172Z" fill="#F7CC7F"/>
<path d="M41.9064 19.5467C41.2079 19.1318 40.595 18.6167 39.9536 18.1302C39.4476 17.7511 38.9059 18.4092 39.3193 18.8599C39.918 19.5109 40.6948 20.026 41.4502 20.4695C41.6926 20.6126 42.0204 20.4695 42.1344 20.2334C42.2698 19.9759 42.1415 19.6898 41.9064 19.5467Z" fill="#F7CC7F"/>
<path d="M40.5809 15.7551C40.4241 15.8838 40.3885 16.0627 40.4882 16.2415C40.7234 16.6708 41.3221 16.6493 41.7497 16.635C42.1916 16.6207 42.6406 16.5277 43.0611 16.3846C43.6811 16.17 43.3461 15.2042 42.719 15.4188C41.5003 15.8409 41.037 15.3831 40.5809 15.7551Z" fill="#F7CC7F"/>
<path d="M39.9109 11.6346C39.298 12.5359 38.7919 12.8435 38.8703 13.3371C38.9131 13.6304 39.1412 13.7664 39.4262 13.702C39.7541 13.6233 39.9394 13.2728 40.1318 13.0295C40.3242 12.7935 40.5095 12.5574 40.6735 12.307C40.8302 12.0781 40.8516 11.7848 40.6236 11.5845C40.4383 11.4199 40.0605 11.4056 39.9109 11.6346Z" fill="#F7CC7F"/>
<path d="M37.516 11.4772C37.3165 10.9335 37.2737 10.7332 37.0243 10.4757C36.8033 10.2539 36.3329 10.397 36.3044 10.7189C36.2688 11.0981 36.3472 11.2411 36.5539 11.8134C36.6465 12.071 36.9459 12.2212 37.2024 12.1282C37.459 12.0424 37.6087 11.7419 37.516 11.4772Z" fill="#F7CC7F"/>
<path d="M34.9291 12.8005C34.0454 12.128 33.8601 11.9349 33.518 11.9706C33.3113 11.9921 33.0833 12.1852 33.1332 12.4213C33.2187 12.8505 33.461 12.965 34.2806 13.5588C34.5015 13.7161 34.8009 13.7233 34.9862 13.5087C35.1501 13.3155 35.1429 12.965 34.9291 12.8005Z" fill="#F7CC7F"/>
<path d="M31.3728 15.8982C31.0236 16.0842 31.1661 16.6923 31.5438 16.7424C31.9073 16.7924 32.0427 16.7281 33.8031 16.4061C34.0739 16.3561 34.2949 16.1558 34.2806 15.8553C34.2663 15.6049 34.0098 15.3259 33.7318 15.376C31.9073 15.7122 31.722 15.7122 31.3728 15.8982Z" fill="#F7CC7F"/>
<path d="M34.1238 18.781C33.1616 19.7181 33.0191 19.5536 32.6414 20.1259C32.4703 20.3905 32.7554 20.8055 33.0547 20.7482C33.4467 20.6767 33.5465 20.6123 34.0525 20.2045C34.3447 19.9685 34.6298 19.7181 34.9006 19.4606C35.1001 19.2674 35.0503 18.9026 34.8507 18.7309C34.6298 18.5377 34.3304 18.5878 34.1238 18.781Z" fill="#F7CC7F"/>
<path d="M56.6662 16.9856L57.8849 15.5477L60.0301 15.3975L61.2559 13.745L63.4225 14.0955L64.912 12.2498L67.0287 12.3715L68.8176 10.6975L68.0764 10.3684L66.7436 11.6275L64.5058 11.4915L63.0733 13.2657L60.8711 12.9151L59.5241 14.7322L57.4216 14.8824L56.2956 16.213L54.97 16.1057L54.5994 16.8139L56.6662 16.9856Z" fill="#50BFA5"/>
<path d="M142.617 12.9796L141.469 14.2673L141.876 15.9484C141.911 16.0843 141.769 16.1988 141.648 16.1416L140.073 15.4405L138.604 16.349C138.483 16.4205 138.334 16.3275 138.348 16.1916L138.526 14.4676L137.215 13.3444C137.108 13.2514 137.151 13.0798 137.286 13.0511L138.968 12.6863L139.624 11.0839C139.674 10.9551 139.852 10.9408 139.923 11.0624L140.785 12.5575L142.503 12.6935C142.638 12.7078 142.71 12.8723 142.617 12.9796Z" fill="#FED333"/>
<path d="M87.9534 14.6677L86.3213 12.1353L84.7605 13.38L84.1619 12.6289L86.5565 10.7332L88.1743 13.2441L89.9917 11.749L91.5097 14.0167L93.5908 12.7362L94.0897 13.5589L91.2318 15.3187L89.785 13.1583L87.9534 14.6677Z" fill="#C1C1C1"/>
<path d="M111.451 11.6059L112.399 10.0607L111.636 9.75309C111.472 9.6887 111.387 9.49555 111.458 9.33102C111.522 9.16648 111.715 9.08064 111.879 9.15217L112.755 9.50986L113.603 8.12204L112.791 7.79296C112.627 7.72858 112.541 7.53543 112.613 7.37089C112.677 7.20636 112.869 7.12051 113.033 7.19205L113.96 7.5712L114.943 5.98307C115.029 5.84715 115.193 5.78992 115.342 5.8543L115.485 5.91153C115.67 5.99022 115.741 6.21199 115.642 6.38368L114.729 7.87881L116.076 8.42965L117.06 6.84152C117.145 6.7056 117.309 6.64837 117.459 6.71275L117.616 6.77713C117.801 6.85583 117.872 7.07759 117.773 7.24928L116.86 8.74441L117.623 9.05202C117.787 9.11641 117.872 9.30956 117.801 9.47409C117.737 9.63863 117.544 9.72447 117.381 9.65294L116.504 9.29525L115.67 10.6831L116.483 11.0121C116.646 11.0765 116.732 11.2697 116.661 11.4342C116.597 11.5988 116.404 11.6846 116.24 11.6131L115.314 11.2339L114.309 12.8721C114.223 13.008 114.059 13.0653 113.91 13.0009L113.746 12.9365C113.561 12.8578 113.489 12.636 113.589 12.4644L114.537 10.9191L113.19 10.3683L112.185 12.0065C112.099 12.1424 111.936 12.1997 111.786 12.1353L111.622 12.0709C111.415 11.9994 111.344 11.7776 111.451 11.6059ZM114.879 10.3683L115.727 8.98049L114.38 8.42965L113.532 9.81747L114.879 10.3683Z" fill="#07345A"/>
<path d="M169.592 11.7778L167.533 11.4487L166.335 13.2228L164.048 12.6863L163.356 14.9683L160.741 14.4747L159.85 16.4921L157.256 16.4349L157.284 15.4476L159.216 15.4906L160.163 13.3588L162.672 13.8381L163.378 11.5131L165.901 12.1068L167.069 10.3756L168.979 10.6833L169.507 9.38843L170.419 9.76042L169.592 11.7778Z" fill="#256653"/>
<path d="M165.858 34.1045H65.2613C61.5696 34.1045 58.7829 37.0733 59.0324 40.736L59.7094 50.5653H173.669L172.992 40.736C172.742 37.0804 169.55 34.1045 165.858 34.1045Z" fill="#7A7A7A"/>
<path d="M166.378 34.1045H65.7816C62.0898 34.1045 59.3032 37.0733 59.5526 40.736L60.2297 50.5653H174.189L173.512 40.736C173.263 37.0804 170.07 34.1045 166.378 34.1045Z" fill="#42BC94"/>
<path d="M74.2414 68.6569H66.9719C65.9314 68.6569 65.0548 67.7842 65.0191 66.704L64.7697 59.1854C64.734 58.1052 65.5536 57.2324 66.5942 57.2324H73.8636C74.9042 57.2324 75.7808 58.1052 75.8164 59.1854L76.0658 66.704C76.1015 67.7842 75.289 68.6569 74.2414 68.6569Z" fill="#C1C1C1"/>
<path d="M89.9203 68.6569H82.6509C81.6103 68.6569 80.7337 67.7842 80.6981 66.704L80.4486 59.1854C80.413 58.1052 81.2326 57.2324 82.2731 57.2324H89.5426C90.5831 57.2324 91.4598 58.1052 91.4954 59.1854L91.7448 66.704C91.7805 67.7842 90.9609 68.6569 89.9203 68.6569Z" fill="#00C081"/>
<path d="M105.592 68.6569H98.323C97.2824 68.6569 96.4058 67.7842 96.3702 66.704L96.1207 59.1854C96.0851 58.1052 96.9047 57.2324 97.9452 57.2324H105.215C106.255 57.2324 107.132 58.1052 107.168 59.1854L107.417 66.704C107.453 67.7842 106.64 68.6569 105.592 68.6569Z" fill="#00C081"/>
<path d="M121.272 68.6569H114.002C112.962 68.6569 112.085 67.7842 112.05 66.704L111.8 59.1854C111.765 58.1052 112.584 57.2324 113.625 57.2324H120.894C121.935 57.2324 122.811 58.1052 122.847 59.1854L123.096 66.704C123.132 67.7842 122.312 68.6569 121.272 68.6569Z" fill="#00C081"/>
<path d="M136.944 68.6569H129.675C128.634 68.6569 127.757 67.7842 127.722 66.704L127.472 59.1854C127.437 58.1052 128.256 57.2324 129.297 57.2324H136.566C137.607 57.2324 138.483 58.1052 138.519 59.1854L138.769 66.704C138.804 67.7842 137.992 68.6569 136.944 68.6569Z" fill="#00C081"/>
<path d="M152.623 68.6569H145.354C144.313 68.6569 143.437 67.7842 143.401 66.704L143.152 59.1854C143.116 58.1052 143.935 57.2324 144.976 57.2324H152.245C153.286 57.2324 154.163 58.1052 154.198 59.1854L154.448 66.704C154.483 67.7842 153.664 68.6569 152.623 68.6569Z" fill="#00C081"/>
<path d="M168.295 68.6569H161.026C159.985 68.6569 159.109 67.7842 159.073 66.704L158.824 59.1854C158.788 58.1052 159.608 57.2324 160.648 57.2324H167.918C168.958 57.2324 169.835 58.1052 169.87 59.1854L170.12 66.704C170.155 67.7842 169.343 68.6569 168.295 68.6569Z" fill="#C1C1C1"/>
<path d="M74.8041 85.8618H67.5346C66.4941 85.8618 65.6175 84.989 65.5819 83.9088L65.3324 76.3902C65.2968 75.31 66.1164 74.4373 67.1569 74.4373H74.4264C75.4669 74.4373 76.3435 75.31 76.3791 76.3902L76.6286 83.9088C76.6642 84.9819 75.8517 85.8618 74.8041 85.8618Z" fill="#C1C1C1"/>
<path d="M90.4833 85.8618H83.2138C82.1733 85.8618 81.2967 84.989 81.2611 83.9088L81.0116 76.3902C80.976 75.31 81.7956 74.4373 82.8361 74.4373H90.1056C91.1461 74.4373 92.0227 75.31 92.0584 76.3902L92.3078 83.9088C92.3434 84.9819 91.5238 85.8618 90.4833 85.8618Z" fill="#00C081"/>
<path d="M106.156 85.8618H98.8862C97.8457 85.8618 96.9691 84.989 96.9334 83.9088L96.684 76.3902C96.6483 75.31 97.4679 74.4373 98.5085 74.4373H105.778C106.818 74.4373 107.695 75.31 107.731 76.3902L107.98 83.9088C108.016 84.9819 107.203 85.8618 106.156 85.8618Z" fill="#00C081"/>
<path d="M121.835 85.8618H114.565C113.525 85.8618 112.648 84.989 112.613 83.9088L112.363 76.3902C112.328 75.31 113.147 74.4373 114.188 74.4373H121.457C122.498 74.4373 123.374 75.31 123.41 76.3902L123.659 83.9088C123.695 84.9819 122.875 85.8618 121.835 85.8618Z" fill="#00C081"/>
<path d="M137.507 85.8618H130.238C129.197 85.8618 128.32 84.989 128.285 83.9088L128.035 76.3902C128 75.31 128.819 74.4373 129.86 74.4373H137.129C138.17 74.4373 139.046 75.31 139.082 76.3902L139.331 83.9088C139.367 84.9819 138.555 85.8618 137.507 85.8618Z" fill="#00C081"/>
<path d="M153.186 85.8618H145.917C144.876 85.8618 144 84.989 143.964 83.9088L143.714 76.3902C143.679 75.31 144.498 74.4373 145.539 74.4373H152.808C153.849 74.4373 154.726 75.31 154.761 76.3902L155.011 83.9088C155.046 84.9819 154.227 85.8618 153.186 85.8618Z" fill="#00C081"/>
<path d="M168.858 85.8618H161.589C160.548 85.8618 159.672 84.989 159.636 83.9088L159.387 76.3902C159.351 75.31 160.171 74.4373 161.211 74.4373H168.481C169.521 74.4373 170.398 75.31 170.433 76.3902L170.683 83.9088C170.719 84.9819 169.906 85.8618 168.858 85.8618Z" fill="#C1C1C1"/>
<path d="M75.3744 103.059H68.105C67.0644 103.059 66.1878 102.187 66.1522 101.106L65.9027 93.5877C65.8671 92.5075 66.6867 91.6348 67.7272 91.6348H74.9967C76.0372 91.6348 76.9138 92.5075 76.9495 93.5877L77.1989 101.106C77.2345 102.187 76.4149 103.059 75.3744 103.059Z" fill="#C1C1C1"/>
<path d="M91.0465 103.059H83.7771C82.7365 103.059 81.8599 102.187 81.8243 101.106L81.5748 93.5877C81.5392 92.5075 82.3588 91.6348 83.3993 91.6348H90.6688C91.7093 91.6348 92.586 92.5075 92.6216 93.5877L92.871 101.106C92.9067 102.187 92.0942 103.059 91.0465 103.059Z" fill="#00C081"/>
<path d="M106.726 103.059H99.4563C98.4157 103.059 97.5391 102.187 97.5035 101.106L97.254 93.5877C97.2184 92.5075 98.038 91.6348 99.0785 91.6348H106.348C107.389 91.6348 108.265 92.5075 108.301 93.5877L108.55 101.106C108.586 102.187 107.766 103.059 106.726 103.059Z" fill="#00C081"/>
<path d="M122.398 103.059H115.128C114.088 103.059 113.211 102.187 113.176 101.106L112.926 93.5877C112.891 92.5075 113.71 91.6348 114.751 91.6348H122.02C123.061 91.6348 123.937 92.5075 123.973 93.5877L124.222 101.106C124.258 102.187 123.446 103.059 122.398 103.059Z" fill="#00C081"/>
<path d="M138.077 103.059H130.808C129.767 103.059 128.891 102.187 128.855 101.106L128.606 93.5877C128.57 92.5075 129.39 91.6348 130.43 91.6348H137.7C138.74 91.6348 139.617 92.5075 139.652 93.5877L139.902 101.106C139.937 102.187 139.118 103.059 138.077 103.059Z" fill="#00C081"/>
<path d="M153.749 103.059H146.48C145.439 103.059 144.563 102.187 144.527 101.106L144.277 93.5877C144.242 92.5075 145.061 91.6348 146.102 91.6348H153.371C154.412 91.6348 155.289 92.5075 155.324 93.5877L155.574 101.106C155.609 102.187 154.797 103.059 153.749 103.059Z" fill="#00C081"/>
<path d="M169.429 103.059H162.159C161.119 103.059 160.242 102.187 160.206 101.106L159.957 93.5877C159.921 92.5075 160.741 91.6348 161.781 91.6348H169.051C170.091 91.6348 170.968 92.5075 171.004 93.5877L171.253 101.106C171.289 102.187 170.469 103.059 169.429 103.059Z" fill="#C1C1C1"/>
<path d="M75.9374 120.257H68.6679C67.6274 120.257 66.7508 119.384 66.7152 118.304L66.4657 110.785C66.4301 109.705 67.2497 108.833 68.2902 108.833H75.5597C76.6002 108.833 77.4768 109.705 77.5124 110.785L77.7619 118.304C77.7975 119.384 76.9779 120.257 75.9374 120.257Z" fill="#C1C1C1"/>
<path d="M91.6166 120.257H84.3471C83.3066 120.257 82.43 119.384 82.3944 118.304L82.1449 110.785C82.1093 109.705 82.9289 108.833 83.9694 108.833H91.2389C92.2794 108.833 93.156 109.705 93.1916 110.785L93.4411 118.304C93.4767 119.384 92.6571 120.257 91.6166 120.257Z" fill="#00C081"/>
<path d="M107.289 120.257H100.019C98.9787 120.257 98.1021 119.384 98.0665 118.304L97.817 110.785C97.7814 109.705 98.601 108.833 99.6415 108.833H106.911C107.952 108.833 108.828 109.705 108.864 110.785L109.113 118.304C109.149 119.384 108.329 120.257 107.289 120.257Z" fill="#00C081"/>
<path d="M122.961 120.257H115.692C114.651 120.257 113.774 119.384 113.739 118.304L113.489 110.785C113.454 109.705 114.273 108.833 115.314 108.833H122.583C123.624 108.833 124.5 109.705 124.536 110.785L124.786 118.304C124.821 119.384 124.009 120.257 122.961 120.257Z" fill="#00C081"/>
<path d="M138.64 120.257H131.371C130.33 120.257 129.453 119.384 129.418 118.304L129.168 110.785C129.133 109.705 129.952 108.833 130.993 108.833H138.262C139.303 108.833 140.179 109.705 140.215 110.785L140.465 118.304C140.5 119.384 139.681 120.257 138.64 120.257Z" fill="#00C081"/>
<path d="M66.1521 45.7793C66.3089 45.8723 66.537 45.951 66.7651 45.951C67.1072 45.951 67.2996 45.7721 67.2782 45.5074C67.2639 45.2642 67.1143 45.1283 66.7508 44.9924C66.3161 44.8421 66.0381 44.6204 66.0096 44.2555C65.9811 43.8549 66.2947 43.5544 66.8078 43.5544C67.0715 43.5544 67.2711 43.6188 67.3922 43.6832L67.321 43.9551C67.2354 43.9121 67.0501 43.8334 66.8149 43.8334C66.4586 43.8334 66.3374 44.0481 66.3517 44.2197C66.3659 44.463 66.537 44.5774 66.9076 44.7205C67.3637 44.8922 67.5989 45.0997 67.6274 45.4788C67.6559 45.8794 67.378 46.2228 66.7651 46.2228C66.5156 46.2228 66.2305 46.1513 66.088 46.0583L66.1521 45.7793Z" fill="white"/>
<path d="M69.6585 45.6792C69.6727 45.8724 69.687 46.0369 69.7084 46.1871H69.409L69.3663 45.8867H69.3592C69.2808 46.0369 69.0955 46.23 68.7605 46.23C68.4683 46.23 68.1048 46.0655 68.0549 45.4145L67.9836 44.3271H68.3257L68.397 45.3573C68.4184 45.7078 68.5467 45.9511 68.8531 45.9511C69.0812 45.9511 69.2309 45.7937 69.2808 45.6434C69.295 45.5934 69.3021 45.529 69.3021 45.4717L69.2237 44.3343H69.5658L69.6585 45.6792Z" fill="white"/>
<path d="M70.1646 44.8281C70.1504 44.635 70.1361 44.4776 70.1147 44.3273H70.4141L70.4568 44.635H70.464C70.5424 44.4561 70.749 44.2844 71.0626 44.2844C71.3192 44.2844 71.7326 44.4347 71.7753 45.0785L71.8537 46.1873H71.5116L71.4404 45.1143C71.419 44.8138 71.2907 44.5634 70.97 44.5634C70.749 44.5634 70.5851 44.7208 70.5352 44.9068C70.521 44.9497 70.521 45.007 70.521 45.0642L70.5994 46.1802H70.2573L70.1646 44.8281Z" fill="white"/>
<path d="M84.1832 44.8279C84.1761 44.8064 84.1618 44.7492 84.1476 44.649C84.1333 44.5703 84.1191 44.5059 84.1048 44.4487C84.0977 44.5131 84.0834 44.5703 84.0692 44.6347C84.0549 44.6991 84.0336 44.7635 84.005 44.8279L83.385 46.2872L82.5583 44.7921C82.5226 44.7277 82.4941 44.6705 82.4656 44.6133C82.4371 44.556 82.4157 44.4988 82.3944 44.4416C82.3944 44.4988 82.3944 44.556 82.3944 44.6204C82.3872 44.6848 82.3801 44.7492 82.373 44.8207L82.1663 46.1728H81.7529L82.209 43.3113L83.1427 45.0425C83.1569 45.0711 83.1783 45.114 83.2068 45.1784C83.2353 45.2428 83.271 45.3215 83.3137 45.4145C83.3351 45.3358 83.3707 45.2356 83.4206 45.114C83.4349 45.0782 83.442 45.0568 83.4491 45.0425L84.1262 43.3113L84.9886 46.1728H84.5681L84.1832 44.8279Z" fill="white"/>
<path d="M85.1314 45.2999C85.1243 45.1711 85.1385 45.0495 85.1813 44.9279C85.224 44.8135 85.2882 44.7062 85.3737 44.6203C85.4592 44.5345 85.559 44.4629 85.6802 44.4128C85.7942 44.3628 85.9225 44.3413 86.0508 44.3413C86.1862 44.3413 86.3145 44.3628 86.4356 44.4128C86.5568 44.4629 86.6708 44.5273 86.7706 44.6203C86.8704 44.7133 86.9488 44.8135 87.0058 44.9279C87.0628 45.0424 87.0984 45.164 87.1056 45.2928C87.1127 45.4215 87.0984 45.5503 87.0557 45.6648C87.0129 45.7792 86.9488 45.8794 86.8632 45.9724C86.7706 46.0654 86.6708 46.1369 86.5496 46.187C86.4356 46.2371 86.3073 46.2585 86.1791 46.2585C86.0508 46.2585 85.9225 46.2371 85.8013 46.187C85.6802 46.1369 85.5661 46.0725 85.4664 45.9795C85.3666 45.8865 85.2882 45.7864 85.2312 45.6648C85.1742 45.5503 85.1456 45.4287 85.1314 45.2999ZM86.6779 45.2999C86.6637 45.1354 86.6067 44.9923 86.4855 44.8778C86.3715 44.7634 86.2361 44.7062 86.0793 44.7062C85.9225 44.7062 85.8013 44.7634 85.7015 44.8778C85.6018 44.9923 85.559 45.1354 85.5661 45.2999C85.5804 45.4644 85.6374 45.6075 85.7586 45.722C85.8726 45.8364 86.008 45.8937 86.1648 45.8937C86.3216 45.8937 86.4427 45.8364 86.5425 45.722C86.6423 45.6075 86.6851 45.4644 86.6779 45.2999Z" fill="white"/>
<path d="M87.6043 46.1869L87.4832 44.4056H87.868L87.8894 44.6989C87.9607 44.5773 88.0533 44.4843 88.1602 44.4342C88.2671 44.377 88.4025 44.3484 88.5593 44.3484C88.6947 44.3484 88.8088 44.3698 88.9014 44.4128C89.0012 44.4557 89.0725 44.5201 89.1366 44.5988C89.1722 44.6488 89.2007 44.7061 89.215 44.7705C89.2364 44.8348 89.2506 44.9493 89.2578 45.1138L89.329 46.1941H88.9157L88.8515 45.2784C88.8373 45.0423 88.7945 44.8921 88.7304 44.8134C88.6662 44.7347 88.5665 44.6989 88.4168 44.6989C88.3241 44.6989 88.2386 44.7132 88.1673 44.749C88.0961 44.7848 88.0391 44.8348 88.0034 44.8992C87.9749 44.9421 87.9607 44.9994 87.9535 45.0638C87.9464 45.1281 87.9464 45.2355 87.9607 45.3857L88.0177 46.1941H87.6043V46.1869Z" fill="white"/>
<path d="M98.5226 43.8193L98.6865 46.1872H98.2375L98.0736 43.8193H97.3395L97.311 43.4402H99.2282L99.2567 43.8193H98.5226Z" fill="white"/>
<path d="M99.613 44.4058L99.6843 45.4073C99.6985 45.579 99.7413 45.7006 99.8197 45.7793C99.8981 45.8508 100.019 45.8937 100.176 45.8937C100.34 45.8937 100.454 45.858 100.518 45.7793C100.582 45.7077 100.611 45.579 100.604 45.4073L100.532 44.4058H100.946L101.003 45.2857C101.024 45.6291 100.974 45.8723 100.846 46.0297C100.718 46.1799 100.504 46.2586 100.205 46.2586C99.8981 46.2586 99.67 46.1799 99.5204 46.0297C99.3707 45.8794 99.2852 45.6291 99.2638 45.2857L99.2068 44.4058H99.613Z" fill="white"/>
<path d="M103.283 45.3576H101.851C101.872 45.5221 101.929 45.6509 102.029 45.7439C102.122 45.8369 102.25 45.8869 102.392 45.8869C102.528 45.8869 102.635 45.8583 102.72 45.8011C102.806 45.7439 102.877 45.658 102.934 45.5364L103.29 45.7295C103.205 45.9084 103.084 46.0443 102.941 46.1302C102.799 46.216 102.628 46.2589 102.428 46.2589C102.143 46.2589 101.908 46.1731 101.723 46.0014C101.537 45.8297 101.437 45.5936 101.416 45.3075C101.395 45.0285 101.466 44.7996 101.63 44.6207C101.794 44.4419 102.015 44.3489 102.286 44.3489C102.571 44.3489 102.806 44.4276 102.977 44.5921C103.148 44.7566 103.248 44.9856 103.269 45.2789L103.283 45.3576ZM102.841 45.0857C102.813 44.9569 102.763 44.8639 102.678 44.7924C102.592 44.728 102.478 44.6923 102.335 44.6923C102.2 44.6923 102.093 44.728 102.015 44.7924C101.936 44.8568 101.886 44.9569 101.865 45.0857H102.841Z" fill="white"/>
<path d="M113.047 43.4396H113.489L114.109 44.8274C114.152 44.9204 114.181 44.9991 114.209 45.0706C114.238 45.1422 114.259 45.2066 114.28 45.2638C114.316 45.1207 114.352 44.9776 114.387 44.8346C114.394 44.8203 114.394 44.8059 114.402 44.7988L114.858 43.3323L115.549 44.8274C115.585 44.8989 115.613 44.9705 115.642 45.042C115.67 45.1136 115.699 45.1851 115.727 45.2638C115.734 45.2066 115.749 45.1422 115.763 45.0778C115.777 45.0134 115.798 44.9276 115.827 44.8346L116.247 43.4396H116.696L115.82 46.2939L115.079 44.7273C115.043 44.6557 115.014 44.5913 114.986 44.527C114.957 44.4626 114.936 44.3982 114.915 44.341C114.9 44.4125 114.879 44.484 114.865 44.5484C114.851 44.6128 114.829 44.6772 114.808 44.7344L114.295 46.2939L113.047 43.4396Z" fill="white"/>
<path d="M118.621 45.3573H117.188C117.21 45.5218 117.267 45.6506 117.366 45.7436C117.459 45.8366 117.587 45.8867 117.73 45.8867C117.865 45.8867 117.972 45.8581 118.058 45.8008C118.143 45.7436 118.214 45.6578 118.271 45.5361L118.628 45.7293C118.542 45.9081 118.421 46.0441 118.279 46.1299C118.136 46.2158 117.965 46.2587 117.765 46.2587C117.48 46.2587 117.245 46.1728 117.06 46.0011C116.875 45.8295 116.775 45.5934 116.753 45.3072C116.732 45.0282 116.803 44.7993 116.967 44.6205C117.131 44.4416 117.352 44.3486 117.623 44.3486C117.908 44.3486 118.143 44.4273 118.314 44.5919C118.485 44.7564 118.585 44.9853 118.606 45.2786L118.621 45.3573ZM118.179 45.0855C118.15 44.9567 118.1 44.8637 118.015 44.7922C117.929 44.7278 117.815 44.692 117.673 44.692C117.537 44.692 117.431 44.7278 117.352 44.7922C117.274 44.8565 117.224 44.9567 117.202 45.0855H118.179Z" fill="white"/>
<path d="M120.181 43.2825H120.595L120.794 46.1869H120.381L120.367 45.958C120.303 46.0581 120.217 46.1368 120.124 46.1869C120.032 46.237 119.918 46.2584 119.797 46.2584C119.54 46.2584 119.34 46.1726 119.184 46.0009C119.027 45.8292 118.934 45.5931 118.92 45.2927C118.899 45.0065 118.956 44.7776 119.098 44.6059C119.234 44.4342 119.426 44.3412 119.661 44.3412C119.811 44.3412 119.932 44.3698 120.046 44.4342C120.153 44.4915 120.238 44.5845 120.288 44.6989L120.181 43.2825ZM120.331 45.2927C120.317 45.1067 120.267 44.9636 120.174 44.8635C120.082 44.7633 119.953 44.7132 119.804 44.7132C119.647 44.7132 119.533 44.7633 119.447 44.8706C119.369 44.9779 119.333 45.121 119.348 45.307C119.362 45.493 119.412 45.6432 119.504 45.7434C119.597 45.8435 119.718 45.8936 119.875 45.8936C120.025 45.8936 120.139 45.8364 120.224 45.7291C120.31 45.6218 120.345 45.4715 120.331 45.2927Z" fill="white"/>
<path d="M130.074 43.8186L130.238 46.1865H129.789L129.625 43.8186H128.891L128.862 43.4395H130.779L130.808 43.8186H130.074Z" fill="white"/>
<path d="M131.271 46.1869L131.072 43.2825H131.456L131.556 44.6989C131.627 44.5773 131.72 44.4843 131.827 44.4342C131.934 44.377 132.069 44.3484 132.226 44.3484C132.361 44.3484 132.476 44.3698 132.568 44.4128C132.668 44.4557 132.739 44.5201 132.803 44.5988C132.839 44.6488 132.867 44.7061 132.882 44.7704C132.903 44.8348 132.917 44.9493 132.924 45.1138L132.996 46.194H132.582L132.518 45.2784C132.504 45.0423 132.461 44.8921 132.397 44.8134C132.333 44.7347 132.233 44.6989 132.084 44.6989C131.991 44.6989 131.905 44.7132 131.834 44.749C131.763 44.7848 131.706 44.8348 131.67 44.8992C131.642 44.9421 131.627 44.9994 131.62 45.0638C131.613 45.1281 131.613 45.2354 131.627 45.3857L131.684 46.194H131.271V46.1869Z" fill="white"/>
<path d="M133.822 44.4058L133.894 45.4073C133.908 45.579 133.951 45.7006 134.029 45.7793C134.107 45.8508 134.229 45.8937 134.385 45.8937C134.549 45.8937 134.663 45.858 134.727 45.7793C134.792 45.7077 134.82 45.579 134.813 45.4073L134.742 44.4058H135.155L135.212 45.2857C135.233 45.6291 135.184 45.8723 135.055 46.0297C134.927 46.1799 134.713 46.2586 134.414 46.2586C134.107 46.2586 133.879 46.1799 133.73 46.0297C133.58 45.8794 133.494 45.6291 133.473 45.2857L133.416 44.4058H133.822Z" fill="white"/>
<path d="M145.111 46.1865L144.926 43.4395H146.473L146.501 43.8186H145.404L145.453 44.5054H146.551L146.579 44.8988H145.482L145.567 46.1865H145.111Z" fill="white"/>
<path d="M147.349 44.692C147.385 44.5776 147.435 44.4845 147.506 44.4345C147.577 44.3772 147.663 44.3486 147.77 44.3486C147.827 44.3486 147.884 44.3558 147.941 44.3701C147.998 44.3844 148.055 44.4059 148.112 44.4273L147.991 44.7707C147.955 44.7492 147.912 44.7278 147.87 44.7135C147.827 44.6992 147.784 44.6992 147.734 44.6992C147.599 44.6992 147.506 44.7564 147.449 44.8637C147.399 44.971 147.378 45.1498 147.399 45.4074L147.456 46.1871H147.043L146.922 44.4059H147.335L147.349 44.692Z" fill="white"/>
<path d="M148.254 43.6405C148.247 43.569 148.269 43.5118 148.318 43.4617C148.368 43.4116 148.425 43.3901 148.497 43.3901C148.568 43.3901 148.632 43.4116 148.682 43.4617C148.732 43.5118 148.76 43.569 148.767 43.6405C148.775 43.7121 148.753 43.7764 148.703 43.8265C148.661 43.8766 148.596 43.8981 148.525 43.8981C148.454 43.8981 148.39 43.8694 148.34 43.8194C148.29 43.7693 148.261 43.7121 148.254 43.6405ZM148.482 46.1873L148.361 44.406H148.775L148.896 46.1873H148.482Z" fill="white"/>
<path d="M160.691 45.6362L161.04 45.4717C161.083 45.5933 161.154 45.6863 161.247 45.7507C161.34 45.8151 161.461 45.8437 161.603 45.8437C161.739 45.8437 161.838 45.8079 161.917 45.7364C161.988 45.6648 162.024 45.5647 162.017 45.4431C162.002 45.2785 161.86 45.1355 161.582 45.0139C161.546 44.9924 161.511 44.9781 161.489 44.9709C161.176 44.8207 160.962 44.6919 160.855 44.5703C160.748 44.4487 160.684 44.3056 160.67 44.134C160.655 43.9122 160.72 43.7262 160.862 43.5903C161.005 43.4543 161.204 43.3828 161.446 43.3828C161.653 43.3828 161.824 43.4186 161.967 43.4973C162.109 43.576 162.209 43.6904 162.273 43.8335L161.931 44.0123C161.867 43.9265 161.803 43.8621 161.739 43.8263C161.667 43.7834 161.596 43.7691 161.504 43.7691C161.382 43.7691 161.29 43.7977 161.218 43.8621C161.154 43.9265 161.119 44.0052 161.126 44.1125C161.14 44.277 161.304 44.4344 161.625 44.5703C161.646 44.5846 161.667 44.5918 161.682 44.5989C161.967 44.7206 162.159 44.8493 162.273 44.9638C162.38 45.0854 162.444 45.2356 162.458 45.4145C162.48 45.672 162.409 45.8795 162.252 46.0368C162.095 46.1871 161.881 46.2658 161.596 46.2658C161.361 46.2658 161.161 46.2085 161.005 46.1012C160.855 45.9868 160.748 45.8365 160.691 45.6362Z" fill="white"/>
<path d="M164.661 46.187H164.247L164.233 45.9581C164.169 46.0582 164.083 46.1369 163.991 46.187C163.898 46.2371 163.784 46.2585 163.663 46.2585C163.406 46.2585 163.207 46.1727 163.05 46.001C162.893 45.8293 162.8 45.5932 162.786 45.2928C162.765 45.0066 162.822 44.7777 162.964 44.606C163.1 44.4343 163.292 44.3413 163.527 44.3413C163.677 44.3413 163.798 44.3699 163.912 44.4343C164.019 44.4915 164.105 44.5845 164.154 44.699L164.133 44.4057H164.546L164.661 46.187ZM164.197 45.2928C164.183 45.1068 164.133 44.9637 164.04 44.8635C163.948 44.7634 163.82 44.7133 163.67 44.7133C163.513 44.7133 163.399 44.7634 163.313 44.8707C163.235 44.978 163.199 45.1211 163.214 45.3071C163.228 45.4931 163.278 45.6433 163.371 45.7434C163.463 45.8436 163.584 45.8937 163.741 45.8937C163.891 45.8937 164.005 45.8364 164.09 45.7291C164.176 45.6218 164.212 45.4716 164.197 45.2928Z" fill="white"/>
<path d="M165.323 46.1869L165.224 44.7633H164.91L164.889 44.4056H165.202L165.152 43.7332H165.566L165.609 44.4056H165.922L165.944 44.7633H165.63L165.73 46.1869H165.323Z" fill="white"/>
<path d="M124.507 65.2375C124.237 66.5681 123.624 67.9774 122.319 68.9217C120.666 70.1163 118.214 70.1306 116.354 68.9574L116.333 68.9431C115.57 68.4853 113.168 66.7326 114.444 63.3131L115.136 63.5706C114.095 66.3749 115.891 67.8128 116.711 68.3064C116.725 68.3136 116.739 68.3207 116.746 68.3279C118.357 69.3437 120.474 69.3366 121.885 68.3136C124.044 66.7541 124.03 63.6064 123.93 62.3259C123.887 61.7894 123.802 61.167 123.538 60.6448C122.968 59.5359 121.571 58.4915 120.146 58.098C118.727 57.7046 117.438 57.5615 116.326 57.6688C115.057 57.7904 113.846 58.5058 113.247 59.493C113.197 59.5717 113.154 59.6504 113.104 59.7291C112.434 60.8165 111.857 61.7608 112.035 63.4347L111.301 63.5134C111.102 61.5891 111.8 60.4445 112.477 59.3428C112.527 59.2641 112.57 59.1854 112.62 59.1067C113.34 57.9263 114.765 57.0679 116.262 56.9248C117.466 56.8104 118.842 56.9606 120.352 57.3755C121.714 57.7547 123.431 58.7991 124.208 60.3014C124.536 60.9381 124.629 61.6463 124.678 62.2615C124.721 62.934 124.75 64.05 124.507 65.2375Z" fill="#C1C1C1"/>
<path d="M159.843 40.0206C160.846 40.0206 161.66 39.047 161.66 37.8459C161.66 36.6448 160.846 35.6711 159.843 35.6711C158.839 35.6711 158.025 36.6448 158.025 37.8459C158.025 39.047 158.839 40.0206 159.843 40.0206Z" fill="#7A7A7A"/>
<path d="M159.843 35.6711C159.657 35.6711 159.479 35.7069 159.308 35.7641C160.049 36.036 160.591 36.8658 160.591 37.8387C160.591 38.8188 160.049 39.6415 159.308 39.9133C159.479 39.9777 159.657 40.0063 159.843 40.0063C160.848 40.0063 161.66 39.0334 161.66 37.8316C161.66 36.6441 160.848 35.6711 159.843 35.6711Z" fill="#8D8D8D"/>
<path d="M152.16 21.2136C146.879 21.2136 142.581 25.9351 142.581 31.7439C142.581 32.5595 142.667 33.3464 142.824 34.1047H144.292C144.106 33.3535 144.014 32.5595 144.014 31.7439C144.014 26.7292 147.67 22.6515 152.16 22.6515C156.65 22.6515 160.306 26.7292 160.306 31.7439C160.306 34.305 159.351 36.6228 157.826 38.2753C157.555 38.5686 157.583 39.0336 157.883 39.2983C157.89 39.2983 157.89 39.3054 157.897 39.3054C158.182 39.5558 158.617 39.5344 158.873 39.2554C160.641 37.3453 161.738 34.6841 161.738 31.7511C161.738 25.9351 157.441 21.2136 152.16 21.2136Z" fill="#393939"/>
<path d="M158.032 37.9102C158.032 37.9102 158.118 39.155 158.995 39.763C159.871 40.3711 157.783 40.693 157.676 40.5857C157.569 40.4784 156.6 39.8489 156.579 39.2265C156.557 38.597 156.757 38.0891 156.792 38.0032C156.828 37.9174 157.099 37.4309 157.17 37.4309C157.234 37.4381 158.032 37.9102 158.032 37.9102Z" fill="#C1C1C1"/>
<path d="M135.226 40.0206C136.23 40.0206 137.044 39.047 137.044 37.8459C137.044 36.6448 136.23 35.6711 135.226 35.6711C134.223 35.6711 133.409 36.6448 133.409 37.8459C133.409 39.047 134.223 40.0206 135.226 40.0206Z" fill="#7A7A7A"/>
<path d="M135.226 35.6711C135.041 35.6711 134.863 35.7069 134.692 35.7641C135.433 36.036 135.975 36.8658 135.975 37.8387C135.975 38.8188 135.433 39.6415 134.692 39.9133C134.863 39.9777 135.041 40.0063 135.226 40.0063C136.231 40.0063 137.044 39.0334 137.044 37.8316C137.044 36.6441 136.231 35.6711 135.226 35.6711Z" fill="#8D8D8D"/>
<path d="M127.543 21.2136C122.262 21.2136 117.965 25.9351 117.965 31.7439C117.965 32.5595 118.05 33.3464 118.207 34.1047H119.675C119.49 33.3535 119.397 32.5595 119.397 31.7439C119.397 26.7292 123.053 22.6515 127.543 22.6515C132.033 22.6515 135.689 26.7292 135.689 31.7439C135.689 34.305 134.734 36.6228 133.209 38.2753C132.939 38.5686 132.967 39.0336 133.266 39.2983C133.273 39.2983 133.273 39.3054 133.281 39.3054C133.566 39.5558 134 39.5344 134.257 39.2554C136.024 37.3453 137.122 34.6841 137.122 31.7511C137.122 25.9351 132.824 21.2136 127.543 21.2136Z" fill="#393939"/>
<path d="M133.416 37.9102C133.416 37.9102 133.501 39.155 134.378 39.763C135.255 40.3711 133.166 40.693 133.06 40.5857C132.953 40.4784 131.983 39.8489 131.962 39.2265C131.941 38.597 132.14 38.0891 132.176 38.0032C132.211 37.9174 132.482 37.4309 132.554 37.4309C132.625 37.4309 133.416 37.9102 133.416 37.9102Z" fill="#C1C1C1"/>
<path d="M112.427 37.8459C112.427 39.0477 111.615 40.0206 110.61 40.0206C109.605 40.0206 108.792 39.0477 108.792 37.8459C108.792 36.6441 109.605 35.6711 110.61 35.6711C111.615 35.6711 112.427 36.6441 112.427 37.8459Z" fill="#7A7A7A"/>
<path d="M110.61 35.6711C110.425 35.6711 110.246 35.7069 110.075 35.7641C110.817 36.036 111.358 36.8658 111.358 37.8387C111.358 38.8188 110.817 39.6415 110.075 39.9133C110.246 39.9777 110.425 40.0063 110.61 40.0063C111.615 40.0063 112.427 39.0334 112.427 37.8316C112.427 36.6441 111.615 35.6711 110.61 35.6711Z" fill="#8D8D8D"/>
<path d="M102.927 21.2136C97.6459 21.2136 93.3484 25.9351 93.3484 31.7439C93.3484 32.5595 93.4339 33.3464 93.5907 34.1047H95.0589C94.8736 33.3535 94.7809 32.5595 94.7809 31.7439C94.7809 26.7292 98.437 22.6515 102.927 22.6515C107.417 22.6515 111.073 26.7292 111.073 31.7439C111.073 34.305 110.118 36.6228 108.593 38.2753C108.322 38.5686 108.351 39.0336 108.65 39.2983C108.657 39.2983 108.657 39.3054 108.664 39.3054C108.949 39.5558 109.384 39.5344 109.641 39.2554C111.408 37.3453 112.506 34.6841 112.506 31.7511C112.506 25.9351 108.208 21.2136 102.927 21.2136Z" fill="#393939"/>
<path d="M108.8 37.9102C108.8 37.9102 108.885 39.155 109.762 39.763C110.638 40.3711 108.55 40.693 108.443 40.5857C108.336 40.4784 107.367 39.8489 107.346 39.2265C107.324 38.597 107.524 38.0891 107.56 38.0032C107.595 37.9174 107.866 37.4309 107.937 37.4309C108.002 37.4381 108.8 37.9102 108.8 37.9102Z" fill="#C1C1C1"/>
<path d="M85.9934 40.0206C86.9971 40.0206 87.8108 39.047 87.8108 37.8459C87.8108 36.6448 86.9971 35.6711 85.9934 35.6711C84.9897 35.6711 84.176 36.6448 84.176 37.8459C84.176 39.047 84.9897 40.0206 85.9934 40.0206Z" fill="#7A7A7A"/>
<path d="M85.9937 35.6711C85.8084 35.6711 85.6303 35.7069 85.4592 35.7641C86.2004 36.036 86.7421 36.8658 86.7421 37.8387C86.7421 38.8188 86.2004 39.6415 85.4592 39.9133C85.6303 39.9777 85.8084 40.0063 85.9937 40.0063C86.9986 40.0063 87.8111 39.0334 87.8111 37.8316C87.8111 36.6441 86.9986 35.6711 85.9937 35.6711Z" fill="#8D8D8D"/>
<path d="M78.3108 21.2136C73.0297 21.2136 68.7322 25.9351 68.7322 31.7439C68.7322 32.5595 68.8177 33.3464 68.9745 34.1047H70.4426C70.2573 33.3535 70.1647 32.5595 70.1647 31.7439C70.1647 26.7292 73.8208 22.6515 78.3108 22.6515C82.8007 22.6515 86.4568 26.7292 86.4568 31.7439C86.4568 34.305 85.5018 36.6228 83.9767 38.2753C83.7058 38.5686 83.7344 39.0336 84.0337 39.2983C84.0408 39.2983 84.0408 39.3054 84.0479 39.3054C84.333 39.5558 84.7678 39.5344 85.0243 39.2554C86.7918 37.3453 87.8894 34.6841 87.8894 31.7511C87.8894 25.9351 83.5918 21.2136 78.3108 21.2136Z" fill="#393939"/>
<path d="M84.1833 37.9102C84.1833 37.9102 84.2688 39.155 85.1454 39.763C86.022 40.3711 83.9338 40.693 83.8269 40.5857C83.72 40.4784 82.7508 39.8489 82.7294 39.2265C82.708 38.597 82.9076 38.0891 82.9432 38.0032C82.9788 37.9174 83.2497 37.4309 83.3209 37.4309C83.3851 37.4381 84.1833 37.9102 84.1833 37.9102Z" fill="#C1C1C1"/>
<path d="M175.7 122.117L175.586 117.102L170.127 118.175C170.127 118.175 153.87 120.071 153.799 120.071C153.728 120.071 138.106 124.671 138.106 124.671L136.153 125H172.949C174.503 125 175.736 123.705 175.7 122.117Z" fill="#F5E8E8"/>
<path d="M136.153 125C136.153 125 149.131 122.153 159.387 104.311C159.387 104.311 164.418 118.068 175.586 117.109C175.586 117.102 160.62 124.091 136.153 125Z" fill="#E2E2E2"/>
<path d="M87.704 55.1293C87.3619 55.1007 87.0269 55.065 86.6919 54.9934C86.3142 54.9147 85.8296 54.836 85.5445 54.8646C84.9458 54.9219 83.9623 55.2366 83.5632 55.9735C83.0643 56.8892 81.696 56.5887 82.9218 60.4159C84.3115 64.7511 86.6349 63.6423 86.6777 63.5564C86.7204 63.4634 88.1458 60.187 88.1458 60.187C88.1458 60.187 89.3004 61.6249 89.2861 61.5605C89.279 61.5033 91.7806 55.4441 87.704 55.1293Z" fill="#0E2E35"/>
<path d="M88.6518 70.9677C89.115 70.5886 92.6999 72.1696 92.6571 72.7204C92.6144 73.2712 95.1587 78.6008 95.1587 78.6008L99.5631 75.074C99.5988 74.9452 100.019 73.5788 100.041 73.3285C100.062 73.0709 100.803 72.6202 101.152 72.6846C101.502 72.749 100.86 73.1854 100.817 73.2641C100.703 73.4787 101.145 73.5645 101.145 73.5645C101.145 73.5645 102.421 72.8635 102.442 72.4486C102.464 72.0336 102.735 71.1752 103.005 71.354C103.148 71.447 103.148 72.0623 103.105 72.3484C103.184 72.0193 103.305 71.6473 103.419 71.6116C103.625 71.5472 103.725 71.8047 103.69 71.9335C103.654 72.0623 103.319 73.4644 103.219 73.6218C103.119 73.7791 101.067 75.4388 100.768 75.7965C100.768 75.7965 95.0732 82.335 94.6669 82.5067C94.3106 82.6569 93.042 80.4035 91.8447 78.9084C90.6402 77.4276 87.205 72.1481 88.6518 70.9677Z" fill="#F7A491"/>
<path d="M77.1561 119.034C77.1561 119.034 76.3721 119.799 76.3579 120.085C76.3436 120.364 76.2866 123.383 76.6073 123.662C76.928 123.941 77.8688 124.142 77.5623 124.456C77.3342 124.692 75.581 124.642 74.4193 124.578C74.0772 124.557 73.6568 121.838 73.5213 121.437C73.3289 120.858 72.8514 119.549 73.0296 119.148C73.1151 118.948 73.5285 118.547 74.1129 118.168C74.7258 117.768 75.3102 116.888 75.3102 116.888L77.1561 119.034Z" fill="#F48C7F"/>
<path d="M85.2665 120.815L84.5681 122.804C84.5182 123.119 84.3115 123.898 84.3115 124.185C84.3115 125.258 89.1436 123.269 88.0603 122.797C87.9605 122.754 87.6541 122.41 87.6255 122.046C87.5757 121.48 88.0318 120.772 88.0318 120.772L85.2665 120.815Z" fill="#F7A491"/>
<path d="M92.8423 83.8301C92.8423 83.8301 93.1915 87.3926 93.1915 87.4427C93.1915 93.2015 94.3318 104.454 94.1109 105.535C93.5835 108.174 87.9034 121.652 87.9034 121.652L84.8317 121.287L88.8299 105.155L87.3546 98.6598L85.2735 85.826L92.8423 83.8301Z" fill="#D86E60"/>
<path d="M82.5368 86.9778L81.9524 90.3544L80.3773 104.247L74.3765 117.825C74.3765 117.825 75.2174 119.799 76.4647 120.078L86.0147 106.143L91.9515 88.3084L91.7448 84.3452L82.5368 86.9778Z" fill="#FF725E"/>
<path d="M94.0683 75.353L89.8135 75.7894C89.8135 75.7894 89.6211 72.2841 89.6211 70.6173C89.6211 68.5927 89.7921 65.9816 90.0345 66.0317C90.7186 66.1891 91.638 66.5682 92.1868 67.3265C94.0825 69.9448 94.0683 75.353 94.0683 75.353Z" fill="#3C8F7C"/>
<path d="M91.973 70.2521C92.0657 70.8674 93.6978 87.6715 93.6978 87.6715C85.9437 91.4272 81.6675 88.344 81.6675 88.344C81.6675 88.344 81.9241 76.5474 81.6176 74.9379C81.4181 73.8719 81.1686 66.8112 81.8528 66.618C82.7366 66.3677 83.7415 66.0958 84.8461 65.9814C85.7869 65.8812 89.4359 65.824 90.0844 66.0457C90.0844 66.0457 91.6024 67.6553 91.973 70.2521Z" fill="#96D9C9"/>
<path d="M74.1484 118.147C74.1484 118.147 75.9515 123.247 76.6571 123.491C76.8424 123.555 77.7475 123.719 77.9114 124.12C77.9613 124.242 77.9114 124.642 77.9114 124.642H74.1484C74.1484 124.642 73.6709 122.396 73.4856 121.409C73.4856 121.409 72.4878 118.998 72.6019 118.776C72.7159 118.554 74.1484 118.147 74.1484 118.147Z" fill="#393939"/>
<path d="M84.0334 124.542L84.5893 122.79C84.5893 122.79 85.751 123.283 86.3283 123.197C86.9056 123.119 88.0459 122.79 88.0459 122.79C90.3622 123.555 92.2651 123.927 91.9158 124.542H84.0334Z" fill="#393939"/>
<path d="M94.66 82.521C94.6743 82.5138 94.7384 82.4638 94.774 82.4352C94.6386 80.7898 94.66 79.1945 95.1732 78.6508C95.1589 78.6222 95.0449 78.3861 94.9308 78.1357C94.3322 78.6007 94.0542 79.8312 94.1611 81.8271C94.1682 81.963 94.211 82.0703 94.2395 82.242C94.4248 82.428 94.5816 82.5568 94.66 82.521Z" fill="#F7A491"/>
<path d="M87.9749 64.2576L88.203 65.9602C88.203 65.9602 88.7161 68.4139 88.0533 68.8861C87.3905 69.3582 85.2524 65.8887 85.2524 65.8887L85.4805 61.575L87.9749 64.2576Z" fill="#F7A491"/>
<path d="M85.4021 62.97C85.9437 64.4437 87.2408 65.345 88.1673 65.6956L87.9749 64.2505L85.4805 61.5679L85.4021 62.97Z" fill="#C1C1C1"/>
<path d="M105.985 70.2881L113.012 59.5647L100.946 63.8069L99.3351 68.4782L105.985 70.2881Z" fill="#F2E9DA"/>
<path d="M99.3351 68.4783L101.046 68.9433L113.012 59.5647L100.946 63.8069L99.3351 68.4783Z" fill="#E0D5C3"/>
<path d="M100.946 63.8069L104.067 62.7124L102.364 65.6383L64.0354 95.6768L63.7717 92.9441L100.946 63.8069Z" fill="#E8BA70"/>
<path d="M102.364 65.6383L105.935 65.1089L104.566 68.464L66.2305 98.5025L64.0354 95.6768L102.364 65.6383Z" fill="#F7CC7F"/>
<path d="M104.566 68.4639L107.802 67.5125L105.985 70.2881L68.8107 99.4181L66.2307 98.5025L104.566 68.4639Z" fill="#FAE0B2"/>
<path d="M66.8519 93.4653L64.032 95.6753L66.2293 98.5002L69.0493 96.2902L66.8519 93.4653Z" fill="#50BFA5"/>
<path d="M69.053 96.292L66.2307 98.5025L68.8107 99.4182L70.4784 98.1162L69.053 96.292Z" fill="#96D9C9"/>
<path d="M65.4323 91.6348L63.7717 92.9439L64.0354 95.6766L66.8577 93.4661L65.4323 91.6348Z" fill="#3C8F7C"/>
<path d="M69.0567 96.2949L70.4778 98.1218L73.8033 95.5156L72.3823 93.6887L69.0567 96.2949Z" fill="#FEF8F8"/>
<path d="M65.4361 91.636L66.8572 93.4629L70.1827 90.8567L68.7617 89.0298L65.4361 91.636Z" fill="#EDDFCA"/>
<path d="M66.8576 93.4663L69.0549 96.2913L72.3805 93.685L70.1831 90.8601L66.8576 93.4663Z" fill="#F2E9DA"/>
<path d="M110.624 63.206C110.646 63.1702 113.012 59.5647 113.012 59.5647L108.914 61.0026L110.368 61.6321L110.624 63.206Z" fill="#E86752"/>
<path d="M110.368 61.6393L113.012 59.5647L108.914 61.0098L110.368 61.6393Z" fill="#D85648"/>
<path d="M73.9919 87.8578C73.9847 87.822 73.9847 87.7863 73.9919 87.7505C74.1059 86.5845 75.068 76.8124 75.232 76.3975C75.3816 76.0255 79.6934 69.8232 79.6934 69.8232L81.8172 72.7277L77.6622 78.2861C77.5696 78.6367 76.0729 85.2324 76.0729 85.2324C76.0729 85.2324 75.7665 86.4342 75.6311 87.1568C75.6952 87.3284 75.7522 87.493 75.8092 87.6289C75.9446 87.9151 76.1086 88.1511 76.2582 88.3514C76.4435 88.6018 76.75 89.1455 76.7856 89.2957C76.8284 89.4674 76.9068 89.8179 76.9567 90.0326C76.9994 90.2472 77.0636 90.4904 77.0707 90.612C77.0778 90.6835 77.1491 90.8195 77.2061 90.9196C77.2916 91.0698 77.1491 91.2415 76.9852 91.1915C76.8355 91.1414 76.7143 90.9482 76.6431 90.8195C76.4364 90.4761 76.3295 89.8466 76.2796 89.8752C76.2297 89.9109 76.0515 90.9769 76.023 91.0985C75.9945 91.2201 75.7807 92.4577 75.6596 92.6866C75.5384 92.9155 75.3745 92.8726 75.3389 92.7367C75.3032 92.6151 75.4743 90.8767 75.4743 90.8767C75.4743 90.8767 75.4956 90.6549 75.3959 90.7265C75.2961 90.798 75.1393 92.3718 75.0752 92.6007C75.011 92.8297 74.8542 92.9513 74.7259 92.7653C74.5691 92.5364 74.84 90.8695 74.84 90.8695C74.84 90.8695 74.8685 90.6621 74.783 90.6764C74.6903 90.6979 74.5834 92.0356 74.5121 92.1572C74.4409 92.2717 74.2698 92.3146 74.1843 92.1214C74.0845 91.8925 74.3411 90.4045 74.3411 90.4045C74.3411 90.4045 74.3268 90.2829 74.2698 90.3259C74.2128 90.3616 74.0346 91.4991 73.9206 91.6064C73.8208 91.6922 73.7424 91.6064 73.7424 91.6064C73.5286 91.4633 73.8565 90.3831 73.8493 89.8394C73.8493 89.3029 74.0916 88.6948 74.0204 88.0581C74.0133 88.0152 74.0061 87.915 73.9919 87.8578Z" fill="#F8A492"/>
<path d="M76.3223 73.7502L80.0069 76.2325C80.0069 76.2325 82.088 73.1278 83.1998 72.0261C84.5966 70.6383 82.6938 66.4033 81.7886 66.6394C79.7788 67.1759 76.3223 73.7502 76.3223 73.7502Z" fill="#3C8F7C"/>
<path d="M86.022 56.8175C87.2621 56.281 88.6803 57.025 88.9725 58.327C89.1008 58.8921 89.2291 59.6075 89.3075 60.3872C89.4857 62.2758 88.6518 64.1859 87.7966 64.2574C86.9414 64.3218 84.4826 63.2773 84.1975 60.6018C84.0122 58.9493 84.7249 57.3827 86.022 56.8175Z" fill="#F7A491"/>
<path d="M84.8389 60.7664C84.8674 61.1813 84.618 61.539 84.283 61.5676C83.9409 61.5962 83.6416 61.2743 83.6131 60.8594C83.5846 60.4445 83.834 60.0868 84.169 60.0582C84.5039 60.0296 84.8033 60.3515 84.8389 60.7664Z" fill="#F7A491"/>
<path d="M84.1618 60.058C84.1618 60.058 85.2166 60.0508 85.4232 59.3212C85.6299 58.5915 86.5992 56.8817 88.4094 57.0248C90.2268 57.1679 86.592 56.009 86.4566 56.0448C86.3212 56.0805 84.7177 56.474 84.7177 56.474C84.7177 56.474 83.7413 57.8046 83.7199 57.9262C83.7057 58.0478 83.6558 59.3569 83.6558 59.3569L84.1618 60.058Z" fill="#0E2E35"/>
<path d="M88.552 61.8826L86.7988 62.0256C86.7988 62.0256 86.8915 62.6909 87.6683 62.6552C88.6091 62.6051 88.552 61.8826 88.552 61.8826Z" fill="white"/>
</svg>
