<svg width="154" height="40" viewBox="0 0 154 40" fill="none" xmlns="http://www.w3.org/2000/svg">
<path d="M11.0286 26.3047C4.97321 26.3047 0.0615234 21.393 0.0615234 15.3377C0.0615234 9.28229 4.97321 4.37061 11.0286 4.37061C17.084 4.37061 21.9854 9.27208 21.9956 15.3274C21.9854 21.3828 17.084 26.2945 11.0286 26.3047ZM11.0286 8.7513C7.41374 8.74109 4.47286 11.6616 4.46264 15.2764C4.45243 18.8912 7.3729 21.8321 10.9877 21.8423C14.6026 21.8525 17.5435 18.9423 17.5537 15.3274C17.5537 11.7228 14.6332 8.80236 11.0286 8.78193V8.7513Z" fill="#00C081"/>
<path d="M74.5334 26.3248C68.478 26.3452 63.5561 21.4438 63.5357 15.3884C63.5153 9.33301 68.4168 4.41111 74.4721 4.39069C80.5275 4.37027 85.4494 9.27175 85.4698 15.3271C85.4698 15.3373 85.4698 15.3475 85.4698 15.3577C85.4596 21.4029 80.5683 26.2942 74.5334 26.3248ZM74.5334 8.77139C70.9186 8.77139 67.9879 11.7021 67.9879 15.3169C67.9879 18.9317 70.9186 21.8624 74.5334 21.8624C78.1482 21.8624 81.0789 18.9317 81.0789 15.3169C81.0585 11.7123 78.138 8.80202 74.5334 8.80202V8.77139Z" fill="#00C081"/>
<path d="M116.114 26.3252C110.059 26.3252 105.137 21.4237 105.137 15.3581C105.137 9.30276 110.038 4.38086 116.104 4.38086C122.159 4.38086 127.081 9.28234 127.081 15.3479V15.3581C127.071 16.5733 126.08 17.5536 124.865 17.5434H109.936C111.151 20.954 114.899 22.7308 118.309 21.5156C118.83 21.3318 119.331 21.0765 119.79 20.76C120.801 20.0758 122.169 20.3311 122.854 21.342C123.538 22.3529 123.282 23.7213 122.271 24.4054C120.474 25.6614 118.32 26.3252 116.114 26.3252ZM109.946 13.1423H122.282C121.056 9.73164 117.309 7.96507 113.898 9.19044C112.06 9.85418 110.61 11.3042 109.946 13.1423Z" fill="#00C081"/>
<path d="M142.388 26.3252C136.333 26.315 131.421 21.3931 131.431 15.3377C131.442 9.28235 136.364 4.37066 142.419 4.38088C148.474 4.39109 153.376 9.30278 153.376 15.3581C153.366 16.5733 152.375 17.5536 151.16 17.5434H151.15H136.221C137.446 20.954 141.204 22.7206 144.604 21.4952C145.125 21.3114 145.615 21.0561 146.075 20.7498C147.086 20.0656 148.464 20.3209 149.148 21.342C149.832 22.353 149.577 23.7315 148.556 24.4157C146.738 25.6615 144.594 26.3252 142.388 26.3252ZM136.221 13.1423H148.556C147.331 9.73166 143.583 7.96508 140.172 9.19045C138.334 9.85419 136.884 11.3042 136.221 13.1423Z" fill="#00C081"/>
<path d="M46.1148 14.3166H41.6933C41.6933 11.2839 39.2425 8.83312 36.2098 8.83312C33.177 8.83312 30.7262 11.2839 30.7262 14.3166H26.3047C26.6723 8.85354 31.4104 4.71791 36.8735 5.09574C41.826 5.4225 45.7676 9.36411 46.1148 14.3166Z" fill="#00C081"/>
<path d="M59.1344 26.3456C54.6925 26.3456 51.0981 22.7512 51.0776 18.3092C51.0776 17.094 52.0681 16.1035 53.2833 16.1035C54.4985 16.1035 55.489 17.094 55.489 18.3092C55.489 20.3208 57.1228 21.9445 59.1242 21.9445C60.3394 21.9445 61.3299 22.935 61.3299 24.1501C61.3299 25.3653 60.3394 26.3558 59.1242 26.3558V26.3456H59.1344Z" fill="#00C081"/>
<path d="M92.0357 17.5431C90.8206 17.5431 89.8301 16.5526 89.8301 15.3374C89.8505 9.25141 94.7928 4.31929 100.879 4.30908C102.094 4.30908 103.084 5.29959 103.084 6.51475C103.084 7.72991 102.094 8.72041 100.879 8.72041C97.2129 8.72041 94.2414 11.6919 94.2414 15.3578C94.221 16.5832 93.2407 17.5431 92.0357 17.5431Z" fill="#00C081"/>
<path d="M19.8409 26.2435C18.6258 26.2435 17.6353 25.253 17.6353 24.0378V6.57627C17.6353 5.36111 18.6258 4.37061 19.8409 4.37061C21.0561 4.37061 22.0466 5.36111 22.0466 6.57627V24.0378C22.0466 25.253 21.0663 26.2435 19.8511 26.2537C19.8511 26.2435 19.8511 26.2435 19.8409 26.2435Z" fill="#00C081"/>
<path d="M28.5309 26.2943C27.3157 26.2943 26.3252 25.3037 26.3252 24.0886V6.62705C26.3252 5.41189 27.3157 4.42139 28.5309 4.42139C29.746 4.42139 30.7365 5.41189 30.7365 6.62705V24.0886C30.7365 25.3037 29.7562 26.2943 28.5309 26.2943Z" fill="#00C081"/>
<path d="M92.0357 26.2435C90.8206 26.2435 89.8301 25.253 89.8301 24.0378V6.57627C89.8301 5.36111 90.8206 4.37061 92.0357 4.37061C93.2509 4.37061 94.2516 5.3509 94.2516 6.57627V24.0378C94.2516 25.253 93.2713 26.2435 92.0562 26.2537C92.046 26.2435 92.0357 26.2435 92.0357 26.2435Z" fill="#00C081"/>
<path d="M53.2833 20.5045C52.0681 20.5045 51.0878 19.5242 51.0776 18.3193V2.20567C51.0776 0.990507 52.0681 0 53.2833 0C54.4985 0 55.489 0.990507 55.489 2.20567V18.3091C55.489 19.5242 54.4985 20.5045 53.2833 20.5045Z" fill="#00C081"/>
<path d="M43.899 26.2944C42.6839 26.2944 41.6934 25.3039 41.6934 24.0887V13.9386C41.6934 12.7234 42.6839 11.7329 43.899 11.7329C45.1142 11.7329 46.1047 12.7234 46.1047 13.9386V24.0887C46.1149 25.3039 45.1244 26.2944 43.899 26.2944C43.9092 26.2944 43.899 26.2944 43.899 26.2944Z" fill="#00C081"/>
<path d="M59.1652 8.79219H50.3629C49.1477 8.79219 48.1572 7.80168 48.1572 6.58652C48.1572 5.37137 49.1477 4.38086 50.3629 4.38086H59.1345C60.3497 4.38086 61.3402 5.37137 61.3402 6.58652C61.3402 7.80168 60.3497 8.79219 59.1345 8.79219H59.1652Z" fill="#00C081"/>
<path d="M0 33.5749C0 33.432 0.0714799 33.289 0.183805 33.1971C0.306342 33.1052 0.449302 33.0541 0.602473 33.0643C0.857759 33.0235 1.09262 33.1869 1.14368 33.4422C1.15389 33.4932 1.15389 33.5341 1.14368 33.5851V34.5859C1.14368 34.7186 1.14368 34.8616 1.14368 35.0045C1.14368 35.1475 1.14368 35.2802 1.14368 35.3926V38.9257H2.18524L3.61484 38.8747C3.94161 38.8747 4.10499 39.0278 4.10499 39.3444C4.10499 39.6609 3.93139 39.8549 3.58421 39.9162H1.59298H1.04156C0.786279 39.9366 0.520782 39.906 0.275708 39.8141C0.112326 39.6814 0.0204228 39.4873 0.0204228 39.2831V38.9053C0.0204228 38.6296 0.0204228 38.2007 0.0204228 37.6391C0.0204228 37.0774 0.0204228 36.6792 0.0204228 36.4443V33.5953H0V33.5749Z" fill="#343741"/>
<path d="M5.62645 33.575C5.62645 33.238 5.86131 33.0645 6.33104 33.0645H9.24129C9.59869 33.0645 9.7825 33.2176 9.7825 33.524C9.7825 33.8303 9.68038 33.9937 9.46594 34.0243H6.70886V36.036H7.11732H8.74093C8.90431 36.0258 9.0677 36.0564 9.21066 36.1279C9.31277 36.1891 9.36383 36.3117 9.3434 36.5057C9.3434 36.8223 9.16981 36.9754 8.82262 36.9754H6.69865C6.69865 37.0367 6.69865 37.1286 6.69865 37.2307V38.8748C6.96414 38.8748 7.73 38.8748 8.986 38.8748H9.30256H9.46594C9.76207 38.8748 9.90503 39.0381 9.90503 39.3649C9.90503 39.6917 9.72123 39.8755 9.3434 39.9061H6.64759C6.36167 39.9265 6.07575 39.8857 5.81025 39.7836C5.64687 39.661 5.56518 39.467 5.5856 39.2628V33.5648H5.62645V33.575Z" fill="#343741"/>
<path d="M10.8447 39.4262C10.8651 39.222 10.9162 39.0279 11.0081 38.8543L11.9986 36.567L13.2342 33.5138C13.3363 33.2585 13.5916 33.0951 13.8673 33.1257C14.1634 33.0951 14.4391 33.2585 14.5413 33.5342L14.7863 34.1469C14.8987 34.4226 15.0314 34.7698 15.1948 35.1885C15.5113 36.0258 15.736 36.5874 15.8585 36.8733L15.93 37.0061C15.9606 37.0673 15.9913 37.1286 16.0117 37.1899C16.3385 38.0272 16.604 38.6807 16.8184 39.1709C16.8695 39.2832 16.9001 39.4058 16.9103 39.5283C16.9001 39.6508 16.8286 39.7734 16.7265 39.8448C16.604 39.947 16.4508 39.998 16.2976 39.998C16.1751 40.0082 16.0525 39.9776 15.9504 39.9061C15.8483 39.8244 15.7768 39.7121 15.736 39.5896C15.4194 38.7114 15.2561 38.2314 15.2561 38.1498H12.5194L12.4479 38.3438L12.305 38.7522L12.1518 39.1709C12.1109 39.2832 12.0701 39.3751 12.0395 39.4568C11.9884 39.5896 11.9169 39.7019 11.825 39.804C11.7433 39.8857 11.631 39.9163 11.5085 39.9061C11.3451 39.9061 11.1919 39.8653 11.0592 39.7734C10.9366 39.6815 10.8549 39.5385 10.8651 39.3853L10.8447 39.4262ZM13.8979 34.4328C13.8571 34.5758 13.7448 34.8821 13.5712 35.3518L12.8462 37.3022H13.9898H14.9191L13.9081 34.4532L13.8979 34.4328Z" fill="#343741"/>
<path d="M18.3906 33.759C18.3906 33.3403 18.6459 33.1259 19.1565 33.1055H19.6262H20.7903C21.403 33.1055 21.985 33.3199 22.4548 33.7079C22.8836 34.096 23.1185 34.6576 23.0879 35.2294C23.0981 35.6583 22.9755 36.0668 22.7305 36.4242C22.4956 36.7612 22.1586 37.0062 21.7808 37.1288L23.2104 39.0587C23.3023 39.1608 23.3534 39.2834 23.3636 39.4161C23.3636 39.5591 23.2921 39.6918 23.1798 39.7735C23.0675 39.8756 22.9245 39.9267 22.7713 39.9267C22.5773 39.9267 22.3935 39.8246 22.2914 39.6612L20.7699 37.3738H19.5343V39.2936C19.5343 39.6714 19.3811 39.8756 19.0646 39.8858C18.891 39.9165 18.7072 39.8756 18.5642 39.7633C18.4519 39.6306 18.411 39.457 18.4417 39.2834C18.4417 39.0689 18.4417 38.589 18.4417 37.8231V34.5351C18.4417 34.4534 18.4417 34.3513 18.4417 34.2389C18.4417 34.1266 18.4417 34.0245 18.4417 33.9428V33.7284L18.3906 33.759ZM20.5452 34.0551H19.9938H19.4628V36.4752H20.4635C20.8516 36.4957 21.2294 36.3935 21.546 36.1791C21.8319 35.9545 21.985 35.6073 21.9646 35.2397C22.0055 34.9027 21.8727 34.5657 21.6174 34.341C21.3213 34.1368 20.9639 34.0347 20.6065 34.0551H20.5452Z" fill="#343741"/>
<path d="M26.0496 39.2935C26.0496 39.7019 25.876 39.9164 25.5186 39.9164C25.1612 39.9164 24.9672 39.753 24.9365 39.416V38.4868C24.9365 38.0783 24.9365 37.5473 24.9365 36.9142V33.5751C24.9365 33.4321 25.008 33.2993 25.1305 33.2177C25.2735 33.1258 25.4369 33.0747 25.6003 33.0849C25.733 33.0747 25.876 33.1258 25.9781 33.2074C26.1006 33.3198 26.213 33.4423 26.3049 33.5853L28.6433 36.8836L29.4398 38.0272C29.4398 37.6801 29.4398 37.3329 29.4398 36.9959C29.4398 36.6589 29.4398 36.3219 29.4398 35.985V33.7793C29.4193 33.5955 29.4602 33.4117 29.5521 33.2483C29.6644 33.1155 29.838 33.0441 30.0116 33.0645C30.369 33.0645 30.5426 33.2789 30.5426 33.7078V37.0674C30.5426 37.4248 30.5426 37.8026 30.5426 38.1804C30.5426 38.5582 30.5426 38.9565 30.5426 39.3752C30.5426 39.5283 30.4711 39.6713 30.3486 39.7632C30.2056 39.8653 30.0422 39.9164 29.8686 39.9164C29.7461 39.9266 29.6236 39.8857 29.5215 39.8142C29.3989 39.7019 29.2866 39.5692 29.1947 39.4364L25.9985 34.8617C25.9985 34.9638 25.9985 35.3927 25.9985 36.1177C26.0189 36.8325 26.0291 37.8945 26.0496 39.2935Z" fill="#343741"/>
<path d="M35.556 33.575C35.556 33.238 35.7909 33.0645 36.2606 33.0645H39.1708C39.5282 33.0645 39.712 33.2176 39.712 33.524C39.712 33.8303 39.6099 33.9937 39.3955 34.0243H36.618V36.036H37.0265H38.6501C38.8134 36.0258 38.9768 36.0564 39.1198 36.1279C39.2219 36.1891 39.273 36.3117 39.2525 36.5057C39.2525 36.8223 39.0789 36.9754 38.7318 36.9754H36.6078C36.6078 37.0367 36.6078 37.1286 36.6078 37.2307V38.8748C36.8733 38.8748 37.6391 38.8748 38.8951 38.8748H39.2117H39.3751C39.6712 38.8748 39.8142 39.0381 39.8142 39.3649C39.8142 39.6917 39.6304 39.8755 39.2525 39.9061H36.5465C36.2606 39.9265 35.9747 39.8857 35.7092 39.7836C35.5458 39.661 35.4641 39.467 35.4845 39.2628V33.5648H35.556V33.575Z" fill="#343741"/>
<path d="M42.469 39.2935C42.469 39.7019 42.2954 39.9164 41.938 39.9164C41.5806 39.9164 41.3866 39.753 41.356 39.416V38.4868C41.356 38.0783 41.356 37.5473 41.356 36.9142V33.5751C41.356 33.4321 41.4274 33.2993 41.55 33.2177C41.6929 33.1258 41.8563 33.0747 42.0197 33.0849C42.1524 33.0747 42.2954 33.1258 42.3975 33.2074C42.5201 33.3198 42.6324 33.4423 42.7243 33.5853L45.0627 36.8836L45.8592 38.0272C45.8592 37.6801 45.8592 37.3329 45.8592 36.9959C45.8592 36.6589 45.8592 36.3219 45.8592 35.985V33.7793C45.8388 33.5955 45.8796 33.4117 45.9715 33.2483C46.0838 33.1155 46.2574 33.0441 46.431 33.0645C46.7884 33.0645 46.962 33.2789 46.962 33.7078V37.0674C46.962 37.4248 46.962 37.8026 46.962 38.1804C46.962 38.5582 46.962 38.9565 46.962 39.3752C46.962 39.5283 46.8905 39.6713 46.768 39.7632C46.625 39.8653 46.4617 39.9164 46.2881 39.9164C46.1655 39.9266 46.043 39.8857 45.9409 39.8142C45.8183 39.7019 45.706 39.5692 45.6141 39.4364L42.4179 34.8617C42.4179 34.9638 42.4179 35.3927 42.4179 36.1177C42.4384 36.8325 42.4486 37.8945 42.469 39.2935Z" fill="#343741"/>
<path d="M52.0477 33.0341C52.7216 33.0238 53.3956 33.1974 53.9674 33.5548C54.2023 33.6978 54.3146 33.851 54.3146 34.0246C54.3146 34.1573 54.2738 34.2798 54.1819 34.382C54.1002 34.4841 53.9776 34.5453 53.8551 34.5453C53.6611 34.5249 53.4773 34.4636 53.3241 34.3513C52.9259 34.1165 52.4663 33.9939 52.0068 34.0041C51.4146 34.0246 50.8632 34.2901 50.4853 34.7291C50.036 35.1887 49.7808 35.8116 49.791 36.4549C49.7399 37.1186 49.9543 37.7721 50.373 38.2929C50.7917 38.7422 51.3942 38.9873 52.017 38.9669C52.5174 38.9873 52.9973 38.7831 53.3343 38.4155C53.6509 38.0581 53.8347 37.5986 53.8449 37.1288H52.7114C52.5889 37.1288 52.4663 37.0778 52.3847 36.9859C52.303 36.894 52.2621 36.7816 52.2621 36.6591C52.2315 36.4242 52.4051 36.2098 52.6399 36.1894C52.6706 36.1894 52.7012 36.1894 52.7421 36.1894H54.2636C54.4576 36.1587 54.6516 36.2404 54.7741 36.3834C54.8762 36.557 54.9273 36.751 54.9069 36.9552C54.9273 37.7721 54.6312 38.5584 54.0695 39.1405C53.4977 39.7123 52.7114 40.0084 51.9047 39.9778C51.0368 39.988 50.2096 39.6408 49.6174 39.0179C48.9843 38.3338 48.6473 37.4352 48.6881 36.4957C48.6779 34.5862 50.2096 33.0238 52.1192 33.0034L52.0477 33.0341Z" fill="#343741"/>
<path d="M56.551 33.5749C56.551 33.432 56.6225 33.289 56.7348 33.1971C56.8573 33.1052 57.0003 33.0542 57.1535 33.0644C57.4087 33.0337 57.6436 33.2175 57.6742 33.4728C57.6742 33.5035 57.6742 33.5443 57.6742 33.5749V34.5757C57.6742 34.7084 57.6742 34.8514 57.6742 34.9943C57.6742 35.1373 57.6742 35.27 57.6742 35.3824V38.9257H58.7362L60.1658 38.8747C60.4926 38.8747 60.656 39.0278 60.656 39.3444C60.656 39.6609 60.4824 39.8549 60.1352 39.9162H58.1133H57.5619C57.3066 39.9366 57.0411 39.906 56.7961 39.8141C56.6327 39.6813 56.5408 39.4873 56.5408 39.2831V38.9053C56.5408 38.6296 56.5408 38.2007 56.5408 37.6391C56.5408 37.0774 56.5408 36.6792 56.5408 36.4443V33.5749H56.551Z" fill="#343741"/>
<path d="M62.1466 35.7604C62.1466 35.6072 62.1466 35.352 62.1466 34.9946C62.1466 34.6372 62.1466 34.1674 62.1466 33.565C62.1364 33.4118 62.1977 33.2586 62.31 33.1565C62.4325 33.0646 62.5755 33.0238 62.7287 33.0238C62.8716 33.0135 63.0044 33.0646 63.1167 33.1463C63.2188 33.228 63.2801 33.3607 63.2699 33.4935V39.3446C63.2903 39.4978 63.2392 39.651 63.1371 39.7633C63.0248 39.8552 62.8818 39.9063 62.7287 39.896C62.5755 39.9063 62.4325 39.8552 62.31 39.7633C62.1977 39.6612 62.1364 39.5182 62.1466 39.3753V38.4971V35.7604Z" fill="#343741"/>
<path d="M69.1823 33.3608C69.3865 33.4527 69.5091 33.6468 69.5091 33.8714C69.5091 33.9939 69.458 34.1165 69.3763 34.2186C69.2946 34.3207 69.1721 34.382 69.0496 34.382C68.8862 34.3616 68.7228 34.3207 68.5696 34.2492C68.2224 34.0858 67.8344 34.0042 67.4464 34.0042C67.1298 33.9939 66.8133 34.0961 66.558 34.2901C66.3333 34.4637 66.2006 34.7292 66.2006 35.0151C66.2006 35.1274 66.2312 35.2397 66.2925 35.3316C66.3436 35.4133 66.4048 35.4848 66.4763 35.5461C66.5784 35.6176 66.6805 35.6686 66.7929 35.6992L66.9869 35.7707L67.14 35.8116L67.3034 35.8524L67.5587 35.9137C68.1408 36.0158 68.6922 36.2302 69.1823 36.557C69.5704 36.8633 69.7848 37.3535 69.7542 37.8436C69.7746 38.4257 69.5295 38.9975 69.07 39.3651C68.5696 39.7532 67.957 39.9574 67.3238 39.9472C66.6703 39.9574 66.0168 39.8247 65.4143 39.5387C65.1795 39.457 65.0161 39.2426 65.0059 38.9975C65.0059 38.8546 65.0569 38.7218 65.1386 38.6095C65.2203 38.4972 65.353 38.4359 65.4858 38.4461C65.639 38.4665 65.7921 38.4972 65.9351 38.5482C66.3538 38.7729 66.8235 38.8954 67.3034 38.9056C67.6506 38.9261 67.9876 38.8239 68.2633 38.6197C68.5084 38.4461 68.6513 38.1602 68.6411 37.8539C68.6513 37.5884 68.5084 37.3331 68.2837 37.1901C67.9672 37.0165 67.62 36.894 67.2626 36.8327L66.8235 36.7306L66.4457 36.6285C66.2108 36.5468 65.9862 36.4447 65.7819 36.3119C65.5777 36.1894 65.4041 36.0158 65.302 35.8014C65.1897 35.5767 65.1284 35.3316 65.1386 35.0763C65.1284 34.4943 65.3939 33.9429 65.8534 33.5855C66.3231 33.1872 66.9256 32.9728 67.5485 32.983C68.1408 32.9728 68.733 33.0953 69.2742 33.3404L69.1823 33.3608Z" fill="#343741"/>
<path d="M76.9533 39.4366C76.9533 39.7633 76.7593 39.9267 76.3712 39.9267C75.9832 39.9267 75.7994 39.7633 75.8096 39.4366V37.0982H72.6032V39.4366C72.6032 39.7429 72.4092 39.8961 72.011 39.8961C71.6127 39.8961 71.4289 39.7429 71.4595 39.4264C71.4595 39.2936 71.4595 39.0894 71.4595 38.8137C71.4595 38.538 71.4595 38.1908 71.4595 37.7721C71.4595 36.945 71.4595 36.3017 71.4595 35.8524L71.4187 33.565C71.4187 33.228 71.6127 33.0544 72.011 33.0544C72.4092 33.0544 72.593 33.1974 72.5522 33.4833V35.3112C72.5522 35.5664 72.5522 35.8217 72.5522 36.077H75.7688V33.5854C75.7381 33.3097 75.9424 33.0646 76.2181 33.034C76.2589 33.034 76.2998 33.034 76.3406 33.034C76.6061 32.9932 76.8512 33.177 76.892 33.4323C76.9022 33.4833 76.9022 33.5242 76.892 33.5752V35.0967C76.892 35.6073 76.892 36.0668 76.892 36.4957L76.9533 39.4366Z" fill="#343741"/>
<path d="M84.8568 33.0136C85.7146 33.0136 86.5417 33.3608 87.1442 33.9735C87.7875 34.6168 88.1449 35.495 88.1143 36.4038C88.1449 37.3228 87.8181 38.2214 87.2157 38.9056C86.6132 39.5796 85.7452 39.9574 84.8466 39.937C83.9888 39.937 83.1719 39.6102 82.5592 39.0077C81.8955 38.3848 81.5381 37.4964 81.5687 36.5876C81.5381 35.6073 81.9057 34.6577 82.5797 33.9531C83.1617 33.3098 83.999 32.9421 84.867 32.9524L84.8568 33.0136ZM87.0319 36.4242C87.0421 35.7809 86.797 35.158 86.3375 34.6985C85.9188 34.2594 85.347 34.0246 84.7445 34.0246C84.1726 34.0246 83.6212 34.29 83.274 34.7496C82.8554 35.2499 82.6409 35.8932 82.6511 36.5468C82.6205 37.1799 82.8554 37.8028 83.2945 38.2725C83.7131 38.7116 84.285 38.9465 84.8874 38.9362C85.4899 38.9362 86.0516 38.6503 86.409 38.1704C86.8276 37.6905 87.0421 37.0676 87.0319 36.4242Z" fill="#343741"/>
<path d="M90.9121 39.2935C90.9121 39.7019 90.7385 39.9164 90.3811 39.9164C90.0237 39.9164 89.8297 39.753 89.7991 39.416V38.4868C89.7991 38.0783 89.7991 37.5473 89.7991 36.9142V33.5751C89.7991 33.4321 89.8705 33.2993 89.9931 33.2177C90.136 33.1258 90.2994 33.0747 90.4628 33.0849C90.5956 33.0747 90.7385 33.1258 90.8406 33.2074C90.9632 33.3198 91.0755 33.4423 91.1674 33.5853L93.5058 36.8836L94.3023 38.0272C94.3023 37.6801 94.3023 37.3329 94.3023 36.9959C94.3023 36.6589 94.3023 36.3219 94.3023 35.985V33.7793C94.2819 33.5955 94.3228 33.4117 94.4147 33.2483C94.527 33.1155 94.7006 33.0441 94.8742 33.0645C95.2316 33.0645 95.4052 33.2789 95.4052 33.7078V37.0674C95.4052 37.4248 95.4052 37.8026 95.4052 38.1804C95.4052 38.5582 95.4052 38.9565 95.4052 39.3752C95.4052 39.5283 95.3337 39.6713 95.2112 39.7632C95.0682 39.8653 94.9048 39.9164 94.7312 39.9164C94.6087 39.9266 94.4862 39.8857 94.384 39.8142C94.2615 39.7019 94.1492 39.5692 94.0573 39.4364L90.8815 34.8413C90.8815 34.9434 90.8815 35.3723 90.8815 36.0973C90.8815 36.8325 90.8917 37.8945 90.9121 39.2935Z" fill="#343741"/>
<path d="M97.3862 33.5749C97.3862 33.432 97.4577 33.289 97.57 33.1971C97.6926 33.1052 97.8355 33.0542 97.9887 33.0644C98.244 33.0337 98.4788 33.2175 98.5095 33.4728C98.5095 33.5035 98.5095 33.5443 98.5095 33.5749V34.5757C98.5095 34.7084 98.5095 34.8514 98.5095 34.9943C98.5095 35.1373 98.5095 35.27 98.5095 35.3824V38.9257H99.5714L101.001 38.8747C101.328 38.8747 101.491 39.0278 101.491 39.3444C101.491 39.6609 101.318 39.8549 100.97 39.9162H98.9588H98.4074C98.1521 39.9366 97.8866 39.906 97.6415 39.8141C97.4781 39.6813 97.3862 39.4873 97.3862 39.2831V38.9053C97.3862 38.6296 97.3862 38.2007 97.3862 37.6391C97.3862 37.0774 97.3862 36.6792 97.3862 36.4443V33.5954V33.5749Z" fill="#343741"/>
<path d="M103.013 35.7604C103.013 35.6072 103.013 35.352 103.013 34.9946C103.013 34.6372 103.013 34.1674 103.013 33.565C103.003 33.4118 103.064 33.2586 103.176 33.1565C103.299 33.0646 103.442 33.0238 103.595 33.0238C103.738 33.0135 103.871 33.0646 103.983 33.1463C104.085 33.228 104.146 33.3607 104.136 33.4935V39.3446C104.157 39.4978 104.105 39.651 104.003 39.7633C103.891 39.8552 103.748 39.9063 103.595 39.896C103.442 39.9063 103.299 39.8552 103.176 39.7633C103.064 39.6612 103.003 39.5182 103.013 39.3753V38.4971V35.7604Z" fill="#343741"/>
<path d="M107.302 39.2935C107.302 39.7019 107.128 39.9164 106.771 39.9164C106.413 39.9164 106.219 39.753 106.188 39.416V38.4868C106.188 38.0783 106.188 37.5473 106.188 36.9142V33.5751C106.188 33.4321 106.26 33.2993 106.382 33.2177C106.525 33.1258 106.689 33.0747 106.852 33.0849C106.985 33.0747 107.128 33.1258 107.23 33.2074C107.363 33.3198 107.485 33.4423 107.577 33.5853L109.916 36.8836L110.712 38.0272C110.712 37.6801 110.712 37.3329 110.712 36.9959C110.712 36.6589 110.712 36.3219 110.712 35.985V33.7793C110.692 33.5955 110.733 33.4117 110.824 33.2483C110.937 33.1155 111.11 33.0441 111.284 33.0645C111.641 33.0645 111.815 33.2789 111.815 33.7078V37.0674C111.815 37.4248 111.815 37.8026 111.815 38.1804C111.815 38.5582 111.815 38.9565 111.815 39.3752C111.815 39.5283 111.743 39.6713 111.621 39.7632C111.478 39.8653 111.315 39.9164 111.141 39.9164C111.018 39.9266 110.896 39.8857 110.794 39.8142C110.671 39.7019 110.559 39.5692 110.467 39.4364L107.271 34.8617C107.271 34.9638 107.271 35.3927 107.271 36.1177C107.291 36.8325 107.302 37.8945 107.302 39.2935Z" fill="#343741"/>
<path d="M113.908 33.575C113.908 33.238 114.143 33.0645 114.613 33.0645H117.502C117.86 33.0645 118.044 33.2176 118.044 33.524C118.044 33.8303 117.942 33.9937 117.727 34.0243H114.97V36.036H115.379H117.002C117.166 36.0258 117.329 36.0564 117.472 36.1279C117.574 36.1891 117.625 36.3117 117.605 36.5057C117.605 36.8223 117.431 36.9754 117.084 36.9754H114.95C114.95 37.0367 114.95 37.1286 114.95 37.2307V38.8748C115.215 38.8748 115.981 38.8748 117.237 38.8748H117.554H117.717C118.013 38.8748 118.156 39.0381 118.156 39.3649C118.156 39.6917 117.972 39.8755 117.594 39.9061H114.899C114.613 39.9265 114.327 39.8857 114.061 39.7836C113.898 39.661 113.816 39.467 113.837 39.2628V33.5648H113.908V33.575Z" fill="#343741"/>
<path d="M123.047 35.1784C122.945 35.2499 122.823 35.2806 122.7 35.2806C122.578 35.2703 122.465 35.2091 122.384 35.1172C122.292 35.0253 122.23 34.9027 122.23 34.77C122.241 34.576 122.343 34.3922 122.516 34.29L123.323 33.708L123.803 33.3608C123.956 33.2485 124.12 33.1668 124.293 33.1055C124.426 33.0443 124.579 33.0443 124.712 33.1055C124.906 33.1464 125.028 33.32 125.028 33.514V34.6577C125.028 34.9844 125.028 35.2601 125.028 35.4848V39.457C125.039 39.5898 124.977 39.7225 124.865 39.8042C124.742 39.8859 124.61 39.9268 124.457 39.9268C124.314 39.9268 124.181 39.8859 124.079 39.794C123.977 39.6919 123.915 39.5489 123.926 39.406C123.926 39.2936 123.926 39.0996 123.926 38.8341C123.926 38.5686 123.926 38.2112 123.926 37.7824C123.926 37.3535 123.926 36.9654 123.926 36.6183C123.926 36.2711 123.926 35.9749 123.926 35.7299V34.4228L123.476 34.8006L122.996 35.158L123.047 35.1784Z" fill="#343741"/>
<path d="M127.367 37.9556C127.234 37.9658 127.101 37.9148 127.01 37.8229C126.928 37.7208 126.877 37.5982 126.887 37.4655C126.887 37.1285 127.071 36.9651 127.428 36.9651H129.256C129.491 36.9345 129.716 37.0979 129.746 37.3429C129.746 37.3838 129.746 37.4144 129.746 37.4553C129.746 37.8025 129.542 37.9761 129.134 37.9761L127.367 37.9556Z" fill="#343741"/>
<path d="M134.301 33.0133C135.158 33.0133 135.985 33.3605 136.588 33.9732C137.231 34.6165 137.589 35.4947 137.558 36.4035C137.589 37.3225 137.282 38.2109 136.68 38.9053C136.088 39.5997 135.209 39.9877 134.301 39.9775C133.443 39.9775 132.626 39.6507 132.013 39.0483C131.349 38.4254 130.982 37.537 131.023 36.6179C130.982 35.6479 131.339 34.6982 132.013 33.9936C132.595 33.3503 133.433 32.9827 134.301 32.9929V33.0133ZM136.476 36.4239C136.486 35.7806 136.241 35.1577 135.781 34.6982C135.363 34.2591 134.791 34.0242 134.188 34.0242C133.616 34.0242 133.065 34.2897 132.718 34.7492C132.299 35.2496 132.085 35.8929 132.095 36.5465C132.064 37.1796 132.299 37.8025 132.738 38.2722C133.157 38.7113 133.729 38.9461 134.331 38.9359C134.934 38.9359 135.495 38.65 135.853 38.1701C136.271 37.6901 136.486 37.0672 136.476 36.4239Z" fill="#343741"/>
<path d="M140.407 39.2935C140.407 39.7019 140.233 39.9164 139.876 39.9164C139.518 39.9164 139.324 39.753 139.294 39.416V38.4868C139.294 38.0783 139.294 37.5473 139.294 36.9142V33.5751C139.294 33.4321 139.365 33.2993 139.488 33.2177C139.631 33.1258 139.794 33.0747 139.957 33.0849C140.09 33.0747 140.233 33.1258 140.335 33.2074C140.458 33.3198 140.57 33.4423 140.662 33.5853L143 36.8836L143.797 38.0272C143.797 37.6801 143.797 37.3329 143.797 36.9959C143.797 36.6589 143.797 36.3219 143.797 35.985V33.7793C143.777 33.5955 143.817 33.4117 143.909 33.2483C144.022 33.1155 144.195 33.0441 144.369 33.0645C144.726 33.0645 144.9 33.2789 144.9 33.7078V37.0674C144.9 37.4248 144.9 37.8026 144.9 38.1804C144.9 38.5582 144.9 38.9565 144.9 39.3752C144.9 39.5283 144.828 39.6713 144.706 39.7632C144.563 39.8653 144.399 39.9164 144.226 39.9164C144.103 39.9266 143.981 39.8857 143.879 39.8142C143.756 39.7019 143.644 39.5692 143.552 39.4364L140.356 34.8617C140.356 34.9638 140.356 35.3927 140.356 36.1177C140.376 36.8325 140.386 37.8945 140.407 39.2935Z" fill="#343741"/>
<path d="M146.932 37.9556C146.799 37.9658 146.667 37.9148 146.575 37.8229C146.493 37.7208 146.442 37.5982 146.452 37.4655C146.452 37.1285 146.636 36.9651 146.993 36.9651H148.801C149.036 36.9345 149.26 37.0979 149.291 37.3429C149.291 37.3838 149.291 37.4144 149.291 37.4553C149.291 37.8025 149.087 37.9761 148.678 37.9761H146.912L146.932 37.9556Z" fill="#343741"/>
<path d="M151.333 35.1784C151.231 35.2499 151.108 35.2806 150.986 35.2806C150.863 35.2703 150.751 35.2091 150.669 35.1172C150.577 35.0253 150.516 34.9027 150.516 34.77C150.526 34.576 150.628 34.3922 150.802 34.29L151.609 33.708L152.089 33.3608C152.242 33.2485 152.405 33.1668 152.579 33.1055C152.712 33.0443 152.865 33.0443 152.997 33.1055C153.191 33.1464 153.314 33.32 153.314 33.514V34.6577C153.314 34.9844 153.314 35.2601 153.314 35.4848V39.457C153.324 39.5898 153.263 39.7225 153.151 39.8042C153.028 39.8859 152.895 39.9268 152.742 39.9268C152.599 39.9268 152.466 39.8859 152.364 39.794C152.262 39.6919 152.201 39.5489 152.211 39.406C152.211 39.2936 152.211 39.0996 152.211 38.8341C152.211 38.5686 152.211 38.2112 152.211 37.7824C152.211 37.3535 152.211 36.9654 152.211 36.6183C152.211 36.2711 152.211 35.9749 152.211 35.7299V34.4228L151.762 34.8006L151.282 35.158L151.333 35.1784Z" fill="#343741"/>
</svg>
