<svg width="184" height="179" viewBox="0 0 184 179" fill="none" xmlns="http://www.w3.org/2000/svg">
<path d="M157.08 88.6C121.24 68 63.12 68 27.24 88.6C-8.60001 109.2 -8.60001 142.6 27.28 163.24C63.12 183.84 121.24 183.84 157.12 163.24C192.96 142.6 192.96 109.2 157.08 88.6Z" fill="#F5F5F5"/>
<path d="M133.64 136.08C142.698 136.08 150.04 131.836 150.04 126.6C150.04 121.364 142.698 117.12 133.64 117.12C124.583 117.12 117.24 121.364 117.24 126.6C117.24 131.836 124.583 136.08 133.64 136.08Z" fill="#E0E0E0"/>
<path d="M114.08 143.16C107.52 142.56 101.96 142.96 97.56 143.88C96.96 139.72 93.56 135.6 87.28 132.44C73.48 125.4 51.08 125.4 37.24 132.44C23.4 139.48 23.44 150.92 37.24 157.96C51.04 165 73.44 165 87.28 157.96C88.84 157.16 90.2 156.32 91.44 155.44C95.88 156.44 100.8 156.96 105.24 156.84C105.4 156.88 105.56 156.96 105.72 157C109.64 158.24 113.84 158.88 117.36 158.88C120.4 158.88 122.96 158.4 124.4 157.4C124.56 157.28 124.72 157.16 124.84 157.08C126.72 157.12 128.8 157.2 130.96 156.8C134.08 156.16 135.64 154.8 135.56 153.16C135.24 149 123.24 144 114.08 143.16ZM105.4 155.48C102.72 154.48 101.28 153.16 101.44 151.72C101.64 149.84 104.4 148.16 107.72 147.88C108.16 147.84 108.64 147.84 109.12 147.84C111.68 147.84 114.28 148.4 115.92 149.16C115.16 149.16 114.44 149.28 113.76 149.52C112.76 149.84 112.32 150.64 112.56 151.6C112.76 152.32 113.36 153.08 114.28 153.8C111.96 154.88 108.84 155.36 105.4 155.48ZM116.16 150.48C116.64 150.48 117.12 150.52 117.6 150.6C117.6 150.64 117.64 150.68 117.64 150.72C117.84 151.4 117.12 152.28 115.6 153.16C114.56 152.48 113.96 151.8 113.8 151.28C113.76 151.12 113.72 150.96 114.16 150.8C114.76 150.6 115.44 150.48 116.16 150.48ZM109 156.52C111.44 156.2 113.6 155.64 115.32 154.8C115.4 154.76 115.44 154.72 115.52 154.68C117.24 155.68 119.6 156.52 122.48 156.88C119.6 157.92 114.24 157.76 109 156.52ZM124.24 155.76C121.16 155.6 118.68 154.8 116.88 153.92C118.32 152.96 119 151.96 118.96 150.92C120.44 151.32 121.84 152 122.84 152.8C123.88 153.6 124.48 154.48 124.44 155.16C124.44 155.36 124.36 155.56 124.24 155.76ZM130.64 155.48C128.88 155.84 127.2 155.76 125.64 155.76C125.68 155.56 125.72 155.4 125.72 155.24C125.8 154.08 125.04 152.84 123.64 151.76C122.28 150.72 120.36 149.84 118.4 149.44C116.64 147.24 111.28 146.32 107.6 146.6C103.64 146.92 100.44 149.08 100.16 151.56C100.04 152.52 100.32 154.04 102.44 155.44C99.24 155.32 95.88 154.92 92.8 154.28C96.04 151.48 97.68 148.28 97.68 145.12C102 144.2 107.48 143.8 114 144.4C123.56 145.28 134.04 150.28 134.2 153.12C134.2 154.04 132.92 155.04 130.64 155.48Z" fill="#E0E0E0"/>
<path d="M47.88 8.67999L43.28 11.32C43.32 11.12 43.32 10.92 43.32 10.72V9.39999C43.32 7.03999 41.68 6.07999 39.6 7.27999C38.76 7.75999 38 8.51999 37.4 9.39999C37.08 6.43999 34.72 5.31999 31.92 6.95999C28.84 8.71999 26.36 13.04 26.36 16.56V18.56C26.36 19.48 26.52 20.24 26.84 20.88L23.04 23.08C21.92 23.72 21 25.32 21 26.64C21 27.96 21.92 28.48 23.04 27.84L47.88 13.52C49 12.88 49.92 11.28 49.92 9.95999C49.92 8.55999 49 8.03999 47.88 8.67999Z" fill="#EBEBEB"/>
<path d="M66.48 16.6L63.56 18.28C63.56 18.16 63.6 18 63.6 17.88V17.04C63.6 15.52 62.56 14.92 61.24 15.68C60.72 16 60.24 16.48 59.84 17.04C59.64 15.16 58.16 14.44 56.32 15.48C54.36 16.6 52.8 19.36 52.8 21.6V22.88C52.8 23.48 52.92 23.96 53.08 24.36L50.64 25.76C49.92 26.16 49.32 27.2 49.32 28.04C49.32 28.88 49.92 29.2 50.64 28.8L66.48 19.64C67.2 19.24 67.8 18.2 67.8 17.36C67.8 16.52 67.2 16.2 66.48 16.6Z" fill="#EBEBEB"/>
<path d="M131.08 125.12C130.68 120.6 131 115.88 131.92 111.12C133 105.6 136.16 101.12 139.96 99C141.28 98.28 144.04 97.48 145.84 99.12C147.56 100.68 146.64 103.16 144.56 105.72C140.44 110.76 136.36 115 135.24 121.6L134.76 126.52L131.08 125.12Z" fill="#E7664C"/>
<path opacity="0.2" d="M131.08 125.12C130.68 120.6 131 115.88 131.92 111.12C133 105.6 136.16 101.12 139.96 99C141.28 98.28 144.04 97.48 145.84 99.12C147.56 100.68 146.64 103.16 144.56 105.72C140.44 110.76 136.36 115 135.24 121.6L134.76 126.52L131.08 125.12Z" fill="black"/>
<path d="M132.36 124.52C132.24 124.52 132.16 124.44 132.16 124.32C132.16 117.92 133.52 112.36 136.32 107.36C138.16 104.04 140.4 101.64 143.2 100.04C143.28 100 143.44 100 143.48 100.12C143.52 100.2 143.52 100.36 143.4 100.4C140.68 102 138.48 104.36 136.68 107.56C133.92 112.48 132.6 117.96 132.6 124.32C132.56 124.4 132.48 124.52 132.36 124.52Z" fill="white"/>
<path d="M136.84 127.44C136.84 125.88 137.88 122.96 140.16 120.16C142.68 117.04 146.4 114.84 146.8 112.88C147.32 110.52 145.12 109.36 141.92 110.48C138.04 111.84 134.24 117.16 134.68 126.56L136.84 127.44Z" fill="#E7664C"/>
<path d="M135.92 126.04C136 126 136.04 125.96 136.04 125.88C136.52 117.56 141.32 113.28 143.88 112.16C143.96 112.12 144.04 112 144 111.92C143.96 111.84 143.84 111.76 143.76 111.8C140.92 113.04 136.16 117.36 135.68 125.88C135.68 126 135.76 126.08 135.88 126.08C135.88 126.04 135.88 126.04 135.92 126.04Z" fill="white"/>
<path d="M116.88 156.92C113.36 156.92 109.2 156.28 105.24 155.04C105.08 155 104.92 154.92 104.76 154.88C98.2 155.08 90.6 153.8 85.08 151.76L85.52 150.52C90.08 152.2 96.2 153.36 101.92 153.52C99.8 152.12 99.52 150.56 99.64 149.64C99.92 147.12 103.12 145 107.08 144.68C110.76 144.36 116.12 145.32 117.88 147.52C119.84 147.92 121.8 148.8 123.12 149.84C124.56 150.96 125.28 152.16 125.2 153.32C125.2 153.48 125.16 153.68 125.12 153.84C126.68 153.84 128.32 153.92 130.12 153.56C132.4 153.08 133.72 152.12 133.64 151.28C133.48 148.44 123 143.44 113.44 142.56C100.68 141.4 91.84 144.12 88.12 146.8L87.36 145.76C91.24 142.92 100.44 140.04 113.56 141.28C122.72 142.12 134.72 147.12 134.96 151.24C135.04 152.88 133.52 154.24 130.36 154.88C128.2 155.32 126.16 155.24 124.24 155.16C124.12 155.28 123.96 155.4 123.8 155.48C122.48 156.44 119.92 156.92 116.88 156.92ZM108.56 154.56C113.84 155.8 119.16 155.96 122.04 154.92C119.2 154.56 116.8 153.72 115.08 152.72C115 152.76 114.96 152.8 114.88 152.84C113.16 153.68 111 154.24 108.56 154.56ZM116.44 151.96C118.24 152.84 120.72 153.64 123.8 153.8C123.92 153.6 124 153.44 124 153.2C124.04 152.52 123.48 151.64 122.4 150.84C121.4 150.08 120 149.4 118.52 148.96C118.56 150 117.84 151 116.44 151.96ZM108.64 145.88C108.16 145.88 107.72 145.88 107.24 145.92C103.92 146.2 101.2 147.88 100.96 149.76C100.8 151.16 102.24 152.52 104.92 153.52C108.36 153.4 111.48 152.88 113.8 151.88C112.88 151.16 112.28 150.36 112.08 149.68C111.84 148.76 112.28 147.96 113.28 147.6C113.96 147.36 114.68 147.24 115.44 147.24C113.8 146.44 111.2 145.88 108.64 145.88ZM115.72 148.52C115 148.52 114.36 148.6 113.76 148.8C113.32 148.96 113.36 149.12 113.4 149.28C113.52 149.8 114.16 150.48 115.2 151.16C116.68 150.28 117.44 149.4 117.24 148.72C117.24 148.68 117.2 148.64 117.2 148.6C116.64 148.56 116.16 148.52 115.72 148.52Z" fill="#455A64"/>
<path d="M120.64 155.28C121.48 155.48 122.64 155.68 123.36 155.76C123.56 155.64 123.76 155.56 123.92 155.44C124.08 155.32 124.24 155.2 124.36 155.12C124.36 155.12 123.08 155.04 122.04 154.92C121.64 155.08 121.16 155.2 120.64 155.28Z" fill="#37474F"/>
<path d="M114.12 153.16C114.4 153.04 114.64 152.92 114.88 152.8C114.96 152.76 115 152.72 115.08 152.68C115.08 152.68 114.56 152.4 113.84 151.84C113.52 151.96 113.2 152.12 112.88 152.24C113.28 152.68 113.76 152.96 114.12 153.16Z" fill="#37474F"/>
<path d="M117.2 148.76C117.28 149 117.24 149.24 117.12 149.48C117.64 149.56 118.12 149.68 118.4 149.8C118.52 149.52 118.56 149.24 118.56 148.96C118.56 148.96 117.92 148.72 117.16 148.64C117.16 148.68 117.16 148.72 117.2 148.76Z" fill="#37474F"/>
<path d="M100.4 153.44C101 154.04 101.8 154.52 102.4 154.84C103.2 154.84 104 154.84 104.8 154.84C104.8 154.84 102.96 154.12 102 153.52C101.44 153.48 100.92 153.48 100.4 153.44Z" fill="#37474F"/>
<path d="M87.44 145.68L88.2 146.72C89.68 145.64 91.92 144.6 94.92 143.76C95.08 143.28 95.2 142.8 95.24 142.32C91.76 143.24 89.12 144.48 87.44 145.68Z" fill="#37474F"/>
<path d="M89.52 151.72C88.12 151.36 86.8 150.96 85.56 150.48L85.12 151.72C86.12 152.08 87.16 152.44 88.24 152.72C88.68 152.4 89.08 152.08 89.52 151.72Z" fill="#37474F"/>
<path d="M64.2 96.36C64.16 96.36 64.16 96.36 64.2 96.36C59.2 96.16 54.52 92.48 49.96 88.92C46.08 85.88 42.4 83 39.24 83C38.88 83 38.6 82.72 38.6 82.36C38.6 82 38.88 81.72 39.24 81.72C42.84 81.72 46.68 84.72 50.76 87.92C55.16 91.36 59.68 94.92 64.24 95.08C64.6 95.08 64.88 95.4 64.88 95.76C64.84 96.08 64.52 96.36 64.2 96.36Z" fill="#455A64"/>
<path d="M31.92 125.04C28.4 123.72 25.36 118.88 26.68 113.52C28.28 107.04 35.4 102.44 39.28 98.68C46.56 91.68 51 86.08 48.68 76.04C46.64 67.24 38.48 64.28 33.64 64.48C27.64 64.72 23.84 67.2 24.2 69.16C24.36 70.04 26 70.4 27.28 70.88C31.28 72.36 32.52 73.24 33.8 74.96C35.76 77.6 36.08 81 35.64 81.24C35.2 81.48 34.68 79.52 32 78.36C29.32 77.24 28.04 78.04 28.08 78.64C28.12 79.28 30.56 79.8 31.28 83.32C31.88 86.24 31.76 90.04 27.36 96.04C24.64 99.76 18.48 106.72 19.84 115.56C21.2 124.44 27.92 127.68 30.72 127.84L31.92 125.04Z" fill="#E7664C"/>
<path opacity="0.05" d="M31.92 125.04C28.4 123.72 25.36 118.88 26.68 113.52C28.28 107.04 35.4 102.44 39.28 98.68C46.56 91.68 51 86.08 48.68 76.04C46.64 67.24 38.48 64.28 33.64 64.48C27.64 64.72 23.84 67.2 24.2 69.16C24.36 70.04 26 70.4 27.28 70.88C31.28 72.36 32.52 73.24 33.8 74.96C35.76 77.6 36.08 81 35.64 81.24C35.2 81.48 34.68 79.52 32 78.36C29.32 77.24 28.04 78.04 28.08 78.64C28.12 79.28 30.56 79.8 31.28 83.32C31.88 86.24 31.76 90.04 27.36 96.04C24.64 99.76 18.48 106.72 19.84 115.56C21.2 124.44 27.92 127.68 30.72 127.84L31.92 125.04Z" fill="black"/>
<path opacity="0.15" d="M30.68 127.8L31.92 125.04C30.96 124.68 30.04 124.04 29.2 123.24C28.68 124.44 28.24 125.68 27.96 127.08C29.04 127.52 29.96 127.76 30.68 127.8Z" fill="black"/>
<path d="M42.16 74.76C42.72 74.4 42.52 73.56 42.24 73C41.52 71.44 40.64 70.16 39.4 68.96C40.28 69.12 41.12 69.44 42 69.68C43.24 70.04 44.04 70.6 44.2 70.16C44.28 69.96 44.24 69.44 44.16 69.12C43.96 68.28 43.72 67.96 43.44 67.72C40.28 65.24 36.4 64.32 33.6 64.44C27.6 64.68 23.8 67.16 24.16 69.12C24.32 70 25.96 70.36 27.24 70.84C31.24 72.32 32.48 73.2 33.76 74.92C33.76 74.96 35.2 75.64 35.84 76.04C36.12 76.24 36.48 76.44 36.8 76.44C36.96 76.44 37.12 76.44 37.24 76.32C37.68 76.04 37.6 75.36 37.44 74.84C37.12 73.84 36.72 72.88 36.24 71.96C37.8 72.32 39.24 73.08 40.4 74.12C40.96 74.6 41.64 75.12 42.16 74.76Z" fill="#455A64"/>
<path d="M61.68 122.68C62.2 129.64 64.48 133.96 69.2 137.96C73.96 141.96 80.68 144.36 83.64 145.68C86.6 146.96 88.84 148.56 91 146.72C93.16 144.88 92.96 140.96 96.8 137.8C100.64 134.68 101.96 133.8 102.04 131.52C102.16 128.52 99.28 128.6 98.4 129.04C98.4 129.04 97.64 127.76 95.52 128.24C93.72 128.64 92.88 130.16 92.88 130.16C92.88 130.16 91.56 130.08 90.16 131.4C88.92 132.56 86.48 135.68 86.48 135.68C86.48 135.68 89.08 131.6 87.92 127.28C86.88 123.36 84.4 122.28 84.4 122.28C84.4 122.28 85.48 121.72 88.36 122.24C88.36 122.24 87.12 118.88 81.88 117.6C76.64 116.32 73.12 120.08 73.12 120.08L61.68 122.68Z" fill="#E7664C"/>
<path opacity="0.15" d="M93.8 129.12C93.16 129.64 92.84 130.2 92.84 130.2C93.64 130.16 95.32 130.28 95.92 132.32C95.92 132.32 96.6 130 93.8 129.12Z" fill="black"/>
<path opacity="0.15" d="M98.88 131.48C98.88 131.48 99.96 130.88 99.32 128.88C98.92 128.92 98.6 129 98.36 129.12C99 129.72 99.08 130.88 98.88 131.48Z" fill="black"/>
<path d="M95.52 135.36C92.92 136 90.76 137.68 89.56 140.56C88.36 143.4 88.8 145.32 89.96 145.6C91.12 145.88 91.68 145.72 92.68 144.2C93.52 142.28 94.32 139.92 96.8 137.88C97.52 137.28 98.16 136.76 98.72 136.28C98.6 135.44 97.52 134.84 95.52 135.36Z" fill="#F28F8F"/>
<path d="M94.8799 132.64C94.12 132.32 93.28 134.16 94.2 134.52C94.96 134.8 95.9599 133.04 94.8799 132.64Z" fill="#FFA8A7"/>
<path d="M97.96 132C97.2 131.68 96.36 133.52 97.28 133.88C98 134.16 99 132.44 97.96 132Z" fill="#F28F8F"/>
<path d="M100.48 131.92C99.72 131.6 98.88 133.44 99.7999 133.8C100.52 134.12 101.52 132.36 100.48 131.92Z" fill="#F28F8F"/>
<path d="M53.44 104.84C53.04 107.04 44.68 109.16 38.96 113.48C33.24 117.8 28.16 123.72 29.08 133.92C30.08 145.12 40.16 149.24 45.48 149.24C50.8 149.24 68.96 147.84 78.24 134.6C87.48 121.4 74.96 104 53.44 104.84Z" fill="#E7664C"/>
<path opacity="0.15" d="M40.36 130.72C40.36 130.72 43.24 125.64 51.2 127.04C59.16 128.44 58.44 140.76 58.44 140.76C58.44 140.76 58.52 147.64 53.44 146.92C48.36 146.16 40.36 130.72 40.36 130.72Z" fill="black"/>
<path opacity="0.15" d="M53.44 104.84C53.4 105.08 53.28 105.28 53.08 105.52C52.76 109.6 54 114.88 58.68 116.36C63.76 117.96 69.52 117.04 73.36 115.68C74.48 115.28 75.76 114.72 77.04 114.04C72.28 108.36 63.92 104.44 53.44 104.84Z" fill="black"/>
<path d="M56.64 133.88C56.6 133.88 56.5599 133.88 56.5199 133.88C38.92 130.12 32.44 119 30.12 112.72C27.12 104.56 26.84 95.5999 29.48 90.4399C29.64 90.1199 30.04 89.9999 30.36 90.1599C30.68 90.3199 30.8 90.7199 30.64 91.0399C28.2 95.8799 28.48 104.44 31.36 112.28C33.56 118.32 39.84 128.96 56.7999 132.64C57.1599 132.72 57.3599 133.08 57.3199 133.4C57.1999 133.68 56.92 133.88 56.64 133.88Z" fill="#455A64"/>
<path d="M95.6 129.52C97.64 141.24 90 152.36 78.56 154.32C67.12 156.28 56.2 148.4 54.2 136.68C52.48 126.8 57.84 118.6 66.4 115.08C68 114.4 69.72 113.92 71.52 113.6C72.44 113.44 73.36 113.32 74.28 113.28C84.64 112.64 93.76 118.72 95.6 129.52Z" fill="#455A64"/>
<path opacity="0.15" d="M109.16 132.84C104.08 134.52 98.92 135.4 93.84 135.28C94.84 134.92 95.8 134.4 96.88 133.84C99.12 132.64 101.92 131.28 102.56 128.64C102.68 128.16 102.08 128.24 101.84 128.44C100.08 129.88 97.96 131.72 95.68 133.12C93.12 134.68 90.04 135.12 87.12 134.48C86.52 134.36 85.92 134.2 85.32 134.04C87.52 133.64 89.8 132.68 91.24 131.84C95.48 129.4 97.68 126 98.44 121.24C98.52 120.72 97.96 120.52 97.64 120.88C97 121.52 96.88 122.24 96.56 123.12C95.6 125.92 94.24 127.56 91.88 129.28C90.24 130.48 88.28 131.4 86.28 131.92C85.24 132.16 84.2 132.24 83.16 132.4C82.16 132.56 80.96 132.52 80 132.08C79.24 131.72 78.48 131.28 77.72 130.84C82.2 130.56 87.2 126.6 90.08 123.92C93.12 121.08 95.32 117.52 94.84 113.28C94.76 112.52 93.88 112.96 93.8 113.48C93.4 115.44 93.24 116.76 92.32 118.64C91.4 120.56 90.12 121.96 88.52 123.36C85.2 126.24 80.64 129.32 76.16 129.72C75.52 129.24 74.92 128.76 74.32 128.24C77.68 127 80.56 124.48 82.92 121.76C84.32 120.12 85.44 118.4 86.16 116.36C86.6 115.08 87.64 113 87.08 111.64C86.84 111 86.04 111.6 86 112.04C85.68 115.28 83.84 118.44 81.76 120.92C80.76 118.2 80.08 115.8 80.28 112.76C80.36 111.32 80.6 109.96 80.88 108.52C80.96 108.08 81.12 107.64 80.88 107.2C80.56 106.6 79.8 107.52 79.92 107.96C79.88 107.84 79.52 108.44 79.48 108.48C79.16 109.08 79.16 109.96 79.08 110.64C78.88 111.76 78.76 112.88 78.76 114C78.68 116.96 79.52 119.52 80.68 122.2C79.6 123.28 78.4 124.16 77.2 125C76.44 124.44 75.92 123 75.48 122.24C74.84 121.08 74.16 120 73.68 118.76C72.56 115.88 72.84 112.48 71.64 109.72C71.52 109.4 70.92 109.76 70.92 110.04C70.8 113.8 71.44 117.68 73.08 121.08C73.72 122.4 74.64 124.72 75.84 126.04C75.52 126.28 75.2 126.44 74.84 126.6C74.48 126.76 74.08 126.92 73.68 126.92C72.72 127 72.2 126.12 71.64 125.48C70.96 124.72 70.36 123.96 69.76 123.16C68.4 121.24 67.16 119 66.48 116.72C65.88 114.8 66.04 112.6 65.12 110.8C64.68 109.92 63.6 110.84 63.84 111.6C64.48 113.6 64.12 115.8 64.76 117.84C65.6 120.56 67.04 123.08 68.68 125.36C71.2 128.84 75.12 132.16 79 134.04C84.6 136.8 91.76 138.36 98.44 137.72C91.28 139.16 83.52 138.28 76.84 135.6C69.04 132.44 61.24 125.4 59.2 116.96C59.12 116.64 58.56 116.8 58.52 117.08C58.16 121.24 61.32 125.64 64.04 128.48C67.16 131.72 70.48 134.8 74.68 136.6C79.24 138.6 83.8 139.92 88.84 140.04C90.8 140.08 92.88 140.08 94.92 139.92C92.36 140.72 89.64 141.32 87.16 141.36C83.72 141.4 80.32 140.8 77 140.04C71.6 138.8 67.08 136.56 62.96 132.8C61.28 131.24 59.92 129.44 58.6 127.56C57.36 125.8 55.52 123.76 55.08 121.6C54.96 121.12 54.16 121.64 54.2 122C54.32 123.76 55.16 125.44 56.08 126.92C56.6 127.76 57.16 128.56 57.76 129.32C58.28 130.08 58.76 130.84 58.8 131.8C58.84 132.56 58.56 133.2 58.44 133.96C58.32 134.64 58.2 135.32 58.08 136C57.84 137.4 57.76 138.8 57.76 140.24C57.72 144.8 59.88 148.76 62.36 152.44C62.6 152.84 63.28 152.2 63.16 151.88C61.8 147.64 59.2 144.28 59.44 139.6C59.56 137.28 60.24 135.12 60.76 132.92C60.8 132.96 60.84 133.04 60.88 133.08C61.64 133.88 62.48 134.68 63.32 135.4C64 136 64.76 136.64 64.68 137.64C64.6 138.32 64.28 138.96 64.12 139.6C63.92 140.32 63.8 141.08 63.72 141.8C63.56 143.08 63.52 144.4 63.4 145.68C63.08 149.88 64.2 155.24 67.24 158.36C67.36 158.52 67.6 158.48 67.8 158.36C68.24 159.32 68.8 160.2 69.52 160.96C69.8 161.24 70.28 160.92 70.12 160.56C68.92 157.4 68.44 154.12 68.64 150.92C71.56 152.24 75.68 152 78.44 151.16C80.6 150.48 82.6 149.64 84.44 148.36C86.56 146.88 88.24 145.36 89.6 143.28C93.12 143 96.08 141.88 99.16 140.04C99.4 139.88 99.52 139.52 99.52 139.2C100.28 138.96 101.04 138.68 101.76 138.36C102.12 138.2 102.28 137.52 102.08 137.2C104.72 136.56 107.24 135.52 109.44 133.96C109.76 133.64 109.92 132.6 109.16 132.84ZM70.2 144C70.36 143.64 70.52 143.28 70.72 142.92C71.08 142.2 71.52 141.48 71.96 140.8C72 140.76 72 140.72 72.04 140.68C72.8 140.96 73.56 141.2 74.32 141.44C75.92 141.88 77.56 142.28 79.28 142.56C79.16 142.56 78.64 143.04 78.52 143.12C78.24 143.32 78 143.48 77.72 143.68C77.2 144 76.64 144.32 76.04 144.56C74.92 145.04 73.72 145.36 72.52 145.36C71.92 145.36 71.32 145.2 70.76 145.04C70.36 144.88 70 144.52 70.2 144ZM66.68 149.8C66.52 151.44 66.48 153.16 66.68 154.84C65.6 151.88 64.84 148.88 65.04 145.68C65.2 143.04 65.68 140.4 66.4 137.84C66.4 137.96 68.04 138.8 68.2 138.92C68.64 139.16 69.76 139.48 69.96 140C70 140.12 70 140.2 69.96 140.32C69.88 140.56 69.76 140.76 69.64 140.96C67.88 143.64 67.04 146.6 66.68 149.8ZM84.12 146.36C82.52 147.56 80.8 148.4 78.88 149.04C76 150 71.72 150.44 68.72 149.04C68.84 148.16 69.04 147.32 69.28 146.44C70.76 147.16 72.96 147.08 74.28 146.84C76.68 146.4 79.92 145.04 81.24 142.88C83.32 143.16 85.64 143.32 87.72 143.24C86.72 144.36 85.36 145.44 84.12 146.36Z" fill="black"/>
<g opacity="0.15">
<path opacity="0.15" d="M58.32 137.72C56.56 132.72 54 133.08 54 133.08C54 133.08 55.04 132.48 57.96 132.84C57.96 132.84 57.16 130.64 54.24 129.36C53.8 131.64 53.76 134.12 54.2 136.68C54.72 139.76 55.88 142.6 57.52 145.04C58.32 143.4 59.32 140.52 58.32 137.72Z" fill="black"/>
<path opacity="0.15" d="M64.48 151.68C65.04 150.44 65.84 149.16 67.16 147.92C70.8 144.6 72.12 143.64 72.08 141.36C72.04 138.36 69.16 138.6 68.32 139.08C68.32 139.08 67.52 137.84 65.4 138.44C63.64 138.92 62.88 140.48 62.88 140.48C62.88 140.48 61.44 140.32 59.96 141.92C59.28 142.68 58.28 144.08 57.6 145.08C59.4 147.84 61.76 150.08 64.48 151.68Z" fill="black"/>
</g>
<path d="M94.84 120.64C94.76 118.88 93.68 116.48 92.32 114.52C90 111.24 86.64 109.2 83.28 108.12L74.6 113.52C83.84 113.2 87.04 118.08 87.92 120.8C88.52 122.68 89 124.12 90.12 124.12C91.2 124.12 91.32 123.2 91.32 123.2C92.08 123.92 93.2 123.48 93.24 122.56C93.64 122.76 94.08 122.68 94.4 122.36C94.84 121.88 94.88 121.28 94.84 120.64Z" fill="#E7664C"/>
<path opacity="0.15" d="M83.28 108.08L74.6 113.52C75.8 113.48 76.88 113.52 77.88 113.64C80.2 112.4 82.6 110.68 84.52 108.56C84.12 108.4 83.72 108.24 83.28 108.08Z" fill="black"/>
<path opacity="0.15" d="M94.3999 122.36C94.3999 122.32 94.3999 122.32 94.3999 122.36C94.0399 122.48 93.7199 122.32 93.5199 121.84C93.2399 121.12 93.1199 120.8 92.9599 120.64C92.9599 120.64 93.2799 121.76 93.1999 122.56C93.6399 122.72 94.0799 122.68 94.3999 122.36Z" fill="black"/>
<path opacity="0.15" d="M92.56 123.48C92.12 123.48 91.76 123.16 91.6 122.6C91.36 121.84 91.24 121.64 91.08 121.48C91.08 121.48 91.36 122.4 91.28 123.2C91.68 123.56 92.16 123.6 92.56 123.48Z" fill="black"/>
<path d="M29.04 133.92C29.92 140.84 32.4 145.04 37.36 148.8C42.32 152.56 49.16 154.6 52.2 155.72C55.24 156.84 57.52 158.32 59.6 156.4C61.64 154.48 61.24 150.52 64.92 147.2C68.56 143.88 69.88 142.92 69.84 140.64C69.8 137.64 66.92 137.88 66.08 138.36C66.08 138.36 65.28 137.12 63.16 137.72C61.4 138.2 60.64 139.76 60.64 139.76C60.64 139.76 59.2 139.6 57.72 141.2C56.56 142.44 54.52 145.6 54.52 145.6C54.52 145.6 57.56 141.2 56.08 137C54.32 132 51.76 132.36 51.76 132.36C51.76 132.36 52.8 131.76 55.72 132.12C55.72 132.12 54.36 128.52 49 127.8C43.68 127.08 40.4 130.72 40.4 130.72L29.04 133.92Z" fill="#E7664C"/>
<path opacity="0.15" d="M61.48 138.64C60.88 139.2 60.6 139.76 60.6 139.76C61.76 139.76 63.12 139.84 63.84 141.92C63.84 141.92 64.76 139.6 61.48 138.64Z" fill="black"/>
<path opacity="0.15" d="M66.68 140.72C66.68 140.72 67.72 140.04 67 138.08C66.6 138.12 66.28 138.24 66.04 138.36C66.72 139 66.84 140.16 66.68 140.72Z" fill="black"/>
<path d="M63.48 144.8C60.92 145.56 58.84 147.36 57.8 150.28C56.76 153.2 57.28 155.08 58.44 155.32C59.6 155.56 60.16 155.36 61.08 153.76C61.8 151.8 62.48 149.4 64.84 147.2C65.56 146.56 66.16 146 66.68 145.52C66.6 144.72 65.48 144.2 63.48 144.8Z" fill="#F28F8F"/>
<path d="M62.56 142.32C61.76 142.04 61.04 143.92 61.96 144.24C62.72 144.48 63.6 142.68 62.56 142.32Z" fill="#F28F8F"/>
<path d="M65.76 141.32C64.96 141.04 64.24 142.92 65.16 143.24C65.92 143.48 66.84 141.68 65.76 141.32Z" fill="#F28F8F"/>
<path d="M68.28 141.12C67.48 140.84 66.76 142.72 67.68 143.04C68.44 143.28 69.36 141.48 68.28 141.12Z" fill="#F28F8F"/>
<path opacity="0.05" d="M57.24 156.4C52.48 155.36 53.12 152.84 51 151.28C48.88 149.76 44.16 150.32 36.56 144.12C28.96 137.92 28.64 124.44 33.48 118.56C30.44 122.32 28.44 127.16 29.04 133.88C29.12 135 29.32 136.04 29.6 137.04C30.8 142.16 33.2 145.6 37.36 148.76C42.32 152.52 49.16 154.56 52.2 155.68C55.24 156.8 57.52 158.28 59.6 156.36C59.76 156.2 59.92 156.04 60.04 155.84C59.24 156.44 58.28 156.64 57.24 156.4Z" fill="black"/>
<path opacity="0.15" d="M75.16 123.16C72.68 119.76 70.72 118.16 67.72 116.48V114.52C67.28 114.68 66.8 114.84 66.4 115.04C62.12 116.8 58.64 119.76 56.44 123.52C65.6 122.84 69.68 127.48 70.72 130.16C71.44 132.04 72.04 133.48 73.16 133.44C74.24 133.36 74.32 132.4 74.32 132.4C75.12 133.08 76.28 132.6 76.28 131.64C76.72 131.8 77.16 131.72 77.44 131.36C77.84 130.88 77.88 130.24 77.8 129.6C77.6 127.8 76.6 125.16 75.16 123.16Z" fill="black"/>
<path d="M78.16 128.28C78 126.48 77 123.84 75.56 121.84C73.08 118.44 71.12 116.84 68.12 115.16V112.8C68.12 112.8 57.28 115 57.08 122.2C66.52 121.32 70.08 126.12 71.08 128.84C71.8 130.72 72.4 132.16 73.52 132.12C74.6 132.04 74.68 131.08 74.68 131.08C75.48 131.76 76.64 131.28 76.64 130.32C77.08 130.48 77.52 130.4 77.8 130.04C78.2 129.52 78.24 128.92 78.16 128.28Z" fill="#E7664C"/>
<path opacity="0.15" d="M77.8 130.04C77.8 130.04 77.8 130 77.8 130.04C77.44 130.16 77.12 130.04 76.88 129.56C76.52 128.84 76.44 128.52 76.24 128.36C76.24 128.36 76.64 129.48 76.6 130.28C77.04 130.48 77.48 130.4 77.8 130.04Z" fill="black"/>
<path opacity="0.15" d="M76 131.28C75.56 131.28 75.16 131 75 130.44C74.72 129.68 74.56 129.48 74.4 129.32C74.4 129.32 74.72 130.24 74.68 131.08C75.12 131.44 75.6 131.48 76 131.28Z" fill="black"/>
<path opacity="0.15" d="M59.88 116.68C63.44 117.48 67.16 117.24 70.32 116.52C69.64 116.04 68.92 115.6 68.12 115.16V112.8C68.12 112.8 63.16 113.8 59.88 116.68Z" fill="black"/>
<path d="M70.44 89.0799C71.52 85.6399 76.32 81.2399 80.32 82.5199C82.6 83.2399 81.68 91.5999 81.68 91.5999C81.68 91.5999 74.36 92.1599 70.44 89.0799Z" fill="#E7664C"/>
<path opacity="0.15" d="M70.44 89.0799C71.52 85.6399 76.32 81.2399 80.32 82.5199C82.6 83.2399 81.68 91.5999 81.68 91.5999C81.68 91.5999 74.36 92.1599 70.44 89.0799Z" fill="black"/>
<path d="M73.8801 90.7999C77.6001 91.9199 81.7201 91.5999 81.7201 91.5999C81.7201 91.5999 82.64 83.2399 80.3601 82.5199C78.8801 82.3199 75.3201 84.5599 73.8801 90.7999Z" fill="#FFA8A7"/>
<path d="M78.6401 87.7198C78.2801 86.7998 78.9601 85.5999 78.9601 85.5999C77.6001 85.5999 75.8401 86.9999 75.6801 89.2398C75.6801 89.2398 78.4401 92.5598 81.28 90.7998C81.4 90.2398 81.64 89.7999 81.88 89.4799C81.92 88.9199 81.9201 88.2398 81.9201 87.5998C80.4001 87.2399 78.6401 87.7198 78.6401 87.7198Z" fill="#F28F8F"/>
<path d="M61.08 92.3998C58.08 90.3998 51.6 89.9599 49.28 93.4399C47.96 95.3998 53.88 101.36 53.88 101.36C53.88 101.36 59.96 97.2398 61.08 92.3998Z" fill="#E7664C"/>
<path opacity="0.15" d="M61.08 92.3998C58.08 90.3998 51.6 89.9599 49.28 93.4399C47.96 95.3998 53.88 101.36 53.88 101.36C53.88 101.36 59.96 97.2398 61.08 92.3998Z" fill="black"/>
<path d="M59.44 95.8398C57.24 99.0398 53.84 101.36 53.84 101.36C53.84 101.36 47.88 95.3998 49.24 93.4398C50.28 92.3598 54.44 91.8798 59.44 95.8398Z" fill="#FFA8A7"/>
<path d="M52.4 94.8399C52.4 94.8399 53.68 95.3599 53.96 96.3199C53.96 96.3199 52.12 97.1199 51.2 98.3999C51.56 98.8399 51.88 99.2399 52.2 99.6399C52.68 99.7199 53.24 99.9199 53.8 100.36C57.12 99.9599 57 95.8799 57 95.8799C55.88 94.1999 53.48 93.9999 52.4 94.8399Z" fill="#F28F8F"/>
<path d="M73.76 113.84C69.92 115.2 64.16 116.12 59.08 114.52C53.04 112.64 52.68 104.32 54.16 100.48C55.64 96.6399 58.68 92.7599 65.6 90.3199C72.52 87.8799 77.36 89.0399 80.88 91.0799C84.44 93.1599 89.4 99.8399 85.84 105.12C82.88 109.52 77.6 112.48 73.76 113.84Z" fill="#E7664C"/>
<path d="M73.72 112.96C81.4 110.24 81 105.76 79.04 103.96C77.08 102.16 73.88 101.76 70.2 103.04C66.52 104.32 64.28 106.68 63.88 109.28C63.52 111.92 66.04 115.68 73.72 112.96Z" fill="#F0F0F0"/>
<path d="M71.64 109.76C71.64 109.76 71.96 111.04 72.92 110.72C73.92 110.4 73.32 109.16 73.32 109.16L72.12 108.28L71.64 109.76Z" fill="#F28F8F"/>
<path d="M71.56 106.88L69.76 106.68C69.64 106.68 69.52 106.56 69.56 106.4C69.6 106.24 69.68 106.16 69.84 106.2L71.4 106.36L72.56 105.24C72.64 105.16 72.8 105.16 72.92 105.24C73 105.32 73 105.48 72.92 105.6L71.56 106.88Z" fill="#455A64"/>
<path d="M70.28 110.6C69.96 110.6 69.68 110.52 69.4 110.4C68.92 110.16 68.52 109.76 68.36 109.24C68.32 109.12 68.4 108.96 68.52 108.92C68.64 108.88 68.8 108.96 68.84 109.08C68.96 109.48 69.24 109.8 69.64 109.96C70 110.12 70.44 110.16 70.84 110.04C71.24 109.92 71.56 109.64 71.72 109.24C71.88 108.88 71.92 108.44 71.8 108.04L71.32 106.68C71.28 106.56 71.36 106.4 71.48 106.36C71.6 106.32 71.76 106.4 71.8 106.52L72.28 107.88C72.48 108.4 72.44 108.96 72.2 109.44C71.96 109.92 71.56 110.32 71.04 110.48C70.72 110.56 70.48 110.6 70.28 110.6Z" fill="#455A64"/>
<path d="M73.64 109.4C73.32 109.4 73.04 109.32 72.76 109.2C72.28 108.96 71.88 108.56 71.72 108.04L71.24 106.68C71.2 106.56 71.28 106.4 71.4 106.36C71.52 106.32 71.68 106.4 71.72 106.52L72.2 107.88C72.32 108.28 72.6 108.6 73 108.76C73.36 108.92 73.8 108.96 74.2 108.84C75 108.56 75.44 107.68 75.16 106.88C75.12 106.76 75.2 106.6 75.32 106.56C75.44 106.52 75.6 106.6 75.64 106.72C76 107.8 75.44 108.96 74.4 109.32C74.12 109.36 73.88 109.4 73.64 109.4Z" fill="#455A64"/>
<path d="M79.04 99.0399C79.36 99.9599 78.88 101 77.96 101.32C77.04 101.64 76 101.16 75.68 100.24C75.36 99.3199 75.84 98.2799 76.76 97.9599C77.68 97.5999 78.68 98.0799 79.04 99.0399Z" fill="#455A64"/>
<path d="M60.88 105.44C61.2 106.36 62.24 106.88 63.16 106.52C64.08 106.2 64.6 105.16 64.24 104.24C63.92 103.32 62.88 102.8 61.96 103.16C61.04 103.48 60.52 104.48 60.88 105.44Z" fill="#455A64"/>
<path d="M55.64 105.72C55.56 105.72 55.44 105.68 55.36 105.6C54 104.2 51.68 102.76 48.48 103.88C48.28 103.96 48.08 103.84 48 103.64C47.92 103.44 48.04 103.24 48.24 103.16C51.84 101.92 54.4 103.48 55.92 105.04C56.08 105.2 56.08 105.44 55.92 105.56C55.84 105.68 55.72 105.72 55.64 105.72Z" fill="#455A64"/>
<path d="M54.8 106.68C54.72 106.68 54.68 106.68 54.6 106.64C53.36 105.88 51.12 105.88 49.92 106.4C49.72 106.48 49.52 106.4 49.44 106.2C49.36 106 49.44 105.8 49.64 105.72C51 105.12 53.52 105.12 55 106.04C55.16 106.16 55.24 106.36 55.12 106.56C55.08 106.6 54.96 106.68 54.8 106.68Z" fill="#455A64"/>
<path d="M49.04 109.8C48.92 109.8 48.84 109.76 48.76 109.68C48.64 109.52 48.64 109.28 48.8 109.16C51 107.28 53.88 106.96 55.6 107.4C55.8 107.44 55.92 107.64 55.88 107.84C55.84 108.04 55.6 108.16 55.44 108.12C53.88 107.72 51.32 108.04 49.32 109.72C49.2 109.76 49.12 109.8 49.04 109.8Z" fill="#455A64"/>
<path d="M82.8 96.1599C82.76 96.1599 82.76 96.1599 82.8 96.1599C82.56 96.1199 82.4 95.9599 82.44 95.7599C82.64 93.5999 83.64 90.7599 87.24 89.4799C87.44 89.3999 87.64 89.5199 87.72 89.7199C87.8 89.9199 87.68 90.1199 87.48 90.1999C84.28 91.3599 83.36 93.9199 83.16 95.8399C83.12 96.0399 82.96 96.1599 82.8 96.1599Z" fill="#455A64"/>
<path d="M84 96.3599C83.96 96.3599 83.92 96.3599 83.88 96.3199C83.68 96.2399 83.6 96.0399 83.64 95.8399C84.2 94.1999 86.2 92.6399 87.6 92.2399C87.8 92.1999 88 92.3199 88.04 92.4799C88.08 92.6799 87.96 92.8799 87.8 92.9199C86.56 93.2799 84.8 94.6799 84.32 96.0399C84.32 96.2799 84.16 96.3599 84 96.3599Z" fill="#455A64"/>
<path d="M84.4 97.9598C84.32 97.9598 84.24 97.9198 84.2 97.8798C84.04 97.7598 84 97.5198 84.12 97.3598C85.16 95.9198 87.6 94.3999 90.52 94.4399C90.72 94.4399 90.88 94.5999 90.88 94.8399C90.88 95.0399 90.72 95.1999 90.52 95.1999C87.88 95.1599 85.68 96.5198 84.76 97.7998C84.6 97.9198 84.52 97.9598 84.4 97.9598Z" fill="#455A64"/>
<path d="M76.32 89.2799C76.64 87.7999 78.04 86.3999 79.36 86.3999C79.36 86.3999 78.68 87.5999 79.04 88.5199C79.04 88.5199 82.48 87.5999 83.76 89.1999C83.76 89.1999 82.2 89.4799 81.68 91.5999C78.88 93.3599 76.32 89.2799 76.32 89.2799Z" fill="#E7664C"/>
<path d="M56.6 96.1999C55.44 95.2399 53.48 94.9999 52.4 95.8799C52.4 95.8799 53.68 96.3999 53.96 97.3599C53.96 97.3599 50.68 98.7999 50.72 100.84C50.72 100.84 52.12 100.08 53.84 101.4C57.16 101 56.6 96.1999 56.6 96.1999Z" fill="#E7664C"/>
<path d="M68.72 89.3999C68.24 89.5199 68.2 88.6399 68.44 87.5599C68.64 86.5599 69.44 84.5999 68.04 84.6399C66.68 84.6799 65.16 85.9199 64.56 88.2799C64.56 88.2799 63.92 87.4799 63.72 86.5999C63.52 85.7199 62.4 85.6399 61.88 87.3999C61.52 88.7599 62.16 90.1199 62.52 90.6799C62.72 90.9999 62.64 91.5199 61.96 91.8799C61.96 91.8799 64.84 92.8799 66.8 91.8799C68.76 90.8799 68.72 89.3999 68.72 89.3999Z" fill="#E7664C"/>
<path d="M65.32 97C65.8 96.96 66.16 96.52 66.12 96.04C65.96 94.28 65.2 92.6 63.92 90.96C63.36 91.2 62.8 91.44 62.28 91.72C63.52 93.2 64.24 94.68 64.4 96.2C64.44 96.64 64.84 97 65.28 97C65.24 97 65.28 97 65.32 97Z" fill="#455A64"/>
<path d="M70.6 93.9999C70.68 94.3999 71.04 94.7199 71.44 94.7199C71.48 94.7199 71.56 94.7199 71.6 94.7199C72.08 94.6399 72.4 94.1599 72.28 93.6799C71.96 92.0799 71.16 90.5599 69.88 89.1599C69.24 89.2799 68.56 89.3999 67.84 89.5999C69.36 90.9999 70.28 92.4799 70.6 93.9999Z" fill="#455A64"/>
<path d="M65.04 90.5199C65.96 91.5199 67.4 93.4799 67.76 95.8399C67.84 96.2799 68.2 96.5999 68.64 96.5999C68.68 96.5999 68.72 96.5999 68.76 96.5999C69.24 96.5199 69.56 96.0799 69.48 95.5999C69.12 93.1999 67.84 91.1999 66.8 89.9199C66.4 90.0399 66 90.1599 65.56 90.3199C65.4 90.3599 65.24 90.4399 65.04 90.5199Z" fill="#455A64"/>
<path d="M33.52 146.84C33.48 146.84 33.48 146.84 33.44 146.84C33.08 146.8 32.8 146.48 32.84 146.12C33.12 143.36 35.8 138.6 42.2 136.68C48.4 134.84 54.88 136.92 57.56 140C57.8 140.28 57.76 140.68 57.48 140.92C57.2 141.16 56.8 141.12 56.56 140.84C54.56 138.56 48.76 136.04 42.56 137.92C36.8 139.64 34.36 143.84 34.12 146.24C34.16 146.6 33.84 146.84 33.52 146.84Z" fill="#455A64"/>
<path d="M39.92 151.84C39.56 151.84 39.28 151.56 39.28 151.2C39.28 149.88 40.28 145.28 43.6 142.44C48.76 138 54.72 139.72 56.6 140.72C56.92 140.88 57.04 141.28 56.84 141.6C56.68 141.92 56.28 142.04 55.96 141.84C54.32 140.92 49.04 139.44 44.44 143.4C41.48 145.92 40.56 150.04 40.56 151.16C40.6 151.56 40.28 151.84 39.92 151.84Z" fill="#455A64"/>
<path d="M31.56 85.76C29.64 90.32 31.4 100 35.36 105.96C39.64 112.4 48.32 120.52 58.04 124.12C58.36 124.24 58.56 124.64 58.44 124.96C58.36 125.24 58.08 125.4 57.84 125.4C57.76 125.4 57.68 125.4 57.6 125.36C47.6 121.64 38.68 113.32 34.28 106.72C29.84 100.04 28.08 89.28 30.72 84.56C30.96 84.16 31.16 83.84 31.36 83.6C31.48 84.32 31.56 85.04 31.56 85.76Z" fill="#455A64"/>
<path d="M133 14.28L137 11.96V127.6L133 129.92V14.28Z" fill="#37474F"/>
<path d="M127 126.44L133 129.92V14.28L131.56 13.44L131.08 18.44L130.56 12.84L127 10.8V126.44Z" fill="#455A64"/>
<path opacity="0.1" d="M133 92.64V78.4C132.76 72.84 132.48 65.6 132.56 62.44L131.16 61.64C131.16 66.48 130.6 75.4 130.32 81.4C129.92 89.92 131.44 100.92 131.48 105.36C131.56 109.8 131.48 129.04 131.48 129.04L132.16 129.44C132.16 129.44 131.96 105.24 132.52 98.8C132.76 96.56 132.88 94.48 133 92.64ZM131.64 95.68C130.72 95.28 130.96 73.76 131.88 74.08C132.64 74.36 132.56 96.08 131.64 95.68Z" fill="black"/>
<path d="M131.56 13.4401L130.56 12.8401L131.08 18.4401L131.56 13.4401Z" fill="#263238"/>
<path opacity="0.05" d="M128.92 11.92C128.84 18.12 130.04 22.28 130.04 30.88C130.04 30.88 129.92 24.8 129.08 20.28C128.16 15.24 128.16 11.48 128.16 11.48L128.92 11.92Z" fill="white"/>
<path opacity="0.05" d="M133 14.28C133 16.32 132.92 20.96 132.64 23.84C132.4 26.32 132.36 31.68 132.56 35.8C132.56 35.8 131.84 29.04 132.08 25.04C132.32 21.04 132.32 13.88 132.32 13.88L133 14.28Z" fill="white"/>
<path opacity="0.1" d="M127 33.8V41.2C127.64 37.28 128.64 33.16 128.8 31.4C129.08 28.76 128.64 23.96 128.16 21.2C127.72 18.48 126.96 13.88 127.08 10.84L126.96 10.76V18.12C126.96 18.28 127 18.44 127 18.6C127.48 22.24 127.76 27.64 127.56 30.04C127.56 31.2 127.28 32.6 127 33.8Z" fill="black"/>
<path opacity="0.05" d="M129.36 86.6C129.24 89.32 130.4 99.48 130.64 102.64C131.08 108.88 130.88 128.64 130.88 128.64L130.08 128.16C130.08 128.16 130.16 105.84 130.08 103.24C129.92 99.68 129 89.76 129.36 86.6Z" fill="white"/>
<path opacity="0.1" d="M130.04 61.1999C130.04 66.1599 129.88 75.5199 129.24 79.4799C128.6 83.4399 128.12 89.8799 128.84 97.16C129.6 104.44 129.08 110.36 129.08 110.36C129.08 110.36 128.84 102.72 128.16 96.48C127.48 90.24 127.6 83.84 128.16 77.84C128.72 71.8 128.88 60.3199 128.88 60.3199L130.04 61.1999Z" fill="black"/>
<path opacity="0.05" d="M127.96 59.9599C127.96 59.9599 127.88 67.7999 127.72 70.3999C127.56 72.9999 127.2 78.0799 127.2 78.0799C127.2 78.0799 127.08 69.7199 127.2 67.0399C127.32 64.3599 127.16 59.3199 127.16 59.3199L127.96 59.9599Z" fill="white"/>
<path opacity="0.05" d="M127.96 103.32C128.4 107.52 128.48 112.44 128.6 114.28C128.72 116.12 128.92 127.52 128.92 127.52L128 127C128 127 127.92 115.2 127.88 112.56C127.8 109.12 128.12 105.56 127.96 103.32Z" fill="white"/>
<path opacity="0.1" d="M130.04 13.72C130.24 16.96 131 20.12 131.24 22.4C131.44 24.68 131.64 31.76 131.64 31.76L130.84 31.32C130.84 31.32 131 24.84 130.6 21.68C130.2 18.56 129.92 15.8 130.04 13.72Z" fill="black"/>
<path d="M137 11.96L131 8.47998L127 10.8L133 14.28L137 11.96Z" fill="#263238"/>
<path opacity="0.15" d="M137 77.88L133 80.2V85.8L137 83.48V77.88Z" fill="black"/>
<path opacity="0.15" d="M133 80.2L127 76.72V82.32L133 85.8V80.2Z" fill="black"/>
<path d="M94.1199 40.52L168.2 83.28L172.52 80.8L98.3999 38.04L94.1199 40.52Z" fill="#263238"/>
<path d="M90.64 37.6L165.2 80.64V63.4L158.6 59.6L157.88 64.64L157.44 58.96L90.64 20.36V31.52L92.76 33.64L90.64 33.04V37.6Z" fill="#455A64"/>
<path opacity="0.05" d="M165.2 77.8C161.32 75.56 145 66.36 143.12 65.44C137.64 62.84 132.96 60.76 125.64 56.6C125.64 56.6 129.04 59.04 136.36 62.8C139.8 64.56 142.92 66.08 144.6 66.92C146.24 67.76 165.24 78.68 165.24 78.68V77.8H165.2Z" fill="white"/>
<path opacity="0.1" d="M90.64 24.08C90.64 24.08 93.4 25.68 97 27.76C102.72 31.04 106.52 33.44 109 35.72C111.48 38 116.28 40.88 118.44 42.04C118.44 42.04 115.92 41.12 111.16 38.2C106.44 35.28 105.56 33.72 98.84 29.84C92.12 25.96 90.64 25.12 90.64 25.12V24.08Z" fill="black"/>
<path opacity="0.1" d="M165.2 75.72C161.12 73.36 147.48 65.52 145.32 64.24C143.16 63 138.08 62 135.28 60.4C135.28 60.4 137.36 61.92 140.2 63C143.04 64.08 162.52 75.08 165.2 76.64V75.72Z" fill="black"/>
<path opacity="0.05" d="M92.76 33.64C92.76 33.64 107.44 42.12 111.76 44.64C116.08 47.12 123.24 52.12 129.28 55.4C135.32 58.68 139.76 60.56 139.76 60.56C139.76 60.56 134 58.92 129.2 56.16C124.44 53.4 115.76 47.96 110.52 44.92C105.28 41.88 90.64 33.44 90.64 33.44V33.04L92.76 33.64Z" fill="white"/>
<path opacity="0.05" d="M165.2 69.56C161.2 67.24 147.96 59.6 144.8 57.76C141.64 55.92 136.8 52.56 131.44 49.44C126.08 46.32 121.64 44.4 118.28 43.08C114.92 41.76 111.2 39.64 111.2 39.64C111.2 39.64 114.76 42.12 120.08 44.56C125.4 46.96 131.8 50.32 137.44 54.32C143.12 58.36 165.24 70.64 165.24 70.64V69.56H165.2Z" fill="white"/>
<path opacity="0.05" d="M90.64 21.76C90.64 21.76 114.6 35.36 120.6 38.8C126.6 42.28 134.44 47.08 134.44 47.08C134.44 47.08 121.76 40.32 109.08 33C96.4 25.68 90.6 22.32 90.6 22.32L90.64 21.76Z" fill="white"/>
<path opacity="0.1" d="M165.2 66.32C165.2 66.32 137.52 50.32 129.72 45.8C121.92 41.28 113.2 37.12 113.2 37.12C113.2 37.12 119.68 41.4 129.28 46.96C132.12 48.6 165.2 67.72 165.2 67.72V66.32Z" fill="black"/>
<path opacity="0.1" d="M90.64 34.92C90.64 34.92 107.68 44.8 112.08 47.32C116.48 49.88 127.88 56.8 130.6 58.56C130.6 58.56 119.36 52.64 104.44 44L90.64 36V34.92Z" fill="black"/>
<path opacity="0.1" d="M90.64 31C90.64 31 104.52 39.04 108.72 41.44C112.92 43.88 122.72 50.48 127.04 52.96C131.36 55.44 159.8 70.92 165.2 74.08V72.88C161.84 70.92 134.6 53.24 128.08 49.48C121.56 45.72 114.92 43.84 110.84 41.48C106.8 39.12 90.6 29.76 90.6 29.76L90.64 31ZM118.76 46.4C118.76 45.8 124.32 48.32 128.12 50.52C131.48 52.48 138.16 56.96 138.16 57.52C138.16 58.08 131.64 54.56 128.12 52.56C124.6 50.52 118.76 47 118.76 46.4Z" fill="black"/>
<path opacity="0.05" d="M90.64 26.36C93.28 27.88 101.44 32.52 103.72 34.24C106 36 108.36 38.8 112.76 41.36C112.76 41.36 108.2 39.48 105.6 37C103 34.52 90.6 27.6 90.6 27.6L90.64 26.36Z" fill="white"/>
<path opacity="0.2" d="M98.44 24.88L157.48 59.68L157.88 61.28L158.52 60.28L164.44 63.96L165.2 80.64V63.4L158.6 59.6L158 59.28L157.44 58.96L98.44 24.88Z" fill="white"/>
<path d="M169.48 78.16L165.2 80.64V63.4L169.48 60.88V78.16Z" fill="#37474F"/>
<path d="M158.6 59.6L157.88 64.64L157.44 58.96L158 59.28L158.6 59.6Z" fill="#263238"/>
<path d="M157.44 58.96L158 59.28L157.88 64.64L157.44 58.96Z" fill="#37474F"/>
<path d="M90.64 31.52L91.28 32.72L90.64 33.04L92.76 33.64L90.64 31.52Z" fill="#37474F"/>
<path d="M90.64 31.52L91.28 32.72L92.76 33.64L90.64 31.52Z" fill="#263238"/>
<path d="M167 78.1201L165.2 78.2001L161.88 76.8L165.2 80.0001L167 78.1201Z" fill="#263238"/>
<path d="M167 78.1201L165.2 79.0401L161.88 76.8L165.2 78.2001L167 78.1201Z" fill="#37474F"/>
<path d="M90.64 20.36L165.2 63.4L169.48 60.88L94.96 17.88L90.64 20.36Z" fill="#263238"/>
<path d="M92.64 20.6L166.72 63.4V46.16L99.96 7.64002L99.24 12.64L98.84 6.96003L92.64 3.40002V20.6Z" fill="#455A64"/>
<path opacity="0.05" d="M166.72 60.5199C162.84 58.2799 146.52 49.0799 144.64 48.1599C139.16 45.5599 134.48 43.4799 127.16 39.3199C127.16 39.3199 130.56 41.7599 137.88 45.5199C141.32 47.2799 144.44 48.7999 146.12 49.6399C147.76 50.4799 166.76 61.3999 166.76 61.3999V60.5199H166.72Z" fill="white"/>
<path opacity="0.1" d="M92.64 7.07996C92.64 7.07996 94.92 8.39996 98.52 10.48C104.24 13.76 108.04 16.16 110.52 18.44C113 20.72 117.8 23.6 119.96 24.76C119.96 24.76 117.44 23.84 112.68 20.92C107.96 18 107.08 16.44 100.36 12.56C93.64 8.67996 92.64 8.07996 92.64 8.07996V7.07996Z" fill="black"/>
<path opacity="0.1" d="M166.72 58.48C162.64 56.12 149 48.28 146.84 47C144.68 45.76 139.6 44.76 136.8 43.16C136.8 43.16 138.88 44.68 141.72 45.76C144.56 46.84 164.04 57.84 166.72 59.4V58.48Z" fill="black"/>
<path opacity="0.05" d="M92.64 15.4401C92.64 15.4401 109 24.9201 113.32 27.4001C117.64 29.8801 124.8 34.8801 130.84 38.1601C136.88 41.4401 141.32 43.3201 141.32 43.3201C141.32 43.3201 135.56 41.6801 130.76 38.9201C126 36.1601 117.32 30.7201 112.08 27.6801C106.84 24.6401 92.68 16.4401 92.68 16.4401L92.64 15.4401Z" fill="white"/>
<path opacity="0.05" d="M166.72 52.32C162.72 50 149.48 42.36 146.32 40.52C143.16 38.68 138.32 35.32 132.96 32.2C127.6 29.08 123.16 27.16 119.8 25.84C116.44 24.52 112.72 22.4 112.72 22.4C112.72 22.4 116.28 24.88 121.6 27.32C126.92 29.72 133.32 33.08 138.96 37.08C144.64 41.12 166.76 53.4 166.76 53.4V52.32H166.72Z" fill="white"/>
<path opacity="0.05" d="M92.64 4.76001C115.8 17.88 115.68 17.8 122.12 21.56C128.12 25.04 135.96 29.84 135.96 29.84C135.96 29.84 123.28 23.08 110.6 15.76C97.92 8.44001 92.6 5.36001 92.6 5.36001L92.64 4.76001Z" fill="white"/>
<path opacity="0.1" d="M166.72 49.08C166.72 49.08 139.04 33.08 131.24 28.56C123.44 24.04 114.72 19.88 114.72 19.88C114.72 19.88 121.2 24.16 130.8 29.72C133.64 31.36 166.72 50.48 166.72 50.48V49.08Z" fill="black"/>
<path opacity="0.1" d="M92.64 17.92C92.64 17.92 109.24 27.52 113.64 30.08C118.04 32.64 129.44 39.56 132.16 41.32C132.16 41.32 120.92 35.4 106 26.76L92.64 19V17.92Z" fill="black"/>
<path opacity="0.1" d="M92.64 14C92.64 14 106.04 21.76 110.24 24.2C114.44 26.64 124.24 33.24 128.56 35.72C132.88 38.2 161.32 53.68 166.72 56.84V55.64C163.36 53.68 136.12 36 129.6 32.24C123.08 28.48 116.44 26.6 112.36 24.24C108.32 21.88 92.6 12.8 92.6 12.8L92.64 14ZM120.28 29.12C120.28 28.52 125.84 31.04 129.64 33.24C133 35.2 139.68 39.68 139.68 40.24C139.68 40.8 133.16 37.28 129.64 35.28C126.16 33.24 120.28 29.72 120.28 29.12Z" fill="black"/>
<path opacity="0.05" d="M92.64 9.35999C95.28 10.88 103 15.24 105.28 17C107.56 18.76 109.92 21.56 114.32 24.12C114.32 24.12 109.76 22.24 107.16 19.76C104.56 17.28 92.6 10.6 92.6 10.6L92.64 9.35999Z" fill="white"/>
<path d="M99.96 7.64008L99.4 7.28008L98.84 6.96008L99.24 12.6401L99.96 7.64008Z" fill="#263238"/>
<path opacity="0.2" d="M99.96 7.64001L166 46.72L166.72 63.4V46.16L99.96 7.64001Z" fill="white"/>
<path d="M166.72 51.6L162.68 50.4L166.72 53.68V51.6Z" fill="#37474F"/>
<path d="M171.04 60.88L166.72 63.4V46.16L171.04 43.6V60.88Z" fill="#37474F"/>
<path d="M166.72 46.16L171.04 43.6L97 0.880005L92.64 3.4L166.72 46.16Z" fill="#263238"/>
<path d="M166.72 51.6L167.88 52L166.72 53.68V51.6Z" fill="#37474F"/>
<path d="M167.88 52L166.72 52.68L162.68 50.4L166.72 53.68L167.88 52Z" fill="#263238"/>
<path d="M98.84 6.96008L99.4 7.28008L99.24 12.6401L98.84 6.96008Z" fill="#37474F"/>
<path d="M94.12 40.52L168.2 83.28V100.52L101.48 62L100.76 56.12L100.32 61.32L94.12 57.76V40.52Z" fill="#455A64"/>
<path opacity="0.05" d="M168.2 86.1599C164.32 83.9199 148 74.3199 146.12 73.0399C140.64 69.3599 135.96 65.9599 128.64 61.6799C128.64 61.6799 132.04 63.1599 139.36 67.8399C142.8 70.0399 153.64 76.5599 155.28 77.6799C156.92 78.7599 168.24 85.3199 168.24 85.3199V86.1599H168.2Z" fill="white"/>
<path opacity="0.1" d="M94.12 54.08C94.12 54.08 96.4 55.4 100 57.48C105.72 60.76 109.52 62.8 112 63.4C114.48 64 119.28 66.64 121.44 67.96C121.44 67.96 118.92 65.96 114.16 63.44C109.44 60.92 108.56 61.44 101.84 57.56C95.12 53.68 94.12 53.12 94.12 53.12V54.08Z" fill="black"/>
<path opacity="0.1" d="M168.2 88.1999C164.12 85.8399 158.2 82.4399 156.04 81.1999C153.88 79.9599 141.12 70.6399 138.32 69.0399C138.32 69.0399 140.4 69.9199 143.24 72.1199C146.08 74.3199 165.56 85.7999 168.24 87.3199V88.1999H168.2Z" fill="black"/>
<path opacity="0.05" d="M94.12 45.7199C94.12 45.7199 110.48 55.1599 114.8 57.6399C119.12 60.1199 126.28 63.3999 132.32 67.0799C138.36 70.7599 142.8 74.0399 142.8 74.0399C142.8 74.0399 137 68.9999 132.2 66.2399C127.44 63.4799 118.76 58.8799 113.52 55.8799C108.28 52.8799 94.12 44.6799 94.12 44.6799V45.7199Z" fill="white"/>
<path opacity="0.05" d="M168.2 94.36C164.2 92.04 158.64 88.84 155.48 87.04C152.32 85.2 139.8 78.6 134.44 75.52C129.08 72.44 124.64 69.24 121.28 66.68C117.92 64.12 114.2 61.92 114.2 61.92C114.2 61.92 117.76 63.52 123.08 67.24C128.4 70.96 134.8 75 140.44 77.52C146.08 80.04 168.24 93.28 168.24 93.28V94.36H168.2Z" fill="white"/>
<path opacity="0.05" d="M94.12 56.4C94.12 56.4 117.64 70.24 123.6 73.68C129.6 77.12 137.44 81.36 137.44 81.36C137.44 81.36 124.76 73.48 112.08 66.16C99.4 58.84 94.08 55.8 94.08 55.8L94.12 56.4Z" fill="white"/>
<path opacity="0.1" d="M168.2 97.6001C168.2 97.6001 140.52 81.64 132.72 77.16C124.92 72.68 116.2 66.8 116.2 66.8C116.2 66.8 122.68 70.0001 132.28 75.5201C135.12 77.1601 168.2 96.2401 168.2 96.2401V97.6001Z" fill="black"/>
<path opacity="0.1" d="M94.12 43.24C94.12 43.24 110.72 52.8 115.12 55.32C119.52 57.84 130.92 64.08 133.64 65.48C133.64 65.48 122.4 58.4 107.48 49.8L94.12 42.12V43.24Z" fill="black"/>
<path opacity="0.1" d="M94.12 48.36C94.12 48.36 109.84 57.4 113.88 59.76C117.92 62.08 124.6 67.88 131.12 71.64C137.64 75.4 164.88 89.12 168.24 91.08V89.88C162.84 86.76 134.4 69.44 130.08 66.96C125.76 64.48 115.96 59.76 111.76 57.32C107.56 54.88 94.16 47.16 94.16 47.16L94.12 48.36ZM131.16 68.6C134.68 70.64 141.2 74.68 141.2 75.24C141.2 75.8 134.52 72.6 131.16 70.64C127.36 68.44 121.8 64.56 121.8 63.96C121.8 63.36 127.64 66.6 131.16 68.6Z" fill="black"/>
<path opacity="0.05" d="M94.12 51.8001C96.76 53.3201 104.48 57.8801 106.76 58.7601C109.04 59.6401 111.4 59.5601 115.8 62.0801C115.8 62.0801 111.24 58.7201 108.64 58.2001C106.04 57.6801 94.08 50.5601 94.08 50.5601L94.12 51.8001Z" fill="white"/>
<path d="M101.48 62L100.68 60.2L100.32 61.32L100.76 56.12L101.48 62Z" fill="#263238"/>
<path opacity="0.2" d="M101.48 44.76L167.48 83.84L168.2 100.52V83.28L101.48 44.76Z" fill="white"/>
<path d="M168.2 95.0801L164.16 91.6001L168.2 92.9601V95.0801Z" fill="#37474F"/>
<path d="M172.52 80.8L168.2 83.28V100.52L172.52 98.04V80.8Z" fill="#37474F"/>
<path d="M168.2 95.08L171.36 91.96L168.2 92.96V95.08Z" fill="#37474F"/>
<path d="M171.36 91.9601L168.2 94.0001L164.16 91.6001L168.2 92.9601L171.36 91.9601Z" fill="#263238"/>
<path d="M100.32 61.32L100.68 60.2L100.76 56.12L100.32 61.32Z" fill="#37474F"/>
<path d="M129 32.52C130.16 33.2 131.16 34 131.96 35C132.8 36 133.48 37.08 134.04 38.28C134.6 39.48 135 40.72 135.28 42.04C135.56 43.36 135.72 44.68 135.76 46C135.8 47.04 135.8 48.1201 135.8 49.2401C135.8 50.3601 135.8 51.4001 135.76 52.3201C135.72 53.5601 135.56 54.7201 135.28 55.7201C135 56.7201 134.6 57.52 134.04 58.08C133.48 58.64 132.8 58.96 131.96 59C131.12 59.04 130.12 58.72 129 58.08C127.84 57.4 126.84 56.6001 126.04 55.6C125.2 54.6 124.52 53.5201 123.96 52.3201C123.4 51.1201 123 49.88 122.72 48.56C122.44 47.24 122.28 45.92 122.24 44.6C122.2 43.6 122.2 42.56 122.2 41.44C122.2 40.32 122.2 39.28 122.24 38.28C122.28 37.04 122.44 35.88 122.72 34.88C123 33.88 123.4 33.08 123.96 32.52C124.52 31.96 125.2 31.64 126.04 31.6C126.84 31.56 127.84 31.84 129 32.52ZM131.48 49.72C131.56 47.76 131.56 45.76 131.48 43.76C131.44 43.16 131.4 42.56 131.32 42.04C131.24 41.48 131.12 41 130.92 40.52C130.72 40.04 130.48 39.6 130.2 39.24C129.88 38.84 129.52 38.52 129.04 38.24C128.56 37.96 128.2 37.84 127.88 37.88C127.56 37.92 127.32 38 127.12 38.24C126.92 38.52 126.8 38.92 126.68 39.36C126.6 39.8 126.56 40.32 126.52 40.92C126.44 42.84 126.44 44.84 126.52 46.88C126.52 47.48 126.6 48.04 126.68 48.6C126.76 49.16 126.92 49.64 127.08 50.12C127.28 50.6001 127.52 51.0401 127.84 51.4401C128.16 51.8401 128.52 52.1601 129 52.4401C129.48 52.7201 129.84 52.84 130.16 52.8C130.48 52.76 130.72 52.6 130.92 52.36C131.12 52.12 131.24 51.7601 131.32 51.3201C131.4 50.8001 131.44 50.28 131.48 49.72Z" fill="#263238"/>
<path d="M134.04 58.1201C133.48 58.6801 132.8 59.0001 131.96 59.0401C131.12 59.0801 130.16 58.7601 129 58.1201C127.84 57.4401 126.84 56.6401 126.04 55.6001C125.64 55.1201 125.28 54.6401 124.96 54.1201L126.36 53.3201C126.64 53.7601 126.96 54.1601 127.28 54.5601C128.12 55.5601 129.08 56.4001 130.24 57.0801C131.4 57.7601 132.4 58.0401 133.2 58.0001C133.6 58.0001 134.04 57.8801 134.36 57.7601C134.28 57.8401 134.16 58.0001 134.04 58.1201Z" fill="#37474F"/>
<path d="M131.72 38.5999L130.32 39.4399C130.28 39.3599 130.2 39.2799 130.16 39.1999C129.84 38.7999 129.48 38.4799 129 38.1999C128.52 37.9199 128.16 37.8399 127.84 37.8399C127.52 37.8799 127.28 37.9599 127.12 38.1999C127 38.3599 127 38.3999 127.12 38.1999C127.2 38.0799 127.28 37.9999 127.36 37.9199C127.48 37.7999 128.48 36.9999 128.6 36.9599C128.76 36.8399 128.92 36.7599 129.12 36.7599C129.44 36.7199 129.8 36.8399 130.28 37.1199C130.76 37.3999 131.12 37.7199 131.44 38.1199C131.52 38.2799 131.64 38.4399 131.72 38.5999Z" fill="#37474F"/>
<path d="M135.28 42C135 40.68 134.6 39.4 134.04 38.24C133.48 37.04 132.8 35.96 131.96 34.96C131.12 33.96 130.12 33.12 129 32.48C127.84 31.8 126.84 31.52 126.04 31.56C125.64 31.56 125.28 31.68 124.96 31.8C124.56 32.32 124.24 33 124 33.84C123.72 34.84 123.56 36 123.52 37.24C123.48 38.24 123.48 39.28 123.48 40.4C123.48 41.52 123.48 42.56 123.52 43.56C123.56 44.88 123.72 46.2 124 47.52C124.28 48.84 124.68 50.12 125.24 51.28C125.8 52.48 126.48 53.56 127.32 54.56C128.16 55.56 129.16 56.4 130.28 57.04C131.44 57.72 132.44 58 133.24 57.96C133.64 57.96 134.08 57.84 134.4 57.72C134.8 57.24 135.08 56.48 135.32 55.64C135.6 54.64 135.72 53.52 135.76 52.28C135.8 51.32 135.8 50.28 135.8 49.2C135.8 48.08 135.8 47 135.76 45.96C135.68 44.64 135.52 43.32 135.28 42ZM132.72 48.64C132.72 49.24 132.64 49.72 132.56 50.2C132.48 50.64 132.32 51 132.16 51.24C132.08 51.36 132 51.44 131.88 51.52C131.84 51.52 130.72 52.44 130.64 52.52C130.52 52.6 130.36 52.68 130.16 52.68C129.84 52.72 129.48 52.6 129 52.32C128.52 52.04 128.16 51.72 127.84 51.32C127.52 50.92 127.28 50.48 127.08 50C126.88 49.52 126.76 49 126.68 48.48C126.6 47.92 126.56 47.36 126.52 46.76C126.44 44.72 126.44 42.72 126.52 40.8C126.52 40.2 126.6 39.72 126.68 39.24C126.76 38.8 126.92 38.44 127.08 38.2C127.16 38.08 127.24 38 127.32 37.92C127.44 37.8 128.44 37 128.56 36.96C128.72 36.84 128.88 36.76 129.08 36.76C129.4 36.72 129.76 36.84 130.24 37.12C130.72 37.4 131.08 37.72 131.4 38.12C131.72 38.52 131.96 38.96 132.12 39.4C132.32 39.88 132.44 40.4 132.52 40.92C132.6 41.48 132.68 42.04 132.68 42.64C132.76 44.68 132.76 46.68 132.72 48.64Z" fill="#E7664C"/>
<path d="M114.08 49.12C113.92 49.04 113.76 48.84 113.64 48.6C113.52 48.32 113.44 48.08 113.44 47.8V44.16L106.2 40C106.04 39.92 105.88 39.72 105.76 39.48C105.64 39.2 105.56 38.96 105.56 38.68V34.92C105.56 34.32 105.68 33.84 105.88 33.56L112.76 24.16C112.88 23.96 113.04 23.88 113.16 23.88C113.28 23.88 113.44 23.92 113.64 24.04L117.12 26.04C117.28 26.12 117.44 26.32 117.56 26.56C117.68 26.84 117.76 27.08 117.76 27.36V41L119.76 42.16C119.92 42.24 120.08 42.44 120.2 42.68C120.32 42.96 120.4 43.2 120.4 43.48V47.24C120.4 47.52 120.32 47.68 120.2 47.8C120.08 47.92 119.92 47.92 119.76 47.84L117.76 46.68V50.32C117.76 50.6 117.68 50.76 117.56 50.88C117.44 51 117.28 51 117.12 50.92L114.08 49.12ZM113.56 38.56V32.04L110.2 36.6L113.56 38.56Z" fill="#263238"/>
<path d="M120.16 47.7599C120.28 47.6399 120.36 47.4399 120.36 47.1999V46.3599L119 45.5599L117.76 46.6399L119.76 47.7999C119.88 47.8799 120.04 47.8799 120.16 47.7599Z" fill="#37474F"/>
<path d="M117.72 49.4399V50.2799C117.72 50.5599 117.64 50.7199 117.52 50.8399C117.4 50.9599 117.24 50.9599 117.08 50.8799L114.08 49.1199C113.92 49.0399 113.76 48.8399 113.64 48.5999C113.64 48.5599 113.64 48.5599 113.6 48.5199L114.84 47.4399C114.84 47.4399 114.84 47.4799 114.88 47.5199C115 47.7599 115.16 47.9599 115.32 48.0399L117.72 49.4399Z" fill="#37474F"/>
<path d="M114.72 43.1199L113.48 44.1999L106.2 39.9999C106.04 39.9199 105.88 39.7199 105.76 39.4799C105.76 39.4399 105.72 39.3999 105.72 39.3599L107 38.3999C107.12 38.6799 107.28 38.8399 107.44 38.9199L114.72 43.1199Z" fill="#37474F"/>
<path d="M119.72 42.04L117.72 40.88V27.24C117.72 26.96 117.64 26.72 117.52 26.44C117.4 26.16 117.24 26 117.08 25.92L113.6 23.92C113.52 23.88 113.48 23.88 113.44 23.84L107.12 32.48C106.92 32.76 106.8 33.2 106.8 33.84V37.6C106.8 37.88 106.88 38.12 107 38.4C107.12 38.68 107.28 38.84 107.44 38.92L114.72 43.12V46.76C114.72 47.04 114.8 47.28 114.92 47.56C115.04 47.84 115.2 48 115.36 48.08L117.76 49.48V46.68L119 45.6L120.36 46.4V43.4C120.36 43.12 120.28 42.88 120.16 42.6C120.04 42.32 119.88 42.12 119.72 42.04ZM114.84 37.48L113.6 38.48L110.24 36.52L113.6 31.92L114.84 30.92V37.48Z" fill="#E7664C"/>
<path d="M146.16 67.64C146 67.56 145.84 67.36 145.72 67.12C145.6 66.84 145.52 66.6 145.52 66.32V62.68L138.24 58.48C138.08 58.4 137.92 58.2 137.8 57.96C137.68 57.68 137.6 57.44 137.6 57.16V53.4C137.6 52.8 137.72 52.32 137.92 52.04L144.8 42.64C144.92 42.44 145.08 42.36 145.2 42.36C145.32 42.36 145.48 42.4 145.68 42.52L149.16 44.52C149.32 44.6 149.48 44.8 149.6 45.04C149.72 45.32 149.8 45.56 149.8 45.84V59.48L151.8 60.64C151.96 60.72 152.12 60.92 152.24 61.16C152.36 61.44 152.44 61.68 152.44 61.96V65.72C152.44 66 152.36 66.16 152.24 66.28C152.12 66.4 151.96 66.4 151.8 66.32L149.8 65.16V68.8C149.8 69.08 149.72 69.24 149.6 69.36C149.48 69.48 149.32 69.48 149.16 69.4L146.16 67.64ZM145.64 57.08V50.56L142.28 55.16L145.64 57.08Z" fill="#263238"/>
<path d="M152.24 66.28C152.36 66.16 152.44 65.96 152.44 65.72V64.88L151.08 64.08L149.84 65.16L151.84 66.32C151.96 66.4 152.12 66.4 152.24 66.28Z" fill="#37474F"/>
<path d="M149.8 67.96V68.8C149.8 69.08 149.72 69.24 149.6 69.36C149.48 69.48 149.32 69.48 149.16 69.4L146.16 67.64C146 67.56 145.84 67.36 145.72 67.12C145.72 67.08 145.72 67.08 145.68 67.04L146.92 65.96C146.92 65.96 146.92 66 146.96 66.04C147.08 66.28 147.24 66.48 147.4 66.56L149.8 67.96Z" fill="#37474F"/>
<path d="M146.8 61.6399L145.56 62.7199L138.28 58.5199C138.12 58.4399 137.96 58.2399 137.84 57.9999C137.84 57.9599 137.8 57.9199 137.8 57.8799L139.08 56.9199C139.2 57.1999 139.36 57.3599 139.52 57.4399L146.8 61.6399Z" fill="#37474F"/>
<path d="M151.8 60.56L149.8 59.4V45.76C149.8 45.48 149.72 45.24 149.6 44.96C149.48 44.68 149.32 44.52 149.16 44.44L145.68 42.44C145.6 42.4 145.56 42.4 145.52 42.36L139.2 51C139 51.28 138.88 51.72 138.88 52.36V56.12C138.88 56.4 138.96 56.64 139.08 56.92C139.2 57.2 139.36 57.36 139.52 57.44L146.8 61.64V65.28C146.8 65.56 146.88 65.8 147 66.08C147.12 66.36 147.28 66.52 147.44 66.6L149.84 68V65.2L151.08 64.12L152.44 64.92V61.92C152.44 61.64 152.36 61.4 152.24 61.12C152.12 60.84 151.96 60.64 151.8 60.56ZM146.88 56L145.64 57L142.28 55.04L145.64 50.44L146.88 49.44V56Z" fill="#E7664C"/>
<path d="M107.76 56.16C107.8 56.16 107.84 56.2 107.84 56.28C107.88 56.32 107.88 56.4 107.88 56.44V57.16C107.88 57.2 107.88 57.24 107.84 57.28C107.8 57.32 107.8 57.32 107.76 57.28L105.64 56.08C105.6 56.08 105.56 56.04 105.56 55.96C105.52 55.92 105.52 55.88 105.52 55.8V51.4C105.52 51.36 105.52 51.32 105.56 51.28C105.6 51.24 105.6 51.24 105.64 51.28L107.72 52.48C107.76 52.48 107.8 52.52 107.8 52.6C107.84 52.64 107.84 52.72 107.84 52.76V53.48C107.84 53.52 107.84 53.56 107.8 53.6C107.76 53.64 107.76 53.64 107.72 53.6L106.36 52.8V53.52L107.64 54.24C107.68 54.24 107.72 54.28 107.72 54.36C107.76 54.4 107.76 54.44 107.76 54.52V55.24C107.76 55.28 107.76 55.32 107.72 55.36C107.68 55.4 107.68 55.4 107.64 55.36L106.36 54.64V55.4L107.76 56.16Z" fill="#FAFAFA"/>
<path d="M109.96 54.96C110 54.96 110.04 55 110.04 55.08C110.08 55.12 110.08 55.2001 110.08 55.2401V55.9201C110.08 55.9601 110.08 56.0001 110.04 56.0401C110 56.0801 110 56.0801 109.96 56.0401L109.56 55.8001C109.28 55.6401 109.16 55.7601 109.16 56.2001V57.8801C109.16 57.9201 109.16 57.9601 109.12 58.0001C109.08 58.0401 109.08 58.0401 109.04 58.0001L108.48 57.6801C108.44 57.6801 108.4 57.64 108.4 57.56C108.36 57.52 108.36 57.4801 108.36 57.4001V54.2001C108.36 54.1601 108.36 54.12 108.4 54.08C108.44 54.04 108.44 54.04 108.48 54.08L109 54.36C109.04 54.36 109.08 54.4 109.08 54.48C109.12 54.52 109.12 54.6001 109.12 54.6401V54.8001C109.2 54.7201 109.28 54.72 109.36 54.68C109.44 54.68 109.56 54.7201 109.72 54.8001L109.96 54.96Z" fill="#FAFAFA"/>
<path d="M111.96 56.12C112 56.12 112.04 56.16 112.04 56.24C112.08 56.28 112.08 56.36 112.08 56.4V57.08C112.08 57.12 112.08 57.16 112.04 57.2C112 57.24 112 57.24 111.96 57.2L111.56 56.96C111.28 56.8 111.16 56.92 111.16 57.36V59.04C111.16 59.08 111.16 59.12 111.12 59.16C111.08 59.2 111.08 59.2 111.04 59.16L110.48 58.84C110.44 58.84 110.4 58.8 110.4 58.72C110.36 58.68 110.36 58.6 110.36 58.56V55.36C110.36 55.32 110.36 55.28 110.4 55.24C110.44 55.2 110.44 55.2 110.48 55.24L111 55.52C111.04 55.52 111.08 55.56 111.08 55.64C111.12 55.68 111.12 55.76 111.12 55.8V55.96C111.2 55.88 111.28 55.88 111.36 55.84C111.44 55.84 111.56 55.88 111.72 55.96L111.96 56.12Z" fill="#FAFAFA"/>
<path d="M114.68 59.2401C114.68 59.3201 114.68 59.4001 114.68 59.5201C114.68 59.6401 114.68 59.7201 114.68 59.8001C114.68 60.0001 114.64 60.2001 114.6 60.3601C114.56 60.5201 114.44 60.6401 114.36 60.7201C114.24 60.8001 114.12 60.8401 114 60.8401C113.84 60.8401 113.68 60.8001 113.52 60.6801C113.32 60.5601 113.16 60.4401 113.04 60.2801C112.88 60.1201 112.76 59.9201 112.68 59.7201C112.56 59.5201 112.48 59.3201 112.44 59.0801C112.4 58.8401 112.36 58.6401 112.36 58.4001C112.36 58.3201 112.36 58.2401 112.36 58.1201C112.36 58.0001 112.36 57.9201 112.36 57.8401C112.36 57.6401 112.4 57.44 112.44 57.28C112.48 57.12 112.6 57.0001 112.68 56.9201C112.8 56.8401 112.92 56.8 113.04 56.8C113.2 56.8 113.36 56.84 113.52 56.96C113.72 57.08 113.88 57.2 114 57.36C114.12 57.52 114.28 57.7201 114.36 57.9201C114.48 58.1201 114.56 58.32 114.6 58.56C114.68 58.76 114.68 59.0001 114.68 59.2401ZM113.08 58.8001C113.08 58.9601 113.12 59.1201 113.2 59.2801C113.28 59.4001 113.36 59.5201 113.48 59.6001C113.6 59.6801 113.68 59.6801 113.76 59.6001C113.84 59.5601 113.88 59.4401 113.88 59.2801C113.88 59.2001 113.88 59.1201 113.88 59.0401C113.88 58.9601 113.88 58.8801 113.88 58.8001C113.88 58.6401 113.84 58.4801 113.76 58.3201C113.68 58.2001 113.6 58.0801 113.48 58.0001C113.36 57.9201 113.28 57.9201 113.2 58.0001C113.12 58.0401 113.08 58.1601 113.08 58.3201C113.08 58.4001 113.08 58.48 113.08 58.56C113.08 58.64 113.08 58.7201 113.08 58.8001Z" fill="#FAFAFA"/>
<path d="M116.72 58.88C116.76 58.88 116.8 58.92 116.8 59C116.84 59.04 116.84 59.12 116.84 59.16V59.84C116.84 59.88 116.84 59.92 116.8 59.96C116.76 60 116.76 60 116.72 59.96L116.32 59.72C116.04 59.56 115.92 59.68 115.92 60.12V61.8C115.92 61.84 115.92 61.88 115.88 61.92C115.84 61.96 115.84 61.96 115.8 61.92L115.24 61.6C115.2 61.6 115.16 61.56 115.16 61.48C115.12 61.44 115.12 61.36 115.12 61.32V58.12C115.12 58.08 115.12 58.04 115.16 58C115.2 57.96 115.2 57.96 115.24 58L115.76 58.28C115.8 58.28 115.84 58.32 115.84 58.4C115.88 58.44 115.88 58.52 115.88 58.56V58.72C115.96 58.64 116.04 58.64 116.12 58.6C116.2 58.6 116.32 58.64 116.48 58.72L116.72 58.88Z" fill="#FAFAFA"/>
<path d="M116.92 61.5201C116.92 61.4401 116.96 61.4001 116.96 61.3601C117 61.3201 117.04 61.3201 117.08 61.3601L117.64 61.6801C117.68 61.6801 117.68 61.7201 117.72 61.7601C117.72 61.8001 117.76 61.8401 117.76 61.8801V61.9201L117.4 63.0801C117.4 63.1201 117.36 63.1601 117.36 63.2001C117.32 63.2401 117.28 63.2401 117.24 63.2001L116.92 63.0001C116.88 63.0001 116.88 62.9601 116.84 62.9201C116.84 62.8801 116.8 62.8401 116.8 62.8001L116.92 61.5201Z" fill="#FAFAFA"/>
<path d="M120.52 64.68C120.44 64.64 120.36 64.56 120.28 64.52C120.2 64.44 120.16 64.4 120.12 64.32C120.08 64.24 120.04 64.2 120 64.12C119.96 64.04 119.96 64 119.92 63.96V65.4C119.92 65.44 119.92 65.48 119.88 65.52C119.84 65.56 119.84 65.56 119.8 65.52L119.24 65.2C119.2 65.2 119.16 65.16 119.16 65.08C119.12 65.04 119.12 64.96 119.12 64.92V60.44C119.12 60.4 119.12 60.36 119.16 60.32C119.2 60.28 119.2 60.28 119.24 60.32L119.76 60.64C119.8 60.64 119.84 60.68 119.84 60.76C119.88 60.8 119.88 60.88 119.88 60.92V61.08C119.92 61.04 119.92 61 119.96 61C120 60.96 120.04 60.96 120.08 60.92C120.12 60.92 120.2 60.92 120.24 60.92C120.32 60.92 120.4 60.96 120.48 61.04C120.6 61.12 120.72 61.24 120.84 61.36C120.96 61.48 121.08 61.64 121.16 61.84C121.24 62.04 121.32 62.24 121.36 62.44C121.4 62.68 121.44 62.92 121.44 63.2C121.44 63.28 121.44 63.36 121.44 63.48C121.44 63.6 121.44 63.68 121.44 63.76C121.44 64.04 121.4 64.24 121.36 64.4C121.32 64.56 121.24 64.68 121.16 64.76C121.08 64.84 120.96 64.88 120.84 64.88C120.76 64.8 120.64 64.76 120.52 64.68ZM120.72 63.12C120.72 63 120.72 62.88 120.72 62.72C120.72 62.56 120.68 62.4 120.6 62.24C120.56 62.08 120.44 61.96 120.32 61.88C120.24 61.84 120.2 61.84 120.16 61.84C120.12 61.84 120.08 61.88 120.04 61.88C120 61.92 120 61.96 119.96 62C119.96 62.04 119.92 62.12 119.92 62.16C119.92 62.24 119.92 62.32 119.92 62.4C119.92 62.48 119.92 62.56 119.92 62.64C119.92 62.72 119.92 62.8 119.96 62.84C119.96 62.92 120 63 120.04 63.04C120.08 63.12 120.12 63.16 120.16 63.24C120.2 63.28 120.28 63.36 120.32 63.4C120.44 63.48 120.56 63.48 120.6 63.4C120.68 63.4 120.68 63.28 120.72 63.12Z" fill="#FAFAFA"/>
<path d="M121.76 64.32C121.76 64 121.84 63.8 122 63.72C122.16 63.6 122.4 63.6 122.72 63.72L123.24 63.88C123.24 63.76 123.24 63.68 123.2 63.56C123.16 63.48 123.08 63.4 123 63.32C122.92 63.28 122.88 63.28 122.84 63.28C122.8 63.28 122.76 63.28 122.76 63.32C122.72 63.36 122.72 63.36 122.68 63.36C122.64 63.36 122.64 63.36 122.6 63.32L122.04 63C122 63 122 62.96 121.96 62.92C121.96 62.88 121.92 62.84 121.92 62.8C121.92 62.68 121.96 62.6 122 62.52C122.04 62.44 122.12 62.36 122.24 62.32C122.32 62.28 122.44 62.28 122.56 62.28C122.68 62.28 122.84 62.32 122.96 62.44C123.16 62.56 123.28 62.68 123.44 62.8C123.56 62.96 123.68 63.12 123.76 63.28C123.84 63.44 123.92 63.64 123.96 63.84C124 64.04 124.04 64.24 124.04 64.44V66.52C124.04 66.56 124.04 66.6 124 66.64C123.96 66.68 123.96 66.68 123.92 66.64L123.36 66.32C123.32 66.32 123.28 66.28 123.28 66.2C123.24 66.16 123.24 66.08 123.24 66.04V65.8C123.16 65.88 123.08 65.96 122.96 65.96C122.84 65.96 122.72 65.92 122.56 65.84C122.44 65.76 122.32 65.68 122.24 65.56C122.16 65.44 122.04 65.32 122 65.2C121.92 65.08 121.88 64.92 121.84 64.76C121.8 64.64 121.76 64.48 121.76 64.32ZM122.8 65.08C122.88 65.12 122.92 65.12 123 65.12C123.04 65.12 123.12 65.08 123.16 65.08C123.2 65.04 123.24 65 123.24 64.92C123.28 64.84 123.28 64.76 123.28 64.68L122.88 64.52C122.8 64.48 122.72 64.48 122.68 64.52C122.64 64.56 122.6 64.6 122.6 64.68C122.6 64.76 122.6 64.84 122.64 64.88C122.68 65 122.72 65.04 122.8 65.08Z" fill="#FAFAFA"/>
<path d="M125.64 68.04C125.76 68.12 125.84 68.12 125.92 68.08C126 68.04 126.04 67.96 126.04 67.8V67.32C126 67.36 126 67.4 125.96 67.4C125.92 67.44 125.88 67.44 125.84 67.48C125.8 67.48 125.72 67.48 125.68 67.48C125.6 67.48 125.52 67.44 125.44 67.36C125.32 67.28 125.2 67.16 125.08 67.04C124.96 66.92 124.84 66.76 124.76 66.56C124.68 66.4 124.6 66.2 124.56 65.96C124.52 65.72 124.48 65.48 124.48 65.24C124.48 65.16 124.48 65.08 124.48 65C124.48 64.92 124.48 64.84 124.48 64.76C124.48 64.52 124.52 64.28 124.56 64.12C124.6 63.96 124.68 63.84 124.76 63.76C124.84 63.68 124.96 63.64 125.08 63.64C125.2 63.64 125.32 63.68 125.44 63.76C125.52 63.8 125.64 63.88 125.68 63.96C125.76 64.04 125.8 64.08 125.88 64.16C125.92 64.24 125.96 64.28 126 64.36C126.04 64.44 126.04 64.48 126.08 64.52V64.36C126.08 64.32 126.08 64.28 126.12 64.24C126.16 64.2 126.16 64.2 126.2 64.24L126.72 64.52C126.76 64.52 126.8 64.56 126.8 64.64C126.84 64.68 126.84 64.76 126.84 64.8V68.12C126.84 68.36 126.8 68.6 126.76 68.76C126.68 68.92 126.6 69.04 126.52 69.12C126.4 69.2 126.28 69.2 126.12 69.2C125.96 69.16 125.8 69.12 125.64 69C125.4 68.88 125.24 68.72 125.08 68.56C124.92 68.4 124.8 68.2 124.72 68.04C124.64 67.88 124.56 67.72 124.56 67.56C124.52 67.4 124.52 67.28 124.52 67.16C124.52 67.12 124.52 67.08 124.56 67.04C124.6 67 124.6 67 124.64 67.04L125.2 67.36C125.28 67.4 125.32 67.48 125.32 67.56C125.36 67.64 125.36 67.72 125.4 67.76C125.48 67.92 125.52 68 125.64 68.04ZM125.24 65.32C125.24 65.4 125.24 65.44 125.24 65.48C125.24 65.52 125.24 65.6 125.24 65.64C125.24 65.8 125.28 65.96 125.36 66.08C125.44 66.24 125.52 66.32 125.64 66.4C125.76 66.48 125.84 66.48 125.92 66.4C126 66.32 126.04 66.24 126.04 66.12C126.04 66 126.04 65.84 126.04 65.68C126.04 65.56 126 65.4 125.92 65.28C125.84 65.16 125.76 65.04 125.64 64.96C125.52 64.88 125.4 64.88 125.36 64.96C125.28 65.08 125.24 65.16 125.24 65.32Z" fill="#FAFAFA"/>
<path d="M128.04 67.56C128.04 67.68 128.04 67.76 128.08 67.84C128.12 67.92 128.12 68 128.16 68.04C128.2 68.12 128.24 68.16 128.28 68.2C128.32 68.24 128.36 68.28 128.4 68.32C128.48 68.36 128.56 68.4 128.6 68.4C128.64 68.4 128.68 68.4 128.72 68.36C128.76 68.32 128.76 68.32 128.8 68.32C128.8 68.32 128.84 68.32 128.88 68.36L129.44 68.68C129.52 68.72 129.52 68.8 129.52 68.88C129.52 68.92 129.48 69 129.44 69.08C129.4 69.16 129.32 69.24 129.24 69.32C129.16 69.4 129.04 69.4 128.88 69.4C128.72 69.4 128.56 69.36 128.36 69.24C128.16 69.12 128 69 127.84 68.8C127.68 68.64 127.56 68.44 127.48 68.2C127.36 68 127.32 67.76 127.24 67.48C127.2 67.24 127.16 66.96 127.16 66.68C127.16 66.4 127.2 66.2 127.24 66C127.28 65.8 127.36 65.64 127.48 65.56C127.6 65.44 127.72 65.4 127.84 65.4C128 65.4 128.16 65.44 128.36 65.56C128.56 65.68 128.76 65.84 128.92 66.04C129.08 66.24 129.2 66.44 129.28 66.68C129.36 66.92 129.44 67.16 129.48 67.4C129.52 67.64 129.56 67.88 129.56 68.08V68.28C129.56 68.32 129.56 68.36 129.52 68.4C129.48 68.44 129.48 68.44 129.44 68.4L128.04 67.56ZM128.44 66.48C128.32 66.4 128.24 66.4 128.16 66.48C128.08 66.56 128.04 66.68 128.04 66.8L128.84 67.28C128.84 67.12 128.8 67 128.72 66.84C128.68 66.68 128.56 66.56 128.44 66.48Z" fill="#FAFAFA"/>
<path d="M133.36 71.8401C133.36 71.8801 133.36 71.9201 133.32 71.9601C133.28 72.0001 133.28 72.0001 133.24 71.9601L132.68 71.6401C132.64 71.6401 132.6 71.6001 132.6 71.5201C132.56 71.4801 132.56 71.4401 132.56 71.3601V69.6401C132.56 69.4401 132.52 69.2801 132.48 69.1201C132.4 68.9601 132.32 68.84 132.2 68.76C132.08 68.68 131.96 68.68 131.92 68.76C131.84 68.84 131.84 69 131.84 69.16V70.8801C131.84 70.9201 131.84 70.9601 131.8 71.0001C131.76 71.0401 131.76 71.0401 131.72 71.0001L131.16 70.6801C131.12 70.6801 131.08 70.6401 131.08 70.5601C131.04 70.5201 131.04 70.4401 131.04 70.4001V67.2001C131.04 67.1601 131.04 67.12 131.08 67.08C131.12 67.04 131.12 67.04 131.16 67.08L131.68 67.4001C131.72 67.4001 131.76 67.4401 131.76 67.5201C131.8 67.5601 131.8 67.64 131.8 67.68V67.8401C131.84 67.8001 131.84 67.76 131.88 67.76C131.92 67.72 131.96 67.7201 132 67.7201C132.04 67.7201 132.12 67.7201 132.16 67.7201C132.24 67.7201 132.32 67.7601 132.4 67.8001C132.56 67.8801 132.68 68.0001 132.8 68.1201C132.92 68.2401 133 68.4 133.12 68.56C133.2 68.72 133.28 68.92 133.32 69.16C133.36 69.4 133.4 69.6401 133.4 69.8801V71.8401H133.36Z" fill="#FAFAFA"/>
<path d="M136.16 71.6C136.16 71.68 136.16 71.76 136.16 71.88C136.16 72 136.16 72.08 136.16 72.16C136.16 72.36 136.12 72.56 136.08 72.72C136.04 72.88 135.92 73 135.84 73.08C135.72 73.16 135.6 73.2 135.48 73.2C135.32 73.2 135.16 73.16 135 73.04C134.8 72.92 134.64 72.8 134.52 72.64C134.36 72.48 134.24 72.28 134.16 72.08C134.04 71.88 133.96 71.68 133.92 71.44C133.88 71.2 133.84 71 133.84 70.76C133.84 70.68 133.84 70.6 133.84 70.48C133.84 70.36 133.84 70.28 133.84 70.2C133.84 70 133.88 69.8 133.92 69.64C133.96 69.48 134.08 69.36 134.16 69.28C134.28 69.2 134.4 69.16 134.52 69.16C134.68 69.16 134.84 69.2 135 69.32C135.2 69.44 135.36 69.56 135.48 69.72C135.64 69.88 135.76 70.08 135.84 70.28C135.96 70.48 136.04 70.68 136.08 70.92C136.12 71.16 136.16 71.4 136.16 71.6ZM134.56 71.16C134.56 71.32 134.6 71.48 134.68 71.64C134.76 71.76 134.84 71.88 134.96 71.96C135.08 72.04 135.16 72.04 135.24 71.96C135.32 71.92 135.36 71.8 135.36 71.64C135.36 71.56 135.36 71.48 135.36 71.4C135.36 71.32 135.36 71.24 135.36 71.16C135.36 71 135.32 70.84 135.24 70.68C135.16 70.56 135.08 70.44 134.96 70.36C134.84 70.28 134.76 70.28 134.68 70.36C134.6 70.4 134.56 70.52 134.56 70.68C134.56 70.76 134.56 70.84 134.56 70.92C134.56 71 134.52 71.12 134.56 71.16Z" fill="#FAFAFA"/>
<path d="M137.64 73.12C137.64 73.24 137.64 73.32 137.68 73.4C137.72 73.48 137.76 73.52 137.84 73.56L138.2 73.76C138.24 73.76 138.28 73.8 138.28 73.88C138.32 73.92 138.32 74 138.32 74.04V74.72C138.32 74.76 138.32 74.8 138.28 74.84C138.24 74.88 138.24 74.88 138.2 74.84L137.76 74.6C137.64 74.52 137.48 74.4 137.4 74.28C137.28 74.16 137.2 74 137.12 73.84C137.04 73.68 136.96 73.52 136.92 73.32C136.88 73.12 136.84 72.92 136.84 72.72V71.56L136.52 71.36C136.48 71.36 136.44 71.32 136.44 71.24C136.4 71.2 136.4 71.12 136.4 71.08V70.4C136.4 70.36 136.4 70.32 136.44 70.28C136.48 70.24 136.48 70.24 136.52 70.28L136.84 70.48V69.36C136.84 69.32 136.84 69.28 136.88 69.24C136.92 69.2 136.92 69.2 136.96 69.24L137.52 69.56C137.56 69.56 137.6 69.6 137.6 69.68C137.64 69.72 137.64 69.8 137.64 69.84V70.96L138.16 71.24C138.2 71.24 138.24 71.28 138.24 71.36C138.28 71.4 138.28 71.48 138.28 71.52V72.2C138.28 72.24 138.28 72.28 138.24 72.32C138.2 72.36 138.2 72.36 138.16 72.32L137.64 72.04V73.12Z" fill="#FAFAFA"/>
<path d="M140.6 72.68L141.16 73C141.2 73 141.24 73.04 141.24 73.12C141.28 73.16 141.28 73.24 141.28 73.28V73.96C141.28 74 141.28 74.04 141.24 74.08C141.2 74.12 141.2 74.12 141.16 74.08L140.6 73.76V76.08C140.6 76.12 140.6 76.16 140.56 76.2C140.52 76.24 140.52 76.24 140.48 76.2L139.92 75.88C139.88 75.88 139.84 75.84 139.84 75.76C139.8 75.72 139.8 75.64 139.8 75.6V73.28L139.48 73.12C139.44 73.12 139.4 73.08 139.4 73C139.36 72.96 139.36 72.88 139.36 72.84V72.16C139.36 72.12 139.36 72.08 139.4 72.04C139.44 72 139.44 72 139.48 72.04L139.8 72.2V72C139.8 71.8 139.84 71.6 139.88 71.48C139.92 71.36 140 71.24 140.08 71.2C140.16 71.12 140.28 71.12 140.4 71.12C140.52 71.12 140.64 71.16 140.8 71.24L141.24 71.48C141.28 71.48 141.32 71.52 141.32 71.6C141.36 71.64 141.36 71.68 141.36 71.76V72.44C141.36 72.48 141.36 72.52 141.32 72.56C141.28 72.6 141.28 72.6 141.24 72.56L140.84 72.32C140.76 72.28 140.72 72.28 140.68 72.32C140.64 72.36 140.64 72.44 140.64 72.52V72.68H140.6Z" fill="#FAFAFA"/>
<path d="M143.88 76.08C143.88 76.16 143.88 76.24 143.88 76.36C143.88 76.48 143.88 76.56 143.88 76.64C143.88 76.84 143.84 77.04 143.8 77.2C143.76 77.36 143.64 77.48 143.56 77.56C143.44 77.64 143.32 77.68 143.2 77.68C143.04 77.68 142.88 77.64 142.72 77.52C142.52 77.4 142.36 77.28 142.24 77.12C142.08 76.96 141.96 76.76 141.88 76.56C141.76 76.36 141.68 76.16 141.64 75.92C141.6 75.68 141.56 75.48 141.56 75.24C141.56 75.16 141.56 75.08 141.56 74.96C141.56 74.84 141.56 74.76 141.56 74.68C141.56 74.48 141.6 74.28 141.64 74.12C141.68 73.96 141.8 73.84 141.88 73.76C142 73.68 142.12 73.64 142.24 73.64C142.4 73.64 142.56 73.68 142.72 73.8C142.92 73.92 143.08 74.04 143.2 74.2C143.36 74.36 143.48 74.56 143.56 74.76C143.68 74.96 143.76 75.16 143.8 75.4C143.84 75.64 143.88 75.84 143.88 76.08ZM142.28 75.64C142.28 75.8 142.32 75.96 142.4 76.12C142.48 76.24 142.56 76.36 142.68 76.44C142.8 76.52 142.88 76.52 142.96 76.44C143.04 76.4 143.08 76.28 143.08 76.12C143.08 76.04 143.08 75.96 143.08 75.88C143.08 75.8 143.08 75.72 143.08 75.64C143.08 75.48 143.04 75.32 142.96 75.16C142.88 75.04 142.8 74.92 142.68 74.84C142.56 74.76 142.48 74.76 142.4 74.84C142.32 74.88 142.28 75 142.28 75.16C142.28 75.24 142.28 75.32 142.28 75.4C142.28 75.48 142.28 75.56 142.28 75.64Z" fill="#FAFAFA"/>
<path d="M144.28 74.9599C144.28 74.9199 144.28 74.8799 144.32 74.8399C144.36 74.7999 144.36 74.7999 144.4 74.8399L144.96 75.1599C145 75.1599 145.04 75.1999 145.04 75.2799C145.08 75.3199 145.08 75.3999 145.08 75.4399V77.1599C145.08 77.3599 145.12 77.5199 145.16 77.6799C145.2 77.8399 145.32 77.9599 145.44 77.9999C145.56 78.0799 145.68 78.0799 145.72 77.9999C145.76 77.9199 145.8 77.7599 145.8 77.5599V75.8399C145.8 75.7999 145.8 75.7599 145.84 75.7199C145.88 75.6799 145.88 75.6799 145.92 75.7199L146.48 76.0399C146.52 76.0399 146.56 76.0799 146.56 76.1599C146.6 76.1999 146.6 76.2799 146.6 76.3199V79.5199C146.6 79.5599 146.6 79.5999 146.56 79.6399C146.52 79.6799 146.52 79.6799 146.48 79.6399L145.96 79.3599C145.92 79.3599 145.88 79.3199 145.88 79.2399C145.84 79.1999 145.84 79.1599 145.84 79.0799V78.9199C145.8 78.9599 145.8 78.9999 145.76 78.9999C145.72 79.0399 145.68 79.0399 145.64 79.0399C145.6 79.0399 145.52 79.0399 145.48 79.0399C145.4 79.0399 145.32 78.9999 145.24 78.9599C144.96 78.7999 144.72 78.5199 144.56 78.1999C144.4 77.8399 144.32 77.3999 144.32 76.8799V74.9599H144.28Z" fill="#FAFAFA"/>
<path d="M149.48 81.16C149.48 81.2 149.48 81.24 149.44 81.28C149.4 81.32 149.4 81.32 149.36 81.28L148.8 80.96C148.76 80.96 148.72 80.92 148.72 80.84C148.68 80.8 148.68 80.76 148.68 80.68V78.96C148.68 78.76 148.64 78.6 148.6 78.44C148.52 78.28 148.44 78.16 148.32 78.08C148.2 78 148.08 78 148.04 78.08C147.96 78.16 147.96 78.32 147.96 78.48V80.2C147.96 80.24 147.96 80.28 147.92 80.32C147.88 80.36 147.88 80.36 147.84 80.32L147.28 80C147.24 80 147.2 79.96 147.2 79.88C147.16 79.84 147.16 79.76 147.16 79.72V76.52C147.16 76.48 147.16 76.44 147.2 76.4C147.24 76.36 147.24 76.36 147.28 76.4L147.8 76.72C147.84 76.72 147.88 76.76 147.88 76.84C147.92 76.88 147.92 76.96 147.92 77V77.16C147.96 77.12 147.96 77.08 148 77.08C148.04 77.04 148.08 77.04 148.12 77.04C148.16 77.04 148.24 77.04 148.28 77.04C148.36 77.04 148.44 77.08 148.52 77.12C148.68 77.2 148.8 77.32 148.92 77.44C149.04 77.56 149.12 77.72 149.24 77.88C149.32 78.04 149.4 78.24 149.44 78.48C149.48 78.72 149.52 78.96 149.52 79.2V81.16H149.48Z" fill="#FAFAFA"/>
<path d="M150.88 78.52C150.96 78.56 151.04 78.64 151.12 78.68C151.2 78.76 151.24 78.8 151.28 78.88C151.32 78.96 151.36 79 151.4 79.08C151.44 79.16 151.44 79.2 151.48 79.24V77.8C151.48 77.76 151.48 77.72 151.52 77.68C151.56 77.64 151.56 77.64 151.6 77.68L152.16 78C152.2 78 152.24 78.04 152.24 78.12C152.28 78.16 152.28 78.24 152.28 78.28V82.76C152.28 82.8 152.28 82.84 152.24 82.88C152.2 82.92 152.2 82.92 152.16 82.88L151.64 82.56C151.6 82.56 151.56 82.52 151.56 82.44C151.52 82.4 151.52 82.32 151.52 82.28V82.12C151.48 82.16 151.48 82.2 151.44 82.2C151.4 82.24 151.36 82.24 151.32 82.28C151.28 82.28 151.2 82.28 151.16 82.28C151.08 82.28 151 82.24 150.92 82.16C150.8 82.08 150.68 81.96 150.56 81.84C150.44 81.72 150.32 81.56 150.24 81.36C150.16 81.16 150.08 80.96 150.04 80.76C150 80.52 149.96 80.28 149.96 80C149.96 79.92 149.96 79.84 149.96 79.72C149.96 79.6 149.96 79.52 149.96 79.44C149.96 79.16 150 78.96 150.04 78.8C150.08 78.64 150.16 78.52 150.24 78.44C150.32 78.36 150.44 78.32 150.56 78.32C150.64 78.4 150.76 78.44 150.88 78.52ZM150.68 80.08C150.68 80.2 150.68 80.32 150.68 80.48C150.68 80.64 150.72 80.8 150.8 80.96C150.84 81.12 150.96 81.24 151.08 81.32C151.16 81.36 151.2 81.36 151.24 81.36C151.28 81.36 151.32 81.32 151.36 81.32C151.4 81.28 151.4 81.24 151.44 81.2C151.44 81.16 151.48 81.08 151.48 81.04C151.48 80.96 151.48 80.88 151.48 80.8C151.48 80.72 151.48 80.64 151.48 80.56C151.48 80.48 151.48 80.4 151.44 80.36C151.44 80.28 151.4 80.2 151.36 80.16C151.32 80.08 151.28 80.04 151.24 79.96C151.2 79.92 151.12 79.84 151.08 79.8C150.96 79.72 150.84 79.72 150.8 79.8C150.72 79.8 150.68 79.92 150.68 80.08Z" fill="#FAFAFA"/>
</svg>
