<svg width="56" height="56" viewBox="0 0 56 56" fill="none" xmlns="http://www.w3.org/2000/svg">
<g clip-path="url(#clip0_907_111980)">
<path d="M14 0.00012207C12.075 0.00012207 10.5 1.57512 10.5 3.50012V52.5001C10.5 54.4251 12.075 56.0001 14 56.0001H49C50.925 56.0001 52.5 54.4251 52.5 52.5001V14.0001L38.5 0.00012207H14Z" fill="#E2E5E7"/>
<path d="M42 14.0001H52.5L38.5 0.00012207V10.5001C38.5 12.4251 40.075 14.0001 42 14.0001Z" fill="#B0B7BD"/>
<path d="M52.5 24.5001L42 14.0001H52.5V24.5001Z" fill="#CAD1D8"/>
<path d="M45.5 45.5001C45.5 46.4626 44.7125 47.2501 43.75 47.2501H5.25C4.2875 47.2501 3.5 46.4626 3.5 45.5001V28.0001C3.5 27.0376 4.2875 26.2501 5.25 26.2501H43.75C44.7125 26.2501 45.5 27.0376 45.5 28.0001V45.5001Z" fill="#2C56B3"/>
<path d="M10.1254 42.0001C9.66342 42.0001 9.15942 41.7463 9.15942 41.1321V33.1853C9.15942 32.6813 9.66342 32.3173 10.1254 32.3173H13.3297C19.7242 32.3173 19.5824 42.0001 13.4539 42.0001H10.1254ZM11.0074 34.0236V40.2921H13.3297C17.1079 40.2921 17.2742 34.0236 13.3297 34.0236H11.0074Z" fill="white"/>
<path d="M24.9374 42.1401C22.3491 42.2521 19.6611 40.5301 19.6611 37.1018C19.6611 33.6596 22.3474 31.9673 24.9374 31.9673C27.3856 32.0916 29.9459 33.7856 29.9459 37.1018C29.9459 40.4198 27.3856 42.1401 24.9374 42.1401ZM24.7834 33.7873C23.2154 33.7873 21.5091 34.8933 21.5091 37.1036C21.5091 39.3016 23.2171 40.4216 24.7834 40.4216C26.3934 40.4216 28.1136 39.3016 28.1136 37.1036C28.1136 34.8916 26.3934 33.7873 24.7834 33.7873Z" fill="white"/>
<path d="M31.5928 37.0879C31.5928 34.3876 33.2868 32.0654 36.505 32.0654C37.723 32.0654 38.689 32.4294 39.7093 33.3114C40.0873 33.6596 40.1293 34.2756 39.7513 34.6676C39.3733 35.0019 38.7993 34.9616 38.4633 34.6256C37.891 34.0236 37.303 33.8574 36.505 33.8574C34.3508 33.8574 33.3165 35.3834 33.3165 37.0896C33.3165 38.8256 34.3368 40.4199 36.505 40.4199C37.303 40.4199 38.045 40.0961 38.689 39.5239C39.1213 39.1879 39.7233 39.3541 39.9753 39.6919C40.1993 39.9999 40.3095 40.5179 39.8213 41.0061C38.8413 41.9179 37.667 42.0999 36.5033 42.0999C33.1188 42.0999 31.5928 39.7881 31.5928 37.0879Z" fill="white"/>
<path d="M43.75 47.2501H10.5V49.0001H43.75C44.7125 49.0001 45.5 48.2126 45.5 47.2501V45.5001C45.5 46.4626 44.7125 47.2501 43.75 47.2501Z" fill="#CAD1D8"/>
</g>
<defs>
<clipPath id="clip0_907_111980">
<rect width="56" height="56" fill="white" transform="translate(0 0.00012207)"/>
</clipPath>
</defs>
</svg>
