<svg width="56" height="56" viewBox="0 0 56 56" fill="none" xmlns="http://www.w3.org/2000/svg">
<g clip-path="url(#clip0_907_112088)">
<path d="M14 0.00012207C12.075 0.00012207 10.5 1.57512 10.5 3.50012V52.5001C10.5 54.4251 12.075 56.0001 14 56.0001H49C50.925 56.0001 52.5 54.4251 52.5 52.5001V14.0001L38.5 0.00012207H14Z" fill="#E2E5E7"/>
<path d="M42 14.0001H52.5L38.5 0.00012207V10.5001C38.5 12.4251 40.075 14.0001 42 14.0001Z" fill="#B0B7BD"/>
<path d="M52.5 24.5001L42 14.0001H52.5V24.5001Z" fill="#CAD1D8"/>
<path d="M45.5 45.5001C45.5 46.4626 44.7125 47.2501 43.75 47.2501H5.25C4.2875 47.2501 3.5 46.4626 3.5 45.5001V28.0001C3.5 27.0376 4.2875 26.2501 5.25 26.2501H43.75C44.7125 26.2501 45.5 27.0376 45.5 28.0001V45.5001Z" fill="#F15642"/>
<path d="M11.5342 33.1573C11.5342 32.6953 11.8982 32.1913 12.4844 32.1913H15.7167C17.5367 32.1913 19.1747 33.4093 19.1747 35.7438C19.1747 37.9558 17.5367 39.1878 15.7167 39.1878H13.3804V41.0358C13.3804 41.6518 12.9902 42.0001 12.4862 42.0001C12.0242 42.0001 11.5359 41.6518 11.5359 41.0358V33.1573H11.5342ZM13.3804 33.9536V37.4396H15.7167C16.6547 37.4396 17.3967 36.6118 17.3967 35.7438C17.3967 34.7656 16.6547 33.9536 15.7167 33.9536H13.3804Z" fill="white"/>
<path d="M20.958 33.1573C20.958 32.6953 21.322 32.1913 21.91 32.1913H25.1423C26.9623 32.1913 28.6003 33.4093 28.6003 35.7438C28.6003 37.9558 26.9623 39.1878 25.1423 39.1878H22.806V41.0358C22.806 41.6518 22.414 42.0001 21.91 42.0001C21.448 42.0001 20.958 41.6518 20.958 41.0358V33.1573ZM22.8043 33.9536V37.4396H25.1405C26.0785 37.4396 26.8205 36.6118 26.8205 35.7438C26.8205 34.7656 26.0785 33.9536 25.1405 33.9536H22.8043Z" fill="white"/>
<path d="M32.9962 34.0674H30.5497C29.3317 34.0674 29.3317 32.2771 30.5497 32.2771H37.1665C38.4125 32.2771 38.4125 34.0674 37.1665 34.0674H34.8442V41.1339C34.8442 42.3501 32.9962 42.3799 32.9962 41.1339V34.0674Z" fill="white"/>
<path d="M43.75 47.2501H10.5V49.0001H43.75C44.7125 49.0001 45.5 48.2126 45.5 47.2501V45.5001C45.5 46.4626 44.7125 47.2501 43.75 47.2501Z" fill="#CAD1D8"/>
</g>
<defs>
<clipPath id="clip0_907_112088">
<rect width="56" height="56" fill="white" transform="translate(0 0.00012207)"/>
</clipPath>
</defs>
</svg>
