<svg width="16" height="24" viewBox="0 0 16 24" fill="none" xmlns="http://www.w3.org/2000/svg">
<path d="M13.83 13.34L13.334 13.274C13.3174 13.3952 13.3459 13.5183 13.414 13.62L13.829 13.34H13.83ZM6.66 6.17L6.38 6.585C6.48098 6.65298 6.6033 6.68178 6.724 6.666L6.659 6.17H6.66ZM1.17 11.66L1.666 11.725C1.68232 11.6041 1.65387 11.4814 1.586 11.38L1.17 11.66ZM8.34 18.83L8.619 18.415C8.51761 18.3471 8.39491 18.3187 8.274 18.335L8.34 18.83ZM14.325 13.407C14.364 13.117 14.391 12.814 14.391 12.5H13.391C13.391 12.757 13.369 13.013 13.334 13.274L14.324 13.407H14.325ZM14.391 12.5C14.3907 10.6725 13.6646 8.91988 12.3724 7.62762C11.0801 6.33537 9.32753 5.60927 7.5 5.609V6.609C9.06231 6.60927 10.5606 7.23001 11.6653 8.33473C12.77 9.43945 13.3907 10.9377 13.391 12.5H14.391ZM7.5 5.609C7.185 5.609 6.883 5.637 6.595 5.674L6.724 6.666C6.988 6.632 7.244 6.609 7.5 6.609V5.609ZM6.938 5.755C6.20464 5.26188 5.34073 4.99898 4.457 5V6C5.169 6 5.831 6.216 6.38 6.585L6.938 5.755ZM4.457 5C3.87166 4.99987 3.29203 5.11507 2.75122 5.339C2.21042 5.56294 1.71903 5.89124 1.30513 6.30514C0.891235 6.71903 0.56294 7.21042 0.339001 7.75123C0.115063 8.29204 -0.000131262 8.87166 1.12244e-07 9.457H1C0.999869 9.00299 1.0892 8.55339 1.26288 8.13391C1.43656 7.71443 1.6912 7.33328 2.01224 7.01224C2.33328 6.6912 2.71443 6.43657 3.13391 6.26288C3.55339 6.0892 4.00298 5.99987 4.457 6V5ZM1.12244e-07 9.457C1.12244e-07 10.375 0.279 11.229 0.755 11.938L1.585 11.38C1.20268 10.8116 0.998961 10.142 1 9.457H1.12244e-07ZM0.675 11.594C0.633065 11.8942 0.611017 12.1969 0.609 12.5H1.609C1.609 12.243 1.631 11.987 1.666 11.725L0.675 11.594ZM0.609 12.5C0.609 14.3276 1.33501 16.0804 2.62733 17.3727C3.91964 18.665 5.67239 19.391 7.5 19.391V18.391C5.93761 18.391 4.43921 17.7703 3.33443 16.6656C2.22966 15.5608 1.609 14.0624 1.609 12.5H0.609ZM7.5 19.391C7.814 19.391 8.116 19.364 8.406 19.325L8.274 18.335C8.01751 18.3707 7.75895 18.3894 7.5 18.391V19.391ZM8.061 19.245C8.771 19.722 9.625 20 10.543 20V19C9.85771 19.0011 9.18772 18.7973 8.619 18.415L8.061 19.245ZM10.543 20C11.7251 20 12.8587 19.5304 13.6946 18.6946C14.5304 17.8587 15 16.7251 15 15.543H14C14 15.997 13.9106 16.4465 13.7369 16.8659C13.5631 17.2854 13.3085 17.6665 12.9875 17.9875C12.6665 18.3085 12.2854 18.5631 11.8659 18.7369C11.4465 18.9106 10.997 19 10.543 19V20ZM15 15.543C15 14.625 14.72 13.771 14.244 13.062L13.414 13.62C13.784 14.17 14 14.83 14 15.544H15V15.543ZM7 13H8V12H7V13ZM9.947 10.276C9.75519 9.89257 9.46042 9.57011 9.09571 9.34475C8.73099 9.11938 8.31073 9.00001 7.882 9V10C8.378 10 8.831 10.28 9.052 10.724L9.947 10.276ZM9 14C9 14.2652 8.89464 14.5196 8.70711 14.7071C8.51957 14.8946 8.26522 15 8 15V16C8.53043 16 9.03914 15.7893 9.41421 15.4142C9.78929 15.0391 10 14.5304 10 14H9ZM8 13C8.26522 13 8.51957 13.1054 8.70711 13.2929C8.89464 13.4804 9 13.7348 9 14H10C10 13.4696 9.78929 12.9609 9.41421 12.5858C9.03914 12.2107 8.53043 12 8 12V13ZM7.118 15C6.622 15 6.168 14.72 5.948 14.276L5.053 14.724C5.2448 15.1074 5.53957 15.4299 5.90429 15.6553C6.26901 15.8806 6.68927 16 7.118 16V15ZM5 11C5 11.5304 5.21071 12.0391 5.58579 12.4142C5.96086 12.7893 6.46957 13 7 13V12C6.73478 12 6.48043 11.8946 6.29289 11.7071C6.10536 11.5196 6 11.2652 6 11H5ZM6 11C6 10.7348 6.10536 10.4804 6.29289 10.2929C6.48043 10.1054 6.73478 10 7 10V9C6.46957 9 5.96086 9.21072 5.58579 9.58579C5.21071 9.96086 5 10.4696 5 11H6ZM8 15H7.118V16H8V15ZM7.882 9H7V10H7.882V9Z" fill="#69707D"/>
</svg>
