<svg width="104" height="18" viewBox="0 0 104 18" fill="none" xmlns="http://www.w3.org/2000/svg">
<path d="M51.5286 2.98489C47.3354 2.98489 43.9271 6.33941 43.9271 10.482C43.9271 14.6246 47.3283 17.9791 51.5286 17.9791C55.7217 17.9791 59.1229 14.6246 59.13 10.482C59.1229 6.34638 55.7217 2.99187 51.5286 2.98489ZM51.5286 14.9593C49.0254 14.9593 46.9889 12.9578 46.9889 10.482C46.9889 8.0062 49.0183 6.00465 51.5286 6.00465C54.0317 6.00465 56.0682 8.0062 56.0682 10.482C56.0682 12.9508 54.0388 14.9593 51.5286 14.9593Z" fill="#00C081"/>
<path d="M78.5048 2.98491C74.3116 2.98491 70.9104 6.33942 70.9104 10.482C70.9104 14.6246 74.3116 17.9791 78.5118 17.9721C80.0392 17.9721 81.5241 17.5188 82.7828 16.675C83.4828 16.2077 83.6596 15.2662 83.1859 14.5758C82.7121 13.8853 81.7575 13.711 81.0574 14.1782C78.9856 15.5661 76.1572 15.0361 74.75 12.9927C74.5308 12.6788 74.3611 12.3441 74.2338 11.9814H84.5789C85.4203 11.9814 86.1062 11.3049 86.1062 10.475C86.1062 6.33942 82.7121 2.98491 78.5189 2.97794C78.5118 2.98491 78.5048 2.98491 78.5048 2.98491ZM74.2268 8.97561C75.0753 6.64628 77.6704 5.43977 80.0321 6.26968C81.312 6.723 82.3161 7.71331 82.7757 8.97561H74.2268Z" fill="#00C081"/>
<path d="M102.589 7.95739C101.175 4.0589 96.826 2.02946 92.8733 3.42427C88.9205 4.81907 86.8629 9.10811 88.2771 13.0066C89.6913 16.9051 94.04 18.9345 97.9928 17.5397C98.6009 17.3235 99.1737 17.0376 99.7111 16.6819C100.411 16.2147 100.588 15.2732 100.114 14.5827C99.6403 13.8923 98.6858 13.7179 97.9857 14.1852C95.9139 15.573 93.0854 15.043 91.6783 12.9996C91.4591 12.6858 91.2894 12.351 91.155 11.9884H101.5C102.342 11.9884 103.034 11.3189 103.034 10.482C103.034 9.62419 102.886 8.76638 102.589 7.95739ZM91.1621 8.9756C92.0106 6.64627 94.6057 5.43976 96.9675 6.26967C98.2473 6.72299 99.2514 7.7133 99.7111 8.9756H91.1621Z" fill="#00C081"/>
<path d="M25.6908 3.0058C24.319 3.0058 22.9825 3.41029 21.8512 4.17046C21.6602 3.36147 20.8329 2.85237 20.0127 3.04764C19.3197 3.20805 18.8318 3.82176 18.8318 4.51916V16.4517C18.8318 17.2886 19.5177 17.9581 20.3592 17.9581C21.2006 17.9581 21.8865 17.2817 21.8865 16.4517V9.77062C21.8865 7.69933 23.5836 6.02556 25.6837 6.02556C27.7838 6.02556 29.4809 7.69933 29.4809 9.77062V16.4517C29.4809 17.2886 30.1668 17.9581 31.0082 17.9581C31.8497 17.9581 32.5356 17.2817 32.5356 16.4517V9.51955C32.5356 9.44284 32.5285 9.36612 32.5144 9.28941C32.2669 5.7466 29.2829 3.01277 25.6908 3.0058Z" fill="#00C081"/>
<path d="M69.079 2.94305C67.4173 2.94305 65.8051 3.47308 64.4757 4.4634C64.4545 3.63348 63.7474 2.97095 62.9059 2.99885C62.0857 3.01977 61.4281 3.67533 61.4139 4.48432V16.4169C61.4139 17.2538 62.0998 17.9233 62.9413 17.9233C63.7828 17.9233 64.4687 17.2468 64.4687 16.4169V10.4959C64.4687 7.99226 66.5263 5.96281 69.0719 5.95584C69.9134 5.95584 70.5993 5.27936 70.5993 4.44945C70.6064 3.61954 69.9275 2.94305 69.079 2.94305Z" fill="#00C081"/>
<path d="M13.6981 2.90121C12.8567 2.90121 12.1708 3.57769 12.1708 4.40761C8.81909 1.91787 4.05316 2.58041 1.52878 5.8861C-0.995605 9.1918 -0.323849 13.8923 3.02785 16.382C5.73609 18.3906 9.46256 18.3906 12.1637 16.382C12.1779 17.2189 12.8708 17.8815 13.7123 17.8745C14.5538 17.8675 15.2326 17.1771 15.2184 16.3472V4.41458C15.2255 3.57769 14.5467 2.90121 13.6981 2.90121ZM7.60286 14.8756C5.09262 14.8756 3.06321 12.8741 3.06321 10.3983C3.06321 7.92252 5.09969 5.92097 7.60286 5.92097C10.106 5.92097 12.1425 7.92252 12.1425 10.3983C12.1425 12.8671 10.1131 14.8687 7.60286 14.8756Z" fill="#00C081"/>
<path d="M41.2472 5.99767C42.0886 5.99767 42.7746 5.32119 42.7746 4.49128C42.7746 3.66137 42.0886 2.98489 41.2472 2.98489H38.7016V1.50639C38.7016 0.676481 38.0157 0 37.1742 0C36.3328 0 35.6469 0.676481 35.6469 1.50639V2.98489H35.1731C34.3317 2.98489 33.6458 3.66137 33.6458 4.49128C33.6458 5.32119 34.3317 5.99767 35.1731 5.99767H35.6469V12.4905C35.6469 15.5312 38.15 18 41.233 18C42.0745 18 42.7604 17.3235 42.7604 16.4936C42.7604 15.6637 42.0745 14.9872 41.233 14.9872C39.84 14.9872 38.7087 13.8714 38.7087 12.4975V6.00465L41.2472 5.99767Z" fill="#00C081"/>
</svg>
