<svg width="138" height="48" viewBox="0 0 138 48" fill="none" xmlns="http://www.w3.org/2000/svg">
<path d="M17.415 41.4149C7.79945 41.4149 0 33.6155 0 24C0 14.3844 7.79945 6.58499 17.415 6.58499C27.0305 6.58499 34.8137 14.3682 34.83 23.9837C34.8137 33.5993 27.0305 41.3987 17.415 41.4149ZM17.415 13.5412C11.6748 13.525 7.00491 18.1625 6.98869 23.9027C6.97248 29.6428 11.61 34.3127 17.3501 34.3289C23.0902 34.3452 27.7602 29.7239 27.7764 23.9837C27.7764 18.2598 23.1389 13.6223 17.415 13.5899V13.5412Z" fill="#00C081"/>
<path d="M31.4085 41.3176C29.4789 41.3176 27.9061 39.7448 27.9061 37.8152V10.0874C27.9061 8.15782 29.4789 6.58496 31.4085 6.58496C33.3381 6.58496 34.911 8.15782 34.911 10.0874V37.8152C34.911 39.7448 33.3543 41.3176 31.4247 41.3339C31.4247 41.3176 31.4247 41.3176 31.4085 41.3176Z" fill="#00C081"/>
<path d="M49.4831 29.871C49.0419 29.871 48.7053 29.7491 48.4731 29.5053C48.2409 29.2615 48.1248 28.919 48.1248 28.4778V19.6659H45.0423C44.2877 19.6659 43.9103 19.2943 43.9103 18.5513C43.9103 17.8083 44.2877 17.4367 45.0423 17.4367H53.9065C54.6612 17.4367 55.0385 17.8083 55.0385 18.5513C55.0385 19.2943 54.6612 19.6659 53.9065 19.6659H50.8241V28.4778C50.8241 28.919 50.708 29.2615 50.4758 29.5053C50.2552 29.7491 49.9243 29.871 49.4831 29.871ZM57.6131 29.7143C56.6727 29.7143 56.2024 29.2441 56.2024 28.3037V18.8474C56.2024 17.9069 56.6727 17.4367 57.6131 17.4367H63.6909C64.3991 17.4367 64.7532 17.785 64.7532 18.4816C64.7532 19.1898 64.3991 19.544 63.6909 19.544H58.7799V22.4174H63.2903C64.0102 22.4174 64.3701 22.7715 64.3701 23.4797C64.3701 24.1879 64.0102 24.542 63.2903 24.542H58.7799V27.6071H63.6909C64.3991 27.6071 64.7532 27.9554 64.7532 28.652C64.7532 29.3602 64.3991 29.7143 63.6909 29.7143H57.6131ZM66.8909 29.871C66.4033 29.871 66.055 29.7085 65.846 29.3834C65.637 29.0583 65.6428 28.6578 65.8634 28.1818L70.3216 18.412C70.5074 18.0172 70.728 17.7328 70.9834 17.5586C71.2388 17.3729 71.5349 17.28 71.8716 17.28C72.2083 17.28 72.5043 17.3729 72.7597 17.5586C73.0151 17.7328 73.2299 18.0172 73.4041 18.412L77.8971 28.1818C78.1177 28.6694 78.1235 29.0757 77.9146 29.4008C77.7172 29.7143 77.3921 29.871 76.9393 29.871C76.5446 29.871 76.2369 29.7781 76.0163 29.5924C75.8073 29.4066 75.6216 29.1164 75.459 28.7216L74.7276 27.0498H68.9981L68.2841 28.7216C68.1099 29.128 67.9242 29.424 67.7268 29.6098C67.5294 29.784 67.2508 29.871 66.8909 29.871ZM71.8367 20.3102L69.9037 24.9426H73.8395L71.8716 20.3102H71.8367ZM85.3216 29.9059C83.9981 29.9059 82.8661 29.6446 81.9257 29.1222C80.9853 28.5997 80.2597 27.8683 79.7488 26.9279C79.2496 25.9759 79 24.8555 79 23.5668C79 22.2897 79.2496 21.181 79.7488 20.2406C80.2597 19.2885 80.9853 18.5513 81.9257 18.0289C82.8661 17.5064 83.9981 17.2452 85.3216 17.2452C85.9021 17.2452 86.4884 17.3206 87.0805 17.4716C87.6843 17.6225 88.2067 17.8257 88.6479 18.0811C89.0078 18.2901 89.2284 18.5513 89.3097 18.8648C89.3909 19.1782 89.3619 19.4743 89.2226 19.7529C89.0949 20.0316 88.8917 20.2289 88.6131 20.345C88.3344 20.4611 88.021 20.4205 87.6727 20.2231C87.3244 20.0142 86.9586 19.8632 86.5755 19.7703C86.1924 19.6775 85.8034 19.631 85.4087 19.631C84.2361 19.631 83.3479 19.9735 82.7442 20.6585C82.1521 21.3319 81.8561 22.3013 81.8561 23.5668C81.8561 24.8323 82.1521 25.8075 82.7442 26.4925C83.3479 27.1775 84.2361 27.52 85.4087 27.52C85.7802 27.52 86.1575 27.4736 86.5407 27.3807C86.9354 27.2878 87.3127 27.1427 87.6727 26.9453C88.0442 26.7479 88.3693 26.7073 88.6479 26.8234C88.9265 26.9279 89.1297 27.1137 89.2574 27.3807C89.3967 27.6361 89.4316 27.9206 89.3619 28.234C89.2922 28.5359 89.0949 28.7855 88.7698 28.9829C88.3286 29.2731 87.7946 29.4995 87.1676 29.662C86.5523 29.8246 85.937 29.9059 85.3216 29.9059ZM92.6288 29.871C92.1877 29.871 91.851 29.7491 91.6188 29.5053C91.3866 29.2615 91.2705 28.919 91.2705 28.4778V18.6732C91.2705 17.7444 91.7233 17.28 92.6288 17.28C93.5228 17.28 93.9698 17.7444 93.9698 18.6732V22.3652H99.6819V18.6732C99.6819 17.7444 100.129 17.28 101.023 17.28C101.928 17.28 102.381 17.7444 102.381 18.6732V28.4778C102.381 28.919 102.265 29.2615 102.033 29.5053C101.801 29.7491 101.464 29.871 101.023 29.871C100.593 29.871 100.262 29.7491 100.03 29.5053C99.798 29.2615 99.6819 28.919 99.6819 28.4778V24.6117H93.9698V28.4778C93.9698 29.4066 93.5228 29.871 92.6288 29.871ZM106.27 29.7143C105.329 29.7143 104.859 29.2441 104.859 28.3037V18.8474C104.859 17.9069 105.329 17.4367 106.27 17.4367H112.347C113.056 17.4367 113.41 17.785 113.41 18.4816C113.41 19.1898 113.056 19.544 112.347 19.544H107.436V22.4174H111.947C112.667 22.4174 113.027 22.7715 113.027 23.4797C113.027 24.1879 112.667 24.542 111.947 24.542H107.436V27.6071H112.347C113.056 27.6071 113.41 27.9554 113.41 28.652C113.41 29.3602 113.056 29.7143 112.347 29.7143H106.27ZM116.762 29.871C116.32 29.871 115.984 29.7491 115.751 29.5053C115.519 29.2615 115.403 28.919 115.403 28.4778V18.8125C115.403 17.8953 115.862 17.4367 116.779 17.4367H121.011C122.381 17.4367 123.437 17.7676 124.18 18.4294C124.923 19.0912 125.295 20.0142 125.295 21.1984C125.295 22.1156 125.057 22.8818 124.581 23.4972C124.116 24.1009 123.449 24.513 122.578 24.7336C123.193 24.9194 123.698 25.3664 124.093 26.0746L125.173 28.0773C125.417 28.5185 125.463 28.9306 125.312 29.3138C125.161 29.6853 124.796 29.871 124.215 29.871C123.832 29.871 123.519 29.7898 123.275 29.6272C123.031 29.4647 122.822 29.2151 122.648 28.8784L120.976 25.7959C120.802 25.4708 120.587 25.2503 120.332 25.1342C120.076 25.0181 119.774 24.96 119.426 24.96H118.102V28.4778C118.102 28.919 117.986 29.2615 117.754 29.5053C117.534 29.7491 117.203 29.871 116.762 29.871ZM118.102 23.0095H120.523C121.974 23.0095 122.7 22.429 122.7 21.268C122.7 20.1186 121.974 19.544 120.523 19.544H118.102V23.0095ZM131.867 29.9059C131.123 29.9059 130.38 29.8246 129.637 29.662C128.894 29.4995 128.25 29.2615 127.704 28.948C127.379 28.7739 127.176 28.5417 127.095 28.2514C127.014 27.9496 127.031 27.6593 127.147 27.3807C127.263 27.102 127.449 26.9047 127.704 26.7886C127.96 26.6725 128.267 26.7015 128.627 26.8757C129.092 27.1427 129.608 27.3401 130.177 27.4678C130.746 27.5955 131.309 27.6593 131.867 27.6593C132.702 27.6593 133.3 27.5316 133.66 27.2762C134.032 27.0092 134.218 26.6783 134.218 26.2835C134.218 25.9469 134.09 25.6798 133.834 25.4825C133.579 25.2851 133.132 25.1167 132.493 24.9774L130.526 24.5595C128.331 24.0951 127.234 22.9573 127.234 21.1461C127.234 20.3683 127.443 19.6891 127.861 19.1086C128.279 18.5165 128.86 18.0579 129.603 17.7328C130.357 17.4077 131.228 17.2452 132.215 17.2452C132.865 17.2452 133.504 17.3264 134.13 17.489C134.757 17.6399 135.309 17.8663 135.785 18.1682C136.075 18.3423 136.255 18.5687 136.325 18.8474C136.394 19.126 136.371 19.393 136.255 19.6484C136.151 19.9039 135.965 20.0838 135.698 20.1883C135.442 20.2928 135.123 20.2522 134.74 20.0664C134.357 19.869 133.951 19.7239 133.521 19.631C133.091 19.5381 132.65 19.4917 132.197 19.4917C131.466 19.4917 130.897 19.6368 130.491 19.9271C130.096 20.2057 129.899 20.5714 129.899 21.0242C129.899 21.3609 130.021 21.6337 130.264 21.8427C130.508 22.0517 130.932 22.2201 131.536 22.3478L133.504 22.7657C135.756 23.2533 136.882 24.3563 136.882 26.0746C136.882 26.8408 136.673 27.5142 136.255 28.0947C135.849 28.6636 135.268 29.1106 134.514 29.4357C133.771 29.7491 132.888 29.9059 131.867 29.9059Z" fill="#00C081"/>
</svg>
